g A_UI
v 0.2560455 0.9366699 -0.3988511
v 0.08737504 0.07951951 -0.3988511
v 0.5055234 0.8283154 -0.3988511
v 0.5055234 0.8283154 -0.3988511
v 0.08737504 0.07951951 -0.3988511
v 0.9134414 -0.6551182 -0.3988511
v 0.08737504 0.07951951 -0.3988511
v 0.1273379 -0.38644 -0.3988511
v 0.9134414 -0.6551182 -0.3988511
v -0.4494566 0.9378132 -0.3988511
v -0.9828995 -0.7415431 -0.3988511
v -0.1153893 0.08863795 -0.3988511
v -0.4494566 0.9378132 -0.3988511
v -0.1153893 0.08863795 -0.3988511
v -0.2350959 0.9385992 -0.3988511
v -0.9828995 -0.7415431 -0.3988511
v -0.9532653 -0.9292411 -0.3988511
v -0.1647031 -0.6580826 -0.3988511
v 0.02563584 -1.114154 -0.3987529
v -0.1333433 -0.8699606 -0.3988511
v -0.2215536 -0.9170026 -0.3988511
v 0.163016 -0.8995997 -0.3988511
v 0.1531355 -0.682277 -0.3988511
v 0.3507092 -0.9489996 -0.3988511
v 0.3498129 -1.223178 -0.3987529
v 0.8841499 -0.9391192 -0.3988511
v 1.010427 -1.195063 -0.3987529
v 1.239847 -0.9844429 -0.3987529
v 1.002692 -0.8501996 -0.3988511
v 1.256419 -0.6592401 -0.3987529
v 0.9829355 -0.6526355 -0.3988511
v 0.7264815 1.059681 -0.3987529
v 0.5525078 0.9101607 -0.3988511
v 0.5120465 1.21919 -0.3987529
v 0.2716773 1.016843 -0.3988511
v -0.3912281 1.252086 -0.3987529
v -0.2518852 1.016843 -0.3988511
v -0.6402029 1.081908 -0.3987529
v -0.4494566 0.9378132 -0.3988511
v -1.256419 -0.7791598 -0.3987529
v -0.9828995 -0.7415431 -0.3988511
v -1.159929 -1.110744 -0.3987529
v -0.9532653 -0.9292411 -0.3988511
v -0.9023508 -1.252086 -0.3987529
v -0.8149649 -0.9786388 -0.3988511
v -0.246733 -1.214143 -0.3987529
v -0.2815219 -0.9489996 -0.3988511
v -0.2215536 -0.9170026 -0.3988511
v -0.246733 -1.214143 -0.3987529
v 0.02563584 -1.114154 -0.3987529
v -0.09382868 -0.662516 -0.3988511
v -0.1333433 -0.8699606 -0.3988511
v 0.02563584 -1.114154 -0.3987529
v 0.02563584 -1.114154 -0.3987529
v 0.1531355 -0.682277 -0.3988511
v -0.09382868 -0.662516 -0.3988511
v 0.2560455 0.9366699 -0.3988511
v -0.05029511 0.08530211 -0.3988511
v 0.08737504 0.07951951 -0.3988511
v -0.2350959 0.9385992 -0.3988511
v -0.1153893 0.08863795 -0.3988511
v -0.07761443 -0.3868786 -0.3988511
v 0.1389055 -0.4521525 -0.3988511
v 0.1273379 -0.38644 -0.3988511
v -0.158446 -0.4370646 -0.3988511
v -0.1153893 0.08863795 -0.3988511
v -0.05029511 0.08530211 -0.3988511
v 1.002692 -0.8501996 -0.3988511
v 0.9235831 -0.8522893 -0.3988511
v 0.8841499 -0.9391192 -0.3988511
v 0.9134414 -0.6551182 -0.3988511
v 0.9829355 -0.6526355 -0.3988511
v 0.5055234 0.8283154 -0.3988511
v 0.5525078 0.9101607 -0.3988511
v 0.2716773 1.016843 -0.3988511
v 0.2560455 0.9366699 -0.3988511
v -0.2350959 0.9385992 -0.3988511
v -0.2518852 1.016843 -0.3988511
v -0.4494566 0.9378132 -0.3988511
v 0.1273379 -0.38644 -0.3988511
v 0.1389055 -0.4521525 -0.3988511
v 0.9134414 -0.6551182 -0.3988511
v 0.1531355 -0.682277 -0.3988511
v -0.09382868 -0.662516 -0.3988511
v -0.158446 -0.4370646 -0.3988511
v -0.1647031 -0.6580826 -0.3988511
v 0.163016 -0.8995997 -0.3988511
v 0.9235831 -0.8522893 -0.3988511
v 0.3507092 -0.9489996 -0.3988511
v 0.8841499 -0.9391192 -0.3988511
v -0.9532653 -0.9292411 -0.3988511
v -0.8149649 -0.9786388 -0.3988511
v -0.2815219 -0.9489996 -0.3988511
v -0.2215536 -0.9170026 -0.3988511
v -0.1153893 0.08863795 -0.3988511
v -0.9828995 -0.7415431 -0.3988511
v -0.158446 -0.4370646 -0.3988511
v -0.1647031 -0.6580826 -0.3988511
v -0.09382868 -0.662516 -0.3988511
v -0.1647031 -0.6580826 -0.3988511
v -0.1333433 -0.8699606 -0.3988511
v -0.2215536 -0.9170026 -0.3988511
v 1.010427 -1.195063 -0.3987529
v 1.010427 -1.195063 0.3988512
v 1.239847 -0.9844453 0.3988512
v 1.239847 -0.9844429 -0.3987529
v 1.239847 -0.9844429 -0.3987529
v 1.239847 -0.9844453 0.3988512
v 1.256419 -0.6592401 0.3988512
v 1.256419 -0.6592401 -0.3987529
v 1.256419 -0.6592401 -0.3987529
v 1.256419 -0.6592401 0.3988512
v 0.7264815 1.059681 0.3988512
v 0.7264815 1.059681 -0.3987529
v 0.7264815 1.059681 -0.3987529
v 0.7264815 1.059681 0.3988512
v 0.5120465 1.21919 0.3988512
v 0.5120465 1.21919 -0.3987529
v -0.3912281 1.252086 -0.3987529
v -0.3912281 1.252086 0.3988512
v -0.6402029 1.081908 0.3988512
v -0.6402029 1.081908 -0.3987529
v -1.256419 -0.7791598 -0.3987529
v -1.256419 -0.7791598 0.3988512
v -1.159929 -1.110744 0.3988512
v -1.159929 -1.110744 -0.3987529
v -1.159929 -1.110744 -0.3987529
v -1.159929 -1.110744 0.3988512
v -0.9023508 -1.252086 0.3988512
v -0.9023508 -1.252086 -0.3987529
v 0.5120465 1.21919 -0.3987529
v 0.5120465 1.21919 0.3988512
v -0.3912281 1.252086 0.3988512
v -0.3912281 1.252086 -0.3987529
v -0.6402029 1.081908 -0.3987529
v -0.6402029 1.081908 0.3988512
v -1.256419 -0.7791598 0.3988512
v -1.256419 -0.7791598 -0.3987529
v 0.3498129 -1.223178 0.3988512
v 1.010427 -1.195063 0.3988512
v 1.010427 -1.195063 -0.3987529
v 0.3498129 -1.223178 -0.3987529
v -0.246733 -1.214143 0.3988512
v -0.246733 -1.214143 -0.3987529
v -0.9023508 -1.252086 -0.3987529
v -0.9023508 -1.252086 0.3988512
v 0.02563584 -1.114154 -0.3987529
v 0.02563584 -1.114157 0.3988512
v 0.3498129 -1.223178 0.3988512
v 0.3498129 -1.223178 -0.3987529
v -0.246733 -1.214143 0.3988512
v 0.02563584 -1.114157 0.3988512
v 0.02563584 -1.114154 -0.3987529
v -0.246733 -1.214143 -0.3987529
v 0.08737504 0.07951951 -0.3988511
v -0.05029511 0.08530211 -0.3988511
v -0.07761443 -0.3868786 -0.3988511
v 0.1273379 -0.38644 -0.3988511
vt 0.3362709 0.3882231
vt 0.3537486 0.3609031
vt 0.3379105 0.385295
vt 0.3379105 0.385295
vt 0.3537486 0.3609031
vt 0.3604608 0.3489452
vt 0.3537486 0.3609031
vt 0.3568787 0.355893
vt 0.3604608 0.3489452
vt 0.337646 0.3872182
vt 0.3632111 0.355768
vt 0.3537582 0.3612253
vt 0.3377374 0.3870451
vt 0.3537582 0.3612253
vt 0.3368767 0.3880837
vt 0.3632111 0.355768
vt 0.3661008 0.3431129
vt 0.361307 0.349378
vt 0.07796177 0.1466705
vt 0.07767808 0.1467859
vt 0.07753383 0.1468484
vt 0.07796177 0.1466705
vt 0.07781751 0.1467282
vt 0.07864933 0.1469061
vt 0.07864933 0.1469061
vt 0.0800437 0.1469061
vt 0.0800437 0.1469061
vt 0.08052932 0.1466705
vt 0.08052932 0.1466705
vt 0.08056298 0.1463916
vt 0.08056298 0.1463916
vt 0.07954846 0.1448049
vt 0.07954846 0.1448049
vt 0.0785724 0.1446895
vt 0.0785724 0.1446895
vt 0.07725977 0.1446895
vt 0.07725977 0.1446895
vt 0.07660105 0.1447135
vt 0.07660105 0.1447135
vt 0.07525957 0.1464493
vt 0.07525957 0.1464493
vt 0.07546151 0.1467859
vt 0.07546151 0.1467859
vt 0.07600484 0.1469061
vt 0.07600484 0.1469061
vt 0.07738959 0.1469061
vt 0.07738959 0.1469061
vt 0.07753383 0.1468484
vt 0.07738959 0.1469061
vt 0.07796177 0.1466705
vt 0.07775021 0.146757
vt 0.07767808 0.1467859
vt 0.07796177 0.1466705
vt 0.07796177 0.1466705
vt 0.07781751 0.1467282
vt 0.07775021 0.146757
vt 0.3362709 0.3882231
vt 0.3537582 0.3611099
vt 0.3537486 0.3609031
vt 0.3368767 0.3880837
vt 0.3537582 0.3612253
vt 0.3585135 0.3345399
vt 0.3585135 0.3345399
vt 0.3585135 0.3345399
vt 0.3585135 0.3345399
vt 0.3585135 0.3345399
vt 0.3585135 0.3345399
vt 0.3585135 0.3345399
vt 0.3585135 0.3345399
vt 0.3585135 0.3345399
vt 0.3585135 0.3345399
vt 0.3585135 0.3345399
vt 0.3585135 0.3345399
vt 0.3585135 0.3345399
vt 0.3585135 0.3345399
vt 0.3585135 0.3345399
vt 0.3585135 0.3345399
vt 0.3585135 0.3345399
vt 0.3585135 0.3345399
vt 0.3568787 0.355893
vt 0.3578932 0.3542823
vt 0.3604608 0.3489452
vt 0.3614464 0.3486375
vt 0.3613262 0.3492385
vt 0.3578451 0.3547679
vt 0.361307 0.349378
vt 0.3648074 0.3433101
vt 0.3635091 0.344113
vt 0.3654372 0.3420118
vt 0.3648843 0.3420022
vt 0.3661008 0.3431129
vt 0.3667643 0.3418387
vt 0.3659036 0.34231
vt 0.3653651 0.3430648
vt 0.3537582 0.3612253
vt 0.3632111 0.355768
vt 0.3578451 0.3547679
vt 0.361307 0.349378
vt 0.3585135 0.3345399
vt 0.3585135 0.3345399
vt 0.3585135 0.3345399
vt 0.3585135 0.3345399
vt 0.07311994 0.1507718
vt 0.08323151 0.1507718
vt 0.08323151 0.1498775
vt 0.07311994 0.1498775
vt 0.07311994 0.1498775
vt 0.08323151 0.1498775
vt 0.08323151 0.149214
vt 0.07311994 0.149214
vt 0.07311994 0.149214
vt 0.08323151 0.149214
vt 0.08323151 0.1467522
vt 0.07311994 0.1467522
vt 0.07311994 0.1467522
vt 0.08323151 0.1467522
vt 0.08323151 0.1441125
vt 0.07311994 0.1441125
vt 0.07311994 0.1441125
vt 0.08323151 0.1441125
vt 0.08323151 0.1467522
vt 0.07311994 0.1467522
vt 0.07311994 0.149214
vt 0.08323151 0.149214
vt 0.08323151 0.1498775
vt 0.07311994 0.1498775
vt 0.07311994 0.1498775
vt 0.08323151 0.1498775
vt 0.08323151 0.1507718
vt 0.07311994 0.1507718
vt 0.07311994 0.1441125
vt 0.08323151 0.1441125
vt 0.08323151 0.1441125
vt 0.07311994 0.1441125
vt 0.07311994 0.1467522
vt 0.08323151 0.1467522
vt 0.08323151 0.149214
vt 0.07311994 0.149214
vt 0.08323151 0.1536471
vt 0.08323151 0.1507718
vt 0.07311994 0.1507718
vt 0.07311994 0.1536471
vt 0.08323151 0.1536471
vt 0.07311994 0.1536471
vt 0.07311994 0.1507718
vt 0.08323151 0.1507718
vt 0.07311994 0.1521662
vt 0.08323151 0.1521662
vt 0.08323151 0.1536471
vt 0.07311994 0.1536471
vt 0.08323151 0.1536471
vt 0.08323151 0.1521662
vt 0.07311994 0.1521662
vt 0.07311994 0.1536471
vt 0.07753383 0.1468484
vt 0.07738959 0.1469061
vt 0.07738959 0.1469061
vt 0.07796177 0.1466705
vn 0.0008557439 -0.0008557439 -0.9999993
vn 0.0008557439 -0.0008557439 -0.9999993
vn 0.0008557439 -0.0008557439 -0.9999993
vn 0.0008557439 -0.0008557439 -0.9999993
vn 0.0008557439 -0.0008557439 -0.9999993
vn 0.0008557439 -0.0008557439 -0.9999993
vn 0.0008557439 -0.0008557439 -0.9999993
vn 0.0008557439 -0.0008557439 -0.9999993
vn 0.0008557439 -0.0008557439 -0.9999993
vn 0.0008557439 -0.0008557439 -0.9999993
vn 0.0008557439 -0.0008557439 -0.9999993
vn 0.0008557439 -0.0008557439 -0.9999993
vn 0.0008557439 -0.0008557439 -0.9999993
vn 0.0008557439 -0.0008557439 -0.9999993
vn 0.0008557439 -0.0008557439 -0.9999993
vn 0.0008557439 -0.0008557439 -0.9999993
vn 0.0008557439 -0.0008557439 -0.9999993
vn 0.0008557439 -0.0008557439 -0.9999993
vn 0.0008557439 -0.0008557439 -0.9999993
vn 0.0008557439 -0.0008557439 -0.9999993
vn 0.0008557439 -0.0008557439 -0.9999993
vn 0.0008557439 -0.0008557439 -0.9999993
vn -0.001097798 -0.0008557439 -0.999999
vn 0.0008557439 -0.0008557439 -0.9999993
vn 0.0008557439 -0.0008557439 -0.9999993
vn 0.0008557439 -0.0008557439 -0.9999993
vn 0.0008557439 -0.0008557439 -0.9999993
vn 0.0008557439 -0.0008557439 -0.9999993
vn 0.0008557439 -0.0008557439 -0.9999993
vn 0.0008557439 -0.0008557439 -0.9999993
vn 0.0008557439 -0.0008557439 -0.9999993
vn 0.0008557439 -0.0008557439 -0.9999993
vn 0.0008557439 -0.0008557439 -0.9999993
vn 0.0008557439 0.001097798 -0.999999
vn 0.0008557439 0.001097798 -0.999999
vn 0.0008557439 0.001097798 -0.999999
vn 0.0008557439 0.001097798 -0.999999
vn -0.001097798 0.001097798 -0.9999988
vn -0.001097798 0.001097798 -0.9999988
vn -0.001097798 0.001097798 -0.9999988
vn -0.001097798 0.001097798 -0.9999988
vn -0.001097798 -0.0008557439 -0.999999
vn -0.001097798 -0.0008557439 -0.999999
vn -0.001097798 -0.0008557439 -0.999999
vn -0.001097798 -0.0008557439 -0.999999
vn 0.0008557439 -0.0008557439 -0.9999993
vn 0.0008557439 -0.0008557439 -0.9999993
vn 0.0008557439 -0.0008557439 -0.9999993
vn 0.0008557439 -0.0008557439 -0.9999993
vn 0.0008557439 -0.0008557439 -0.9999993
vn 0.0008557439 -0.0008557439 -0.9999993
vn 0.0008557439 -0.0008557439 -0.9999993
vn 0.0008557439 -0.0008557439 -0.9999993
vn 0.0008557439 -0.0008557439 -0.9999993
vn 0.0008557439 -0.0008557439 -0.9999993
vn 0.0008557439 -0.0008557439 -0.9999993
vn 0.0008557439 -0.0008557439 -0.9999993
vn 0.0008557439 -0.0008557439 -0.9999993
vn 0.0008557439 -0.0008557439 -0.9999993
vn 0.0008557439 -0.0008557439 -0.9999993
vn 0.0008557439 -0.0008557439 -0.9999993
vn 0.0008557439 -0.0008557439 -0.9999993
vn 0.0008557439 -0.0008557439 -0.9999993
vn 0.0008557439 -0.0008557439 -0.9999993
vn 0.0008557439 -0.0008557439 -0.9999993
vn 0.0008557439 -0.0008557439 -0.9999993
vn 0.0008557439 -0.0008557439 -0.9999993
vn 0.0008557439 -0.0008557439 -0.9999993
vn 0.0008557439 -0.0008557439 -0.9999993
vn 0.0008557439 -0.0008557439 -0.9999993
vn 0.0008557439 -0.0008557439 -0.9999993
vn 0.0008557439 -0.0008557439 -0.9999993
vn 0.0008557439 -0.0008557439 -0.9999993
vn 0.0008557439 -0.0008557439 -0.9999993
vn 0.0008557439 -0.0008557439 -0.9999993
vn 0.0008557439 -0.0008557439 -0.9999993
vn 0.0008557439 -0.0008557439 -0.9999993
vn 0.0008557439 -0.0008557439 -0.9999993
vn 0.0008557439 -0.0008557439 -0.9999993
vn 0.0008557439 -0.0008557439 -0.9999993
vn 0.0008557439 -0.0008557439 -0.9999993
vn 0.0008557439 -0.0008557439 -0.9999993
vn 0.0008557439 -0.0008557439 -0.9999993
vn 0.0008557439 -0.0008557439 -0.9999993
vn 0.0008557439 -0.0008557439 -0.9999993
vn 0.0008557439 -0.0008557439 -0.9999993
vn 0.0008557439 -0.0008557439 -0.9999993
vn 0.0008557439 -0.0008557439 -0.9999993
vn 0.0008557439 -0.0008557439 -0.9999993
vn 0.0008557439 -0.0008557439 -0.9999993
vn 0.0008557439 -0.0008557439 -0.9999993
vn 0.0008557439 -0.0008557439 -0.9999993
vn 0.0008557439 -0.0008557439 -0.9999993
vn 0.0008557439 -0.0008557439 -0.9999993
vn 0.0008557439 -0.0008557439 -0.9999993
vn 0.0008557439 -0.0008557439 -0.9999993
vn 0.0008557439 -0.0008557439 -0.9999993
vn 0.0008557439 -0.0008557439 -0.9999993
vn 0.0008557439 -0.0008557439 -0.9999993
vn 0.0008557439 -0.0008557439 -0.9999993
vn 0.0008557439 -0.0008557439 -0.9999993
vn 0.0008557439 -0.0008557439 -0.9999993
vn 0.6762051 -0.7367134 0
vn 0.6762051 -0.7367134 0
vn 0.6762051 -0.7367134 0
vn 0.6762051 -0.7367134 0
vn 0.9986665 -0.05162459 0
vn 0.9986665 -0.05162459 0
vn 0.9986665 -0.05162459 0
vn 0.9986665 -0.05162459 0
vn 0.9557979 0.2940246 0
vn 0.9557979 0.2940246 0
vn 0.9557979 0.2940246 0
vn 0.9557979 0.2940246 0
vn 0.596674 0.8020339 -0.02686545
vn 0.596674 0.8020339 -0.02686545
vn 0.596674 0.8020339 -0.02686545
vn 0.596674 0.8020339 -0.02686545
vn -0.5637065 0.8254759 -0.0287143
vn -0.5637065 0.8254759 -0.0287143
vn -0.5637065 0.8254759 -0.0287143
vn -0.5637065 0.8254759 -0.0287143
vn -0.9599655 -0.2801185 0
vn -0.9599655 -0.2801185 0
vn -0.9599655 -0.2801185 0
vn -0.9599655 -0.2801185 0
vn -0.4816594 -0.8760249 -0.02417732
vn -0.4816594 -0.8760249 -0.02417732
vn -0.4816594 -0.8760249 -0.02417732
vn -0.4816594 -0.8760249 -0.02417732
vn 0.03601879 0.9993376 -0.005207697
vn 0.03601879 0.9993376 -0.005207697
vn 0.03601879 0.9993376 -0.005207697
vn 0.03601879 0.9993376 -0.005207697
vn -0.9485465 0.3136582 -0.04333582
vn -0.9485465 0.3136582 -0.04333582
vn -0.9485465 0.3136582 -0.04333582
vn -0.9485465 0.3136582 -0.04333582
vn 0.0418793 -0.9990956 -0.007360749
vn 0.0418793 -0.9990956 -0.007360749
vn 0.0418793 -0.9990956 -0.007360749
vn 0.0418793 -0.9990956 -0.007360749
vn 0.05746422 -0.9983475 0
vn 0.05746422 -0.9983475 0
vn 0.05746422 -0.9983475 0
vn 0.05746422 -0.9983475 0
vn -0.3192995 -0.9476539 0
vn -0.3192995 -0.9476539 0
vn -0.3192995 -0.9476539 0
vn -0.3192995 -0.9476539 0
vn 0.3446722 -0.938537 -0.01869231
vn 0.3446722 -0.938537 -0.01869231
vn 0.3446722 -0.938537 -0.01869231
vn 0.3446722 -0.938537 -0.01869231
vn 0.0008557439 -0.0008557439 -0.9999993
vn 0.0008557439 -0.0008557439 -0.9999993
vn 0.0008557439 -0.0008557439 -0.9999993
vn 0.0008557439 -0.0008557439 -0.9999993
g A_UI_0
f 3/3/3 2/2/2 1/1/1
f 6/6/6 5/5/5 4/4/4
f 9/9/9 8/8/8 7/7/7
f 12/12/12 11/11/11 10/10/10
f 15/15/15 14/14/14 13/13/13
f 18/18/18 17/17/17 16/16/16
f 21/21/21 20/20/20 19/19/19
f 23/23/23 22/22/22 19/19/19
f 19/19/19 22/22/22 24/24/24
f 25/25/25 19/19/19 24/24/24
f 25/25/25 24/24/24 26/26/26
f 27/27/27 25/25/25 26/26/26
f 27/27/27 26/26/26 28/28/28
f 26/26/26 29/29/29 28/28/28
f 28/28/28 29/29/29 30/30/30
f 29/29/29 31/31/31 30/30/30
f 30/30/30 31/31/31 32/32/32
f 31/31/31 33/33/33 32/32/32
f 32/32/32 33/33/33 34/34/34
f 33/33/33 35/35/35 34/34/34
f 34/34/34 35/35/35 36/36/36
f 35/35/35 37/37/37 36/36/36
f 36/36/36 37/37/37 38/38/38
f 37/37/37 39/39/39 38/38/38
f 38/38/38 39/39/39 40/40/40
f 39/39/39 41/41/41 40/40/40
f 40/40/40 41/41/41 42/42/42
f 41/41/41 43/43/43 42/42/42
f 42/42/42 43/43/43 44/44/44
f 43/43/43 45/45/45 44/44/44
f 44/44/44 45/45/45 46/46/46
f 45/45/45 47/47/47 46/46/46
f 49/49/49 47/47/47 48/48/48
f 50/50/50 49/49/49 48/48/48
f 53/53/53 52/52/52 51/51/51
f 56/56/56 55/55/55 54/54/54
f 59/59/59 58/58/58 57/57/57
f 57/57/57 58/58/58 60/60/60
f 58/58/58 61/61/61 60/60/60
f 64/64/64 63/63/63 62/62/62
f 62/62/62 63/63/63 65/65/65
f 66/66/66 62/62/62 65/65/65
f 67/67/67 62/62/62 66/66/66
f 70/70/70 69/69/69 68/68/68
f 68/68/68 69/69/69 71/71/71
f 68/68/68 71/71/71 72/72/72
f 71/71/71 73/73/73 72/72/72
f 72/72/72 73/73/73 74/74/74
f 74/74/74 73/73/73 75/75/75
f 75/75/75 73/73/73 76/76/76
f 76/76/76 77/77/77 75/75/75
f 75/75/75 77/77/77 78/78/78
f 78/78/78 77/77/77 79/79/79
f 82/82/82 81/81/81 80/80/80
f 82/82/82 83/83/83 81/81/81
f 84/84/84 81/81/81 83/83/83
f 85/85/85 81/81/81 84/84/84
f 86/86/86 85/85/85 84/84/84
f 82/82/82 87/87/87 83/83/83
f 88/88/88 87/87/87 82/82/82
f 88/88/88 89/89/89 87/87/87
f 89/89/89 88/88/88 90/90/90
f 86/86/86 92/92/92 91/91/91
f 93/93/93 92/92/92 86/86/86
f 93/93/93 86/86/86 94/94/94
f 97/97/97 96/96/96 95/95/95
f 98/98/98 96/96/96 97/97/97
f 101/101/101 100/100/100 99/99/99
f 102/102/102 100/100/100 101/101/101
f 105/105/105 104/104/104 103/103/103
f 106/106/106 105/105/105 103/103/103
f 109/109/109 108/108/108 107/107/107
f 110/110/110 109/109/109 107/107/107
f 113/113/113 112/112/112 111/111/111
f 114/114/114 113/113/113 111/111/111
f 117/117/117 116/116/116 115/115/115
f 118/118/118 117/117/117 115/115/115
f 121/121/121 120/120/120 119/119/119
f 122/122/122 121/121/121 119/119/119
f 125/125/125 124/124/124 123/123/123
f 126/126/126 125/125/125 123/123/123
f 129/129/129 128/128/128 127/127/127
f 130/130/130 129/129/129 127/127/127
f 133/133/133 132/132/132 131/131/131
f 134/134/134 133/133/133 131/131/131
f 137/137/137 136/136/136 135/135/135
f 138/138/138 137/137/137 135/135/135
f 141/141/141 140/140/140 139/139/139
f 142/142/142 141/141/141 139/139/139
f 145/145/145 144/144/144 143/143/143
f 146/146/146 145/145/145 143/143/143
f 149/149/149 148/148/148 147/147/147
f 150/150/150 149/149/149 147/147/147
f 153/153/153 152/152/152 151/151/151
f 154/154/154 153/153/153 151/151/151
f 157/157/157 156/156/156 155/155/155
f 158/158/158 157/157/157 155/155/155
