g Beijing_staff
v 0.07071066 -5.5 -0.07071066
v 0.07071066 -3.424899 -0.07071066
v -5.245209E-06 -3.424899 -0.0999999
v -5.245209E-06 -5.5 -0.0999999
v -5.245209E-06 -5.5 -0.0999999
v -5.245209E-06 -3.424899 -0.0999999
v -0.07071066 -3.424899 -0.07071066
v -0.07071066 -5.5 -0.07071066
v -0.07071066 -5.5 -0.07071066
v -0.07071066 -3.424899 -0.07071066
v -0.0999999 -3.424899 5.245209E-06
v -0.0999999 -5.5 5.245209E-06
v -0.0999999 -5.5 5.245209E-06
v -0.0999999 -3.424899 5.245209E-06
v -0.07071066 -3.424899 0.07071066
v -0.07071066 -5.5 0.07071066
v -0.07071066 -5.5 0.07071066
v -0.07071066 -3.424899 0.07071066
v -5.245209E-06 -3.424899 0.0999999
v -5.245209E-06 -5.5 0.0999999
v -5.245209E-06 -5.5 0.0999999
v -5.245209E-06 -3.424899 0.0999999
v 0.07071066 -3.424899 0.07071066
v 0.07071066 -5.5 0.07071066
v 0.07071066 -5.5 0.07071066
v 0.07071066 -3.424899 0.07071066
v 0.0999999 -3.424899 5.245209E-06
v 0.0999999 -5.5 5.245209E-06
v 0.0999999 -5.5 5.245209E-06
v 0.0999999 -3.424899 5.245209E-06
v 0.07071066 -3.424899 -0.07071066
v 0.07071066 -5.5 -0.07071066
v 0.07071066 5.245209E-06 -0.07071066
v 0.07071066 3.351351 -0.07071066
v -5.245209E-06 3.351351 -0.0999999
v -5.245209E-06 5.245209E-06 -0.0999999
v 0.07071066 -3.424899 -0.07071066
v -5.245209E-06 -3.424899 -0.0999999
v -5.245209E-06 5.245209E-06 -0.0999999
v -5.245209E-06 3.351351 -0.0999999
v -0.07071066 3.351351 -0.07071066
v -0.07071066 5.245209E-06 -0.07071066
v -5.245209E-06 -3.424899 -0.0999999
v -0.07071066 -3.424899 -0.07071066
v -0.07071066 5.245209E-06 -0.07071066
v -0.07071066 3.351351 -0.07071066
v -0.0999999 3.351351 5.245209E-06
v -0.0999999 5.245209E-06 5.245209E-06
v -0.07071066 -3.424899 -0.07071066
v -0.0999999 -3.424899 5.245209E-06
v -0.0999999 5.245209E-06 5.245209E-06
v -0.0999999 3.351351 5.245209E-06
v -0.07071066 3.351351 0.07071066
v -0.07071066 5.245209E-06 0.07071066
v -0.0999999 -3.424899 5.245209E-06
v -0.07071066 -3.424899 0.07071066
v -0.07071066 5.245209E-06 0.07071066
v -0.07071066 3.351351 0.07071066
v -5.245209E-06 3.351351 0.0999999
v -5.245209E-06 5.245209E-06 0.0999999
v -0.07071066 -3.424899 0.07071066
v -5.245209E-06 -3.424899 0.0999999
v -5.245209E-06 5.245209E-06 0.0999999
v -5.245209E-06 3.351351 0.0999999
v 0.07071066 3.351351 0.07071066
v 0.07071066 5.245209E-06 0.07071066
v -5.245209E-06 -3.424899 0.0999999
v 0.07071066 -3.424899 0.07071066
v 0.07071066 5.245209E-06 0.07071066
v 0.07071066 3.351351 0.07071066
v 0.0999999 3.351351 5.245209E-06
v 0.0999999 5.245209E-06 5.245209E-06
v 0.07071066 -3.424899 0.07071066
v 0.0999999 -3.424899 5.245209E-06
v 0.0999999 5.245209E-06 5.245209E-06
v 0.0999999 3.351351 5.245209E-06
v 0.07071066 3.351351 -0.07071066
v 0.07071066 5.245209E-06 -0.07071066
v 0.0999999 -3.424899 5.245209E-06
v 0.07071066 -3.424899 -0.07071066
v -0.07071066 3.351351 0.07071066
v -0.07071066 5.5 0.07071066
v -5.245209E-06 5.5 0.0999999
v -5.245209E-06 3.351351 0.0999999
v -0.0999999 3.351351 5.245209E-06
v -0.0999999 5.5 5.245209E-06
v -0.07071066 5.5 0.07071066
v -0.07071066 3.351351 0.07071066
v -0.07071066 3.351351 -0.07071066
v -0.07071066 5.5 -0.07071066
v -0.0999999 5.5 5.245209E-06
v -0.0999999 3.351351 5.245209E-06
v -5.245209E-06 3.351351 -0.0999999
v -5.245209E-06 5.5 -0.0999999
v -0.07071066 5.5 -0.07071066
v -0.07071066 3.351351 -0.07071066
v 0.07071066 3.351351 -0.07071066
v 0.07071066 5.5 -0.07071066
v -5.245209E-06 5.5 -0.0999999
v -5.245209E-06 3.351351 -0.0999999
v 0.0999999 3.351351 5.245209E-06
v 0.0999999 5.5 5.245209E-06
v 0.07071066 5.5 -0.07071066
v 0.07071066 3.351351 -0.07071066
v 0.07071066 3.351351 0.07071066
v 0.07071066 5.5 0.07071066
v 0.0999999 5.5 5.245209E-06
v 0.0999999 3.351351 5.245209E-06
v -5.245209E-06 3.351351 0.0999999
v -5.245209E-06 5.5 0.0999999
v 0.07071066 5.5 0.07071066
v 0.07071066 3.351351 0.07071066
v 0.07071066 5.5 -0.07071066
v -5.245209E-06 5.5 5.245209E-06
v -5.245209E-06 5.5 -0.0999999
v 0.0999999 5.5 5.245209E-06
v -0.07071066 5.5 -0.07071066
v 0.07071066 5.5 0.07071066
v -0.0999999 5.5 5.245209E-06
v -5.245209E-06 5.5 0.0999999
v -0.07071066 5.5 0.07071066
v -5.245209E-06 -5.5 -0.0999999
v -5.245209E-06 -5.5 5.245209E-06
v 0.07071066 -5.5 -0.07071066
v -0.07071066 -5.5 -0.07071066
v 0.0999999 -5.5 5.245209E-06
v -0.0999999 -5.5 5.245209E-06
v 0.07071066 -5.5 0.07071066
v -0.07071066 -5.5 0.07071066
v -5.245209E-06 -5.5 0.0999999
vt 0.5967073 0.6036952
vt 0.5967073 0.5868362
vt 0.593495 0.586839
vt 0.593495 0.6036952
vt 0.593495 0.6036952
vt 0.593495 0.586839
vt 0.5899258 0.586839
vt 0.5899258 0.6036952
vt 0.5899258 0.6036952
vt 0.5899258 0.586839
vt 0.5863566 0.586839
vt 0.5863566 0.6036952
vt 0.5863566 0.6036952
vt 0.5863566 0.586839
vt 0.5827874 0.586839
vt 0.5827874 0.6036952
vt 0.5827874 0.6036952
vt 0.5827874 0.586839
vt 0.5863566 0.586839
vt 0.5863566 0.6036952
vt 0.5863566 0.6036952
vt 0.5863566 0.586839
vt 0.5899258 0.586839
vt 0.5899258 0.6036952
vt 0.5899258 0.6036952
vt 0.5899258 0.586839
vt 0.593495 0.586839
vt 0.593495 0.6036952
vt 0.593495 0.6036952
vt 0.593495 0.586839
vt 0.5967073 0.5868362
vt 0.5967073 0.6036952
vt 0.6707796 0.6747587
vt 0.6707796 0.7213705
vt 0.6675674 0.7213788
vt 0.6675674 0.6747866
vt 0.6708521 0.7215545
vt 0.6676399 0.7215601
vt 0.6675674 0.6747866
vt 0.6675674 0.7213788
vt 0.6640009 0.7213816
vt 0.6640009 0.6747922
vt 0.6676399 0.7215601
vt 0.6640706 0.7215601
vt 0.6640009 0.6747922
vt 0.6640009 0.7213816
vt 0.6604317 0.7213816
vt 0.6604317 0.674795
vt 0.6640706 0.7215601
vt 0.6605014 0.7215601
vt 0.6604317 0.674795
vt 0.6604317 0.7213816
vt 0.6568625 0.721337
vt 0.6568625 0.6746389
vt 0.6605014 0.7215601
vt 0.656935 0.7215601
vt 0.656935 0.6746416
vt 0.656935 0.721337
vt 0.6605014 0.7213844
vt 0.6605014 0.6748034
vt 0.656935 0.7215601
vt 0.6605014 0.7215601
vt 0.6605014 0.6748034
vt 0.6605014 0.7213844
vt 0.6640706 0.7213844
vt 0.6640706 0.6748089
vt 0.6605014 0.7215601
vt 0.6640706 0.7215601
vt 0.6640706 0.6748089
vt 0.6640706 0.7213844
vt 0.6676399 0.7213871
vt 0.6676399 0.6748117
vt 0.6640706 0.7215601
vt 0.6676399 0.7215601
vt 0.6676399 0.6748117
vt 0.6676399 0.7213871
vt 0.6708521 0.7213788
vt 0.6708521 0.6747922
vt 0.6676399 0.7215601
vt 0.6708521 0.7215545
vt 0.5827177 0.5867246
vt 0.5827177 0.6036952
vt 0.5862841 0.6036952
vt 0.5862841 0.5867498
vt 0.5862841 0.586747
vt 0.5862841 0.6036952
vt 0.5827177 0.6036952
vt 0.5827177 0.5867246
vt 0.5898533 0.586747
vt 0.5898533 0.6036952
vt 0.5862841 0.6036952
vt 0.5862841 0.586747
vt 0.5934225 0.586747
vt 0.5934225 0.6036952
vt 0.5898533 0.6036952
vt 0.5898533 0.586747
vt 0.5966348 0.5867414
vt 0.5966348 0.6036952
vt 0.5934225 0.6036952
vt 0.5934225 0.586747
vt 0.5934225 0.5867498
vt 0.5934225 0.6036952
vt 0.5966348 0.6036952
vt 0.5966348 0.586747
vt 0.5898533 0.5867498
vt 0.5898533 0.6036952
vt 0.5934225 0.6036952
vt 0.5934225 0.5867498
vt 0.5862841 0.5867498
vt 0.5862841 0.6036952
vt 0.5898533 0.6036952
vt 0.5898533 0.5867498
vt 0.6037704 0.5776204
vt 0.5876979 0.5606387
vt 0.5876979 0.5842792
vt 0.6104265 0.5615478
vt 0.5716252 0.5776204
vt 0.6037704 0.5454752
vt 0.5649692 0.5615478
vt 0.5876979 0.5388191
vt 0.5716252 0.5454752
vt 0.5876979 0.5388359
vt 0.5876979 0.5606555
vt 0.6037704 0.5454919
vt 0.5716252 0.5454919
vt 0.6104265 0.5615645
vt 0.5649692 0.5615645
vt 0.6037704 0.5776371
vt 0.5716252 0.5776371
vt 0.5876979 0.5842931
vn 0.382209 0.0009775162 -0.9240754
vn 0.382209 0.0009775162 -0.9240754
vn 0.382209 0.0009775162 -0.9240754
vn 0.382209 0.0009775162 -0.9240754
vn -0.3822091 0.0009775162 -0.9240754
vn -0.3822091 0.0009775162 -0.9240754
vn -0.3822091 0.0009775162 -0.9240754
vn -0.3822091 0.0009775162 -0.9240754
vn -0.9237533 0.0009775162 -0.3829869
vn -0.9237533 0.0009775162 -0.3829869
vn -0.9237533 0.0009775162 -0.3829869
vn -0.9237533 0.0009775162 -0.3829869
vn -0.9237533 0.0009775162 0.3829869
vn -0.9237533 0.0009775162 0.3829869
vn -0.9237533 0.0009775162 0.3829869
vn -0.9237533 0.0009775162 0.3829869
vn -0.3822091 0.0009775162 0.9240754
vn -0.3822091 0.0009775162 0.9240754
vn -0.3822091 0.0009775162 0.9240754
vn -0.3822091 0.0009775162 0.9240754
vn 0.382209 0.0009775162 0.9240754
vn 0.382209 0.0009775162 0.9240754
vn 0.382209 0.0009775162 0.9240754
vn 0.382209 0.0009775162 0.9240754
vn 0.9237532 0.0009775162 0.382987
vn 0.9237532 0.0009775162 0.382987
vn 0.9237532 0.0009775162 0.382987
vn 0.9237532 0.0009775162 0.382987
vn 0.9237532 0.0009775162 -0.382987
vn 0.9237532 0.0009775162 -0.382987
vn 0.9237532 0.0009775162 -0.382987
vn 0.9237532 0.0009775162 -0.382987
vn 0.382209 0.0009775162 -0.9240754
vn 0.382209 0.0009775162 -0.9240754
vn 0.382209 0.0009775162 -0.9240754
vn 0.382209 0.0009775162 -0.9240754
vn 0.382209 0.0009775162 -0.9240754
vn 0.382209 0.0009775162 -0.9240754
vn -0.3822091 0.0009775162 -0.9240754
vn -0.3822091 0.0009775162 -0.9240754
vn -0.3822091 0.0009775162 -0.9240754
vn -0.3822091 0.0009775162 -0.9240754
vn -0.3822091 0.0009775162 -0.9240754
vn -0.3822091 0.0009775162 -0.9240754
vn -0.9237533 0.0009775162 -0.3829869
vn -0.9237533 0.0009775162 -0.3829869
vn -0.9237533 0.0009775162 -0.3829869
vn -0.9237533 0.0009775162 -0.3829869
vn -0.9237533 0.0009775162 -0.3829869
vn -0.9237533 0.0009775162 -0.3829869
vn -0.9237533 0.0009775162 0.3829869
vn -0.9237533 0.0009775162 0.3829869
vn -0.9237533 0.0009775162 0.3829869
vn -0.9237533 0.0009775162 0.3829869
vn -0.9237533 0.0009775162 0.3829869
vn -0.9237533 0.0009775162 0.3829869
vn -0.3822091 0.0009775162 0.9240754
vn -0.3822091 0.0009775162 0.9240754
vn -0.3822091 0.0009775162 0.9240754
vn -0.3822091 0.0009775162 0.9240754
vn -0.3822091 0.0009775162 0.9240754
vn -0.3822091 0.0009775162 0.9240754
vn 0.382209 0.0009775162 0.9240754
vn 0.382209 0.0009775162 0.9240754
vn 0.382209 0.0009775162 0.9240754
vn 0.382209 0.0009775162 0.9240754
vn 0.382209 0.0009775162 0.9240754
vn 0.382209 0.0009775162 0.9240754
vn 0.9237532 0.0009775162 0.382987
vn 0.9237532 0.0009775162 0.382987
vn 0.9237532 0.0009775162 0.382987
vn 0.9237532 0.0009775162 0.382987
vn 0.9237532 0.0009775162 0.382987
vn 0.9237532 0.0009775162 0.382987
vn 0.9237532 0.0009775162 -0.382987
vn 0.9237532 0.0009775162 -0.382987
vn 0.9237532 0.0009775162 -0.382987
vn 0.9237532 0.0009775162 -0.382987
vn 0.9237532 0.0009775162 -0.382987
vn 0.9237532 0.0009775162 -0.382987
vn -0.3822091 0.0009775162 0.9240754
vn -0.3822091 0.0009775162 0.9240754
vn -0.3822091 0.0009775162 0.9240754
vn -0.3822091 0.0009775162 0.9240754
vn -0.9237533 0.0009775162 0.3829869
vn -0.9237533 0.0009775162 0.3829869
vn -0.9237533 0.0009775162 0.3829869
vn -0.9237533 0.0009775162 0.3829869
vn -0.9237533 0.0009775162 -0.3829869
vn -0.9237533 0.0009775162 -0.3829869
vn -0.9237533 0.0009775162 -0.3829869
vn -0.9237533 0.0009775162 -0.3829869
vn -0.3822091 0.0009775162 -0.9240754
vn -0.3822091 0.0009775162 -0.9240754
vn -0.3822091 0.0009775162 -0.9240754
vn -0.3822091 0.0009775162 -0.9240754
vn 0.382209 0.0009775162 -0.9240754
vn 0.382209 0.0009775162 -0.9240754
vn 0.382209 0.0009775162 -0.9240754
vn 0.382209 0.0009775162 -0.9240754
vn 0.9237532 0.0009775162 -0.382987
vn 0.9237532 0.0009775162 -0.382987
vn 0.9237532 0.0009775162 -0.382987
vn 0.9237532 0.0009775162 -0.382987
vn 0.9237532 0.0009775162 0.382987
vn 0.9237532 0.0009775162 0.382987
vn 0.9237532 0.0009775162 0.382987
vn 0.9237532 0.0009775162 0.382987
vn 0.382209 0.0009775162 0.9240754
vn 0.382209 0.0009775162 0.9240754
vn 0.382209 0.0009775162 0.9240754
vn 0.382209 0.0009775162 0.9240754
vn -0.0009775162 0.9999995 0
vn -0.0009775162 0.9999995 0
vn -0.0009775162 0.9999995 0
vn -0.0009775162 0.9999995 0
vn -0.0009775162 0.9999995 0
vn -0.0009775162 0.9999995 0
vn -0.0009775162 0.9999995 0
vn -0.0009775162 0.9999995 0
vn -0.0009775162 0.9999995 0
vn -0.0009775162 -0.9999995 0
vn -0.0009775162 -0.9999995 0
vn -0.0009775162 -0.9999995 0
vn -0.0009775162 -0.9999995 0
vn -0.0009775162 -0.9999995 0
vn -0.0009775162 -0.9999995 0
vn -0.0009775162 -0.9999995 0
vn -0.0009775162 -0.9999995 0
vn -0.0009775162 -0.9999995 0
g Beijing_staff_0
f 3/3/3 2/2/2 1/1/1
f 4/4/4 3/3/3 1/1/1
f 7/7/7 6/6/6 5/5/5
f 8/8/8 7/7/7 5/5/5
f 11/11/11 10/10/10 9/9/9
f 12/12/12 11/11/11 9/9/9
f 15/15/15 14/14/14 13/13/13
f 16/16/16 15/15/15 13/13/13
f 19/19/19 18/18/18 17/17/17
f 20/20/20 19/19/19 17/17/17
f 23/23/23 22/22/22 21/21/21
f 24/24/24 23/23/23 21/21/21
f 27/27/27 26/26/26 25/25/25
f 28/28/28 27/27/27 25/25/25
f 31/31/31 30/30/30 29/29/29
f 32/32/32 31/31/31 29/29/29
f 35/35/35 34/34/34 33/33/33
f 36/36/36 35/35/35 33/33/33
f 36/36/36 33/33/33 37/37/37
f 38/38/38 36/36/36 37/37/37
f 41/41/41 40/40/40 39/39/39
f 42/42/42 41/41/41 39/39/39
f 42/42/42 39/39/39 43/43/43
f 44/44/44 42/42/42 43/43/43
f 47/47/47 46/46/46 45/45/45
f 48/48/48 47/47/47 45/45/45
f 48/48/48 45/45/45 49/49/49
f 50/50/50 48/48/48 49/49/49
f 53/53/53 52/52/52 51/51/51
f 54/54/54 53/53/53 51/51/51
f 54/54/54 51/51/51 55/55/55
f 56/56/56 54/54/54 55/55/55
f 59/59/59 58/58/58 57/57/57
f 60/60/60 59/59/59 57/57/57
f 60/60/60 57/57/57 61/61/61
f 62/62/62 60/60/60 61/61/61
f 65/65/65 64/64/64 63/63/63
f 66/66/66 65/65/65 63/63/63
f 66/66/66 63/63/63 67/67/67
f 68/68/68 66/66/66 67/67/67
f 71/71/71 70/70/70 69/69/69
f 72/72/72 71/71/71 69/69/69
f 72/72/72 69/69/69 73/73/73
f 74/74/74 72/72/72 73/73/73
f 77/77/77 76/76/76 75/75/75
f 78/78/78 77/77/77 75/75/75
f 78/78/78 75/75/75 79/79/79
f 80/80/80 78/78/78 79/79/79
f 83/83/83 82/82/82 81/81/81
f 84/84/84 83/83/83 81/81/81
f 87/87/87 86/86/86 85/85/85
f 88/88/88 87/87/87 85/85/85
f 91/91/91 90/90/90 89/89/89
f 92/92/92 91/91/91 89/89/89
f 95/95/95 94/94/94 93/93/93
f 96/96/96 95/95/95 93/93/93
f 99/99/99 98/98/98 97/97/97
f 100/100/100 99/99/99 97/97/97
f 103/103/103 102/102/102 101/101/101
f 104/104/104 103/103/103 101/101/101
f 107/107/107 106/106/106 105/105/105
f 108/108/108 107/107/107 105/105/105
f 111/111/111 110/110/110 109/109/109
f 112/112/112 111/111/111 109/109/109
f 115/115/115 114/114/114 113/113/113
f 113/113/113 114/114/114 116/116/116
f 117/117/117 114/114/114 115/115/115
f 116/116/116 114/114/114 118/118/118
f 119/119/119 114/114/114 117/117/117
f 118/118/118 114/114/114 120/120/120
f 121/121/121 114/114/114 119/119/119
f 120/120/120 114/114/114 121/121/121
f 124/124/124 123/123/123 122/122/122
f 122/122/122 123/123/123 125/125/125
f 126/126/126 123/123/123 124/124/124
f 125/125/125 123/123/123 127/127/127
f 128/128/128 123/123/123 126/126/126
f 127/127/127 123/123/123 129/129/129
f 130/130/130 123/123/123 128/128/128
f 129/129/129 123/123/123 130/130/130
