g buzz_prop_moon_mesh
v -1.022165 -1.722009 -0.6591705
v -0.6869457 -1.614923 -1.243767
v -1.180343 -1.253847 -1.214666
v -1.664037 -0.6393057 -1.030123
v -0.6292431 -1.086251 -1.687845
v -0.4271979 -1.985132 -0.5206617
v 0.00134325 -1.286277 -1.644664
v 0.004042387 -1.799739 -1.098848
v 0.428578 -1.947593 -0.4998217
v 0.6623732 -1.508573 -1.134867
v -0.733475 -1.927547 -0.002286911
v -1.026166 -1.668575 0.6468532
v 4.768372E-07 -2.057359 -4.768372E-07
v -0.4314983 -1.947126 0.5052097
v 0.7340522 -1.921913 0.000112772
v 1.001435 -1.658209 -0.583454
v 0.4314995 -1.947126 0.5052097
v 0.6085174 -1.022452 -1.612134
v 0.001747131 -0.7341611 -1.931185
v 1.133724 -1.175449 -1.083974
v 1.766338 -1.663118 -0.5784957
v 1.662061 -1.842649 0.07005906
v 1.02868 -1.664438 0.6357572
v 0.03166437 -1.76285 1.093259
v 0.6989998 -1.51574 1.20351
v -0.5895543 -1.565168 1.252943
v 0.1166804 -1.299011 1.680332
v 1.167892 -0.6887339 -1.448507
v 1.637192 -0.6295298 -0.9763757
v 0.5017269 -0.3950408 -1.975818
v 1.191354 -1.186877 1.193921
v 0.6578549 -1.033293 1.675265
v 1.908018 -1.456346 0.574049
v -0.4467587 -1.114485 1.749525
v 0.1036065 -0.7765262 1.964599
v -1.153329 -1.226275 1.288826
v -1.438326 -0.7201165 1.721817
v -1.774775 -0.631104 1.156042
v 1.21737 -0.7057861 1.509919
v 1.670603 -0.6371146 1.033347
v 0.5277247 -0.4416473 1.942479
v -0.5331175 -0.228107 2.173689
v -0.8852482 -0.7174764 2.01146
v 0.01654005 -0.005308151 2.062017
v -0.9427195 -0.6842067 2.046544
v 1.10358 -0.01860404 1.724371
v 1.646202 -0.009717464 1.238023
v 0.51652 0.4226978 1.933606
v 1.213178 0.6877985 1.500198
v -0.6471026 0.3794889 2.086341
v 0.001461267 0.7341237 1.921921
v -0.6017072 -0.2345304 2.204704
v 0.6385754 1.025821 1.659288
v 1.923795 -0.0004088879 0.7370133
v 1.667237 0.6321962 1.025472
v 1.188278 1.186794 1.186553
v 2.258257 -0.8905159 0.4294844
v -0.9975777 -0.05012727 1.55306
v -0.6952744 0.3391426 2.129545
v -1.461512 -0.6712599 1.774162
v -1.767431 -0.2054479 1.592671
v -1.775872 -0.234036 1.52287
v -1.141362 0.6477785 1.815194
v -1.152953 0.6048329 1.877664
v -1.63011 0.362464 1.638734
v -1.643715 0.3747349 1.564424
v -1.670869 0.6361792 1.035692
v -0.6357572 1.028679 1.664437
v -1.979601 0.003760099 0.7970159
v -2.063786 0.0004212856 0.007012606
v -1.187814 1.187814 1.187814
v -0.2433934 2.220876 1.123766
v 0.4288275 1.891754 1.602774
v -1.951411 0.5061126 0.4356673
v -1.515844 1.204087 0.69786
v -1.028679 1.664437 0.6357572
v -0.0710299 1.995119 1.551014
v 0.7563121 2.01414 1.227285
v 0.4250851 1.948776 1.580496
v -0.03426266 2.043296 1.532769
v -1.759405 1.111631 -0.01379561
v -1.256023 1.657696 -0.01048398
v -1.954201 0.5280187 -0.441983
v -1.534116 1.262978 -0.7255738
v 0.1906819 1.54102 0.8670075
v 0.7260728 2.062017 1.235837
v -0.1926181 2.251052 1.140382
v 0.1083698 2.364293 0.7957184
v 0.08409119 2.343263 0.7482772
v 0.5677174 2.269774 0.8434455
v 0.583944 2.239897 0.8000371
v -0.735158 1.9253 -0.001551867
v 1.02868 1.664437 0.6357572
v 4.768372E-07 2.057359 -4.768372E-07
v -1.039398 1.698986 -0.6516401
v 1.516743 1.204159 0.6972296
v 0.7395095 1.925649 -0.004586697
v -0.4320881 1.949016 -0.5060773
v 1.285452 1.660059 -0.03103828
v 1.948242 0.505981 0.4305503
v 0.4345343 1.949216 -0.5077875
v 1.083974 1.70256 -0.6827732
v 1.798129 1.114738 -0.04084134
v 2.057359 -4.768372E-07 -4.768372E-07
v 1.610999 1.269147 -0.7792706
v 1.98363 0.5303776 -0.4625373
v 4.768372E-07 1.750092 -1.081615
v 0.7207788 1.534157 -1.225009
v 1.250903 1.235478 -1.245051
v 1.719736 0.6738853 -1.075695
v 1.927325 0.00371933 -0.7386974
v -0.7026279 1.529961 -1.20998
v -0.003129482 1.270766 -1.651418
v 0.6319613 1.083583 -1.707624
v 1.222678 0.7478144 -1.562456
v -1.200113 1.22744 -1.206034
v -0.6364923 1.034136 -1.66852
v -0.007833719 0.7947204 -1.969077
v -1.675156 0.6703062 -1.044562
v -1.322145 0.3711603 -2.002197
v -1.922973 0.003374577 -0.7356627
v -1.57082 -0.0312016 -1.848505
v 0.4936839 0.5227337 -2.018487
v -0.9197791 0.2174728 -2.250872
v -0.00526166 0.05340147 -2.101262
v 1.076815 0.04682827 -1.787709
v 1.635342 0.004014254 -1.2476
v -0.9197791 -0.2798805 -2.250872
v 2.36253 -0.7109848 -0.2190707
v 2.116573 -1.097283 -0.7230606
v 2.392424 -0.7627629 -0.2078702
v -1.322145 -0.433568 -2.002197
v 2.157563 -1.131297 -0.692853
v 2.290628 -0.9367869 0.413049
v 1.636167 -1.063206 -0.0486939
v 1.953971 -1.479345 0.5489857
v 1.719105 -1.847884 0.06400299
v 1.820901 -1.67386 -0.5569164
v -0.9725096 -0.2534244 -2.266953
v -0.9725051 0.1924639 -2.268713
v -1.335342 0.3321431 -2.046917
v -0.9458811 -0.05824733 -1.712038
v -1.559628 -0.03082061 -1.908263
v -1.33374 -0.3920557 -2.045393
v -2.281151 -1.137616 -0.2055795
v -2.311054 -1.13567 0.2157853
v -2.085556 -1.462883 -0.3300846
v -2.114648 -1.45146 0.3370469
v -1.966486 -1.647916 -0.01178598
v -2.324578 -1.188972 0.1882677
v -2.295155 -1.190723 -0.1783841
v -2.127944 -1.472173 -0.2866759
v -2.025241 -1.630896 -0.01306534
v -2.155834 -1.460769 0.292613
v -1.786805 -1.128172 -0.0005857944
vt 0.6514576 0.03752157
vt 0.6515147 0.03753109
vt 0.6514291 0.0401957
vt 0.6513434 0.0402528
vt 0.6515242 0.04020522
vt 0.6515528 0.03750254
vt 0.6516289 0.04018618
vt 0.6516289 0.03752157
vt 0.6516955 0.03751206
vt 0.6517336 0.03893952
vt 0.6515052 0.03751206
vt 0.6514576 0.03752157
vt 0.6516289 0.03750254
vt 0.6515528 0.03751206
vt 0.6517431 0.03751206
vt 0.6517907 0.03753109
vt 0.6516955 0.03751206
vt 0.6517241 0.04021473
vt 0.6516289 0.05892411
vt 0.6518098 0.0401957
vt 0.6519334 0.03893952
vt 0.6518953 0.03751206
vt 0.6518002 0.03752157
vt 0.6516289 0.03752157
vt 0.6517431 0.03893952
vt 0.6515242 0.03753109
vt 0.6516479 0.03895856
vt 0.6518192 0.05896218
vt 0.6518953 0.06708924
vt 0.651705 0.0612842
vt 0.6518192 0.03896808
vt 0.6517336 0.04021473
vt 0.6519334 0.05100641
vt 0.6515528 0.04020522
vt 0.6516384 0.06115097
vt 0.6514291 0.03896808
vt 0.65141 0.03757867
vt 0.6513339 0.0402528
vt 0.6518288 0.06117952
vt 0.6519049 0.06119855
vt 0.6517146 0.06127468
vt 0.6515433 0.05103496
vt 0.6514766 0.03758819
vt 0.6516289 0.06142695
vt 0.638401 0.05998044
vt 0.6518098 0.06142695
vt 0.6504489 0.06460544
vt 0.6502585 0.06531918
vt 0.6503727 0.06575694
vt 0.6500682 0.06754604
vt 0.6501729 0.06583307
vt 0.640114 0.06753652
vt 0.6502776 0.06631841
vt 0.6504964 0.06462448
vt 0.6504489 0.06567129
vt 0.6503727 0.07264686
vt 0.6505631 0.0633112
vt 0.6604602 0.04335517
vt 0.6396858 0.05295729
vt 0.638382 0.05998044
vt 0.6399903 0.06759362
vt 0.6513244 0.04031941
vt 0.649954 0.08832049
vt 0.6392956 0.05663064
vt 0.6394669 0.05417539
vt 0.6506392 0.08816823
vt 0.6498969 0.0724375
vt 0.6500682 0.06788863
vt 0.6498398 0.064634
vt 0.6498303 0.06462448
vt 0.649973 0.0731322
vt 0.6475368 0.0887868
vt 0.6502205 0.06777443
vt 0.6498494 0.06546193
vt 0.6499255 0.07314172
vt 0.6473941 0.08875825
vt 0.6489072 0.07016306
vt 0.6503061 0.07295139
vt 0.6370401 0.08898664
vt 0.6373447 0.08893906
vt 0.6498779 0.07310365
vt 0.647356 0.08875825
vt 0.6498494 0.06549999
vt 0.6473941 0.07385546
vt 0.6611644 0.07591102
vt 0.6374398 0.07470242
vt 0.6376492 0.07539712
vt 0.6370307 0.07544471
vt 0.6475749 0.08879632
vt 0.6370497 0.07544471
vt 0.6476891 0.08879632
vt 0.6474512 0.08877728
vt 0.6503537 0.08857743
vt 0.6475749 0.0887868
vt 0.6473941 0.08875825
vt 0.6504298 0.07265638
vt 0.6476986 0.08877728
vt 0.6474988 0.08877728
vt 0.6504013 0.08857743
vt 0.6504964 0.06546193
vt 0.647651 0.08877728
vt 0.6477652 0.08875825
vt 0.6504774 0.07262783
vt 0.6505155 0.06462448
vt 0.6504393 0.07317027
vt 0.650506 0.06549999
vt 0.6475749 0.08876777
vt 0.6476986 0.08874873
vt 0.6503823 0.07315124
vt 0.6504584 0.06759362
vt 0.6504964 0.064634
vt 0.6474512 0.08874873
vt 0.6476415 0.07385546
vt 0.6502776 0.07309414
vt 0.6503727 0.06760313
vt 0.6474417 0.07385546
vt 0.6475368 0.07381739
vt 0.6501729 0.07298946
vt 0.6498969 0.06759362
vt 0.6474226 0.07368416
vt 0.6498494 0.064634
vt 0.6513624 0.05946655
vt 0.6502585 0.06756507
vt 0.6474892 0.0681646
vt 0.6516194 0.0614555
vt 0.6518002 0.06144598
vt 0.6518953 0.06143646
vt 0.6514671 0.05231017
vt 0.6505631 0.06732716
vt 0.6512578 0.0711052
vt 0.6384581 0.03794981
vt 0.6514005 0.04027183
vt 0.6384486 0.03882533
vt 0.6384581 0.05120625
vt 0.6611644 0.05183434
vt 0.6384391 0.05119674
vt 0.6384296 0.05119674
vt 0.6384391 0.05200564
vt 0.6373447 0.07472146
vt 0.6377158 0.03797836
vt 0.6377063 0.03884436
vt 0.6611644 0.04041458
vt 0.6382963 0.03946293
vt 0.6373352 0.087464
vt 0.6497923 0.06225488
vt 0.6512387 0.05861959
vt 0.6512768 0.03893952
vt 0.6512768 0.0375406
vt 0.6512958 0.03753109
vt 0.6382678 0.03794981
vt 0.6382678 0.03794981
vt 0.6382773 0.03965326
vt 0.6382773 0.03794981
vt 0.6382773 0.03794981
vt 0.6611644 0.03800691
vn -0.3293324 -0.8720579 -0.3620156
vn -0.2867711 -0.7617853 -0.5809005
vn -0.5498776 -0.5838016 -0.5973361
vn -0.8052456 -0.2703954 -0.5276986
vn -0.1977792 -0.6128206 -0.7650715
vn -0.1590871 -0.9629843 -0.2176063
vn 0.09047705 -0.6147553 -0.7835112
vn 0.09047705 -0.8527118 -0.5144866
vn 0.2317033 -0.9339653 -0.2720708
vn 0.3884063 -0.719224 -0.5760707
vn -0.2480674 -0.9687428 0
vn -0.3003134 -0.8720579 0.3864285
vn 0.01115823 -0.9997419 0.01979196
vn -0.1842369 -0.9475075 0.2613165
vn 0.1601229 -0.9861996 -0.04208293
vn 0.2046188 -0.8411041 -0.5006745
vn 0.1910766 -0.9436383 0.2702529
vn 0.3845372 -0.5141557 -0.7666649
vn 0.1175615 -0.4019486 -0.908084
vn 0.4329023 -0.537371 -0.7237596
vn 0.6940741 -0.5992785 -0.3989066
vn 0.5567171 -0.8294965 -0.04473973
vn 0.1949458 -0.866254 0.4600001
vn 0.03243887 -0.8759271 0.4813517
vn 0.3381066 -0.7637199 0.5499234
vn -0.2693596 -0.7908044 0.5496125
vn 0.08467323 -0.6669896 0.74024
vn 0.5896054 -0.3767987 -0.7144145
vn 0.6360359 -0.1949458 -0.7466287
vn 0.3090875 -0.2471801 -0.9183501
vn 0.4464446 -0.5451095 0.7096075
vn 0.3787333 -0.4773982 0.7928758
vn 0.7037472 -0.6031476 0.3754369
vn -0.1668256 -0.6379706 0.7517731
vn 0.163992 -0.3439105 0.9245714
vn -0.4531472 -0.6805319 0.5757899
vn -0.51312 -0.3980794 0.7604213
vn -0.7820303 -0.3071529 0.5422967
vn 0.5896054 -0.2936107 0.7524348
vn 0.6785973 -0.1369076 0.7216384
vn 0.3245644 -0.144646 0.9347382
vn -0.1416757 -0.2104226 0.9672902
vn -0.3351362 -0.3110221 0.8893531
vn 0.1930112 0.04881459 0.9799815
vn -0.3370709 -0.3129568 0.8879422
vn 0.5296326 0.00818783 0.8481876
vn 0.7675892 0.006253302 0.6409117
vn 0.2974799 0.1861716 0.9364005
vn 0.5799323 0.2945096 0.7595674
vn -0.2074522 0.2422752 0.9477691
vn 0.03437346 0.3080518 0.9507484
vn -0.1416757 -0.2104226 0.9672902
vn 0.4154909 0.2616213 0.8711611
vn 0.8933385 0.1532833 0.4224341
vn 0.8062813 0.3099864 0.5038044
vn 0.6979433 0.4260628 0.5756263
vn 0.9436383 -0.2375071 0.2305151
vn -0.4608857 0.04107612 0.8865084
vn -0.2074522 0.2422752 0.9477691
vn -0.51312 -0.3980794 0.7604213
vn -0.8013763 0.06816059 0.5942644
vn -0.8013763 0.06816059 0.5942644
vn -0.5634198 0.4202589 0.711295
vn -0.5634198 0.4202589 0.711295
vn -0.6988422 0.2519482 0.6694338
vn -0.6969076 0.2538828 0.6707186
vn -0.8284608 0.4396049 0.3469874
vn -0.3312671 0.4821663 0.811035
vn -0.9522756 0.1416757 0.2703687
vn -0.97936 0.1997139 -0.03111722
vn -0.6001772 0.5885697 0.5416392
vn -0.2171254 0.8265262 0.5193371
vn 0.0691964 0.6872346 0.7231324
vn -0.9367988 0.3061172 0.1694117
vn -0.7510765 0.5808312 0.3138776
vn -0.6175887 0.749142 0.2395212
vn -0.07589906 0.7723572 0.6306376
vn 0.3690603 0.7704226 0.5198495
vn 0.0691964 0.6872346 0.7231324
vn -0.07589906 0.7723572 0.6306376
vn -0.8536107 0.5189238 0.04546263
vn -0.6233925 0.7800956 0.0532221
vn -0.9484064 0.2616213 -0.1791078
vn -0.7568803 0.5827659 -0.2958311
vn 0.1523845 0.9000412 0.4082951
vn 0.3690603 0.7704226 0.5198495
vn -0.2171254 0.8265262 0.5193371
vn -0.06235677 0.969687 0.2362598
vn -0.06235677 0.969687 0.2362598
vn 0.2684608 0.9290603 0.2545109
vn 0.2684608 0.9290603 0.2545109
vn -0.4183243 0.9077796 -0.03067537
vn 0.7656546 0.631131 0.1242848
vn -0.006253302 0.9561448 -0.2928278
vn -0.4608857 0.8342646 -0.3026335
vn 0.7482431 0.5750274 0.3308712
vn 0.390341 0.905845 -0.1645562
vn -0.1648909 0.9464718 -0.2774928
vn 0.610886 0.7897686 0.05553166
vn 0.9417037 0.2635558 0.2091231
vn 0.154319 0.9503409 -0.270255
vn 0.4309677 0.851676 -0.2981858
vn 0.8604502 0.5073162 0.04749461
vn 0.9646632 0.263486 0
vn 0.7617853 0.5788966 -0.2907952
vn 0.964919 0.2132561 -0.1531446
vn -0.006253302 0.861349 -0.5079751
vn 0.2394417 0.7858995 -0.5701138
vn 0.5335018 0.5808312 -0.6148259
vn 0.8178889 0.2190599 -0.5320438
vn 0.8972077 0.08170289 -0.4339849
vn -0.2751635 0.7646188 -0.5827891
vn -0.03140312 0.6775616 -0.7347953
vn 0.2781338 0.5460083 -0.7902635
vn 0.5857362 0.2616213 -0.7671164
vn -0.5498776 0.6195233 -0.5602013
vn -0.2422752 0.631131 -0.7368693
vn 0.00922358 0.4338011 -0.9009615
vn -0.851676 0.3564169 -0.3842068
vn -0.5692236 0.3467439 -0.7454885
vn -0.9367988 0.05848759 -0.3449453
vn -0.8052456 -0.0150274 -0.592751
vn 0.2761992 0.1842369 -0.9432766
vn -0.238406 0.2171254 -0.9465829
vn 0.1755997 -0.02083123 -0.9842412
vn 0.5509133 -0.06726176 -0.8318476
vn 0.7617853 -0.09241164 -0.6412045
vn -0.1919754 -0.2355725 -0.9527072
vn 0.9378344 -0.2433109 -0.2475203
vn 0.837235 -0.4348369 -0.3315938
vn 0.9378344 -0.2433109 -0.2475203
vn -0.5905042 -0.3574527 -0.7235553
vn 0.8353003 -0.4367715 -0.3339222
vn 0.9436383 -0.2375071 0.2305151
vn 0.8546464 -0.5180249 -0.03506713
vn 0.7037472 -0.6031476 0.3754369
vn 0.5567171 -0.8294965 -0.04473973
vn 0.6940741 -0.5992785 -0.3989066
vn -0.1919754 -0.2355725 -0.9527072
vn -0.238406 0.2171254 -0.9465829
vn -0.5692236 0.3467439 -0.7454885
vn -0.5460083 0.01786083 -0.8375894
vn -0.8052456 -0.0150274 -0.592751
vn -0.5905042 -0.3574527 -0.7235553
vn -0.9464718 -0.1407768 -0.2904705
vn -0.9735562 -0.1291692 0.188424
vn -0.6833653 -0.5683247 -0.4582783
vn -0.640804 -0.6457089 0.4152472
vn -0.4841009 -0.8739924 0.04223209
vn -0.9735562 -0.1291692 0.188424
vn -0.9464718 -0.1407768 -0.2904705
vn -0.6833653 -0.5683247 -0.4582783
vn -0.4841009 -0.8739924 0.04223209
vn -0.640804 -0.6457089 0.4152472
vn -0.8381339 -0.5431749 -0.04992661
g buzz_prop_moon_mesh_0
f 3/3/3 2/2/2 1/1/1
f 3/3/3 1/1/1 4/4/4
f 3/3/3 4/4/4 5/5/5
f 5/5/5 2/2/2 3/3/3
f 2/2/2 6/6/6 1/1/1
f 7/7/7 2/2/2 5/5/5
f 2/2/2 8/8/8 6/6/6
f 7/7/7 8/8/8 2/2/2
f 6/6/6 8/8/8 9/9/9
f 10/10/10 8/8/8 7/7/7
f 9/9/9 8/8/8 10/10/10
f 1/1/1 6/6/6 11/11/11
f 11/11/11 12/12/12 1/1/1
f 11/11/11 6/6/6 13/13/13
f 6/6/6 9/9/9 13/13/13
f 11/11/11 14/14/14 12/12/12
f 13/13/13 14/14/14 11/11/11
f 13/13/13 9/9/9 15/15/15
f 9/9/9 10/10/10 16/16/16
f 15/15/15 9/9/9 16/16/16
f 17/17/17 14/14/14 13/13/13
f 15/15/15 17/17/17 13/13/13
f 10/10/10 7/7/7 18/18/18
f 19/19/19 7/7/7 5/5/5
f 18/18/18 7/7/7 19/19/19
f 16/16/16 10/10/10 20/20/20
f 20/20/20 10/10/10 18/18/18
f 20/20/20 21/21/21 16/16/16
f 16/16/16 22/22/22 15/15/15
f 21/21/21 22/22/22 16/16/16
f 23/23/23 17/17/17 15/15/15
f 15/15/15 22/22/22 23/23/23
f 17/17/17 24/24/24 14/14/14
f 25/25/25 17/17/17 23/23/23
f 25/25/25 24/24/24 17/17/17
f 14/14/14 24/24/24 26/26/26
f 14/14/14 26/26/26 12/12/12
f 27/27/27 24/24/24 25/25/25
f 26/26/26 24/24/24 27/27/27
f 18/18/18 28/28/28 20/20/20
f 20/20/20 29/29/29 21/21/21
f 20/20/20 28/28/28 29/29/29
f 30/30/30 28/28/28 18/18/18
f 19/19/19 30/30/30 18/18/18
f 31/31/31 25/25/25 23/23/23
f 27/27/27 25/25/25 32/32/32
f 32/32/32 25/25/25 31/31/31
f 23/23/23 33/33/33 31/31/31
f 22/22/22 33/33/33 23/23/23
f 26/26/26 27/27/27 34/34/34
f 35/35/35 27/27/27 32/32/32
f 34/34/34 27/27/27 35/35/35
f 36/36/36 26/26/26 34/34/34
f 36/36/36 34/34/34 37/37/37
f 36/36/36 37/37/37 38/38/38
f 12/12/12 26/26/26 36/36/36
f 36/36/36 38/38/38 12/12/12
f 31/31/31 39/39/39 32/32/32
f 31/31/31 33/33/33 40/40/40
f 40/40/40 39/39/39 31/31/31
f 32/32/32 41/41/41 35/35/35
f 39/39/39 41/41/41 32/32/32
f 35/35/35 42/42/42 34/34/34
f 37/37/37 34/34/34 43/43/43
f 34/34/34 42/42/42 43/43/43
f 35/35/35 41/41/41 44/44/44
f 44/44/44 42/42/42 35/35/35
f 45/45/45 37/37/37 43/43/43
f 43/43/43 42/42/42 45/45/45
f 39/39/39 46/46/46 41/41/41
f 47/47/47 39/39/39 40/40/40
f 47/47/47 46/46/46 39/39/39
f 41/41/41 46/46/46 48/48/48
f 41/41/41 48/48/48 44/44/44
f 49/49/49 46/46/46 47/47/47
f 48/48/48 46/46/46 49/49/49
f 50/50/50 42/42/42 44/44/44
f 44/44/44 48/48/48 51/51/51
f 51/51/51 50/50/50 44/44/44
f 45/45/45 42/42/42 52/52/52
f 50/50/50 52/52/52 42/42/42
f 48/48/48 49/49/49 53/53/53
f 51/51/51 48/48/48 53/53/53
f 54/54/54 47/47/47 40/40/40
f 49/49/49 47/47/47 55/55/55
f 55/55/55 47/47/47 54/54/54
f 53/53/53 49/49/49 56/56/56
f 56/56/56 49/49/49 55/55/55
f 40/40/40 57/57/57 54/54/54
f 33/33/33 57/57/57 40/40/40
f 52/52/52 58/58/58 45/45/45
f 59/59/59 52/52/52 50/50/50
f 59/59/59 58/58/58 52/52/52
f 58/58/58 60/60/60 45/45/45
f 60/60/60 37/37/37 45/45/45
f 60/60/60 61/61/61 37/37/37
f 58/58/58 61/61/61 60/60/60
f 37/37/37 61/61/61 62/62/62
f 37/37/37 62/62/62 38/38/38
f 63/63/63 59/59/59 50/50/50
f 64/64/64 58/58/58 59/59/59
f 64/64/64 59/59/59 63/63/63
f 61/61/61 58/58/58 65/65/65
f 58/58/58 64/64/64 65/65/65
f 65/65/65 66/66/66 61/61/61
f 64/64/64 66/66/66 65/65/65
f 61/61/61 66/66/66 62/62/62
f 63/63/63 66/66/66 64/64/64
f 67/67/67 62/62/62 66/66/66
f 63/63/63 67/67/67 66/66/66
f 63/63/63 50/50/50 68/68/68
f 68/68/68 50/50/50 51/51/51
f 38/38/38 62/62/62 69/69/69
f 67/67/67 69/69/69 62/62/62
f 69/69/69 70/70/70 38/38/38
f 71/71/71 63/63/63 68/68/68
f 67/67/67 63/63/63 71/71/71
f 68/68/68 72/72/72 71/71/71
f 68/68/68 51/51/51 73/73/73
f 53/53/53 73/73/73 51/51/51
f 67/67/67 74/74/74 69/69/69
f 69/69/69 74/74/74 70/70/70
f 71/71/71 75/75/75 67/67/67
f 75/75/75 74/74/74 67/67/67
f 71/71/71 72/72/72 76/76/76
f 76/76/76 75/75/75 71/71/71
f 72/72/72 68/68/68 77/77/77
f 68/68/68 73/73/73 77/77/77
f 78/78/78 73/73/73 53/53/53
f 56/56/56 78/78/78 53/53/53
f 79/79/79 77/77/77 73/73/73
f 78/78/78 79/79/79 73/73/73
f 80/80/80 72/72/72 77/77/77
f 80/80/80 77/77/77 79/79/79
f 75/75/75 81/81/81 74/74/74
f 82/82/82 75/75/75 76/76/76
f 82/82/82 81/81/81 75/75/75
f 74/74/74 81/81/81 83/83/83
f 74/74/74 83/83/83 70/70/70
f 84/84/84 81/81/81 82/82/82
f 83/83/83 81/81/81 84/84/84
f 79/79/79 85/85/85 80/80/80
f 86/86/86 79/79/79 78/78/78
f 79/79/79 86/86/86 85/85/85
f 87/87/87 72/72/72 80/80/80
f 85/85/85 87/87/87 80/80/80
f 87/87/87 88/88/88 72/72/72
f 87/87/87 85/85/85 88/88/88
f 72/72/72 89/89/89 76/76/76
f 72/72/72 88/88/88 89/89/89
f 88/88/88 85/85/85 90/90/90
f 90/90/90 85/85/85 86/86/86
f 88/88/88 90/90/90 89/89/89
f 90/90/90 86/86/86 91/91/91
f 91/91/91 86/86/86 78/78/78
f 89/89/89 90/90/90 91/91/91
f 92/92/92 82/82/82 76/76/76
f 76/76/76 89/89/89 92/92/92
f 91/91/91 78/78/78 93/93/93
f 93/93/93 78/78/78 56/56/56
f 89/89/89 91/91/91 94/94/94
f 92/92/92 89/89/89 94/94/94
f 95/95/95 82/82/82 92/92/92
f 84/84/84 82/82/82 95/95/95
f 56/56/56 96/96/96 93/93/93
f 55/55/55 96/96/96 56/56/56
f 97/97/97 91/91/91 93/93/93
f 94/94/94 91/91/91 97/97/97
f 94/94/94 98/98/98 92/92/92
f 92/92/92 98/98/98 95/95/95
f 96/96/96 99/99/99 93/93/93
f 93/93/93 99/99/99 97/97/97
f 100/100/100 96/96/96 55/55/55
f 54/54/54 100/100/100 55/55/55
f 97/97/97 101/101/101 94/94/94
f 101/101/101 98/98/98 94/94/94
f 97/97/97 99/99/99 102/102/102
f 102/102/102 101/101/101 97/97/97
f 96/96/96 103/103/103 99/99/99
f 100/100/100 103/103/103 96/96/96
f 104/104/104 100/100/100 54/54/54
f 54/54/54 57/57/57 104/104/104
f 99/99/99 103/103/103 105/105/105
f 99/99/99 105/105/105 102/102/102
f 106/106/106 103/103/103 100/100/100
f 106/106/106 100/100/100 104/104/104
f 105/105/105 103/103/103 106/106/106
f 101/101/101 107/107/107 98/98/98
f 108/108/108 101/101/101 102/102/102
f 108/108/108 107/107/107 101/101/101
f 102/102/102 105/105/105 109/109/109
f 109/109/109 108/108/108 102/102/102
f 105/105/105 106/106/106 110/110/110
f 109/109/109 105/105/105 110/110/110
f 111/111/111 106/106/106 104/104/104
f 110/110/110 106/106/106 111/111/111
f 98/98/98 107/107/107 112/112/112
f 98/98/98 112/112/112 95/95/95
f 113/113/113 107/107/107 108/108/108
f 112/112/112 107/107/107 113/113/113
f 114/114/114 108/108/108 109/109/109
f 113/113/113 108/108/108 114/114/114
f 110/110/110 115/115/115 109/109/109
f 109/109/109 115/115/115 114/114/114
f 95/95/95 112/112/112 116/116/116
f 116/116/116 84/84/84 95/95/95
f 112/112/112 113/113/113 117/117/117
f 116/116/116 112/112/112 117/117/117
f 118/118/118 113/113/113 114/114/114
f 117/117/117 113/113/113 118/118/118
f 119/119/119 84/84/84 116/116/116
f 83/83/83 84/84/84 119/119/119
f 117/117/117 120/120/120 116/116/116
f 116/116/116 120/120/120 119/119/119
f 121/121/121 83/83/83 119/119/119
f 70/70/70 83/83/83 121/121/121
f 119/119/119 122/122/122 121/121/121
f 120/120/120 122/122/122 119/119/119
f 115/115/115 123/123/123 114/114/114
f 114/114/114 123/123/123 118/118/118
f 118/118/118 124/124/124 117/117/117
f 124/124/124 120/120/120 117/117/117
f 121/121/121 4/4/4 70/70/70
f 121/121/121 122/122/122 4/4/4
f 118/118/118 123/123/123 125/125/125
f 125/125/125 124/124/124 118/118/118
f 115/115/115 126/126/126 123/123/123
f 123/123/123 30/30/30 125/125/125
f 123/123/123 126/126/126 30/30/30
f 125/125/125 30/30/30 19/19/19
f 30/30/30 126/126/126 28/28/28
f 127/127/127 126/126/126 115/115/115
f 28/28/28 126/126/126 127/127/127
f 127/127/127 115/115/115 110/110/110
f 28/28/28 127/127/127 29/29/29
f 111/111/111 127/127/127 110/110/110
f 29/29/29 127/127/127 111/111/111
f 19/19/19 128/128/128 125/125/125
f 128/128/128 124/124/124 125/125/125
f 5/5/5 128/128/128 19/19/19
f 111/111/111 129/129/129 29/29/29
f 104/104/104 129/129/129 111/111/111
f 57/57/57 129/129/129 104/104/104
f 29/29/29 129/129/129 130/130/130
f 21/21/21 29/29/29 130/130/130
f 57/57/57 131/131/131 129/129/129
f 131/131/131 130/130/130 129/129/129
f 132/132/132 128/128/128 5/5/5
f 4/4/4 132/132/132 5/5/5
f 133/133/133 21/21/21 130/130/130
f 133/133/133 130/130/130 131/131/131
f 134/134/134 131/131/131 57/57/57
f 33/33/33 134/134/134 57/57/57
f 131/131/131 135/135/135 133/133/133
f 134/134/134 135/135/135 131/131/131
f 136/136/136 134/134/134 33/33/33
f 136/136/136 135/135/135 134/134/134
f 22/22/22 136/136/136 33/33/33
f 137/137/137 136/136/136 22/22/22
f 21/21/21 137/137/137 22/22/22
f 137/137/137 135/135/135 136/136/136
f 135/135/135 138/138/138 133/133/133
f 138/138/138 21/21/21 133/133/133
f 138/138/138 137/137/137 21/21/21
f 137/137/137 138/138/138 135/135/135
f 132/132/132 139/139/139 128/128/128
f 139/139/139 140/140/140 128/128/128
f 128/128/128 140/140/140 124/124/124
f 140/140/140 141/141/141 124/124/124
f 124/124/124 141/141/141 120/120/120
f 139/139/139 142/142/142 140/140/140
f 140/140/140 142/142/142 141/141/141
f 141/141/141 143/143/143 120/120/120
f 141/141/141 142/142/142 143/143/143
f 120/120/120 143/143/143 122/122/122
f 144/144/144 142/142/142 139/139/139
f 143/143/143 142/142/142 144/144/144
f 144/144/144 139/139/139 132/132/132
f 143/143/143 144/144/144 122/122/122
f 122/122/122 144/144/144 132/132/132
f 122/122/122 132/132/132 4/4/4
f 4/4/4 145/145/145 70/70/70
f 145/145/145 146/146/146 70/70/70
f 70/70/70 146/146/146 38/38/38
f 147/147/147 145/145/145 4/4/4
f 1/1/1 147/147/147 4/4/4
f 146/146/146 148/148/148 38/38/38
f 38/38/38 148/148/148 12/12/12
f 12/12/12 149/149/149 1/1/1
f 149/149/149 147/147/147 1/1/1
f 148/148/148 149/149/149 12/12/12
f 145/145/145 150/150/150 146/146/146
f 147/147/147 151/151/151 145/145/145
f 151/151/151 150/150/150 145/145/145
f 149/149/149 152/152/152 147/147/147
f 152/152/152 151/151/151 147/147/147
f 148/148/148 153/153/153 149/149/149
f 153/153/153 152/152/152 149/149/149
f 146/146/146 154/154/154 148/148/148
f 150/150/150 154/154/154 146/146/146
f 154/154/154 153/153/153 148/148/148
f 152/152/152 155/155/155 151/151/151
f 151/151/151 155/155/155 150/150/150
f 153/153/153 155/155/155 152/152/152
f 150/150/150 155/155/155 154/154/154
f 154/154/154 155/155/155 153/153/153
