g copenhagen_paper
v -0.9365844 0.005782723 1.266145
v -0.9365844 0.005782723 -1.266145
v 0.9365844 0.005782723 -1.266145
v 0.9365844 0.005782723 1.266145
v -0.9365844 -0.005782604 1.266145
v 0.9365844 -0.005782604 1.266145
v 0.9365844 -0.005782604 -1.266145
v -0.9365844 -0.005782604 -1.266145
vt 0.8015658 0.5570616
vt 0.8015658 0.5062873
vt 0.7868053 0.5062873
vt 0.7868053 0.5570616
vt 0.8015658 0.5570616
vt 0.7868053 0.5570616
vt 0.7868053 0.5062873
vt 0.8015658 0.5062873
vn -0.0009775162 0.9999995 0
vn -0.0009775162 0.9999995 0
vn -0.0009775162 0.9999995 0
vn -0.0009775162 0.9999995 0
vn -0.0009775162 -0.9999995 0
vn -0.0009775162 -0.9999995 0
vn -0.0009775162 -0.9999995 0
vn -0.0009775162 -0.9999995 0
g copenhagen_paper_0
f 3/3/3 2/2/2 1/1/1
f 4/4/4 3/3/3 1/1/1
f 7/7/7 6/6/6 5/5/5
f 8/8/8 7/7/7 5/5/5
