g copenhagen_menu_lightning_1_mesh
v 2.475029 0.05089521 3.6347
v 1.812647 -0.1995778 3.544048
v 2.433656 -0.3346519 3.270335
v 2.471488 -0.2246718 4.6755
v 2.232283 -0.3481202 4.059813
v 1.812647 -0.1995778 3.544048
v 2.475029 0.05089521 3.6347
v 2.232283 -0.3481202 4.059813
v 2.471488 -0.2246718 4.6755
v 2.979778 -0.3346519 3.642593
v 6.937875 0.05089521 2.369154
v 7.089431 -0.3346519 2.032635
v 7.502788 0.09683704 2.472209
v 7.502788 0.09683704 2.472209
v 6.793913 -0.3346519 2.688797
v 6.937875 0.05089521 2.369154
v 7.518935 -0.1969824 -3.4183
v 6.7038 -0.3346519 -2.889115
v 6.527688 0.05089521 -3.280152
v 6.527688 0.05089521 -3.280152
v 6.340692 -0.3346519 -3.695362
v 7.518935 -0.1969824 -3.4183
v 4.686537 -0.3346519 1.430511E-06
v 7.866386 -0.3346519 -0.08682251
v 7.834307 -0.3346519 0.7349625
v 7.821904 -0.3346519 1.58397
v 7.721695 -0.3346519 -1.806702
v 7.089431 -0.3346519 2.032635
v 6.7038 -0.3346519 -2.889115
v 6.937875 0.05089521 2.369154
v 6.527688 0.05089521 -3.280152
v 6.793913 -0.3346519 2.688797
v 6.340692 -0.3346519 -3.695362
v 6.795505 -0.3315663 3.205758
v 4.758183 -0.3346519 -4.279568
v 6.050437 -0.3376064 3.642355
v 3.655509 -0.3346519 -3.913577
v 4.762417 -0.3346519 4.279404
v 2.967471 -0.3346519 -3.64393
v 2.979778 -0.3346519 3.642593
v 2.475029 -0.3346519 -3.634924
v 2.475029 0.05089521 3.6347
v 1.85146 -0.3346519 -2.152587
v 2.433656 -0.3346519 3.270335
v 2.062366 -0.3346519 -0.0001063347
v 1.792373 -0.3346519 1.631909
vt 0.7757841 0.7327481
vt 0.8399211 0.7896159
vt 0.8399211 0.7327481
vt 0.8399211 0.7896159
vt 0.8399211 0.7327481
vt 0.8399211 0.7327481
vt 0.7757841 0.7896159
vt 0.8399211 0.7896159
vt 0.8399211 0.7327481
vt 0.8399211 0.7896159
vt 0.7757841 0.7327481
vt 0.8399211 0.7327481
vt 0.8399211 0.7896159
vt 0.8399211 0.7327481
vt 0.8399211 0.7896159
vt 0.7757841 0.7896159
vt 0.8399211 0.7327481
vt 0.8399211 0.7896159
vt 0.7757841 0.7896159
vt 0.7757841 0.7327481
vt 0.8399211 0.7327481
vt 0.8399211 0.7896159
vt 0.7754521 0.7612834
vt 0.8399211 0.7611264
vt 0.8399211 0.7611673
vt 0.8399211 0.7612016
vt 0.8399211 0.7612458
vt 0.8399211 0.7612392
vt 0.8399211 0.7611706
vt 0.7754521 0.7612588
vt 0.7754521 0.7611493
vt 0.8399211 0.7612768
vt 0.8399211 0.7611264
vt 0.8399211 0.7612883
vt 0.8399211 0.7612491
vt 0.8399211 0.7611264
vt 0.8399211 0.7611836
vt 0.8399211 0.7612098
vt 0.8399211 0.7611575
vt 0.8399211 0.7613063
vt 0.8399211 0.7611264
vt 0.7754521 0.7613325
vt 0.8399211 0.7612311
vt 0.8399211 0.761146
vt 0.8399211 0.7611264
vt 0.8399211 0.761254
vn 0.0004214644 1 0
vn -0.3543159 0.9346538 0.02970902
vn -0.1629444 0.6872711 -0.7078895
vn 0.1202231 0.9595475 0.2545879
vn -0.6328158 0.712165 0.3039163
vn -0.3543159 0.9346538 0.02970902
vn 0.0004214644 1 0
vn -0.6328158 0.712165 0.3039163
vn 0.1202231 0.9595475 0.2545879
vn 0.5916504 0.7790672 0.2073746
vn 0.0004214644 1 0
vn 0.07977062 0.6732683 -0.7350826
vn -0.05247796 0.9859973 -0.1582888
vn -0.05247796 0.9859973 -0.1582888
vn -0.1862824 0.6670449 0.7213529
vn 0.0004214644 1 0
vn 0.0004214644 1 0
vn 0.0004214644 1 0
vn 0.0004214644 1 0
vn 0.0004214644 1 0
vn 0.0004214644 1 0
vn 0.0004214644 1 0
vn 0.0004214644 1 0
vn 0.0004214644 1 0
vn 0.0004214644 1 0
vn 0.0004214644 1 0
vn 0.0004214644 1 0
vn 0.1933488 0.95488 -0.225434
vn 0.0004214644 1 0
vn -0.2547405 0.9626594 0.0916201
vn 0.0004214644 1 0
vn -0.295193 0.9268744 0.2318727
vn 0.0004214644 1 0
vn 0.0004214644 1 0
vn 0.0004214644 1 0
vn 0.0004214644 1 0
vn 0.0004214644 1 0
vn 0.0004214644 1 0
vn 0.0004214644 1 0
vn 0.1777901 0.9797739 0.09183583
vn 0.0004214644 1 0
vn 0.1311142 0.9906648 -0.0373128
vn 0.0004214644 1 0
vn -0.3200868 0.920651 -0.2234864
vn 0.0004214644 1 0
vn 0.0004214644 1 0
g copenhagen_menu_lightning_1_mesh_0
f 3/3/3 2/2/2 1/1/1
f 5/5/5 4/4/4 1/1/1
f 8/8/8 7/7/7 6/6/6
f 10/10/10 7/7/7 9/9/9
f 13/13/13 12/12/12 11/11/11
f 16/16/16 15/15/15 14/14/14
f 19/19/19 18/18/18 17/17/17
f 22/22/22 21/21/21 20/20/20
f 25/25/25 24/24/24 23/23/23
f 23/23/23 26/26/26 25/25/25
f 23/23/23 24/24/24 27/27/27
f 23/23/23 28/28/28 26/26/26
f 23/23/23 27/27/27 29/29/29
f 23/23/23 30/30/30 28/28/28
f 23/23/23 29/29/29 31/31/31
f 23/23/23 32/32/32 30/30/30
f 31/31/31 33/33/33 23/23/23
f 23/23/23 34/34/34 32/32/32
f 23/23/23 33/33/33 35/35/35
f 34/34/34 23/23/23 36/36/36
f 23/23/23 35/35/35 37/37/37
f 38/38/38 36/36/36 23/23/23
f 37/37/37 39/39/39 23/23/23
f 23/23/23 40/40/40 38/38/38
f 39/39/39 41/41/41 23/23/23
f 23/23/23 42/42/42 40/40/40
f 23/23/23 41/41/41 43/43/43
f 44/44/44 42/42/42 23/23/23
f 43/43/43 45/45/45 23/23/23
f 23/23/23 46/46/46 44/44/44
f 23/23/23 45/45/45 46/46/46
