g Copenhagen_lightning_4_mesh
v 11.55835 0.01022911 1.461306
v 11.92956 -0.3686066 1.478245
v 12.48606 0.03436756 2.095897
v 11.11532 -0.380414 1.724359
v 11.12336 -0.3724184 1.016109
v 11.64713 0.02096558 0.7385321
v 12.63368 -0.006011963 0.558032
v 12.12055 -0.3702259 1.078459
v 12.51239 -0.3365221 0.9199791
v 12.75482 -0.3200064 0.2005196
v 13.52813 -0.05914593 1.255097
v 13.36098 0.2720118 1.599981
v 14.36826 -0.2329454 1.26698
v 13.19354 -0.07543755 1.949349
v 10.65719 0.01623249 0.2433157
v 11.67662 -0.3542585 0.2711153
v 10.66835 -0.3153982 -0.1137247
v 10.52006 -0.3341055 0.646389
v 9.602414 -0.09160423 1.036758
v 9.63273 0.3066626 0.5921593
v 8.733866 0.03695869 -0.0550108
v 9.663071 -0.06619549 0.1477346
v 8.774146 -0.3359995 -0.4954004
v 8.693237 -0.3611832 0.3854532
v 7.834304 -0.3346539 0.7349701
v 7.851841 0.05090809 0.2856379
v 12.48606 0.03436756 2.095897
v 11.11532 -0.380414 1.724359
v 11.55835 0.01022911 1.461306
v 11.64713 0.02096558 0.7385321
v 11.92956 -0.3686066 1.478245
v 12.12055 -0.3702259 1.078459
v 11.67662 -0.3542585 0.2711153
v 12.75482 -0.3200064 0.2005196
v 12.63368 -0.006011963 0.558032
v 11.12336 -0.3724184 1.016109
v 10.52006 -0.3341055 0.646389
v 10.65719 0.01623249 0.2433157
v 13.36098 0.2720118 1.599981
v 12.51239 -0.3365221 0.9199791
v 13.19354 -0.07543755 1.949349
v 13.52813 -0.05914593 1.255097
v 14.36826 -0.2329454 1.26698
v 9.63273 0.3066626 0.5921593
v 10.66835 -0.3153982 -0.1137247
v 9.663071 -0.06619549 0.1477346
v 9.602414 -0.09160423 1.036758
v 8.693237 -0.3611832 0.3854532
v 8.733866 0.03695869 -0.0550108
v 7.851841 0.05090809 0.2856379
v 8.774146 -0.3359995 -0.4954004
v 7.866389 -0.3346539 -0.08682156
v 2.321301 -0.2777834 -7.704546
v 2.035581 0.09739113 -7.499186
v 1.367909 -0.1204004 -7.853361
v 1.485211 -0.04016399 -6.488101
v 1.646805 -0.2947226 -7.417679
v 1.81211 0.3543901 -6.647701
v 2.76752 0.05090809 -6.360884
v 2.138859 -0.02217865 -6.807152
v 3.043402 -0.3257856 -6.596984
v 2.200736 -0.05730247 -5.36766
v 2.491514 -0.3435221 -6.124709
v 2.5092 0.3282595 -5.554687
v 3.153008 0.05090809 -5.12446
v 2.817739 -0.05730247 -5.741414
v 3.520485 -0.3346539 -5.262588
v 3.227191 -0.3346539 -4.598852
v 2.78553 -0.3346539 -4.986183
v 3.600148 0.05090809 -4.722034
v 4.150616 0.05090809 -4.853885
v 3.696924 -0.3346539 -5.094543
v 3.963166 -0.3346539 -5.129791
v 4.459081 0.0712347 -5.6548
v 4.354308 -0.3346539 -4.588614
v 3.393492 0.3282595 -4.254592
v 3.910605 -0.3346539 -4.439352
v 3.683672 -0.05730247 -4.224401
v 3.387439 0.05090809 -3.826035
v 2.967476 -0.3346539 -3.64394
v 3.104109 -0.05730247 -4.286253
v 1.367909 -0.1204004 -7.853361
v 2.035581 0.09739113 -7.499186
v 1.646805 -0.2947226 -7.417679
v 1.81211 0.3543901 -6.647701
v 2.321301 -0.2777834 -7.704546
v 2.138859 -0.02217865 -6.807152
v 2.491514 -0.3435221 -6.124709
v 1.485211 -0.04016399 -6.488101
v 2.76752 0.05090809 -6.360884
v 2.5092 0.3282595 -5.554687
v 3.043402 -0.3257856 -6.596984
v 2.817739 -0.05730247 -5.741414
v 2.78553 -0.3346539 -4.986183
v 2.200736 -0.05730247 -5.36766
v 3.153008 0.05090809 -5.12446
v 3.600148 0.05090809 -4.722034
v 3.520485 -0.3346539 -5.262588
v 3.696924 -0.3346539 -5.094543
v 3.104109 -0.05730247 -4.286253
v 3.227191 -0.3346539 -4.598852
v 3.393492 0.3282595 -4.254592
v 4.354308 -0.3346539 -4.588614
v 3.910605 -0.3346539 -4.439352
v 4.150616 0.05090809 -4.853885
v 4.459081 0.0712347 -5.6548
v 3.963166 -0.3346539 -5.129791
v 3.387439 0.05090809 -3.826035
v 3.683672 -0.05730247 -4.224401
v 3.655499 -0.3346539 -3.913569
v 6.628969 0.08745193 9.881841
v 7.67017 -0.006560326 9.49344
v 7.868307 -0.2771854 9.722215
v 8.203875 0.05090809 8.728219
v 7.473553 -0.2771854 9.263616
v 7.780897 -0.3346539 8.49167
v 8.40896 -0.02661324 9.949273
v 8.129766 -0.3346539 9.217956
v 8.757954 0.2975702 9.859422
v 8.327753 0.05090809 7.891431
v 8.589933 -0.3346539 8.5111
v 9.684768 0.05090809 10.48532
v 9.106923 -0.02661324 9.76957
v 10.09731 -0.3346539 10.4071
v 8.969941 0.07893181 11.75208
v 9.272179 -0.3346539 10.56359
v 9.212368 0.3282595 7.667239
v 8.609564 -0.3346539 7.5321
v 9.347083 -0.05730247 7.241197
v 9.782441 -0.1937113 8.484645
v 9.088963 -0.05730247 8.101899
v 8.58007 0.3282595 6.715415
v 7.870973 -0.3346539 7.877208
v 8.181629 -0.05730247 6.89721
v 7.787124 -0.3216753 5.828782
v 8.980204 -0.05730247 6.53469
v 7.431554 0.03792953 6.013194
v 6.311038 0.08720207 6.487113
v 7.285182 -0.3216753 6.516532
v 7.651986 0.05090809 5.176555
v 7.034135 -0.3216753 5.753203
v 7.199764 -0.3346539 5.238706
v 6.783313 -0.02105808 4.100728
v 7.979382 -0.3346539 5.098411
v 6.414317 0.2740297 4.22391
v 6.414815 0.04189014 3.428823
v 6.045071 -0.02105808 4.346667
v 6.050426 -0.3375931 3.642354
v 7.67017 -0.006560326 9.49344
v 6.628969 0.08745193 9.881841
v 7.473553 -0.2771854 9.263616
v 8.129766 -0.3346539 9.217956
v 7.868307 -0.2771854 9.722215
v 8.203875 0.05090809 8.728219
v 8.757954 0.2975702 9.859422
v 8.589933 -0.3346539 8.5111
v 9.106923 -0.02661324 9.76957
v 9.272179 -0.3346539 10.56359
v 8.40896 -0.02661324 9.949273
v 9.684768 0.05090809 10.48532
v 8.969941 0.07893181 11.75208
v 10.09731 -0.3346539 10.4071
v 8.327753 0.05090809 7.891431
v 7.780897 -0.3346539 8.49167
v 7.870973 -0.3346539 7.877208
v 9.088963 -0.05730247 8.101899
v 8.589933 -0.3346539 8.5111
v 9.212368 0.3282595 7.667239
v 9.782441 -0.1937113 8.484645
v 9.347083 -0.05730247 7.241197
v 8.980204 -0.05730247 6.53469
v 8.609564 -0.3346539 7.5321
v 8.58007 0.3282595 6.715415
v 7.431554 0.03792953 6.013194
v 8.181629 -0.05730247 6.89721
v 7.285182 -0.3216753 6.516532
v 6.311038 0.08720207 6.487113
v 7.034135 -0.3216753 5.753203
v 7.979382 -0.3346539 5.098411
v 7.787124 -0.3216753 5.828782
v 7.651986 0.05090809 5.176555
v 6.414317 0.2740297 4.22391
v 7.199764 -0.3346539 5.238706
v 6.045071 -0.02105808 4.346667
v 6.414815 0.04189014 3.428823
v 6.795494 -0.3315649 3.205775
v 6.783313 -0.02105808 4.100728
v 2.433672 -0.3346539 3.270343
v 4.686537 -0.3346539 -8.583069E-06
v 2.979781 -0.3346539 3.642602
v 1.792381 -0.3346539 1.631917
v 4.762414 -0.3346539 4.27941
v 2.062359 -0.3346539 -0.0001087189
v 6.050426 -0.3375931 3.642354
v 1.851468 -0.3346539 -2.152584
v 6.414815 0.04189014 3.428823
v 2.475023 -0.3346539 -3.634923
v 6.795494 -0.3315649 3.205775
v 2.967476 -0.3346539 -3.64394
v 6.7939 -0.3346539 2.688811
v 3.387439 0.05090809 -3.826035
v 7.089436 -0.3346539 2.032624
v 3.655499 -0.3346539 -3.913569
v 7.821899 -0.3346539 1.583964
v 4.758179 -0.3346539 -4.279577
v 7.834304 -0.3346539 0.7349701
v 6.340682 -0.3346539 -3.695355
v 7.851841 0.05090809 0.2856379
v 6.703799 -0.3346539 -2.889108
v 7.866389 -0.3346539 -0.08682156
v 7.721685 -0.3346539 -1.806705
vt 0.7757841 0.7327481
vt 0.8399211 0.7327481
vt 0.8399211 0.7896159
vt 0.8399211 0.7327481
vt 0.8399211 0.7896159
vt 0.7757841 0.7896159
vt 0.7757841 0.7327481
vt 0.8399211 0.7896159
vt 0.8399211 0.7327481
vt 0.8399211 0.7327481
vt 0.8399211 0.7896159
vt 0.7757841 0.7896159
vt 0.8399211 0.7327481
vt 0.8399211 0.7896159
vt 0.7757841 0.7327481
vt 0.8399211 0.7896159
vt 0.8399211 0.7327481
vt 0.8399211 0.7327481
vt 0.8399211 0.7896159
vt 0.7757841 0.7896159
vt 0.7757841 0.7327481
vt 0.8399211 0.7896159
vt 0.8399211 0.7327481
vt 0.8399211 0.7327481
vt 0.8399211 0.7896159
vt 0.7757841 0.7896159
vt 0.8399211 0.7327481
vt 0.8399211 0.7896159
vt 0.7757841 0.7896159
vt 0.7757841 0.7327481
vt 0.8399211 0.7896159
vt 0.8399211 0.7327481
vt 0.8399211 0.7327481
vt 0.8399211 0.7896159
vt 0.7757841 0.7896159
vt 0.8399211 0.7327481
vt 0.8399211 0.7896159
vt 0.7757841 0.7896159
vt 0.7757841 0.7327481
vt 0.8399211 0.7896159
vt 0.8399211 0.7327481
vt 0.8399211 0.7327481
vt 0.8399211 0.7896159
vt 0.7757841 0.7327481
vt 0.8399211 0.7896159
vt 0.8399211 0.7327481
vt 0.8399211 0.7327481
vt 0.8399211 0.7896159
vt 0.7757841 0.7896159
vt 0.7757841 0.7327481
vt 0.8399211 0.7896159
vt 0.8399211 0.7327481
vt 0.8399211 0.7327481
vt 0.7757841 0.7327481
vt 0.8399211 0.7896159
vt 0.8399211 0.7896159
vt 0.8399211 0.7327481
vt 0.7757841 0.7896159
vt 0.7757841 0.7327481
vt 0.8399211 0.7896159
vt 0.8399211 0.7327481
vt 0.8399211 0.7896159
vt 0.8399211 0.7327481
vt 0.7757841 0.7896159
vt 0.7757841 0.7327481
vt 0.8399211 0.7896159
vt 0.8399211 0.7327481
vt 0.8399211 0.7896159
vt 0.8399211 0.7327481
vt 0.7757841 0.7896159
vt 0.7757841 0.7327481
vt 0.8399211 0.7896159
vt 0.8399211 0.7327481
vt 0.8399211 0.7896159
vt 0.8399211 0.7327481
vt 0.7757841 0.7327481
vt 0.8399211 0.7896159
vt 0.8399211 0.7327481
vt 0.7757841 0.7896159
vt 0.8399211 0.7896159
vt 0.8399211 0.7327481
vt 0.8399211 0.7327481
vt 0.7757841 0.7896159
vt 0.8399211 0.7896159
vt 0.7757841 0.7327481
vt 0.8399211 0.7896159
vt 0.8399211 0.7327481
vt 0.8399211 0.7896159
vt 0.8399211 0.7327481
vt 0.7757841 0.7896159
vt 0.7757841 0.7327481
vt 0.8399211 0.7896159
vt 0.8399211 0.7327481
vt 0.8399211 0.7896159
vt 0.8399211 0.7327481
vt 0.7757841 0.7896159
vt 0.7757841 0.7327481
vt 0.8399211 0.7896159
vt 0.8399211 0.7327481
vt 0.8399211 0.7896159
vt 0.8399211 0.7327481
vt 0.7757841 0.7896159
vt 0.8399211 0.7896159
vt 0.8399211 0.7327481
vt 0.7757841 0.7896159
vt 0.8399211 0.7327481
vt 0.8399211 0.7896159
vt 0.7757841 0.7327481
vt 0.8399211 0.7896159
vt 0.8399211 0.7327481
vt 0.8399211 0.7327481
vt 0.7757841 0.7896159
vt 0.8399211 0.7896159
vt 0.7757841 0.7327481
vt 0.8399211 0.7896159
vt 0.8399211 0.7327481
vt 0.8399211 0.7896159
vt 0.8399211 0.7327481
vt 0.7757841 0.7896159
vt 0.7757841 0.7896159
vt 0.8399211 0.761182
vt 0.7757841 0.7327481
vt 0.8399211 0.7896159
vt 0.8399211 0.7327481
vt 0.8399211 0.7896159
vt 0.8399211 0.7327481
vt 0.7757841 0.7327481
vt 0.8399211 0.7896159
vt 0.8399211 0.7327481
vt 0.8399211 0.7896159
vt 0.8399211 0.7327481
vt 0.7757841 0.7327481
vt 0.8399211 0.7896159
vt 0.8399211 0.7327481
vt 0.8399211 0.7896159
vt 0.8399211 0.7327481
vt 0.7757841 0.7896159
vt 0.8399211 0.7327481
vt 0.8399211 0.7896159
vt 0.7757841 0.7327481
vt 0.8399211 0.7896159
vt 0.8399211 0.7327481
vt 0.8399211 0.7896159
vt 0.8399211 0.7327481
vt 0.7757841 0.7896159
vt 0.7757841 0.7327481
vt 0.8399211 0.7896159
vt 0.8399211 0.7327481
vt 0.7757841 0.7327481
vt 0.8399211 0.7896159
vt 0.8399211 0.7327481
vt 0.8399211 0.7896159
vt 0.8399211 0.7327481
vt 0.7757841 0.7896159
vt 0.7757841 0.7327481
vt 0.8399211 0.7896159
vt 0.8399211 0.7327481
vt 0.8399211 0.7896159
vt 0.8399211 0.7327481
vt 0.7757841 0.7896159
vt 0.8399211 0.7327481
vt 0.8399211 0.7896159
vt 0.7757841 0.7327481
vt 0.8399211 0.7896159
vt 0.8399211 0.7327481
vt 0.8399211 0.7896159
vt 0.8399211 0.7327481
vt 0.7757841 0.7896159
vt 0.8399211 0.7327481
vt 0.8399211 0.7896159
vt 0.8399211 0.7896159
vt 0.8399211 0.7327481
vt 0.7757841 0.7896159
vt 0.7757841 0.7327481
vt 0.8399211 0.7896159
vt 0.8399211 0.7327481
vt 0.8399211 0.7896159
vt 0.8399211 0.7327481
vt 0.8399211 0.7896159
vt 0.8399211 0.7327481
vt 0.7757841 0.7896159
vt 0.7757841 0.7327481
vt 0.8399211 0.7896159
vt 0.8399211 0.7327481
vt 0.7757841 0.7896159
vt 0.8399211 0.7896159
vt 0.8399211 0.7327481
vt 0.8399211 0.761146
vt 0.7754521 0.7612834
vt 0.8399211 0.7613063
vt 0.8399211 0.761254
vt 0.8399211 0.7612098
vt 0.8399211 0.7611264
vt 0.8399211 0.7611264
vt 0.8399211 0.7612311
vt 0.7754521 0.7613112
vt 0.8399211 0.7611264
vt 0.8399211 0.7612883
vt 0.8399211 0.7611575
vt 0.8399211 0.7612768
vt 0.7754521 0.7611689
vt 0.8399211 0.7612392
vt 0.8399211 0.7611836
vt 0.8399211 0.7612016
vt 0.8399211 0.7612491
vt 0.8399211 0.7611673
vt 0.8399211 0.7611264
vt 0.7754521 0.7611444
vt 0.8399211 0.7611706
vt 0.8399211 0.7611264
vt 0.8399211 0.7612458
vn -0.0007457136 0.9999998 0
vn 0.652007 0.7252487 -0.2211363
vn 0.03075445 0.9964998 -0.07773263
vn -0.5712481 0.8039991 0.1651095
vn -0.4767476 0.8214991 0.3128113
vn -0.0007457136 0.9999998 0
vn -0.0007457136 0.9999998 0
vn 0.3912559 0.789999 0.4720386
vn -0.4049973 0.7549988 0.5157073
vn 0.1497549 0.7794989 -0.6082392
vn 0.3702558 0.7532488 -0.5436238
vn -0.0007457136 0.9999998 0
vn 0.4980064 0.8319992 0.2444729
vn -0.4714977 0.7182486 0.5116726
vn -0.0007457136 0.9999998 0
vn 0.1130047 0.7584988 -0.6418018
vn 0.2845055 0.7339988 -0.6166866
vn 0.1060047 0.7497488 0.6531766
vn -0.1039961 0.7322487 0.6730503
vn -0.0007457136 0.9999998 0
vn -0.0007457136 0.9999998 0
vn 0.1182548 0.7567488 -0.6429207
vn -0.03749585 0.7462487 -0.6646103
vn -0.2002465 0.7409987 0.6409541
vn 0.2722554 0.7129986 0.6461501
vn -0.0007457136 0.9999998 0
vn 0.03075445 0.9964998 -0.07773263
vn -0.5712481 0.8039991 0.1651095
vn -0.0007457136 0.9999998 0
vn -0.0007457136 0.9999998 0
vn 0.652007 0.7252487 -0.2211363
vn 0.3912559 0.789999 0.4720386
vn 0.1130047 0.7584988 -0.6418018
vn 0.1497549 0.7794989 -0.6082392
vn -0.0007457136 0.9999998 0
vn -0.4767476 0.8214991 0.3128113
vn 0.1060047 0.7497488 0.6531766
vn -0.0007457136 0.9999998 0
vn -0.0007457136 0.9999998 0
vn -0.4049973 0.7549988 0.5157073
vn -0.4714977 0.7182486 0.5116726
vn 0.3702558 0.7532488 -0.5436238
vn 0.4980064 0.8319992 0.2444729
vn -0.0007457136 0.9999998 0
vn 0.001004338 0.7514988 -0.6597337
vn 0.1182548 0.7567488 -0.6429207
vn -0.1039961 0.7322487 0.6730503
vn -0.2002465 0.7409987 0.6409541
vn -0.0007457136 0.9999998 0
vn -0.0007457136 0.9999998 0
vn -0.03749585 0.7462487 -0.6646103
vn -0.2737468 0.6937486 -0.6661648
vn 0.2180052 0.5922482 -0.7757034
vn -0.0007457136 0.9999998 0
vn -0.2544967 0.9614997 -0.1036813
vn -0.5694981 0.7339988 0.3700239
vn -0.7549988 0.6412483 -0.1370305
vn -0.0007457136 0.9999998 0
vn -0.0007457136 0.9999998 0
vn 0.6082568 0.6937486 -0.3856637
vn 0.5977567 0.6849985 -0.41649
vn -0.7059987 0.6447483 0.2930282
vn -0.6534984 0.6622485 0.3665607
vn -0.0007457136 0.9999998 0
vn -0.0007457136 0.9999998 0
vn 0.7132573 0.6674985 -0.2137988
vn 0.5382565 0.6797485 -0.4982187
vn -0.6762486 0.7252487 0.1292371
vn -0.3489971 0.6062483 0.7146076
vn -0.0007457136 0.9999998 0
vn -0.0007457136 0.9999998 0
vn 0.2005051 0.6989986 -0.6864392
vn -0.4364974 0.6674985 -0.6032543
vn -0.2439967 0.9667497 -0.07655473
vn 0.3912559 0.6727484 0.6279557
vn -0.0007457136 0.9999998 0
vn 0.4315061 0.7129986 0.5526621
vn 0.7902576 0.5834981 0.1871442
vn -0.0007457136 0.9999998 0
vn -0.3402472 0.9264995 0.1607189
vn -0.7392488 0.6482484 -0.1824425
vn -0.2544967 0.9614997 -0.1036813
vn -0.0007457136 0.9999998 0
vn -0.7549988 0.6412483 -0.1370305
vn -0.0007457136 0.9999998 0
vn 0.7745075 0.6324983 -0.009165847
vn 0.6082568 0.6937486 -0.3856637
vn -0.6534984 0.6622485 0.3665607
vn -0.5694981 0.7339988 0.3700239
vn -0.0007457136 0.9999998 0
vn -0.0007457136 0.9999998 0
vn 0.5977567 0.6849985 -0.41649
vn 0.7132573 0.6674985 -0.2137988
vn -0.3489971 0.6062483 0.7146076
vn -0.7059987 0.6447483 0.2930282
vn -0.0007457136 0.9999998 0
vn -0.0007457136 0.9999998 0
vn 0.5382565 0.6797485 -0.4982187
vn 0.2005051 0.6989986 -0.6864392
vn -0.7392488 0.6482484 -0.1824425
vn -0.6762486 0.7252487 0.1292371
vn -0.0007457136 0.9999998 0
vn 0.3912559 0.6727484 0.6279557
vn 0.4315061 0.7129986 0.5526621
vn -0.0007457136 0.9999998 0
vn -0.2439967 0.9667497 -0.07655473
vn -0.4364974 0.6674985 -0.6032543
vn -0.0007457136 0.9999998 0
vn 0.7902576 0.5834981 0.1871442
vn 0.2670054 0.9632497 -0.02929484
vn -0.0007457136 0.9999998 0
vn -0.0007457136 0.9999998 0
vn -0.0007457136 0.9999998 0
vn -0.0007457136 0.9999998 0
vn -0.0007457136 0.9999998 0
vn -0.0007457136 0.9999998 0
vn -0.0007457136 0.9999998 0
vn -0.0007457136 0.9999998 0
vn -0.0007457136 0.9999998 0
vn -0.0007457136 0.9999998 0
vn -0.0007457136 0.9999998 0
vn -0.0007457136 0.9999998 0
vn -0.0007457136 0.9999998 0
vn -0.0007457136 0.9999998 0
vn -0.0007457136 0.9999998 0
vn -0.0007457136 0.9999998 0
vn -0.0007457136 0.9999998 0
vn -0.0007457136 0.9999998 0
vn -0.0007457136 0.9999998 0
vn -0.0007457136 0.9999998 0
vn -0.0007457136 0.9999998 0
vn -0.0007457136 0.9999998 0
vn -0.0007457136 0.9999998 0
vn -0.0007457136 0.9999998 0
vn -0.0007457136 0.9999998 0
vn -0.0007457136 0.9999998 0
vn -0.0007457136 0.9999998 0
vn -0.0007457136 0.9999998 0
vn -0.0007457136 0.9999998 0
vn -0.0007457136 0.9999998 0
vn -0.0007457136 0.9999998 0
vn -0.0007457136 0.9999998 0
vn -0.0007457136 0.9999998 0
vn -0.0007457136 0.9999998 0
vn -0.0007457136 0.9999998 0
vn -0.0007457136 0.9999998 0
vn -0.0007457136 0.9999998 0
vn -0.0007457136 0.9999998 0
vn -0.0007457136 0.9999998 0
vn -0.0007457136 0.9999998 0
vn -0.0007457136 0.9999998 0
vn -0.0007457136 0.9999998 0
vn -0.0007457136 0.9999998 0
vn -0.0007457136 0.9999998 0
vn -0.0007457136 0.9999998 0
vn -0.0007457136 0.9999998 0
vn -0.0007457136 0.9999998 0
vn -0.0007457136 0.9999998 0
vn -0.0007457136 0.9999998 0
vn -0.0007457136 0.9999998 0
vn -0.0007457136 0.9999998 0
vn -0.0007457136 0.9999998 0
vn -0.0007457136 0.9999998 0
vn -0.0007457136 0.9999998 0
vn -0.0007457136 0.9999998 0
vn -0.0007457136 0.9999998 0
vn -0.0007457136 0.9999998 0
vn -0.0007457136 0.9999998 0
vn -0.0007457136 0.9999998 0
vn -0.0007457136 0.9999998 0
vn -0.0007457136 0.9999998 0
vn -0.0007457136 0.9999998 0
vn -0.0007457136 0.9999998 0
vn -0.0007457136 0.9999998 0
vn -0.0007457136 0.9999998 0
vn -0.0007457136 0.9999998 0
vn -0.0007457136 0.9999998 0
vn -0.0007457136 0.9999998 0
vn -0.0007457136 0.9999998 0
vn -0.0007457136 0.9999998 0
vn -0.0007457136 0.9999998 0
vn -0.0007457136 0.9999998 0
vn -0.0007457136 0.9999998 0
vn -0.0007457136 0.9999998 0
vn -0.0007457136 0.9999998 0
vn -0.0007457136 0.9999998 0
vn -0.0007457136 0.9999998 0
vn -0.0007457136 0.9999998 0
vn -0.004245661 0.9999911 0
vn -0.0007457136 0.9999998 0
vn -0.0007457136 0.9999998 0
vn 0.001004338 0.9999995 0
vn -0.0007457136 0.9999998 0
vn -0.0007457136 0.9999998 0
vn -0.0007457136 0.9999998 0
vn -0.0007457136 0.9999998 0
vn -0.0007457136 0.9999998 0
vn -0.0007457136 0.9999998 0
vn -0.3402472 0.9264995 0.1607189
vn 0.004504278 0.9999899 0
vn -0.0007457136 0.9999998 0
vn -0.0007457136 0.9999998 0
vn 0.2670054 0.9632497 -0.02929484
vn -0.0007457136 0.9999998 0
vn -0.0007457136 0.9999998 0
vn -0.05674595 0.9684997 0.242463
vn -0.0007457136 0.9999998 0
vn -0.12317 0.9923856 0
vn -0.0007457136 0.9999998 0
vn -0.004245698 0.9824997 -0.1862158
vn -0.0007457136 0.9999998 0
g Copenhagen_lightning_4_mesh_0
f 3/3/3 2/2/2 1/1/1
f 5/5/5 4/4/4 1/1/1
f 6/6/6 5/5/5 1/1/1
f 6/6/6 8/8/8 7/7/7
f 8/8/8 9/9/9 7/7/7
f 11/11/11 10/10/10 7/7/7
f 12/12/12 11/11/11 7/7/7
f 12/12/12 14/14/14 13/13/13
f 6/6/6 16/16/16 15/15/15
f 16/16/16 17/17/17 15/15/15
f 19/19/19 18/18/18 15/15/15
f 20/20/20 19/19/19 15/15/15
f 20/20/20 22/22/22 21/21/21
f 22/22/22 23/23/23 21/21/21
f 25/25/25 24/24/24 21/21/21
f 26/26/26 25/25/25 21/21/21
f 29/29/29 28/28/28 27/27/27
f 29/29/29 31/31/31 30/30/30
f 31/31/31 32/32/32 30/30/30
f 34/34/34 33/33/33 30/30/30
f 35/35/35 34/34/34 30/30/30
f 37/37/37 36/36/36 30/30/30
f 38/38/38 37/37/37 30/30/30
f 35/35/35 40/40/40 39/39/39
f 40/40/40 41/41/41 39/39/39
f 43/43/43 42/42/42 39/39/39
f 38/38/38 45/45/45 44/44/44
f 45/45/45 46/46/46 44/44/44
f 48/48/48 47/47/47 44/44/44
f 49/49/49 48/48/48 44/44/44
f 49/49/49 51/51/51 50/50/50
f 51/51/51 52/52/52 50/50/50
f 55/55/55 54/54/54 53/53/53
f 57/57/57 56/56/56 54/54/54
f 56/56/56 58/58/58 54/54/54
f 60/60/60 58/58/58 59/59/59
f 61/61/61 60/60/60 59/59/59
f 63/63/63 62/62/62 59/59/59
f 62/62/62 64/64/64 59/59/59
f 66/66/66 64/64/64 65/65/65
f 67/67/67 66/66/66 65/65/65
f 69/69/69 68/68/68 65/65/65
f 68/68/68 70/70/70 65/65/65
f 72/72/72 70/70/70 71/71/71
f 73/73/73 72/72/72 71/71/71
f 75/75/75 74/74/74 71/71/71
f 77/77/77 70/70/70 76/76/76
f 78/78/78 77/77/77 76/76/76
f 80/80/80 79/79/79 76/76/76
f 81/81/81 80/80/80 76/76/76
f 84/84/84 83/83/83 82/82/82
f 86/86/86 83/83/83 85/85/85
f 87/87/87 86/86/86 85/85/85
f 89/89/89 88/88/88 85/85/85
f 88/88/88 90/90/90 85/85/85
f 92/92/92 90/90/90 91/91/91
f 93/93/93 92/92/92 91/91/91
f 95/95/95 94/94/94 91/91/91
f 94/94/94 96/96/96 91/91/91
f 98/98/98 96/96/96 97/97/97
f 99/99/99 98/98/98 97/97/97
f 101/101/101 100/100/100 97/97/97
f 100/100/100 102/102/102 97/97/97
f 104/104/104 103/103/103 97/97/97
f 103/103/103 105/105/105 97/97/97
f 107/107/107 105/105/105 106/106/106
f 109/109/109 102/102/102 108/108/108
f 110/110/110 109/109/109 108/108/108
f 113/113/113 112/112/112 111/111/111
f 115/115/115 112/112/112 114/114/114
f 116/116/116 115/115/115 114/114/114
f 118/118/118 117/117/117 114/114/114
f 117/117/117 119/119/119 114/114/114
f 121/121/121 120/120/120 114/114/114
f 123/123/123 119/119/119 122/122/122
f 124/124/124 123/123/123 122/122/122
f 126/126/126 125/125/125 122/122/122
f 128/128/128 120/120/120 127/127/127
f 129/129/129 128/128/128 127/127/127
f 131/131/131 130/130/130 127/127/127
f 133/133/133 120/120/120 132/132/132
f 134/134/134 133/133/133 132/132/132
f 136/136/136 135/135/135 132/132/132
f 135/135/135 137/137/137 132/132/132
f 139/139/139 137/137/137 138/138/138
f 141/141/141 137/137/137 140/140/140
f 142/142/142 141/141/141 140/140/140
f 144/144/144 143/143/143 140/140/140
f 143/143/143 145/145/145 140/140/140
f 147/147/147 145/145/145 146/146/146
f 148/148/148 147/147/147 146/146/146
f 151/151/151 150/150/150 149/149/149
f 153/153/153 152/152/152 149/149/149
f 152/152/152 154/154/154 149/149/149
f 156/156/156 154/154/154 155/155/155
f 157/157/157 156/156/156 155/155/155
f 159/159/159 158/158/158 155/155/155
f 158/158/158 160/160/160 155/155/155
f 162/162/162 160/160/160 161/161/161
f 164/164/164 154/154/154 163/163/163
f 165/165/165 164/164/164 163/163/163
f 167/167/167 166/166/166 163/163/163
f 166/166/166 168/168/168 163/163/163
f 170/170/170 168/168/168 169/169/169
f 172/172/172 171/171/171 163/163/163
f 171/171/171 173/173/173 163/163/163
f 175/175/175 173/173/173 174/174/174
f 176/176/176 175/175/175 174/174/174
f 178/178/178 177/177/177 174/174/174
f 180/180/180 179/179/179 174/174/174
f 179/179/179 181/181/181 174/174/174
f 183/183/183 181/181/181 182/182/182
f 184/184/184 183/183/183 182/182/182
f 186/186/186 185/185/185 182/182/182
f 187/187/187 186/186/186 182/182/182
f 190/190/190 189/189/189 188/188/188
f 189/189/189 191/191/191 188/188/188
f 189/189/189 190/190/190 192/192/192
f 189/189/189 193/193/193 191/191/191
f 192/192/192 194/194/194 189/189/189
f 195/195/195 193/193/193 189/189/189
f 189/189/189 194/194/194 196/196/196
f 189/189/189 197/197/197 195/195/195
f 189/189/189 196/196/196 198/198/198
f 199/199/199 197/197/197 189/189/189
f 189/189/189 198/198/198 200/200/200
f 201/201/201 199/199/199 189/189/189
f 200/200/200 202/202/202 189/189/189
f 189/189/189 203/203/203 201/201/201
f 189/189/189 202/202/202 204/204/204
f 189/189/189 205/205/205 203/203/203
f 189/189/189 204/204/204 206/206/206
f 189/189/189 207/207/207 205/205/205
f 189/189/189 206/206/206 208/208/208
f 209/209/209 207/207/207 189/189/189
f 208/208/208 210/210/210 189/189/189
f 189/189/189 211/211/211 209/209/209
f 189/189/189 210/210/210 211/211/211
