g copenhagen_menu_lightning_5_mesh
v 2.475019 0.05090141 3.634712
v 1.812651 -0.1995735 3.544062
v 2.43366 -0.334651 3.270334
v 2.471486 -0.2246637 4.675508
v 2.232275 -0.348114 4.059806
v 1.812651 -0.1995735 3.544062
v 2.475019 0.05090141 3.634712
v 2.232275 -0.348114 4.059806
v 2.471486 -0.2246637 4.675508
v 2.979783 -0.334651 3.642605
v 6.937883 0.05090141 2.369159
v 7.089431 -0.334651 2.032636
v 7.502798 0.09684181 2.472222
v 7.502798 0.09684181 2.472222
v 6.793904 -0.334651 2.688807
v 6.937883 0.05090141 2.369159
v 10.6572 0.01622295 0.2433233
v 10.66836 -0.3153944 -0.1137276
v 12.10001 -0.23524 1.333531
v 10.52006 -0.3341064 0.6463966
v 9.602412 -0.09160423 1.036753
v 9.632751 0.3066645 0.5921392
v 8.733856 0.03695297 -0.05500889
v 9.663068 -0.06619167 0.147748
v 8.774124 -0.3360033 -0.4954033
v 8.693224 -0.3611946 0.3854456
v 7.834315 -0.334651 0.7349672
v 7.851856 0.05090141 0.2856312
v 12.10001 -0.23524 1.333531
v 10.52006 -0.3341064 0.6463966
v 10.6572 0.01622295 0.2433233
v 9.632751 0.3066645 0.5921392
v 10.66836 -0.3153944 -0.1137276
v 9.663068 -0.06619167 0.147748
v 9.602412 -0.09160423 1.036753
v 8.693224 -0.3611946 0.3854456
v 8.733856 0.03695297 -0.05500889
v 7.851856 0.05090141 0.2856312
v 8.774124 -0.3360033 -0.4954033
v 7.866389 -0.334651 -0.0868206
v 7.518946 -0.19699 -3.418301
v 6.703798 -0.334651 -2.889112
v 6.527685 0.05090141 -3.280154
v 6.527685 0.05090141 -3.280154
v 6.340692 -0.334651 -3.695358
v 7.518946 -0.19699 -3.418301
v 3.153009 0.05090141 -5.12447
v 2.235363 0.07122707 -5.806761
v 3.520496 -0.334651 -5.262596
v 3.227169 -0.334651 -4.598855
v 2.785543 -0.334651 -4.986163
v 3.600146 0.05090141 -4.722023
v 4.150609 0.05090141 -4.853871
v 3.696913 -0.334651 -5.094536
v 3.963172 -0.334651 -5.129799
v 4.459074 0.07122707 -6.009417
v 4.354315 -0.334651 -4.588622
v 3.393493 0.3282623 -4.254601
v 3.91061 -0.334651 -4.439354
v 3.683691 -0.05729008 -4.224385
v 3.387438 0.05090141 -3.826035
v 2.96747 -0.334651 -3.643928
v 3.104122 -0.05729008 -4.286252
v 2.235363 0.07122707 -5.806761
v 3.153009 0.05090141 -5.12447
v 2.785543 -0.334651 -4.986163
v 3.600146 0.05090141 -4.722023
v 3.520496 -0.334651 -5.262596
v 3.696913 -0.334651 -5.094536
v 3.104122 -0.05729008 -4.286252
v 3.227169 -0.334651 -4.598855
v 3.393493 0.3282623 -4.254601
v 4.354315 -0.334651 -4.588622
v 3.91061 -0.334651 -4.439354
v 4.150609 0.05090141 -4.853871
v 4.459074 0.07122707 -6.009417
v 3.963172 -0.334651 -5.129799
v 3.387438 0.05090141 -3.826035
v 3.683691 -0.05729008 -4.224385
v 3.655513 -0.334651 -3.913577
v 5.48469 -0.1816902 8.573981
v 6.315622 0.2926149 6.48474
v 6.521064 -0.013731 6.784629
v 7.431565 0.03792191 6.013181
v 6.096435 -0.01728344 6.191958
v 7.034145 -0.3216724 5.7532
v 7.979384 -0.334651 5.09842
v 7.787123 -0.3216724 5.828773
v 7.651985 0.05090141 5.176538
v 8.181617 -0.05729008 6.89722
v 7.285184 -0.3216724 6.516532
v 8.580087 0.3282623 6.715415
v 9.347376 -0.2061338 9.065383
v 8.980192 -0.05729008 6.534699
v 6.414327 0.274025 4.22391
v 7.199782 -0.334651 5.238706
v 6.045064 -0.02105808 4.346675
v 6.414811 0.04189873 3.428826
v 6.795498 -0.331563 3.205763
v 6.783327 -0.02105808 4.10072
v 6.315622 0.2926149 6.48474
v 5.48469 -0.1816902 8.573981
v 6.096435 -0.01728344 6.191958
v 7.285184 -0.3216724 6.516532
v 6.521064 -0.013731 6.784629
v 7.431565 0.03792191 6.013181
v 8.580087 0.3282623 6.715415
v 7.787123 -0.3216724 5.828773
v 8.980192 -0.05729008 6.534699
v 9.347376 -0.2061338 9.065383
v 8.181617 -0.05729008 6.89722
v 7.651985 0.05090141 5.176538
v 7.034145 -0.3216724 5.7532
v 7.199782 -0.334651 5.238706
v 6.783327 -0.02105808 4.10072
v 7.979384 -0.334651 5.09842
v 6.414327 0.274025 4.22391
v 6.414811 0.04189873 3.428826
v 6.045064 -0.02105808 4.346675
v 6.050433 -0.3375978 3.642342
v 4.686538 -0.334651 -5.722046E-06
v 7.866389 -0.334651 -0.0868206
v 7.851856 0.05090141 0.2856312
v 7.834315 -0.334651 0.7349672
v 7.721704 -0.334651 -1.806696
v 7.821901 -0.334651 1.583965
v 6.703798 -0.334651 -2.889112
v 7.089431 -0.334651 2.032636
v 6.527685 0.05090141 -3.280154
v 6.937883 0.05090141 2.369159
v 6.340692 -0.334651 -3.695358
v 6.793904 -0.334651 2.688807
v 4.758175 -0.334651 -4.27957
v 6.795498 -0.331563 3.205763
v 3.655513 -0.334651 -3.913577
v 6.414811 0.04189873 3.428826
v 3.387438 0.05090141 -3.826035
v 6.050433 -0.3375978 3.642342
v 2.96747 -0.334651 -3.643928
v 4.762414 -0.334651 4.279399
v 2.475019 -0.334651 -3.634925
v 2.979783 -0.334651 3.642605
v 1.851466 -0.334651 -2.152585
v 2.475019 0.05090141 3.634712
v 2.062359 -0.334651 -0.0001058578
v 2.43366 -0.334651 3.270334
v 1.792385 -0.334651 1.631905
vt 0.7757841 0.7327481
vt 0.8399211 0.7896159
vt 0.8399211 0.7327481
vt 0.8399211 0.7896159
vt 0.8399211 0.7327481
vt 0.8399211 0.7327481
vt 0.7757841 0.7896159
vt 0.8399211 0.7896159
vt 0.8399211 0.7327481
vt 0.8399211 0.7896159
vt 0.7757841 0.7327481
vt 0.8399211 0.7327481
vt 0.8399211 0.7896159
vt 0.8399211 0.7327481
vt 0.8399211 0.7896159
vt 0.7757841 0.7896159
vt 0.7757841 0.7327481
vt 0.8399211 0.7327481
vt 0.8399211 0.7896159
vt 0.8399211 0.7327481
vt 0.8399211 0.7896159
vt 0.7757841 0.7896159
vt 0.7757841 0.7327481
vt 0.8399211 0.7896159
vt 0.8399211 0.7327481
vt 0.8399211 0.7327481
vt 0.8399211 0.7896159
vt 0.7757841 0.7896159
vt 0.8399211 0.7327481
vt 0.8399211 0.7896159
vt 0.7757841 0.7896159
vt 0.7757841 0.7327481
vt 0.8399211 0.7896159
vt 0.8399211 0.7327481
vt 0.8399211 0.7327481
vt 0.8399211 0.7896159
vt 0.7757841 0.7896159
vt 0.7757841 0.7327481
vt 0.8399211 0.7896159
vt 0.8399211 0.7327481
vt 0.8399211 0.7327481
vt 0.8399211 0.7896159
vt 0.7757841 0.7896159
vt 0.7757841 0.7327481
vt 0.8399211 0.7327481
vt 0.8399211 0.7896159
vt 0.7757841 0.7327481
vt 0.8399211 0.7896159
vt 0.8399211 0.7327481
vt 0.8399211 0.7896159
vt 0.8399211 0.7327481
vt 0.7757841 0.7896159
vt 0.7757841 0.7327481
vt 0.8399211 0.7896159
vt 0.8399211 0.7327481
vt 0.8399211 0.7896159
vt 0.8399211 0.7327481
vt 0.7757841 0.7327481
vt 0.8399211 0.7896159
vt 0.8399211 0.7327481
vt 0.7757841 0.7896159
vt 0.8399211 0.7896159
vt 0.8399211 0.7327481
vt 0.8399211 0.7327481
vt 0.7757841 0.7896159
vt 0.8399211 0.7896159
vt 0.7757841 0.7327481
vt 0.8399211 0.7896159
vt 0.8399211 0.7327481
vt 0.8399211 0.7896159
vt 0.8399211 0.7327481
vt 0.7757841 0.7896159
vt 0.8399211 0.7896159
vt 0.8399211 0.7327481
vt 0.7757841 0.7896159
vt 0.8399211 0.7327481
vt 0.8399211 0.7896159
vt 0.7757841 0.7327481
vt 0.8399211 0.7896159
vt 0.8399211 0.7327481
vt 0.8399211 0.7327481
vt 0.7757841 0.7896159
vt 0.8399211 0.7896159
vt 0.7757841 0.7327481
vt 0.8399211 0.7896159
vt 0.8399211 0.7327481
vt 0.8399211 0.7896159
vt 0.8399211 0.7327481
vt 0.7757841 0.7896159
vt 0.8399211 0.7896159
vt 0.8399211 0.7327481
vt 0.7757841 0.7896159
vt 0.8399211 0.7327481
vt 0.8399211 0.7896159
vt 0.7757841 0.7327481
vt 0.8399211 0.7896159
vt 0.8399211 0.7327481
vt 0.7757841 0.7896159
vt 0.8399211 0.7896159
vt 0.8399211 0.7327481
vt 0.7757841 0.7327481
vt 0.8399211 0.7896159
vt 0.8399211 0.7327481
vt 0.8399211 0.7896159
vt 0.8399211 0.7327481
vt 0.7757841 0.7896159
vt 0.7757841 0.7327481
vt 0.8399211 0.7896159
vt 0.8399211 0.7327481
vt 0.8399211 0.7896159
vt 0.8399211 0.7327481
vt 0.7757841 0.7327481
vt 0.8399211 0.7896159
vt 0.8399211 0.7327481
vt 0.8399211 0.7896159
vt 0.8399211 0.7327481
vt 0.7757841 0.7896159
vt 0.7757841 0.7327481
vt 0.8399211 0.7896159
vt 0.8399211 0.7327481
vt 0.7754521 0.7612834
vt 0.8399211 0.7611264
vt 0.7754521 0.7611444
vt 0.8399211 0.7611673
vt 0.8399211 0.7612458
vt 0.8399211 0.7612016
vt 0.8399211 0.7611706
vt 0.8399211 0.7612392
vt 0.7754521 0.7611493
vt 0.7754521 0.7612588
vt 0.8399211 0.7611264
vt 0.8399211 0.7612768
vt 0.8399211 0.7612491
vt 0.8399211 0.7612883
vt 0.8399211 0.7611836
vt 0.7754521 0.7613112
vt 0.7754521 0.7611689
vt 0.8399211 0.7611264
vt 0.8399211 0.7611575
vt 0.8399211 0.7612098
vt 0.8399211 0.7611264
vt 0.8399211 0.7613063
vt 0.8399211 0.7612311
vt 0.7754521 0.7613325
vt 0.8399211 0.7611264
vt 0.8399211 0.761146
vt 0.8399211 0.761254
vn -0.0007457136 0.9999998 0
vn -0.3542148 0.935164 0
vn -0.1634964 0.6867485 -0.7082694
vn 0.1200048 0.9597497 0.2539279
vn -0.6324983 0.7112486 0.3067104
vn -0.3542148 0.935164 0
vn -0.0007457136 0.9999998 0
vn -0.6324983 0.7112486 0.3067104
vn 0.1200048 0.9597497 0.2539279
vn 0.5925068 0.7794989 0.2032662
vn -0.0007457136 0.9999998 0
vn 0.07975465 0.6727484 -0.7355601
vn -0.05149591 0.9859998 -0.1585956
vn -0.05149591 0.9859998 -0.1585956
vn -0.1862465 0.6674985 0.7209425
vn -0.0007457136 0.9999998 0
vn -0.0007457136 0.9999998 0
vn 0.5365065 0.6272483 -0.5645531
vn 0.04825449 0.9859998 0.1596116
vn 0.1462549 0.7374988 0.6593217
vn -0.1039961 0.7322487 0.6730503
vn -0.0007457136 0.9999998 0
vn -0.0007457136 0.9999998 0
vn 0.1182548 0.7567488 -0.6429207
vn -0.03749585 0.7462487 -0.6646103
vn -0.2002465 0.7409987 0.6409541
vn 0.2722554 0.7129986 0.6461501
vn -0.0007457136 0.9999998 0
vn 0.04825449 0.9859998 0.1596116
vn 0.1462549 0.7374988 0.6593217
vn -0.0007457136 0.9999998 0
vn -0.0007457136 0.9999998 0
vn 0.001004338 0.7514988 -0.6597337
vn 0.1182548 0.7567488 -0.6429207
vn -0.1039961 0.7322487 0.6730503
vn -0.2002465 0.7409987 0.6409541
vn -0.0007457136 0.9999998 0
vn -0.0007457136 0.9999998 0
vn -0.03749585 0.7462487 -0.6646103
vn -0.2737468 0.6937486 -0.6661648
vn -0.0007457136 0.9999998 0
vn -0.0007457136 0.9999998 0
vn -0.0007457136 0.9999998 0
vn -0.0007457136 0.9999998 0
vn -0.0007457136 0.9999998 0
vn -0.0007457136 0.9999998 0
vn -0.0007457136 0.9999998 0
vn -0.1074961 0.9789997 0.1732169
vn 0.4875063 0.6622485 -0.5690031
vn -0.6762486 0.7252487 0.1292371
vn -0.4697477 0.6552484 0.5915967
vn -0.0007457136 0.9999998 0
vn -0.0007457136 0.9999998 0
vn 0.2005051 0.6989986 -0.6864392
vn -0.551998 0.6569984 -0.5134699
vn -0.2404966 0.9702497 -0.02787483
vn 0.4700063 0.6709985 0.573459
vn -0.0007457136 0.9999998 0
vn 0.4315061 0.7129986 0.5526621
vn 0.7902576 0.5834981 0.1871442
vn -0.0007457136 0.9999998 0
vn -0.3402472 0.9264995 0.1607189
vn -0.7392488 0.6482484 -0.1824425
vn -0.1074961 0.9789997 0.1732169
vn -0.0007457136 0.9999998 0
vn -0.4697477 0.6552484 0.5915967
vn -0.0007457136 0.9999998 0
vn 0.4875063 0.6622485 -0.5690031
vn 0.2005051 0.6989986 -0.6864392
vn -0.7392488 0.6482484 -0.1824425
vn -0.6762486 0.7252487 0.1292371
vn -0.0007457136 0.9999998 0
vn 0.4700063 0.6709985 0.573459
vn 0.4315061 0.7129986 0.5526621
vn -0.0007457136 0.9999998 0
vn -0.2404966 0.9702497 -0.02787483
vn -0.551998 0.6569984 -0.5134699
vn -0.0007457136 0.9999998 0
vn 0.7902576 0.5834981 0.1871442
vn 0.2670054 0.9632497 -0.02929484
vn -0.0007457136 0.9999998 0
vn -0.0007457136 0.9999998 0
vn -0.0007457136 0.9999998 0
vn -0.0007457136 0.9999998 0
vn -0.0007457136 0.9999998 0
vn -0.0007457136 0.9999998 0
vn -0.0007457136 0.9999998 0
vn -0.0007457136 0.9999998 0
vn -0.0007457136 0.9999998 0
vn -0.0007457136 0.9999998 0
vn -0.0007457136 0.9999998 0
vn -0.0007457136 0.9999998 0
vn -0.0007457136 0.9999998 0
vn -0.0007457136 0.9999998 0
vn -0.0007457136 0.9999998 0
vn -0.0007457136 0.9999998 0
vn -0.0007457136 0.9999998 0
vn -0.0007457136 0.9999998 0
vn -0.0007457136 0.9999998 0
vn -0.0007457136 0.9999998 0
vn -0.0007457136 0.9999998 0
vn -0.0007457136 0.9999998 0
vn -0.0007457136 0.9999998 0
vn -0.0007457136 0.9999998 0
vn -0.0007457136 0.9999998 0
vn -0.0007457136 0.9999998 0
vn -0.0007457136 0.9999998 0
vn -0.0007457136 0.9999998 0
vn -0.0007457136 0.9999998 0
vn -0.0007457136 0.9999998 0
vn -0.0007457136 0.9999998 0
vn -0.0007457136 0.9999998 0
vn -0.0007457136 0.9999998 0
vn -0.0007457136 0.9999998 0
vn -0.0007457136 0.9999998 0
vn -0.0007457136 0.9999998 0
vn -0.0007457136 0.9999998 0
vn -0.0007457136 0.9999998 0
vn -0.0007457136 0.9999998 0
vn -0.0007457136 0.9999998 0
vn -0.004245661 0.9999911 0
vn -0.004245698 0.9824997 -0.1862158
vn -0.12317 0.9923856 0
vn -0.05674595 0.9684997 0.242463
vn -0.0007457136 0.9999998 0
vn -0.0007457136 0.9999998 0
vn -0.0007457136 0.9999998 0
vn 0.1935051 0.9544996 -0.2269058
vn -0.0007457136 0.9999998 0
vn -0.2544967 0.9632497 0.08591565
vn -0.0007457136 0.9999998 0
vn -0.2947469 0.9264995 0.2339294
vn -0.0007457136 0.9999998 0
vn -0.0007457136 0.9999998 0
vn 0.2670054 0.9632497 -0.02929484
vn -0.0007457136 0.9999998 0
vn -0.0007457136 0.9999998 0
vn -0.0007457136 0.9999998 0
vn -0.3402472 0.9264995 0.1607189
vn 0.001004338 0.9999995 0
vn -0.0007457136 0.9999998 0
vn 0.1777551 0.9807497 0.08082788
vn -0.0007457136 0.9999998 0
vn 0.1305048 0.9912498 -0.01980701
vn -0.0007457136 0.9999998 0
vn -0.320997 0.9212495 -0.2196822
vn -0.0007457136 0.9999998 0
g copenhagen_menu_lightning_5_mesh_0
f 3/3/3 2/2/2 1/1/1
f 5/5/5 4/4/4 1/1/1
f 8/8/8 7/7/7 6/6/6
f 10/10/10 7/7/7 9/9/9
f 13/13/13 12/12/12 11/11/11
f 16/16/16 15/15/15 14/14/14
f 19/19/19 18/18/18 17/17/17
f 21/21/21 20/20/20 17/17/17
f 22/22/22 21/21/21 17/17/17
f 22/22/22 24/24/24 23/23/23
f 24/24/24 25/25/25 23/23/23
f 27/27/27 26/26/26 23/23/23
f 28/28/28 27/27/27 23/23/23
f 31/31/31 30/30/30 29/29/29
f 31/31/31 33/33/33 32/32/32
f 33/33/33 34/34/34 32/32/32
f 36/36/36 35/35/35 32/32/32
f 37/37/37 36/36/36 32/32/32
f 37/37/37 39/39/39 38/38/38
f 39/39/39 40/40/40 38/38/38
f 43/43/43 42/42/42 41/41/41
f 46/46/46 45/45/45 44/44/44
f 49/49/49 48/48/48 47/47/47
f 51/51/51 50/50/50 47/47/47
f 50/50/50 52/52/52 47/47/47
f 54/54/54 52/52/52 53/53/53
f 55/55/55 54/54/54 53/53/53
f 57/57/57 56/56/56 53/53/53
f 59/59/59 52/52/52 58/58/58
f 60/60/60 59/59/59 58/58/58
f 62/62/62 61/61/61 58/58/58
f 63/63/63 62/62/62 58/58/58
f 66/66/66 65/65/65 64/64/64
f 68/68/68 65/65/65 67/67/67
f 69/69/69 68/68/68 67/67/67
f 71/71/71 70/70/70 67/67/67
f 70/70/70 72/72/72 67/67/67
f 74/74/74 73/73/73 67/67/67
f 73/73/73 75/75/75 67/67/67
f 77/77/77 75/75/75 76/76/76
f 79/79/79 72/72/72 78/78/78
f 80/80/80 79/79/79 78/78/78
f 83/83/83 82/82/82 81/81/81
f 85/85/85 82/82/82 84/84/84
f 86/86/86 85/85/85 84/84/84
f 88/88/88 87/87/87 84/84/84
f 87/87/87 89/89/89 84/84/84
f 91/91/91 90/90/90 84/84/84
f 90/90/90 92/92/92 84/84/84
f 94/94/94 92/92/92 93/93/93
f 96/96/96 89/89/89 95/95/95
f 97/97/97 96/96/96 95/95/95
f 99/99/99 98/98/98 95/95/95
f 100/100/100 99/99/99 95/95/95
f 103/103/103 102/102/102 101/101/101
f 105/105/105 104/104/104 101/101/101
f 104/104/104 106/106/106 101/101/101
f 108/108/108 106/106/106 107/107/107
f 109/109/109 108/108/108 107/107/107
f 111/111/111 110/110/110 107/107/107
f 113/113/113 106/106/106 112/112/112
f 114/114/114 113/113/113 112/112/112
f 116/116/116 115/115/115 112/112/112
f 115/115/115 117/117/117 112/112/112
f 119/119/119 117/117/117 118/118/118
f 120/120/120 119/119/119 118/118/118
f 123/123/123 122/122/122 121/121/121
f 121/121/121 124/124/124 123/123/123
f 121/121/121 122/122/122 125/125/125
f 121/121/121 126/126/126 124/124/124
f 121/121/121 125/125/125 127/127/127
f 121/121/121 128/128/128 126/126/126
f 121/121/121 127/127/127 129/129/129
f 121/121/121 130/130/130 128/128/128
f 129/129/129 131/131/131 121/121/121
f 121/121/121 132/132/132 130/130/130
f 121/121/121 131/131/131 133/133/133
f 121/121/121 134/134/134 132/132/132
f 121/121/121 133/133/133 135/135/135
f 121/121/121 136/136/136 134/134/134
f 121/121/121 135/135/135 137/137/137
f 121/121/121 138/138/138 136/136/136
f 137/137/137 139/139/139 121/121/121
f 140/140/140 138/138/138 121/121/121
f 139/139/139 141/141/141 121/121/121
f 121/121/121 142/142/142 140/140/140
f 121/121/121 141/141/141 143/143/143
f 121/121/121 144/144/144 142/142/142
f 143/143/143 145/145/145 121/121/121
f 146/146/146 144/144/144 121/121/121
f 121/121/121 145/145/145 147/147/147
f 121/121/121 147/147/147 146/146/146
