g Copenhagen_lightning_6_mesh
v 2.510845 -0.3365221 3.399907
v 4.686533 -0.3346462 6.198883E-06
v 2.846701 -0.3365221 3.628833
v 1.79238 -0.3346462 1.631904
v 4.762413 -0.3346462 4.279406
v 2.06236 -0.3346462 -0.0001091957
v 6.179336 -0.3365569 3.566823
v 1.851461 -0.3346462 -2.152585
v 6.666605 -0.3326087 3.281294
v 2.475023 -0.3346462 -3.634921
v 6.82794 -0.3346462 2.613238
v 3.08864 -0.3346462 -3.69142
v 7.055396 -0.3346462 2.108197
v 3.534346 -0.3346462 -3.866093
v 7.821896 -0.3346462 1.583972
v 4.758176 -0.3346462 -4.279566
v 7.840038 -0.3346462 0.5881987
v 6.400747 -0.3346462 -3.561994
v 7.860658 -0.3346462 0.05993223
v 6.64374 -0.3346462 -3.022474
v 7.721691 -0.3346462 -1.806702
vt 0.8399211 0.7611462
vt 0.7754517 0.7612821
vt 0.8399211 0.7613062
vt 0.8399211 0.7612532
vt 0.8399211 0.76121
vt 0.8399211 0.7611258
vt 0.8399211 0.7611258
vt 0.8399211 0.7612316
vt 0.8399211 0.7612893
vt 0.8399211 0.7611258
vt 0.8399211 0.7612773
vt 0.8399211 0.761157
vt 0.8399211 0.76124
vt 0.8399211 0.7611835
vt 0.8399211 0.7612016
vt 0.8399211 0.7612485
vt 0.8399211 0.7611679
vt 0.8399211 0.7611258
vt 0.8399211 0.7611258
vt 0.8399211 0.7611715
vt 0.8399211 0.761246
vn 2.063019E-05 1 0
vn 2.063019E-05 1 0
vn -0.0009588215 0.9999995 0
vn 2.063019E-05 1 0
vn 2.063019E-05 1 0
vn 2.063019E-05 1 0
vn 2.063019E-05 1 0
vn 2.063019E-05 1 0
vn 2.063019E-05 1 0
vn 2.063019E-05 1 0
vn 0.001979531 0.9999981 0
vn 2.063019E-05 1 0
vn 2.063019E-05 1 0
vn 2.063019E-05 1 0
vn 2.063019E-05 1 0
vn 2.063019E-05 1 0
vn 2.063019E-05 1 0
vn 2.063019E-05 1 0
vn 2.063019E-05 1 0
vn 2.063019E-05 1 0
vn 2.063019E-05 1 0
g Copenhagen_lightning_6_mesh_0
f 3/3/3 2/2/2 1/1/1
f 2/2/2 4/4/4 1/1/1
f 2/2/2 3/3/3 5/5/5
f 2/2/2 6/6/6 4/4/4
f 5/5/5 7/7/7 2/2/2
f 8/8/8 6/6/6 2/2/2
f 9/9/9 2/2/2 7/7/7
f 2/2/2 10/10/10 8/8/8
f 2/2/2 9/9/9 11/11/11
f 12/12/12 10/10/10 2/2/2
f 11/11/11 13/13/13 2/2/2
f 14/14/14 12/12/12 2/2/2
f 2/2/2 13/13/13 15/15/15
f 2/2/2 16/16/16 14/14/14
f 2/2/2 15/15/15 17/17/17
f 2/2/2 18/18/18 16/16/16
f 17/17/17 19/19/19 2/2/2
f 20/20/20 18/18/18 2/2/2
f 2/2/2 19/19/19 21/21/21
f 2/2/2 21/21/21 20/20/20
