g Copenhagen_lightning_glow_mesh
v -4.562211 5.722046E-06 5.722046E-06
v 0.03553009 5.722046E-06 5.722046E-06
v -3.167498 5.722046E-06 4.28565
v -3.167498 5.722046E-06 -4.28565
v 0.03553009 5.722046E-06 5.787842
v 0.03553009 5.722046E-06 -5.787842
v 3.248031 5.722046E-06 4.28565
v 3.248031 5.722046E-06 -4.28565
v 4.374065 5.722046E-06 5.722046E-06
vt 0.8448498 0.748937
vt 0.7536643 0.748937
vt 0.8448498 0.748937
vt 0.8448498 0.748937
vt 0.8448498 0.748937
vt 0.8448498 0.748937
vt 0.8448498 0.748937
vt 0.8448498 0.748937
vt 0.8448498 0.748937
vn 0 1 0
vn 0 1 0
vn 0 1 0
vn 0 1 0
vn 0 1 0
vn 0 1 0
vn 0 1 0
vn 0 1 0
vn 0 1 0
g Copenhagen_lightning_glow_mesh_0
f 3/3/3 2/2/2 1/1/1
f 1/1/1 2/2/2 4/4/4
f 5/5/5 2/2/2 3/3/3
f 2/2/2 6/6/6 4/4/4
f 5/5/5 7/7/7 2/2/2
f 2/2/2 8/8/8 6/6/6
f 7/7/7 9/9/9 2/2/2
f 9/9/9 8/8/8 2/2/2
