g easterSpecial_RightEar
v 0.07101214 1.731827 -0.3807588
v -0.2015585 1.712362 -0.346809
v -0.2041559 1.992589 -0.4500269
v 0.07101214 2.026493 -0.4915549
v 0.06952226 2.497064 -0.6715834
v -0.207636 2.440258 -0.6182148
v -0.2487566 2.326807 -0.9251996
v 0.02199531 2.375838 -0.9939854
v -0.02150142 1.79052 -1.119116
v -0.2842035 1.771751 -1.047576
v -0.3046799 1.427862 -1.116619
v -0.04816961 1.427829 -1.189227
v 0.001826167 -0.286734 -0.1489695
v -0.2431829 -0.2045319 -0.1408232
v -0.1846086 -0.04293609 0.2964301
v 0.06952226 -0.1140658 0.3102429
v -0.2015585 1.712362 -0.346809
v -0.3046799 1.427862 -1.116619
v -0.2842035 1.771751 -1.047576
v -0.2041559 1.992589 -0.4500269
v -0.04816961 1.427829 -1.189227
v 0.07101214 1.731827 -0.3807588
v 0.07101214 2.026493 -0.4915549
v -0.02150142 1.79052 -1.119116
v 0.06952226 -0.1140658 0.3102429
v -0.1846086 -0.04293609 0.2964301
v -0.1985322 1.458606 -0.2566394
v 0.06952226 1.464838 -0.2834505
v -0.2015585 1.712362 -0.346809
v 0.07101214 1.731827 -0.3807588
v -0.1846086 -0.04293609 0.2964301
v -0.2431829 -0.2045319 -0.1408232
v -0.3217406 1.118687 -1.176401
v -0.1985322 1.458606 -0.2566394
v -0.3046799 1.427862 -1.116619
v -0.2015585 1.712362 -0.346809
v -0.07287276 1.101626 -1.249406
v -0.3217406 1.118687 -1.176401
v -0.2431829 -0.2045319 -0.1408232
v 0.001826167 -0.286734 -0.1489695
v 0.001826167 -0.286734 -0.1489695
v 0.06952226 -0.1140658 0.3102429
v 0.06952226 1.464838 -0.2834505
v -0.07287276 1.101626 -1.249406
v 0.07101214 1.731827 -0.3807588
v -0.04816961 1.427829 -1.189227
v 0.02199531 2.375838 -0.9939854
v -0.2487566 2.326807 -0.9251996
v -0.2842035 1.771751 -1.047576
v -0.02150142 1.79052 -1.119116
v -0.2041559 1.992589 -0.4500269
v -0.2842035 1.771751 -1.047576
v -0.2487566 2.326807 -0.9251996
v -0.207636 2.440258 -0.6182148
v 0.07101214 2.026493 -0.4915549
v -0.2041559 1.992589 -0.4500269
v -0.207636 2.440258 -0.6182148
v 0.06952226 2.497064 -0.6715834
v -0.02150142 1.79052 -1.119116
v 0.07101214 2.026493 -0.4915549
v 0.06952226 2.497064 -0.6715834
v 0.02199531 2.375838 -0.9939854
v -0.04816961 1.427829 -1.189227
v -0.3046799 1.427862 -1.116619
v -0.3217406 1.118687 -1.176401
v -0.07287276 1.101626 -1.249406
vt 0.8131555 0.3673678
vt 0.8131555 0.4134486
vt 0.8386437 0.4134208
vt 0.8386437 0.3673771
vt 0.80686 0.7880661
vt 0.7825308 0.7880012
vt 0.7826606 0.7801851
vt 0.8065726 0.7808063
vt 0.9141254 0.4094988
vt 0.9139677 0.3688606
vt 0.9364055 0.3688513
vt 0.9364148 0.4094895
vt 0.9342173 0.6382896
vt 0.9748741 0.6382989
vt 0.9749947 0.6660493
vt 0.9342173 0.6659751
vt 0.9022667 0.402786
vt 0.9022667 0.3756104
vt 0.856084 0.3755919
vt 0.856084 0.402786
vt 0.9658805 0.4031291
vt 0.9658805 0.3752581
vt 0.9294238 0.3752581
vt 0.9294238 0.4029159
vt 0.7824659 0.676684
vt 0.8070732 0.6766933
vt 0.8069063 0.7302194
vt 0.7824566 0.7302008
vt 0.8067673 0.7853402
vt 0.7824474 0.7856462
vt 0.7896237 0.6680056
vt 0.7917377 0.6664665
vt 0.7946769 0.7268167
vt 0.7902357 0.7300525
vt 0.7940279 0.7378594
vt 0.7903377 0.7405389
vt 0.9748185 0.7293015
vt 0.9342822 0.7292551
vt 0.9342822 0.6553775
vt 0.9748185 0.6546079
vt 0.5760759 0.472445
vt 0.5620198 0.4727046
vt 0.5625297 0.560184
vt 0.5920975 0.5596555
vt 0.5626132 0.5749725
vt 0.5871742 0.5745367
vt 0.8068415 0.7833282
vt 0.7828368 0.7840514
vt 0.7828368 0.7038597
vt 0.8068415 0.7076982
vt 0.9515927 0.693809
vt 0.9628672 0.6961455
vt 0.9569796 0.7172111
vt 0.9511384 0.7168958
vt 0.8064243 0.7432741
vt 0.7827997 0.7433853
vt 0.7827997 0.7159038
vt 0.8064243 0.7158759
vt 0.5959824 0.5429477
vt 0.5489095 0.5434855
vt 0.5492896 0.5850046
vt 0.5736651 0.5847265
vt 0.9342915 0.7405945
vt 0.9748185 0.740576
vt 0.9748185 0.7827441
vt 0.9342822 0.7827441
vn 0.09322184 0.342876 0.9347437
vn 0.09128362 0.342876 0.934935
vn 0.09903651 0.3506289 0.9312632
vn 0.09903651 0.3506289 0.9312632
vn -0.2459654 0.9185251 -0.3095362
vn -0.2459654 0.9185251 -0.3095362
vn -0.2459654 0.9185251 -0.3095362
vn -0.2459654 0.9185251 -0.3095362
vn -0.2731004 0.2149539 -0.9376625
vn -0.2711622 0.2149539 -0.9382249
vn -0.2672857 0.1994482 -0.9427506
vn -0.2672857 0.1994482 -0.9427506
vn -0.2769767 -0.887889 0.3673377
vn -0.2769767 -0.887889 0.3673377
vn -0.2769767 -0.887889 0.3673377
vn -0.2769767 -0.887889 0.3673377
vn -0.9921772 0.03276193 0.1204614
vn -0.9921772 0.03276193 0.1204614
vn -0.9921772 0.03663838 0.1193395
vn -0.9921772 0.03663838 0.1193395
vn 0.9906143 -0.05058116 -0.1269837
vn 0.9906143 -0.05058116 -0.1269837
vn 0.9906143 -0.04670477 -0.12846
vn 0.9906143 -0.04670477 -0.12846
vn 0.06608689 0.3486906 0.934905
vn 0.06608689 0.3486906 0.934905
vn 0.06996328 0.3467524 0.9353437
vn 0.06996328 0.3467524 0.9353437
vn 0.09128362 0.342876 0.934935
vn 0.09322184 0.342876 0.9347437
vn -0.9921772 0.03470016 0.1199174
vn -0.9921772 0.03470016 0.1199174
vn -0.9921772 0.03470016 0.1199174
vn -0.9921772 0.03470016 0.1199174
vn -0.9921772 0.03276193 0.1204614
vn -0.9921772 0.03276193 0.1204614
vn -0.261471 -0.4983083 -0.8266327
vn -0.261471 -0.5021847 -0.8242835
vn -0.2459654 -0.6087864 -0.7542415
vn -0.2459654 -0.6087864 -0.7542415
vn 0.9906143 -0.04864299 -0.1277387
vn 0.9906143 -0.04864299 -0.1277387
vn 0.9906143 -0.04864299 -0.1277387
vn 0.9906143 -0.04864299 -0.1277387
vn 0.9906143 -0.05058116 -0.1269837
vn 0.9906143 -0.05058116 -0.1269837
vn -0.2750386 0.2227068 -0.9352836
vn -0.2750386 0.2227068 -0.9352836
vn -0.2711622 0.2149539 -0.9382249
vn -0.2731004 0.2149539 -0.9376625
vn -0.9921772 0.03663838 0.1193395
vn -0.9921772 0.03663838 0.1193395
vn -0.9921772 0.03663838 0.1193395
vn -0.9921772 0.03663838 0.1193395
vn 0.09903651 0.3506289 0.9312632
vn 0.09903651 0.3506289 0.9312632
vn 0.1009747 0.3525671 0.9303228
vn 0.1009747 0.3525671 0.9303228
vn 0.9906143 -0.04670477 -0.12846
vn 0.9906143 -0.04670477 -0.12846
vn 0.9906143 -0.04670477 -0.12846
vn 0.9906143 -0.04670477 -0.12846
vn -0.2672857 0.1994482 -0.9427506
vn -0.2672857 0.1994482 -0.9427506
vn -0.261471 -0.5021847 -0.8242835
vn -0.261471 -0.4983083 -0.8266327
g easterSpecial_RightEar_0
f 3/3/3 2/2/2 1/1/1
f 4/4/4 3/3/3 1/1/1
f 7/7/7 6/6/6 5/5/5
f 8/8/8 7/7/7 5/5/5
f 11/11/11 10/10/10 9/9/9
f 12/12/12 11/11/11 9/9/9
f 15/15/15 14/14/14 13/13/13
f 16/16/16 15/15/15 13/13/13
f 19/19/19 18/18/18 17/17/17
f 20/20/20 19/19/19 17/17/17
f 23/23/23 22/22/22 21/21/21
f 24/24/24 23/23/23 21/21/21
f 27/27/27 26/26/26 25/25/25
f 28/28/28 27/27/27 25/25/25
f 29/29/29 27/27/27 28/28/28
f 30/30/30 29/29/29 28/28/28
f 33/33/33 32/32/32 31/31/31
f 34/34/34 33/33/33 31/31/31
f 35/35/35 33/33/33 34/34/34
f 36/36/36 35/35/35 34/34/34
f 39/39/39 38/38/38 37/37/37
f 40/40/40 39/39/39 37/37/37
f 43/43/43 42/42/42 41/41/41
f 44/44/44 43/43/43 41/41/41
f 45/45/45 43/43/43 44/44/44
f 46/46/46 45/45/45 44/44/44
f 49/49/49 48/48/48 47/47/47
f 50/50/50 49/49/49 47/47/47
f 53/53/53 52/52/52 51/51/51
f 54/54/54 53/53/53 51/51/51
f 57/57/57 56/56/56 55/55/55
f 58/58/58 57/57/57 55/55/55
f 61/61/61 60/60/60 59/59/59
f 62/62/62 61/61/61 59/59/59
f 65/65/65 64/64/64 63/63/63
f 66/66/66 65/65/65 63/63/63
