g eddy_bat
v -0.3801968 0.09755945 -0.0630064
v -0.2978854 2.145767E-06 -0.498904
v -0.3637509 0.0576632 -0.300792
v -0.4133687 2.145767E-06 -0.0630064
v -0.2060299 -0.04151845 -0.4912232
v -0.2837484 -0.1396573 -0.0630064
v -2.145767E-06 2.145767E-06 -0.7503359
v -2.145767E-06 -0.03878927 -0.5059375
v 0.2060299 -0.04151845 -0.4912232
v 0.2978854 2.145767E-06 -0.498904
v 0.4133687 2.145767E-06 -0.0630064
v 0.2837484 -0.1396573 -0.0630064
v -2.145767E-06 -0.1724374 -0.0630064
v -2.145767E-06 -0.2074192 0.300792
v -0.300792 -0.1374846 0.300792
v 0.300792 -0.1374846 0.300792
v 0.3801967 0.09755945 -0.06306815
v 0.3637509 0.0576632 -0.301365
v -0.300792 -0.1374846 0.300792
v -0.4133687 2.145767E-06 -0.0630064
v -0.3807697 0.09165549 0.300792
v -0.2053702 2.145767E-06 0.5475364
v -2.145767E-06 -0.1212285 0.5475364
v -2.145767E-06 2.145767E-06 0.6121073
v 0.205366 2.145767E-06 0.5475364
v 0.300792 -0.1374846 0.300792
v 0.4133687 2.145767E-06 -0.0630064
v 0.3860304 0.06874108 0.300792
v 0.300792 -0.1374846 0.300792
v 0.3860304 0.06874108 0.300792
v -0.300792 -0.1374846 0.300792
v -0.3807697 0.09165549 0.300792
v -0.2053702 2.145767E-06 0.5475364
v 0.5577402 0.04282546 -0.3267201
v 0.2978854 2.145767E-06 -0.498904
v 0.3637509 0.04651523 -0.301365
v 0.3801967 0.08640742 -0.06306815
v 0.3860304 0.06874108 0.300792
v 0.5752414 0.08867908 0.1744039
v 0.7445228 0.09350681 0.1663275
v 0.86927 0.053895 -0.4264873
v 0.9590435 0.09485483 0.3292475
v 1.406567 0.0369792 -0.7591958
v 1.181167 0.1268394 0.5787292
v 1.539952 0.1107275 0.7771587
v 1.941428 0.09429836 0.3910809
v 2.161523 0.05934119 -0.3611083
v 2.016125 0.01439476 -1.200758
v 0.5577402 0.05397344 -0.3267201
v 0.3637509 0.0576632 -0.301365
v 0.2978854 2.145767E-06 -0.498904
v 0.3801967 0.09755945 -0.06306815
v 0.3860304 0.06874108 0.300792
v 0.5752414 0.08867908 0.1744039
v 0.7445228 0.09350681 0.1663275
v 0.8692576 0.06504726 -0.4264873
v 0.9590435 0.09485483 0.3292475
v 1.406567 0.04813147 -0.7591958
v 1.181167 0.1268394 0.5787292
v 1.539952 0.1107275 0.7771587
v 1.941428 0.09429836 0.3910809
v 2.161523 0.05934119 -0.3611083
v 2.016125 0.01439476 -1.200758
v -0.5577402 0.04282546 -0.3267201
v -0.3637509 0.04651523 -0.301365
v -0.2978854 2.145767E-06 -0.498904
v -0.3801968 0.08640742 -0.06306815
v -0.3807697 0.09165549 0.300792
v -0.5752413 0.08867908 0.1744039
v -0.7445228 0.09350681 0.1663275
v -0.8692698 0.053895 -0.4264873
v -0.9590435 0.09485483 0.3292475
v -1.406571 0.0369792 -0.7591958
v -1.181167 0.1268394 0.5787292
v -1.539952 0.1107275 0.7771587
v -1.941428 0.09429836 0.3910809
v -2.161523 0.05934119 -0.3611083
v -2.016125 0.01439476 -1.200758
v -2.145767E-06 0.1680508 0.4250567
v -0.2053702 2.145767E-06 0.5475364
v -0.2174375 0.152916 0.3560703
v -2.145767E-06 2.145767E-06 0.6121073
v 0.205366 2.145767E-06 0.5475364
v 0.2174376 0.152916 0.3560703
v 0.3860304 0.06874108 0.300792
v -0.3807697 0.09165549 0.300792
v -0.3704009 0.1374846 0.300792
v -0.2174375 0.152916 0.3560703
v -0.2053702 2.145767E-06 0.5475364
v -2.145767E-06 0.1680508 0.4250567
v -0.2174375 0.152916 0.3560703
v -0.3075616 0.4103878 0.4143004
v -0.3704009 0.1374846 0.300792
v -0.3704009 0.1374846 0.300792
v -0.1852014 0.1724539 0.300792
v -0.3075616 0.4103878 0.4143004
v -2.145767E-06 0.1680508 0.4250567
v 0.3075616 0.4103878 0.4143004
v 0.1852015 0.1724539 0.300792
v 0.3860304 0.06874108 0.300792
v -0.3801968 0.09755945 -0.0630064
v -0.4133687 2.145767E-06 -0.0630064
v -0.2978854 2.145767E-06 -0.498904
v -0.3807697 0.09165549 0.300792
v -0.3704009 0.1374846 0.300792
v -0.1852014 0.1724539 0.300792
v -2.145767E-06 0.2370043 -0.06301045
v -2.145767E-06 0.1382473 -0.5042554
v -0.3637509 0.0576632 -0.300792
v -0.2978854 2.145767E-06 -0.498904
v -2.145767E-06 2.145767E-06 -0.7503359
v 0.2978854 2.145767E-06 -0.498904
v 0.3637509 0.0576632 -0.301365
v 0.3801967 0.09755945 -0.06306815
v -2.145767E-06 0.2074192 0.300792
v -2.145767E-06 0.1680508 0.4250567
v 0.1852015 0.1724539 0.300792
v 0.3860304 0.06874108 0.300792
v 0.3860304 0.06874108 0.300792
v 0.4133687 2.145767E-06 -0.0630064
v 0.2978854 2.145767E-06 -0.498904
v -2.145767E-06 0.1680508 0.4250567
v 0.3075616 0.4103878 0.4143004
v 0.2174376 0.152916 0.3560703
v 0.3860304 0.06874108 0.300792
v -0.5577402 0.05397344 -0.3267201
v -0.2978854 2.145767E-06 -0.498904
v -0.3637509 0.0576632 -0.301365
v -0.3801968 0.09755945 -0.06306815
v -0.3807697 0.09165549 0.300792
v -0.5752413 0.08867908 0.1744039
v -0.7445228 0.09350681 0.1663275
v -0.8692575 0.06504726 -0.4264873
v -0.9590435 0.09485483 0.3292475
v -1.406571 0.04813147 -0.7591958
v -1.181167 0.1268394 0.5787292
v -1.539952 0.1107275 0.7771587
v -1.941428 0.09429836 0.3910809
v -2.161523 0.05934119 -0.3611083
v -2.016125 0.01439476 -1.200758
vt 0.03842416 0.07095723
vt 0.03461293 0.0522951
vt 0.03926582 0.06018078
vt 0.03130876 0.06994754
vt 0.01521175 0.02970278
vt 0.02005498 0.06857353
vt 0.05317542 0.02270634
vt 0.01422437 0.01809211
vt 0.01521175 0.02970278
vt 0.03461293 0.0522951
vt 0.03130876 0.06994754
vt 0.02005498 0.06857353
vt 0.007437603 0.06549688
vt 0.005153537 0.08736057
vt 0.01903043 0.08495308
vt 0.01903043 0.08495308
vt 0.03842416 0.07095723
vt 0.03926582 0.06018078
vt 0.01903043 0.08495308
vt 0.03130876 0.06994754
vt 0.02871242 0.08496498
vt 0.05464906 0.06867763
vt 0.01390615 0.1026055
vt 0.05444534 0.07736035
vt 0.05464906 0.06867763
vt 0.01903043 0.08495308
vt 0.03130876 0.06994754
vt 0.03294598 0.08575607
vt 0.01903043 0.08495308
vt 0.03294598 0.08575607
vt 0.01903043 0.08495308
vt 0.02871242 0.08496498
vt 0.05464906 0.06867763
vt 0.03922121 0.03418615
vt 0.01589876 0.01772779
vt 0.01739173 0.01504967
vt 0.01955534 0.01469278
vt 0.02656368 0.008621272
vt 0.06790438 0.05965289
vt 0.06778244 0.0623102
vt 0.04461018 0.05321408
vt 0.07105835 0.0657125
vt 0.0552513 0.06723373
vt 0.07428964 0.06934083
vt 0.07736927 0.07388369
vt 0.07576626 0.07913139
vt 0.07041447 0.08402369
vt 0.05231443 0.09309898
vt 0.02149442 0.04656115
vt 0.02073604 0.04046882
vt 0.01924307 0.04314546
vt 0.02289966 0.04011193
vt 0.02990799 0.03403894
vt 0.03011171 0.05965289
vt 0.02998829 0.0623102
vt 0.01718503 0.05221035
vt 0.0332642 0.0657125
vt 0.01745864 0.06723373
vt 0.0364955 0.06934083
vt 0.0395766 0.07388369
vt 0.03797211 0.07913139
vt 0.03262032 0.08402369
vt 0.01452029 0.09309898
vt 0.03922121 0.03418615
vt 0.01739173 0.01504967
vt 0.01589876 0.01772779
vt 0.01955534 0.01469278
vt 0.02656368 0.008621272
vt 0.06790438 0.05965289
vt 0.06778244 0.0623102
vt 0.04461018 0.05321408
vt 0.07105835 0.0657125
vt 0.0552513 0.06723373
vt 0.07428964 0.06934083
vt 0.07736927 0.07388369
vt 0.07576626 0.07913139
vt 0.07041447 0.08402369
vt 0.05231443 0.09309898
vt 0.07374242 0.07104645
vt 0.05464906 0.06867763
vt 0.06558016 0.06409165
vt 0.05444534 0.07736035
vt 0.05464906 0.06867763
vt 0.06558016 0.06409165
vt 0.03294598 0.08575607
vt 0.02871242 0.08496498
vt 0.03717804 0.08654717
vt 0.06558016 0.06409165
vt 0.05464906 0.06867763
vt 0.07374242 0.07104645
vt 0.06558016 0.06409165
vt 0.08762823 0.02929534
vt 0.03717804 0.08654717
vt 0.03717804 0.08654717
vt 0.04603921 0.0887896
vt 0.08762823 0.02929534
vt 0.07374242 0.07104645
vt 0.08762823 0.02929534
vt 0.04603921 0.0887896
vt 0.03294598 0.08575607
vt 0.03842416 0.07095723
vt 0.03130876 0.06994754
vt 0.03461293 0.0522951
vt 0.02871242 0.08496498
vt 0.03717804 0.08654717
vt 0.04603921 0.0887896
vt 0.05930046 0.0730346
vt 0.05156646 0.04716934
vt 0.03926582 0.06018078
vt 0.03461293 0.0522951
vt 0.05317542 0.02270634
vt 0.03461293 0.0522951
vt 0.03926582 0.06018078
vt 0.03842416 0.07095723
vt 0.05221778 0.09376814
vt 0.07374242 0.07104645
vt 0.04603921 0.0887896
vt 0.03294598 0.08575607
vt 0.03294598 0.08575607
vt 0.03130876 0.06994754
vt 0.03461293 0.0522951
vt 0.07374242 0.07104645
vt 0.08762823 0.02929534
vt 0.06558016 0.06409165
vt 0.03294598 0.08575607
vt 0.02149442 0.04656115
vt 0.01924307 0.04314546
vt 0.02073604 0.04046882
vt 0.02289966 0.04011193
vt 0.02990799 0.03403894
vt 0.03011171 0.05965289
vt 0.02998829 0.0623102
vt 0.01718503 0.05221035
vt 0.0332642 0.0657125
vt 0.01745864 0.06723373
vt 0.0364955 0.06934083
vt 0.0395766 0.07388369
vt 0.03797211 0.07913139
vt 0.03262032 0.08402369
vt 0.01452029 0.09309898
vn -0.4523507 0.8820984 -0.1314579
vn -0.7492673 0.3527274 -0.5605193
vn -0.380075 0.8918655 -0.2451917
vn -0.9016324 -0.4266786 -0.07074151
vn -0.2511507 -0.9306554 -0.2660899
vn -0.4035158 -0.9072146 -0.1188975
vn 0.0008376837 -0.9794904 -0.2014891
vn 0.0008376837 -0.9697234 -0.2442045
vn 0.2508727 -0.9306554 -0.2663519
vn 0.7509428 0.3527274 -0.5582727
vn 0.8818205 -0.4637932 -0.08537289
vn 0.3915174 -0.9111214 -0.1287318
vn 0.0008376837 -0.987304 -0.1588401
vn 0.0008376837 -0.987304 0.1588401
vn -0.52658 -0.8329855 0.1698489
vn 0.5067679 -0.8466593 0.1623399
vn 0.4540262 0.8840519 -0.1109616
vn 0.379797 0.8918655 -0.245622
vn -0.52658 -0.8329855 0.1698489
vn -0.9016324 -0.4266786 -0.07074151
vn -0.9543742 -0.1082746 0.2782921
vn -0.52658 -0.16883 0.8331926
vn 0.0008376837 -0.8525195 0.5226947
vn 0.0008376837 0.5676013 0.8233031
vn 0.5223951 -0.1649232 0.8366024
vn 0.5067679 -0.8466593 0.1623399
vn 0.8818205 -0.4637932 -0.08537289
vn 0.8661933 0.4972789 0.0492225
vn 0.5067679 -0.8466593 0.1623399
vn 0.8661933 0.4972789 0.0492225
vn -0.52658 -0.8329855 0.1698489
vn -0.9543742 -0.1082746 0.2782921
vn -0.52658 -0.16883 0.8331926
vn 0.03404546 -0.9951176 0.09263842
vn 0.01060468 -0.9736302 0.2278855
vn 0.006697893 -0.9814438 0.1916328
vn -0.02650988 -0.9990244 0.03531948
vn -0.02846324 -0.9990244 0.03376563
vn 0.01451147 -0.9990244 0.04170948
vn 0.01646489 -0.997071 0.07468868
vn 0.02818531 -0.997071 0.07109901
vn 0.0223251 -0.997071 0.07315098
vn 0.00474447 -0.9990244 0.04390596
vn -0.03237009 -0.997071 0.0692938
vn -0.03237009 -0.9990244 0.03004021
vn 0.00474447 -0.9990244 0.04390596
vn 0.002791107 -0.9990244 0.0440733
vn 0.0008376837 -0.9990244 0.04415369
vn -0.02650988 0.997349 -0.06776519
vn -0.01088274 0.9758615 -0.2181188
vn -0.01674294 0.9621878 -0.271872
vn 0.05159332 0.9986682 0
vn 0.05548603 0.9984595 0
vn 0.0008376837 0.9993024 -0.03733676
vn -0.01869631 0.9993024 -0.03232905
vn -0.02650988 0.997349 -0.06776519
vn -0.02260303 0.9993024 -0.02973007
vn 0.002791107 0.9993024 -0.03724165
vn 0.03013867 0.997349 -0.06623144
vn 0.03404546 0.9993024 -0.01535177
vn 0.002791107 0.9993024 -0.03724165
vn 0.01060468 0.9993024 -0.03580886
vn 0.01451147 0.997349 -0.07130453
vn -0.02846324 -0.9951176 0.09450293
vn -0.006975889 -0.9814438 0.191623
vn -0.01088274 -0.9736302 0.2278724
vn 0.05748624 -0.9951176 0.08022648
vn 0.06139308 -0.997071 0.04561119
vn 0.0008376837 -0.997071 0.07647722
vn -0.01674294 -0.997071 0.0746268
vn -0.02846324 -0.997071 0.07098827
vn -0.02260303 -0.997071 0.07306579
vn -0.005022526 -0.9990244 0.0438754
vn 0.03209209 -0.997071 0.06942314
vn 0.03209209 -0.9990244 0.03033736
vn -0.005022526 -0.9990244 0.0438754
vn -0.003069043 -0.9990244 0.04405504
vn -0.00111568 -0.9990244 0.04414762
vn 0.0008376837 0.7590344 0.65105
vn -0.52658 -0.16883 0.8331926
vn -0.3175663 0.6965256 0.6434313
vn 0.0008376837 0.5676013 0.8233031
vn 0.5223951 -0.1649232 0.8366024
vn 0.3290086 0.718013 0.61336
vn 0.8661933 0.4972789 0.0492225
vn -0.9543742 -0.1082746 0.2782921
vn -0.4577761 0.8890675 0
vn -0.3175663 0.6965256 0.6434313
vn -0.52658 -0.16883 0.8331926
vn -0.2687314 -0.3016611 0.914759
vn -0.2784983 -0.3036145 0.9111844
vn -0.2804517 -0.3036145 0.910585
vn -0.2960789 -0.3075213 0.9043052
vn -0.4577761 0.8890675 0
vn -0.1612943 0.9602344 -0.2278903
vn 0.2235252 0.5109527 -0.8300385
vn 0.0008376837 0.8801451 -0.4747041
vn -0.1339468 0.4816518 -0.8660657
vn 0.2508727 0.9407004 -0.2283541
vn 0.8661933 0.4972789 0.0492225
vn -0.4523507 0.8820984 -0.1314579
vn -0.9016324 -0.4266786 -0.07074151
vn -0.7492673 0.3527274 -0.5605193
vn -0.9543742 -0.1082746 0.2782921
vn -0.4577761 0.8890675 0
vn -0.1612943 0.9602344 -0.2278903
vn 0.02037168 0.9914888 -0.1285882
vn 0.0008376837 0.9426538 -0.3337711
vn -0.380075 0.8918655 -0.2451917
vn -0.7492673 0.3527274 -0.5605193
vn -0.00111568 0.8899121 -0.4561306
vn 0.7509428 0.3527274 -0.5582727
vn 0.379797 0.8918655 -0.245622
vn 0.4540262 0.8840519 -0.1109616
vn 0.0008376837 0.9895355 0.1442875
vn 0.0008376837 0.8801451 -0.4747041
vn 0.2508727 0.9407004 -0.2283541
vn 0.8661933 0.4972789 0.0492225
vn 0.8661933 0.4972789 0.0492225
vn 0.8818205 -0.4637932 -0.08537289
vn 0.7509428 0.3527274 -0.5582727
vn 0.2684533 -0.3016611 0.9148406
vn 0.227432 -0.2899407 0.9296285
vn 0.2254785 -0.2899407 0.9301042
vn 0.1727368 -0.2743135 0.945999
vn 0.02037168 0.997349 -0.06985623
vn 0.01841831 0.9621878 -0.2717637
vn 0.01060468 0.9758615 -0.2181325
vn -0.08120501 0.9953955 -0.050926
vn -0.08706522 0.9953955 -0.04009188
vn -0.01478946 0.9993024 -0.03429285
vn 0.01841831 0.9993024 -0.03248905
vn 0.02818531 0.997349 -0.06708582
vn 0.0223251 0.9993024 -0.02993885
vn -0.003069043 0.9993024 -0.03722004
vn -0.03041673 0.997349 -0.06610398
vn -0.03432345 0.9993024 -0.01471947
vn -0.003069043 0.9993024 -0.03722004
vn -0.01088274 0.9993024 -0.03572554
vn -0.01478946 0.997349 -0.07124724
g eddy_bat_0
f 3/3/3 2/2/2 1/1/1
f 2/2/2 5/5/5 4/4/4
f 5/5/5 6/6/6 4/4/4
f 2/2/2 7/7/7 5/5/5
f 5/5/5 7/7/7 8/8/8
f 5/5/5 8/8/8 6/6/6
f 7/7/7 9/9/9 8/8/8
f 7/7/7 10/10/10 9/9/9
f 9/9/9 10/10/10 11/11/11
f 12/12/12 9/9/9 11/11/11
f 8/8/8 9/9/9 12/12/12
f 8/8/8 13/13/13 6/6/6
f 13/13/13 8/8/8 12/12/12
f 6/6/6 13/13/13 14/14/14
f 13/13/13 12/12/12 14/14/14
f 15/15/15 6/6/6 14/14/14
f 12/12/12 16/16/16 14/14/14
f 10/10/10 18/18/18 17/17/17
f 20/20/20 6/6/6 19/19/19
f 21/21/21 20/20/20 19/19/19
f 22/22/22 19/19/19 14/14/14
f 23/23/23 22/22/22 14/14/14
f 23/23/23 24/24/24 22/22/22
f 24/24/24 23/23/23 25/25/25
f 25/25/25 23/23/23 14/14/14
f 26/26/26 25/25/25 14/14/14
f 12/12/12 27/27/27 26/26/26
f 27/27/27 28/28/28 26/26/26
f 30/30/30 25/25/25 29/29/29
f 33/33/33 32/32/32 31/31/31
f 36/36/36 35/35/35 34/34/34
f 37/37/37 36/36/36 34/34/34
f 38/38/38 37/37/37 34/34/34
f 39/39/39 38/38/38 34/34/34
f 40/40/40 39/39/39 34/34/34
f 41/41/41 40/40/40 34/34/34
f 41/41/41 42/42/42 40/40/40
f 41/41/41 43/43/43 42/42/42
f 43/43/43 44/44/44 42/42/42
f 43/43/43 45/45/45 44/44/44
f 43/43/43 46/46/46 45/45/45
f 43/43/43 47/47/47 46/46/46
f 43/43/43 48/48/48 47/47/47
f 51/51/51 50/50/50 49/49/49
f 50/50/50 52/52/52 49/49/49
f 52/52/52 53/53/53 49/49/49
f 53/53/53 54/54/54 49/49/49
f 54/54/54 55/55/55 49/49/49
f 55/55/55 56/56/56 49/49/49
f 57/57/57 56/56/56 55/55/55
f 58/58/58 56/56/56 57/57/57
f 59/59/59 58/58/58 57/57/57
f 60/60/60 58/58/58 59/59/59
f 61/61/61 58/58/58 60/60/60
f 62/62/62 58/58/58 61/61/61
f 63/63/63 58/58/58 62/62/62
f 66/66/66 65/65/65 64/64/64
f 65/65/65 67/67/67 64/64/64
f 67/67/67 68/68/68 64/64/64
f 68/68/68 69/69/69 64/64/64
f 69/69/69 70/70/70 64/64/64
f 70/70/70 71/71/71 64/64/64
f 72/72/72 71/71/71 70/70/70
f 73/73/73 71/71/71 72/72/72
f 74/74/74 73/73/73 72/72/72
f 75/75/75 73/73/73 74/74/74
f 76/76/76 73/73/73 75/75/75
f 77/77/77 73/73/73 76/76/76
f 78/78/78 73/73/73 77/77/77
f 81/81/81 80/80/80 79/79/79
f 80/80/80 82/82/82 79/79/79
f 82/82/82 83/83/83 79/79/79
f 83/83/83 84/84/84 79/79/79
f 84/84/84 83/83/83 85/85/85
f 88/88/88 87/87/87 86/86/86
f 89/89/89 88/88/88 86/86/86
f 92/92/92 91/91/91 90/90/90
f 92/92/92 93/93/93 91/91/91
f 96/96/96 95/95/95 94/94/94
f 97/97/97 95/95/95 96/96/96
f 99/99/99 97/97/97 98/98/98
f 99/99/99 98/98/98 100/100/100
f 103/103/103 102/102/102 101/101/101
f 101/101/101 102/102/102 104/104/104
f 105/105/105 101/101/101 104/104/104
f 105/105/105 106/106/106 101/101/101
f 106/106/106 107/107/107 101/101/101
f 101/101/101 107/107/107 108/108/108
f 109/109/109 101/101/101 108/108/108
f 109/109/109 108/108/108 110/110/110
f 108/108/108 111/111/111 110/110/110
f 111/111/111 108/108/108 112/112/112
f 108/108/108 113/113/113 112/112/112
f 114/114/114 113/113/113 108/108/108
f 107/107/107 114/114/114 108/108/108
f 115/115/115 107/107/107 106/106/106
f 115/115/115 106/106/106 116/116/116
f 117/117/117 115/115/115 116/116/116
f 107/107/107 115/115/115 117/117/117
f 107/107/107 117/117/117 114/114/114
f 117/117/117 118/118/118 114/114/114
f 120/120/120 114/114/114 119/119/119
f 120/120/120 121/121/121 114/114/114
f 124/124/124 123/123/123 122/122/122
f 125/125/125 123/123/123 124/124/124
f 128/128/128 127/127/127 126/126/126
f 129/129/129 128/128/128 126/126/126
f 130/130/130 129/129/129 126/126/126
f 131/131/131 130/130/130 126/126/126
f 132/132/132 131/131/131 126/126/126
f 133/133/133 132/132/132 126/126/126
f 133/133/133 134/134/134 132/132/132
f 133/133/133 135/135/135 134/134/134
f 135/135/135 136/136/136 134/134/134
f 135/135/135 137/137/137 136/136/136
f 135/135/135 138/138/138 137/137/137
f 135/135/135 139/139/139 138/138/138
f 135/135/135 140/140/140 139/139/139
