g fireball_geo
v -0.4649434 0.2351856 -5.145691
v -0.2912807 0.07509375 -6.680151
v -0.2012253 0.4148259 -5.070873
v -0.2012253 0.4148259 -5.070873
v -0.2912807 0.07509375 -6.680151
v 0.06430435 0.2197089 -5.146452
v 0.06430435 0.2197089 -5.146452
v -0.2912807 0.07509375 -6.680151
v 0.04159689 -0.004897594 -5.234283
v 0.04159689 -0.004897594 -5.234283
v -0.2912807 0.07509375 -6.680151
v -0.2209406 -0.1372967 -5.275627
v -0.2209406 -0.1372967 -5.275627
v -0.2912807 0.07509375 -6.680151
v -0.4655957 0.06912327 -5.204395
v -0.4655957 0.06912327 -5.204395
v -0.2912807 0.07509375 -6.680151
v -0.4649434 0.2351856 -5.145691
v 0.3355145 -0.08414268 -3.011295
v -0.02542496 0.007071972 -3.088113
v 0.004962921 -0.3224435 -3.015874
v 0.004962921 -0.3224435 -3.015874
v -0.02542496 0.007071972 -3.088113
v -0.37391 -0.1285872 -3.003253
v -0.37391 -0.1285872 -3.003253
v -0.02542496 0.007071972 -3.088113
v -0.3674755 0.1389856 -2.990051
v -0.3674755 0.1389856 -2.990051
v -0.02542496 0.007071972 -3.088113
v -0.04148149 0.3276105 -2.969075
v -0.04148149 0.3276105 -2.969075
v -0.02542496 0.007071972 -3.088113
v 0.3115606 0.1178718 -2.994116
v 0.3115606 0.1178718 -2.994116
v -0.02542496 0.007071972 -3.088113
v 0.3355145 -0.08414268 -3.011295
v -0.8434467 -0.189291 -4.496978
v -0.6494384 0.04159737 -4.499434
v -0.4806304 -0.1615257 -5.156878
v -0.689043 -0.2231135 -3.991763
v -0.5646648 -0.1230807 -4.027107
v -0.4072108 -0.1300001 -4.626456
v -0.4806304 -0.1615257 -5.156878
v -0.5381532 -0.3445573 -4.099085
v -0.5363131 -0.225657 -3.930306
v -0.4987297 -0.2043762 -4.082275
v -0.5873218 -0.3759379 -4.662721
v -0.4806304 -0.1615257 -5.156878
v -0.4806304 -0.1615257 -5.156878
v 0.3722863 0.1959648 -5.237899
v 0.4639211 0.432353 -5.231414
v 0.2674642 0.4128475 -5.285422
v 0.2632179 0.3956103 -5.033319
v 0.1086984 0.2678995 -5.234211
v 0.2674642 0.4128475 -5.285422
v 0.4148397 0.5315018 -5.222487
v 0.2674642 0.4128475 -5.285422
v 0.05495739 0.4105654 -5.226241
v 0.2674642 0.4128475 -5.285422
v 0.1777272 0.622231 -5.212851
v 0.2674642 0.4128475 -5.285422
v 0.2674642 0.4128475 -5.285422
v 0.3563166 0.09812021 -5.186433
v 0.4714785 0.3951974 -5.178282
v 0.2245846 0.3706784 -5.246159
v 0.2192445 0.3490138 -4.92933
v 0.02504778 0.1885166 -5.181796
v 0.2245846 0.3706784 -5.246159
v 0.4097967 0.519793 -5.167058
v 0.2245846 0.3706784 -5.246159
v -0.04248857 0.3678088 -5.171775
v 0.2245846 0.3706784 -5.246159
v 0.1117992 0.6338096 -5.154951
v 0.2245846 0.3706784 -5.246159
v 0.2245846 0.3706784 -5.246159
v -0.4649434 0.2351856 -5.145691
v -0.2012253 0.4148259 -5.070873
v -0.1269798 0.9174099 -3.355541
v 0.06430435 0.2197089 -5.146452
v 0.5437751 0.5093665 -3.527595
v 0.04159689 -0.004897594 -5.234283
v 0.4767532 0.05001688 -3.603428
v -0.2209406 -0.1372967 -5.275627
v -0.15481 -0.232265 -3.652104
v -0.4655957 0.06912327 -5.204395
v -0.6967449 0.163106 -3.485462
v -0.7273579 0.5805688 -3.546253
v -0.1002579 0.7687879 -1.824102
v 0.836628 0.2788401 -1.84668
v 0.686079 -0.1996017 -1.940866
v 0.05810213 -0.768918 -2.0153
v -0.1037283 0.02831602 -1.742351
v -0.6312809 -0.3026776 -1.945938
v -0.8064075 0.2787533 -1.800706
v 0.3355145 -0.08414268 -3.011295
v 0.004962921 -0.3224435 -3.015874
v 0.05810213 -0.768918 -2.0153
v -0.37391 -0.1285872 -3.003253
v -0.6312809 -0.3026776 -1.945938
v -0.3674755 0.1389856 -2.990051
v -0.8064508 0.2708049 -1.800706
v -0.04148149 0.3276105 -2.969075
v 0.002289295 0.8354115 -1.767761
v 0.3115606 0.1178718 -2.994116
v 0.836628 0.2788401 -1.84668
v 0.685905 -0.1996017 -1.941518
v 0.03167009 -0.6178398 -0.8011103
v -0.5306106 -0.3602223 -0.7412829
v -0.7218437 0.318068 -0.6449237
v -0.009108067 0.71804 -0.4813833
v 0.648684 0.291759 -0.6203976
v 0.5435433 -0.2186794 -0.733726
v 0.05785561 -0.3407822 0.1022215
v 0.3245592 0.04365492 0.09965658
v -0.4485035 0.04023504 0.09972906
v 0.006926537 0.4285488 0.09337425
v 0.01699781 0.04651737 0.4962444
v 0.6172237 -0.3578744 -2.103326
v 0.5827637 -0.3840604 -2.307979
v 0.6740947 -0.3028078 -2.227806
v 0.6580744 -0.4433584 -2.231987
v 0.6546254 -0.3973413 -2.4863
v 0.7412395 -0.3738079 -2.233689
v 0.4898896 -0.3992977 -2.585522
v 0.5620995 -0.3742642 -2.175529
v 0.3535995 -0.4289975 -2.336143
v 0.5728011 -0.5431304 -2.327766
v 0.5096917 -0.4929833 -1.818299
v 0.3893495 -0.5973201 -2.324354
v 0.633925 0.4224119 -0.95784
v 0.5904078 0.3893356 -1.21632
v 0.7057505 0.4919553 -1.115062
v 0.6855206 0.3144379 -1.120337
v 0.6811662 0.3725548 -1.441542
v 0.7905602 0.4022837 -1.122489
v -0.6637702 0.4539084 -2.250565
v -0.6161594 0.4183326 -1.931685
v -0.7423563 0.5287123 -2.056607
v -0.720221 0.3377762 -2.050093
v -0.7154603 0.4002838 -1.653845
v -0.8351436 0.4322586 -2.047441
vt 0.06569311 0.7210762
vt 0.04106148 0.7144843
vt 0.06592369 0.7197334
vt 0.06592369 0.7197334
vt 0.04106148 0.7144843
vt 0.06694096 0.7184584
vt 0.06694096 0.7184584
vt 0.04106148 0.7144843
vt 0.06744282 0.7186212
vt 0.06744282 0.7186212
vt 0.04106148 0.7144843
vt 0.06760558 0.7200589
vt 0.06760558 0.7200589
vt 0.04106148 0.7144843
vt 0.06630348 0.7211711
vt 0.06630348 0.7211711
vt 0.04106148 0.7144843
vt 0.06569311 0.7210762
vt 0.1491368 0.7385733
vt 0.1337014 0.7339074
vt 0.1495302 0.7372577
vt 0.1495302 0.7372577
vt 0.1337014 0.7339074
vt 0.1504389 0.7359555
vt 0.1504389 0.7359555
vt 0.1337014 0.7339074
vt 0.1507373 0.7360912
vt 0.1507373 0.7360912
vt 0.1337014 0.7339074
vt 0.1506017 0.7374611
vt 0.1506017 0.7374611
vt 0.1337014 0.7339074
vt 0.1495437 0.738614
vt 0.1495437 0.738614
vt 0.1337014 0.7339074
vt 0.1491368 0.7385733
vt 0.06904334 0.720493
vt 0.06850079 0.7228531
vt 0.0470295 0.7157457
vt 0.07250208 0.7211711
vt 0.07205448 0.7220392
vt 0.07053534 0.7206829
vt 0.0470295 0.7157457
vt 0.07338371 0.7195299
vt 0.06966726 0.7204116
vt 0.07259702 0.7210084
vt 0.070888 0.7179294
vt 0.0470295 0.7157457
vt 0.0470295 0.7157457
vt 0.2380874 0.9248025
vt 0.2376127 0.9205029
vt 0.2721322 0.9254943
vt 0.2342624 0.9252637
vt 0.2377754 0.9299567
vt 0.2721322 0.9254943
vt 0.2369209 0.920625
vt 0.2721322 0.9254943
vt 0.2371651 0.9297668
vt 0.2721322 0.9254943
vt 0.2361749 0.925006
vt 0.2721322 0.9254943
vt 0.2721322 0.9254943
vt 0.2472293 0.8919378
vt 0.2467546 0.8876246
vt 0.2812877 0.892616
vt 0.2434179 0.8923854
vt 0.2469309 0.8970784
vt 0.2812877 0.892616
vt 0.2460764 0.8877466
vt 0.2812877 0.892616
vt 0.2463205 0.8968885
vt 0.2812877 0.892616
vt 0.2453168 0.8921277
vt 0.2812877 0.892616
vt 0.2812877 0.892616
vt 0.06569311 0.7210762
vt 0.06592369 0.7197334
vt 0.1391947 0.735196
vt 0.06694096 0.7184584
vt 0.1415547 0.7326867
vt 0.06744282 0.7186212
vt 0.143535 0.7332021
vt 0.06760558 0.7200589
vt 0.1456103 0.7364167
vt 0.06630348 0.7211711
vt 0.1419481 0.7382071
vt 0.1396423 0.7378138
vt 0.1503169 0.7375425
vt 0.1515647 0.735196
vt 0.1515376 0.7352638
vt 0.1504118 0.7374068
vt 0.1520123 0.7375968
vt 0.1494352 0.739238
vt 0.1493945 0.7393058
vt 0.1491368 0.7385733
vt 0.1495302 0.7372577
vt 0.1540333 0.7383156
vt 0.1504389 0.7359555
vt 0.1586043 0.7362539
vt 0.1507373 0.7360912
vt 0.1573022 0.7360912
vt 0.1506017 0.7374611
vt 0.1581431 0.7390481
vt 0.1495437 0.738614
vt 0.1553761 0.7410284
vt 0.1564341 0.7413267
vt 0.1706081 0.7418015
vt 0.1718424 0.739455
vt 0.1718153 0.7395092
vt 0.1706895 0.7416523
vt 0.1697129 0.743497
vt 0.1696722 0.7435512
vt 0.1732666 0.7422898
vt 0.1728326 0.7431714
vt 0.1741347 0.7406486
vt 0.1733615 0.742127
vt 0.1555931 0.7384377
vt 0.2754824 0.870046
vt 0.2730817 0.8841251
vt 0.2748314 0.8794592
vt 0.2743973 0.8795542
vt 0.2740447 0.9129479
vt 0.2769202 0.8808427
vt 0.2754824 0.870046
vt 0.2730817 0.8841251
vt 0.2748314 0.8794592
vt 0.2743973 0.8795542
vt 0.2740447 0.9129479
vt 0.2769202 0.8808427
vt 0.2754824 0.870046
vt 0.2730817 0.8841251
vt 0.2748314 0.8794592
vt 0.2743973 0.8795542
vt 0.2740447 0.9129479
vt 0.2769202 0.8808427
vt 0.2754824 0.870046
vt 0.2730817 0.8841251
vt 0.2748314 0.8794592
vt 0.2743973 0.8795542
vt 0.2740447 0.9129479
vt 0.2769202 0.8808427
vn -0.5289204 0.8372146 -0.1389782
vn -0.5289204 0.8372146 -0.1389782
vn -0.5289204 0.8372146 -0.1389782
vn 0.5423042 0.8157511 -0.2011378
vn 0.5423042 0.8157511 -0.2011378
vn 0.5423042 0.8157511 -0.2011378
vn 0.9735258 -0.0096187 -0.2283748
vn 0.9735258 -0.0096187 -0.2283748
vn 0.9735258 -0.0096187 -0.2283748
vn 0.464255 -0.8720618 -0.15484
vn 0.464255 -0.8720618 -0.15484
vn 0.464255 -0.8720618 -0.15484
vn -0.6557503 -0.7510856 -0.07656329
vn -0.6557503 -0.7510856 -0.07656329
vn -0.6557503 -0.7510856 -0.07656329
vn -0.9913616 0.04501569 -0.1231898
vn -0.9913616 0.04501569 -0.1231898
vn -0.9913616 0.04501569 -0.1231898
vn 0.1559609 -0.1969367 -0.9679319
vn 0.1559609 -0.1969367 -0.9679319
vn 0.1559609 -0.1969367 -0.9679319
vn -0.1464796 -0.2242539 -0.9634593
vn -0.1464796 -0.2242539 -0.9634593
vn -0.1464796 -0.2242539 -0.9634593
vn -0.2557484 0.05282056 -0.9652993
vn -0.2557484 0.05282056 -0.9652993
vn -0.2557484 0.05282056 -0.9652993
vn -0.1367234 0.3396512 -0.930561
vn -0.1367234 0.3396512 -0.930561
vn -0.1367234 0.3396512 -0.930561
vn 0.1423023 0.3513587 -0.9253632
vn 0.1423023 0.3513587 -0.9253632
vn 0.1423023 0.3513587 -0.9253632
vn 0.23401 0.1094062 -0.9660588
vn 0.23401 0.1094062 -0.9660588
vn 0.23401 0.1094062 -0.9660588
vn 0.9867868 0.1620242 0
vn 0.1735219 -0.9832819 -0.05519792
vn 0.7140123 -0.5969386 0.3658561
vn 0.9169401 0.1855042 -0.3532833
vn 0.1071802 -0.9286475 -0.3551425
vn -0.9874592 -0.1559609 0.02450609
vn -0.5289204 -0.838891 0.1284725
vn -0.07233286 0.9913616 -0.109408
vn -0.2206262 0.3259926 -0.9192676
vn -0.9777031 -0.1637658 -0.1314436
vn -0.0255034 0.9874592 0.1558009
vn 0.6945 0.593311 0.4070034
vn -0.8098974 0.5816036 0.0761797
vn 0.4252304 -0.8993791 0.1014709
vn 0.9910868 -0.1110826 0.07353664
vn 0.2710834 -0.07986295 -0.959237
vn 0.01352119 -0.07791173 0.9968686
vn -0.5835549 -0.8115737 0.02849237
vn -0.08208907 -0.2515711 -0.9643512
vn 0.5793775 0.8059949 0.1212185
vn 0.2398637 0.2050165 -0.9489118
vn -0.9835567 0.1679431 0.06641722
vn -0.2674558 -0.04669207 -0.9624382
vn -0.3357488 0.9191662 0.2059277
vn 0.1013265 0.3650172 -0.9254704
vn -0.2635533 0.2128214 -0.9408755
vn 0.4252304 -0.8993791 0.1014709
vn 0.9910868 -0.1110826 0.07353664
vn 0.2710834 -0.07986295 -0.959237
vn 0.01352119 -0.07791173 0.9968686
vn -0.5835549 -0.8115737 0.02849237
vn -0.08208907 -0.2515711 -0.9643512
vn 0.5793775 0.8059949 0.1212185
vn 0.2398637 0.2050165 -0.9489118
vn -0.9835567 0.1679431 0.06641722
vn -0.2674558 -0.04669207 -0.9624382
vn -0.3357488 0.9191662 0.2059277
vn 0.1013265 0.3650172 -0.9254704
vn -0.2635533 0.2128214 -0.9408755
vn -0.8294097 0.5094081 -0.2293095
vn 0.04278958 0.9542884 -0.2958087
vn 0.02717978 0.9991666 -0.03045208
vn 0.8057201 0.499652 -0.3180613
vn 0.7745004 0.6167257 -0.1407073
vn 0.6574267 -0.7374271 -0.1548918
vn 0.7745004 -0.5891337 -0.2303706
vn -0.1191624 -0.9910868 -0.0595593
vn -0.07428408 -0.9793794 -0.1878771
vn -0.7689216 -0.6359632 -0.06565318
vn -0.8313609 -0.5423042 -0.12143
vn -0.7962388 0.5991647 -0.08369859
vn 0.01742363 0.9698981 0.242887
vn 0.8193787 0.5581889 0.1305516
vn 0.7862078 -0.6164509 -0.04319254
vn 0.03693593 -0.9930381 -0.1118532
vn 0.01156992 -0.1169363 0.993072
vn -0.7767265 -0.6281582 0.04596981
vn -0.8586781 0.4664811 0.2122906
vn 0.7725492 -0.5286456 -0.3517124
vn 0.06620437 -0.9266962 -0.3699339
vn 0.09547281 -0.9891356 -0.1117847
vn -0.7572142 -0.5696214 -0.3196219
vn -0.7825801 -0.6144997 -0.09979216
vn -0.7747753 0.5308716 -0.3433637
vn -0.8781904 0.4684323 -0.09670997
vn -0.01379597 0.9269711 -0.374879
vn 0.01742363 0.9933128 -0.1141318
vn 0.7003537 0.5913597 -0.3997478
vn 0.8349885 0.5406278 -0.1025463
vn 0.8213299 -0.5657189 -0.07334404
vn 0.08181417 -0.9793794 0.1847225
vn -0.7201408 -0.6749877 0.1605889
vn -0.8391658 0.5191643 0.1620776
vn 0.005716264 0.9757519 0.2188049
vn 0.8096225 0.5562376 0.1873797
vn 0.7920614 -0.5852312 0.1736177
vn 0.07791173 -0.8993791 0.4301709
vn 0.8701106 -0.03108221 0.4918754
vn -0.8079462 -0.08571666 0.5829885
vn 0.007667482 0.8372146 0.5468208
vn -0.08013785 -0.003765047 0.9967766
vn -0.5464815 0.132821 0.8268715
vn -0.9718493 0.1016014 -0.2125702
vn 0.0701068 0.9972154 -0.02542699
vn 0.07400924 -0.9852331 0.1543967
vn 0.1247412 0.03916204 -0.9914161
vn 0.9969405 -0.07596052 0.01842972
vn 0.2125465 0.5503839 -0.8074042
vn 0.4584013 0.8645318 0.2060414
vn -0.8583281 0.5131013 0
vn 0.7823054 -0.6066947 -0.1411378
vn -0.1172111 -0.07986295 0.9898906
vn -0.491847 -0.8701106 -0.03152724
vn -0.5464815 0.132821 0.8268715
vn -0.9718493 0.1016014 -0.2125702
vn 0.0701068 0.9972154 -0.02542699
vn 0.07400924 -0.9852331 0.1543967
vn 0.1247412 0.03916204 -0.9914161
vn 0.9969405 -0.07596052 0.01842972
vn 0.5754751 0.132821 -0.8069616
vn 0.9735258 0.1055038 0.2027721
vn -0.05672312 0.9972154 0.04841438
vn -0.06257677 -0.9891356 -0.1330226
vn -0.132821 0.05282056 0.9897316
vn -0.9968085 -0.07983037 0
g fireball_geo_0
f 3/3/3 2/2/2 1/1/1
f 6/6/6 5/5/5 4/4/4
f 9/9/9 8/8/8 7/7/7
f 12/12/12 11/11/11 10/10/10
f 15/15/15 14/14/14 13/13/13
f 18/18/18 17/17/17 16/16/16
f 21/21/21 20/20/20 19/19/19
f 24/24/24 23/23/23 22/22/22
f 27/27/27 26/26/26 25/25/25
f 30/30/30 29/29/29 28/28/28
f 33/33/33 32/32/32 31/31/31
f 36/36/36 35/35/35 34/34/34
f 39/39/39 38/38/38 37/37/37
f 37/37/37 38/38/38 40/40/40
f 38/38/38 41/41/41 40/40/40
f 38/38/38 42/42/42 41/41/41
f 43/43/43 42/42/42 38/38/38
f 37/37/37 40/40/40 44/44/44
f 41/41/41 45/45/45 40/40/40
f 40/40/40 45/45/45 44/44/44
f 46/46/46 45/45/45 41/41/41
f 42/42/42 46/46/46 41/41/41
f 44/44/44 45/45/45 46/46/46
f 46/46/46 42/42/42 44/44/44
f 47/47/47 37/37/37 44/44/44
f 42/42/42 47/47/47 44/44/44
f 48/48/48 37/37/37 47/47/47
f 49/49/49 47/47/47 42/42/42
f 52/52/52 51/51/51 50/50/50
f 50/50/50 51/51/51 53/53/53
f 54/54/54 50/50/50 53/53/53
f 55/55/55 50/50/50 54/54/54
f 51/51/51 56/56/56 53/53/53
f 57/57/57 56/56/56 51/51/51
f 58/58/58 54/54/54 53/53/53
f 59/59/59 54/54/54 58/58/58
f 56/56/56 60/60/60 53/53/53
f 60/60/60 58/58/58 53/53/53
f 61/61/61 60/60/60 56/56/56
f 62/62/62 58/58/58 60/60/60
f 65/65/65 64/64/64 63/63/63
f 63/63/63 64/64/64 66/66/66
f 67/67/67 63/63/63 66/66/66
f 68/68/68 63/63/63 67/67/67
f 64/64/64 69/69/69 66/66/66
f 70/70/70 69/69/69 64/64/64
f 71/71/71 67/67/67 66/66/66
f 72/72/72 67/67/67 71/71/71
f 69/69/69 73/73/73 66/66/66
f 73/73/73 71/71/71 66/66/66
f 74/74/74 73/73/73 69/69/69
f 75/75/75 71/71/71 73/73/73
f 78/78/78 77/77/77 76/76/76
f 79/79/79 77/77/77 78/78/78
f 80/80/80 79/79/79 78/78/78
f 81/81/81 79/79/79 80/80/80
f 82/82/82 81/81/81 80/80/80
f 81/81/81 82/82/82 83/83/83
f 82/82/82 84/84/84 83/83/83
f 83/83/83 84/84/84 85/85/85
f 85/85/85 86/86/86 76/76/76
f 84/84/84 86/86/86 85/85/85
f 87/87/87 78/78/78 76/76/76
f 86/86/86 87/87/87 76/76/76
f 80/80/80 78/78/78 88/88/88
f 88/88/88 78/78/78 87/87/87
f 82/82/82 80/80/80 89/89/89
f 89/89/89 80/80/80 88/88/88
f 82/82/82 90/90/90 84/84/84
f 90/90/90 82/82/82 89/89/89
f 84/84/84 91/91/91 86/86/86
f 90/90/90 91/91/91 84/84/84
f 89/89/89 92/92/92 90/90/90
f 88/88/88 92/92/92 89/89/89
f 91/91/91 90/90/90 92/92/92
f 91/91/91 93/93/93 86/86/86
f 86/86/86 93/93/93 87/87/87
f 93/93/93 91/91/91 92/92/92
f 88/88/88 94/94/94 92/92/92
f 94/94/94 88/88/88 87/87/87
f 93/93/93 92/92/92 94/94/94
f 93/93/93 94/94/94 87/87/87
f 97/97/97 96/96/96 95/95/95
f 98/98/98 96/96/96 97/97/97
f 99/99/99 98/98/98 97/97/97
f 100/100/100 98/98/98 99/99/99
f 101/101/101 100/100/100 99/99/99
f 100/100/100 101/101/101 102/102/102
f 101/101/101 103/103/103 102/102/102
f 102/102/102 103/103/103 104/104/104
f 104/104/104 105/105/105 95/95/95
f 103/103/103 105/105/105 104/104/104
f 106/106/106 97/97/97 95/95/95
f 105/105/105 106/106/106 95/95/95
f 99/99/99 97/97/97 107/107/107
f 107/107/107 97/97/97 106/106/106
f 101/101/101 99/99/99 108/108/108
f 108/108/108 99/99/99 107/107/107
f 101/101/101 109/109/109 103/103/103
f 109/109/109 101/101/101 108/108/108
f 103/103/103 110/110/110 105/105/105
f 109/109/109 110/110/110 103/103/103
f 105/105/105 111/111/111 106/106/106
f 110/110/110 111/111/111 105/105/105
f 112/112/112 107/107/107 106/106/106
f 111/111/111 112/112/112 106/106/106
f 107/107/107 113/113/113 108/108/108
f 107/107/107 112/112/112 113/113/113
f 111/111/111 114/114/114 112/112/112
f 111/111/111 110/110/110 114/114/114
f 112/112/112 114/114/114 113/113/113
f 108/108/108 115/115/115 109/109/109
f 113/113/113 115/115/115 108/108/108
f 110/110/110 109/109/109 116/116/116
f 110/110/110 116/116/116 114/114/114
f 109/109/109 115/115/115 116/116/116
f 113/113/113 117/117/117 115/115/115
f 114/114/114 117/117/117 113/113/113
f 116/116/116 117/117/117 114/114/114
f 115/115/115 117/117/117 116/116/116
f 120/120/120 119/119/119 118/118/118
f 118/118/118 119/119/119 121/121/121
f 119/119/119 120/120/120 122/122/122
f 121/121/121 119/119/119 122/122/122
f 118/118/118 121/121/121 123/123/123
f 123/123/123 120/120/120 118/118/118
f 120/120/120 123/123/123 122/122/122
f 123/123/123 121/121/121 122/122/122
f 126/126/126 125/125/125 124/124/124
f 124/124/124 125/125/125 127/127/127
f 125/125/125 126/126/126 128/128/128
f 127/127/127 125/125/125 128/128/128
f 124/124/124 127/127/127 129/129/129
f 129/129/129 126/126/126 124/124/124
f 126/126/126 129/129/129 128/128/128
f 129/129/129 127/127/127 128/128/128
f 132/132/132 131/131/131 130/130/130
f 130/130/130 131/131/131 133/133/133
f 131/131/131 132/132/132 134/134/134
f 133/133/133 131/131/131 134/134/134
f 130/130/130 133/133/133 135/135/135
f 135/135/135 132/132/132 130/130/130
f 132/132/132 135/135/135 134/134/134
f 135/135/135 133/133/133 134/134/134
f 138/138/138 137/137/137 136/136/136
f 136/136/136 137/137/137 139/139/139
f 137/137/137 138/138/138 140/140/140
f 139/139/139 137/137/137 140/140/140
f 136/136/136 139/139/139 141/141/141
f 141/141/141 138/138/138 136/136/136
f 138/138/138 141/141/141 140/140/140
f 141/141/141 139/139/139 140/140/140
