g fishSplash02_mesh
v -0.8138462 -0.5282393 -0.3658558
v -1.217262 -0.7131237 -0.1531167
v -0.01882541 -0.9747126 1.311302E-06
v -0.4412525 -0.6128817 -0.4962633
v -0.8926798 -0.5705619 0.6598843
v -0.9714099 1.311302E-06 -0.8411841
v 0.1658356 -0.7131237 1.07408
v -1.276375 1.311302E-06 0.812723
v -0.9482661 1.311302E-06 1.113997
v -1.464925 1.311302E-06 1.311302E-06
v -0.8926798 0.5705618 0.6598843
v -1.432228 1.311302E-06 -0.6066788
v 0.1658356 1.311302E-06 1.440312
v -1.098693 0.7131237 1.311302E-06
v -0.01882541 0.9283301 1.311302E-06
v 0.1658356 0.7131237 1.07408
v -1.131312 0.6344243 -0.3934591
v -0.8967704 0.5282391 -0.5646383
v 0.6001824 0.6223873 0.9107271
v 0.7399809 1.311302E-06 1.237017
v -0.5956923 1.311302E-06 -0.7132663
v -0.4412525 0.6128815 -0.3911623
v -0.04408431 0.7131237 -0.5025138
v -0.04408431 1.311302E-06 -0.8687454
v 0.6001824 -0.6223873 0.9107271
v -1.311302E-06 -0.7131237 -0.6507002
v 0.5092337 -0.6223873 -0.676747
v 0.6490321 1.311302E-06 -1.003037
v 0.5092337 0.6223873 -0.676747
v 0.9245273 -0.5282393 0.5154532
v 1.098694 -0.7131237 1.311302E-06
v 0.8138464 -0.5282393 -0.8138464
v 1.233664 1.311302E-06 -0.8707879
v 0.9488167 0.5282391 -0.5859408
v 1.464925 1.311302E-06 1.311302E-06
v 1.209372 1.311302E-06 0.8003005
v 1.098694 0.7131237 1.311302E-06
v 0.9245273 0.5282391 0.5154532
vt 0.6699324 0.5498183
vt 0.686405 0.5587561
vt 0.6374627 0.5654772
vt 0.6547147 0.5468673
vt 0.6731503 0.5820687
vt 0.6763656 0.5283841
vt 0.6299225 0.596692
vt 0.6888198 0.5795139
vt 0.6754197 0.5888242
vt 0.696521 0.5543889
vt 0.6731503 0.5675063
vt 0.6951842 0.5356336
vt 0.6299225 0.5989138
vt 0.6815649 0.5452874
vt 0.6374627 0.5432979
vt 0.6299225 0.5784915
vt 0.6828965 0.5341277
vt 0.6733167 0.5301912
vt 0.612187 0.5745999
vt 0.6064751 0.5926286
vt 0.6610237 0.5323365
vt 0.6547147 0.5344765
vt 0.6384957 0.5297526
vt 0.6384957 0.5275334
vt 0.612187 0.5904834
vt 0.6366965 0.5433746
vt 0.615899 0.541409
vt 0.6101897 0.5233802
vt 0.615899 0.5255228
vt 0.5989403 0.5770649
vt 0.5918281 0.5634878
vt 0.6034607 0.5359691
vt 0.5863143 0.52747
vt 0.5979469 0.5295333
vt 0.5768693 0.5543889
vt 0.5873077 0.5791282
vt 0.5918281 0.5452874
vt 0.5989403 0.5635803
vn -0.1765101 -0.6833133 -0.7084681
vn -0.6064218 -0.7927454 -0.06170386
vn 0.003271163 -0.9998846 0.01483443
vn -0.2273178 -0.6168724 -0.7535217
vn -0.4794024 -0.706763 0.5202493
vn -0.1667393 -0.1400612 -0.9760025
vn -0.09443605 -0.7184879 0.6890987
vn -0.9132224 -0.003271163 0.4074483
vn -0.3953743 0.0006371737 0.9185199
vn -0.9777092 0.03581178 0.2068872
vn -0.4774483 0.7080373 0.5203137
vn -0.7764323 -0.06384963 -0.6269578
vn -0.1276565 0.0006371737 0.9918182
vn -0.6572295 0.7412578 0.1363313
vn 0.03062916 0.9992048 0.02552875
vn -0.09443605 0.7256246 0.6815796
vn -0.6201009 0.6865417 -0.3796518
vn -0.03776586 0.582972 -0.811614
vn 0.4136414 0.7529826 0.5117792
vn 0.5699729 0.0006371737 0.8216633
vn -0.1159316 0.02213275 -0.9930106
vn -0.0846653 0.6396422 -0.7639958
vn -0.2077764 0.6103301 -0.7644123
vn -0.2312261 0.06316972 -0.9708471
vn 0.4214579 -0.7438917 0.5186505
vn -0.160877 -0.5738812 -0.8029813
vn 0.1029325 -0.7810205 -0.6159642
vn -0.012362 0.1120234 -0.9936287
vn 0.06384963 0.7451661 -0.6638153
vn 0.5602022 -0.7458459 0.3603989
vn 0.6051475 -0.7946995 -0.04742616
vn 0.4742199 -0.6969923 -0.5378822
vn 0.8103327 -0.04235405 -0.5844374
vn 0.5015779 0.7275788 -0.4680265
vn 0.9991041 -0.04232099 0
vn 0.855278 0.0006371737 0.5181691
vn 0.581624 0.8134578 0
vn 0.5504315 0.7549367 0.3565049
g fishSplash02_mesh_0
f 3/3/3 2/2/2 1/1/1
f 4/4/4 3/3/3 1/1/1
f 3/3/3 5/5/5 2/2/2
f 4/4/4 1/1/1 6/6/6
f 6/6/6 1/1/1 2/2/2
f 3/3/3 7/7/7 5/5/5
f 2/2/2 5/5/5 8/8/8
f 5/5/5 7/7/7 9/9/9
f 9/9/9 8/8/8 5/5/5
f 10/10/10 2/2/2 8/8/8
f 9/9/9 11/11/11 8/8/8
f 10/10/10 8/8/8 11/11/11
f 12/12/12 2/2/2 10/10/10
f 12/12/12 6/6/6 2/2/2
f 7/7/7 13/13/13 9/9/9
f 9/9/9 13/13/13 11/11/11
f 14/14/14 10/10/10 11/11/11
f 12/12/12 10/10/10 14/14/14
f 15/15/15 14/14/14 11/11/11
f 11/11/11 16/16/16 15/15/15
f 13/13/13 16/16/16 11/11/11
f 15/15/15 17/17/17 14/14/14
f 17/17/17 12/12/12 14/14/14
f 18/18/18 6/6/6 12/12/12
f 17/17/17 18/18/18 12/12/12
f 19/19/19 16/16/16 13/13/13
f 19/19/19 15/15/15 16/16/16
f 20/20/20 13/13/13 7/7/7
f 20/20/20 19/19/19 13/13/13
f 21/21/21 6/6/6 18/18/18
f 21/21/21 4/4/4 6/6/6
f 22/22/22 18/18/18 17/17/17
f 15/15/15 22/22/22 17/17/17
f 22/22/22 21/21/21 18/18/18
f 22/22/22 23/23/23 21/21/21
f 15/15/15 23/23/23 22/22/22
f 21/21/21 24/24/24 4/4/4
f 23/23/23 24/24/24 21/21/21
f 25/25/25 20/20/20 7/7/7
f 25/25/25 7/7/7 3/3/3
f 24/24/24 26/26/26 4/4/4
f 4/4/4 26/26/26 3/3/3
f 27/27/27 26/26/26 24/24/24
f 27/27/27 3/3/3 26/26/26
f 28/28/28 24/24/24 23/23/23
f 28/28/28 27/27/27 24/24/24
f 29/29/29 23/23/23 15/15/15
f 29/29/29 28/28/28 23/23/23
f 25/25/25 30/30/30 20/20/20
f 3/3/3 31/31/31 25/25/25
f 31/31/31 30/30/30 25/25/25
f 27/27/27 32/32/32 3/3/3
f 32/32/32 31/31/31 3/3/3
f 33/33/33 32/32/32 27/27/27
f 28/28/28 33/33/33 27/27/27
f 31/31/31 32/32/32 33/33/33
f 29/29/29 34/34/34 28/28/28
f 34/34/34 33/33/33 28/28/28
f 35/35/35 31/31/31 33/33/33
f 30/30/30 31/31/31 35/35/35
f 35/35/35 33/33/33 34/34/34
f 30/30/30 36/36/36 20/20/20
f 36/36/36 30/30/30 35/35/35
f 20/20/20 36/36/36 19/19/19
f 37/37/37 34/34/34 29/29/29
f 37/37/37 35/35/35 34/34/34
f 36/36/36 35/35/35 37/37/37
f 15/15/15 37/37/37 29/29/29
f 36/36/36 38/38/38 19/19/19
f 38/38/38 36/36/36 37/37/37
f 38/38/38 37/37/37 15/15/15
f 19/19/19 38/38/38 15/15/15
