g flower_petal2_mesh
v 0.2433624 0.1058491 -0.05862653
v 0.2708614 0.1401109 -0.02145848
v 0.2589582 0.2931477 -0.2233727
v 0.2329919 0.2391729 -0.2345294
v 0.2329919 0.2391729 -0.2345294
v 0.2589582 0.2931477 -0.2233727
v 0.05154142 0.3478254 -0.3683887
v 0.05229208 0.2868078 -0.3608664
v 0.05229208 0.2868078 -0.3608664
v 0.05154142 0.3478254 -0.3683887
v -0.1834624 0.281836 -0.3674611
v -0.152439 0.2293187 -0.3600583
v -0.152439 0.2293187 -0.3600583
v -0.1834624 0.281836 -0.3674611
v -0.2613572 0.1301898 -0.1995545
v -0.2202992 0.097206 -0.2137815
v -0.2202992 0.097206 -0.2137815
v -0.2613572 0.1301898 -0.1995545
v -0.08420986 -0.1783203 0.1688352
v -0.06597078 -0.1715631 0.1071551
v -0.06597078 -0.1715631 0.1071551
v -0.08420986 -0.1783203 0.1688352
v -0.009500116 -0.169432 0.1841544
v -0.00088498 -0.1638195 0.1205002
v -0.00088498 -0.1638195 0.1205002
v -0.009500116 -0.169432 0.1841544
v 0.09313008 -0.1091172 0.1584873
v 0.08852506 -0.1112742 0.09814039
v 0.08852506 -0.1112742 0.09814039
v 0.09313008 -0.1091172 0.1584873
v 0.2708614 0.1401109 -0.02145848
v 0.2433624 0.1058491 -0.05862653
v 0.2329919 0.2391729 -0.2345294
v 0.06266329 0.1103052 -0.2288322
v 0.2433624 0.1058491 -0.05862653
v 0.05229208 0.2868078 -0.3608664
v 0.08852506 -0.1112742 0.09814039
v -0.152439 0.2293187 -0.3600583
v -0.00088498 -0.1638195 0.1205002
v -0.2202992 0.097206 -0.2137815
v -0.06597078 -0.1715631 0.1071551
v 0.2708614 0.1401109 -0.02145848
v 0.06008688 0.1573172 -0.2074696
v 0.2589582 0.2931477 -0.2233727
v 0.09313008 -0.1091172 0.1584873
v 0.05154142 0.3478254 -0.3683887
v -0.009500116 -0.169432 0.1841544
v -0.1834624 0.281836 -0.3674611
v -0.08420986 -0.1783203 0.1688352
v -0.2613572 0.1301898 -0.1995545
vt 0.1761046 0.03166776
vt 0.16348 0.03702387
vt 0.1639245 0.03807409
vt 0.1765491 0.03271798
vt 0.1765491 0.03271798
vt 0.1639245 0.03807409
vt 0.164369 0.03912431
vt 0.1769936 0.0337682
vt 0.1769936 0.0337682
vt 0.164369 0.03912431
vt 0.164816 0.04017209
vt 0.1774406 0.03481597
vt 0.1774406 0.03481597
vt 0.164816 0.04017209
vt 0.1652605 0.04122231
vt 0.1778851 0.03586619
vt 0.1778851 0.03586619
vt 0.1652605 0.04122231
vt 0.165705 0.04227253
vt 0.1783296 0.03691641
vt 0.1783296 0.03691641
vt 0.165705 0.04227253
vt 0.166152 0.04332031
vt 0.1787766 0.03796419
vt 0.1787766 0.03796419
vt 0.166152 0.04332031
vt 0.1665965 0.04437052
vt 0.1792211 0.03901441
vt 0.1792211 0.03901441
vt 0.1665965 0.04437052
vt 0.167041 0.04542074
vt 0.1796656 0.04006463
vt 0.18838 0.03141375
vt 0.1833414 0.03355082
vt 0.1884166 0.03577583
vt 0.1852684 0.0283559
vt 0.1853588 0.0388874
vt 0.1809063 0.02839254
vt 0.1809967 0.03892404
vt 0.1778485 0.03150412
vt 0.1778851 0.03586619
vt 0.157909 0.04872038
vt 0.1602536 0.04334717
vt 0.1547974 0.04566009
vt 0.1622711 0.0486813
vt 0.1547607 0.04129802
vt 0.1653289 0.04557217
vt 0.1578186 0.03818889
vt 0.1652923 0.0412101
vt 0.1621807 0.03814981
vn 0.8774258 -0.3563525 -0.3211493
vn 0.8774258 -0.3563525 -0.3211493
vn 0.8774258 -0.3563525 -0.3211493
vn 0.8774258 -0.3563525 -0.3211493
vn 0.5534691 -0.0958159 -0.8273399
vn 0.5534691 -0.0958159 -0.8273399
vn 0.5534691 -0.0958159 -0.8273399
vn 0.5534691 -0.0958159 -0.8273399
vn 0.03068173 -0.1215267 -0.9921138
vn 0.03068173 -0.1215267 -0.9921138
vn 0.03068173 -0.1215267 -0.9921138
vn 0.03068173 -0.1215267 -0.9921138
vn -0.5898069 -0.4437694 -0.6746826
vn -0.5898069 -0.4437694 -0.6746826
vn -0.5898069 -0.4437694 -0.6746826
vn -0.5898069 -0.4437694 -0.6746826
vn -0.6583691 -0.702592 -0.2700272
vn -0.6583691 -0.702592 -0.2700272
vn -0.6583691 -0.702592 -0.2700272
vn -0.6583691 -0.702592 -0.2700272
vn 0.1318111 -0.9888394 -0.06944331
vn 0.1318111 -0.9888394 -0.06944331
vn 0.1318111 -0.9888394 -0.06944331
vn 0.1318111 -0.9888394 -0.06944331
vn 0.5050952 -0.8630636 0
vn 0.5050952 -0.8630636 0
vn 0.5050952 -0.8630636 0
vn 0.5050952 -0.8630636 0
vn 0.8002262 -0.5996984 0
vn 0.8002262 -0.5996984 0
vn 0.8002262 -0.5996984 0
vn 0.8002262 -0.5996984 0
vn 0.4489115 -0.6220313 -0.6415259
vn 0.2106577 -0.7231606 -0.6577705
vn 0.4780505 -0.704306 -0.5248054
vn 0.250081 -0.5706096 -0.7822175
vn 0.3820633 -0.7505856 -0.5391186
vn 0.06153476 -0.6871655 -0.7238902
vn 0.2569372 -0.7831526 -0.5662643
vn -0.0001713037 -0.7591559 -0.6509089
vn 0.07524723 -0.7780105 -0.6237288
vn -0.4338277 0.7080768 0.5571542
vn -0.2144284 0.7235033 0.6561734
vn -0.3995466 0.6600831 0.6361233
vn -0.354981 0.7406438 0.5704694
vn -0.2435674 0.6189458 0.7467135
vn -0.2521376 0.7646406 0.5930863
vn -0.09615844 0.7097908 0.6978185
vn -0.1064429 0.7612125 0.6397073
vn -0.0481649 0.7543563 0.6546959
g flower_petal2_mesh_0
f 3/3/3 2/2/2 1/1/1
f 4/4/4 3/3/3 1/1/1
f 7/7/7 6/6/6 5/5/5
f 8/8/8 7/7/7 5/5/5
f 11/11/11 10/10/10 9/9/9
f 12/12/12 11/11/11 9/9/9
f 15/15/15 14/14/14 13/13/13
f 16/16/16 15/15/15 13/13/13
f 19/19/19 18/18/18 17/17/17
f 20/20/20 19/19/19 17/17/17
f 23/23/23 22/22/22 21/21/21
f 24/24/24 23/23/23 21/21/21
f 27/27/27 26/26/26 25/25/25
f 28/28/28 27/27/27 25/25/25
f 31/31/31 30/30/30 29/29/29
f 32/32/32 31/31/31 29/29/29
f 35/35/35 34/34/34 33/33/33
f 33/33/33 34/34/34 36/36/36
f 37/37/37 34/34/34 35/35/35
f 36/36/36 34/34/34 38/38/38
f 39/39/39 34/34/34 37/37/37
f 38/38/38 34/34/34 40/40/40
f 41/41/41 34/34/34 39/39/39
f 40/40/40 34/34/34 41/41/41
f 44/44/44 43/43/43 42/42/42
f 42/42/42 43/43/43 45/45/45
f 46/46/46 43/43/43 44/44/44
f 45/45/45 43/43/43 47/47/47
f 48/48/48 43/43/43 46/46/46
f 47/47/47 43/43/43 49/49/49
f 50/50/50 43/43/43 48/48/48
f 49/49/49 43/43/43 50/50/50
