g flower_petal3_mesh
v 0.04211961 0.05970743 0.2366397
v 0.002157778 0.07954761 0.2695751
v 0.1633153 0.2629095 0.2816535
v 0.1825145 0.2194502 0.2471579
v 0.1825145 0.2194502 0.2471579
v 0.1633153 0.2629095 0.2816535
v 0.2783099 0.3774942 0.09217313
v 0.2826964 0.3192757 0.08209187
v 0.2826964 0.3192757 0.08209187
v 0.2783099 0.3774942 0.09217313
v 0.2766849 0.3564307 -0.1420968
v 0.2812804 0.3009239 -0.1220029
v 0.2812804 0.3009239 -0.1220029
v 0.2766849 0.3564307 -0.1420968
v 0.1423342 0.1963977 -0.239618
v 0.1642382 0.1615049 -0.2069653
v 0.1642382 0.1615049 -0.2069653
v 0.1423342 0.1963977 -0.239618
v -0.1375187 -0.1920266 -0.1197798
v -0.07956776 -0.1768839 -0.1025625
v -0.07956776 -0.1768839 -0.1025625
v -0.1375187 -0.1920266 -0.1197798
v -0.1494662 -0.1995882 -0.04715772
v -0.08997393 -0.1834721 -0.03929456
v -0.08997393 -0.1834721 -0.03929456
v -0.1494662 -0.1995882 -0.04715772
v -0.1308191 -0.1562429 0.06028855
v -0.0737395 -0.1457102 0.05431232
v -0.0737395 -0.1457102 0.05431232
v -0.1308191 -0.1562429 0.06028855
v 0.002157778 0.07954761 0.2695751
v 0.04211961 0.05970743 0.2366397
v 0.1825145 0.2194502 0.2471579
v 0.1917905 0.1279978 0.06292725
v 0.04211961 0.05970743 0.2366397
v 0.2826964 0.3192757 0.08209187
v -0.0737395 -0.1457102 0.05431232
v 0.2812804 0.3009239 -0.1220029
v -0.08997393 -0.1834721 -0.03929456
v 0.1642382 0.1615049 -0.2069653
v -0.07956776 -0.1768839 -0.1025625
v 0.002157778 0.07954761 0.2695751
v 0.1626731 0.1679111 0.06935868
v 0.1633153 0.2629095 0.2816535
v -0.1308191 -0.1562429 0.06028855
v 0.2783099 0.3774942 0.09217313
v -0.1494662 -0.1995882 -0.04715772
v 0.2766849 0.3564307 -0.1420968
v -0.1375187 -0.1920266 -0.1197798
v 0.1423342 0.1963977 -0.239618
vt 0.1761046 0.03166776
vt 0.16348 0.03702387
vt 0.1639245 0.03807409
vt 0.1765491 0.03271798
vt 0.1765491 0.03271798
vt 0.1639245 0.03807409
vt 0.164369 0.03912431
vt 0.1769936 0.0337682
vt 0.1769936 0.0337682
vt 0.164369 0.03912431
vt 0.164816 0.04017209
vt 0.1774406 0.03481597
vt 0.1774406 0.03481597
vt 0.164816 0.04017209
vt 0.1652605 0.04122231
vt 0.1778851 0.03586619
vt 0.1778851 0.03586619
vt 0.1652605 0.04122231
vt 0.165705 0.04227253
vt 0.1783296 0.03691641
vt 0.1783296 0.03691641
vt 0.165705 0.04227253
vt 0.166152 0.04332031
vt 0.1787766 0.03796419
vt 0.1787766 0.03796419
vt 0.166152 0.04332031
vt 0.1665965 0.04437052
vt 0.1792211 0.03901441
vt 0.1792211 0.03901441
vt 0.1665965 0.04437052
vt 0.167041 0.04542074
vt 0.1796656 0.04006463
vt 0.18838 0.03141375
vt 0.1833414 0.03355082
vt 0.1884166 0.03577583
vt 0.1852684 0.0283559
vt 0.1853588 0.0388874
vt 0.1809063 0.02839254
vt 0.1809967 0.03892404
vt 0.1778485 0.03150412
vt 0.1778851 0.03586619
vt 0.157909 0.04872038
vt 0.1602536 0.04334717
vt 0.1547974 0.04566009
vt 0.1622711 0.0486813
vt 0.1547607 0.04129802
vt 0.1653289 0.04557217
vt 0.1578186 0.03818889
vt 0.1652923 0.0412101
vt 0.1621807 0.03814981
vn 0.4343644 -0.4343644 0.7890849
vn 0.4343644 -0.4343644 0.7890849
vn 0.4343644 -0.4343644 0.7890849
vn 0.4343644 -0.4343644 0.7890849
vn 0.8603584 -0.02293432 0.5091733
vn 0.8603584 -0.02293432 0.5091733
vn 0.8603584 -0.02293432 0.5091733
vn 0.8603584 -0.02293432 0.5091733
vn 0.996895 0.07719243 -0.0155487
vn 0.996895 0.07719243 -0.0155487
vn 0.996895 0.07719243 -0.0155487
vn 0.996895 0.07719243 -0.0155487
vn 0.712899 -0.1867782 -0.6759356
vn 0.712899 -0.1867782 -0.6759356
vn 0.712899 -0.1867782 -0.6759356
vn 0.712899 -0.1867782 -0.6759356
vn 0.3651859 -0.503543 -0.7829967
vn 0.3651859 -0.503543 -0.7829967
vn 0.3651859 -0.503543 -0.7829967
vn 0.3651859 -0.503543 -0.7829967
vn 0.2687001 -0.9623057 -0.0420468
vn 0.2687001 -0.9623057 -0.0420468
vn 0.2687001 -0.9623057 -0.0420468
vn 0.2687001 -0.9623057 -0.0420468
vn 0.2049831 -0.9204345 0.3328398
vn 0.2049831 -0.9204345 0.3328398
vn 0.2049831 -0.9204345 0.3328398
vn 0.2049831 -0.9204345 0.3328398
vn 0.2013421 -0.7110785 0.6736681
vn 0.2013421 -0.7110785 0.6736681
vn 0.2013421 -0.7110785 0.6736681
vn 0.2013421 -0.7110785 0.6736681
vn 0.776616 -0.5490551 0.3088788
vn 0.7966413 -0.6018493 0.05603626
vn 0.6801302 -0.6564639 0.3263098
vn 0.8913067 -0.4361849 0.123754
vn 0.6965146 -0.6819507 0.2231831
vn 0.8457946 -0.5253888 -0.09272636
vn 0.7220014 -0.6855917 0.09315556
vn 0.7857184 -0.6000288 -0.1503731
vn 0.7675136 -0.6364385 -0.0766094
vn -0.7089015 0.647005 -0.2807903
vn -0.7944643 0.6033132 -0.06956701
vn -0.774439 0.5778264 -0.2576062
vn -0.7234653 0.6615688 -0.1972934
vn -0.8654634 0.4886225 -0.1105494
vn -0.7434907 0.6615688 -0.09771574
vn -0.8272332 0.5596216 0.05008901
vn -0.7799004 0.6233386 0.05660694
vn -0.7908235 0.6014928 0.1131579
g flower_petal3_mesh_0
f 3/3/3 2/2/2 1/1/1
f 4/4/4 3/3/3 1/1/1
f 7/7/7 6/6/6 5/5/5
f 8/8/8 7/7/7 5/5/5
f 11/11/11 10/10/10 9/9/9
f 12/12/12 11/11/11 9/9/9
f 15/15/15 14/14/14 13/13/13
f 16/16/16 15/15/15 13/13/13
f 19/19/19 18/18/18 17/17/17
f 20/20/20 19/19/19 17/17/17
f 23/23/23 22/22/22 21/21/21
f 24/24/24 23/23/23 21/21/21
f 27/27/27 26/26/26 25/25/25
f 28/28/28 27/27/27 25/25/25
f 31/31/31 30/30/30 29/29/29
f 32/32/32 31/31/31 29/29/29
f 35/35/35 34/34/34 33/33/33
f 33/33/33 34/34/34 36/36/36
f 37/37/37 34/34/34 35/35/35
f 36/36/36 34/34/34 38/38/38
f 39/39/39 34/34/34 37/37/37
f 38/38/38 34/34/34 40/40/40
f 41/41/41 34/34/34 39/39/39
f 40/40/40 34/34/34 41/41/41
f 44/44/44 43/43/43 42/42/42
f 42/42/42 43/43/43 45/45/45
f 46/46/46 43/43/43 44/44/44
f 45/45/45 43/43/43 47/47/47
f 48/48/48 43/43/43 46/46/46
f 47/47/47 43/43/43 49/49/49
f 50/50/50 43/43/43 48/48/48
f 49/49/49 43/43/43 50/50/50
