g flower_stalk_mesh
v -0.1931546 -0.7042367 0.03701299
v -0.1222342 -0.554841 0.03701299
v -0.05118811 -0.5713914 0.03701299
v -0.1246774 -0.7252429 0.03701299
v -0.1931531 -0.7042367 -0.03872728
v -0.1246774 -0.7252429 -0.03872728
v -0.1222357 -0.554841 -0.03872728
v -0.05118811 -0.5713914 -0.03872728
v -0.0006613731 -0.4120799 0.03701156
v -0.07480079 -0.4001443 0.03701156
v -0.07480079 -0.4001457 -0.03872728
v -0.0006613731 -0.4120799 -0.03872871
v 0.02479202 -0.2488342 0.03701156
v -0.05077058 -0.241626 0.03701156
v -0.05076915 -0.241626 -0.03872871
v 0.02479202 -0.2488328 -0.03872871
v 0.03811753 -0.08320892 0.03701299
v -0.03753167 -0.08079892 0.03701299
v -0.03753167 -0.08079892 -0.03872728
v 0.03811753 -0.08320892 -0.03872728
v 0.03811753 0.08320963 0.03701156
v -0.03753316 0.0807997 0.03701156
v -0.03753167 0.0807997 -0.03872728
v 0.03811753 0.08320963 -0.03872728
v 0.0247978 0.2488335 0.03701299
v -0.05076337 0.2416267 0.03701299
v -0.05076337 0.2416267 -0.03872871
v 0.0247978 0.2488335 -0.03872728
v -0.0007365346 0.4120807 0.03701299
v -0.07488459 0.400145 0.03701299
v -0.07488459 0.400145 -0.03872871
v -0.0007365346 0.4120807 -0.03872871
v -0.05149442 0.5713907 0.03701156
v -0.122539 0.5548417 0.03701299
v -0.1225405 0.5548417 -0.03872871
v -0.05149442 0.5713907 -0.03872728
v -0.1247641 0.7252436 0.03701299
v -0.1932427 0.7042374 0.03701299
v -0.1247641 0.7252436 -0.03872728
v -0.1932441 0.7042374 -0.03872871
v -0.05640101 0.7084245 -0.07488674
v -0.04555625 0.7504124 -0.1150426
v -0.1482178 0.714357 -0.1633573
v -0.1237166 0.6847829 -0.1065673
v -0.1086298 0.6665695 0.001600504
v -0.02851605 0.7182176 0.001599073
v -0.2508765 0.6783015 -0.1150426
v -0.191035 0.6611399 -0.07488674
v -0.003033757 0.765346 0.001599073
v -0.05639958 0.7084245 0.07808489
v -0.18081 0.7537022 -0.1150426
v -0.2534035 0.7282084 -0.08087987
v -0.1675899 0.7377427 0.001600504
v -0.1082194 0.7791975 -0.08087838
v -0.2834716 0.7176482 0.001599073
v -0.2934003 0.6633678 0.001599073
v -0.07814986 0.7897577 0.001599073
v -0.04555625 0.750411 0.1182421
v -0.2189171 0.651347 0.001599073
v -0.2534035 0.7282084 0.08407795
v -0.123718 0.6847829 0.1097654
v -0.108218 0.7791975 0.08407944
v -0.2508765 0.6783015 0.1182421
v -0.191035 0.6611399 0.07808632
v -0.1482164 0.714357 0.1665569
v -0.18081 0.7537022 0.1182421
vt 0.6361722 0.04548939
vt 0.6361722 0.04568494
vt 0.6361722 0.04566321
vt 0.6361722 0.04546767
vt 0.6388229 0.04551112
vt 0.6388229 0.04548939
vt 0.6388229 0.04570666
vt 0.6388229 0.04568494
vt 0.636183 0.04586962
vt 0.636183 0.04588048
vt 0.6388338 0.04590221
vt 0.6388229 0.04589134
vt 0.636183 0.04607603
vt 0.636183 0.04608689
vt 0.6388338 0.04610861
vt 0.6388338 0.04609775
vt 0.636183 0.0462933
vt 0.636183 0.0462933
vt 0.6388338 0.04631502
vt 0.6388338 0.04630416
vt 0.6361939 0.0464997
vt 0.6361939 0.0464997
vt 0.6388338 0.04652143
vt 0.6388338 0.04652143
vt 0.6361939 0.04671697
vt 0.6361939 0.04670611
vt 0.6388446 0.04672784
vt 0.6388446 0.04672784
vt 0.6361939 0.04692338
vt 0.6361939 0.04691252
vt 0.6388446 0.04692338
vt 0.6388446 0.04694511
vt 0.6362048 0.04712979
vt 0.6362048 0.04710806
vt 0.6388446 0.04712979
vt 0.6388446 0.04714065
vt 0.6362048 0.04732533
vt 0.6362048 0.04729274
vt 0.6388555 0.04734706
vt 0.6388555 0.04731447
vt 0.1407734 0.7319885
vt 0.1508656 0.7335855
vt 0.1427832 0.7286534
vt 0.135472 0.728762
vt 0.1264118 0.734737
vt 0.1390244 0.7384523
vt 0.1286932 0.731554
vt 0.1262272 0.7306523
vt 0.1482041 0.7434387
vt 0.131257 0.7443621
vt 0.1448147 0.7385392
vt 0.1348419 0.7405816
vt 0.1355155 0.7455462
vt 0.1505289 0.7420264
vt 0.1264662 0.7469585
vt 0.1168411 0.7405598
vt 0.1486495 0.7489899
vt 0.1363628 0.7524446
vt 0.1184597 0.7365621
vt 0.1245868 0.7539328
vt 0.1220121 0.7462524
vt 0.1402737 0.7553669
vt 0.1141795 0.7504131
vt 0.1167107 0.7430258
vt 0.1222728 0.7553451
vt 0.130301 0.7574092
vn -0.7667017 0.01146078 0.6419012
vn -0.6538048 0.2547729 0.7124817
vn 0.6912246 -0.2727277 0.6691996
vn 0.5121468 -0.5471838 0.6620389
vn -0.7667017 0.01146078 -0.6419012
vn 0.5121468 -0.5471838 -0.6620389
vn -0.6538048 0.2547729 -0.7124817
vn 0.6912246 -0.2727277 -0.6691996
vn 0.7145826 -0.1676169 0.6791733
vn -0.6732697 0.1535552 0.7232764
vn -0.6732697 0.1535552 -0.7232764
vn 0.7145826 -0.1676169 -0.6791733
vn 0.716529 -0.08391756 0.6924911
vn -0.6907883 0.07958817 0.7186635
vn -0.6907883 0.07958817 -0.7186635
vn 0.716529 -0.08391756 -0.6924911
vn 0.720422 -0.02941561 0.6929118
vn -0.6927347 0.0289793 0.72061
vn -0.6927347 0.0289793 -0.72061
vn 0.720422 -0.02941561 -0.6929118
vn 0.720422 0.0289793 0.6929302
vn -0.6927347 -0.0274691 0.7206692
vn -0.6927347 -0.0274691 -0.7206692
vn 0.720422 0.0289793 -0.6929302
vn 0.716529 0.08542776 0.6923065
vn -0.6888418 -0.08002454 0.7204811
vn -0.6888418 -0.08002454 -0.7204811
vn 0.716529 0.08542776 -0.6923065
vn 0.7145826 0.1691271 0.6787988
vn -0.6732697 -0.1539914 0.7231836
vn -0.6732697 -0.1539914 -0.7231836
vn 0.7145826 0.1691271 -0.6787988
vn 0.6912246 0.2742379 0.6685822
vn -0.6538048 -0.2552093 0.7123255
vn -0.6538048 -0.2552093 -0.7123255
vn 0.6912246 0.2742379 -0.6685822
vn 0.5121468 0.5467474 0.6623993
vn -0.7667017 -0.009950638 0.6419264
vn 0.5121468 0.5467474 -0.6623993
vn -0.7667017 -0.009950638 -0.6419264
vn 0.6503482 -0.6795456 -0.3395069
vn 0.6114182 0.4124392 -0.6753233
vn 0.03525513 -0.03525513 -0.9987563
vn 0.3116577 -0.8372118 -0.4493839
vn 0.3389086 -0.9403762 -0.0288706
vn 0.7943331 -0.6074825 0
vn -0.552587 -0.4848959 -0.6778817
vn 0.02162963 -0.9578947 -0.2863039
vn 0.8175742 0.5758232 0
vn 0.6503482 -0.6795456 0.3395069
vn -0.3170608 0.8153641 -0.4844107
vn -0.6771628 0.6479653 -0.3486998
vn -0.3364586 0.9416983 0
vn -0.001728356 0.9516189 -0.3072759
vn -0.8133682 0.5817492 0
vn -0.7628087 -0.6464552 -0.01478513
vn 0.1053285 0.9944375 0
vn 0.6114182 0.4124392 0.6753233
vn -0.07958817 -0.9968246 -0.00252541
vn -0.6771628 0.6479653 0.3486998
vn 0.3116577 -0.8372118 0.4493839
vn -0.001728356 0.9516189 0.3072759
vn -0.552587 -0.4848959 0.6778817
vn 0.02162963 -0.9578947 0.2863039
vn 0.03525513 -0.03525513 0.9987563
vn -0.3170608 0.8153641 0.4844107
g flower_stalk_mesh_0
f 3/3/3 2/2/2 1/1/1
f 4/4/4 3/3/3 1/1/1
f 1/1/1 2/2/2 5/5/5
f 4/4/4 1/1/1 5/5/5
f 6/6/6 4/4/4 5/5/5
f 6/6/6 5/5/5 7/7/7
f 2/2/2 7/7/7 5/5/5
f 6/6/6 8/8/8 4/4/4
f 8/8/8 3/3/3 4/4/4
f 8/8/8 6/6/6 7/7/7
f 3/3/3 9/9/9 2/2/2
f 2/2/2 10/10/10 7/7/7
f 9/9/9 10/10/10 2/2/2
f 8/8/8 7/7/7 11/11/11
f 10/10/10 11/11/11 7/7/7
f 8/8/8 12/12/12 3/3/3
f 12/12/12 9/9/9 3/3/3
f 12/12/12 8/8/8 11/11/11
f 9/9/9 13/13/13 10/10/10
f 10/10/10 14/14/14 11/11/11
f 13/13/13 14/14/14 10/10/10
f 12/12/12 11/11/11 15/15/15
f 14/14/14 15/15/15 11/11/11
f 12/12/12 16/16/16 9/9/9
f 16/16/16 13/13/13 9/9/9
f 16/16/16 12/12/12 15/15/15
f 13/13/13 17/17/17 14/14/14
f 14/14/14 18/18/18 15/15/15
f 17/17/17 18/18/18 14/14/14
f 16/16/16 15/15/15 19/19/19
f 18/18/18 19/19/19 15/15/15
f 16/16/16 20/20/20 13/13/13
f 20/20/20 17/17/17 13/13/13
f 20/20/20 16/16/16 19/19/19
f 17/17/17 21/21/21 18/18/18
f 18/18/18 22/22/22 19/19/19
f 21/21/21 22/22/22 18/18/18
f 20/20/20 19/19/19 23/23/23
f 22/22/22 23/23/23 19/19/19
f 20/20/20 24/24/24 17/17/17
f 24/24/24 21/21/21 17/17/17
f 24/24/24 20/20/20 23/23/23
f 21/21/21 25/25/25 22/22/22
f 22/22/22 26/26/26 23/23/23
f 25/25/25 26/26/26 22/22/22
f 24/24/24 23/23/23 27/27/27
f 26/26/26 27/27/27 23/23/23
f 24/24/24 28/28/28 21/21/21
f 28/28/28 25/25/25 21/21/21
f 28/28/28 24/24/24 27/27/27
f 25/25/25 29/29/29 26/26/26
f 26/26/26 30/30/30 27/27/27
f 29/29/29 30/30/30 26/26/26
f 28/28/28 27/27/27 31/31/31
f 30/30/30 31/31/31 27/27/27
f 28/28/28 32/32/32 25/25/25
f 32/32/32 29/29/29 25/25/25
f 32/32/32 28/28/28 31/31/31
f 29/29/29 33/33/33 30/30/30
f 30/30/30 34/34/34 31/31/31
f 33/33/33 34/34/34 30/30/30
f 32/32/32 31/31/31 35/35/35
f 34/34/34 35/35/35 31/31/31
f 32/32/32 36/36/36 29/29/29
f 36/36/36 33/33/33 29/29/29
f 36/36/36 32/32/32 35/35/35
f 33/33/33 37/37/37 34/34/34
f 34/34/34 38/38/38 35/35/35
f 37/37/37 38/38/38 34/34/34
f 39/39/39 37/37/37 33/33/33
f 36/36/36 39/39/39 33/33/33
f 37/37/37 39/39/39 38/38/38
f 36/36/36 35/35/35 40/40/40
f 38/38/38 40/40/40 35/35/35
f 39/39/39 40/40/40 38/38/38
f 39/39/39 36/36/36 40/40/40
f 43/43/43 42/42/42 41/41/41
f 44/44/44 43/43/43 41/41/41
f 41/41/41 45/45/45 44/44/44
f 41/41/41 42/42/42 46/46/46
f 46/46/46 45/45/45 41/41/41
f 47/47/47 43/43/43 44/44/44
f 44/44/44 45/45/45 48/48/48
f 48/48/48 47/47/47 44/44/44
f 42/42/42 49/49/49 46/46/46
f 50/50/50 45/45/45 46/46/46
f 46/46/46 49/49/49 50/50/50
f 43/43/43 51/51/51 42/42/42
f 47/47/47 52/52/52 43/43/43
f 52/52/52 51/51/51 43/43/43
f 52/52/52 53/53/53 51/51/51
f 51/51/51 54/54/54 42/42/42
f 42/42/42 54/54/54 49/49/49
f 51/51/51 53/53/53 54/54/54
f 55/55/55 52/52/52 47/47/47
f 55/55/55 53/53/53 52/52/52
f 56/56/56 47/47/47 48/48/48
f 56/56/56 55/55/55 47/47/47
f 54/54/54 57/57/57 49/49/49
f 54/54/54 53/53/53 57/57/57
f 49/49/49 58/58/58 50/50/50
f 49/49/49 57/57/57 58/58/58
f 48/48/48 45/45/45 59/59/59
f 59/59/59 56/56/56 48/48/48
f 60/60/60 55/55/55 56/56/56
f 60/60/60 53/53/53 55/55/55
f 61/61/61 45/45/45 50/50/50
f 50/50/50 58/58/58 61/61/61
f 57/57/57 62/62/62 58/58/58
f 57/57/57 53/53/53 62/62/62
f 63/63/63 56/56/56 59/59/59
f 63/63/63 60/60/60 56/56/56
f 59/59/59 45/45/45 64/64/64
f 64/64/64 45/45/45 61/61/61
f 64/64/64 63/63/63 59/59/59
f 58/58/58 65/65/65 61/61/61
f 61/61/61 65/65/65 64/64/64
f 58/58/58 62/62/62 65/65/65
f 65/65/65 63/63/63 64/64/64
f 66/66/66 53/53/53 60/60/60
f 62/62/62 53/53/53 66/66/66
f 66/66/66 60/60/60 63/63/63
f 65/65/65 66/66/66 63/63/63
f 62/62/62 66/66/66 65/65/65
