g flower_petal4_mesh
v -0.1966645 -0.04745223 0.1751587
v -0.2506186 -0.03424484 0.159984
v -0.2230991 0.1153423 0.3631341
v -0.1726933 0.08286664 0.3521462
v -0.1726933 0.08286664 0.3521462
v -0.2230991 0.1153423 0.3631341
v -0.02724573 0.2766384 0.4155513
v -0.002072349 0.2233841 0.3978081
v -0.002072349 0.2233841 0.3978081
v -0.02724573 0.2766384 0.4155513
v 0.1807581 0.3396107 0.3041064
v 0.1791466 0.2782462 0.3007146
v 0.1791466 0.2782462 0.3007146
v 0.1807581 0.3396107 0.3041064
v 0.2356114 0.2389942 0.09388873
v 0.226928 0.1905905 0.1175736
v 0.226928 0.1905905 0.1175736
v 0.2356114 0.2389942 0.09388873
v 0.08241129 -0.1382793 -0.217202
v 0.09346257 -0.1380862 -0.1534398
v 0.09346257 -0.1380862 -0.1534398
v 0.08241129 -0.1382793 -0.217202
v 0.01497093 -0.169618 -0.1979144
v 0.03471245 -0.1653872 -0.1366387
v 0.03471245 -0.1653872 -0.1366387
v 0.01497093 -0.169618 -0.1979144
v -0.07945302 -0.1685536 -0.1209007
v -0.0475505 -0.1644594 -0.06954546
v -0.0475505 -0.1644594 -0.06954546
v -0.07945302 -0.1685536 -0.1209007
v -0.2506186 -0.03424484 0.159984
v -0.1966645 -0.04745223 0.1751587
v -0.1726933 0.08286664 0.3521462
v 0.01451325 0.05858687 0.2517998
v -0.1966645 -0.04745223 0.1751587
v -0.002072349 0.2233841 0.3978081
v -0.0475505 -0.1644594 -0.06954546
v 0.1791466 0.2782462 0.3007146
v 0.03471245 -0.1653872 -0.1366387
v 0.226928 0.1905905 0.1175736
v 0.09346257 -0.1380862 -0.1534398
v -0.2506186 -0.03424484 0.159984
v -0.01571444 0.09901384 0.2404759
v -0.2230991 0.1153423 0.3631341
v -0.07945302 -0.1685536 -0.1209007
v -0.02724573 0.2766384 0.4155513
v 0.01497093 -0.169618 -0.1979144
v 0.1807581 0.3396107 0.3041064
v 0.08241129 -0.1382793 -0.217202
v 0.2356114 0.2389942 0.09388873
vt 0.1761046 0.03166776
vt 0.16348 0.03702387
vt 0.1639245 0.03807409
vt 0.1765491 0.03271798
vt 0.1765491 0.03271798
vt 0.1639245 0.03807409
vt 0.164369 0.03912431
vt 0.1769936 0.0337682
vt 0.1769936 0.0337682
vt 0.164369 0.03912431
vt 0.164816 0.04017209
vt 0.1774406 0.03481597
vt 0.1774406 0.03481597
vt 0.164816 0.04017209
vt 0.1652605 0.04122231
vt 0.1778851 0.03586619
vt 0.1778851 0.03586619
vt 0.1652605 0.04122231
vt 0.165705 0.04227253
vt 0.1783296 0.03691641
vt 0.1783296 0.03691641
vt 0.165705 0.04227253
vt 0.166152 0.04332031
vt 0.1787766 0.03796419
vt 0.1787766 0.03796419
vt 0.166152 0.04332031
vt 0.1665965 0.04437052
vt 0.1792211 0.03901441
vt 0.1792211 0.03901441
vt 0.1665965 0.04437052
vt 0.167041 0.04542074
vt 0.1796656 0.04006463
vt 0.18838 0.03141375
vt 0.1833414 0.03355082
vt 0.1884166 0.03577583
vt 0.1852684 0.0283559
vt 0.1853588 0.0388874
vt 0.1809063 0.02839254
vt 0.1809967 0.03892404
vt 0.1778485 0.03150412
vt 0.1778851 0.03586619
vt 0.157909 0.04872038
vt 0.1602536 0.04334717
vt 0.1547974 0.04566009
vt 0.1622711 0.0486813
vt 0.1547607 0.04129802
vt 0.1653289 0.04557217
vt 0.1578186 0.03818889
vt 0.1652923 0.0412101
vt 0.1621807 0.03814981
vn -0.3452787 -0.7329734 0.5861166
vn -0.3452787 -0.7329734 0.5861166
vn -0.3452787 -0.7329734 0.5861166
vn -0.3452787 -0.7329734 0.5861166
vn 0.005372345 -0.3139453 0.9494259
vn 0.005372345 -0.3139453 0.9494259
vn 0.005372345 -0.3139453 0.9494259
vn 0.005372345 -0.3139453 0.9494259
vn 0.4857644 -0.06147653 0.8719252
vn 0.4857644 -0.06147653 0.8719252
vn 0.4857644 -0.06147653 0.8719252
vn 0.4857644 -0.06147653 0.8719252
vn 0.9626499 -0.04043746 0.2677125
vn 0.9626499 -0.04043746 0.2677125
vn 0.9626499 -0.04043746 0.2677125
vn 0.9626499 -0.04043746 0.2677125
vn 0.9538836 -0.2508281 -0.1648982
vn 0.9538836 -0.2508281 -0.1648982
vn 0.9538836 -0.2508281 -0.1648982
vn 0.9538836 -0.2508281 -0.1648982
vn 0.4051146 -0.9118055 -0.06702983
vn 0.4051146 -0.9118055 -0.06702983
vn 0.4051146 -0.9118055 -0.06702983
vn 0.4051146 -0.9118055 -0.06702983
vn 0.03517765 -0.997715 0.05768284
vn 0.03517765 -0.997715 0.05768284
vn 0.03517765 -0.997715 0.05768284
vn 0.03517765 -0.997715 0.05768284
vn -0.2979409 -0.9188185 0.2588511
vn -0.2979409 -0.9188185 0.2588511
vn -0.2979409 -0.9188185 0.2588511
vn -0.2979409 -0.9188185 0.2588511
vn 0.2508281 -0.7242072 0.6423467
vn 0.4857644 -0.689142 0.5376953
vn 0.215763 -0.8153764 0.5372221
vn 0.4401797 -0.5699207 0.6938532
vn 0.3156986 -0.8066101 0.4997145
vn 0.6102455 -0.578687 0.5410377
vn 0.4366732 -0.7697918 0.4655504
vn 0.6575834 -0.613752 0.4369125
vn 0.5979728 -0.668103 0.4427945
vn -0.264629 0.7958655 -0.5445819
vn -0.4820328 0.6924233 -0.5368373
vn -0.3032006 0.7309951 -0.6113228
vn -0.3470321 0.7818395 -0.5179728
vn -0.4522274 0.6117736 -0.6490173
vn -0.4452144 0.7485275 -0.4914171
vn -0.5837215 0.6170334 -0.527768
vn -0.573202 0.6696311 -0.4722643
vn -0.6222932 0.6328127 -0.4607593
g flower_petal4_mesh_0
f 3/3/3 2/2/2 1/1/1
f 4/4/4 3/3/3 1/1/1
f 7/7/7 6/6/6 5/5/5
f 8/8/8 7/7/7 5/5/5
f 11/11/11 10/10/10 9/9/9
f 12/12/12 11/11/11 9/9/9
f 15/15/15 14/14/14 13/13/13
f 16/16/16 15/15/15 13/13/13
f 19/19/19 18/18/18 17/17/17
f 20/20/20 19/19/19 17/17/17
f 23/23/23 22/22/22 21/21/21
f 24/24/24 23/23/23 21/21/21
f 27/27/27 26/26/26 25/25/25
f 28/28/28 27/27/27 25/25/25
f 31/31/31 30/30/30 29/29/29
f 32/32/32 31/31/31 29/29/29
f 35/35/35 34/34/34 33/33/33
f 33/33/33 34/34/34 36/36/36
f 37/37/37 34/34/34 35/35/35
f 36/36/36 34/34/34 38/38/38
f 39/39/39 34/34/34 37/37/37
f 38/38/38 34/34/34 40/40/40
f 41/41/41 34/34/34 39/39/39
f 40/40/40 34/34/34 41/41/41
f 44/44/44 43/43/43 42/42/42
f 42/42/42 43/43/43 45/45/45
f 46/46/46 43/43/43 44/44/44
f 45/45/45 43/43/43 47/47/47
f 48/48/48 43/43/43 46/46/46
f 47/47/47 43/43/43 49/49/49
f 50/50/50 43/43/43 48/48/48
f 49/49/49 43/43/43 50/50/50
