g frankette_LeftEar
v 0.04906273 2.49935 -0.6607686
v -0.228099 2.442545 -0.6074003
v -0.2692223 2.329092 -0.914385
v 0.001529932 2.378122 -0.983171
v -0.01863241 -0.2844489 -0.1381574
v -0.2636434 -0.2022486 -0.1300083
v -0.2050741 -0.04064989 0.3072443
v 0.04906273 -0.1117816 0.3210578
v 0.04906273 -0.1117816 0.3210578
v -0.2050741 -0.04064989 0.3072443
v -0.2189981 1.460893 -0.2458245
v 0.04906273 1.467121 -0.2726352
v 0.04906273 2.49935 -0.6607686
v -0.228099 2.442545 -0.6074003
v -0.2050741 -0.04064989 0.3072443
v -0.2636434 -0.2022486 -0.1300083
v -0.3422041 1.120973 -1.165588
v -0.2189981 1.460893 -0.2458245
v -0.228099 2.442545 -0.6074003
v -0.2692223 2.329092 -0.914385
v -0.09333599 1.103912 -1.238591
v -0.3422041 1.120973 -1.165588
v -0.2636434 -0.2022486 -0.1300083
v -0.01863241 -0.2844489 -0.1381574
v -0.01863241 -0.2844489 -0.1381574
v 0.04906273 -0.1117816 0.3210578
v 0.04906273 1.467121 -0.2726352
v -0.09333599 1.103912 -1.238591
v 0.04906273 2.49935 -0.6607686
v 0.001529932 2.378122 -0.983171
v -0.09333599 1.103912 -1.238591
v 0.001529932 2.378122 -0.983171
v -0.2692223 2.329092 -0.914385
v -0.3422041 1.120973 -1.165588
vt 0.02243851 0.9687443
vt 0.04414257 0.9645784
vt 0.04737446 0.9886249
vt 0.02615963 0.9940064
vt 0.08689837 0.543158
vt 0.127549 0.5431728
vt 0.1276676 0.5709255
vt 0.08689837 0.5708514
vt 0.2127789 0.8415443
vt 0.2364251 0.8436346
vt 0.2377149 0.8878285
vt 0.2127789 0.8880064
vt 0.2127789 0.9183832
vt 0.2385599 0.9167079
vt 0.2143949 0.6986889
vt 0.2291014 0.6893491
vt 0.2639258 0.7657728
vt 0.2330005 0.7854013
vt 0.2451571 0.8420928
vt 0.2554755 0.8355401
vt 0.1842998 0.7262785
vt 0.1989026 0.7272719
vt 0.1942919 0.6496324
vt 0.1799115 0.6447994
vt 0.2089985 0.6217314
vt 0.1935655 0.6317087
vt 0.213535 0.7228984
vt 0.246017 0.7019208
vt 0.2265812 0.7825105
vt 0.2374184 0.7754982
vt 0.2129717 0.855984
vt 0.2057518 0.9136984
vt 0.2263736 0.9114746
vt 0.2319182 0.8567549
vn -0.2459549 0.9185088 -0.309593
vn -0.2459549 0.9185088 -0.309593
vn -0.2459549 0.9185088 -0.309593
vn -0.2459549 0.9185088 -0.309593
vn -0.276966 -0.8878896 0.3673444
vn -0.276966 -0.8878896 0.3673444
vn -0.276966 -0.8878896 0.3673444
vn -0.276966 -0.8878896 0.3673444
vn 0.06609464 0.3486793 0.9349087
vn 0.06609464 0.3486793 0.9349087
vn 0.0777238 0.3486793 0.9340138
vn 0.07966197 0.3486793 0.9338505
vn 0.09710574 0.3467411 0.9329208
vn 0.09710574 0.3467411 0.9329208
vn -0.9921602 0.03469157 0.120061
vn -0.9921602 0.03469157 0.120061
vn -0.9921602 0.03469157 0.120061
vn -0.9921602 0.03469157 0.120061
vn -0.9921602 0.03469157 0.120061
vn -0.9921602 0.03469157 0.120061
vn -0.2827806 -0.2696052 -0.9205152
vn -0.2827806 -0.2773579 -0.918209
vn -0.2459549 -0.6087894 -0.7542424
vn -0.2459549 -0.6087894 -0.7542424
vn 0.9906139 -0.04865086 -0.1277385
vn 0.9906139 -0.04865086 -0.1277385
vn 0.9906139 -0.04865086 -0.1277385
vn 0.9906139 -0.04865086 -0.1277385
vn 0.9906139 -0.04865086 -0.1277385
vn 0.9906139 -0.04865086 -0.1277385
vn -0.2827806 -0.2696052 -0.9205152
vn -0.2692132 0.2091292 -0.9401007
vn -0.2692132 0.2091292 -0.9401007
vn -0.2827806 -0.2773579 -0.918209
g frankette_LeftEar_0
f 3/3/3 2/2/2 1/1/1
f 4/4/4 3/3/3 1/1/1
f 7/7/7 6/6/6 5/5/5
f 8/8/8 7/7/7 5/5/5
f 11/11/11 10/10/10 9/9/9
f 12/12/12 11/11/11 9/9/9
f 12/12/12 13/13/13 11/11/11
f 13/13/13 14/14/14 11/11/11
f 17/17/17 16/16/16 15/15/15
f 18/18/18 17/17/17 15/15/15
f 18/18/18 19/19/19 17/17/17
f 19/19/19 20/20/20 17/17/17
f 23/23/23 22/22/22 21/21/21
f 24/24/24 23/23/23 21/21/21
f 27/27/27 26/26/26 25/25/25
f 28/28/28 27/27/27 25/25/25
f 27/27/27 28/28/28 29/29/29
f 28/28/28 30/30/30 29/29/29
f 33/33/33 32/32/32 31/31/31
f 34/34/34 33/33/33 31/31/31
