g greecesword
v -0.2391109 0.1535916 0.9590076
v -0.3755067 0.1163051 0.9590076
v -0.3361234 0.1289369 0.8465845
v -0.2240216 0.1515849 0.7268282
v 1.609325E-06 0.1811041 0.7262082
v 1.609325E-06 0.1811041 0.9590076
v 0.2391085 0.1562183 0.9590076
v 0.2240248 0.1562183 0.7262082
v 0.3361266 0.1307913 0.8465845
v 0.3755099 0.1163108 0.9590076
v 0.3361266 -1.609325E-06 0.8465845
v 0.2240248 0.1562183 0.7262082
v 0.2240248 -1.609325E-06 0.7262082
v 0.3361266 0.1307913 0.8465845
v 0.3755099 -1.609325E-06 0.9590076
v 0.3755099 0.1163108 0.9590076
v 0.3361266 0.00185287 0.8465845
v 0.3755099 -0.1163083 0.9590076
v 0.3361266 -0.1289344 0.8465845
v 0.2240248 0.004637361 0.7268282
v 0.2240248 -0.1515825 0.7268282
v -0.3755067 -1.609325E-06 0.9590076
v -0.3755067 0.1163051 0.9590076
v -0.2391109 0.1535916 0.9590076
v -0.2240216 -1.609325E-06 0.9590076
v -0.3755067 -0.1163083 0.9590076
v 1.609325E-06 0.1811041 0.9590076
v -0.2391109 -0.1562158 0.9590076
v 1.609325E-06 -1.609325E-06 0.9590076
v 0.2391085 0.1562183 0.9590076
v 1.609325E-06 -0.1811017 0.9590076
v 0.2240248 -1.609325E-06 0.9590076
v 0.3755099 0.1163108 0.9590076
v 0.2391141 -0.1535892 0.9590076
v 0.3755099 -1.609325E-06 0.9590076
v 0.3755099 -0.1163083 0.9590076
v 0.2240248 -1.609325E-06 0.7262082
v 0.2240248 0.1562183 0.7262082
v 1.609325E-06 0.1811041 0.7262082
v 1.609325E-06 -1.609325E-06 0.7262082
v -0.2240216 0.1515849 0.7268282
v -0.2240216 -0.004634917 0.7268282
v 0.2240248 -0.1515825 0.7268282
v 0.2240248 0.004637361 0.7268282
v 1.609325E-06 -0.1811017 0.7262082
v -0.2240216 -1.609325E-06 0.7262082
v -0.2240216 -0.1562158 0.7262082
v -0.2240216 -0.004634917 0.7268282
v -0.2240216 0.1515849 0.7268282
v -0.3361234 0.1289369 0.8465845
v -0.3361234 -0.001856089 0.8465845
v -0.3755067 0.1163051 0.9590076
v -0.3755067 -1.609325E-06 0.9590076
v -0.3755067 -0.1163083 0.9590076
v -0.3361234 -0.1307889 0.8465845
v -0.3361234 -1.609325E-06 0.8465845
v -0.2240216 -0.1562158 0.7262082
v -0.2240216 -1.609325E-06 0.7262082
v 0.2391141 -0.1535892 0.9590076
v 0.3755099 -0.1163083 0.9590076
v 0.3361266 -0.1289344 0.8465845
v 0.2240248 -0.1515825 0.7268282
v 1.609325E-06 -0.1811017 0.7262082
v 1.609325E-06 -0.1811017 0.9590076
v -0.2391109 -0.1562158 0.9590076
v -0.2240216 -0.1562158 0.7262082
v -0.3361234 -0.1307889 0.8465845
v -0.3755067 -0.1163083 0.9590076
v -0.2240216 -1.609325E-06 0.8480387
v 1.609325E-06 0.06885576 0.8480387
v 1.609325E-06 0.06885576 1.694794
v -0.2476279 -1.609325E-06 1.694794
v 1.609325E-06 0.06885576 4.524919
v 1.609325E-06 -0.06885338 1.694794
v 1.609325E-06 -0.06885338 0.8480387
v 1.609325E-06 -0.06885338 4.524919
v -0.2921969 -1.609325E-06 4.524919
v -0.2784041 -1.609325E-06 4.859753
v 1.609325E-06 -1.609325E-06 5.194587
v 0.2476311 -1.609325E-06 1.694794
v 1.609325E-06 0.06885576 0.8480387
v 0.2240248 -1.609325E-06 0.8480387
v 1.609325E-06 0.06885576 1.694794
v 1.609325E-06 -0.06885338 0.8480387
v 1.609325E-06 -0.06885338 1.694794
v 1.609325E-06 0.06885576 4.524919
v 1.609325E-06 -0.06885338 4.524919
v 0.2922002 -1.609325E-06 4.524925
v 0.2784073 -1.609325E-06 4.859753
v 1.609325E-06 -1.609325E-06 5.194587
v 0.07882458 0.1365294 -0.474236
v 0.0943085 0.1633487 -0.5452014
v 0.188621 -1.609325E-06 -0.5452014
v 0.1576532 -1.609325E-06 -0.474236
v -0.07882702 0.1365294 -0.474236
v 0.0943085 -0.1633519 -0.5452014
v 0.07882458 -0.1365327 -0.474236
v -0.09431088 0.1633487 -0.5452014
v -0.15765 -1.609325E-06 -0.474236
v -0.09431088 -0.1633519 -0.5452014
v -0.07882702 -0.1365327 -0.474236
v -0.1886234 -1.609325E-06 -0.5452014
v 0.07120949 -0.1233373 -0.6646196
v 0.1424173 -1.609325E-06 -0.6646196
v 0.07120949 0.1233341 -0.6646196
v -0.07120627 -0.1233373 -0.6646196
v 1.609325E-06 -1.609325E-06 -0.7158681
v -0.07120627 0.1233341 -0.6646196
v -0.1424141 -1.609325E-06 -0.6646196
v 0.07882458 0.1365294 0.3931325
v 0.07882458 0.1365294 0.7648587
v -0.07882702 0.1365294 0.7648587
v -0.07882702 0.1365294 0.3931325
v -0.15765 -1.609325E-06 0.7648587
v 0.1576532 -1.609325E-06 0.3931325
v 0.1576532 -1.609325E-06 0.7648587
v -0.15765 -1.609325E-06 0.3931325
v -0.07882702 -0.1365327 0.7648587
v 0.07882458 -0.1365327 0.3931325
v 0.07882458 -0.1365327 0.7648587
v -0.07882702 -0.1365327 0.3931325
v 0.07882458 0.1365294 -0.1272886
v 0.1576532 -1.609325E-06 -0.1272886
v -0.07882702 0.1365294 -0.1272886
v -0.15765 -1.609325E-06 -0.1272886
v -0.07882702 -0.1365327 -0.1272886
v 0.07882458 -0.1365327 -0.1272886
v 0.07882458 0.1365294 -0.474236
v -0.07882702 0.1365294 -0.474236
v 0.1576532 -1.609325E-06 -0.474236
v -0.15765 -1.609325E-06 -0.474236
v 0.07882458 -0.1365327 -0.474236
v -0.07882702 -0.1365327 -0.474236
vt 0.4683111 0.447049
vt 0.4819221 0.4477582
vt 0.4774078 0.4587916
vt 0.4655834 0.4701659
vt 0.4432167 0.4690612
vt 0.4444305 0.4457943
vt 0.4205226 0.4445396
vt 0.420809 0.4678883
vt 0.4102121 0.4552729
vt 0.4068571 0.4438304
vt 0.4204271 0.4841997
vt 0.4258825 0.4919599
vt 0.4258825 0.4846361
vt 0.4204271 0.4903232
vt 0.4184223 0.4837905
vt 0.4184223 0.4892322
vt 0.4204271 0.4842815
vt 0.4184223 0.4783352
vt 0.4204271 0.4781579
vt 0.4258825 0.4848543
vt 0.4258825 0.4775305
vt 0.3742207 0.2660147
vt 0.3742207 0.2632052
vt 0.3709066 0.2622914
vt 0.3705384 0.266001
vt 0.3742207 0.2688242
vt 0.3651103 0.2616095
vt 0.3709066 0.2697788
vt 0.3651103 0.2659874
vt 0.3593141 0.2621823
vt 0.3651103 0.2703653
vt 0.3596823 0.2659601
vt 0.3559999 0.263137
vt 0.3593141 0.2696697
vt 0.3559999 0.2659465
vt 0.3559999 0.2687696
vt 0.4270554 0.5296288
vt 0.4270554 0.5369525
vt 0.4375841 0.5380844
vt 0.4375841 0.5296015
vt 0.4481128 0.5366797
vt 0.4481128 0.529356
vt 0.4270554 0.5225232
vt 0.4270554 0.529847
vt 0.4375841 0.5211185
vt 0.4481128 0.5295742
vt 0.4481128 0.5222505
vt 0.4469263 0.4843633
vt 0.4469263 0.4916871
vt 0.4520134 0.4901596
vt 0.4520134 0.484036
vt 0.4537045 0.4891503
vt 0.4537045 0.4836951
vt 0.4537045 0.4782534
vt 0.4520134 0.4779943
vt 0.4520134 0.4841179
vt 0.4469263 0.4772578
vt 0.4469263 0.4845815
vt 0.4683111 0.447049
vt 0.4819221 0.4477582
vt 0.4774078 0.4587916
vt 0.4655834 0.4701659
vt 0.4432167 0.4690612
vt 0.4444305 0.4457943
vt 0.4205226 0.4445396
vt 0.420809 0.4678883
vt 0.4102121 0.4552729
vt 0.4068571 0.4438304
vt 0.7786635 0.7246696
vt 0.7877739 0.7130907
vt 0.8282932 0.7118906
vt 0.8147913 0.7278201
vt 0.9637076 0.7078537
vt 0.8282932 0.7118906
vt 0.7877739 0.7130907
vt 0.9637076 0.7078537
vt 0.9355991 0.7343119
vt 0.9499056 0.7321298
vt 0.9957575 0.7069535
vt 0.8297252 0.6896465
vt 0.7894378 0.7130907
vt 0.7892469 0.6910377
vt 0.8299298 0.6986206
vt 0.7894378 0.7130907
vt 0.8299298 0.6986206
vt 0.932585 0.6968339
vt 0.932585 0.6968339
vt 0.9323395 0.686237
vt 0.9483645 0.6865234
vt 0.9646077 0.6964248
vt 0.3923187 0.9621937
vt 0.4079481 0.9626437
vt 0.4078663 0.9645941
vt 0.3923187 0.9644304
vt 0.3923187 0.9581159
vt 0.4080027 0.9626437
vt 0.3923187 0.9621937
vt 0.4079345 0.9577476
vt 0.3923187 0.9560156
vt 0.40803 0.9577476
vt 0.3923187 0.9581159
vt 0.4088073 0.9559474
vt 0.3687654 0.9621255
vt 0.3687654 0.9645122
vt 0.3687654 0.9621255
vt 0.3687654 0.9584295
vt 0.3209087 0.9605162
vt 0.3687654 0.9584295
vt 0.3687654 0.9558928
vt 0.1374467 0.1048376
vt 0.1788525 0.1048376
vt 0.1788525 0.1029283
vt 0.1374467 0.1029283
vt 0.1788525 0.1019736
vt 0.1374467 0.1057923
vt 0.1788525 0.1057923
vt 0.1374467 0.1019736
vt 0.1788525 0.1029283
vt 0.1374467 0.1048376
vt 0.1788525 0.1048376
vt 0.1374467 0.1029283
vt 0.1788525 0.1048376
vt 0.1788525 0.1057923
vt 0.1788525 0.1029283
vt 0.1788525 0.1019736
vt 0.1788525 0.1029283
vt 0.1788525 0.1048376
vt 0.1374467 0.1048376
vt 0.1374467 0.1029283
vt 0.1374467 0.1057923
vt 0.1374467 0.1019736
vt 0.1374467 0.1048376
vt 0.1374467 0.1029283
vn -0.2394916 0.970674 -0.02087224
vn -0.262952 0.9648089 0
vn -0.2335577 0.9723428 0
vn -0.1221895 0.9921794 -0.0254902
vn -0.006842457 0.9999766 0
vn -0.006842613 0.9491687 0.3146935
vn 0.2551318 0.966764 0.0165872
vn 0.2375365 0.970674 -0.03699033
vn 0.2491982 0.9684524 0
vn 0.2805473 0.9589438 0.0414723
vn 0.73216 0.0009775162 -0.681132
vn 0.2375365 0.970674 -0.03699033
vn 0.73216 0.0009775162 -0.681132
vn 0.2491982 0.9684524 0
vn -0.0009775162 0.0009775162 0.999999
vn 0.2805473 0.9589438 0.0414723
vn 0.9433036 0.0009775162 -0.3319298
vn 0.262952 -0.9648089 0
vn 0.2335577 -0.9723428 0
vn 0.002932549 0.0009775162 -0.9999952
vn 0.1221896 -0.9921794 -0.0254902
vn -0.9433036 0.0009775162 -0.3319298
vn -0.262952 0.9648089 0
vn -0.2394916 0.970674 -0.02087224
vn -0.0009775162 0.0009775162 0.999999
vn -0.2805473 -0.9589438 0.0414723
vn -0.006842613 0.9491687 0.3146935
vn -0.2551318 -0.966764 0.0165872
vn -0.0009775162 0.0009775162 0.999999
vn 0.2551318 0.966764 0.0165872
vn 0.006842613 -0.9491687 0.3146935
vn -0.0009775162 0.0009775162 0.999999
vn 0.2805473 0.9589438 0.0414723
vn 0.2394916 -0.970674 -0.02087224
vn -0.0009775162 0.0009775162 0.999999
vn 0.262952 -0.9648089 0
vn 0.73216 0.0009775162 -0.681132
vn 0.2375365 0.970674 -0.03699033
vn -0.006842457 0.9999766 0
vn -0.0009775162 0.0009775162 -0.999999
vn -0.1221895 0.9921794 -0.0254902
vn -0.002932549 0.0009775162 -0.9999952
vn 0.1221896 -0.9921794 -0.0254902
vn 0.002932549 0.0009775162 -0.9999952
vn 0.006842457 -0.9999766 0
vn -0.73216 0.0009775162 -0.681132
vn -0.2375365 -0.970674 -0.03699033
vn -0.002932549 0.0009775162 -0.9999952
vn -0.1221895 0.9921794 -0.0254902
vn -0.2335577 0.9723428 0
vn -0.9433036 0.0009775162 -0.3319298
vn -0.262952 0.9648089 0
vn -0.9433036 0.0009775162 -0.3319298
vn -0.2805473 -0.9589438 0.0414723
vn -0.2491982 -0.9684524 0
vn -0.73216 0.0009775162 -0.681132
vn -0.2375365 -0.970674 -0.03699033
vn -0.73216 0.0009775162 -0.681132
vn 0.2394916 -0.970674 -0.02087224
vn 0.262952 -0.9648089 0
vn 0.2335577 -0.9723428 0
vn 0.1221896 -0.9921794 -0.0254902
vn 0.006842457 -0.9999766 0
vn 0.006842613 -0.9491687 0.3146935
vn -0.2551318 -0.966764 0.0165872
vn -0.2375365 -0.970674 -0.03699033
vn -0.2491982 -0.9684524 0
vn -0.2805473 -0.9589438 0.0414723
vn -0.2805473 0.9589438 -0.0414723
vn -0.0009775162 0.9999995 0
vn -0.0009775162 0.9999995 0
vn -0.2531768 0.966764 -0.03562195
vn -0.0009775162 0.9999995 0
vn -0.0009775162 -0.9999995 0
vn -0.0009775162 -0.9999995 0
vn -0.0009775162 -0.9999995 0
vn -0.2453567 0.968719 -0.03719601
vn -0.14174 0.9863143 0.08422533
vn -0.0009775162 0.9941344 0.1081471
vn 0.2531768 0.966764 -0.03562195
vn -0.0009775162 0.9999995 0
vn 0.2805473 0.9589438 -0.0414723
vn -0.0009775162 0.9999995 0
vn -0.0009775162 -0.9999995 0
vn -0.0009775162 -0.9999995 0
vn -0.0009775162 0.9999995 0
vn -0.0009775162 -0.9999995 0
vn 0.2453567 0.968719 -0.03719601
vn 0.1417399 0.9863143 0.08422533
vn -0.0009775162 0.9941344 0.1081471
vn 0.8103613 0.4682305 0.3522426
vn -0.0009775162 0.9980445 -0.0625
vn 0.8651022 -0.499511 -0.04568236
vn 0.8103613 0.4682305 0.3522426
vn -0.8103613 0.4682305 0.3522426
vn -0.0009775162 -0.9980445 -0.0625
vn 0.8103613 -0.4682305 0.3522426
vn -0.0009775162 0.9980445 -0.0625
vn -0.8103613 -0.4682305 0.3522426
vn -0.8651022 -0.499511 -0.04568366
vn -0.0009775162 -0.9354835 0.3533691
vn -0.8651022 0.499511 -0.04568366
vn 0.1691104 -0.2922775 -0.9412628
vn 0.3391983 0.0009775162 -0.9407144
vn 0.1691104 0.2922775 -0.9412628
vn -0.1691104 -0.2922775 -0.9412628
vn -0.0009775162 0.0009775162 -0.999999
vn -0.1691104 0.2922775 -0.9412628
vn -0.3391982 0.0009775162 -0.9407144
vn -0.0009775162 0.9999995 0
vn -0.0009775162 0.9999995 0
vn -0.0009775162 0.9999995 0
vn -0.0009775162 0.9999995 0
vn -0.8651022 0.499511 -0.04568366
vn 0.8651022 -0.499511 -0.04568236
vn 0.8651022 -0.499511 -0.04568236
vn -0.8651022 0.499511 -0.04568366
vn -0.8651022 -0.499511 -0.04568366
vn -0.0009775162 -0.9999995 0
vn -0.0009775162 -0.9999995 0
vn -0.8651022 -0.499511 -0.04568366
vn -0.0009775162 0.9999995 0
vn 0.8651022 -0.499511 -0.04568236
vn -0.0009775162 0.9999995 0
vn -0.8651022 0.499511 -0.04568366
vn -0.8651022 -0.499511 -0.04568366
vn -0.0009775162 -0.9999995 0
vn 0.8103613 0.4682305 0.3522426
vn -0.8103613 0.4682305 0.3522426
vn 0.8103613 0.4682305 0.3522426
vn -0.8103613 -0.4682305 0.3522426
vn 0.8103613 -0.4682305 0.3522426
vn -0.0009775162 -0.9354835 0.3533691
g greecesword_0
f 3/3/3 2/2/2 1/1/1
f 1/1/1 4/4/4 3/3/3
f 5/5/5 4/4/4 1/1/1
f 6/6/6 5/5/5 1/1/1
f 6/6/6 7/7/7 5/5/5
f 7/7/7 8/8/8 5/5/5
f 7/7/7 9/9/9 8/8/8
f 7/7/7 10/10/10 9/9/9
f 13/13/13 12/12/12 11/11/11
f 12/12/12 14/14/14 11/11/11
f 11/11/11 14/14/14 15/15/15
f 14/14/14 16/16/16 15/15/15
f 15/15/15 18/18/18 17/17/17
f 18/18/18 19/19/19 17/17/17
f 17/17/17 19/19/19 20/20/20
f 19/19/19 21/21/21 20/20/20
f 24/24/24 23/23/23 22/22/22
f 25/25/25 24/24/24 22/22/22
f 22/22/22 26/26/26 25/25/25
f 27/27/27 24/24/24 25/25/25
f 26/26/26 28/28/28 25/25/25
f 29/29/29 27/27/27 25/25/25
f 25/25/25 28/28/28 29/29/29
f 30/30/30 27/27/27 29/29/29
f 28/28/28 31/31/31 29/29/29
f 32/32/32 30/30/30 29/29/29
f 29/29/29 31/31/31 32/32/32
f 33/33/33 30/30/30 32/32/32
f 31/31/31 34/34/34 32/32/32
f 35/35/35 33/33/33 32/32/32
f 32/32/32 34/34/34 35/35/35
f 34/34/34 36/36/36 35/35/35
f 39/39/39 38/38/38 37/37/37
f 40/40/40 39/39/39 37/37/37
f 41/41/41 39/39/39 40/40/40
f 42/42/42 41/41/41 40/40/40
f 44/44/44 43/43/43 40/40/40
f 43/43/43 45/45/45 40/40/40
f 40/40/40 45/45/45 46/46/46
f 45/45/45 47/47/47 46/46/46
f 50/50/50 49/49/49 48/48/48
f 51/51/51 50/50/50 48/48/48
f 52/52/52 50/50/50 51/51/51
f 53/53/53 52/52/52 51/51/51
f 55/55/55 54/54/54 53/53/53
f 56/56/56 55/55/55 53/53/53
f 57/57/57 55/55/55 56/56/56
f 58/58/58 57/57/57 56/56/56
f 61/61/61 60/60/60 59/59/59
f 59/59/59 62/62/62 61/61/61
f 63/63/63 62/62/62 59/59/59
f 64/64/64 63/63/63 59/59/59
f 64/64/64 65/65/65 63/63/63
f 65/65/65 66/66/66 63/63/63
f 65/65/65 67/67/67 66/66/66
f 65/65/65 68/68/68 67/67/67
f 71/71/71 70/70/70 69/69/69
f 72/72/72 71/71/71 69/69/69
f 71/71/71 72/72/72 73/73/73
f 74/74/74 72/72/72 69/69/69
f 75/75/75 74/74/74 69/69/69
f 72/72/72 74/74/74 76/76/76
f 72/72/72 77/77/77 73/73/73
f 77/77/77 72/72/72 76/76/76
f 78/78/78 73/73/73 77/77/77
f 76/76/76 78/78/78 77/77/77
f 79/79/79 73/73/73 78/78/78
f 76/76/76 79/79/79 78/78/78
f 82/82/82 81/81/81 80/80/80
f 81/81/81 83/83/83 80/80/80
f 84/84/84 82/82/82 80/80/80
f 85/85/85 84/84/84 80/80/80
f 83/83/83 86/86/86 80/80/80
f 87/87/87 85/85/85 80/80/80
f 86/86/86 88/88/88 80/80/80
f 88/88/88 87/87/87 80/80/80
f 88/88/88 86/86/86 89/89/89
f 87/87/87 88/88/88 89/89/89
f 89/89/89 86/86/86 90/90/90
f 87/87/87 89/89/89 90/90/90
f 93/93/93 92/92/92 91/91/91
f 94/94/94 93/93/93 91/91/91
f 91/91/91 92/92/92 95/95/95
f 96/96/96 93/93/93 94/94/94
f 97/97/97 96/96/96 94/94/94
f 92/92/92 98/98/98 95/95/95
f 95/95/95 98/98/98 99/99/99
f 100/100/100 96/96/96 97/97/97
f 101/101/101 100/100/100 97/97/97
f 99/99/99 102/102/102 101/101/101
f 98/98/98 102/102/102 99/99/99
f 102/102/102 100/100/100 101/101/101
f 96/96/96 103/103/103 93/93/93
f 93/93/93 104/104/104 92/92/92
f 103/103/103 104/104/104 93/93/93
f 92/92/92 105/105/105 98/98/98
f 104/104/104 105/105/105 92/92/92
f 100/100/100 106/106/106 96/96/96
f 106/106/106 103/103/103 96/96/96
f 103/103/103 107/107/107 104/104/104
f 104/104/104 107/107/107 105/105/105
f 106/106/106 107/107/107 103/103/103
f 105/105/105 108/108/108 98/98/98
f 98/98/98 108/108/108 102/102/102
f 105/105/105 107/107/107 108/108/108
f 109/109/109 106/106/106 100/100/100
f 102/102/102 109/109/109 100/100/100
f 108/108/108 109/109/109 102/102/102
f 108/108/108 107/107/107 109/109/109
f 109/109/109 107/107/107 106/106/106
f 112/112/112 111/111/111 110/110/110
f 113/113/113 112/112/112 110/110/110
f 114/114/114 112/112/112 113/113/113
f 110/110/110 111/111/111 115/115/115
f 111/111/111 116/116/116 115/115/115
f 117/117/117 114/114/114 113/113/113
f 118/118/118 114/114/114 117/117/117
f 115/115/115 116/116/116 119/119/119
f 116/116/116 120/120/120 119/119/119
f 120/120/120 118/118/118 121/121/121
f 121/121/121 118/118/118 117/117/117
f 119/119/119 120/120/120 121/121/121
f 113/113/113 110/110/110 122/122/122
f 110/110/110 115/115/115 123/123/123
f 122/122/122 110/110/110 123/123/123
f 117/117/117 113/113/113 124/124/124
f 124/124/124 113/113/113 122/122/122
f 121/121/121 117/117/117 125/125/125
f 125/125/125 117/117/117 124/124/124
f 119/119/119 121/121/121 126/126/126
f 126/126/126 121/121/121 125/125/125
f 115/115/115 119/119/119 127/127/127
f 123/123/123 115/115/115 127/127/127
f 127/127/127 119/119/119 126/126/126
f 124/124/124 122/122/122 128/128/128
f 129/129/129 124/124/124 128/128/128
f 125/125/125 124/124/124 129/129/129
f 128/128/128 122/122/122 130/130/130
f 122/122/122 123/123/123 130/130/130
f 131/131/131 125/125/125 129/129/129
f 126/126/126 125/125/125 131/131/131
f 130/130/130 123/123/123 132/132/132
f 123/123/123 127/127/127 132/132/132
f 133/133/133 126/126/126 131/131/131
f 132/132/132 127/127/127 133/133/133
f 127/127/127 126/126/126 133/133/133
