g heart_broken_l_mesh
v 0.010373 -0.4863861 0.03586179
v -0.1355111 -0.25562 -0.1530688
v 0.010373 -0.4863861 -0.1530688
v -0.1355111 -0.25562 0.03586179
v -0.2366578 -0.2200246 0.1530693
v -0.0531621 -0.4228785 0.1530693
v -0.2359596 -0.252184 0.1530693
v -0.03127092 -0.2198798 0.03586179
v -0.03127092 -0.2198798 -0.1530688
v -0.1021846 0.008011848 -0.1530688
v -0.113938 -0.1779485 0.1530693
v -0.1882876 0.06098205 0.1530693
v -0.1894221 0.1780071 0.1530693
v -0.1021846 0.008011848 0.03586179
v 0.09510103 0.04108053 0.03586179
v 0.09510103 0.04108053 -0.1530688
v -0.08693504 0.1825491 -0.1530688
v 0.008001119 0.06306952 0.1530693
v -0.08693504 0.1825491 0.03586179
v -0.0420804 0.2242704 0.03586179
v -0.0420804 0.2242704 -0.1530688
v 0.002773196 0.2659918 -0.1530688
v -0.1385506 0.2253254 0.1530693
v 0.002773196 0.2659918 0.03586179
v -0.1188234 0.4179875 -0.1530688
v -0.08767915 0.2726446 0.1530693
v -0.1582259 0.360827 0.1530693
v -0.1188234 0.4179875 0.03586179
v -0.3256974 0.4146575 0.1530693
v -0.3316174 0.4863856 0.03586179
v -0.3316174 0.4863856 -0.1530688
v -0.5824103 0.3571892 -0.1530688
v -0.5159347 0.04178995 0.1530693
v -0.5824103 0.3571892 0.03586179
v -0.5824103 0.01519883 -0.1530688
v -0.5159347 0.3166564 0.1530693
v -0.5824103 0.01519883 0.03586179
v -0.2784189 -0.3039912 0.03586179
v -0.0531621 -0.4228785 0.1530693
v -0.2784189 -0.3039912 -0.1530688
v 0.010373 -0.4863861 0.03586179
v 0.010373 -0.4863861 -0.1530688
vt 0.1635118 0.0469802
vt 0.1562898 0.03443852
vt 0.1535611 0.037227
vt 0.1662431 0.04419171
vt 0.1744033 0.05219074
vt 0.1716719 0.05497662
vt 0.1880598 0.03825872
vt 0.1676075 0.04279877
vt 0.1576568 0.03304558
vt 0.1590211 0.03165263
vt 0.1757676 0.05079779
vt 0.1771346 0.04940485
vt 0.1798659 0.04661897
vt 0.1689744 0.04140583
vt 0.1703388 0.04001289
vt 0.1603881 0.03025969
vt 0.1617524 0.02886675
vt 0.1784989 0.04801191
vt 0.1717057 0.03861994
vt 0.1723866 0.03792347
vt 0.1624359 0.02817028
vt 0.1631194 0.02747381
vt 0.1805494 0.0459225
vt 0.1730701 0.037227
vt 0.1644837 0.02608086
vt 0.1812302 0.04522603
vt 0.1825972 0.04383048
vt 0.174437 0.03583406
vt 0.1839615 0.04243754
vt 0.1758014 0.03444112
vt 0.1658507 0.02468532
vt 0.167215 0.02329238
vt 0.1866928 0.03965165
vt 0.1771657 0.03304558
vt 0.168582 0.02189944
vt 0.1853285 0.0410446
vt 0.1785327 0.03165263
vt 0.1798971 0.03025969
vt 0.1894242 0.03686577
vt 0.1699464 0.02050649
vt 0.181264 0.02886675
vt 0.1713107 0.01911355
vn 0.3278354 -0.8776858 0.3495592
vn 0.9880776 0.153957 0
vn 0.3199923 -0.9474201 0
vn 0.9534602 0.1676129 0.2506382
vn 0.1141126 0.01800698 0.9933046
vn 0.1549142 -0.2734332 0.9493344
vn -0.1326401 -0.1432566 0.9807569
vn 0.9651179 -0.1296561 0.2274572
vn 0.9920635 -0.1257378 0
vn 0.8990581 -0.4366397 -0.0322536
vn 0.1743436 -0.02668053 0.9843233
vn 0.1102268 -0.04805285 0.9927441
vn 0.0752539 0.05880862 0.9954287
vn 0.8504847 -0.4152674 0.3228447
vn 0.9612319 -0.0752539 0.2652734
vn 0.9962048 -0.0869115 -0.004730766
vn 0.7999684 0.5989444 -0.03627892
vn 0.2442892 -0.01308 0.9696142
vn 0.7649956 0.5970014 0.2416011
vn 0.663963 -0.7144793 0.2206182
vn 0.6813993 -0.7319119 0
vn 0.9299596 0.3676618 0
vn 0.02668053 -0.02862346 0.9992341
vn 0.9204304 0.3385912 0.195356
vn 0.5512728 0.8340394 -0.02183114
vn 0.1082838 0.03160745 0.9936174
vn 0.06553924 0.105439 0.9922637
vn 0.5357293 0.8223818 0.1915263
vn -0.01994985 0.1617841 0.9866245
vn -0.1268113 0.9719877 0.197886
vn -0.1306972 0.9914171 -0.003220436
vn -0.8823596 0.4705757 0
vn -0.2220151 -0.1043979 0.9694381
vn -0.8651263 0.4590531 0.2020562
vn -0.9078708 -0.4172103 -0.04130507
vn -0.1909282 0.09961015 0.9765369
vn -0.8884415 -0.4133245 0.1995861
vn -0.6475176 -0.7436233 0.166569
vn 0.1549142 -0.2734332 0.9493344
vn -0.6455747 -0.7630527 -0.03136613
vn 0.3278354 -0.8776858 0.3495592
vn 0.3199923 -0.9474201 0
g heart_broken_l_mesh_0
f 3/3/3 2/2/2 1/1/1
f 2/2/2 4/4/4 1/1/1
f 1/1/1 4/4/4 5/5/5
f 6/6/6 1/1/1 5/5/5
f 7/7/7 6/6/6 5/5/5
f 8/8/8 4/4/4 2/2/2
f 9/9/9 8/8/8 2/2/2
f 9/9/9 10/10/10 8/8/8
f 5/5/5 4/4/4 11/11/11
f 4/4/4 8/8/8 11/11/11
f 11/11/11 8/8/8 12/12/12
f 5/5/5 11/11/11 12/12/12
f 12/12/12 13/13/13 5/5/5
f 10/10/10 14/14/14 8/8/8
f 8/8/8 14/14/14 12/12/12
f 15/15/15 14/14/14 10/10/10
f 16/16/16 15/15/15 10/10/10
f 16/16/16 17/17/17 15/15/15
f 12/12/12 14/14/14 18/18/18
f 12/12/12 18/18/18 13/13/13
f 14/14/14 15/15/15 18/18/18
f 18/18/18 15/15/15 13/13/13
f 17/17/17 19/19/19 15/15/15
f 15/15/15 19/19/19 13/13/13
f 20/20/20 19/19/19 17/17/17
f 21/21/21 20/20/20 17/17/17
f 21/21/21 22/22/22 20/20/20
f 13/13/13 19/19/19 23/23/23
f 19/19/19 20/20/20 23/23/23
f 22/22/22 24/24/24 20/20/20
f 22/22/22 25/25/25 24/24/24
f 23/23/23 20/20/20 26/26/26
f 20/20/20 24/24/24 26/26/26
f 23/23/23 26/26/26 27/27/27
f 27/27/27 13/13/13 23/23/23
f 26/26/26 24/24/24 27/27/27
f 25/25/25 28/28/28 24/24/24
f 24/24/24 28/28/28 27/27/27
f 27/27/27 29/29/29 13/13/13
f 27/27/27 28/28/28 29/29/29
f 29/29/29 5/5/5 13/13/13
f 30/30/30 28/28/28 25/25/25
f 28/28/28 30/30/30 29/29/29
f 31/31/31 30/30/30 25/25/25
f 31/31/31 32/32/32 30/30/30
f 5/5/5 29/29/29 33/33/33
f 5/5/5 33/33/33 7/7/7
f 32/32/32 34/34/34 30/30/30
f 32/32/32 35/35/35 34/34/34
f 29/29/29 30/30/30 36/36/36
f 29/29/29 36/36/36 33/33/33
f 30/30/30 34/34/34 36/36/36
f 36/36/36 34/34/34 33/33/33
f 34/34/34 37/37/37 33/33/33
f 33/33/33 37/37/37 7/7/7
f 35/35/35 37/37/37 34/34/34
f 37/37/37 38/38/38 7/7/7
f 38/38/38 37/37/37 35/35/35
f 7/7/7 38/38/38 39/39/39
f 40/40/40 38/38/38 35/35/35
f 38/38/38 41/41/41 39/39/39
f 40/40/40 42/42/42 38/38/38
f 42/42/42 41/41/41 38/38/38
