g heart_mesh
v 0.01037264 -0.4863865 0.02886409
v 0.2845809 -0.3126689 -0.1040871
v 0.01037264 -0.4863865 -0.1040871
v 0.2845809 -0.3126689 0.02886409
v 0.1769096 -0.190361 0.1530694
v 0.01024044 -0.2959494 0.1530694
v 0.5547844 0.01350534 0.02886409
v 0.5547844 0.01350534 -0.1040871
v 0.5824104 0.3710548 -0.1040871
v 0.3982563 0.07683659 0.1530694
v 0.5824104 0.3710548 0.02886409
v 0.4131097 0.2690744 0.1530694
v 0.3404494 0.3006029 0.1530694
v 0.3388575 0.4767321 0.02886409
v 0.3388575 0.4767321 -0.1040871
v 0.1257044 0.3796295 -0.1040871
v 0.2159607 0.2438912 0.1530694
v 0.1005223 0.1371808 0.1530694
v 0.1257044 0.3796295 0.02886409
v 0.06423825 0.3228112 0.02886409
v 0.06423825 0.3228112 -0.1040871
v 0.002773225 0.2659917 -0.1040871
v -0.01491612 0.03047037 0.1530694
v -0.1756232 -0.1785625 0.1530694
v 0.002773225 0.2659917 0.02886409
v -0.1188238 0.4179875 -0.1040871
v -0.214219 0.2795998 0.1530694
v -0.1188238 0.4179875 0.02886409
v -0.3316181 0.4863854 0.02886409
v -0.3316181 0.4863854 -0.1040871
v -0.5824104 0.3571901 -0.1040871
v -0.3172846 0.3127279 0.1530694
v -0.5824104 0.3571901 0.02886409
v -0.5824104 0.01519936 -0.1040871
v -0.4214689 0.07957596 0.1530694
v -0.4214689 0.2590578 0.1530694
v -0.5824104 0.01519936 0.02886409
v -0.278419 -0.3039909 0.02886409
v -0.278419 -0.3039909 -0.1040871
v 0.01024044 -0.2959494 0.1530694
v 0.01037264 -0.4863865 -0.1040871
v 0.01037264 -0.4863865 0.02886409
vt 0.1586148 0.03440785
vt 0.1619123 0.02495842
vt 0.1580188 0.02521208
vt 0.1625083 0.03415665
vt 0.1635525 0.05026772
vt 0.159659 0.05051892
vt 0.1644539 0.03403105
vt 0.1638579 0.02483282
vt 0.1658059 0.02470722
vt 0.165498 0.05014212
vt 0.1664019 0.03390299
vt 0.167446 0.05001406
vt 0.1693916 0.04988846
vt 0.1683474 0.03377739
vt 0.1677514 0.02458162
vt 0.1696994 0.02445356
vt 0.1713396 0.04976286
vt 0.1723124 0.04969883
vt 0.1702954 0.03365179
vt 0.1712682 0.03358776
vt 0.1706722 0.02439199
vt 0.171645 0.02432796
vt 0.1732851 0.04963726
vt 0.1830202 0.04900681
vt 0.172241 0.0335262
vt 0.173593 0.02420237
vt 0.1752332 0.04951166
vt 0.174189 0.0334006
vt 0.1761345 0.03327253
vt 0.1755385 0.02407677
vt 0.1774865 0.02395117
vt 0.1771787 0.0493836
vt 0.1780825 0.03314694
vt 0.1794321 0.02382311
vt 0.1810723 0.04913241
vt 0.1791267 0.049258
vt 0.1800281 0.03302134
vt 0.1819761 0.03289574
vt 0.1813801 0.02369751
vt 0.1849658 0.04887874
vt 0.1833256 0.02357191
vt 0.1839216 0.03277014
vn -0.01658666 -0.8825965 0.4698386
vn 0.6753935 -0.7359906 -0.04649197
vn -0.01463187 -0.9998813 -0.004833738
vn 0.5932941 -0.640208 0.4879915
vn 0.09287918 -0.09874338 0.990769
vn -0.002903342 -0.1534763 0.9881481
vn 0.8024519 -0.3587246 0.4768518
vn 0.9158272 -0.3997743 -0.03796092
vn 0.9060495 0.4231719 0
vn 0.139793 -0.06551272 0.9880111
vn 0.8200446 0.3645314 0.4411844
vn 0.1280646 0.04981732 0.9905139
vn -0.002903342 0.1006407 0.9949186
vn 0.002960861 0.898177 0.439624
vn 0.01859879 0.9998238 -0.002537184
vn -0.4892776 0.8721281 0
vn -0.0380888 0.06154573 0.9973772
vn -0.03417933 0.03613412 0.9987622
vn -0.4349022 0.7417973 0.5104868
vn -0.544368 0.5893272 0.5969564
vn -0.679212 0.7339422 0
vn 0.4603714 0.8864485 -0.04761556
vn 0.02641779 0.05568147 0.998099
vn -0.08891225 -0.1046076 0.9905311
vn 0.2903085 0.5912819 0.7524006
vn 0.5499906 0.8351709 0
vn 0.06551272 0.08304799 0.9943898
vn 0.4975116 0.6968381 0.5166225
vn -0.1143239 0.8903581 0.4406728
vn -0.1298993 0.9915273 0
vn -0.882539 0.4700876 -0.01193421
vn -0.01267707 0.1006407 0.9948421
vn -0.7926208 0.4153547 0.446355
vn -0.9079508 -0.417367 -0.03781856
vn -0.143645 -0.07137698 0.9870519
vn -0.1201881 0.05959105 0.990961
vn -0.7945755 -0.3782721 0.4749317
vn -0.5639155 -0.6636649 0.4914755
vn -0.645999 -0.7633383 0
vn -0.002903342 -0.1534763 0.9881481
vn -0.01463187 -0.9998813 -0.004833738
vn -0.01658666 -0.8825965 0.4698386
g heart_mesh_0
f 3/3/3 2/2/2 1/1/1
f 2/2/2 4/4/4 1/1/1
f 1/1/1 4/4/4 5/5/5
f 6/6/6 1/1/1 5/5/5
f 7/7/7 4/4/4 2/2/2
f 8/8/8 7/7/7 2/2/2
f 8/8/8 9/9/9 7/7/7
f 5/5/5 4/4/4 10/10/10
f 4/4/4 7/7/7 10/10/10
f 9/9/9 11/11/11 7/7/7
f 10/10/10 7/7/7 12/12/12
f 7/7/7 11/11/11 12/12/12
f 10/10/10 12/12/12 13/13/13
f 12/12/12 11/11/11 13/13/13
f 13/13/13 5/5/5 10/10/10
f 14/14/14 11/11/11 9/9/9
f 11/11/11 14/14/14 13/13/13
f 15/15/15 14/14/14 9/9/9
f 15/15/15 16/16/16 14/14/14
f 13/13/13 17/17/17 5/5/5
f 13/13/13 14/14/14 17/17/17
f 18/18/18 6/6/6 5/5/5
f 17/17/17 18/18/18 5/5/5
f 14/14/14 19/19/19 17/17/17
f 16/16/16 19/19/19 14/14/14
f 17/17/17 19/19/19 18/18/18
f 20/20/20 19/19/19 16/16/16
f 19/19/19 20/20/20 18/18/18
f 21/21/21 20/20/20 16/16/16
f 21/21/21 22/22/22 20/20/20
f 18/18/18 23/23/23 6/6/6
f 18/18/18 20/20/20 23/23/23
f 23/23/23 24/24/24 6/6/6
f 22/22/22 25/25/25 20/20/20
f 20/20/20 25/25/25 23/23/23
f 22/22/22 26/26/26 25/25/25
f 23/23/23 25/25/25 27/27/27
f 23/23/23 27/27/27 24/24/24
f 26/26/26 28/28/28 25/25/25
f 25/25/25 28/28/28 27/27/27
f 29/29/29 28/28/28 26/26/26
f 30/30/30 29/29/29 26/26/26
f 30/30/30 31/31/31 29/29/29
f 27/27/27 28/28/28 32/32/32
f 28/28/28 29/29/29 32/32/32
f 31/31/31 33/33/33 29/29/29
f 31/31/31 34/34/34 33/33/33
f 27/27/27 32/32/32 35/35/35
f 27/27/27 35/35/35 24/24/24
f 32/32/32 29/29/29 36/36/36
f 29/29/29 33/33/33 36/36/36
f 32/32/32 36/36/36 35/35/35
f 36/36/36 33/33/33 35/35/35
f 33/33/33 37/37/37 35/35/35
f 34/34/34 37/37/37 33/33/33
f 35/35/35 37/37/37 24/24/24
f 38/38/38 37/37/37 34/34/34
f 37/37/37 38/38/38 24/24/24
f 39/39/39 38/38/38 34/34/34
f 24/24/24 38/38/38 40/40/40
f 39/39/39 41/41/41 38/38/38
f 38/38/38 42/42/42 40/40/40
f 41/41/41 42/42/42 38/38/38
