g heart_broken_r_mesh
v 0.01037288 -0.4863863 0.05160654
v 0.2845808 -0.312669 -0.1513202
v 0.01037288 -0.4863863 -0.1513202
v 0.2845808 -0.312669 0.05160654
v 0.2237236 -0.2435383 0.1530688
v 0.03857529 -0.3608336 0.1530688
v 0.5547838 0.01350534 0.05160654
v 0.5547838 0.01350534 -0.1513202
v 0.5824104 0.3710538 -0.1513202
v 0.466312 0.04930049 0.1530688
v 0.2921251 -0.03497738 0.1530688
v 0.09104478 -0.2612268 0.1530688
v 0.00298214 -0.3045854 0.1530688
v 0.006695211 -0.07059371 0.1530688
v 0.5824104 0.3710538 0.05160654
v 0.4867186 0.3134137 0.1530688
v 0.3397573 0.3771809 0.1530688
v 0.3388584 0.4767322 0.05160654
v 0.3388584 0.4767322 -0.1513202
v 0.1257046 0.3796294 -0.1513202
v 0.1767186 0.3029079 0.1530688
v 0.1257046 0.3796294 0.05160654
v 0.06423831 0.3228105 0.05160654
v 0.06423831 0.3228105 -0.1513202
v 0.002773046 0.2659925 -0.1513202
v 0.1223441 0.2526444 0.1530688
v 0.002773046 0.2659925 0.05160654
v -0.08251894 0.1690443 -0.1513202
v 0.04634583 0.1778026 0.1530688
v 0.06796956 0.2023808 0.1530688
v -0.08251894 0.1690443 0.05160654
v 0.07810163 0.02998984 0.05160654
v 0.07810163 0.02998984 -0.1513202
v -0.1260139 0.004519701 -0.1513202
v -0.1260139 0.004519701 0.05160654
v -0.02747375 -0.2181853 -0.1513202
v -0.02747375 -0.2181853 0.05160654
v -0.1280159 -0.2676872 0.05160654
v -0.1280159 -0.2676872 -0.1513202
v 0.03857529 -0.3608336 0.1530688
v 0.01037288 -0.4863863 -0.1513202
v 0.01037288 -0.4863863 0.05160654
vt 0.1633819 0.04685286
vt 0.1562898 0.03443852
vt 0.1535611 0.037227
vt 0.1661132 0.04406697
vt 0.1744033 0.05219074
vt 0.1716719 0.05497662
vt 0.1674801 0.04267403
vt 0.1576568 0.03304558
vt 0.1590211 0.03165263
vt 0.1757676 0.05079779
vt 0.1839615 0.04243754
vt 0.1866928 0.03965165
vt 0.1880598 0.03825872
vt 0.1853285 0.0410446
vt 0.1688445 0.04128109
vt 0.1771346 0.04940485
vt 0.1784989 0.04801191
vt 0.1702114 0.03988555
vt 0.1603881 0.03025969
vt 0.1617524 0.02886675
vt 0.1798659 0.04661897
vt 0.1715758 0.03849261
vt 0.1722593 0.03779613
vt 0.1624359 0.02817028
vt 0.1631194 0.02747381
vt 0.1805494 0.0459225
vt 0.1729401 0.03709966
vt 0.1644837 0.02608086
vt 0.1825972 0.04383048
vt 0.1812302 0.04522603
vt 0.1743071 0.03570672
vt 0.1756715 0.03431378
vt 0.1658507 0.02468532
vt 0.167215 0.02329238
vt 0.1770384 0.03292083
vt 0.168582 0.02189944
vt 0.1784028 0.03152789
vt 0.1797697 0.03013495
vt 0.1699464 0.02050649
vt 0.1894242 0.03686577
vt 0.1713107 0.01911355
vt 0.1811341 0.02874201
vn -0.07996446 -0.9686856 0.2350615
vn 0.6762518 -0.7366706 0
vn -0.1092013 -0.9940197 0
vn 0.6548703 -0.7094468 0.2604423
vn 0.1227486 -0.1324944 0.9835538
vn 0.003849626 -0.1831726 0.9830732
vn 0.8848715 -0.389784 0.2550898
vn 0.9160582 -0.3995298 -0.03483306
vn 0.9061558 0.4229442 0
vn 0.1909693 -0.08571452 0.9778465
vn -0.06826943 0.0136928 0.997573
vn -0.07996446 4.869699E-05 0.9967977
vn -0.1286935 0.005896211 0.9916669
vn -0.1637785 0.1053036 0.9808607
vn 0.8809732 0.4035255 0.2470897
vn 0.1792743 0.07801527 0.9807009
vn -4.869699E-05 0.146236 0.9892498
vn 0.01359546 0.9707322 0.2397797
vn 0.01943983 0.999811 0
vn -0.4887975 0.8723972 0
vn -0.04293031 0.07411689 0.9963251
vn -0.4736955 0.8420873 0.2578788
vn -0.6530185 0.7056459 0.2750104
vn -0.6782821 0.7348015 0
vn -0.7231883 0.6900526 -0.02874179
vn -0.02928621 0.03123528 0.9990829
vn -0.7017476 0.6725101 0.235118
vn -0.9527138 -0.303869 0
vn -0.1442868 -0.09156197 0.9852907
vn -0.03318447 0.03123528 0.998961
vn -0.8927656 -0.3508008 0.2826808
vn -0.6549676 0.1520835 0.7401946
vn -0.9668338 0.2553892 -0.002972606
vn -0.92004 0.3918247 0
vn -0.8596298 0.4035255 0.3133747
vn -0.9999693 0.00784534 0
vn -0.9103081 0.007845342 0.413857
vn -0.9707322 -0.1071553 0.2149346
vn -0.9901125 -0.1402753 0
vn 0.003849626 -0.1831726 0.9830732
vn -0.1092013 -0.9940197 0
vn -0.07996446 -0.9686856 0.2350615
g heart_broken_r_mesh_0
f 3/3/3 2/2/2 1/1/1
f 2/2/2 4/4/4 1/1/1
f 1/1/1 4/4/4 5/5/5
f 6/6/6 1/1/1 5/5/5
f 7/7/7 4/4/4 2/2/2
f 8/8/8 7/7/7 2/2/2
f 8/8/8 9/9/9 7/7/7
f 5/5/5 4/4/4 10/10/10
f 4/4/4 7/7/7 10/10/10
f 11/11/11 5/5/5 10/10/10
f 6/6/6 5/5/5 12/12/12
f 12/12/12 13/13/13 6/6/6
f 11/11/11 14/14/14 5/5/5
f 14/14/14 12/12/12 5/5/5
f 9/9/9 15/15/15 7/7/7
f 10/10/10 7/7/7 16/16/16
f 7/7/7 15/15/15 16/16/16
f 10/10/10 16/16/16 17/17/17
f 16/16/16 15/15/15 17/17/17
f 17/17/17 11/11/11 10/10/10
f 18/18/18 15/15/15 9/9/9
f 15/15/15 18/18/18 17/17/17
f 19/19/19 18/18/18 9/9/9
f 19/19/19 20/20/20 18/18/18
f 17/17/17 18/18/18 21/21/21
f 11/11/11 17/17/17 21/21/21
f 20/20/20 22/22/22 18/18/18
f 18/18/18 22/22/22 21/21/21
f 23/23/23 22/22/22 20/20/20
f 24/24/24 23/23/23 20/20/20
f 24/24/24 25/25/25 23/23/23
f 21/21/21 22/22/22 26/26/26
f 22/22/22 23/23/23 26/26/26
f 25/25/25 27/27/27 23/23/23
f 25/25/25 28/28/28 27/27/27
f 21/21/21 26/26/26 29/29/29
f 21/21/21 29/29/29 11/11/11
f 26/26/26 23/23/23 30/30/30
f 23/23/23 27/27/27 30/30/30
f 26/26/26 30/30/30 29/29/29
f 30/30/30 27/27/27 29/29/29
f 27/27/27 31/31/31 29/29/29
f 28/28/28 31/31/31 27/27/27
f 29/29/29 31/31/31 11/11/11
f 32/32/32 31/31/31 28/28/28
f 31/31/31 32/32/32 11/11/11
f 33/33/33 32/32/32 28/28/28
f 11/11/11 32/32/32 14/14/14
f 33/33/33 34/34/34 32/32/32
f 32/32/32 35/35/35 14/14/14
f 34/34/34 35/35/35 32/32/32
f 14/14/14 35/35/35 12/12/12
f 34/34/34 36/36/36 35/35/35
f 35/35/35 37/37/37 12/12/12
f 36/36/36 37/37/37 35/35/35
f 12/12/12 37/37/37 13/13/13
f 38/38/38 37/37/37 36/36/36
f 37/37/37 38/38/38 13/13/13
f 39/39/39 38/38/38 36/36/36
f 13/13/13 38/38/38 40/40/40
f 39/39/39 41/41/41 38/38/38
f 38/38/38 42/42/42 40/40/40
f 41/41/41 42/42/42 38/38/38
