g Horseshoe
v 0.4137936 -4.470348E-07 -0.4977976
v 0.4325099 -4.470348E-07 -0.4838429
v 0.4676212 -4.470348E-07 -0.3967349
v 0.4636003 -4.470348E-07 -0.3766589
v 0.392653 -4.470348E-07 -0.4983965
v 0.4530324 -4.470348E-07 -0.3601049
v 0.4038512 -4.470348E-07 -0.3395252
v 0.2065047 -4.470348E-07 -0.4186305
v 0.1901526 -4.470348E-07 -0.3942793
v 0.1874513 -4.470348E-07 -0.369872
v 0.2155063 -4.470348E-07 -0.3004491
v 0.456961 -4.470348E-07 -0.1355337
v 0.2493294 -4.470348E-07 -0.1806692
v 0.2439079 -4.470348E-07 -0.04162446
v 0.4642449 -4.470348E-07 0.0181208
v 0.2025466 -4.470348E-07 0.06904635
v 0.4404127 -4.470348E-07 0.1704384
v 0.362173 -4.470348E-07 0.3124529
v 0.117679 -4.470348E-07 0.1423102
v 0.2419341 -4.470348E-07 0.4299277
v 0.1256332 -4.470348E-07 0.4797831
v 4.470348E-07 -4.470348E-07 0.1703718
v 4.470348E-07 -4.470348E-07 0.5
v -0.1256333 -4.470348E-07 0.4797831
v -0.1176791 -4.470348E-07 0.1423102
v -0.2419342 -4.470348E-07 0.4299277
v -0.3621731 -4.470348E-07 0.3124529
v -0.2025467 -4.470348E-07 0.06904635
v -0.4404128 -4.470348E-07 0.1704384
v -0.464245 -4.470348E-07 0.0181208
v -0.243908 -4.470348E-07 -0.04162446
v -0.4569611 -4.470348E-07 -0.1355337
v -0.2493295 -4.470348E-07 -0.1806692
v -0.4038513 -4.470348E-07 -0.3395252
v -0.2155064 -4.470348E-07 -0.3004491
v -0.1874514 -4.470348E-07 -0.369872
v -0.1901526 -4.470348E-07 -0.3942793
v -0.2065048 -4.470348E-07 -0.4186305
v -0.3926531 -4.470348E-07 -0.4983965
v -0.4530325 -4.470348E-07 -0.3601049
v -0.4636004 -4.470348E-07 -0.3766589
v -0.4137937 -4.470348E-07 -0.4977976
v -0.4676213 -4.470348E-07 -0.3967349
v -0.43251 -4.470348E-07 -0.4838429
vt 0.8830534 1.000775
vt 0.9017675 0.9838318
vt 0.9368899 0.8967358
vt 0.9328661 0.8766626
vt 0.8576049 1.000003
vt 0.9222988 0.8601016
vt 0.8731198 0.8395244
vt 0.6757776 0.9186262
vt 0.6594228 0.8942773
vt 0.6567199 0.8698748
vt 0.6789539 0.8171225
vt 0.926231 0.6355319
vt 0.7185965 0.6566665
vt 0.7131754 0.5382428
vt 0.9335151 0.4818789
vt 0.6718149 0.4309514
vt 0.9096853 0.3295622
vt 0.831431 0.1875836
vt 0.5869637 0.3576906
vt 0.7112055 0.07006855
vt 0.5949197 0.02024052
vt 0.4700136 0.3296309
vt 0.470006 6.956046E-06
vt 0.5949197 0.02024052
vt 0.5869637 0.3576906
vt 0.7112055 0.07006855
vt 0.831431 0.1875836
vt 0.6718149 0.4309514
vt 0.9096853 0.3295622
vt 0.9335151 0.4818789
vt 0.7131754 0.5382428
vt 0.926231 0.6355319
vt 0.7185965 0.6566665
vt 0.8731198 0.8395244
vt 0.6789539 0.8171225
vt 0.6567199 0.8698748
vt 0.6594228 0.8942773
vt 0.6757776 0.9186262
vt 0.8576049 1.000003
vt 0.9222988 0.8601016
vt 0.9328661 0.8766626
vt 0.8830534 1.000775
vt 0.9368899 0.8967358
vt 0.9017675 0.9838318
vn 0 1 0
vn 0 1 0
vn 0 1 0
vn 0 1 0
vn 0 1 0
vn 0 1 0
vn 0 1 0
vn 0 1 0
vn 0 1 0
vn 0 1 0
vn 0 1 0
vn 0 1 0
vn 0 1 0
vn 0 1 0
vn 0 1 0
vn 0 1 0
vn 0 1 0
vn 0 1 0
vn 0 1 0
vn 0 1 0
vn 0 1 0
vn 0 1 0
vn 0 1 0
vn 0 1 0
vn 0 1 0
vn 0 1 0
vn 0 1 0
vn 0 1 0
vn 0 1 0
vn 0 1 0
vn 0 1 0
vn 0 1 0
vn 0 1 0
vn 0 1 0
vn 0 1 0
vn 0 1 0
vn 0 1 0
vn 0 1 0
vn 0 1 0
vn 0 1 0
vn 0 1 0
vn 0 1 0
vn 0 1 0
vn 0 1 0
g Horseshoe_0
f 3/3/3 2/2/2 1/1/1
f 4/4/4 3/3/3 1/1/1
f 4/4/4 1/1/1 5/5/5
f 6/6/6 4/4/4 5/5/5
f 7/7/7 6/6/6 5/5/5
f 8/8/8 7/7/7 5/5/5
f 8/8/8 9/9/9 7/7/7
f 9/9/9 10/10/10 7/7/7
f 10/10/10 11/11/11 7/7/7
f 12/12/12 7/7/7 11/11/11
f 13/13/13 12/12/12 11/11/11
f 13/13/13 14/14/14 12/12/12
f 14/14/14 15/15/15 12/12/12
f 14/14/14 16/16/16 15/15/15
f 16/16/16 17/17/17 15/15/15
f 16/16/16 18/18/18 17/17/17
f 16/16/16 19/19/19 18/18/18
f 19/19/19 20/20/20 18/18/18
f 19/19/19 21/21/21 20/20/20
f 19/19/19 22/22/22 21/21/21
f 22/22/22 23/23/23 21/21/21
f 23/23/23 22/22/22 24/24/24
f 22/22/22 25/25/25 24/24/24
f 24/24/24 25/25/25 26/26/26
f 26/26/26 25/25/25 27/27/27
f 25/25/25 28/28/28 27/27/27
f 27/27/27 28/28/28 29/29/29
f 29/29/29 28/28/28 30/30/30
f 28/28/28 31/31/31 30/30/30
f 30/30/30 31/31/31 32/32/32
f 31/31/31 33/33/33 32/32/32
f 34/34/34 32/32/32 33/33/33
f 35/35/35 34/34/34 33/33/33
f 35/35/35 36/36/36 34/34/34
f 36/36/36 37/37/37 34/34/34
f 37/37/37 38/38/38 34/34/34
f 34/34/34 38/38/38 39/39/39
f 40/40/40 34/34/34 39/39/39
f 41/41/41 40/40/40 39/39/39
f 42/42/42 41/41/41 39/39/39
f 43/43/43 41/41/41 42/42/42
f 44/44/44 43/43/43 42/42/42
