g Hugo_parrot_head
v 0.3688931 0.6976221 0.3937408
v 0.3636565 0.5902975 0.508898
v 0.2301489 0.6303523 0.438253
v 0.3636565 0.5902975 0.508898
v 0.2598791 0.4782183 0.4798216
v 0.3636565 0.5902975 0.508898
v 0.416999 0.4514636 0.4609999
v 0.3636565 0.5902975 0.508898
v 0.4843745 0.5870638 0.4078007
v 0.3636565 0.5902975 0.508898
v 0.3688931 0.6976221 0.3937408
v 0.3688931 0.6976221 -0.3937415
v 0.2301489 0.6303523 -0.4382518
v 0.3636565 0.5902975 -0.5088986
v 0.2598791 0.4782183 -0.4798205
v 0.3636565 0.5902975 -0.5088986
v 0.416999 0.4514636 -0.4610005
v 0.3636565 0.5902975 -0.5088986
v 0.4843745 0.5870638 -0.4077995
v 0.3636565 0.5902975 -0.5088986
v 0.3688931 0.6976221 -0.3937415
v 0.3636565 0.5902975 -0.5088986
v -0.08369321 0.9245164 0.2610323
v -0.08369321 0.9245164 -0.2610329
v 0.3843898 0.9212379 -0.1837932
v 0.3843898 0.9212379 0.1837927
v 0.7668507 0.4779065 -0.2037346
v 0.7668507 0.4779065 0.2037359
v -0.08369321 0.9245164 -0.2610329
v -0.3957599 0.3604974 -0.3757869
v 0.03360653 0.1932752 -0.4181205
v 0.3506554 0.5261826 -0.3743196
v 0.3843898 0.9212379 -0.1837932
v 0.7668507 0.4779065 -0.2037346
v 0.510425 0.07367688 -0.3249489
v 0.3242645 -0.05134797 -0.3473518
v -0.3957599 0.3604974 -0.3757869
v -0.3957599 0.3604974 0.3757862
v 0.03360653 0.1932752 0.4181198
v 0.03360653 0.1932752 -0.4181205
v 0.3242645 -0.05134797 -0.3473518
v 0.3242645 -0.05134797 0.3473513
v 0.510425 0.07367688 0.3249483
v 0.7668507 0.4779065 0.2037359
v 0.7668507 0.4779065 -0.2037346
v 0.510425 0.07367688 -0.3249489
v 0.3242645 -0.05134797 0.3473513
v 0.3242645 -0.05134797 -0.3473518
v -0.3957599 0.3604974 -0.3757869
v -0.08369321 0.9245164 -0.2610329
v -0.08369321 0.9245164 0.2610323
v -0.3957599 0.3604974 0.3757862
v 0.510425 0.07367688 0.3249483
v 0.3242645 -0.05134797 0.3473513
v 0.03360653 0.1932752 0.4181198
v 0.3506572 0.5261826 0.3214907
v 0.7668507 0.4779065 0.2037359
v -0.3957599 0.3604974 0.3757862
v 0.3843898 0.9212379 0.1837927
v -0.08369321 0.9245164 0.2610323
v -0.6583144 0.02053857 0.4999996
v -0.283609 0.3453161 0.2683614
v 0.05154681 0.3193282 0.2683614
v -0.1028374 -0.01242542 0.4999996
v 0.3785799 -0.5126339 0.4999996
v 0.2805282 0.02333158 0.2683614
v -0.283609 0.3453161 0.2683614
v -0.283609 0.3453161 -0.2683602
v 0.05154681 0.3193282 -0.2683602
v 0.05154681 0.3193282 0.2683614
v 0.2805282 0.02333158 -0.2683602
v 0.2805282 0.02333158 0.2683614
v -0.283609 0.3453161 -0.2683602
v -0.6460783 0.04715878 -0.5000001
v -0.1028374 -0.01242542 -0.5000001
v 0.05154681 0.3193282 -0.2683602
v 0.2805282 0.02333158 -0.2683602
v 0.3785799 -0.5126339 -0.5000001
v -0.6460783 0.04715878 -0.5000001
v -0.6583144 0.02053857 0.4999996
v -0.1028374 -0.01242542 0.4999996
v -0.1028374 -0.01242542 -0.5000001
v 0.3785799 -0.5126339 0.4999996
v 0.2805282 0.02333158 0.2683614
v 0.2805282 0.02333158 -0.2683602
v 0.3785799 -0.5126339 -0.5000001
v -0.6460783 0.04715878 -0.5000001
v -0.283609 0.3453161 -0.2683602
v -0.283609 0.3453161 0.2683614
v -0.6583144 0.02053857 0.4999996
v -0.1028374 -0.01242542 0.4999996
v 0.3785799 -0.5126339 0.4999996
v 0.3785799 -0.5126339 -0.5000001
v -0.1028374 -0.01242542 -0.5000001
v 0.3836731 -0.0453428 0.1620508
v 0.4304963 0.2699092 0.195072
v 0.6699688 -0.04193354 0.195072
v 0.552798 -0.1716736 0.1620508
v 0.4304963 0.2699092 0.195072
v 0.4304963 0.2699092 -0.1950727
v 0.6699688 -0.04193354 -0.1950727
v 0.6699688 -0.04193354 0.195072
v 0.4304963 0.2699092 -0.1950727
v 0.3836731 -0.0453428 -0.1620496
v 0.552798 -0.1716736 -0.1620496
v 0.6699688 -0.04193354 -0.1950727
v 0.3836731 -0.0453428 -0.1620496
v 0.3836731 -0.0453428 0.1620508
v 0.552798 -0.1716736 0.1620508
v 0.552798 -0.1716736 -0.1620496
v 0.552798 -0.1716736 0.1620508
v 0.6699688 -0.04193354 0.195072
v 0.6699688 -0.04193354 -0.1950727
v 0.552798 -0.1716736 -0.1620496
v 0.3836731 -0.0453428 -0.1620496
v 0.4304963 0.2699092 -0.1950727
v 0.4304963 0.2699092 0.195072
v 0.3836731 -0.0453428 0.1620508
v 0.406395 0.1863957 0.234636
v 0.4886079 0.5534692 0.1407818
v 0.9484105 0.1928918 0.1448396
v 0.6231349 0.05672187 0.234636
v 0.9540269 -0.01522732 0.1448396
v 0.7964537 -0.2923684 0.101363
v 0.4886079 0.5534692 0.1407818
v 0.4886079 0.5534692 -0.1407806
v 0.9484105 0.1928918 -0.1448385
v 0.9484105 0.1928918 0.1448396
v 0.9540269 -0.01522732 -0.1448385
v 0.9540269 -0.01522732 0.1448396
v 0.4886079 0.5534692 -0.1407806
v 0.406395 0.1863957 -0.2346348
v 0.6231349 0.05672187 -0.2346348
v 0.9484105 0.1928918 -0.1448385
v 0.9540269 -0.01522732 -0.1448385
v 0.7964537 -0.2923684 -0.1013618
v 0.406395 0.1863957 -0.2346348
v 0.406395 0.1863957 0.234636
v 0.6231349 0.05672187 0.234636
v 0.6231349 0.05672187 -0.2346348
v 0.7964537 -0.2923684 -0.1013618
v 0.7964537 -0.2923684 0.101363
v 0.7964537 -0.2923684 0.101363
v 0.9540269 -0.01522732 0.1448396
v 0.9540269 -0.01522732 -0.1448385
v 0.7964537 -0.2923684 -0.1013618
v 0.3489661 0.7289146 0.1892102
v 0.3688931 0.6976221 0.3937408
v 0.2301489 0.6303523 0.438253
v 0.1171594 0.6165254 0.263578
v 0.5419038 0.5441981 0.2126988
v 0.2598791 0.4782183 0.4798216
v 0.4843745 0.5870638 0.4078007
v 0.1668311 0.362348 0.333028
v 0.429339 0.3176479 0.3015833
v 0.416999 0.4514636 0.4609999
v 0.3489661 0.7289146 -0.1892108
v 0.1171594 0.6165254 -0.2635768
v 0.2301489 0.6303523 -0.4382518
v 0.3688931 0.6976221 -0.3937415
v 0.2598791 0.4782183 -0.4798205
v 0.5419038 0.5441981 -0.2126994
v 0.1668311 0.362348 -0.3330269
v 0.4843745 0.5870638 -0.4077995
v 0.416999 0.4514636 -0.4610005
v 0.429339 0.3176479 -0.3015839
vt 0.3052547 0.006242394
vt 0.3072362 0.09657283
vt 0.3092177 0.006242394
vt 0.3112099 0.09657283
vt 0.3131914 0.006242394
vt 0.3151837 0.09657283
vt 0.3171652 0.006242394
vt 0.3191467 0.09657283
vt 0.3211389 0.006242394
vt 0.3231204 0.09657283
vt 0.3251127 0.006242394
vt 0.3052547 0.006242394
vt 0.3092177 0.006242394
vt 0.3072362 0.09657283
vt 0.3131914 0.006242394
vt 0.3112099 0.09657283
vt 0.3171652 0.006242394
vt 0.3151837 0.09657283
vt 0.3211389 0.006242394
vt 0.3191467 0.09657283
vt 0.3251127 0.006242394
vt 0.3231204 0.09657283
vt 0.3412986 0.03932479
vt 0.3412986 0.03932479
vt 0.3066008 0.06525656
vt 0.3066008 0.06525656
vt 0.2908242 0.06525656
vt 0.2908242 0.06525656
vt 0.4019927 0.07744708
vt 0.4015835 0.08847454
vt 0.3358817 0.07420561
vt 0.3545552 0.01518067
vt 0.4019927 0.0720195
vt 0.4019927 0.05445524
vt 0.4039634 0.08649305
vt 0.4033603 0.06095973
vt 0.287895 0.02824348
vt 0.287895 0.02824348
vt 0.287895 0.0533568
vt 0.287895 0.0533568
vt 0.287895 0.01884213
vt 0.287895 0.01884213
vt 0.3335772 0.0136084
vt 0.3417939 0.01742063
vt 0.3417939 0.01742063
vt 0.3335772 0.0136084
vt 0.287895 0.01351148
vt 0.287895 0.01351148
vt 0.287895 0.02824348
vt 0.3412986 0.03932479
vt 0.3412986 0.03932479
vt 0.287895 0.02824348
vt 0.4039634 0.08649305
vt 0.4033603 0.06095973
vt 0.3358817 0.07420561
vt 0.3545552 0.01518067
vt 0.4019927 0.05445524
vt 0.4015835 0.08847454
vt 0.4019927 0.0720195
vt 0.4019927 0.07744708
vt 0.2947118 0.04801538
vt 0.2718277 0.02123285
vt 0.2677031 0.112791
vt 0.2957672 0.1130817
vt 0.2980071 0.1618223
vt 0.2701262 0.1501702
vt 0.2718277 0.02123285
vt 0.2718277 0.02123285
vt 0.2677031 0.112791
vt 0.2677031 0.112791
vt 0.2701262 0.1501702
vt 0.2701262 0.1501702
vt 0.2718277 0.02123285
vt 0.2947118 0.04801538
vt 0.2957672 0.1130817
vt 0.2677031 0.112791
vt 0.2701262 0.1501702
vt 0.2980071 0.1618223
vt 0.2755107 0.02914807
vt 0.2693723 0.05979667
vt 0.2859135 0.05644751
vt 0.2888858 0.02557276
vt 0.2980071 0.1362674
vt 0.2638586 0.1246153
vt 0.2638586 0.1405319
vt 0.2980071 0.1483071
vt 0.2947118 0.04801538
vt 0.2718277 0.02123285
vt 0.2718277 0.02123285
vt 0.2947118 0.04801538
vt 0.2603694 0.1588823
vt 0.2666262 0.1576977
vt 0.2757476 0.1502133
vt 0.2691031 0.1519794
vt 0.6398801 0.3161637
vt 0.6157898 0.3851392
vt 0.6172329 0.3490307
vt 0.6398801 0.2988794
vt 0.5316946 0.3833192
vt 0.5319638 0.3849992
vt 0.5362068 0.3738533
vt 0.5362176 0.3714195
vt 0.6186221 0.3854623
vt 0.6398801 0.3171652
vt 0.6398801 0.3005379
vt 0.6200005 0.3510122
vt 0.6398801 0.3171652
vt 0.6398801 0.3161637
vt 0.6398801 0.2988794
vt 0.6398801 0.3005379
vt 0.6398801 0.2988794
vt 0.6172329 0.3490307
vt 0.6200005 0.3510122
vt 0.6398801 0.3005379
vt 0.6398801 0.3171652
vt 0.6186221 0.3854623
vt 0.6157898 0.3851392
vt 0.6398801 0.3161637
vt 0.5299715 0.5071843
vt 0.5242963 0.4556331
vt 0.5716045 0.4556331
vt 0.6162528 0.5071843
vt 0.5814905 0.4556331
vt 0.610233 0.4556331
vt 0.5264286 0.4479225
vt 0.5264286 0.4479225
vt 0.5591879 0.4479225
vt 0.5591879 0.4479225
vt 0.5487204 0.4479225
vt 0.5487204 0.4479225
vt 0.5242963 0.4556331
vt 0.5299715 0.5071843
vt 0.6162528 0.5071843
vt 0.5716045 0.4556331
vt 0.5814905 0.4556331
vt 0.610233 0.4556331
vt 0.5299715 0.5071843
vt 0.5299715 0.5071843
vt 0.6162528 0.5071843
vt 0.6162528 0.5071843
vt 0.610233 0.4556331
vt 0.610233 0.4556331
vt 0.5382637 0.4479225
vt 0.5487204 0.4479225
vt 0.5487204 0.4479225
vt 0.5382637 0.4479225
vt 0.2402099 0.6141637
vt 0.2268563 0.7119893
vt 0.2269317 0.6897944
vt 0.2402852 0.5919688
vt 0.2402852 0.5913657
vt 0.227104 0.6405047
vt 0.2269317 0.6891913
vt 0.2404575 0.542679
vt 0.2403714 0.5670277
vt 0.2270178 0.6648534
vt 0.2402099 0.6141637
vt 0.2402852 0.5919688
vt 0.2269317 0.6897944
vt 0.2268563 0.7119893
vt 0.227104 0.6405047
vt 0.2402852 0.5913657
vt 0.2404575 0.542679
vt 0.2269317 0.6891913
vt 0.2270178 0.6648534
vt 0.2403714 0.5670277
vn 0.1904091 0.9589276 0.2102431
vn 0.1610893 0.2884812 0.9438373
vn -0.6833214 0.5367223 0.4949759
vn 0.1610893 0.2884812 0.9438373
vn -0.4956745 -0.423013 0.7585293
vn 0.1610893 0.2884812 0.9438373
vn 0.4933805 -0.5911133 0.6380914
vn 0.1610893 0.2884812 0.9438373
vn 0.9175406 0.2630707 0.2981831
vn 0.1610893 0.2884812 0.9438373
vn 0.1904091 0.9589276 0.2102431
vn 0.1904091 0.9589276 -0.2102431
vn -0.6833214 0.5367223 -0.4949759
vn 0.1610893 0.2884812 -0.9438373
vn -0.4956745 -0.423013 -0.7585293
vn 0.1610893 0.2884812 -0.9438373
vn 0.4933805 -0.5911133 -0.6380914
vn 0.1610893 0.2884812 -0.9438373
vn 0.9175406 0.2630707 -0.2981831
vn 0.1610893 0.2884812 -0.9438373
vn 0.1904091 0.9589276 -0.2102431
vn 0.1610893 0.2884812 -0.9438373
vn 0.006671607 0.9999753 -0.002197266
vn 0.006671607 0.9999753 -0.002197266
vn 0.4210584 0.906152 -0.03998022
vn 0.4210584 0.906152 -0.03998022
vn 0.7568204 0.6536229 0
vn 0.7568204 0.6536229 0
vn -0.008965611 0.2435241 -0.9698534
vn -0.0441494 0.2024764 -0.9782915
vn -0.003101587 0.159474 -0.9871973
vn 0.1259056 0.2063857 -0.9703364
vn 0.2392755 0.4057604 -0.882103
vn 0.3917385 0.1868391 -0.9009063
vn 0.264686 -0.01644492 -0.9641944
vn 0.1708626 -0.07899386 -0.9821232
vn -0.362758 -0.9312232 -0.03507138
vn -0.362758 -0.9312232 -0.03507138
vn -0.4894885 -0.8720098 0
vn -0.4894885 -0.8720098 0
vn -0.6441081 -0.7649347 0
vn -0.6441081 -0.7649347 0
vn 0.7357577 -0.6771181 -0.01310423
vn 0.8443319 -0.5358204 0
vn 0.8443319 -0.5358204 0
vn 0.7357577 -0.6771181 -0.01310423
vn 0.5578842 -0.8295811 -0.02367283
vn 0.5578842 -0.8295811 -0.02367283
vn -0.8748775 0.4839466 -0.01962601
vn -0.8748775 0.4839466 -0.01962601
vn -0.8748775 0.4839466 -0.01962601
vn -0.8748775 0.4839466 -0.01962601
vn 0.2334116 0.06760526 0.970025
vn 0.1708626 -0.07899386 0.9821232
vn 0.05749261 0.1868391 0.9807068
vn 0.1337242 0.2083404 0.9688716
vn 0.2881418 0.1848845 0.9395701
vn 0.0242635 0.2142043 0.9764875
vn 0.2040917 0.3060731 0.9298741
vn 0.04576474 0.2298416 0.9721515
vn 0.03599143 0.5562688 0.8302227
vn 0.03599143 0.5562688 0.8302227
vn 0.2510034 0.4878559 0.8360586
vn 0.258822 0.4859012 0.834812
vn 0.4464689 0.3979418 0.8014411
vn 0.4464689 0.3979418 0.8014411
vn 0.07703918 0.9960661 -0.04378701
vn 0.07703918 0.9960661 -0.04378701
vn 0.4952011 0.8687783 0
vn 0.4952011 0.8687783 0
vn 0.790488 0.6109991 -0.04252955
vn 0.790488 0.6109991 -0.04252955
vn 0.055538 0.5621328 -0.8251801
vn 0.055538 0.5621328 -0.8251801
vn 0.2725046 0.4859012 -0.8304464
vn 0.2627314 0.4898106 -0.8312989
vn 0.4464689 0.3979418 -0.8014411
vn 0.4464689 0.3979418 -0.8014411
vn -0.08324242 -0.9957268 -0.03998693
vn -0.08324242 -0.9957268 -0.03998693
vn -0.4680005 -0.8837281 0
vn -0.4680005 -0.8837281 0
vn 0.9838502 0.1789935 0
vn 0.9838502 0.1789935 0
vn 0.9838502 0.1789935 0
vn 0.9838502 0.1789935 0
vn -0.646045 0.7632993 0
vn -0.646045 0.7632993 0
vn -0.646045 0.7632993 0
vn -0.646045 0.7632993 0
vn -0.4680005 -0.8837281 0
vn -0.7204598 -0.6927553 -0.03205781
vn -0.7204598 -0.6927553 -0.03205781
vn -0.4680005 -0.8837281 0
vn -0.1125623 -0.1044043 0.9881445
vn -0.1125623 -0.1044043 0.9881445
vn -0.1125623 -0.1044043 0.9881445
vn -0.1125623 -0.1044043 0.9881445
vn 0.7924427 0.6090446 -0.03315642
vn 0.7924427 0.6090446 -0.03315642
vn 0.7924427 0.6090446 -0.03315642
vn 0.7924427 0.6090446 -0.03315642
vn -0.1125623 -0.1044043 -0.9881445
vn -0.1125623 -0.1044043 -0.9881445
vn -0.1125623 -0.1044043 -0.9881445
vn -0.1125623 -0.1044043 -0.9881445
vn -0.5992712 -0.8002613 -0.02135079
vn -0.5992712 -0.8002613 -0.02135079
vn -0.5992712 -0.8002613 -0.02135079
vn -0.5992712 -0.8002613 -0.02135079
vn 0.7416217 -0.6692995 -0.0451165
vn 0.7416217 -0.6692995 -0.0451165
vn 0.7416217 -0.6692995 -0.0451165
vn 0.7416217 -0.6692995 -0.0451165
vn -0.9882474 0.1477461 -0.0392199
vn -0.9882474 0.1477461 -0.0392199
vn -0.9882474 0.1477461 -0.0392199
vn -0.9882474 0.1477461 -0.0392199
vn 0.15718 0.2239776 0.961836
vn 0.15718 0.2239776 0.961836
vn 0.1806359 0.1770658 0.9674804
vn 0.1708626 0.15361 0.9732471
vn 0.2275476 -0.1552253 0.9613153
vn 0.2001824 -0.2607767 0.9444165
vn 0.6165238 0.786918 -0.02566033
vn 0.6165238 0.786918 -0.02566033
vn 0.7764117 0.6302261 0
vn 0.7764117 0.6302261 0
vn 0.9996361 0.02655745 -0.004740759
vn 0.9996361 0.02655745 -0.004740759
vn 0.15718 0.2239776 -0.961836
vn 0.15718 0.2239776 -0.961836
vn 0.1708626 0.15361 -0.9732471
vn 0.1806359 0.1770658 -0.9674804
vn 0.2275476 -0.1552253 -0.9613153
vn 0.2001824 -0.2607767 -0.9444165
vn -0.5129707 -0.8584061 0
vn -0.5129707 -0.8584061 0
vn -0.7204598 -0.6927553 -0.03205781
vn -0.7204598 -0.6927553 -0.03205781
vn -0.8958917 -0.4442727 0
vn -0.8958917 -0.4442727 0
vn 0.8686742 -0.4933805 -0.04450513
vn 0.8686742 -0.4933805 -0.04450513
vn 0.8686742 -0.4933805 -0.04450513
vn 0.8686742 -0.4933805 -0.04450513
vn 0.1806359 0.9745649 0.1326421
vn 0.1904091 0.9589276 0.2102431
vn -0.6833214 0.5367223 0.4949759
vn -0.7302331 0.5289037 0.4324587
vn 0.9429511 0.2435241 0.2270226
vn -0.4956745 -0.423013 0.7585293
vn 0.9175406 0.2630707 0.2981831
vn -0.532813 -0.4660154 0.7063568
vn 0.4972899 -0.6458436 0.5793002
vn 0.4933805 -0.5911133 0.6380914
vn 0.1806359 0.9745649 -0.1326421
vn -0.7302331 0.5289037 -0.4324587
vn -0.6833214 0.5367223 -0.4949759
vn 0.1904091 0.9589276 -0.2102431
vn -0.4956745 -0.423013 -0.7585293
vn 0.9429511 0.2435241 -0.2270226
vn -0.532813 -0.4660154 -0.7063568
vn 0.9175406 0.2630707 -0.2981831
vn 0.4933805 -0.5911133 -0.6380914
vn 0.4972899 -0.6458436 -0.5793002
g Hugo_parrot_head_0
f 3/3/3 2/2/2 1/1/1
f 5/5/5 4/4/4 3/3/3
f 7/7/7 6/6/6 5/5/5
f 9/9/9 8/8/8 7/7/7
f 11/11/11 10/10/10 9/9/9
f 14/14/14 13/13/13 12/12/12
f 16/16/16 15/15/15 13/13/13
f 18/18/18 17/17/17 15/15/15
f 20/20/20 19/19/19 17/17/17
f 22/22/22 21/21/21 19/19/19
f 25/25/25 24/24/24 23/23/23
f 26/26/26 25/25/25 23/23/23
f 27/27/27 25/25/25 26/26/26
f 28/28/28 27/27/27 26/26/26
f 31/31/31 30/30/30 29/29/29
f 32/32/32 31/31/31 29/29/29
f 33/33/33 32/32/32 29/29/29
f 32/32/32 33/33/33 34/34/34
f 32/32/32 34/34/34 35/35/35
f 32/32/32 35/35/35 31/31/31
f 35/35/35 36/36/36 31/31/31
f 39/39/39 38/38/38 37/37/37
f 40/40/40 39/39/39 37/37/37
f 40/40/40 41/41/41 39/39/39
f 41/41/41 42/42/42 39/39/39
f 45/45/45 44/44/44 43/43/43
f 46/46/46 45/45/45 43/43/43
f 46/46/46 43/43/43 47/47/47
f 48/48/48 46/46/46 47/47/47
f 51/51/51 50/50/50 49/49/49
f 52/52/52 51/51/51 49/49/49
f 55/55/55 54/54/54 53/53/53
f 56/56/56 55/55/55 53/53/53
f 56/56/56 53/53/53 57/57/57
f 55/55/55 56/56/56 58/58/58
f 56/56/56 57/57/57 59/59/59
f 56/56/56 60/60/60 58/58/58
f 56/56/56 59/59/59 60/60/60
f 63/63/63 62/62/62 61/61/61
f 64/64/64 63/63/63 61/61/61
f 64/64/64 65/65/65 63/63/63
f 65/65/65 66/66/66 63/63/63
f 69/69/69 68/68/68 67/67/67
f 70/70/70 69/69/69 67/67/67
f 71/71/71 69/69/69 70/70/70
f 72/72/72 71/71/71 70/70/70
f 75/75/75 74/74/74 73/73/73
f 76/76/76 75/75/75 73/73/73
f 76/76/76 77/77/77 75/75/75
f 77/77/77 78/78/78 75/75/75
f 81/81/81 80/80/80 79/79/79
f 82/82/82 81/81/81 79/79/79
f 85/85/85 84/84/84 83/83/83
f 86/86/86 85/85/85 83/83/83
f 89/89/89 88/88/88 87/87/87
f 90/90/90 89/89/89 87/87/87
f 93/93/93 92/92/92 91/91/91
f 94/94/94 93/93/93 91/91/91
f 97/97/97 96/96/96 95/95/95
f 98/98/98 97/97/97 95/95/95
f 101/101/101 100/100/100 99/99/99
f 102/102/102 101/101/101 99/99/99
f 105/105/105 104/104/104 103/103/103
f 106/106/106 105/105/105 103/103/103
f 109/109/109 108/108/108 107/107/107
f 110/110/110 109/109/109 107/107/107
f 113/113/113 112/112/112 111/111/111
f 114/114/114 113/113/113 111/111/111
f 117/117/117 116/116/116 115/115/115
f 118/118/118 117/117/117 115/115/115
f 121/121/121 120/120/120 119/119/119
f 122/122/122 121/121/121 119/119/119
f 122/122/122 123/123/123 121/121/121
f 122/122/122 124/124/124 123/123/123
f 127/127/127 126/126/126 125/125/125
f 128/128/128 127/127/127 125/125/125
f 129/129/129 127/127/127 128/128/128
f 130/130/130 129/129/129 128/128/128
f 133/133/133 132/132/132 131/131/131
f 134/134/134 133/133/133 131/131/131
f 134/134/134 135/135/135 133/133/133
f 135/135/135 136/136/136 133/133/133
f 139/139/139 138/138/138 137/137/137
f 140/140/140 139/139/139 137/137/137
f 140/140/140 141/141/141 139/139/139
f 141/141/141 142/142/142 139/139/139
f 145/145/145 144/144/144 143/143/143
f 146/146/146 145/145/145 143/143/143
f 149/149/149 148/148/148 147/147/147
f 150/150/150 149/149/149 147/147/147
f 147/147/147 148/148/148 151/151/151
f 152/152/152 149/149/149 150/150/150
f 148/148/148 153/153/153 151/151/151
f 154/154/154 152/152/152 150/150/150
f 151/151/151 153/153/153 155/155/155
f 156/156/156 152/152/152 154/154/154
f 155/155/155 156/156/156 154/154/154
f 153/153/153 156/156/156 155/155/155
f 159/159/159 158/158/158 157/157/157
f 160/160/160 159/159/159 157/157/157
f 159/159/159 161/161/161 158/158/158
f 160/160/160 157/157/157 162/162/162
f 161/161/161 163/163/163 158/158/158
f 164/164/164 160/160/160 162/162/162
f 161/161/161 165/165/165 163/163/163
f 164/164/164 162/162/162 166/166/166
f 165/165/165 166/166/166 163/163/163
f 165/165/165 164/164/164 166/166/166
