g hugo_prop_clockLid
v -0.2831287 0.04161108 -0.6829454
v -0.2831287 -0.001296937 -0.6829454
v -3.576279E-07 -0.001296937 -0.8002217
v -3.576279E-07 0.04161108 -0.8002217
v -0.2469934 0.05998158 -0.6468101
v -3.576279E-07 0.05998158 -0.7491188
v -3.576279E-07 0.04161108 -0.8002217
v -3.576279E-07 -0.001296937 -0.8002217
v 0.2831292 -0.001296937 -0.6829454
v 0.2831292 0.04161108 -0.6829454
v -3.576279E-07 0.05998158 -0.7491188
v 0.2469939 0.05998158 -0.6468101
v 0.2831292 0.04161108 -0.6829454
v 0.2831292 -0.001296937 -0.6829454
v 0.4004044 -0.001296937 -0.399817
v 0.4004044 0.04161108 -0.399817
v 0.2469939 0.05998158 -0.6468101
v 0.3493015 0.05998158 -0.399817
v 0.4004044 0.04161108 -0.399817
v 0.4004044 -0.001296937 -0.399817
v 0.2831292 -0.001296937 -0.1166874
v 0.2831292 0.04161108 -0.1166874
v 0.3493015 0.05998158 -0.399817
v 0.2469939 0.05998158 -0.1528227
v 0.2831292 0.04161108 -0.1166874
v 0.2831292 -0.001296937 -0.1166874
v -3.576279E-07 -0.001296937 0.0005877018
v -3.576279E-07 0.04161108 0.0005877018
v 0.2469939 0.05998158 -0.1528227
v -3.576279E-07 0.05998158 -0.05051512
v -3.576279E-07 0.04161108 0.0005877018
v -3.576279E-07 -0.001296937 0.0005877018
v -0.2831287 -0.001296937 -0.1166874
v -0.2831287 0.04161108 -0.1166874
v -3.576279E-07 0.05998158 -0.05051512
v -0.2469934 0.05998158 -0.1528227
v -0.2831287 0.04161108 -0.1166874
v -0.2831287 -0.001296937 -0.1166874
v -0.400405 -0.001296937 -0.399817
v -0.400405 0.04161108 -0.399817
v -0.2469934 0.05998158 -0.1528227
v -0.3493022 0.05998158 -0.399817
v -0.400405 0.04161108 -0.399817
v -0.400405 -0.001296937 -0.399817
v -0.2831287 -0.001296937 -0.6829454
v -0.2831287 0.04161108 -0.6829454
v -0.3493022 0.05998158 -0.399817
v -0.2469934 0.05998158 -0.6468101
v -3.576279E-07 0.05998158 -0.7491188
v -3.576279E-07 0.07215762 -0.399817
v -0.2469934 0.05998158 -0.6468101
v 0.2469939 0.05998158 -0.6468101
v -0.3493022 0.05998158 -0.399817
v 0.3493015 0.05998158 -0.399817
v -0.2469934 0.05998158 -0.1528227
v 0.2469939 0.05998158 -0.1528227
v -3.576279E-07 0.05998158 -0.05051512
v -0.2831287 -0.001296937 -0.6829454
v -3.576279E-07 0.03431964 -0.399817
v -3.576279E-07 -0.001296937 -0.8002217
v -0.400405 -0.001296937 -0.399817
v 0.2831292 -0.001296937 -0.6829454
v -0.2831287 -0.001296937 -0.1166874
v 0.4004044 -0.001296937 -0.399817
v -3.576279E-07 -0.001296937 0.0005877018
v 0.2831292 -0.001296937 -0.1166874
vt 0.2222333 0.2284279
vt 0.2222333 0.2536536
vt 0.2248261 0.2536536
vt 0.2248261 0.2489713
vt 0.2222333 0.2353275
vt 0.2248261 0.2613106
vt 0.2248261 0.2489713
vt 0.2248261 0.2536536
vt 0.2274201 0.2536536
vt 0.2274201 0.2489713
vt 0.2248261 0.2613106
vt 0.2274201 0.2566245
vt 0.2274201 0.2489713
vt 0.2274201 0.2536536
vt 0.2300129 0.2536536
vt 0.2300129 0.2284279
vt 0.2274201 0.2566245
vt 0.2300129 0.2353275
vt 0.2300129 0.2284279
vt 0.2300129 0.2536536
vt 0.2326057 0.204473
vt 0.2326057 0.2222721
vt 0.2300129 0.2353275
vt 0.2326057 0.2353275
vt 0.2326057 0.2222721
vt 0.2326057 0.204473
vt 0.2351998 0.2311535
vt 0.2351998 0.2284279
vt 0.2326057 0.2353275
vt 0.2351998 0.2353275
vt 0.2351998 0.2284279
vt 0.2351998 0.2311535
vt 0.2377926 0.1993425
vt 0.2377926 0.2066952
vt 0.2351998 0.2353275
vt 0.2377926 0.2353275
vt 0.2377926 0.2066952
vt 0.2377926 0.1993425
vt 0.2403854 0.2536536
vt 0.2403854 0.2504399
vt 0.2377926 0.2353275
vt 0.2403854 0.2460167
vt 0.2403854 0.2504399
vt 0.2403854 0.2536536
vt 0.2429782 0.2536536
vt 0.2429782 0.2284279
vt 0.2403854 0.2460167
vt 0.2429782 0.2353275
vt 0.2363616 0.2588305
vt 0.2363616 0.2626127
vt 0.2431497 0.2353663
vt 0.2295747 0.2472975
vt 0.2459604 0.2439472
vt 0.2267641 0.2353651
vt 0.2431497 0.2353626
vt 0.2295747 0.2353626
vt 0.2363616 0.2353613
vt 0.2431497 0.1809136
vt 0.2363616 0.2111021
vt 0.2363616 0.1809725
vt 0.2459604 0.1807697
vt 0.2295747 0.1809136
vt 0.2431497 0.1806257
vt 0.2267641 0.1807697
vt 0.2363616 0.1805656
vt 0.2295747 0.1806257
vn -0.327468 0.5171063 -0.7908007
vn -0.3822091 0.0009775162 -0.9240754
vn -0.3822091 0.0009775162 -0.9240754
vn -0.327468 0.5171063 -0.7908007
vn -0.1378299 0.9315734 -0.3364134
vn -0.1378299 0.9315734 -0.3364134
vn 0.3274681 0.5171063 -0.7908007
vn 0.382209 0.0009775162 -0.9240754
vn 0.382209 0.0009775162 -0.9240754
vn 0.3274681 0.5171063 -0.7908007
vn 0.1378298 0.9315734 -0.3364134
vn 0.1378298 0.9315734 -0.3364134
vn 0.7908109 0.5171063 -0.3274433
vn 0.9237532 0.0009775162 -0.382987
vn 0.9237532 0.0009775162 -0.382987
vn 0.7908109 0.5171063 -0.3274433
vn 0.3352882 0.9315734 -0.1405449
vn 0.3352882 0.9315734 -0.1405449
vn 0.7908109 0.5171063 0.3274433
vn 0.9237532 0.0009775162 0.382987
vn 0.9237532 0.0009775162 0.382987
vn 0.7908109 0.5171063 0.3274433
vn 0.3352882 0.9315734 0.1405449
vn 0.3352882 0.9315734 0.1405449
vn 0.3274681 0.5171063 0.7908007
vn 0.382209 0.0009775162 0.9240754
vn 0.382209 0.0009775162 0.9240754
vn 0.3274681 0.5171063 0.7908007
vn 0.1378298 0.9315734 0.3364134
vn 0.1378298 0.9315734 0.3364134
vn -0.327468 0.5171063 0.7908007
vn -0.3822091 0.0009775162 0.9240754
vn -0.3822091 0.0009775162 0.9240754
vn -0.327468 0.5171063 0.7908007
vn -0.1378299 0.9315734 0.3364134
vn -0.1378299 0.9315734 0.3364134
vn -0.7908109 0.5171063 0.3274433
vn -0.9237533 0.0009775162 0.3829869
vn -0.9237533 0.0009775162 0.3829869
vn -0.7908109 0.5171063 0.3274433
vn -0.3352882 0.9315734 0.1405449
vn -0.3352882 0.9315734 0.1405449
vn -0.7908109 0.5171063 -0.3274433
vn -0.9237533 0.0009775162 -0.3829869
vn -0.9237533 0.0009775162 -0.3829869
vn -0.7908109 0.5171063 -0.3274433
vn -0.3352882 0.9315734 -0.1405449
vn -0.3352882 0.9315734 -0.1405449
vn -0.0009775162 0.9999995 0
vn -0.0009775162 0.9999995 0
vn -0.02443062 0.9997014 0
vn 0.02443062 0.9997014 0
vn -0.03419308 0.9994153 0
vn 0.03419308 0.9994153 0
vn -0.02443062 0.9997014 0
vn 0.02443062 0.9997014 0
vn -0.0009775162 0.9999995 0
vn 0.06353861 -0.9960895 0.06138911
vn -0.0009775162 -0.9999995 0
vn -0.0009775162 -0.9960895 0.08834484
vn 0.08894927 -0.9960362 0
vn -0.06353855 -0.9960895 0.06138911
vn 0.06353861 -0.9960895 -0.06138911
vn -0.08894921 -0.9960362 0
vn -0.0009775162 -0.9960895 -0.08834484
vn -0.06353855 -0.9960895 -0.06138911
g hugo_prop_clockLid_0
f 3/3/3 2/2/2 1/1/1
f 4/4/4 3/3/3 1/1/1
f 4/4/4 1/1/1 5/5/5
f 6/6/6 4/4/4 5/5/5
f 9/9/9 8/8/8 7/7/7
f 10/10/10 9/9/9 7/7/7
f 10/10/10 7/7/7 11/11/11
f 12/12/12 10/10/10 11/11/11
f 15/15/15 14/14/14 13/13/13
f 16/16/16 15/15/15 13/13/13
f 16/16/16 13/13/13 17/17/17
f 18/18/18 16/16/16 17/17/17
f 21/21/21 20/20/20 19/19/19
f 22/22/22 21/21/21 19/19/19
f 22/22/22 19/19/19 23/23/23
f 24/24/24 22/22/22 23/23/23
f 27/27/27 26/26/26 25/25/25
f 28/28/28 27/27/27 25/25/25
f 28/28/28 25/25/25 29/29/29
f 30/30/30 28/28/28 29/29/29
f 33/33/33 32/32/32 31/31/31
f 34/34/34 33/33/33 31/31/31
f 34/34/34 31/31/31 35/35/35
f 36/36/36 34/34/34 35/35/35
f 39/39/39 38/38/38 37/37/37
f 40/40/40 39/39/39 37/37/37
f 40/40/40 37/37/37 41/41/41
f 42/42/42 40/40/40 41/41/41
f 45/45/45 44/44/44 43/43/43
f 46/46/46 45/45/45 43/43/43
f 46/46/46 43/43/43 47/47/47
f 48/48/48 46/46/46 47/47/47
f 51/51/51 50/50/50 49/49/49
f 49/49/49 50/50/50 52/52/52
f 53/53/53 50/50/50 51/51/51
f 52/52/52 50/50/50 54/54/54
f 55/55/55 50/50/50 53/53/53
f 54/54/54 50/50/50 56/56/56
f 57/57/57 50/50/50 55/55/55
f 56/56/56 50/50/50 57/57/57
f 60/60/60 59/59/59 58/58/58
f 58/58/58 59/59/59 61/61/61
f 62/62/62 59/59/59 60/60/60
f 61/61/61 59/59/59 63/63/63
f 64/64/64 59/59/59 62/62/62
f 63/63/63 59/59/59 65/65/65
f 66/66/66 59/59/59 64/64/64
f 65/65/65 59/59/59 66/66/66
