g hugo_TicTocFX02
v 0.08562213 -0.5723858 0.02699423
v 0.1780691 0.5871162 0.02699423
v 0.2245658 0.5723858 0.02699423
v 0.1321188 -0.5871162 0.02699423
v 0.1780691 0.5871162 0.02699423
v 0.1780691 0.5871162 -0.02699417
v 0.2245658 0.5723858 -0.02699417
v 0.2245658 0.5723858 0.02699423
v 0.1780691 0.5871162 -0.02699417
v 0.08562213 -0.5723858 -0.02699417
v 0.1321188 -0.5871162 -0.02699417
v 0.2245658 0.5723858 -0.02699417
v 0.08562213 -0.5723858 -0.02699417
v 0.08562213 -0.5723858 0.02699423
v 0.1321188 -0.5871162 0.02699423
v 0.1321188 -0.5871162 -0.02699417
v 0.1321188 -0.5871162 0.02699423
v 0.2245658 0.5723858 0.02699423
v 0.2245658 0.5723858 -0.02699417
v 0.1321188 -0.5871162 -0.02699417
v 0.08562213 -0.5723858 -0.02699417
v 0.1780691 0.5871162 -0.02699417
v 0.1780691 0.5871162 0.02699423
v 0.08562213 -0.5723858 0.02699423
vt 0.8209717 0.07689002
vt 0.83131 0.1337335
vt 0.8365198 0.1330141
vt 0.8261699 0.07615902
vt 0.83131 0.1337335
vt 0.831194 0.133687
vt 0.8363922 0.1329677
vt 0.8365198 0.1330141
vt 0.831194 0.133687
vt 0.8208441 0.076832
vt 0.8260422 0.07611261
vt 0.8363922 0.1329677
vt 0.8208441 0.076832
vt 0.8209717 0.07689002
vt 0.8261699 0.07615902
vt 0.8260422 0.07611261
vt 0.8261699 0.07615902
vt 0.8365198 0.1330141
vt 0.8363922 0.1329677
vt 0.8260422 0.07611261
vt 0.8208441 0.076832
vt 0.831194 0.133687
vt 0.83131 0.1337335
vt 0.8209717 0.07689002
vn -0.0009744763 0.0009744763 0.999999
vn -0.0009744763 0.0009744763 0.999999
vn -0.0009744763 0.0009744763 0.999999
vn -0.0009744763 0.0009744763 0.999999
vn 0.3009915 0.9536268 0
vn 0.3009915 0.9536268 0
vn 0.3009915 0.9536268 0
vn 0.3009915 0.9536268 0
vn -0.0009744763 0.0009744763 -0.999999
vn -0.0009744763 0.0009744763 -0.999999
vn -0.0009744763 0.0009744763 -0.999999
vn -0.0009744763 0.0009744763 -0.999999
vn -0.3009915 -0.9536268 0
vn -0.3009915 -0.9536268 0
vn -0.3009915 -0.9536268 0
vn -0.3009915 -0.9536268 0
vn 0.9968367 -0.07892841 -0.009325654
vn 0.9968367 -0.07892841 -0.009325654
vn 0.9968367 -0.07892841 -0.009325654
vn 0.9968367 -0.07892841 -0.009325654
vn -0.9968367 0.07892847 -0.009325155
vn -0.9968367 0.07892847 -0.009325155
vn -0.9968367 0.07892847 -0.009325155
vn -0.9968367 0.07892847 -0.009325155
g hugo_TicTocFX02_0
f 3/3/3 2/2/2 1/1/1
f 4/4/4 3/3/3 1/1/1
f 7/7/7 6/6/6 5/5/5
f 8/8/8 7/7/7 5/5/5
f 11/11/11 10/10/10 9/9/9
f 12/12/12 11/11/11 9/9/9
f 15/15/15 14/14/14 13/13/13
f 16/16/16 15/15/15 13/13/13
f 19/19/19 18/18/18 17/17/17
f 20/20/20 19/19/19 17/17/17
f 23/23/23 22/22/22 21/21/21
f 24/24/24 23/23/23 21/21/21
