g hugo_TicTocFX01
v -0.2145014 -0.4024773 0.02699459
v -0.2757005 0.3881665 0.02699459
v -0.2291715 0.4024773 0.02699459
v -0.1679724 -0.3881665 0.02699459
v -0.2757005 0.3881665 0.02699459
v -0.2757005 0.3881665 -0.02699456
v -0.2291715 0.4024773 -0.02699456
v -0.2291715 0.4024773 0.02699459
v -0.2757005 0.3881665 -0.02699456
v -0.2145014 -0.4024773 -0.02699456
v -0.1679724 -0.3881665 -0.02699456
v -0.2291715 0.4024773 -0.02699456
v -0.2145014 -0.4024773 -0.02699456
v -0.2145014 -0.4024773 0.02699459
v -0.1679724 -0.3881665 0.02699459
v -0.1679724 -0.3881665 -0.02699456
v -0.1679724 -0.3881665 0.02699459
v -0.2291715 0.4024773 0.02699459
v -0.2291715 0.4024773 -0.02699456
v -0.1679724 -0.3881665 -0.02699456
v -0.2145014 -0.4024773 -0.02699456
v -0.2757005 0.3881665 -0.02699456
v -0.2757005 0.3881665 0.02699459
v -0.2145014 -0.4024773 0.02699459
vt 0.8274876 0.08808131
vt 0.8206359 0.1268509
vt 0.82584 0.1275554
vt 0.8326917 0.0887858
vt 0.8206359 0.1268509
vt 0.8205109 0.1268055
vt 0.825715 0.12751
vt 0.82584 0.1275554
vt 0.8205109 0.1268055
vt 0.8273626 0.08803586
vt 0.8325667 0.08874035
vt 0.825715 0.12751
vt 0.8273626 0.08803586
vt 0.8274876 0.08808131
vt 0.8326917 0.0887858
vt 0.8325667 0.08874035
vt 0.8326917 0.0887858
vt 0.82584 0.1275554
vt 0.825715 0.12751
vt 0.8325667 0.08874035
vt 0.8273626 0.08803586
vt 0.8205109 0.1268055
vt 0.8206359 0.1268509
vt 0.8274876 0.08808131
vn -0.0009746552 0.0009746552 0.999999
vn -0.0009746552 0.0009746552 0.999999
vn -0.0009746552 0.0009746552 0.999999
vn -0.0009746552 0.0009746552 0.999999
vn -0.2933325 0.9560105 0
vn -0.2933325 0.9560105 0
vn -0.2933325 0.9560105 0
vn -0.2933325 0.9560105 0
vn -0.0009746552 0.0009746552 -0.999999
vn -0.0009746552 0.0009746552 -0.999999
vn -0.0009746552 0.0009746552 -0.999999
vn -0.0009746552 0.0009746552 -0.999999
vn 0.2933325 -0.9560105 0
vn 0.2933325 -0.9560105 0
vn 0.2933325 -0.9560105 0
vn 0.2933325 -0.9560105 0
vn 0.9970177 0.07699358 -0.005255894
vn 0.9970177 0.07699358 -0.005255894
vn 0.9970177 0.07699358 -0.005255894
vn 0.9970177 0.07699358 -0.005255894
vn -0.9970179 -0.07699353 -0.005234054
vn -0.9970179 -0.07699353 -0.005234054
vn -0.9970179 -0.07699353 -0.005234054
vn -0.9970179 -0.07699353 -0.005234054
g hugo_TicTocFX01_0
f 3/3/3 2/2/2 1/1/1
f 4/4/4 3/3/3 1/1/1
f 7/7/7 6/6/6 5/5/5
f 8/8/8 7/7/7 5/5/5
f 11/11/11 10/10/10 9/9/9
f 12/12/12 11/11/11 9/9/9
f 15/15/15 14/14/14 13/13/13
f 16/16/16 15/15/15 13/13/13
f 19/19/19 18/18/18 17/17/17
f 20/20/20 19/19/19 17/17/17
f 23/23/23 22/22/22 21/21/21
f 24/24/24 23/23/23 21/21/21
