g Hugo_parrot_wing_right
v -0.7046556 -0.2068908 -0.2952589
v -0.5432801 -0.3607107 0.2003754
v -0.2807434 -0.5488203 -0.1997412
v -0.5432801 -0.3607107 0.2003754
v 0.2791501 -0.3086498 0.02701581
v -0.2807434 -0.5488203 -0.1997412
v 0.08469367 -0.6282163 0.1332897
v 0.003430367 -0.1382511 -0.01217222
v 0.1194053 -0.6295432 0.01179278
v -0.2403597 0.002142787 -0.2416279
v -0.7046556 -0.2068908 -0.2952589
v -0.2807434 -0.5488203 -0.1997412
v 0.2791501 -0.3086498 0.02701581
v -4.768372E-07 4.768372E-07 4.768372E-07
v -0.2403597 0.002142787 -0.2416279
v -0.5432801 -0.3607107 0.2003754
v -0.7046556 -0.2068908 -0.2952589
v -4.768372E-07 4.768372E-07 4.768372E-07
v 0.2791501 -0.3086498 0.02701581
v -1.421407 -1.578458 -0.1579729
v -1.243209 -1.053618 -0.06173599
v -0.3069947 -1.270403 0.2423068
v -0.8422165 -0.524219 0.01715171
v 0.08469367 -0.6282163 0.1332897
v 0.003430367 -0.1382511 -0.01217222
v -1.243209 -1.053618 -0.06173599
v -1.460205 -1.041999 -0.3863032
v -1.034317 -0.3120232 -0.3463126
v -0.8422165 -0.524219 0.01715171
v 0.003430367 -0.1382511 -0.01217222
v -1.460205 -1.041999 -0.3863032
v -1.626498 -1.726274 -0.3466643
v -0.3293352 -1.375599 0.04766822
v -1.034317 -0.3120232 -0.3463126
v 0.003430367 -0.1382511 -0.01217222
v 0.1194053 -0.6295432 0.01179278
v -1.626498 -1.726274 -0.3466643
v -1.421407 -1.578458 -0.1579729
v -0.3069947 -1.270403 0.2423068
v -0.3293352 -1.375599 0.04766822
v 0.1194053 -0.6295432 0.01179278
v 0.08469367 -0.6282163 0.1332897
v -1.626498 -1.726274 -0.3466643
v -1.460205 -1.041999 -0.3863032
v -1.243209 -1.053618 -0.06173599
v -1.421407 -1.578458 -0.1579729
vt 0.2611314 0.01984668
vt 0.272269 0.01271169
vt 0.2707898 0.02564749
vt 0.272269 0.01271169
vt 0.277132 0.03120661
vt 0.2707898 0.02564749
vt 0.2627847 0.1944898
vt 0.2627847 0.2115442
vt 0.2627847 0.2017118
vt 0.2590722 0.03100358
vt 0.2611314 0.01984668
vt 0.2707898 0.02564749
vt 0.2708381 0.04098098
vt 0.2621079 0.0361373
vt 0.2588401 0.06404887
vt 0.2966034 0.1120603
vt 0.2591108 0.1123406
vt 0.2666519 0.01758437
vt 0.296207 0.007384606
vt 0.5871951 0.04164807
vt 0.5631507 0.08985282
vt 0.6406786 0.1377675
vt 0.5462413 0.1613671
vt 0.6409783 0.2067682
vt 0.5573596 0.2317697
vt 0.5631507 0.08985282
vt 0.5306855 0.06421323
vt 0.5064188 0.1562818
vt 0.5462413 0.1613671
vt 0.5573596 0.2317697
vt 0.2584147 0.2973382
vt 0.2584147 0.3123719
vt 0.2584147 0.3124106
vt 0.2584147 0.3320464
vt 0.2584147 0.3886333
vt 0.2584147 0.3824651
vt 0.2627847 0.1176097
vt 0.260416 0.1368684
vt 0.2627847 0.1520085
vt 0.260416 0.1367137
vt 0.2627847 0.2017118
vt 0.2627847 0.1944898
vt 0.5794027 0.008380412
vt 0.5306855 0.06421323
vt 0.5631507 0.08985282
vt 0.5871951 0.04164807
vn -0.6218554 -0.7825679 -0.02971905
vn -0.6218554 -0.7825679 -0.02971905
vn -0.6218554 -0.7825679 -0.02971905
vn 0.1602898 -0.849609 0.5024657
vn 0.1602898 -0.849609 0.5024657
vn 0.1602898 -0.849609 0.5024657
vn 0.935559 0.2333613 0.2650885
vn 0.935559 0.2333613 0.2650885
vn 0.935559 0.2333613 0.2650885
vn 0.3975118 0.02192432 -0.9173351
vn 0.1516948 -0.08637273 -0.9846464
vn 0.3854788 0.01676732 -0.9225643
vn 0.4886189 0.06661826 -0.8699504
vn 0.4886189 0.06661826 -0.8699504
vn -0.4052615 0.8229786 0.3980822
vn -0.2625844 0.7335905 0.6268129
vn -0.4155754 0.8212596 0.3909345
vn -0.02536231 0.5152774 0.856648
vn 0.1843557 0.2505514 0.9503878
vn -0.3210304 -0.0640257 0.9449022
vn -0.3089973 -0.003860712 0.951055
vn -0.1972623 0.1302213 0.9716635
vn -0.1938244 0.1594444 0.9679926
vn -0.09412235 0.2436754 0.9652789
vn -0.09068435 0.2694604 0.9587322
vn -0.7146814 0.4172944 0.561334
vn -0.7146814 0.4172944 0.561334
vn -0.6046655 0.5341864 0.590783
vn -0.5634095 0.5720045 0.5961381
vn -0.3158734 0.7370285 0.5975056
vn 0.3201568 -0.1345047 -0.9377676
vn 0.3201568 -0.1345047 -0.9377676
vn 0.2960908 -0.1259097 -0.9468247
vn 0.2960908 -0.1259097 -0.9468247
vn 0.2651488 -0.1173148 -0.9570441
vn 0.2651488 -0.1173148 -0.9570441
vn 0.05886871 -0.849609 0.5241175
vn 0.05886871 -0.849609 0.5241175
vn 0.5333129 -0.7464689 0.3979467
vn 0.2823388 -0.8289809 0.4827789
vn 0.84789 -0.4920568 0.1973897
vn 0.84789 -0.4920568 0.1973897
vn -0.7817225 0.1955433 0.5921763
vn -0.7817225 0.1955433 0.5921763
vn -0.7817225 0.1955433 0.5921763
vn -0.7817225 0.1955433 0.5921763
g Hugo_parrot_wing_right_0
f 3/3/3 2/2/2 1/1/1
f 6/6/6 5/5/5 4/4/4
f 9/9/9 8/8/8 7/7/7
f 12/12/12 11/11/11 10/10/10
f 13/13/13 12/12/12 10/10/10
f 14/14/14 13/13/13 10/10/10
f 17/17/17 16/16/16 15/15/15
f 16/16/16 18/18/18 15/15/15
f 16/16/16 19/19/19 18/18/18
f 22/22/22 21/21/21 20/20/20
f 22/22/22 23/23/23 21/21/21
f 22/22/22 24/24/24 23/23/23
f 24/24/24 25/25/25 23/23/23
f 28/28/28 27/27/27 26/26/26
f 29/29/29 28/28/28 26/26/26
f 30/30/30 28/28/28 29/29/29
f 33/33/33 32/32/32 31/31/31
f 34/34/34 33/33/33 31/31/31
f 34/34/34 35/35/35 33/33/33
f 35/35/35 36/36/36 33/33/33
f 39/39/39 38/38/38 37/37/37
f 40/40/40 39/39/39 37/37/37
f 40/40/40 41/41/41 39/39/39
f 41/41/41 42/42/42 39/39/39
f 45/45/45 44/44/44 43/43/43
f 46/46/46 45/45/45 43/43/43
