g Jake_head
v 0 7.061393 1.708282
v 0 7.60257 1.965169
v 0.1230598 7.604621 1.91631
v 0 6.692633 1.388245
v 0.6990578 6.905799 1.191156
v 0.1230598 7.604621 1.91631
v 0.6159966 7.44621 1.569413
v 0 7.061393 1.708282
v 0 6.893362 0.1362834
v 0 6.692633 1.388245
v 0.6990578 6.905799 1.191156
v 0.6159966 7.44621 1.569413
v 0.6629694 7.61233 1.526638
v 0.9731705 7.537021 1.371461
v 0.6159966 7.44621 1.569413
v 0.1230598 7.604621 1.91631
v 0.9731705 7.537021 1.371461
v 0.6990578 6.905799 1.191156
v 0 7.061393 1.708282
v 0.6990578 6.905799 1.191156
v 0.6629694 7.61233 1.526638
v 1.011622 7.826091 1.2392
v 0.9731705 7.537021 1.371461
v 0.6990578 6.905799 1.191156
v 0.9478146 7.269147 0.3591172
v 0 6.893362 0.1362834
v 1.084125 7.6875 0.9448496
v 0.6990578 6.905799 1.191156
v 0.9731705 7.537021 1.371461
v 1.011622 7.826091 1.2392
v 0.9731705 7.537021 1.371461
v 1.039986 8.344143 1.002744
v 0.9733489 8.187909 1.390757
v 0.894462 8.409343 1.497707
v 0.8659296 8.644557 1.270793
v 0.5644808 8.697992 1.484887
v 0.5659408 8.492094 1.745083
v 0 8.47092 1.867941
v 0.1230598 7.604621 1.91631
v 0 7.807784 1.752271
v 0.6629694 7.61233 1.526638
v 0 7.60257 1.965169
v 0 7.807784 1.752271
v 0.1230598 7.604621 1.91631
v 0.593399 8.221614 1.707772
v 0.9733489 8.187909 1.390757
v 0.6629694 7.61233 1.526638
v 1.011622 7.826091 1.2392
v 0.6629694 7.61233 1.526638
v 0.6629694 7.61233 1.526638
v 0 7.807784 1.752271
v 0.593399 8.221614 1.707772
v -0.1230598 7.604621 1.91631
v 0 7.60257 1.965169
v 0 7.061393 1.708282
v 0 6.692633 1.388245
v -0.6990578 6.905799 1.191156
v -0.1230598 7.604621 1.91631
v 0 7.061393 1.708282
v -0.6159966 7.44621 1.569413
v 0 6.893362 0.1362834
v -0.6990578 6.905799 1.191156
v 0 6.692633 1.388245
v -0.6159966 7.44621 1.569413
v -0.9731705 7.537021 1.371461
v -0.6629694 7.61233 1.526638
v -0.6159966 7.44621 1.569413
v -0.1230598 7.604621 1.91631
v -0.9731705 7.537021 1.371461
v -0.6990578 6.905799 1.191156
v 0 7.061393 1.708282
v -0.6990578 6.905799 1.191156
v -0.6629694 7.61233 1.526638
v -0.9731705 7.537021 1.371461
v -1.011622 7.826091 1.2392
v -0.6990578 6.905799 1.191156
v 0 6.893362 0.1362834
v -0.9478146 7.269147 0.3591172
v -1.084125 7.6875 0.9448496
v -0.6990578 6.905799 1.191156
v -0.9731705 7.537021 1.371461
v -1.011622 7.826091 1.2392
v -0.9731705 7.537021 1.371461
v -1.039986 8.344143 1.002744
v -0.9733489 8.187909 1.390757
v -0.894462 8.409343 1.497707
v -0.8659296 8.644557 1.270793
v -0.5644808 8.697992 1.484887
v -0.5659408 8.492094 1.745083
v 0 8.47092 1.867941
v -0.1230598 7.604621 1.91631
v -0.6629694 7.61233 1.526638
v 0 7.807784 1.752271
v 0 7.60257 1.965169
v -0.1230598 7.604621 1.91631
v 0 7.807784 1.752271
v -0.593399 8.221614 1.707772
v -0.6629694 7.61233 1.526638
v -0.9733489 8.187909 1.390757
v -0.6629694 7.61233 1.526638
v -1.011622 7.826091 1.2392
v -0.6629694 7.61233 1.526638
v -0.593399 8.221614 1.707772
v 0 7.807784 1.752271
v 0.894462 8.409343 1.497707
v 0.9733489 8.187909 1.390757
v 0.593399 8.221614 1.707772
v 0.5659408 8.492094 1.745083
v 0 8.47092 1.867941
v 0 8.146568 1.816322
v 0 8.47092 1.867941
v 0 7.807784 1.752271
v -0.894462 8.409343 1.497707
v -0.593399 8.221614 1.707772
v -0.9733489 8.187909 1.390757
v -0.5659408 8.492094 1.745083
v 0 8.47092 1.867941
v 0 8.47092 1.867941
v 0 8.146568 1.816322
v 0 7.807784 1.752271
vt 0.9176448 0.457629
vt 0.9466725 0.5624431
vt 0.9208654 0.55919
vt 0.8803781 0.3752493
vt 0.7679907 0.4174217
vt 0.9208654 0.55919
vt 0.8243118 0.5083484
vt 0.9176448 0.457629
vt 0.758908 0.3476235
vt 0.8803781 0.3752493
vt 0.7679907 0.4174217
vt 0.8243118 0.5083484
vt 0.7801511 0.5560262
vt 0.725691 0.5323753
vt 0.8243118 0.5083484
vt 0.9208654 0.55919
vt 0.725691 0.5323753
vt 0.7679907 0.4174217
vt 0.9176448 0.457629
vt 0.7679907 0.4174217
vt 0.7801511 0.5560262
vt 0.6958501 0.5719674
vt 0.725691 0.5323753
vt 0.7679907 0.4174217
vt 0.6698664 0.4079091
vt 0.758908 0.3476235
vt 0.6522849 0.5370148
vt 0.7679907 0.4174217
vt 0.725691 0.5323753
vt 0.6958501 0.5719674
vt 0.725691 0.5323753
vt 0.6457813 0.6748838
vt 0.6987662 0.6621681
vt 0.699345 0.7149472
vt 0.7001944 0.7557763
vt 0.7710323 0.7747985
vt 0.7813095 0.7278321
vt 0.9010862 0.7426314
vt 0.9208654 0.55919
vt 0.9175417 0.6152328
vt 0.7801511 0.5560262
vt 0.9466725 0.5624431
vt 0.9175417 0.6152328
vt 0.9208654 0.55919
vt 0.808194 0.7594822
vt 0.7865723 0.7607729
vt 0.7801511 0.5560262
vt 0.6958501 0.5719674
vt 0.7801511 0.5560262
vt 0.7801511 0.5560262
vt 0.9175417 0.6152328
vt 0.808194 0.7594822
vt 0.9208654 0.55919
vt 0.9466725 0.5624431
vt 0.9176448 0.457629
vt 0.8803781 0.3752493
vt 0.7679907 0.4174217
vt 0.9208654 0.55919
vt 0.9176448 0.457629
vt 0.8243118 0.5083484
vt 0.758908 0.3476235
vt 0.7679907 0.4174217
vt 0.8803781 0.3752493
vt 0.8243118 0.5083484
vt 0.725691 0.5323753
vt 0.7801511 0.5560262
vt 0.8243118 0.5083484
vt 0.9208654 0.55919
vt 0.725691 0.5323753
vt 0.7679907 0.4174217
vt 0.9176448 0.457629
vt 0.7679907 0.4174217
vt 0.7801511 0.5560262
vt 0.725691 0.5323753
vt 0.6958501 0.5719674
vt 0.7679907 0.4174217
vt 0.758908 0.3476235
vt 0.6698664 0.4079091
vt 0.6522849 0.5370148
vt 0.7679907 0.4174217
vt 0.725691 0.5323753
vt 0.6958501 0.5719674
vt 0.725691 0.5323753
vt 0.6457813 0.6748838
vt 0.6987662 0.6621681
vt 0.699345 0.7149472
vt 0.7001944 0.7557763
vt 0.7710323 0.7747985
vt 0.7813095 0.7278321
vt 0.9010862 0.7426314
vt 0.9208654 0.55919
vt 0.7801511 0.5560262
vt 0.9175417 0.6152328
vt 0.9466725 0.5624431
vt 0.9208654 0.55919
vt 0.9175417 0.6152328
vt 0.808194 0.7594822
vt 0.7801511 0.5560262
vt 0.7865723 0.7607729
vt 0.7801511 0.5560262
vt 0.6958501 0.5719674
vt 0.7801511 0.5560262
vt 0.808194 0.7594822
vt 0.9175417 0.6152328
vt 0.7892089 0.7753047
vt 0.7865723 0.7607729
vt 0.808194 0.7594822
vt 0.8144221 0.775264
vt 0.9010862 0.7426314
vt 0.9124589 0.6811019
vt 0.9010862 0.7426314
vt 0.9175417 0.6152328
vt 0.7892089 0.7753047
vt 0.808194 0.7594822
vt 0.7865723 0.7607729
vt 0.8144221 0.775264
vt 0.9010862 0.7426314
vt 0.9010862 0.7426314
vt 0.9124589 0.6811019
vt 0.9175417 0.6152328
vn 0.4263121 -0.4947112 0.7573104
vn 0.3689555 -0.08175589 0.9258443
vn 0.4886958 0.02007584 0.8722233
vn 0.3246869 -0.9354149 0.1399192
vn 0.3641089 -0.9093381 0.2013174
vn 0.4886958 0.02007584 0.8722233
vn 0.4920357 -0.3703756 0.7878597
vn 0.4263121 -0.4947112 0.7573104
vn 0.2484157 -0.9564385 -0.1533458
vn 0.3246869 -0.9354149 0.1399192
vn 0.3641089 -0.9093381 0.2013174
vn 0.4920357 -0.3703756 0.7878597
vn 0.5174513 0.2528485 0.8175035
vn 0.8316818 -0.3030013 0.4652908
vn 0.4920357 -0.3703756 0.7878597
vn 0.4886958 0.02007584 0.8722233
vn 0.8316818 -0.3030013 0.4652908
vn 0.6808715 -0.731609 -0.03409162
vn 0.4263121 -0.4947112 0.7573104
vn 0.3641089 -0.9093381 0.2013174
vn 0.5174513 0.2528485 0.8175035
vn 0.9498891 0.06364303 0.3060398
vn 0.8316818 -0.3030013 0.4652908
vn 0.6808715 -0.731609 -0.03409162
vn 0.6198078 -0.770091 -0.1509904
vn 0.4081092 -0.8750868 -0.2601342
vn 0.9364679 -0.3298027 0.119407
vn 0.6808715 -0.731609 -0.03409162
vn 0.8316818 -0.3030013 0.4652908
vn 0.9498891 0.06364303 0.3060398
vn 0.8316818 -0.3030013 0.4652908
vn 0.9669212 0.1387082 0.2140642
vn 0.9421349 0.06047947 0.3297334
vn 0.7702398 0.281135 0.5724454
vn 0.7822349 0.4790744 0.3982413
vn 0.3702946 0.7188038 0.5883902
vn 0.3341889 0.4260729 0.8407019
vn 0.1966818 0.07637539 0.9774882
vn 0.4886958 0.02007584 0.8722233
vn 0.3949197 0.7099854 0.5830601
vn 0.5174513 0.2528485 0.8175035
vn 0.3689555 -0.08175589 0.9258443
vn 0.3949197 0.7099854 0.5830601
vn 0.4886958 0.02007584 0.8722233
vn 0.6245856 -0.1561641 0.7651834
vn 0.6490337 -0.1752206 0.740306
vn 0.6503735 -0.1762804 0.7388772
vn 0.6960571 -0.2135153 0.6855039
vn 0.6503735 -0.1762804 0.7388772
vn 0.2449222 -0.2504843 0.9366273
vn 0.2290121 -0.2265896 0.9466839
vn 0.3026015 -0.1824576 0.93549
vn -0.4886961 0.0200762 0.872223
vn -0.3689561 -0.08175573 0.9258441
vn -0.4263121 -0.4947112 0.7573104
vn -0.3246869 -0.9354149 0.1399192
vn -0.3641089 -0.9093381 0.2013174
vn -0.4886961 0.0200762 0.872223
vn -0.4263121 -0.4947112 0.7573104
vn -0.4920356 -0.3703757 0.7878597
vn -0.2484157 -0.9564385 -0.1533458
vn -0.3641089 -0.9093381 0.2013174
vn -0.3246869 -0.9354149 0.1399192
vn -0.4920356 -0.3703757 0.7878597
vn -0.8316818 -0.3030014 0.4652908
vn -0.5174511 0.2528486 0.8175035
vn -0.4920356 -0.3703757 0.7878597
vn -0.4886961 0.0200762 0.872223
vn -0.8316818 -0.3030014 0.4652908
vn -0.6808715 -0.731609 -0.03409166
vn -0.4263121 -0.4947112 0.7573104
vn -0.3641089 -0.9093381 0.2013174
vn -0.5174511 0.2528486 0.8175035
vn -0.8316818 -0.3030014 0.4652908
vn -0.9498891 0.06364292 0.3060398
vn -0.6808715 -0.731609 -0.03409166
vn -0.4081092 -0.8750868 -0.2601342
vn -0.6198078 -0.770091 -0.1509904
vn -0.9364679 -0.3298028 0.1194071
vn -0.6808715 -0.731609 -0.03409166
vn -0.8316818 -0.3030014 0.4652908
vn -0.9498891 0.06364292 0.3060398
vn -0.8316818 -0.3030014 0.4652908
vn -0.9669212 0.1387081 0.2140642
vn -0.9421349 0.06047938 0.3297334
vn -0.7702399 0.2811348 0.5724452
vn -0.782235 0.4790744 0.3982412
vn -0.3702946 0.7188039 0.5883902
vn -0.3341889 0.4260729 0.8407019
vn -0.1966817 0.07637534 0.9774882
vn -0.4886961 0.0200762 0.872223
vn -0.5174511 0.2528486 0.8175035
vn -0.3949202 0.709986 0.583059
vn -0.3689561 -0.08175573 0.9258441
vn -0.4886961 0.0200762 0.872223
vn -0.3949202 0.709986 0.583059
vn -0.6245852 -0.1561639 0.7651837
vn -0.6503731 -0.1762802 0.7388776
vn -0.6490333 -0.1752205 0.7403064
vn -0.6503731 -0.1762802 0.7388776
vn -0.6960567 -0.2135153 0.6855044
vn -0.244922 -0.2504842 0.9366274
vn -0.3026015 -0.1824576 0.93549
vn -0.2290121 -0.2265895 0.9466841
vn 0.7702398 0.281135 0.5724454
vn 0.9421349 0.06047947 0.3297334
vn 0.3026015 -0.1824576 0.93549
vn 0.3341889 0.4260729 0.8407019
vn 0.1966818 0.07637539 0.9774882
vn 0.1980167 -0.169245 0.9654768
vn 0.1966818 0.07637539 0.9774882
vn 0.2290121 -0.2265896 0.9466839
vn -0.7702399 0.2811348 0.5724452
vn -0.3026015 -0.1824576 0.93549
vn -0.9421349 0.06047938 0.3297334
vn -0.3341889 0.4260729 0.8407019
vn -0.1966817 0.07637534 0.9774882
vn -0.1966817 0.07637534 0.9774882
vn -0.1980167 -0.169245 0.9654768
vn -0.2290121 -0.2265895 0.9466841
g Jake_head_0
f 3/3/3 2/2/2 1/1/1
f 5/5/5 1/1/1 4/4/4
f 8/8/8 7/7/7 6/6/6
f 11/11/11 10/10/10 9/9/9
f 14/14/14 13/13/13 12/12/12
f 13/13/13 16/16/16 15/15/15
f 15/15/15 18/18/18 17/17/17
f 20/20/20 15/15/15 19/19/19
f 23/23/23 22/22/22 21/21/21
f 26/26/26 25/25/25 24/24/24
f 28/28/28 25/25/25 27/27/27
f 28/28/28 27/27/27 29/29/29
f 31/31/31 27/27/27 30/30/30
f 30/30/30 27/27/27 32/32/32
f 30/30/30 32/32/32 33/33/33
f 32/32/32 34/34/34 33/33/33
f 34/34/34 32/32/32 35/35/35
f 34/34/34 35/35/35 36/36/36
f 34/34/34 36/36/36 37/37/37
f 38/38/38 37/37/37 36/36/36
f 41/41/41 40/40/40 39/39/39
f 44/44/44 43/43/43 42/42/42
f 47/47/47 46/46/46 45/45/45
f 49/49/49 48/48/48 46/46/46
f 52/52/52 51/51/51 50/50/50
f 55/55/55 54/54/54 53/53/53
f 55/55/55 57/57/57 56/56/56
f 60/60/60 59/59/59 58/58/58
f 63/63/63 62/62/62 61/61/61
f 66/66/66 65/65/65 64/64/64
f 68/68/68 66/66/66 67/67/67
f 70/70/70 67/67/67 69/69/69
f 67/67/67 72/72/72 71/71/71
f 75/75/75 74/74/74 73/73/73
f 78/78/78 77/77/77 76/76/76
f 78/78/78 80/80/80 79/79/79
f 79/79/79 80/80/80 81/81/81
f 79/79/79 83/83/83 82/82/82
f 82/82/82 84/84/84 79/79/79
f 82/82/82 85/85/85 84/84/84
f 86/86/86 84/84/84 85/85/85
f 84/84/84 86/86/86 87/87/87
f 87/87/87 86/86/86 88/88/88
f 88/88/88 86/86/86 89/89/89
f 89/89/89 90/90/90 88/88/88
f 93/93/93 92/92/92 91/91/91
f 96/96/96 95/95/95 94/94/94
f 99/99/99 98/98/98 97/97/97
f 101/101/101 100/100/100 99/99/99
f 104/104/104 103/103/103 102/102/102
f 107/107/107 106/106/106 105/105/105
f 107/107/107 105/105/105 108/108/108
f 109/109/109 107/107/107 108/108/108
f 111/111/111 110/110/110 107/107/107
f 107/107/107 110/110/110 112/112/112
f 115/115/115 114/114/114 113/113/113
f 113/113/113 114/114/114 116/116/116
f 114/114/114 117/117/117 116/116/116
f 119/119/119 118/118/118 114/114/114
f 119/119/119 114/114/114 120/120/120
