g jamie_outfit1_leg03
v 0.02454805 -5.284667 -0.06451321
v 0.02491283 0 -0.06613684
v -0.05284071 0 -0.04087782
v -0.0512991 -5.284667 -0.03987074
v -0.0512991 -5.284667 -0.03987074
v -0.05284071 0 -0.04087782
v -0.05284071 0 0.04087782
v -0.0512991 -5.284667 0.03987122
v -0.0512991 -5.284667 0.03987122
v -0.05284071 0 0.04087782
v 0.02491283 0 0.06613731
v 0.02454805 -5.284667 0.06451368
v 0.02454805 -5.284667 0.06451368
v 0.02491283 0 0.06613731
v 0.07296467 0 0
v 0.07141638 -5.284667 0
v 0.07141638 -5.284667 0
v 0.07296467 0 0
v 0.02491283 0 -0.06613684
v 0.02454805 -5.284667 -0.06451321
v -0.04328203 -6.53231 0.03466702
v 0.02265406 -6.53231 0.05608749
v -0.04328203 -6.53231 -0.03466654
v 0.02265406 -6.53231 -0.05608749
v 0.06340599 -6.53231 0
v 0.02265406 -6.53231 -0.05608749
v 0.02454805 -5.284667 -0.06451321
v -0.0512991 -5.284667 -0.03987074
v -0.04328203 -6.53231 -0.03466654
v -0.04328203 -6.53231 -0.03466654
v -0.0512991 -5.284667 -0.03987074
v -0.0512991 -5.284667 0.03987122
v -0.04328203 -6.53231 0.03466702
v -0.04328203 -6.53231 0.03466702
v -0.0512991 -5.284667 0.03987122
v 0.02454805 -5.284667 0.06451368
v 0.02265406 -6.53231 0.05608749
v 0.02265406 -6.53231 0.05608749
v 0.02454805 -5.284667 0.06451368
v 0.07141638 -5.284667 0
v 0.06340599 -6.53231 0
v 0.06340599 -6.53231 0
v 0.07141638 -5.284667 0
v 0.02454805 -5.284667 -0.06451321
v 0.02265406 -6.53231 -0.05608749
v 0.02491283 0 -0.06613684
v 0.003423214 0 0
v -0.05284071 0 -0.04087782
v 0.07296467 0 0
v -0.05284071 0 0.04087782
v 0.02491283 0 0.06613731
vt 0.02038008 0.6935997
vt 0.1469071 0.6927679
vt 0.1467407 0.688203
vt 0.02035928 0.6890349
vt 0.02035928 0.6890349
vt 0.1467407 0.688203
vt 0.1465743 0.6836381
vt 0.02033849 0.6844701
vt 0.02033849 0.6844701
vt 0.1465743 0.6836381
vt 0.1464183 0.6790733
vt 0.02031769 0.6799155
vt 0.02031769 0.6799155
vt 0.1464183 0.6790733
vt 0.146252 0.6745188
vt 0.02028649 0.6753507
vt 0.02028649 0.6753507
vt 0.146252 0.6745188
vt 0.146096 0.6699539
vt 0.0202657 0.6707858
vt 0.01391231 0.1501721
vt 0.02477858 0.1550906
vt 0.0152225 0.138318
vt 0.02691024 0.1359056
vt 0.03281649 0.1462728
vt 0.02937464 0.1705633
vt 0.02937464 0.2903626
vt 0.02593279 0.2903626
vt 0.02593279 0.1705633
vt 0.02593279 0.1705633
vt 0.02593279 0.2903626
vt 0.02248054 0.3082997
vt 0.02248054 0.2145171
vt 0.02248054 0.2145171
vt 0.02248054 0.3082997
vt 0.01903869 0.2903626
vt 0.01903869 0.1705633
vt 0.01903869 0.1705633
vt 0.01903869 0.2903626
vt 0.01558645 0.3082997
vt 0.01558645 0.2145171
vt 0.01558645 0.2145171
vt 0.01558645 0.3082997
vt 0.0121446 0.2903626
vt 0.0121446 0.1705633
vt 0.189769 0.6892532
vt 0.1904553 0.6914577
vt 0.1922542 0.6900643
vt 0.1882301 0.6913745
vt 0.1922542 0.6926743
vt 0.189769 0.6934854
vn -0.3098727 -0.0009775162 -0.9507775
vn -0.3098727 -0.0009775162 -0.9507775
vn -0.3098727 -0.0009775162 -0.9507775
vn -0.3098727 -0.0009775162 -0.9507775
vn -0.9999995 -0.0009775162 0
vn -0.9999995 -0.0009775162 0
vn -0.9999995 -0.0009775162 0
vn -0.9999995 -0.0009775162 0
vn -0.3098727 -0.0009775162 0.9507775
vn -0.3098727 -0.0009775162 0.9507775
vn -0.3098727 -0.0009775162 0.9507775
vn -0.3098727 -0.0009775162 0.9507775
vn 0.8084062 -0.0009775162 0.5886242
vn 0.8084062 -0.0009775162 0.5886242
vn 0.8084062 -0.0009775162 0.5886242
vn 0.8084062 -0.0009775162 0.5886242
vn 0.8084062 -0.0009775162 -0.5886242
vn 0.8084062 -0.0009775162 -0.5886242
vn 0.8084062 -0.0009775162 -0.5886242
vn 0.8084062 -0.0009775162 -0.5886242
vn -0.0009775162 -0.9999995 0
vn -0.0009775162 -0.9999995 0
vn -0.0009775162 -0.9999995 0
vn -0.0009775162 -0.9999995 0
vn -0.0009775162 -0.9999995 0
vn -0.3098727 -0.006842613 -0.9507534
vn -0.3098727 -0.0009775162 -0.9507775
vn -0.3098727 -0.0009775162 -0.9507775
vn -0.3098727 -0.006842613 -0.9507534
vn -0.9999766 -0.006842457 0
vn -0.9999995 -0.0009775162 0
vn -0.9999995 -0.0009775162 0
vn -0.9999766 -0.006842457 0
vn -0.3098727 -0.006842613 0.9507534
vn -0.3098727 -0.0009775162 0.9507775
vn -0.3098727 -0.0009775162 0.9507775
vn -0.3098727 -0.006842613 0.9507534
vn 0.8084062 -0.004887581 0.5886047
vn 0.8084062 -0.0009775162 0.5886242
vn 0.8084062 -0.0009775162 0.5886242
vn 0.8084062 -0.004887581 0.5886047
vn 0.8084062 -0.004887581 -0.5886047
vn 0.8084062 -0.0009775162 -0.5886242
vn 0.8084062 -0.0009775162 -0.5886242
vn 0.8084062 -0.004887581 -0.5886047
vn -0.0009775162 0.9999995 0
vn -0.0009775162 0.9999995 0
vn -0.0009775162 0.9999995 0
vn -0.0009775162 0.9999995 0
vn -0.0009775162 0.9999995 0
vn -0.0009775162 0.9999995 0
g jamie_outfit1_leg03_0
f 3/3/3 2/2/2 1/1/1
f 4/4/4 3/3/3 1/1/1
f 7/7/7 6/6/6 5/5/5
f 8/8/8 7/7/7 5/5/5
f 11/11/11 10/10/10 9/9/9
f 12/12/12 11/11/11 9/9/9
f 15/15/15 14/14/14 13/13/13
f 16/16/16 15/15/15 13/13/13
f 19/19/19 18/18/18 17/17/17
f 20/20/20 19/19/19 17/17/17
f 23/23/23 22/22/22 21/21/21
f 24/24/24 22/22/22 23/23/23
f 25/25/25 22/22/22 24/24/24
f 28/28/28 27/27/27 26/26/26
f 29/29/29 28/28/28 26/26/26
f 32/32/32 31/31/31 30/30/30
f 33/33/33 32/32/32 30/30/30
f 36/36/36 35/35/35 34/34/34
f 37/37/37 36/36/36 34/34/34
f 40/40/40 39/39/39 38/38/38
f 41/41/41 40/40/40 38/38/38
f 44/44/44 43/43/43 42/42/42
f 45/45/45 44/44/44 42/42/42
f 48/48/48 47/47/47 46/46/46
f 46/46/46 47/47/47 49/49/49
f 50/50/50 47/47/47 48/48/48
f 49/49/49 47/47/47 51/51/51
f 51/51/51 47/47/47 50/50/50
