g jumper_cap_L
v -0.3912984 0.4288793 0.3514428
v -0.3797376 0.2208024 0.3847453
v -0.3568256 0.02533144 0.3096471
v -0.3884085 0.5938038 0.2188052
v -0.3718433 0.6713784 0.02240533
v -0.3460403 0.6408178 -0.1852384
v -0.3179143 0.5142046 -0.3485924
v -0.2950012 0.3302121 -0.4246623
v -0.2834416 0.1170946 -0.392156
v -0.2863304 -0.0605565 -0.2585522
v -0.3028967 -0.1414389 -0.06177062
v -0.3286997 -0.1093965 0.1461802
v 0.01570201 0.4787294 -0.2373982
v 0.001253575 0.2986808 0.006868899
v -0.005184293 0.5756034 -0.1160242
v 0.03271794 0.3336241 -0.2934395
v -0.02434656 0.5982883 0.03819069
v 0.04130104 0.1791712 -0.2690436
v -0.03664759 0.5407029 0.1840408
v 0.03915581 0.05675635 -0.1706232
v -0.03879282 0.4182804 0.2825313
v 0.02685478 -0.001399428 -0.02451214
v -0.03020862 0.2638264 0.3072453
v 0.007693619 0.02186024 0.1300076
v -0.01319271 0.1187277 0.2514508
v 0.01570201 0.4787294 -0.2373982
v -0.005184293 0.5756034 -0.1160242
v -0.2775291 0.6724774 -0.1896253
v -0.2475431 0.5395305 -0.3637241
v -0.3050386 0.7050571 0.03172433
v 0.03271794 0.3336241 -0.2934395
v -0.02434656 0.5982883 0.03819069
v -0.2231143 0.3433171 -0.4449575
v -0.3227005 0.6223574 0.241091
v 0.04130104 0.1791712 -0.2690436
v -0.03664759 0.5407029 0.1840408
v -0.2107902 0.1161635 -0.4105077
v -0.3257802 0.4465401 0.3825047
v 0.03915581 0.05675635 -0.1706232
v -0.03879282 0.4182804 0.2825313
v -0.2138699 -0.07606992 -0.2678284
v -0.313455 0.224721 0.4180347
v 0.02685478 -0.001399428 -0.02451214
v -0.03020862 0.2638264 0.3072453
v -0.2315307 -0.1625435 -0.05801976
v -0.2890262 0.01634035 0.3379869
v 0.007693619 0.02186024 0.1300076
v -0.01319271 0.1187277 0.2514508
v -0.2590402 -0.1282517 0.163694
v -0.2950012 0.3302121 -0.4246623
v -0.2834416 0.1170946 -0.392156
v -0.2107902 0.1161635 -0.4105077
v -0.2231143 0.3433171 -0.4449575
v -0.2138699 -0.07606992 -0.2678284
v -0.3179143 0.5142046 -0.3485924
v -0.2863304 -0.0605565 -0.2585522
v -0.2475431 0.5395305 -0.3637241
v -0.2315307 -0.1625435 -0.05801976
v -0.3460403 0.6408178 -0.1852384
v -0.3028967 -0.1414389 -0.06177062
v -0.2775291 0.6724774 -0.1896253
v -0.2590402 -0.1282517 0.163694
v -0.3718433 0.6713784 0.02240533
v -0.3286997 -0.1093965 0.1461802
v -0.3050386 0.7050571 0.03172433
v -0.2890262 0.01634035 0.3379869
v -0.3884085 0.5938038 0.2188052
v -0.3568256 0.02533144 0.3096471
v -0.3227005 0.6223574 0.241091
v -0.313455 0.224721 0.4180347
v -0.3912984 0.4288793 0.3514428
v -0.3797376 0.2208024 0.3847453
v -0.3257802 0.4465401 0.3825047
vt 0.1821397 0.4066836
vt 0.193396 0.3812256
vt 0.1421983 0.3647573
vt 0.1594606 0.4214103
vt 0.1314286 0.4214679
vt 0.1055608 0.4068373
vt 0.08879159 0.3814433
vt 0.08560294 0.3520795
vt 0.09685926 0.3266279
vt 0.1195448 0.3118948
vt 0.1475704 0.3118372
vt 0.1734381 0.3264678
vt 0.1564064 0.3907915
vt 0.167509 0.3337992
vt 0.129687 0.3777936
vt 0.1861095 0.3885377
vt 0.1131035 0.3530207
vt 0.2108248 0.3716276
vt 0.1110929 0.3230999
vt 0.2239251 0.3445625
vt 0.1241933 0.296022
vt 0.2219915 0.3145456
vt 0.148883 0.2790607
vt 0.2052862 0.2897727
vt 0.1785605 0.276762
vt 0.1003296 0.3601792
vt 0.1185844 0.3878206
vt 0.1308587 0.3791895
vt 0.112604 0.3515481
vt 0.1590124 0.3951135
vt 0.09686567 0.3282287
vt 0.146738 0.4037446
vt 0.1091401 0.3195975
vt 0.1895159 0.3950495
vt 0.1091144 0.3005232
vt 0.1772415 0.4036806
vt 0.1213888 0.2918985
vt 0.2142055 0.379023
vt 0.1337977 0.2844967
vt 0.2019247 0.3876477
vt 0.1460785 0.2758656
vt 0.2264543 0.3513176
vt 0.1643076 0.2844327
vt 0.2141799 0.3599487
vt 0.176582 0.2758016
vt 0.2229903 0.319367
vt 0.1924548 0.3003567
vt 0.2107095 0.3279917
vt 0.2047356 0.2917256
vt 0.05844176 0.3915599
vt 0.06969809 0.3661083
vt 0.06199538 0.3632526
vt 0.04943926 0.3916111
vt 0.0872741 0.3468355
vt 0.06163042 0.4209173
vt 0.09238362 0.3513752
vt 0.05297367 0.4243428
vt 0.1185267 0.3467331
vt 0.07839966 0.4463176
vt 0.1204156 0.3513176
vt 0.07167659 0.4526949
vt 0.1474167 0.3630029
vt 0.1042674 0.4609483
vt 0.146277 0.3659482
vt 0.1005601 0.4690544
vt 0.1661965 0.3913166
vt 0.1322994 0.4608907
vt 0.1630526 0.3913486
vt 0.131896 0.4690096
vt 0.1698077 0.4240995
vt 0.1549849 0.446164
vt 0.1662413 0.420706
vt 0.157258 0.4525477
vn -0.8564297 0.1895561 0.4802048
vn -0.8351053 -0.1303105 0.5344327
vn -0.7982721 -0.4288528 0.4229029
vn -0.8564297 0.4376951 0.2737721
vn -0.8350856 0.5501201 0
vn -0.8002107 0.5016685 -0.3286208
vn -0.761439 0.3097484 -0.5694442
vn -0.7168515 0.01314485 -0.697102
vn -0.6955271 -0.297029 -0.6542292
vn -0.6955271 -0.5490451 -0.463456
vn -0.7187901 -0.6769918 -0.1581864
vn -0.7575618 -0.6285272 0.1762207
vn 0.9910427 0.073241 0.1116694
vn 0.9910427 0.073241 0.1116694
vn 0.9910427 0.073241 0.1116694
vn 0.9910427 0.073241 0.1116694
vn 0.9910427 0.073241 0.1116694
vn 0.9910427 0.073241 0.1116694
vn 0.9910427 0.073241 0.1116694
vn 0.9910427 0.073241 0.1116694
vn 0.9910427 0.073241 0.1116694
vn 0.9910427 0.073241 0.1116694
vn 0.9910427 0.073241 0.1116694
vn 0.9910427 0.073241 0.1116694
vn 0.9910427 0.073241 0.1116694
vn 0.1768366 0.6102293 -0.7722365
vn 0.1244948 0.9126487 -0.3893244
vn -0.009267569 0.920403 -0.3908611
vn 0.05664432 0.6121678 -0.7886963
vn -0.05967081 0.9921308 0.1100725
vn 0.231117 0.09456539 -0.9683194
vn 0.07796872 0.9901922 0.1159324
vn 0.118679 0.1333371 -0.9839393
vn -0.08681107 0.8040879 0.5881382
vn 0.2582572 -0.3842653 -0.8863653
vn 0.0527671 0.8099036 0.5841847
vn 0.1574508 -0.376511 -0.9129341
vn -0.07905674 0.4028006 0.9118671
vn 0.2563186 -0.7525967 -0.6065468
vn 0.05470574 0.433818 0.8993382
vn 0.1632665 -0.7874912 -0.5943077
vn -0.04028499 -0.105109 0.9936444
vn 0.2253013 -0.9697183 -0.09426452
vn 0.08378452 -0.09347743 0.9920898
vn 0.1380649 -0.985227 -0.1013207
vn 0.01787257 -0.5820011 0.8129916
vn 0.1787752 -0.8844205 0.4310914
vn 0.1322492 -0.568431 0.8120322
vn 0.08378452 -0.905745 0.4154591
vn -0.7168515 0.01314485 -0.697102
vn -0.6955271 -0.297029 -0.6542292
vn 0.1574508 -0.376511 -0.9129341
vn 0.118679 0.1333371 -0.9839393
vn 0.1632665 -0.7874912 -0.5943077
vn -0.761439 0.3097484 -0.5694442
vn -0.6955271 -0.5490451 -0.463456
vn 0.05664432 0.6121678 -0.7886963
vn 0.1380649 -0.985227 -0.1013207
vn -0.8002107 0.5016685 -0.3286208
vn -0.7187901 -0.6769918 -0.1581864
vn -0.009267569 0.920403 -0.3908611
vn 0.08378452 -0.905745 0.4154591
vn -0.8350856 0.5501201 0
vn -0.7575618 -0.6285272 0.1762207
vn -0.05967081 0.9921308 0.1100725
vn 0.01787257 -0.5820011 0.8129916
vn -0.8564297 0.4376951 0.2737721
vn -0.7982721 -0.4288528 0.4229029
vn -0.08681107 0.8040879 0.5881382
vn -0.04028499 -0.105109 0.9936444
vn -0.8564297 0.1895561 0.4802048
vn -0.8351053 -0.1303105 0.5344327
vn -0.07905674 0.4028006 0.9118671
g jumper_cap_L_0
f 3/3/3 2/2/2 1/1/1
f 3/3/3 1/1/1 4/4/4
f 3/3/3 4/4/4 5/5/5
f 3/3/3 5/5/5 6/6/6
f 3/3/3 6/6/6 7/7/7
f 3/3/3 7/7/7 8/8/8
f 3/3/3 8/8/8 9/9/9
f 3/3/3 9/9/9 10/10/10
f 3/3/3 10/10/10 11/11/11
f 3/3/3 11/11/11 12/12/12
f 15/15/15 14/14/14 13/13/13
f 13/13/13 14/14/14 16/16/16
f 17/17/17 14/14/14 15/15/15
f 16/16/16 14/14/14 18/18/18
f 19/19/19 14/14/14 17/17/17
f 18/18/18 14/14/14 20/20/20
f 21/21/21 14/14/14 19/19/19
f 20/20/20 14/14/14 22/22/22
f 23/23/23 14/14/14 21/21/21
f 22/22/22 14/14/14 24/24/24
f 25/25/25 14/14/14 23/23/23
f 24/24/24 14/14/14 25/25/25
f 28/28/28 27/27/27 26/26/26
f 29/29/29 28/28/28 26/26/26
f 28/28/28 30/30/30 27/27/27
f 29/29/29 26/26/26 31/31/31
f 30/30/30 32/32/32 27/27/27
f 33/33/33 29/29/29 31/31/31
f 30/30/30 34/34/34 32/32/32
f 33/33/33 31/31/31 35/35/35
f 34/34/34 36/36/36 32/32/32
f 37/37/37 33/33/33 35/35/35
f 34/34/34 38/38/38 36/36/36
f 37/37/37 35/35/35 39/39/39
f 38/38/38 40/40/40 36/36/36
f 41/41/41 37/37/37 39/39/39
f 38/38/38 42/42/42 40/40/40
f 41/41/41 39/39/39 43/43/43
f 42/42/42 44/44/44 40/40/40
f 45/45/45 41/41/41 43/43/43
f 42/42/42 46/46/46 44/44/44
f 45/45/45 43/43/43 47/47/47
f 46/46/46 48/48/48 44/44/44
f 49/49/49 45/45/45 47/47/47
f 49/49/49 47/47/47 48/48/48
f 46/46/46 49/49/49 48/48/48
f 52/52/52 51/51/51 50/50/50
f 53/53/53 52/52/52 50/50/50
f 51/51/51 52/52/52 54/54/54
f 50/50/50 55/55/55 53/53/53
f 56/56/56 51/51/51 54/54/54
f 55/55/55 57/57/57 53/53/53
f 56/56/56 54/54/54 58/58/58
f 55/55/55 59/59/59 57/57/57
f 60/60/60 56/56/56 58/58/58
f 59/59/59 61/61/61 57/57/57
f 58/58/58 62/62/62 60/60/60
f 59/59/59 63/63/63 61/61/61
f 62/62/62 64/64/64 60/60/60
f 63/63/63 65/65/65 61/61/61
f 62/62/62 66/66/66 64/64/64
f 65/65/65 63/63/63 67/67/67
f 66/66/66 68/68/68 64/64/64
f 69/69/69 65/65/65 67/67/67
f 68/68/68 66/66/66 70/70/70
f 69/69/69 67/67/67 71/71/71
f 72/72/72 68/68/68 70/70/70
f 73/73/73 69/69/69 71/71/71
f 72/72/72 70/70/70 73/73/73
f 71/71/71 72/72/72 73/73/73
