g jumper_syrup_Drop_L
v -0.2497582 -3.561988 -0.1429925
v -0.3192973 -3.733428 -0.2530224
v -0.233417 -3.72584 -0.1373122
v -0.3133097 -3.461467 -0.2718985
v -0.4732475 -3.758034 -0.3771064
v -0.1860528 -3.401942 -0.2351406
v -0.1642303 -3.484527 -0.1335568
v -0.4503856 -3.466948 -0.4124544
v -0.6121678 -3.779739 -0.3498294
v -0.1199665 -3.369517 -0.2013607
v -0.09879017 -3.401576 -0.12164
v -0.1083436 -3.228098 -0.1994128
v -0.07622647 -3.247006 -0.1126292
v -0.1720757 -3.165708 -0.2548978
v -0.09781861 -3.07154 -0.1868997
v -0.07388568 -3.047255 -0.1079338
v -0.1354532 -2.903689 -0.215781
v -0.08952165 -2.787703 -0.1170759
v -0.2799726 -3.06473 -0.3088326
v -0.2067866 -2.534035 -0.2925642
v -0.0985415 -2.382977 -0.1473489
v -0.3982086 -3.044033 -0.4286642
v -0.0998385 -1.767568 -0.269151
v -0.03805423 -1.756452 -0.1591346
v -0.3741674 -2.47546 -0.3949928
v -0.06567907 -1.043562 -0.1859055
v -0.01864934 -1.05453 -0.110975
v 7.152557E-07 -7.152557E-07 -7.152557E-07
v -0.2142563 -1.734326 -0.32004
v -0.135087 -1.02531 -0.2124188
v -0.2465901 -0.9774895 -0.1948216
v -0.325398 -0.9652066 -0.1211338
v -0.3955922 -0.9434564 -0.0147872
v -0.3443913 -1.70746 -0.2981496
v -0.548892 -2.501345 -0.3804595
v -0.474052 -1.703439 -0.2036021
v -0.5969024 -3.077926 -0.4143298
v -0.6937275 -2.552387 -0.2657299
v -0.5978198 -1.698382 -0.04738307
v -0.6350884 -3.502283 -0.3935513
v -0.7312899 -3.795194 -0.2312496
v -0.7569308 -3.105767 -0.2818089
v -0.7773619 -3.526116 -0.2625124
v -0.7842622 -3.802564 -0.05685496
v -0.7569852 -2.560002 -0.05906034
v -0.3920989 -0.9472253 0.0980401
v -0.823926 -3.110147 -0.06336689
v -0.8388748 -3.534368 -0.06158185
v -0.7569942 -3.800255 0.125421
v -0.5675287 -1.693718 0.1186109
v -0.7150259 -2.526398 0.1563764
v -0.7760196 -3.09165 0.1592774
v -0.8023973 -3.526545 0.1470761
v -0.6567302 -3.787367 0.2649512
v -0.3393617 -0.9614422 0.1853614
v -0.5022736 -1.708979 0.2562203
v -0.5944352 -2.479522 0.3029971
v -0.6393452 -3.062452 0.3154378
v -0.6780105 -3.501058 0.2990155
v -0.5118809 -3.76441 0.3207703
v -0.2413435 -0.9898083 0.2195663
v -0.3692102 -1.734105 0.3164773
v -0.425983 -2.478004 0.3574152
v -0.4551306 -3.043115 0.3764634
v -0.2514615 -2.541207 0.2881608
v -0.5003982 -3.468286 0.352056
v -0.3645644 -3.738801 0.2239947
v -0.132936 -1.022332 0.1902514
v -0.2122002 -1.761734 0.2752318
v -0.3230433 -3.066935 0.2916498
v -0.3485265 -3.462935 0.2456999
v -0.259551 -3.731914 0.1287422
v -0.04887271 -1.047404 0.1068478
v -0.009421349 -1.057978 -0.00457406
v -0.01864934 -1.05453 -0.110975
v -0.09301019 -1.762444 0.1528244
v -0.03313732 -1.758684 -0.00814414
v -0.03805423 -1.756452 -0.1591346
v -0.1270928 -2.390009 0.1773582
v -0.07707167 -2.354159 0.01830578
v -0.0985415 -2.382977 -0.1473489
v -0.07882047 -2.758257 0.01722121
v -0.08952165 -2.787703 -0.1170759
v -0.111145 -2.789877 0.1456075
v -0.1712804 -2.906925 0.2277007
v -0.0687294 -3.037344 0.01263452
v -0.07388568 -3.047255 -0.1079338
v -0.09020853 -3.049501 0.1303468
v -0.07009411 -3.250368 0.007708788
v -0.07622647 -3.247006 -0.1126292
v -0.2097464 -3.168275 0.2534409
v -0.1246166 -3.076742 0.2039981
v -0.1330538 -3.238885 0.2115359
v -0.08981538 -3.251543 0.1268759
v -0.09487677 -3.409972 0.003591776
v -0.09879017 -3.401576 -0.12164
v -0.220149 -3.398724 0.2240629
v -0.1451874 -3.381109 0.2059822
v -0.1144667 -3.405263 0.1269212
v -0.183414 -3.486629 0.1325202
v -0.1583962 -3.504054 0.001291752
v -0.1642303 -3.484527 -0.1335568
v -0.2700758 -3.566833 0.1368494
v -0.213696 -3.72537 -0.0007691383
v -0.2357402 -3.583409 0.0002117157
v -0.2497582 -3.561988 -0.1429925
v -0.233417 -3.72584 -0.1373122
v -0.233417 -3.72584 -0.1373122
v -0.3192973 -3.733428 -0.2530224
v -0.3789983 -3.862681 -0.1650004
v -0.3227134 -3.855139 -0.09548378
v -0.213696 -3.72537 -0.0007691383
v -0.4646115 -3.87397 -0.2365189
v -0.4732475 -3.758034 -0.3771064
v -0.4805231 -3.87928 -0.02468824
v -0.3091431 -3.853602 -0.008889675
v -0.5552459 -3.885688 -0.2175071
v -0.3397412 -3.858465 0.07296824
v -0.259551 -3.731914 0.1287422
v -0.6121678 -3.779739 -0.3498294
v -0.3645644 -3.738801 0.2239947
v -0.6251283 -3.894984 -0.1464586
v -0.7312899 -3.795194 -0.2312496
v -0.4074411 -3.868529 0.130455
v -0.5118809 -3.76441 0.3207703
v -0.6561203 -3.899688 -0.04368639
v -0.7842622 -3.802564 -0.05685496
v -0.4963851 -3.880812 0.1846747
v -0.6567302 -3.787367 0.2649512
v -0.6405973 -3.898621 0.06387591
v -0.7569942 -3.800255 0.125421
v -0.5821614 -3.891811 0.1478219
vt 0.07079445 0.6248671
vt 0.077003 0.6224593
vt 0.07387173 0.6203322
vt 0.0740013 0.6268971
vt 0.08014507 0.6245973
vt 0.0740013 0.6268971
vt 0.07079445 0.6248671
vt 0.07720815 0.628927
vt 0.08328713 0.6267243
vt 0.0740013 0.6268971
vt 0.07079445 0.6248671
vt 0.06763079 0.6362909
vt 0.06445633 0.634207
vt 0.06763079 0.6362909
vt 0.05275186 0.6582746
vt 0.04960979 0.6561475
vt 0.05275186 0.6582746
vt 0.04960979 0.6561475
vt 0.06763079 0.6362909
vt 0.05275186 0.6582746
vt 0.04960979 0.6561475
vt 0.07080524 0.638364
vt 0.0397301 0.6780879
vt 0.03659883 0.6759608
vt 0.05589393 0.6604125
vt 0.02229217 0.7033541
vt 0.0191501 0.7012269
vt 0.02973163 0.7259748
vt 0.04287216 0.6802151
vt 0.02542344 0.7054812
vt 0.0285655 0.7076083
vt 0.03170757 0.7097353
vt 0.03484964 0.7118624
vt 0.04601423 0.682353
vt 0.0590252 0.6625395
vt 0.0491455 0.6844801
vt 0.07396891 0.6404587
vt 0.06216726 0.6646667
vt 0.05228757 0.6866072
vt 0.08039341 0.6309893
vt 0.08641841 0.6288514
vt 0.07711098 0.642575
vt 0.08354627 0.6330841
vt 0.08956047 0.6309785
vt 0.06530933 0.6667938
vt 0.03798091 0.7139896
vt 0.08025304 0.6447021
vt 0.08668834 0.6352112
vt 0.09270254 0.6331056
vt 0.05542964 0.6887342
vt 0.0684514 0.6689209
vt 0.08338431 0.6468508
vt 0.08980881 0.6373706
vt 0.0958446 0.6352327
vt 0.04112297 0.7161167
vt 0.0585717 0.6908613
vt 0.07158267 0.671048
vt 0.08650479 0.6489995
vt 0.09291849 0.6395518
vt 0.09897587 0.6373599
vt 0.04426504 0.7182546
vt 0.06170297 0.6929885
vt 0.07472473 0.6731751
vt 0.08961446 0.6511698
vt 0.0778668 0.6753022
vt 0.09599577 0.6417544
vt 0.1021179 0.639487
vt 0.04739631 0.7203817
vt 0.06484504 0.6951156
vt 0.09272414 0.6533401
vt 0.09907305 0.6439787
vt 0.10526 0.6416249
vt 0.05053838 0.7225088
vt 0.05368044 0.7246359
vt 0.05682251 0.726763
vt 0.06798711 0.6972427
vt 0.07111838 0.6993698
vt 0.07426044 0.7015077
vt 0.08099807 0.6774293
vt 0.08414014 0.6795672
vt 0.0872822 0.6816943
vt 0.08414014 0.6795672
vt 0.0872822 0.6816943
vt 0.08099807 0.6774293
vt 0.0778668 0.6753022
vt 0.08414014 0.6795672
vt 0.0872822 0.6816943
vt 0.08099807 0.6774293
vt 0.09897587 0.6576483
vt 0.1021287 0.6597538
vt 0.09272414 0.6533401
vt 0.0778668 0.6753022
vt 0.09272414 0.6533401
vt 0.09583381 0.6555104
vt 0.1052924 0.6483301
vt 0.1084669 0.6504032
vt 0.09907305 0.6439787
vt 0.09907305 0.6439787
vt 0.1021611 0.6461814
vt 0.1021611 0.6461814
vt 0.1052924 0.6483301
vt 0.1084669 0.6504032
vt 0.1021611 0.6461814
vt 0.1083913 0.643752
vt 0.1052924 0.6483301
vt 0.1084669 0.6504032
vt 0.1115333 0.645879
vt 0.1067177 0.6365284
vt 0.1015565 0.6427154
vt 0.0971403 0.6364421
vt 0.0997209 0.6333
vt 0.1080889 0.6286031
vt 0.0933072 0.6378565
vt 0.09399824 0.6454903
vt 0.09259456 0.6300067
vt 0.1003795 0.6292941
vt 0.08930133 0.6371223
vt 0.09898667 0.6255042
vt 0.105314 0.6210449
vt 0.08606209 0.6441191
vt 0.09912704 0.6158836
vt 0.08622405 0.6344985
vt 0.07988593 0.6389579
vt 0.0958878 0.6228912
vt 0.09120169 0.6145124
vt 0.08485277 0.6307086
vt 0.07711098 0.6314104
vt 0.09189273 0.6221894
vt 0.08364345 0.6172873
vt 0.08552221 0.6267243
vt 0.07848226 0.6234743
vt 0.08809201 0.6236039
vn 0.8645569 -0.2250965 -0.4493027
vn 0.7222379 -0.2582392 -0.6416267
vn 0.9093971 -0.2192477 -0.3534506
vn 0.657902 -0.1451639 -0.7389807
vn 0.3069786 -0.3089281 -0.9001819
vn 0.4531966 -0.2621384 -0.8519955
vn 0.6734986 -0.6325575 -0.3824536
vn 0.318676 -0.09642452 -0.9429464
vn -0.3929186 -0.369365 -0.8421309
vn 0.7553807 -0.2211973 -0.6168239
vn 0.9152458 -0.3440205 -0.2097021
vn 0.7943722 -0.04768515 -0.6055567
vn 0.9854305 -0.06523132 -0.1570722
vn 0.4843898 -0.05743301 -0.872965
vn 0.8353133 0.02639872 -0.5491401
vn 0.9815314 0.03224736 -0.1885636
vn 0.7066413 0.006902874 -0.7075382
vn 0.9425399 0.02054995 -0.3334611
vn 0.6052635 -0.05548346 -0.7940893
vn 0.6657003 -0.02623987 -0.7457577
vn 0.9405903 -0.06523132 -0.3332189
vn 0.2991803 -0.0145424 -0.9540858
vn 0.671549 -0.02234071 -0.7406233
vn 0.9542373 -0.05353391 -0.2942197
vn 0.2094998 0.04589444 -0.9767311
vn 0.6637507 0.06733972 -0.7449163
vn 0.960086 -0.000895381 -0.2797034
vn 0.1607605 0.9836398 0.0812948
vn 0.1724579 0.08293635 -0.9815191
vn 0.1100715 0.1511714 -0.9823602
vn -0.3812212 0.2194065 -0.8980708
vn -0.7068002 0.2505997 -0.6615387
vn -0.9134551 0.2954399 -0.2798483
vn -0.3851203 0.1862637 -0.9038739
vn -0.4104648 0.1492218 -0.8995841
vn -0.739943 0.2213561 -0.6352054
vn -0.3929186 0.04199523 -0.9186138
vn -0.8062285 0.1706672 -0.5664524
vn -0.9524465 0.2233056 -0.2073167
vn -0.4260615 -0.06718093 -0.9021964
vn -0.7789344 -0.3888607 -0.4919843
vn -0.8432704 0.07123893 -0.5327477
vn -0.8530182 -0.05938262 -0.5184917
vn -0.9212534 -0.383012 -0.06777915
vn -0.9797406 0.166768 -0.1108913
vn -0.9115055 0.2895913 0.2920524
vn -0.9953372 0.08293635 -0.04924866
vn -0.9972867 -0.04768515 -0.05608264
vn -0.8510687 -0.369365 0.3731643
vn -0.9271021 0.1979613 0.3182655
vn -0.9173542 0.1375244 0.3735617
vn -0.9076063 0.07513803 0.4130437
vn -0.9134551 -0.03988689 0.4049801
vn -0.5371872 -0.3420709 0.7709847
vn -0.6073719 0.2544989 0.7525488
vn -0.6405147 0.1628689 0.7504763
vn -0.6151702 0.1043816 0.7814538
vn -0.5683804 0.04199523 0.8216934
vn -0.5800778 -0.04183644 0.813486
vn 0.135416 -0.2952811 0.9457651
vn -0.01080209 0.1589697 0.9872243
vn -0.0186004 0.08683544 0.996049
vn 0.01844156 0.03809613 0.9991039
vn 0.07692879 -0.01844156 0.996866
vn 0.5116839 -0.004794538 0.8591604
vn 0.108122 -0.08472705 0.9905205
vn 0.6130618 -0.2640879 0.744589
vn 0.5077847 0.0595414 0.859424
vn 0.501936 0.0186004 0.8647047
vn 0.4473479 -0.05938262 0.8923864
vn 0.5214318 -0.1490631 0.8401721
vn 0.8236158 -0.2484913 0.5098128
vn 0.841162 -0.004794538 0.540762
vn 0.9873801 -0.02429026 0.1564946
vn 0.960086 -0.000895381 -0.2797034
vn 0.8392124 -0.02429026 0.543261
vn 0.9893296 -0.0515843 0.1362569
vn 0.9542373 -0.05353391 -0.2942197
vn 0.8294646 -0.01844156 0.5582548
vn 0.9912792 -0.04378599 0.124291
vn 0.9405903 -0.06523132 -0.3332189
vn 0.997128 0.0186004 0.07341594
vn 0.9425399 0.02054995 -0.3334611
vn 0.8704056 0.0186004 0.4919839
vn 0.5682216 0.003003776 0.8228701
vn 0.997128 0.02639872 0.07098579
vn 0.9815314 0.03224736 -0.1885636
vn 0.9425399 0.03419691 0.3323389
vn 0.9951784 -0.07108003 0.06758388
vn 0.9854305 -0.06523132 -0.1570722
vn 0.3362222 -0.06913048 0.9392421
vn 0.7222379 0.02444905 0.6912124
vn 0.671549 -0.06718093 0.7379083
vn 0.960086 -0.07108003 0.2705225
vn 0.9347416 -0.3498692 0.06204631
vn 0.9152458 -0.3440205 -0.2097021
vn 0.318676 -0.2582392 0.9120077
vn 0.6228096 -0.2660375 0.7357528
vn 0.8782039 -0.3615667 0.3130933
vn 0.6189105 -0.6208601 0.4811263
vn 0.7514333 -0.6598092 0
vn 0.6734986 -0.6325575 -0.3824536
vn 0.7690277 -0.2309452 0.5960375
vn 0.9737331 -0.2094998 0.08918385
vn 0.9659348 -0.2484913 0.07226411
vn 0.8645569 -0.2250965 -0.4493027
vn 0.9093971 -0.2192477 -0.3534506
vn 0.9093971 -0.2192477 -0.3534506
vn 0.7222379 -0.2582392 -0.6416267
vn 0.5077847 -0.7612295 -0.4033416
vn 0.6325575 -0.735885 -0.2415458
vn 0.9737331 -0.2094998 0.08918385
vn 0.3011299 -0.8060696 -0.5094826
vn 0.3069786 -0.3089281 -0.9001819
vn 0.1315169 -0.9912792 -0.008293598
vn 0.6793473 -0.7319858 0.05180846
vn -0.1414235 -0.8860022 -0.4415875
vn 0.579919 -0.7397841 0.3411941
vn 0.8236158 -0.2484913 0.5098128
vn -0.3929186 -0.369365 -0.8421309
vn 0.6130618 -0.2640879 0.744589
vn -0.3617255 -0.8918509 -0.2715816
vn -0.7789344 -0.3888607 -0.4919843
vn 0.4492975 -0.763179 0.464424
vn 0.135416 -0.2952811 0.9457651
vn -0.4494564 -0.8918509 -0.05090025
vn -0.9212534 -0.383012 -0.06777915
vn 0.199752 -0.8138679 0.5456356
vn -0.5371872 -0.3420709 0.7709847
vn -0.4104648 -0.8918509 0.190054
vn -0.8510687 -0.369365 0.3731643
vn -0.2272049 -0.8840526 0.408447
g jumper_syrup_Drop_L_0
f 3/3/3 2/2/2 1/1/1
f 2/2/2 4/4/4 1/1/1
f 2/2/2 5/5/5 4/4/4
f 4/4/4 6/6/6 1/1/1
f 6/6/6 7/7/7 1/1/1
f 5/5/5 8/8/8 4/4/4
f 5/5/5 9/9/9 8/8/8
f 6/6/6 10/10/10 7/7/7
f 10/10/10 11/11/11 7/7/7
f 10/10/10 12/12/12 11/11/11
f 12/12/12 10/10/10 6/6/6
f 12/12/12 13/13/13 11/11/11
f 14/14/14 12/12/12 6/6/6
f 14/14/14 6/6/6 4/4/4
f 12/12/12 15/15/15 13/13/13
f 15/15/15 12/12/12 14/14/14
f 15/15/15 16/16/16 13/13/13
f 16/16/16 15/15/15 17/17/17
f 17/17/17 15/15/15 14/14/14
f 18/18/18 16/16/16 17/17/17
f 19/19/19 14/14/14 4/4/4
f 17/17/17 14/14/14 19/19/19
f 18/18/18 17/17/17 20/20/20
f 20/20/20 17/17/17 19/19/19
f 21/21/21 18/18/18 20/20/20
f 22/22/22 19/19/19 4/4/4
f 8/8/8 22/22/22 4/4/4
f 20/20/20 23/23/23 21/21/21
f 23/23/23 24/24/24 21/21/21
f 25/25/25 20/20/20 19/19/19
f 22/22/22 25/25/25 19/19/19
f 23/23/23 26/26/26 24/24/24
f 26/26/26 27/27/27 24/24/24
f 26/26/26 28/28/28 27/27/27
f 29/29/29 23/23/23 20/20/20
f 25/25/25 29/29/29 20/20/20
f 30/30/30 26/26/26 23/23/23
f 30/30/30 28/28/28 26/26/26
f 29/29/29 30/30/30 23/23/23
f 31/31/31 28/28/28 30/30/30
f 31/31/31 30/30/30 29/29/29
f 32/32/32 28/28/28 31/31/31
f 33/33/33 28/28/28 32/32/32
f 34/34/34 31/31/31 29/29/29
f 34/34/34 29/29/29 25/25/25
f 32/32/32 31/31/31 34/34/34
f 35/35/35 25/25/25 22/22/22
f 35/35/35 34/34/34 25/25/25
f 36/36/36 32/32/32 34/34/34
f 33/33/33 32/32/32 36/36/36
f 36/36/36 34/34/34 35/35/35
f 37/37/37 35/35/35 22/22/22
f 37/37/37 22/22/22 8/8/8
f 38/38/38 36/36/36 35/35/35
f 38/38/38 35/35/35 37/37/37
f 39/39/39 33/33/33 36/36/36
f 39/39/39 36/36/36 38/38/38
f 40/40/40 37/37/37 8/8/8
f 9/9/9 40/40/40 8/8/8
f 9/9/9 41/41/41 40/40/40
f 42/42/42 38/38/38 37/37/37
f 42/42/42 37/37/37 40/40/40
f 41/41/41 43/43/43 40/40/40
f 43/43/43 42/42/42 40/40/40
f 41/41/41 44/44/44 43/43/43
f 45/45/45 38/38/38 42/42/42
f 45/45/45 39/39/39 38/38/38
f 46/46/46 33/33/33 39/39/39
f 46/46/46 28/28/28 33/33/33
f 47/47/47 42/42/42 43/43/43
f 47/47/47 45/45/45 42/42/42
f 44/44/44 48/48/48 43/43/43
f 48/48/48 47/47/47 43/43/43
f 44/44/44 49/49/49 48/48/48
f 50/50/50 46/46/46 39/39/39
f 50/50/50 39/39/39 45/45/45
f 51/51/51 45/45/45 47/47/47
f 51/51/51 50/50/50 45/45/45
f 52/52/52 47/47/47 48/48/48
f 52/52/52 51/51/51 47/47/47
f 49/49/49 53/53/53 48/48/48
f 53/53/53 52/52/52 48/48/48
f 49/49/49 54/54/54 53/53/53
f 55/55/55 46/46/46 50/50/50
f 55/55/55 28/28/28 46/46/46
f 56/56/56 50/50/50 51/51/51
f 56/56/56 55/55/55 50/50/50
f 57/57/57 51/51/51 52/52/52
f 57/57/57 56/56/56 51/51/51
f 58/58/58 52/52/52 53/53/53
f 58/58/58 57/57/57 52/52/52
f 54/54/54 59/59/59 53/53/53
f 59/59/59 58/58/58 53/53/53
f 54/54/54 60/60/60 59/59/59
f 61/61/61 55/55/55 56/56/56
f 61/61/61 28/28/28 55/55/55
f 62/62/62 56/56/56 57/57/57
f 62/62/62 61/61/61 56/56/56
f 63/63/63 57/57/57 58/58/58
f 63/63/63 62/62/62 57/57/57
f 64/64/64 58/58/58 59/59/59
f 64/64/64 63/63/63 58/58/58
f 65/65/65 63/63/63 64/64/64
f 60/60/60 66/66/66 59/59/59
f 66/66/66 64/64/64 59/59/59
f 60/60/60 67/67/67 66/66/66
f 68/68/68 61/61/61 62/62/62
f 68/68/68 28/28/28 61/61/61
f 69/69/69 62/62/62 63/63/63
f 69/69/69 68/68/68 62/62/62
f 65/65/65 69/69/69 63/63/63
f 70/70/70 64/64/64 66/66/66
f 70/70/70 65/65/65 64/64/64
f 67/67/67 71/71/71 66/66/66
f 71/71/71 70/70/70 66/66/66
f 67/67/67 72/72/72 71/71/71
f 73/73/73 28/28/28 68/68/68
f 73/73/73 68/68/68 69/69/69
f 74/74/74 28/28/28 73/73/73
f 75/75/75 28/28/28 74/74/74
f 76/76/76 73/73/73 69/69/69
f 74/74/74 73/73/73 76/76/76
f 76/76/76 69/69/69 65/65/65
f 75/75/75 74/74/74 77/77/77
f 77/77/77 74/74/74 76/76/76
f 78/78/78 75/75/75 77/77/77
f 77/77/77 76/76/76 79/79/79
f 79/79/79 76/76/76 65/65/65
f 78/78/78 77/77/77 80/80/80
f 80/80/80 77/77/77 79/79/79
f 81/81/81 78/78/78 80/80/80
f 80/80/80 82/82/82 81/81/81
f 82/82/82 83/83/83 81/81/81
f 79/79/79 84/84/84 80/80/80
f 84/84/84 82/82/82 80/80/80
f 65/65/65 85/85/85 79/79/79
f 85/85/85 84/84/84 79/79/79
f 82/82/82 86/86/86 83/83/83
f 86/86/86 87/87/87 83/83/83
f 84/84/84 88/88/88 82/82/82
f 88/88/88 86/86/86 82/82/82
f 87/87/87 86/86/86 89/89/89
f 90/90/90 87/87/87 89/89/89
f 91/91/91 85/85/85 65/65/65
f 70/70/70 91/91/91 65/65/65
f 85/85/85 92/92/92 84/84/84
f 92/92/92 88/88/88 84/84/84
f 93/93/93 92/92/92 85/85/85
f 88/88/88 92/92/92 93/93/93
f 91/91/91 93/93/93 85/85/85
f 86/86/86 88/88/88 94/94/94
f 94/94/94 88/88/88 93/93/93
f 89/89/89 86/86/86 94/94/94
f 90/90/90 89/89/89 95/95/95
f 96/96/96 90/90/90 95/95/95
f 97/97/97 91/91/91 70/70/70
f 71/71/71 97/97/97 70/70/70
f 98/98/98 93/93/93 91/91/91
f 94/94/94 93/93/93 98/98/98
f 97/97/97 98/98/98 91/91/91
f 89/89/89 94/94/94 99/99/99
f 99/99/99 94/94/94 98/98/98
f 99/99/99 98/98/98 97/97/97
f 95/95/95 89/89/89 99/99/99
f 100/100/100 99/99/99 97/97/97
f 100/100/100 97/97/97 71/71/71
f 95/95/95 99/99/99 100/100/100
f 96/96/96 95/95/95 101/101/101
f 101/101/101 95/95/95 100/100/100
f 102/102/102 96/96/96 101/101/101
f 103/103/103 100/100/100 71/71/71
f 101/101/101 100/100/100 103/103/103
f 72/72/72 103/103/103 71/71/71
f 72/72/72 104/104/104 103/103/103
f 102/102/102 101/101/101 105/105/105
f 105/105/105 101/101/101 103/103/103
f 104/104/104 105/105/105 103/103/103
f 106/106/106 102/102/102 105/105/105
f 105/105/105 104/104/104 107/107/107
f 106/106/106 105/105/105 107/107/107
f 110/110/110 109/109/109 108/108/108
f 111/111/111 110/110/110 108/108/108
f 108/108/108 112/112/112 111/111/111
f 110/110/110 113/113/113 109/109/109
f 113/113/113 114/114/114 109/109/109
f 111/111/111 115/115/115 110/110/110
f 110/110/110 115/115/115 113/113/113
f 112/112/112 116/116/116 111/111/111
f 116/116/116 115/115/115 111/111/111
f 113/113/113 115/115/115 117/117/117
f 113/113/113 117/117/117 114/114/114
f 118/118/118 115/115/115 116/116/116
f 116/116/116 112/112/112 119/119/119
f 118/118/118 116/116/116 119/119/119
f 117/117/117 120/120/120 114/114/114
f 118/118/118 119/119/119 121/121/121
f 117/117/117 122/122/122 120/120/120
f 117/117/117 115/115/115 122/122/122
f 122/122/122 123/123/123 120/120/120
f 124/124/124 118/118/118 121/121/121
f 124/124/124 115/115/115 118/118/118
f 124/124/124 121/121/121 125/125/125
f 122/122/122 126/126/126 123/123/123
f 122/122/122 115/115/115 126/126/126
f 126/126/126 127/127/127 123/123/123
f 128/128/128 124/124/124 125/125/125
f 128/128/128 115/115/115 124/124/124
f 128/128/128 125/125/125 129/129/129
f 126/126/126 130/130/130 127/127/127
f 126/126/126 115/115/115 130/130/130
f 130/130/130 131/131/131 127/127/127
f 132/132/132 129/129/129 131/131/131
f 132/132/132 128/128/128 129/129/129
f 132/132/132 115/115/115 128/128/128
f 130/130/130 115/115/115 132/132/132
f 130/130/130 132/132/132 131/131/131
