g jumper_cap_R
v -0.3411826 -0.1106862 0.001629859
v -0.3411826 0.1522112 0.3626082
v -0.3411826 -0.02162093 0.2127535
v -0.3411826 -0.06243587 -0.204863
v -0.3411826 0.08853188 -0.355341
v -0.3411826 0.2927469 -0.4114232
v -0.3411826 0.4969642 -0.3578794
v -0.3411826 0.6464572 -0.2091962
v -0.3411826 0.7095963 -0.006126761
v -0.3411826 0.6858715 0.1961744
v -0.3411826 0.5594754 0.3488718
v -0.3411826 0.3642761 0.4110506
v -0.0004314184 0.3602922 0.3051085
v -0.0004314184 0.3255065 -0.0007984638
v -0.0004314184 0.2029606 0.2685875
v -0.0004314184 0.5054486 0.2594931
v -0.0004314184 0.07541326 0.1578428
v -0.0004314184 0.599731 0.1458384
v -0.0004314184 0.01182601 0.002547473
v -0.0004314184 0.6178781 -0.005402327
v -0.0004314184 0.04397678 -0.151436
v -0.0004314184 0.569038 -0.15626
v -0.0004314184 0.1549304 -0.2637351
v -0.0004314184 0.45808 -0.2663993
v -0.0004314184 0.3065046 -0.3057766
v -0.3411826 0.5594754 0.3488718
v -0.271574 0.3708186 0.4384155
v -0.3411826 0.3642761 0.4110506
v -0.271574 0.5789242 0.371698
v -0.271574 0.1448342 0.3872
v -0.3411826 0.6858715 0.1961744
v -0.3411826 0.1522112 0.3626082
v -0.271574 0.7138026 0.2088258
v -0.271574 -0.04132584 0.2272772
v -0.3411826 0.7095963 -0.006126761
v -0.3411826 -0.02162093 0.2127535
v -0.271574 0.7393142 -0.006561428
v -0.271574 -0.1363787 0.001844376
v -0.3411826 0.6464572 -0.2091962
v -0.3411826 -0.1106862 0.001629859
v -0.271574 0.6726215 -0.2229786
v -0.271574 -0.08416474 -0.218268
v -0.3411826 0.4969642 -0.3578794
v -0.3411826 -0.06243587 -0.204863
v -0.271574 0.5132581 -0.3814143
v -0.271574 0.07785723 -0.3785367
v -0.3411826 0.2927469 -0.4114232
v -0.3411826 0.08853188 -0.355341
v -0.271574 0.295556 -0.4384153
v -0.0004314184 0.2029606 0.2685875
v -0.271574 0.1448342 0.3872
v -0.271574 0.3708186 0.4384155
v -0.0004314184 0.3602922 0.3051085
v -0.0004314184 0.07541326 0.1578428
v -0.271574 0.5789242 0.371698
v -0.271574 -0.04132584 0.2272772
v -0.0004314184 0.5054486 0.2594931
v -0.0004314184 0.01182601 0.002547473
v -0.271574 0.7138026 0.2088258
v -0.271574 -0.1363787 0.001844376
v -0.0004314184 0.599731 0.1458384
v -0.0004314184 0.04397678 -0.151436
v -0.271574 0.7393142 -0.006561428
v -0.271574 -0.08416474 -0.218268
v -0.0004314184 0.6178781 -0.005402327
v -0.0004314184 0.1549304 -0.2637351
v -0.271574 0.6726215 -0.2229786
v -0.271574 0.07785723 -0.3785367
v -0.0004314184 0.569038 -0.15626
v -0.0004314184 0.3065046 -0.3057766
v -0.271574 0.5132581 -0.3814143
v -0.271574 0.295556 -0.4384153
v -0.0004314184 0.45808 -0.2663993
vt 0.1477005 0.3155304
vt 0.1478095 0.3696629
vt 0.1741382 0.3278899
vt 0.120506 0.3181729
vt 0.09984711 0.3351118
vt 0.09125261 0.3617996
vt 0.09703144 0.3910915
vt 0.1156251 0.4151368
vt 0.1420628 0.4274962
vt 0.1692573 0.4248537
vt 0.1899161 0.4079148
vt 0.1985106 0.381227
vt 0.15101 0.2934798
vt 0.1668457 0.3452263
vt 0.1795835 0.2947305
vt 0.1271827 0.306038
vt 0.2053413 0.309758
vt 0.1143872 0.3287172
vt 0.2213758 0.3345473
vt 0.1160612 0.3554371
vt 0.220696 0.3621973
vt 0.1293891 0.3799378
vt 0.2049565 0.3851779
vt 0.152235 0.3953951
vt 0.1798978 0.3973193
vt 0.1627601 0.4473918
vt 0.1747026 0.4236543
vt 0.1713546 0.4207039
vt 0.1651075 0.4534464
vt 0.1682503 0.3909631
vt 0.1420948 0.4643306
vt 0.1655757 0.3914121
vt 0.1420499 0.4723543
vt 0.1474952 0.3641214
vt 0.1149067 0.4669731
vt 0.1469757 0.3673668
vt 0.1116934 0.4753047
vt 0.1179853 0.3503317
vt 0.08846903 0.4546201
vt 0.120538 0.3550138
vt 0.0821835 0.461515
vt 0.08762881 0.3532821
vt 0.069869 0.4305748
vt 0.09334351 0.3576563
vt 0.06142202 0.4346732
vt 0.0645712 0.3721836
vt 0.06409016 0.401283
vt 0.07268466 0.3745887
vt 0.05497615 0.4019756
vt 0.2116525 0.3273767
vt 0.2249611 0.318949
vt 0.2312531 0.350832
vt 0.217938 0.3592533
vt 0.1914105 0.301202
vt 0.2219018 0.3798737
vt 0.2047256 0.2927807
vt 0.2085867 0.3883014
vt 0.1626382 0.2877587
vt 0.199415 0.398307
vt 0.1759533 0.2793309
vt 0.1860999 0.4067347
vt 0.1330449 0.2906385
vt 0.1698217 0.4011868
vt 0.1463536 0.2822107
vt 0.1565066 0.4096081
vt 0.1105582 0.3090653
vt 0.1410494 0.387737
vt 0.1238732 0.300644
vt 0.1277343 0.3961648
vt 0.1012068 0.3381134
vt 0.1208074 0.3615687
vt 0.1145155 0.3296921
vt 0.1074924 0.3699901
vn -0.7677839 -0.6370771 0.06812267
vn -0.7775398 -0.2878131 0.5591023
vn -0.7775398 -0.5082982 0.3702225
vn -0.7736374 -0.5531757 -0.3090013
vn -0.7775398 -0.317081 -0.5430391
vn -0.7814423 -0.008792043 -0.6239156
vn -0.789247 0.3014481 -0.5349936
vn -0.7951006 0.5180308 -0.3153715
vn -0.8009542 0.5960786 -0.0562372
vn -0.7931495 0.5609571 0.2371521
vn -0.7911983 0.3385208 0.5093221
vn -0.7833935 0.01852465 0.6212499
vn 0.9999995 0.0009639263 -0.0001565898
vn 0.9999995 0.0009639263 -0.0001565898
vn 0.9999995 0.0009639263 -0.0001565898
vn 0.9999995 0.0009639263 -0.0001565898
vn 0.9999995 0.0009639263 -0.0001565898
vn 0.9999995 0.0009639263 -0.0001565898
vn 0.9999995 0.0009639263 -0.0001565898
vn 0.9999995 0.0009639263 -0.0001565898
vn 0.9999995 0.0009639263 -0.0001565898
vn 0.9999995 0.0009639263 -0.0001565898
vn 0.9999995 0.0009639263 -0.0001565898
vn 0.9999995 0.0009639263 -0.0001565898
vn 0.9999995 0.0009639263 -0.0001565898
vn -0.7911983 0.3385208 0.5093221
vn 0.03806001 0.04974377 0.9980366
vn -0.7833935 0.01852465 0.6212499
vn 0.02440161 0.5629083 0.8261591
vn 0.04976714 -0.4458599 0.8937182
vn -0.7931495 0.5609571 0.2371521
vn -0.7775398 -0.2878131 0.5591023
vn 0.01464564 0.918026 0.3962496
vn 0.05952317 -0.8087823 0.5850881
vn -0.8009542 0.5960786 -0.0562372
vn -0.7775398 -0.5082982 0.3702225
vn 0.008792043 0.9960738 -0.08808843
vn 0.06732792 -0.9941459 0.08450335
vn -0.7951006 0.5180308 -0.3153715
vn -0.7677839 -0.6370771 0.06812267
vn 0.01269442 0.8555877 -0.5175022
vn 0.06537676 -0.8712206 -0.4865188
vn -0.789247 0.3014481 -0.5349936
vn -0.7736374 -0.5531757 -0.3090013
vn 0.02440161 0.4965676 -0.867655
vn 0.05562073 -0.5004934 -0.8639518
vn -0.7814423 -0.008792043 -0.6239156
vn -0.7775398 -0.317081 -0.5430391
vn 0.04001117 -0.004889667 -0.9991872
vn 0.1668389 -0.4497623 0.8774273
vn 0.04976714 -0.4458599 0.8937182
vn 0.03806001 0.04974377 0.9980366
vn 0.1531805 0.01657355 0.9880592
vn 0.1707413 -0.775612 0.6076788
vn 0.02440161 0.5629083 0.8261591
vn 0.05952317 -0.8087823 0.5850881
vn 0.1395222 0.5609571 0.8160029
vn 0.1668389 -0.9804876 0.1039658
vn 0.01464564 0.918026 0.3962496
vn 0.06732792 -0.9941459 0.08450335
vn 0.1336686 0.918026 0.3733109
vn 0.1687901 -0.8575622 -0.485898
vn 0.008792043 0.9960738 -0.08808843
vn 0.06537676 -0.8712206 -0.4865188
vn 0.137571 0.9824154 -0.1262304
vn 0.1648877 -0.4751279 -0.8643295
vn 0.01269442 0.8555877 -0.5175022
vn 0.05562073 -0.5004934 -0.8639518
vn 0.137571 0.8497341 -0.5089462
vn 0.1551318 -0.01074326 -0.9878354
vn 0.02440161 0.4965676 -0.867655
vn 0.04001117 -0.004889667 -0.9991872
vn 0.1434246 0.5121772 -0.8468198
g jumper_cap_R_0
f 3/3/3 2/2/2 1/1/1
f 1/1/1 2/2/2 4/4/4
f 4/4/4 2/2/2 5/5/5
f 5/5/5 2/2/2 6/6/6
f 6/6/6 2/2/2 7/7/7
f 7/7/7 2/2/2 8/8/8
f 8/8/8 2/2/2 9/9/9
f 9/9/9 2/2/2 10/10/10
f 10/10/10 2/2/2 11/11/11
f 11/11/11 2/2/2 12/12/12
f 15/15/15 14/14/14 13/13/13
f 13/13/13 14/14/14 16/16/16
f 17/17/17 14/14/14 15/15/15
f 16/16/16 14/14/14 18/18/18
f 19/19/19 14/14/14 17/17/17
f 18/18/18 14/14/14 20/20/20
f 21/21/21 14/14/14 19/19/19
f 20/20/20 14/14/14 22/22/22
f 23/23/23 14/14/14 21/21/21
f 22/22/22 14/14/14 24/24/24
f 25/25/25 14/14/14 23/23/23
f 24/24/24 14/14/14 25/25/25
f 28/28/28 27/27/27 26/26/26
f 27/27/27 29/29/29 26/26/26
f 27/27/27 28/28/28 30/30/30
f 31/31/31 26/26/26 29/29/29
f 28/28/28 32/32/32 30/30/30
f 33/33/33 31/31/31 29/29/29
f 30/30/30 32/32/32 34/34/34
f 35/35/35 31/31/31 33/33/33
f 32/32/32 36/36/36 34/34/34
f 37/37/37 35/35/35 33/33/33
f 38/38/38 34/34/34 36/36/36
f 39/39/39 35/35/35 37/37/37
f 40/40/40 38/38/38 36/36/36
f 41/41/41 39/39/39 37/37/37
f 42/42/42 38/38/38 40/40/40
f 39/39/39 41/41/41 43/43/43
f 44/44/44 42/42/42 40/40/40
f 41/41/41 45/45/45 43/43/43
f 42/42/42 44/44/44 46/46/46
f 43/43/43 45/45/45 47/47/47
f 44/44/44 48/48/48 46/46/46
f 45/45/45 49/49/49 47/47/47
f 46/46/46 48/48/48 49/49/49
f 48/48/48 47/47/47 49/49/49
f 52/52/52 51/51/51 50/50/50
f 53/53/53 52/52/52 50/50/50
f 50/50/50 51/51/51 54/54/54
f 55/55/55 52/52/52 53/53/53
f 51/51/51 56/56/56 54/54/54
f 57/57/57 55/55/55 53/53/53
f 54/54/54 56/56/56 58/58/58
f 59/59/59 55/55/55 57/57/57
f 56/56/56 60/60/60 58/58/58
f 61/61/61 59/59/59 57/57/57
f 58/58/58 60/60/60 62/62/62
f 63/63/63 59/59/59 61/61/61
f 60/60/60 64/64/64 62/62/62
f 65/65/65 63/63/63 61/61/61
f 62/62/62 64/64/64 66/66/66
f 67/67/67 63/63/63 65/65/65
f 64/64/64 68/68/68 66/66/66
f 69/69/69 67/67/67 65/65/65
f 66/66/66 68/68/68 70/70/70
f 71/71/71 67/67/67 69/69/69
f 68/68/68 72/72/72 70/70/70
f 73/73/73 71/71/71 69/69/69
f 70/70/70 72/72/72 73/73/73
f 72/72/72 71/71/71 73/73/73
