g koral_metamorpheusCone
v -3.156124 11.32278 -2.324337
v -1.220606 11.26542 -3.760851
v 1.220606 11.15 -3.760851
v 3.156124 10.85047 -2.324337
v -3.90119 11.65117 -2.384186E-07
v 3.90119 10.40923 -2.384186E-07
v -3.156124 11.57866 2.324336
v 3.156124 10.53269 2.324336
v -1.220606 11.26542 3.76085
v 1.220606 11.15 3.76085
v 0.5571902 -0.1028297 0.2225525
v 2.384186E-07 -1.355028 -2.384186E-07
v 0.3199687 -0.1028297 0.5075624
v 1.216082 2.387417 -0.9205863
v 1.53964 2.529877 -0.03521109
v -0.03948236 -0.1028297 0.5987041
v 2.384186E-07 -1.355028 -2.384186E-07
v 0.428019 2.332998 -1.454327
v 0.5816033 -0.1028297 -0.1474588
v 2.384186E-07 -1.355028 -2.384186E-07
v 2.301822 5.444746 -0.6970696
v 1.509457 5.84497 -1.91468
v 1.275099 2.705991 0.8636167
v 2.214952 5.197379 0.7867877
v -0.3838494 -0.1028297 0.4611533
v 2.384186E-07 -1.355028 -2.384186E-07
v -0.5235212 2.387417 -1.432569
v 0.1405473 6.245193 -2.400944
v 0.3838496 -0.1028297 -0.4611535
v 2.384186E-07 -1.355028 -2.384186E-07
v 2.915106 8.584807 -1.32213
v 3.139869 8.519902 0.6534488
v 1.576868 8.519902 -2.792713
v 1.282055 5.197379 1.970136
v 0.5235217 2.848451 1.432568
v 2.165309 8.349988 2.379452
v -0.5816033 -0.1028297 0.1474588
v 2.384186E-07 -1.355028 -2.384186E-07
v 3.90119 10.40923 -2.384186E-07
v 3.156124 10.85047 -2.324337
v 3.156124 10.53269 2.324336
v 1.220606 11.15 -3.760851
v 1.220606 11.15 3.76085
v -0.3636782 8.349988 -3.196571
v -1.220606 11.26542 -3.760851
v 0.3636782 8.139954 3.196571
v -1.220606 11.26542 3.76085
v -2.165309 8.139954 -2.379452
v -3.156124 11.32278 -2.324337
v -1.282054 6.492545 -1.970121
v -1.576868 7.970025 2.792713
v -3.156124 11.57866 2.324336
v -0.140547 5.444746 2.400943
v -3.139868 7.970025 -0.6534491
v -3.90119 11.65117 -2.384186E-07
v -2.915106 7.905121 1.32213
v -2.214951 6.492545 -0.786788
v -1.275098 2.529877 -0.8636172
v -0.4280188 2.902869 1.454327
v -1.509457 5.84497 1.914679
v -2.301821 6.245193 0.6970694
v -1.53964 2.705991 0.03521085
v 0.03948259 -0.1028297 -0.5987046
v 2.384186E-07 -1.355028 -2.384186E-07
v -1.216082 2.848451 0.9205863
v -0.5571897 -0.1028297 -0.2225528
v 2.384186E-07 -1.355028 -2.384186E-07
v -0.3199685 -0.1028297 -0.5075626
v 2.384186E-07 -1.355028 -2.384186E-07
v 2.384186E-07 -1.355028 -2.384186E-07
vt 0.155828 0.04506672
vt 0.1663602 0.05271757
vt 0.1793782 0.05271757
vt 0.1899075 0.04506672
vt 0.1518062 0.03268677
vt 0.1939321 0.03268677
vt 0.155828 0.02030683
vt 0.1899075 0.02030683
vt 0.1663602 0.01265597
vt 0.1793782 0.01265597
vt 0.1670964 0.06071199
vt 0.1793666 0.02542279
vt 0.1695504 0.06071199
vt 0.1548261 0.09599831
vt 0.1597342 0.09599831
vt 0.1720045 0.06071199
vt 0.1793666 0.02542279
vt 0.1598035 0.09599831
vt 0.1696197 0.06071199
vt 0.1794388 0.02542279
vt 0.142553 0.1312875
vt 0.1499873 0.1312875
vt 0.1646423 0.09599831
vt 0.149918 0.1312875
vt 0.1744585 0.06071199
vt 0.1793666 0.02542279
vt 0.1647116 0.09599831
vt 0.1573495 0.1312875
vt 0.1720738 0.06071199
vt 0.1794388 0.02542279
vt 0.1401712 0.1665738
vt 0.1302828 0.1665738
vt 0.1499873 0.1665738
vt 0.1572802 0.1312875
vt 0.1695504 0.09599831
vt 0.140099 0.1665738
vt 0.1769126 0.06071199
vt 0.1793666 0.02542279
vt 0.1303521 0.201863
vt 0.1426252 0.201863
vt 0.1180126 0.201863
vt 0.1548954 0.201863
vt 0.1302828 0.201863
vt 0.1598035 0.1665738
vt 0.1671657 0.201863
vt 0.149918 0.1665738
vt 0.142553 0.201863
vt 0.1696197 0.1665738
vt 0.1793666 0.201863
vt 0.1647116 0.1312875
vt 0.1597342 0.1665738
vt 0.1548261 0.201863
vt 0.1646423 0.1312875
vt 0.1793666 0.1665738
vt 0.1670964 0.201863
vt 0.1695504 0.1665738
vt 0.1720738 0.1312875
vt 0.1696197 0.09599831
vt 0.1744585 0.09599831
vt 0.1720045 0.1312875
vt 0.1793666 0.1312875
vt 0.1745278 0.09599831
vt 0.1745278 0.06071199
vt 0.1794388 0.02542279
vt 0.1793666 0.09599831
vt 0.1793666 0.06071199
vt 0.1793666 0.02542279
vt 0.1769819 0.06071199
vt 0.1794388 0.02542279
vt 0.1794388 0.02542279
vn 0.1283187 0.9916319 0.01416016
vn 0.1283187 0.9916319 0.01416016
vn 0.1283187 0.9916319 0.01416016
vn 0.1283187 0.9916319 0.01416016
vn 0.1283187 0.9916319 0.01416016
vn 0.1283187 0.9916319 0.01416016
vn 0.1283187 0.9916319 0.01416016
vn 0.1283187 0.9916319 0.01416016
vn 0.1283187 0.9916319 0.01416016
vn 0.1283187 0.9916319 0.01416016
vn 0.9070049 -0.3866239 -0.1669255
vn 0.6996067 -0.4149054 0.581725
vn 0.8315874 -0.3677695 0.4161827
vn 0.8391291 -0.3036646 -0.4512761
vn 0.9371719 -0.3149772 0.1499938
vn 0.4413016 -0.3489151 0.8267473
vn 0.2244761 -0.4149054 0.8817392
vn 0.4035928 -0.2829247 -0.8700957
vn 0.6185328 -0.3979365 -0.6775424
vn 0.9088904 -0.4149054 0.04209267
vn 0.9371719 -0.2697266 -0.2212607
vn 0.6109911 -0.2678412 -0.7449504
vn 0.6468143 -0.3225189 0.6910953
vn 0.8806088 -0.2810393 0.3815037
vn -0.1017047 -0.3394879 0.9350958
vn -0.3373846 -0.4149054 0.8450001
vn -0.1771224 -0.258414 -0.9496577
vn 0.03781772 -0.2829247 -0.9583963
vn 0.07552648 -0.4017074 -0.9126483
vn 0.7693679 -0.4149054 -0.4857227
vn 0.8579835 -0.2961228 -0.4197327
vn 0.9371719 -0.2980082 0.1813832
vn 0.4808958 -0.2961228 -0.8252578
vn 0.4790103 -0.2961228 0.8263537
vn 0.09626627 -0.3262898 0.9403551
vn 0.6298454 -0.2791538 0.7248226
vn -0.6032314 -0.3432587 0.7199203
vn -0.76915 -0.4149054 0.4860676
vn 0.9352865 -0.3376024 -0.1061307
vn 0.6732105 -0.2980082 -0.6767412
vn 0.7750242 -0.3149772 0.5478384
vn 0.1697984 -0.2659557 -0.9489131
vn 0.3206335 -0.2546431 0.9123327
vn -0.05645424 -0.3036646 -0.951105
vn -0.4146876 -0.2376742 -0.8783764
vn 0.07741189 -0.2602994 0.9624196
vn -0.2318001 -0.228247 0.9456067
vn -0.5862625 -0.3017791 -0.751815
vn -0.8728492 -0.2093926 -0.4407822
vn -0.5221575 -0.3149772 -0.7925534
vn -0.5410119 -0.2527577 0.8021344
vn -0.7446394 -0.2037363 0.6356128
vn -0.1035903 -0.3149772 0.9434291
vn -0.9256414 -0.275383 -0.2595229
vn -0.9727774 -0.1924236 0.1291408
vn -0.9124434 -0.2527577 0.3218083
vn -0.8690783 -0.3432587 -0.3561971
vn -0.6824199 -0.245216 -0.6886016
vn -0.4844488 -0.3149772 0.8161487
vn -0.6371694 -0.3300607 0.6964734
vn -0.9180998 -0.3451442 0.1948545
vn -0.9501522 -0.2527577 -0.1825498
vn -0.4995323 -0.396051 -0.7704616
vn 0.3376024 -0.4149054 -0.8449131
vn -0.8785055 -0.2829247 0.3849438
vn -0.8973598 -0.3602277 0.2549143
vn -0.9086725 -0.4149054 -0.04656034
vn -0.8690783 -0.3809676 -0.3155418
vn -0.2242583 -0.4149054 -0.8817946
vn -0.6993889 -0.4149054 -0.5819868
g koral_metamorpheusCone_0
f 3/3/3 2/2/2 1/1/1
f 1/1/1 4/4/4 3/3/3
f 1/1/1 5/5/5 4/4/4
f 5/5/5 6/6/6 4/4/4
f 5/5/5 7/7/7 6/6/6
f 7/7/7 8/8/8 6/6/6
f 7/7/7 9/9/9 8/8/8
f 9/9/9 10/10/10 8/8/8
f 13/13/13 12/12/12 11/11/11
f 13/13/13 11/11/11 14/14/14
f 15/15/15 13/13/13 14/14/14
f 16/16/16 13/13/13 15/15/15
f 16/16/16 17/17/17 13/13/13
f 14/14/14 11/11/11 18/18/18
f 11/11/11 19/19/19 18/18/18
f 11/11/11 20/20/20 19/19/19
f 15/15/15 14/14/14 21/21/21
f 14/14/14 18/18/18 22/22/22
f 21/21/21 14/14/14 22/22/22
f 23/23/23 16/16/16 15/15/15
f 24/24/24 15/15/15 21/21/21
f 23/23/23 15/15/15 24/24/24
f 25/25/25 16/16/16 23/23/23
f 25/25/25 26/26/26 16/16/16
f 18/18/18 19/19/19 27/27/27
f 22/22/22 18/18/18 28/28/28
f 18/18/18 27/27/27 28/28/28
f 19/19/19 29/29/29 27/27/27
f 19/19/19 30/30/30 29/29/29
f 21/21/21 22/22/22 31/31/31
f 24/24/24 21/21/21 32/32/32
f 32/32/32 21/21/21 31/31/31
f 22/22/22 28/28/28 33/33/33
f 31/31/31 22/22/22 33/33/33
f 34/34/34 23/23/23 24/24/24
f 35/35/35 25/25/25 23/23/23
f 35/35/35 23/23/23 34/34/34
f 36/36/36 24/24/24 32/32/32
f 34/34/34 24/24/24 36/36/36
f 37/37/37 25/25/25 35/35/35
f 37/37/37 38/38/38 25/25/25
f 32/32/32 31/31/31 39/39/39
f 39/39/39 31/31/31 40/40/40
f 31/31/31 33/33/33 40/40/40
f 41/41/41 32/32/32 39/39/39
f 36/36/36 32/32/32 41/41/41
f 40/40/40 33/33/33 42/42/42
f 43/43/43 36/36/36 41/41/41
f 33/33/33 44/44/44 42/42/42
f 42/42/42 44/44/44 45/45/45
f 33/33/33 28/28/28 44/44/44
f 46/46/46 36/36/36 43/43/43
f 47/47/47 46/46/46 43/43/43
f 46/46/46 34/34/34 36/36/36
f 44/44/44 48/48/48 45/45/45
f 45/45/45 48/48/48 49/49/49
f 28/28/28 50/50/50 44/44/44
f 44/44/44 50/50/50 48/48/48
f 28/28/28 27/27/27 50/50/50
f 51/51/51 46/46/46 47/47/47
f 52/52/52 51/51/51 47/47/47
f 53/53/53 34/34/34 46/46/46
f 51/51/51 53/53/53 46/46/46
f 53/53/53 35/35/35 34/34/34
f 48/48/48 54/54/54 49/49/49
f 49/49/49 54/54/54 55/55/55
f 55/55/55 56/56/56 52/52/52
f 56/56/56 51/51/51 52/52/52
f 54/54/54 56/56/56 55/55/55
f 50/50/50 57/57/57 48/48/48
f 48/48/48 57/57/57 54/54/54
f 27/27/27 58/58/58 50/50/50
f 50/50/50 58/58/58 57/57/57
f 27/27/27 29/29/29 58/58/58
f 59/59/59 35/35/35 53/53/53
f 59/59/59 37/37/37 35/35/35
f 60/60/60 53/53/53 51/51/51
f 56/56/56 60/60/60 51/51/51
f 60/60/60 59/59/59 53/53/53
f 54/54/54 61/61/61 56/56/56
f 57/57/57 61/61/61 54/54/54
f 61/61/61 60/60/60 56/56/56
f 58/58/58 62/62/62 57/57/57
f 57/57/57 62/62/62 61/61/61
f 29/29/29 63/63/63 58/58/58
f 58/58/58 63/63/63 62/62/62
f 29/29/29 64/64/64 63/63/63
f 61/61/61 65/65/65 60/60/60
f 65/65/65 59/59/59 60/60/60
f 62/62/62 65/65/65 61/61/61
f 66/66/66 37/37/37 59/59/59
f 65/65/65 66/66/66 59/59/59
f 66/66/66 67/67/67 37/37/37
f 63/63/63 68/68/68 62/62/62
f 62/62/62 68/68/68 65/65/65
f 68/68/68 66/66/66 65/65/65
f 63/63/63 69/69/69 68/68/68
f 68/68/68 70/70/70 66/66/66
