g koral_right_fin
v 5.960464E-07 0.4320071 0.04272878
v 5.960464E-07 -0.3663972 0.1620876
v 5.960464E-07 0.4349598 0.2591395
v 5.960464E-07 0.4320071 0.04272878
v -0.4675214 -0.6067027 0.1313503
v 5.960464E-07 -0.3663972 0.1620876
v -0.7095696 0.2746118 0.06030351
v -1.074061 -0.604582 0.1147835
v -1.239411 0.07063937 0.07625616
v -1.683965 -0.5462884 0.1321692
v -1.670154 -0.1708 0.08264452
v -2.145445 -0.1713249 0.134093
v -1.679991 -0.160346 0.1859982
v -1.683965 -0.5462884 0.1321692
v -1.074061 -0.604582 0.1147835
v -1.251062 0.08063406 0.1983131
v -0.7198164 0.2812863 0.2347538
v -0.4675214 -0.6067027 0.1313503
v 5.960464E-07 0.4349598 0.2591395
v 5.960464E-07 -0.3663972 0.1620876
v -0.7095696 0.2746118 0.06030351
v 5.960464E-07 0.4320071 0.04272878
v -0.7198164 0.2812863 0.2347538
v -1.239411 0.07063937 0.07625616
v -1.251062 0.08063406 0.1983131
v -1.670154 -0.1708 0.08264452
v -1.679991 -0.160346 0.1859982
v -2.145445 -0.1713249 0.134093
vt 0.6726032 0.06257586
vt 0.684523 0.0769252
vt 0.6759722 0.06341101
vt 0.6764562 0.06353438
vt 0.6776425 0.1105494
vt 0.684523 0.0769252
vt 0.6638911 0.1113845
vt 0.6656088 0.1488902
vt 0.6554352 0.1483113
vt 0.6529582 0.1865003
vt 0.6493329 0.1795154
vt 0.6400609 0.2096566
vt 0.6492665 0.1795628
vt 0.6529582 0.1865003
vt 0.6656088 0.1488902
vt 0.6553878 0.1483682
vt 0.6638626 0.1114035
vt 0.6776425 0.1105494
vt 0.6759722 0.06341101
vt 0.684523 0.0769252
vt 0.6604556 0.109439
vt 0.6726032 0.06257586
vt 0.6626953 0.1105304
vt 0.6509273 0.1460336
vt 0.6524647 0.1469542
vt 0.6424335 0.1778166
vt 0.6437526 0.1785284
vt 0.6352968 0.2084988
vn 1 0.0001729727 0
vn 1 0.0001729727 0
vn 1 0.0001729727 0
vn -0.0001729727 0.7029973 -0.7111924
vn 0.03072035 -0.08671463 -0.9957594
vn -0.0001729727 -0.106023 -0.9943637
vn -0.1855333 0.6470031 -0.7395704
vn 0.003688693 -0.07319874 -0.9973106
vn -0.2955909 0.5948704 -0.7474993
vn -0.04458225 -0.1002305 -0.9939649
vn -0.2067724 0.506052 -0.8373509
vn -0.9752451 0.2202883 -0.01923653
vn -0.2144958 0.5890779 0.7790884
vn -0.02141225 -0.1272622 0.9916379
vn -0.004034638 -0.1234005 0.9923487
vn -0.3457927 0.6392797 0.6868398
vn -0.2357349 0.6605189 0.7128421
vn -0.01561964 -0.1214697 0.9924722
vn -0.0001729727 0.7165132 0.6975735
vn -0.0001729727 -0.1195388 0.9928295
vn -0.1855333 0.6470031 -0.7395704
vn -0.0001729727 0.7029973 -0.7111924
vn -0.2357349 0.6605189 0.7128421
vn -0.2955909 0.5948704 -0.7474993
vn -0.3457927 0.6392797 0.6868398
vn -0.2067724 0.506052 -0.8373509
vn -0.2144958 0.5890779 0.7790884
vn -0.9752451 0.2202883 -0.01923653
g koral_right_fin_0
f 3/3/3 2/2/2 1/1/1
f 6/6/6 5/5/5 4/4/4
f 5/5/5 7/7/7 4/4/4
f 5/5/5 8/8/8 7/7/7
f 8/8/8 9/9/9 7/7/7
f 8/8/8 10/10/10 9/9/9
f 10/10/10 11/11/11 9/9/9
f 10/10/10 12/12/12 11/11/11
f 12/12/12 14/14/14 13/13/13
f 13/13/13 14/14/14 15/15/15
f 16/16/16 13/13/13 15/15/15
f 16/16/16 15/15/15 17/17/17
f 15/15/15 18/18/18 17/17/17
f 17/17/17 18/18/18 19/19/19
f 18/18/18 20/20/20 19/19/19
f 22/22/22 21/21/21 19/19/19
f 21/21/21 23/23/23 19/19/19
f 21/21/21 24/24/24 23/23/23
f 24/24/24 25/25/25 23/23/23
f 24/24/24 26/26/26 25/25/25
f 26/26/26 27/27/27 25/25/25
f 26/26/26 28/28/28 27/27/27
