g koral_boat
v 2.444983 0.7588797 -7.5
v -3.360265 0.9023829 -3.749994
v -2.478972 0.8587999 -7.5
v 3.067384 0.7600822 -3.749994
v -3.850826 0.98563 1.144409E-05
v 3.663007 0.7164993 1.144409E-05
v -3.360265 0.9023829 3.749994
v 3.067384 0.7600822 3.749994
v -2.478972 0.8587999 7.5
v 2.444983 0.7588797 7.5
v -2.478972 0.8587999 -7.5
v -1.86808 -0.2884407 -3.749994
v -1.47105 -0.3011055 -7.5
v -3.360265 0.9023829 -3.749994
v -2.044503 -0.2989464 1.144409E-05
v -3.850826 0.98563 1.144409E-05
v -1.86808 -0.2884407 3.749994
v -3.360265 0.9023829 3.749994
v -1.47105 -0.3011055 7.5
v -2.478972 0.8587999 7.5
v -1.47105 -0.3011055 -7.5
v 0.183156 -1.013009 -3.749994
v 0.02100086 -0.9997873 -7.5
v -1.86808 -0.2884407 -3.749994
v 0.3896961 -1.10171 1.144409E-05
v -2.044503 -0.2989464 1.144409E-05
v 0.183156 -1.013009 3.749994
v -1.86808 -0.2884407 3.749994
v 0.02100086 -0.9997873 7.5
v -1.47105 -0.3011055 7.5
v 0.02100086 -0.9997873 -7.5
v 2.071771 -0.3442659 -3.749994
v 1.550759 -0.3315334 -7.5
v 0.183156 -1.013009 -3.749994
v 2.559416 -0.4307632 1.144409E-05
v 0.3896961 -1.10171 1.144409E-05
v 2.071771 -0.3442659 3.749994
v 0.183156 -1.013009 3.749994
v 1.550759 -0.3315334 7.5
v 0.02100086 -0.9997873 7.5
v 1.550759 -0.3315334 -7.5
v 3.067384 0.7600822 -3.749994
v 2.444983 0.7588797 -7.5
v 2.071771 -0.3442659 -3.749994
v 3.663007 0.7164993 1.144409E-05
v 2.559416 -0.4307632 1.144409E-05
v 3.067384 0.7600822 3.749994
v 2.071771 -0.3442659 3.749994
v 2.444983 0.7588797 7.5
v 1.550759 -0.3315334 7.5
v -2.478972 0.8587999 -7.5
v 0.2289429 0.9382639 -11.67001
v 2.444983 0.7588797 -7.5
v -1.47105 -0.3011055 -7.5
v 1.550759 -0.3315334 -7.5
v 0.02100086 -0.9997873 -7.5
v 2.444983 0.7588797 7.5
v 0.2289429 0.9382639 11.67001
v -2.478972 0.8587999 7.5
v 1.550759 -0.3315334 7.5
v -1.47105 -0.3011055 7.5
v 0.02100086 -0.9997873 7.5
vt 0.8746679 0.09869438
vt 0.8508721 0.1070807
vt 0.8746679 0.1070807
vt 0.8508721 0.09869438
vt 0.8270763 0.1070807
vt 0.8270763 0.09869438
vt 0.8032805 0.1070807
vt 0.8032805 0.09869438
vt 0.779497 0.1070807
vt 0.779497 0.09869438
vt 0.8746679 0.1070807
vt 0.8508721 0.1154671
vt 0.8746679 0.1154671
vt 0.8508721 0.1070807
vt 0.8270763 0.1154671
vt 0.8270763 0.1070807
vt 0.8032805 0.1154671
vt 0.8032805 0.1070807
vt 0.779497 0.1154671
vt 0.779497 0.1070807
vt 0.8746679 0.1154671
vt 0.8508721 0.1238656
vt 0.8746679 0.1238656
vt 0.8508721 0.1154671
vt 0.8270763 0.1238656
vt 0.8270763 0.1154671
vt 0.8032805 0.1238656
vt 0.8032805 0.1154671
vt 0.779497 0.1238656
vt 0.779497 0.1154671
vt 0.8746679 0.1238656
vt 0.8508721 0.1322519
vt 0.8746679 0.1322519
vt 0.8508721 0.1238656
vt 0.8270763 0.1322519
vt 0.8270763 0.1238656
vt 0.8032805 0.1322519
vt 0.8032805 0.1238656
vt 0.779497 0.1322519
vt 0.779497 0.1238656
vt 0.8746679 0.1322519
vt 0.8508721 0.1406382
vt 0.8746679 0.1406382
vt 0.8508721 0.1322519
vt 0.8270763 0.1406382
vt 0.8270763 0.1322519
vt 0.8032805 0.1406382
vt 0.8032805 0.1322519
vt 0.779497 0.1406382
vt 0.779497 0.1322519
vt 0.7937623 0.09171997
vt 0.8265529 0.1139212
vt 0.8390777 0.07699215
vt 0.7937623 0.1393602
vt 0.8670849 0.1155401
vt 0.8390777 0.154088
vt 0.8376049 0.1485864
vt 0.8273076 0.1155766
vt 0.8003715 0.1364877
vt 0.8606217 0.1169155
vt 0.8003715 0.09733115
vt 0.8376049 0.08523243
vn 0.02160555 0.9997589 -0.003913872
vn 0.02541453 0.999677 0
vn 0.02160555 0.9997589 -0.003913872
vn 0.02541453 0.999677 0
vn 0.02922224 0.9995729 0
vn 0.02922224 0.9995729 0
vn 0.02541453 0.999677 0
vn 0.02541453 0.999677 0
vn 0.02160555 0.9997589 0.003913872
vn 0.02160555 0.9997589 0.003913872
vn -0.6815352 -0.7247463 -0.1012548
vn -0.6396136 -0.7647625 -0.07767087
vn -0.6815352 -0.7247463 -0.1012548
vn -0.633897 -0.7704791 -0.06735406
vn -0.5995974 -0.799062 -0.0445294
vn -0.5995974 -0.799062 -0.0445294
vn -0.6396136 -0.7647625 0.07767087
vn -0.633897 -0.7704791 0.06735406
vn -0.6815352 -0.7247463 0.1012548
vn -0.6815352 -0.7247463 0.1012548
vn -0.3725827 -0.927999 0
vn -0.3442563 -0.9381658 -0.03650372
vn -0.3725827 -0.927999 0
vn -0.3442563 -0.9381658 -0.03650372
vn -0.32139 -0.9457879 -0.04683748
vn -0.32139 -0.9457879 -0.04683748
vn -0.3442563 -0.9381658 0.03650372
vn -0.3442563 -0.9381658 0.03650372
vn -0.3725827 -0.927999 0
vn -0.3725827 -0.927999 0
vn 0.3646011 -0.9305437 -0.03397855
vn 0.3341126 -0.9419768 -0.03237879
vn 0.3646011 -0.9305437 -0.03397855
vn 0.3379236 -0.9400713 -0.04553599
vn 0.3131517 -0.949599 -0.01406301
vn 0.3131517 -0.949599 -0.01406301
vn 0.3341126 -0.9419768 0.03237879
vn 0.3379236 -0.9400713 0.04553599
vn 0.3646011 -0.9305437 0.03397855
vn 0.3646011 -0.9305437 0.03397855
vn 0.7533293 -0.6485251 -0.1091337
vn 0.7380851 -0.6637694 -0.1209986
vn 0.7533293 -0.6485251 -0.1091337
vn 0.7399906 -0.6618638 -0.1197925
vn 0.730463 -0.6828247 -0.01320392
vn 0.730463 -0.6828247 -0.01320392
vn 0.7380851 -0.6637694 0.1209986
vn 0.7399906 -0.6618638 0.1197925
vn 0.7533293 -0.6485251 0.1091337
vn 0.7533293 -0.6485251 0.1091337
vn -0.3309177 0.9235377 -0.1938341
vn 0.01779449 0.9768925 -0.2129892
vn 0.3398291 0.9292542 -0.1449231
vn -0.5500537 -0.7114077 -0.4374245
vn 0.5456265 -0.7380851 -0.3968906
vn -0.02031612 -0.9057717 -0.4232787
vn 0.3398291 0.9292542 0.1449231
vn 0.01779449 0.9768925 0.2129892
vn -0.3309177 0.9235377 0.1938341
vn 0.5456265 -0.7380851 0.3968906
vn -0.5500537 -0.7114077 0.4374245
vn -0.02031612 -0.9057717 0.4232787
g koral_boat_0
f 3/3/3 2/2/2 1/1/1
f 2/2/2 4/4/4 1/1/1
f 2/2/2 5/5/5 4/4/4
f 5/5/5 6/6/6 4/4/4
f 5/5/5 7/7/7 6/6/6
f 7/7/7 8/8/8 6/6/6
f 7/7/7 9/9/9 8/8/8
f 9/9/9 10/10/10 8/8/8
f 13/13/13 12/12/12 11/11/11
f 12/12/12 14/14/14 11/11/11
f 12/12/12 15/15/15 14/14/14
f 15/15/15 16/16/16 14/14/14
f 15/15/15 17/17/17 16/16/16
f 17/17/17 18/18/18 16/16/16
f 17/17/17 19/19/19 18/18/18
f 19/19/19 20/20/20 18/18/18
f 23/23/23 22/22/22 21/21/21
f 22/22/22 24/24/24 21/21/21
f 22/22/22 25/25/25 24/24/24
f 25/25/25 26/26/26 24/24/24
f 25/25/25 27/27/27 26/26/26
f 27/27/27 28/28/28 26/26/26
f 27/27/27 29/29/29 28/28/28
f 29/29/29 30/30/30 28/28/28
f 33/33/33 32/32/32 31/31/31
f 32/32/32 34/34/34 31/31/31
f 32/32/32 35/35/35 34/34/34
f 35/35/35 36/36/36 34/34/34
f 35/35/35 37/37/37 36/36/36
f 37/37/37 38/38/38 36/36/36
f 37/37/37 39/39/39 38/38/38
f 39/39/39 40/40/40 38/38/38
f 43/43/43 42/42/42 41/41/41
f 42/42/42 44/44/44 41/41/41
f 42/42/42 45/45/45 44/44/44
f 45/45/45 46/46/46 44/44/44
f 45/45/45 47/47/47 46/46/46
f 47/47/47 48/48/48 46/46/46
f 47/47/47 49/49/49 48/48/48
f 49/49/49 50/50/50 48/48/48
f 53/53/53 52/52/52 51/51/51
f 51/51/51 52/52/52 54/54/54
f 55/55/55 52/52/52 53/53/53
f 54/54/54 52/52/52 56/56/56
f 56/56/56 52/52/52 55/55/55
f 59/59/59 58/58/58 57/57/57
f 57/57/57 58/58/58 60/60/60
f 61/61/61 58/58/58 59/59/59
f 60/60/60 58/58/58 62/62/62
f 62/62/62 58/58/58 61/61/61
