g koral_left_fin
v -2.384186E-07 0.4320054 0.04273057
v -2.384186E-07 0.4349585 0.2591393
v -2.384186E-07 -0.3663982 0.1620877
v -2.384186E-07 0.4320054 0.04273057
v -2.384186E-07 -0.3663982 0.1620877
v 0.4675201 -0.6067019 0.1313515
v 0.7095685 0.2746131 0.06030369
v 1.07406 -0.604583 0.1147823
v 1.23941 0.07063937 0.07625508
v 1.683966 -0.54629 0.1321709
v 1.670156 -0.1708012 0.08264589
v 2.145445 -0.1713229 0.1340952
v 1.679989 -0.160345 0.1859975
v 1.683966 -0.54629 0.1321709
v 1.07406 -0.604583 0.1147823
v 1.251063 0.08063531 0.1983116
v 0.7198156 0.2812872 0.2347546
v 0.4675201 -0.6067019 0.1313515
v -2.384186E-07 0.4349585 0.2591393
v -2.384186E-07 -0.3663982 0.1620877
v -2.384186E-07 0.4320054 0.04273057
v 0.7095685 0.2746131 0.06030369
v 0.7198156 0.2812872 0.2347546
v 1.23941 0.07063937 0.07625508
v 1.251063 0.08063531 0.1983116
v 1.670156 -0.1708012 0.08264589
v 1.679989 -0.160345 0.1859975
v 2.145445 -0.1713229 0.1340952
vt 0.6764562 0.06353438
vt 0.6759722 0.06341101
vt 0.684523 0.0769252
vt 0.6764562 0.06353438
vt 0.684523 0.0769252
vt 0.6776425 0.1105494
vt 0.6638911 0.1113845
vt 0.6656088 0.1488902
vt 0.6554352 0.1483113
vt 0.6529582 0.1865003
vt 0.6493329 0.1795154
vt 0.6400609 0.2096566
vt 0.6492665 0.1795628
vt 0.6529582 0.1865003
vt 0.6656088 0.1488902
vt 0.6553878 0.1483682
vt 0.6638626 0.1114035
vt 0.6776425 0.1105494
vt 0.6759722 0.06341101
vt 0.684523 0.0769252
vt 0.6726032 0.06257586
vt 0.6604556 0.109439
vt 0.6626953 0.1105304
vt 0.6509273 0.1460336
vt 0.6524647 0.1469542
vt 0.6424335 0.1778166
vt 0.6437526 0.1785284
vt 0.6352968 0.2084988
vn -0.9999999 -9.137392E-05 -0.0003329566
vn -0.9999999 -9.137392E-05 -0.0003329566
vn -0.9999999 -9.137392E-05 -0.0003329566
vn 9.137392E-05 0.7026755 -0.7115104
vn 9.137392E-05 -0.1062787 -0.9943364
vn -0.03079945 -0.08697188 -0.9957345
vn 0.1854365 0.6466858 -0.7398722
vn -0.003769994 -0.07345718 -0.9972913
vn 0.2954851 0.5945575 -0.74779
vn 0.04449695 -0.1004866 -0.9939429
vn 0.206674 0.507677 -0.836391
vn 0.9750623 0.2219317 0
vn 0.2143967 0.5887654 0.7793519
vn 0.02132887 -0.1275162 0.9916071
vn 0.003952742 -0.1236548 0.9923174
vn 0.3456828 0.6408938 0.6853894
vn 0.2356341 0.6621312 0.711378
vn 0.01553679 -0.1217241 0.9924424
vn 9.137392E-05 0.7161903 0.6979051
vn 9.137392E-05 -0.1178628 0.9930299
vn 9.137392E-05 0.7026755 -0.7115104
vn 0.1854365 0.6466858 -0.7398722
vn 0.2356341 0.6621312 0.711378
vn 0.2954851 0.5945575 -0.74779
vn 0.3456828 0.6408938 0.6853894
vn 0.206674 0.507677 -0.836391
vn 0.2143967 0.5887654 0.7793519
vn 0.9750623 0.2219317 0
g koral_left_fin_0
f 3/3/3 2/2/2 1/1/1
f 6/6/6 5/5/5 4/4/4
f 7/7/7 6/6/6 4/4/4
f 8/8/8 6/6/6 7/7/7
f 9/9/9 8/8/8 7/7/7
f 10/10/10 8/8/8 9/9/9
f 11/11/11 10/10/10 9/9/9
f 12/12/12 10/10/10 11/11/11
f 14/14/14 12/12/12 13/13/13
f 14/14/14 13/13/13 15/15/15
f 13/13/13 16/16/16 15/15/15
f 15/15/15 16/16/16 17/17/17
f 18/18/18 15/15/15 17/17/17
f 18/18/18 17/17/17 19/19/19
f 20/20/20 18/18/18 19/19/19
f 22/22/22 21/21/21 19/19/19
f 23/23/23 22/22/22 19/19/19
f 24/24/24 22/22/22 23/23/23
f 25/25/25 24/24/24 23/23/23
f 26/26/26 24/24/24 25/25/25
f 27/27/27 26/26/26 25/25/25
f 28/28/28 26/26/26 27/27/27
