g laptop_bottom
v -1.192956 -0.1091204 1.827869
v -1.192956 0.1091211 1.827869
v 1.192955 0.1091211 1.827869
v 1.192955 -0.1091204 1.827869
v -1.192956 0.1091211 1.827869
v -1.192956 0.1091211 -0.0306623
v 1.192955 0.1091211 -0.0306623
v 1.192955 0.1091211 1.827869
v -1.192956 0.1091211 -0.0306623
v -1.192956 -0.1091204 -0.0306623
v 1.192955 -0.1091204 -0.0306623
v 1.192955 0.1091211 -0.0306623
v -1.192956 -0.1091204 -0.0306623
v -1.192956 -0.1091204 1.827869
v 1.192955 -0.1091204 1.827869
v 1.192955 -0.1091204 -0.0306623
v 1.192955 -0.1091204 1.827869
v 1.192955 0.1091211 1.827869
v 1.192955 0.1091211 -0.0306623
v 1.192955 -0.1091204 -0.0306623
v -1.192956 -0.1091204 -0.0306623
v -1.192956 0.1091211 -0.0306623
v -1.192956 0.1091211 1.827869
v -1.192956 -0.1091204 1.827869
vt 0.3020434 0.4767844
vt 0.3020434 0.4860694
vt 0.340255 0.4860694
vt 0.340255 0.4767844
vt 0.467083 0.1198539
vt 0.467083 0.06289497
vt 0.3596851 0.06289497
vt 0.3596851 0.1198539
vt 0.3085565 0.5103126
vt 0.3085497 0.4898311
vt 0.3789581 0.4898311
vt 0.3789581 0.5103126
vt 0.3051907 0.4749275
vt 0.3360563 0.4749275
vt 0.3360563 0.4552653
vt 0.3051907 0.4552653
vt 0.3077919 0.4899472
vt 0.3077919 0.5088379
vt 0.4231981 0.5088379
vt 0.4231981 0.4899472
vt 0.4223379 0.4892235
vt 0.4223379 0.5093431
vt 0.3082902 0.5093431
vt 0.3082902 0.4892235
vn -0.0009775162 0.0009775162 0.999999
vn -0.0009775162 0.0009775162 0.999999
vn -0.0009775162 0.0009775162 0.999999
vn -0.0009775162 0.0009775162 0.999999
vn -0.0009775162 0.9999995 0
vn -0.0009775162 0.9999995 0
vn -0.0009775162 0.9999995 0
vn -0.0009775162 0.9999995 0
vn -0.0009775162 0.0009775162 -0.999999
vn -0.0009775162 0.0009775162 -0.999999
vn -0.0009775162 0.0009775162 -0.999999
vn -0.0009775162 0.0009775162 -0.999999
vn -0.0009775162 -0.9999995 0
vn -0.0009775162 -0.9999995 0
vn -0.0009775162 -0.9999995 0
vn -0.0009775162 -0.9999995 0
vn 0.9999995 0.0009775162 0
vn 0.9999995 0.0009775162 0
vn 0.9999995 0.0009775162 0
vn 0.9999995 0.0009775162 0
vn -0.9999995 0.0009775162 0
vn -0.9999995 0.0009775162 0
vn -0.9999995 0.0009775162 0
vn -0.9999995 0.0009775162 0
g laptop_bottom_0
f 3/3/3 2/2/2 1/1/1
f 4/4/4 3/3/3 1/1/1
f 7/7/7 6/6/6 5/5/5
f 8/8/8 7/7/7 5/5/5
f 11/11/11 10/10/10 9/9/9
f 12/12/12 11/11/11 9/9/9
f 15/15/15 14/14/14 13/13/13
f 16/16/16 15/15/15 13/13/13
f 19/19/19 18/18/18 17/17/17
f 20/20/20 19/19/19 17/17/17
f 23/23/23 22/22/22 21/21/21
f 24/24/24 23/23/23 21/21/21
