g laser_geo
v -2.23141 -0.1000025 0.09999967
v -2.23141 0.09999967 0.09999967
v 2.231406 0.09999967 0.09999967
v 2.231406 -0.1000025 0.09999967
v -2.23141 0.09999967 0.09999967
v -3.204659 0.0259726 -0.1000025
v 3.222671 0.01830459 -0.1000025
v 2.231406 0.09999967 0.09999967
v -3.204659 0.0259726 -0.1000025
v -3.204659 -0.02597547 -0.1000025
v 3.222671 -0.01830745 -0.1000025
v 3.222671 0.01830459 -0.1000025
v -3.204659 -0.02597547 -0.1000025
v -2.23141 -0.1000025 0.09999967
v 2.231406 -0.1000025 0.09999967
v 3.222671 -0.01830745 -0.1000025
v 2.231406 -0.1000025 0.09999967
v 2.231406 0.09999967 0.09999967
v 3.222671 0.01830459 -0.1000025
v 3.222671 -0.01830745 -0.1000025
v -3.204659 -0.02597547 -0.1000025
v -3.204659 0.0259726 -0.1000025
v -2.23141 0.09999967 0.09999967
v -2.23141 -0.1000025 0.09999967
vt 0.2144792 0.5319264
vt 0.2107404 0.5319264
vt 0.2107404 0.5988681
vt 0.2144792 0.5988681
vt 0.2107404 0.5319264
vt 0.212124 0.5173279
vt 0.2122655 0.6137372
vt 0.2107404 0.5988681
vt 0.212124 0.5173279
vt 0.2130956 0.5173279
vt 0.2129481 0.6137372
vt 0.2122655 0.6137372
vt 0.2130956 0.5173279
vt 0.2144792 0.5319264
vt 0.2144792 0.5988681
vt 0.2129481 0.6137372
vt 0.2144792 0.5988681
vt 0.2107404 0.5988681
vt 0.2122655 0.6137372
vt 0.2129481 0.6137372
vt 0.2130956 0.5173279
vt 0.212124 0.5173279
vt 0.2107404 0.5319264
vt 0.2144792 0.5319264
vn -0.0009109974 0.0009109974 0.9999992
vn -0.0009109974 0.0009109974 0.9999992
vn -0.0009109974 0.0009109974 0.9999992
vn -0.0009109974 0.0009109974 0.9999992
vn 0.0009108782 0.9318854 -0.3627516
vn 0.0009108782 0.9318854 -0.3627516
vn 0.0009108782 0.9318854 -0.3627516
vn 0.0009108782 0.9318854 -0.3627516
vn -0.0009109974 0.0009109974 -0.9999992
vn -0.0009109974 0.0009109974 -0.9999992
vn -0.0009109974 0.0009109974 -0.9999992
vn -0.0009109974 0.0009109974 -0.9999992
vn 0.0009108782 -0.9318853 -0.3627519
vn 0.0009108782 -0.9318853 -0.3627519
vn 0.0009108782 -0.9318853 -0.3627519
vn 0.0009108782 -0.9318853 -0.3627519
vn 0.1976726 0.0009109974 0.9802676
vn 0.1976726 0.0009109974 0.9802676
vn 0.1976726 0.0009109974 0.9802676
vn 0.1976726 0.0009109974 0.9802676
vn -0.2013164 0.0009109974 0.9795259
vn -0.2013164 0.0009109974 0.9795259
vn -0.2013164 0.0009109974 0.9795259
vn -0.2013164 0.0009109974 0.9795259
g laser_geo_0
f 3/3/3 2/2/2 1/1/1
f 4/4/4 3/3/3 1/1/1
f 7/7/7 6/6/6 5/5/5
f 8/8/8 7/7/7 5/5/5
f 11/11/11 10/10/10 9/9/9
f 12/12/12 11/11/11 9/9/9
f 15/15/15 14/14/14 13/13/13
f 16/16/16 15/15/15 13/13/13
f 19/19/19 18/18/18 17/17/17
f 20/20/20 19/19/19 17/17/17
f 23/23/23 22/22/22 21/21/21
f 24/24/24 23/23/23 21/21/21
