g lasVegas_outfit2_glass
v -0.526515 8.460471 1.862305
v -0.143866 8.440669 1.900458
v -0.076804 8.324533 1.900173
v -0.082607 8.159011 1.886225
v -0.2263 7.887317 1.855765
v -0.354685 7.802944 1.841296
v -0.591402 7.755873 1.81462
v -0.876005 7.85584 1.7867
v -0.986585 8.081805 1.78419
v -0.987921 8.336463 1.802338
v -0.924517 8.445423 1.815655
v -0.526515 8.460471 1.841582
v -0.076804 8.324533 1.87945
v -0.143866 8.440669 1.879735
v -0.082607 8.159011 1.865502
v -0.2263 7.887317 1.835042
v -0.354685 7.802944 1.820573
v -0.591402 7.755873 1.793896
v -0.876005 7.85584 1.765977
v -0.986585 8.081805 1.763467
v -0.987921 8.336463 1.781615
v -0.924517 8.445423 1.794932
v 0.526515 8.460471 1.862305
v 0.076804 8.324533 1.900173
v 0.143866 8.440669 1.900458
v 0.082607 8.159011 1.886225
v 0.2263 7.887317 1.855765
v 0.354685 7.802944 1.841296
v 0.591402 7.755873 1.81462
v 0.876005 7.85584 1.7867
v 0.986585 8.081805 1.78419
v 0.987921 8.336463 1.802338
v 0.924517 8.445423 1.815655
v 0.526515 8.460471 1.841582
v 0.143866 8.440669 1.879735
v 0.076804 8.324533 1.87945
v 0.082607 8.159011 1.865502
v 0.2263 7.887317 1.835042
v 0.354685 7.802944 1.820573
v 0.591402 7.755873 1.793896
v 0.876005 7.85584 1.765977
v 0.986585 8.081805 1.763467
v 0.987921 8.336463 1.781615
v 0.924517 8.445423 1.794932
vt 0.71004 0.325737
vt 0.701841 0.327387
vt 0.700403 0.311763
vt 0.700587 0.289732
vt 0.703746 0.254409
vt 0.706484 0.243687
vt 0.711473 0.237899
vt 0.716684 0.250762
vt 0.7191 0.279703
vt 0.719452 0.312964
vt 0.71835 0.327485
vt 0.71004 0.325737
vt 0.700403 0.311763
vt 0.701841 0.327387
vt 0.700587 0.289732
vt 0.703746 0.254409
vt 0.706484 0.243687
vt 0.711473 0.237899
vt 0.716684 0.250762
vt 0.7191 0.279703
vt 0.719452 0.312964
vt 0.71835 0.327485
vt 0.71004 0.325737
vt 0.700403 0.311763
vt 0.701841 0.327387
vt 0.700587 0.289732
vt 0.703746 0.254409
vt 0.706484 0.243687
vt 0.711473 0.237899
vt 0.716684 0.250762
vt 0.7191 0.279703
vt 0.719452 0.312964
vt 0.71835 0.327485
vt 0.71004 0.325737
vt 0.701841 0.327387
vt 0.700403 0.311763
vt 0.700587 0.289732
vt 0.703746 0.254409
vt 0.706484 0.243687
vt 0.711473 0.237899
vt 0.716684 0.250762
vt 0.7191 0.279703
vt 0.719452 0.312964
vt 0.71835 0.327485
vn -0.102174 -0.06143399 0.9928677
vn -0.102174 -0.06143399 0.9928677
vn -0.102174 -0.06143399 0.9928677
vn -0.09778097 -0.06518798 0.9930707
vn -0.09505001 -0.06112401 0.9935941
vn -0.09296898 -0.05605799 0.9940897
vn -0.109888 -0.05703801 0.9923061
vn -0.117055 -0.05632499 0.9915269
vn -0.12165 -0.05662398 0.9909566
vn -0.1097069 -0.07122796 0.9914085
vn -0.114196 -0.05478099 0.9919468
vn 0.102174 0.06143399 -0.9928677
vn 0.102174 0.06143399 -0.9928677
vn 0.102174 0.06143399 -0.9928677
vn 0.09778195 0.06518796 -0.9930705
vn 0.09505001 0.06112401 -0.9935941
vn 0.09296898 0.05605799 -0.9940897
vn 0.109888 0.05703801 -0.9923061
vn 0.117054 0.056325 -0.991527
vn 0.12165 0.05662398 -0.9909566
vn 0.1097069 0.07122796 -0.9914085
vn 0.114196 0.05478099 -0.9919468
vn 0.102174 -0.06143399 0.9928677
vn 0.102174 -0.06143399 0.9928677
vn 0.102174 -0.06143399 0.9928677
vn 0.09778097 -0.06518798 0.9930707
vn 0.09505001 -0.06112401 0.9935941
vn 0.09296898 -0.05605799 0.9940897
vn 0.109888 -0.05703801 0.9923061
vn 0.117054 -0.056325 0.991527
vn 0.12165 -0.05662398 0.9909566
vn 0.109706 -0.07122797 0.9914086
vn 0.114196 -0.05478099 0.9919468
vn -0.102174 0.06143399 -0.9928677
vn -0.102174 0.06143399 -0.9928677
vn -0.102174 0.06143399 -0.9928677
vn -0.09778097 0.06518798 -0.9930707
vn -0.09504902 0.06112402 -0.9935942
vn -0.09296898 0.05605799 -0.9940897
vn -0.109888 0.05703801 -0.9923061
vn -0.117055 0.05632499 -0.9915269
vn -0.12165 0.05662398 -0.9909566
vn -0.1097069 0.07122796 -0.9914085
vn -0.114195 0.05478099 -0.9919469
g lasVegas_outfit2_glass_0
f 3/3/3 2/2/2 1/1/1
f 4/4/4 3/3/3 1/1/1
f 5/5/5 4/4/4 1/1/1
f 6/6/6 5/5/5 1/1/1
f 7/7/7 6/6/6 1/1/1
f 8/8/8 7/7/7 1/1/1
f 9/9/9 8/8/8 1/1/1
f 10/10/10 9/9/9 1/1/1
f 11/11/11 10/10/10 1/1/1
f 14/14/14 13/13/13 12/12/12
f 13/13/13 15/15/15 12/12/12
f 15/15/15 16/16/16 12/12/12
f 16/16/16 17/17/17 12/12/12
f 17/17/17 18/18/18 12/12/12
f 18/18/18 19/19/19 12/12/12
f 19/19/19 20/20/20 12/12/12
f 20/20/20 21/21/21 12/12/12
f 21/21/21 22/22/22 12/12/12
f 25/25/25 24/24/24 23/23/23
f 24/24/24 26/26/26 23/23/23
f 26/26/26 27/27/27 23/23/23
f 27/27/27 28/28/28 23/23/23
f 28/28/28 29/29/29 23/23/23
f 29/29/29 30/30/30 23/23/23
f 30/30/30 31/31/31 23/23/23
f 31/31/31 32/32/32 23/23/23
f 32/32/32 33/33/33 23/23/23
f 36/36/36 35/35/35 34/34/34
f 37/37/37 36/36/36 34/34/34
f 38/38/38 37/37/37 34/34/34
f 39/39/39 38/38/38 34/34/34
f 40/40/40 39/39/39 34/34/34
f 41/41/41 40/40/40 34/34/34
f 42/42/42 41/41/41 34/34/34
f 43/43/43 42/42/42 34/34/34
f 44/44/44 43/43/43 34/34/34
