g leaf
v -3.33786E-06 0.006802082 3.306638
v -2.105523 0.006802082 -0.4684176
v -3.33786E-06 0.006802082 -3.306638
v -3.33786E-06 0.006802082 3.306638
v -3.33786E-06 0.006802082 -3.306638
v 2.105523 0.006802082 -0.4684176
v -3.33786E-06 -0.006801844 3.306638
v 2.105523 -0.006801844 -0.4684176
v -3.33786E-06 -0.006801844 -3.306638
v -3.33786E-06 -0.006801844 3.306638
v -3.33786E-06 -0.006801844 -3.306638
v -2.105523 -0.006801844 -0.4684176
vt 0.2952885 0.5018098
vt 0.227205 0.4251457
vt 0.1678586 0.5018098
vt 0.2952885 0.5138814
vt 0.1678586 0.5138814
vt 0.2285687 0.595485
vt 0.2952885 0.5018098
vt 0.227205 0.4251457
vt 0.1678586 0.5018098
vt 0.2952885 0.5138814
vt 0.1678586 0.5138814
vt 0.2285687 0.595485
vn -0.0009775162 0.9999995 0
vn -0.0009775162 0.9999995 0
vn -0.0009775162 0.9999995 0
vn -0.0009775162 0.9999995 0
vn -0.0009775162 0.9999995 0
vn -0.0009775162 0.9999995 0
vn -0.0009775162 -0.9999995 0
vn -0.0009775162 -0.9999995 0
vn -0.0009775162 -0.9999995 0
vn -0.0009775162 -0.9999995 0
vn -0.0009775162 -0.9999995 0
vn -0.0009775162 -0.9999995 0
g leaf_0
f 3/3/3 2/2/2 1/1/1
f 6/6/6 5/5/5 4/4/4
f 9/9/9 8/8/8 7/7/7
f 12/12/12 11/11/11 10/10/10
