g Macau_ChipStack09
v 0.2022543 -0.01500012 -0.1469463
v 0.2022543 0.0150001 -0.1469463
v 0.07725413 0.0150001 -0.2377643
v 0.07725413 -0.01500012 -0.2377643
v -0.07725412 0.0150001 -0.2377643
v -0.07725412 -0.01500012 -0.2377643
v -0.2022542 0.0150001 -0.1469463
v -0.2022542 -0.01500012 -0.1469463
v -0.25 0.0150001 2.384186E-07
v -0.25 -0.01500012 2.384186E-07
v -0.2022542 0.0150001 0.1469463
v -0.2022542 -0.01500012 0.1469463
v -0.07725412 0.0150001 0.2377644
v -0.07725412 -0.01500012 0.2377644
v 0.07725413 0.0150001 0.2377644
v 0.07725413 -0.01500012 0.2377644
v 0.2022543 0.0150001 0.1469463
v 0.2022543 -0.01500012 0.1469463
v 0.25 0.0150001 2.384186E-07
v 0.25 -0.01500012 2.384186E-07
v 0.2022543 0.0150001 -0.1469463
v 0.2022543 -0.01500012 -0.1469463
v 0.07725413 -0.01500012 -0.2377643
v -2.384186E-07 -0.01500012 2.384186E-07
v 0.2022543 -0.01500012 -0.1469463
v -0.07725412 -0.01500012 -0.2377643
v 0.25 -0.01500012 2.384186E-07
v -0.2022542 -0.01500012 -0.1469463
v 0.2022543 -0.01500012 0.1469463
v -0.25 -0.01500012 2.384186E-07
v 0.07725413 -0.01500012 0.2377644
v -0.2022542 -0.01500012 0.1469463
v -0.07725412 -0.01500012 0.2377644
v 0.2022543 0.0150001 -0.1469463
v -2.384186E-07 0.0150001 2.384186E-07
v 0.07725413 0.0150001 -0.2377643
v 0.25 0.0150001 2.384186E-07
v -0.07725412 0.0150001 -0.2377643
v 0.2022543 0.0150001 0.1469463
v -0.2022542 0.0150001 -0.1469463
v 0.07725413 0.0150001 0.2377644
v -0.25 0.0150001 2.384186E-07
v -0.07725412 0.0150001 0.2377644
v -0.2022542 0.0150001 0.1469463
vt 0.1728478 0.1718676
vt 0.1728478 0.2499169
vt 0.1813021 0.2499169
vt 0.1813021 0.1718676
vt 0.1897564 0.2499169
vt 0.1897564 0.1718676
vt 0.1982108 0.2499169
vt 0.1982108 0.1718676
vt 0.2066651 0.2499169
vt 0.2066651 0.1718676
vt 0.2151194 0.2499169
vt 0.2151194 0.1718676
vt 0.223584 0.2499169
vt 0.223584 0.1718676
vt 0.2320383 0.2499169
vt 0.2320383 0.1718676
vt 0.2404926 0.2499169
vt 0.2404926 0.1718676
vt 0.2489469 0.2499169
vt 0.2489469 0.1718676
vt 0.2574013 0.2499169
vt 0.2574013 0.1718676
vt 0.3009492 0.7521633
vt 0.2865217 0.7947004
vt 0.3243008 0.769123
vt 0.2720942 0.7521633
vt 0.3332146 0.7965689
vt 0.248753 0.769123
vt 0.3243008 0.8240047
vt 0.2398289 0.7965689
vt 0.3009492 0.8409746
vt 0.248753 0.8240047
vt 0.2720942 0.8409746
vt 0.3243008 0.8240557
vt 0.2865217 0.7947413
vt 0.3009492 0.8410155
vt 0.3332146 0.7966098
vt 0.2720942 0.8410155
vt 0.3243008 0.7691638
vt 0.248753 0.8240557
vt 0.3009492 0.7522041
vt 0.2398289 0.7966098
vt 0.2720942 0.7522041
vt 0.248753 0.7691638
vn 0.8084062 0.0009775162 -0.5886242
vn 0.8084062 0.0009775162 -0.5886242
vn 0.3098727 0.0009775162 -0.9507775
vn 0.3098727 0.0009775162 -0.9507775
vn -0.3098727 0.0009775162 -0.9507775
vn -0.3098727 0.0009775162 -0.9507775
vn -0.8084062 0.0009775162 -0.5886242
vn -0.8084062 0.0009775162 -0.5886242
vn -0.9999995 0.0009775162 0
vn -0.9999995 0.0009775162 0
vn -0.8084062 0.0009775162 0.5886242
vn -0.8084062 0.0009775162 0.5886242
vn -0.3098727 0.0009775162 0.9507775
vn -0.3098727 0.0009775162 0.9507775
vn 0.3098727 0.0009775162 0.9507775
vn 0.3098727 0.0009775162 0.9507775
vn 0.8084062 0.0009775162 0.5886242
vn 0.8084062 0.0009775162 0.5886242
vn 0.9999995 0.0009775162 0
vn 0.9999995 0.0009775162 0
vn 0.8084062 0.0009775162 -0.5886242
vn 0.8084062 0.0009775162 -0.5886242
vn -0.0009775162 -0.9999995 0
vn -0.0009775162 -0.9999995 0
vn -0.0009775162 -0.9999995 0
vn -0.0009775162 -0.9999995 0
vn -0.0009775162 -0.9999995 0
vn -0.0009775162 -0.9999995 0
vn -0.0009775162 -0.9999995 0
vn -0.0009775162 -0.9999995 0
vn -0.0009775162 -0.9999995 0
vn -0.0009775162 -0.9999995 0
vn -0.0009775162 -0.9999995 0
vn -0.0009775162 0.9999995 0
vn -0.0009775162 0.9999995 0
vn -0.0009775162 0.9999995 0
vn -0.0009775162 0.9999995 0
vn -0.0009775162 0.9999995 0
vn -0.0009775162 0.9999995 0
vn -0.0009775162 0.9999995 0
vn -0.0009775162 0.9999995 0
vn -0.0009775162 0.9999995 0
vn -0.0009775162 0.9999995 0
vn -0.0009775162 0.9999995 0
g Macau_ChipStack09_0
f 3/3/3 2/2/2 1/1/1
f 4/4/4 3/3/3 1/1/1
f 5/5/5 3/3/3 4/4/4
f 6/6/6 5/5/5 4/4/4
f 7/7/7 5/5/5 6/6/6
f 8/8/8 7/7/7 6/6/6
f 9/9/9 7/7/7 8/8/8
f 10/10/10 9/9/9 8/8/8
f 11/11/11 9/9/9 10/10/10
f 12/12/12 11/11/11 10/10/10
f 13/13/13 11/11/11 12/12/12
f 14/14/14 13/13/13 12/12/12
f 15/15/15 13/13/13 14/14/14
f 16/16/16 15/15/15 14/14/14
f 17/17/17 15/15/15 16/16/16
f 18/18/18 17/17/17 16/16/16
f 19/19/19 17/17/17 18/18/18
f 20/20/20 19/19/19 18/18/18
f 21/21/21 19/19/19 20/20/20
f 22/22/22 21/21/21 20/20/20
f 25/25/25 24/24/24 23/23/23
f 23/23/23 24/24/24 26/26/26
f 27/27/27 24/24/24 25/25/25
f 26/26/26 24/24/24 28/28/28
f 29/29/29 24/24/24 27/27/27
f 28/28/28 24/24/24 30/30/30
f 31/31/31 24/24/24 29/29/29
f 30/30/30 24/24/24 32/32/32
f 33/33/33 24/24/24 31/31/31
f 32/32/32 24/24/24 33/33/33
f 36/36/36 35/35/35 34/34/34
f 34/34/34 35/35/35 37/37/37
f 38/38/38 35/35/35 36/36/36
f 37/37/37 35/35/35 39/39/39
f 40/40/40 35/35/35 38/38/38
f 39/39/39 35/35/35 41/41/41
f 42/42/42 35/35/35 40/40/40
f 41/41/41 35/35/35 43/43/43
f 44/44/44 35/35/35 42/42/42
f 43/43/43 35/35/35 44/44/44
