g mala_Note1
v -0.3436371 -0.418491 -0.02295324
v -0.3895472 -0.3375648 -0.02377141
v -0.2328005 -0.4520121 -0.0209772
v -0.121964 -0.418491 -0.01900116
v -0.07790232 -0.3375648 -0.01821575
v -0.1467972 -0.2527823 -0.01944429
v -0.2328005 -0.2231176 -0.0209772
v -0.3436371 -0.2566386 -0.02295324
v -0.266388 0.3431423 -0.02157637
v -0.1222622 0.164141 -0.01900718
v 0.2846567 0.3008462 -0.01175225
v 0.3870899 0.4520123 -0.0099262
v 0.3895479 -0.2245315 -0.009883106
v 0.3214513 -0.1376307 -0.01109701
v 0.07790208 -0.2245315 -0.01543877
v 0.3454854 -0.3054577 -0.01066852
v 0.2346488 -0.1100843 -0.01264369
v 0.1238122 -0.1436045 -0.01461974
v 0.2346488 -0.3389787 -0.01264369
v 0.1238122 -0.3054577 -0.01461974
vt 0.80373 0.09136619
vt 0.8010004 0.09620079
vt 0.8103226 0.08936527
vt 0.8169152 0.09137776
vt 0.8195407 0.09621236
vt 0.8154348 0.1012783
vt 0.8103226 0.1030479
vt 0.80373 0.101047
vt 0.8083217 0.1369017
vt 0.8168921 0.1262031
vt 0.8401977 0.1336054
vt 0.8471951 0.1434365
vt 0.8473455 0.1029785
vt 0.8432974 0.1081716
vt 0.8288051 0.1029785
vt 0.84472 0.09814389
vt 0.8381273 0.1098256
vt 0.8315347 0.1078131
vt 0.8381273 0.0961314
vt 0.8315347 0.09813232
vn -0.0178245 0 0.9998412
vn -0.0178245 0 0.9998412
vn -0.0178245 0 0.9998412
vn -0.0178245 0 0.9998412
vn -0.0178245 0 0.9998412
vn -0.0178245 0 0.9998412
vn -0.0178245 0 0.9998412
vn -0.0178245 0 0.9998412
vn -0.0178245 0 0.9998412
vn -0.0178245 0 0.9998412
vn -0.0178245 0 0.9998412
vn -0.0178245 0 0.9998412
vn -0.0178245 0 0.9998412
vn -0.0178245 0 0.9998412
vn -0.0178245 0 0.9998412
vn -0.0178245 0 0.9998412
vn -0.0178245 0 0.9998412
vn -0.0178245 0 0.9998412
vn -0.0178245 0 0.9998412
vn -0.0178245 0 0.9998412
g mala_Note1_0
f 3/3/3 2/2/2 1/1/1
f 4/4/4 2/2/2 3/3/3
f 5/5/5 2/2/2 4/4/4
f 6/6/6 2/2/2 5/5/5
f 7/7/7 2/2/2 6/6/6
f 8/8/8 2/2/2 7/7/7
f 9/9/9 6/6/6 5/5/5
f 10/10/10 9/9/9 5/5/5
f 9/9/9 10/10/10 11/11/11
f 12/12/12 9/9/9 11/11/11
f 12/12/12 11/11/11 13/13/13
f 11/11/11 14/14/14 13/13/13
f 14/14/14 15/15/15 13/13/13
f 13/13/13 15/15/15 16/16/16
f 17/17/17 15/15/15 14/14/14
f 18/18/18 15/15/15 17/17/17
f 16/16/16 15/15/15 19/19/19
f 19/19/19 15/15/15 20/20/20
