g mala_Note2
v -0.2350784 -0.4184915 -0.01682693
v -0.2809954 -0.3375648 -0.01682693
v -0.1242247 -0.4520121 -0.01682693
v -0.01337019 -0.4184915 -0.01682693
v 0.03069875 -0.3375648 -0.01682693
v -0.03820688 -0.2527815 -0.01682693
v -0.1242247 -0.2231174 -0.01682693
v -0.2350784 -0.256638 -0.01682693
v -0.1792445 0.3917046 -0.01682693
v -0.02603126 0.2021739 -0.06080881
v 0.04041591 0.3519973 -0.01682693
v 0.2989368 0.4092875 -0.01682693
v 0.1877455 0.2494299 -0.01682693
vt 0.8037309 0.09136581
vt 0.8009903 0.09619948
vt 0.8103223 0.08936527
vt 0.8169137 0.09137737
vt 0.8195387 0.09621104
vt 0.8154335 0.101276
vt 0.8103223 0.1030452
vt 0.8037309 0.1010447
vt 0.8169021 0.1262076
vt 0.8083218 0.1369041
vt 0.8285468 0.129908
vt 0.8401916 0.1336084
vt 0.8471993 0.1434376
vn 0.0001076013 -0.0001076013 1
vn 0.0001076013 -0.0001076013 1
vn 0.0001076013 -0.0001076013 1
vn 0.0001076013 -0.0001076013 1
vn 0.09867585 0.02847719 0.9947121
vn 0.09867585 0.02847719 0.9947121
vn 0.0001076013 -0.0001076013 1
vn 0.0001076013 -0.0001076013 1
vn 0.1265214 -0.09152965 0.9877321
vn 0.05974139 -0.09522596 0.9936614
vn -0.05903335 -0.181966 0.9815311
vn -0.07012229 -0.1006472 0.992448
vn -0.07012229 -0.1006472 0.992448
g mala_Note2_0
f 3/3/3 2/2/2 1/1/1
f 4/4/4 2/2/2 3/3/3
f 5/5/5 2/2/2 4/4/4
f 6/6/6 2/2/2 5/5/5
f 7/7/7 2/2/2 6/6/6
f 8/8/8 2/2/2 7/7/7
f 6/6/6 5/5/5 9/9/9
f 5/5/5 10/10/10 9/9/9
f 9/9/9 10/10/10 11/11/11
f 11/11/11 10/10/10 12/12/12
f 10/10/10 13/13/13 12/12/12
