g mala_butterfly_left_wing
v -0.002227783 1.192093E-06 -0.05289412
v -0.002227783 0.006165147 -0.4061148
v 0.4977728 0.001407385 -0.1334637
v 1.125767 0.01134741 -0.7030339
v -0.002227783 0.01040733 -0.6490526
v 0.07280016 0.01221716 -0.7527887
v 1.019562 0.01936817 -1.162485
v 1.177917 0.01845932 -1.110488
v -1.36027 0.005563617 -0.3715683
v -1.552721 0.003079295 -0.2292571
v -1.552721 0.004581928 -0.3153579
v -1.36027 0.002097487 -0.1730441
v -1.230044 0.00470686 -0.3224802
v -1.230044 0.002954245 -0.2221321
v -0.776382 0.003808498 -0.2710718
v -0.4066952 0.0007355213 -0.09499013
v -0.002227783 1.192093E-06 -0.05289412
v -0.002227783 0.006165147 -0.4061148
v -0.515249 0.008826613 -0.5585691
v -0.3079488 0.00956881 -0.6010583
v -0.002227783 1.192093E-06 -0.05289412
v 0.4977728 -0.001405001 -0.1334637
v -0.002227783 -0.006165385 -0.4061148
v 1.125767 -0.01134765 -0.7030339
v -0.002227783 -0.01040494 -0.6490526
v 0.07280016 -0.0122174 -0.7527887
v 1.019562 -0.01936841 -1.162485
v 1.177917 -0.01845956 -1.110488
v -1.36027 -0.005561233 -0.3715683
v -1.552721 -0.004582167 -0.3153579
v -1.552721 -0.003079534 -0.2292571
v -1.36027 -0.002097726 -0.1730441
v -1.230044 -0.004704475 -0.3224802
v -1.230044 -0.002954483 -0.2221321
v -0.776382 -0.003808618 -0.2710718
v -0.4066952 -0.0007357597 -0.09499013
v -0.002227783 1.192093E-06 -0.05289412
v -0.002227783 -0.006165385 -0.4061148
v -0.515249 -0.008826852 -0.5585691
v -0.3079488 -0.009569049 -0.6010583
vt 0.3917258 0.02650924
vt 0.3263656 0.03407042
vt 0.3906707 0.01409484
vt 0.2551323 0.007600436
vt 0.2532332 0.03863057
vt 0.2466684 0.03772205
vt 0.1999767 0.03398836
vt 0.1910322 0.01349698
vt 0.2291019 0.03094044
vt 0.1973567 0.01148067
vt 0.194637 0.02253523
vt 0.2257316 0.01529056
vt 0.2353736 0.0323882
vt 0.239711 0.01408898
vt 0.2468501 0.03446313
vt 0.3139629 0.01243607
vt 0.3693822 0.01207853
vt 0.3646286 0.02794528
vt 0.2607475 0.03482067
vt 0.274299 0.03409386
vt 0.3917258 0.02650924
vt 0.3906707 0.01409484
vt 0.3263656 0.03407042
vt 0.2551323 0.007600436
vt 0.2532332 0.03863057
vt 0.2466684 0.03772205
vt 0.1999767 0.03398836
vt 0.1910322 0.01349698
vt 0.2291019 0.03094044
vt 0.194637 0.02253523
vt 0.1973567 0.01148067
vt 0.2257316 0.01529056
vt 0.2353736 0.0323882
vt 0.239711 0.01408898
vt 0.2468501 0.03446313
vt 0.3139629 0.01243607
vt 0.3693822 0.01207853
vt 0.3646286 0.02794528
vt 0.2607475 0.03482067
vt 0.274299 0.03409386
vn -0.000977397 0.9998477 0.01742829
vn -0.000977397 0.9998477 0.01742829
vn -0.000977397 0.9998477 0.01742829
vn -0.000977397 0.9998477 0.01742829
vn -0.000977397 0.9998477 0.01742829
vn -0.000977397 0.9998477 0.01742829
vn -0.000977397 0.9998477 0.01742829
vn -0.000977397 0.9998477 0.01742829
vn -0.000977397 0.9998477 0.01742829
vn -0.000977397 0.9998477 0.01742829
vn -0.000977397 0.9998477 0.01742829
vn -0.000977397 0.9998477 0.01742829
vn -0.000977397 0.9998477 0.01742829
vn -0.000977397 0.9998477 0.01742829
vn -0.000977397 0.9998477 0.01742829
vn -0.000977397 0.9998477 0.01742829
vn -0.000977397 0.9998477 0.01742829
vn -0.000977397 0.9998477 0.01742829
vn -0.000977397 0.9998477 0.01742829
vn -0.000977397 0.9998477 0.01742829
vn -0.000977397 -0.9998477 0.01742829
vn -0.000977397 -0.9998477 0.01742829
vn -0.000977397 -0.9998477 0.01742829
vn -0.000977397 -0.9998477 0.01742829
vn -0.000977397 -0.9998477 0.01742829
vn -0.000977397 -0.9998477 0.01742829
vn -0.000977397 -0.9998477 0.01742829
vn -0.000977397 -0.9998477 0.01742829
vn -0.000977397 -0.9998477 0.01742829
vn -0.000977397 -0.9998477 0.01742829
vn -0.000977397 -0.9998477 0.01742829
vn -0.000977397 -0.9998477 0.01742829
vn -0.000977397 -0.9998477 0.01742829
vn -0.000977397 -0.9998477 0.01742829
vn -0.000977397 -0.9998477 0.01742829
vn -0.000977397 -0.9998477 0.01742829
vn -0.000977397 -0.9998477 0.01742829
vn -0.000977397 -0.9998477 0.01742829
vn -0.000977397 -0.9998477 0.01742829
vn -0.000977397 -0.9998477 0.01742829
g mala_butterfly_left_wing_0
f 3/3/3 2/2/2 1/1/1
f 2/2/2 3/3/3 4/4/4
f 5/5/5 2/2/2 4/4/4
f 6/6/6 5/5/5 4/4/4
f 7/7/7 6/6/6 4/4/4
f 8/8/8 7/7/7 4/4/4
f 11/11/11 10/10/10 9/9/9
f 10/10/10 12/12/12 9/9/9
f 9/9/9 12/12/12 13/13/13
f 12/12/12 14/14/14 13/13/13
f 13/13/13 14/14/14 15/15/15
f 14/14/14 16/16/16 15/15/15
f 15/15/15 16/16/16 17/17/17
f 15/15/15 17/17/17 18/18/18
f 18/18/18 19/19/19 15/15/15
f 20/20/20 19/19/19 18/18/18
f 23/23/23 22/22/22 21/21/21
f 22/22/22 23/23/23 24/24/24
f 23/23/23 25/25/25 24/24/24
f 25/25/25 26/26/26 24/24/24
f 26/26/26 27/27/27 24/24/24
f 27/27/27 28/28/28 24/24/24
f 31/31/31 30/30/30 29/29/29
f 32/32/32 31/31/31 29/29/29
f 32/32/32 29/29/29 33/33/33
f 34/34/34 32/32/32 33/33/33
f 34/34/34 33/33/33 35/35/35
f 36/36/36 34/34/34 35/35/35
f 37/37/37 36/36/36 35/35/35
f 38/38/38 37/37/37 35/35/35
f 35/35/35 39/39/39 38/38/38
f 39/39/39 40/40/40 38/38/38
