g MapleLeaf_wing_L
v -1.274425 -0.1448092 -6.551135
v -0.2750759 0.03204918 -7.754769
v -0.8309774 -0.0566473 -7.389196
v -1.274425 -0.007483959 -6.550699
v -0.8306122 0.08067799 -7.389196
v -0.2747908 0.1693745 -7.754769
v -0.3754692 0.04583883 -7.044841
v 0.3315377 0.1331367 -7.746823
v -0.3744984 0.1831641 -7.044841
v -1.484385 -0.06028175 -5.579527
v 0.3315377 0.270462 -7.746823
v 0.5586729 0.1686883 -7.348308
v -1.484385 -0.1976066 -5.580381
v 0.5586729 0.3060131 -7.348308
v -0.3335752 0.03599548 -6.103083
v -0.3339663 0.1733208 -6.103083
v 0.7904134 0.1984859 -6.513276
v -1.585891 -0.08261395 -4.625386
v 0.7904134 0.353591 -6.513312
v -1.585891 -0.2199388 -4.625939
v -0.2546597 0.03943396 -5.02783
v -0.2553988 0.1767592 -5.02783
v 0.8882761 0.207242 -5.496941
v -1.473383 -0.2105322 -3.828294
v 0.8882761 0.3880472 -5.498153
v -0.1856494 0.03563023 -4.002026
v -1.473383 -0.0732069 -3.827946
v -0.1862106 0.1729465 -4.002026
v 0.8470321 0.1609921 -4.193796
v -0.9352274 -0.134378 -2.930212
v -0.935174 0.002938271 -2.930212
v 0.8470321 0.3797178 -4.194464
v -0.1094236 -0.0001263618 -2.957104
v -0.1114726 0.1606002 -2.957104
v 0.7186775 0.05353546 -2.929499
v -0.6642027 0.05441713 -1.891196
v 0.7186775 0.3268938 -2.929721
v -0.6636505 -0.08289909 -1.891205
v -0.02844143 0.1579189 -2.097291
v -0.02844143 -0.02179909 -2.097291
v -0.5426264 0.06315613 -1.178025
v 0.6925683 -0.01892185 -2.199447
v -0.5426264 -0.07970095 -1.178025
v -0.5914516 -0.0692606 -0.4831243
v 0.01619625 -0.08904552 -1.322129
v 0.6925683 0.276947 -2.199447
v 0.01619625 0.1573043 -1.322129
v 0.6933522 -0.09688425 -1.373519
v -0.01034975 -0.1603713 -0.7997665
v 0.6933522 0.2168803 -1.373519
v -0.5914516 0.09061909 -0.4831243
v 0.758523 -0.1641393 -0.8653917
v -0.01034975 0.1627736 -0.7997665
v 0.758523 0.1854978 -0.8653917
v -0.005904675 -0.1999316 -0.6210375
v 0.6117377 -0.1990767 -0.6553597
v -0.4634256 0.1609297 -0.4099813
v -0.005904675 0.1839657 -0.6210375
v -0.6595078 0.05858612 0.06326294
v -0.518281 0.1721892 0.03880167
v 0.86059 -0.1056585 0.02381849
v 0.7183657 -0.2078595 -0.01021004
v -0.4634256 -0.1769047 -0.4099813
v -0.6595078 -0.07456112 0.06326294
v 0.4197264 -0.2352428 -0.4601688
v 0.444571 -0.2530942 -0.05049181
v 0.002335548 -0.2525244 -0.377512
v -0.002599716 -0.2800322 -1.430511E-06
v 0.289341 -0.2445693 0.2790756
v 0.4781804 -0.1919146 0.4852324
v 1.430511E-06 -0.264051 0.3411646
v -0.25033 -0.2669015 -0.2192264
v -0.2806263 -0.2530942 0.01705742
v -0.518281 -0.1881642 0.03880167
v -0.2053714 -0.2584834 0.2564945
v -0.008746147 -0.1919146 0.6047506
v -0.3806267 -0.1919146 0.451436
v 0.624476 -0.07855177 0.5386362
v -0.515172 -0.07855177 0.5044117
v -0.0140996 -0.07855177 0.7109871
v 0.86059 0.1114817 0.02381849
v -0.515172 0.06257677 0.5044117
v -0.0140996 0.06257677 0.7109871
v 0.624476 0.06257677 0.5386362
v 0.6117377 0.1937199 -0.6553597
v -0.3806267 0.1759486 0.451436
v -0.008746147 0.1759486 0.6047506
v 0.4781804 0.1759486 0.4852324
v 0.7183657 0.191885 -0.01021004
v 0.002335548 0.2361484 -0.377512
v 0.4197264 0.2179761 -0.4601688
v 0.444571 0.2371192 -0.05049181
v 0.289341 0.2285943 0.2790756
v 1.430511E-06 0.2480764 0.3411646
v -0.002599716 0.2640572 -1.430511E-06
v -0.2053714 0.2425089 0.2564945
v -0.2806263 0.2371192 0.01705742
v -0.25033 0.2275257 -0.2192264
vt 0.7979696 0.5218171
vt 0.7778354 0.5587644
vt 0.7800829 0.540391
vt 0.7979696 0.5218171
vt 0.7800829 0.540391
vt 0.7778354 0.5587644
vt 0.7990505 0.5547705
vt 0.7838335 0.5757779
vt 0.7990505 0.5547705
vt 0.8249178 0.5126268
vt 0.7838335 0.5757779
vt 0.7987641 0.5851758
vt 0.8249178 0.5126268
vt 0.7987641 0.5851758
vt 0.82461 0.5528737
vt 0.82461 0.5528737
vt 0.8231571 0.5894917
vt 0.8393044 0.5135859
vt 0.8231571 0.5894917
vt 0.8393044 0.5135859
vt 0.8381593 0.553432
vt 0.8381593 0.553432
vt 0.8377656 0.589957
vt 0.8536983 0.5145522
vt 0.8377656 0.589957
vt 0.8517085 0.5539903
vt 0.8536983 0.5145522
vt 0.8517085 0.5539903
vt 0.8523741 0.5904294
vt 0.8741546 0.5282303
vt 0.8741546 0.5282303
vt 0.8523741 0.5904294
vt 0.8781484 0.5574402
vt 0.8781484 0.5574402
vt 0.8836025 0.5878455
vt 0.9102715 0.5429391
vt 0.8836025 0.5878455
vt 0.9102715 0.5429391
vt 0.9130988 0.5608902
vt 0.9130988 0.5608902
vt 0.9311072 0.5443276
vt 0.9165916 0.5830356
vt 0.9311072 0.5443276
vt 0.95195 0.545709
vt 0.9313004 0.5604751
vt 0.9165916 0.5830356
vt 0.9313004 0.5604751
vt 0.9367545 0.5801583
vt 0.9495021 0.5600528
vt 0.9367545 0.5801583
vt 0.95195 0.545709
vt 0.9569244 0.5772881
vt 0.9495021 0.5600528
vt 0.9569244 0.5772881
vt 0.952179 0.5600957
vt 0.9579337 0.573466
vt 0.9541044 0.5488082
vt 0.952179 0.5600957
vt 0.9640892 0.543755
vt 0.9640749 0.5472264
vt 0.9694788 0.5770734
vt 0.9681547 0.573602
vt 0.9541044 0.5488082
vt 0.9640892 0.543755
vt 0.9613693 0.5675467
vt 0.9669235 0.5683054
vt 0.9581913 0.5601601
vt 0.9651842 0.5598738
vt 0.9719553 0.5657716
vt 0.9771016 0.5702952
vt 0.9729359 0.5597593
vt 0.9592507 0.5539259
vt 0.9644971 0.5530598
vt 0.9640749 0.5472264
vt 0.9702232 0.5547705
vt 0.9788838 0.5594085
vt 0.9739738 0.5503758
vt 0.9792989 0.5738453
vt 0.975076 0.5470475
vt 0.9816967 0.5592082
vt 0.9694788 0.5770734
vt 0.975076 0.5470475
vt 0.9816967 0.5592082
vt 0.9792989 0.5738453
vt 0.9579337 0.573466
vt 0.9739738 0.5503758
vt 0.9788838 0.5594085
vt 0.9771016 0.5702952
vt 0.9681547 0.573602
vt 0.9581913 0.5601601
vt 0.9613693 0.5675467
vt 0.9669235 0.5683054
vt 0.9719553 0.5657716
vt 0.9729359 0.5597593
vt 0.9651842 0.5598738
vt 0.9702232 0.5547705
vt 0.9644971 0.5530598
vt 0.9592507 0.5539259
vn 0.03802073 -0.9978441 -0.05349354
vn 0.09275603 -0.9782958 -0.1852934
vn -0.01671463 -0.98807 -0.153096
vn -0.3412171 0.9393962 -0.03325156
vn -0.3822686 0.9042092 -0.1904636
vn -0.2200174 0.9452607 -0.2409866
vn 0.1670126 -0.9859548 0
vn 0.2315493 -0.9567926 -0.1758775
vn -0.1711466 0.9843574 -0.04182507
vn -0.3021204 0.95308 -0.01902105
vn -0.04994684 0.976538 -0.2094728
vn 0.2647814 -0.9626571 -0.05641022
vn 0.07907224 -0.9958893 -0.04418271
vn -0.01280493 0.9980412 -0.06123551
vn 0.1670126 -0.9859548 0
vn -0.1788775 0.9838714 0
vn 0.2726008 -0.9607023 -0.05234411
vn -0.2864817 0.9569897 0.04581395
vn -0.01671237 0.9998603 0
vn 0.08689153 -0.9958893 -0.02558123
vn 0.1611753 -0.9861151 -0.03999512
vn -0.1848304 0.9824025 0.02688985
vn 0.3056008 -0.9521597 0
vn 0.07122547 -0.9974602 0
vn -0.001075923 0.999996 -0.002618117
vn 0.1455365 -0.98807 -0.05036758
vn -0.2943011 0.95308 0.07088996
vn -0.1886705 0.9820405 0
vn 0.3429748 -0.9391991 -0.01653501
vn 0.03019368 -0.9995441 0
vn -0.3021204 0.9511252 0.06390704
vn 0.04974973 0.9980412 0.03793069
vn 0.1142592 -0.9919796 -0.05404945
vn -0.1848304 0.9824025 0.02688985
vn 0.3449296 -0.9372443 -0.05095759
vn -0.3490364 0.9354865 0.05512336
vn 0.104485 0.9921767 0.06832449
vn -0.1164111 -0.9919796 0.04924384
vn -0.1613724 0.9863122 0.0338705
vn 0.05561423 -0.9978441 -0.03484546
vn -0.3783402 0.9256666 0
vn 0.3703424 -0.9274701 -0.05143667
vn -0.2708343 -0.962626 0
vn -0.6344422 -0.7613092 -0.133759
vn -0.01671463 -0.9958893 -0.08902333
vn 0.2178654 0.9745832 0.05217531
vn -0.1242306 0.9921767 0.01233333
vn 0.3801166 -0.9176959 -0.1155226
vn -0.07731444 -0.9900248 -0.1177854
vn 0.3213814 0.9469497 0
vn -0.6246679 0.7751902 -0.09418166
vn 0.6322902 -0.7554447 -0.1717917
vn -0.108587 0.9940869 0
vn 0.6361998 0.7673709 -0.07994813
vn -0.1085919 -0.9607023 -0.2554583
vn 0.1807235 -0.9782958 -0.1013722
vn -0.3099397 0.9393962 -0.1465338
vn -0.09099835 0.9824025 -0.1631093
vn -0.8866157 0.4545974 0.08516922
vn -0.4467781 0.894435 0.01937345
vn 0.9294249 -0.3586134 0.08698081
vn 0.3371103 -0.9391991 0.06528194
vn -0.3685847 -0.9040121 -0.2165814
vn -0.8885705 -0.4524455 0.07573339
vn 0.06734324 -0.9919796 -0.1069642
vn 0.1064399 -0.9939345 0.02765586
vn -0.02648884 -0.9900248 -0.1383808
vn 0.01847237 -0.999799 -0.007797226
vn 0.1005754 -0.98807 0.1166292
vn 0.2608718 -0.8766444 0.4042777
vn 0.004788518 -0.98807 0.1539312
vn -0.1633272 -0.9802506 -0.1115033
vn -0.1946046 -0.9802506 0.03518252
vn -0.4817735 -0.8762959 0
vn -0.1555079 -0.9822055 0.1053081
vn -0.01671463 -0.8453671 0.5339243
vn -0.3509912 -0.8629606 0.3634614
vn 0.6244708 -0.3918456 0.6756428
vn -0.6735389 -0.4133488 0.6127709
vn -0.02844363 -0.3234264 0.9458258
vn 0.9255153 0.3705396 0.07824203
vn -0.6735389 0.4135459 0.6126379
vn -0.02844363 0.3236236 0.9457583
vn 0.6166515 0.3939976 0.6815473
vn 0.1220785 0.9902219 -0.0675083
vn -0.3509912 0.8631577 0.3629931
vn -0.01671463 0.8455642 0.5336121
vn 0.2471879 0.882706 0.3996602
vn 0.2784653 0.9569897 0.08141129
vn -0.03430814 0.9921767 -0.1200345
vn 0.05756903 0.9941315 -0.09158789
vn 0.1005754 0.9941315 0.03983908
vn 0.1005754 0.988267 0.1149475
vn 0.004788518 0.988267 0.1526609
vn 0.008697931 0.9999622 0
vn -0.1555079 0.9804477 0.1205803
vn -0.1886705 0.9820405 0
vn -0.1633272 0.9804477 -0.1097566
g MapleLeaf_wing_L_0
f 3/3/3 2/2/2 1/1/1
f 1/1/1 4/4/4 3/3/3
f 3/3/3 5/5/5 2/2/2
f 4/4/4 5/5/5 3/3/3
f 5/5/5 6/6/6 2/2/2
f 6/6/6 5/5/5 4/4/4
f 2/2/2 7/7/7 1/1/1
f 2/2/2 6/6/6 8/8/8
f 2/2/2 8/8/8 7/7/7
f 9/9/9 6/6/6 4/4/4
f 10/10/10 4/4/4 1/1/1
f 9/9/9 4/4/4 10/10/10
f 6/6/6 11/11/11 8/8/8
f 11/11/11 6/6/6 9/9/9
f 8/8/8 11/11/11 12/12/12
f 8/8/8 12/12/12 7/7/7
f 1/1/1 7/7/7 13/13/13
f 13/13/13 10/10/10 1/1/1
f 14/14/14 11/11/11 9/9/9
f 11/11/11 14/14/14 12/12/12
f 7/7/7 12/12/12 15/15/15
f 7/7/7 15/15/15 13/13/13
f 16/16/16 9/9/9 10/10/10
f 14/14/14 9/9/9 16/16/16
f 12/12/12 14/14/14 17/17/17
f 12/12/12 17/17/17 15/15/15
f 18/18/18 10/10/10 13/13/13
f 16/16/16 10/10/10 18/18/18
f 19/19/19 14/14/14 16/16/16
f 14/14/14 19/19/19 17/17/17
f 13/13/13 15/15/15 20/20/20
f 20/20/20 18/18/18 13/13/13
f 15/15/15 17/17/17 21/21/21
f 15/15/15 21/21/21 20/20/20
f 19/19/19 16/16/16 22/22/22
f 22/22/22 16/16/16 18/18/18
f 17/17/17 19/19/19 23/23/23
f 17/17/17 23/23/23 21/21/21
f 20/20/20 21/21/21 24/24/24
f 20/20/20 24/24/24 18/18/18
f 25/25/25 19/19/19 22/22/22
f 19/19/19 25/25/25 23/23/23
f 21/21/21 23/23/23 26/26/26
f 21/21/21 26/26/26 24/24/24
f 24/24/24 27/27/27 18/18/18
f 22/22/22 18/18/18 27/27/27
f 25/25/25 22/22/22 28/28/28
f 28/28/28 22/22/22 27/27/27
f 23/23/23 25/25/25 29/29/29
f 23/23/23 29/29/29 26/26/26
f 24/24/24 26/26/26 30/30/30
f 24/24/24 30/30/30 27/27/27
f 28/28/28 27/27/27 31/31/31
f 30/30/30 31/31/31 27/27/27
f 32/32/32 25/25/25 28/28/28
f 25/25/25 32/32/32 29/29/29
f 26/26/26 29/29/29 33/33/33
f 26/26/26 33/33/33 30/30/30
f 34/34/34 28/28/28 31/31/31
f 32/32/32 28/28/28 34/34/34
f 29/29/29 32/32/32 35/35/35
f 29/29/29 35/35/35 33/33/33
f 36/36/36 31/31/31 30/30/30
f 34/34/34 31/31/31 36/36/36
f 37/37/37 32/32/32 34/34/34
f 32/32/32 37/37/37 35/35/35
f 30/30/30 33/33/33 38/38/38
f 38/38/38 36/36/36 30/30/30
f 39/39/39 34/34/34 36/36/36
f 37/37/37 34/34/34 39/39/39
f 33/33/33 35/35/35 40/40/40
f 33/33/33 40/40/40 38/38/38
f 41/41/41 36/36/36 38/38/38
f 39/39/39 36/36/36 41/41/41
f 35/35/35 37/37/37 42/42/42
f 35/35/35 42/42/42 40/40/40
f 38/38/38 40/40/40 43/43/43
f 43/43/43 41/41/41 38/38/38
f 43/43/43 44/44/44 41/41/41
f 43/43/43 45/45/45 44/44/44
f 40/40/40 45/45/45 43/43/43
f 40/40/40 42/42/42 45/45/45
f 46/46/46 37/37/37 39/39/39
f 37/37/37 46/46/46 42/42/42
f 47/47/47 39/39/39 41/41/41
f 46/46/46 39/39/39 47/47/47
f 42/42/42 48/48/48 45/45/45
f 42/42/42 46/46/46 48/48/48
f 45/45/45 49/49/49 44/44/44
f 45/45/45 48/48/48 49/49/49
f 46/46/46 50/50/50 48/48/48
f 50/50/50 46/46/46 47/47/47
f 47/47/47 41/41/41 51/51/51
f 44/44/44 51/51/51 41/41/41
f 48/48/48 52/52/52 49/49/49
f 48/48/48 50/50/50 52/52/52
f 50/50/50 47/47/47 53/53/53
f 53/53/53 47/47/47 51/51/51
f 50/50/50 54/54/54 52/52/52
f 54/54/54 50/50/50 53/53/53
f 49/49/49 55/55/55 44/44/44
f 52/52/52 56/56/56 49/49/49
f 56/56/56 55/55/55 49/49/49
f 51/51/51 57/57/57 53/53/53
f 53/53/53 58/58/58 54/54/54
f 57/57/57 58/58/58 53/53/53
f 59/59/59 51/51/51 44/44/44
f 60/60/60 57/57/57 51/51/51
f 59/59/59 60/60/60 51/51/51
f 52/52/52 54/54/54 61/61/61
f 62/62/62 56/56/56 52/52/52
f 61/61/61 62/62/62 52/52/52
f 55/55/55 63/63/63 44/44/44
f 64/64/64 59/59/59 44/44/44
f 44/44/44 63/63/63 64/64/64
f 56/56/56 65/65/65 55/55/55
f 62/62/62 66/66/66 56/56/56
f 66/66/66 65/65/65 56/56/56
f 65/65/65 67/67/67 55/55/55
f 55/55/55 67/67/67 63/63/63
f 65/65/65 66/66/66 68/68/68
f 67/67/67 65/65/65 68/68/68
f 69/69/69 66/66/66 62/62/62
f 70/70/70 69/69/69 62/62/62
f 70/70/70 62/62/62 61/61/61
f 66/66/66 69/69/69 71/71/71
f 68/68/68 66/66/66 71/71/71
f 71/71/71 69/69/69 70/70/70
f 67/67/67 72/72/72 63/63/63
f 67/67/67 68/68/68 73/73/73
f 72/72/72 67/67/67 73/73/73
f 63/63/63 72/72/72 74/74/74
f 72/72/72 73/73/73 74/74/74
f 63/63/63 74/74/74 64/64/64
f 68/68/68 71/71/71 75/75/75
f 73/73/73 68/68/68 75/75/75
f 76/76/76 71/71/71 70/70/70
f 75/75/75 71/71/71 76/76/76
f 73/73/73 75/75/75 77/77/77
f 74/74/74 73/73/73 77/77/77
f 77/77/77 75/75/75 76/76/76
f 78/78/78 70/70/70 61/61/61
f 76/76/76 70/70/70 78/78/78
f 64/64/64 74/74/74 79/79/79
f 74/74/74 77/77/77 79/79/79
f 77/77/77 76/76/76 80/80/80
f 80/80/80 76/76/76 78/78/78
f 79/79/79 77/77/77 80/80/80
f 61/61/61 81/81/81 78/78/78
f 54/54/54 81/81/81 61/61/61
f 79/79/79 82/82/82 64/64/64
f 82/82/82 59/59/59 64/64/64
f 80/80/80 83/83/83 79/79/79
f 83/83/83 82/82/82 79/79/79
f 78/78/78 84/84/84 80/80/80
f 81/81/81 84/84/84 78/78/78
f 84/84/84 83/83/83 80/80/80
f 54/54/54 85/85/85 81/81/81
f 58/58/58 85/85/85 54/54/54
f 82/82/82 86/86/86 59/59/59
f 86/86/86 60/60/60 59/59/59
f 83/83/83 87/87/87 82/82/82
f 87/87/87 86/86/86 82/82/82
f 84/84/84 88/88/88 83/83/83
f 88/88/88 87/87/87 83/83/83
f 81/81/81 89/89/89 84/84/84
f 85/85/85 89/89/89 81/81/81
f 89/89/89 88/88/88 84/84/84
f 58/58/58 90/90/90 85/85/85
f 85/85/85 91/91/91 89/89/89
f 90/90/90 91/91/91 85/85/85
f 89/89/89 92/92/92 88/88/88
f 91/91/91 92/92/92 89/89/89
f 88/88/88 93/93/93 87/87/87
f 92/92/92 93/93/93 88/88/88
f 93/93/93 94/94/94 87/87/87
f 87/87/87 94/94/94 86/86/86
f 93/93/93 92/92/92 94/94/94
f 92/92/92 91/91/91 95/95/95
f 92/92/92 95/95/95 94/94/94
f 91/91/91 90/90/90 95/95/95
f 94/94/94 96/96/96 86/86/86
f 94/94/94 95/95/95 96/96/96
f 86/86/86 96/96/96 60/60/60
f 95/95/95 97/97/97 96/96/96
f 96/96/96 97/97/97 60/60/60
f 95/95/95 90/90/90 97/97/97
f 60/60/60 97/97/97 57/57/57
f 98/98/98 90/90/90 58/58/58
f 57/57/57 98/98/98 58/58/58
f 90/90/90 98/98/98 97/97/97
f 97/97/97 98/98/98 57/57/57
