g Morgan_BookFront
v 0.02692246 -0.7500008 0.1098791
v 0.02692246 0.7500001 0.1098791
v 1.336923 0.7500001 0.1098791
v 1.336923 -0.7500008 0.1098791
v 0.02692246 0.7500001 0.1098791
v 0.02692246 0.7500001 -0.0001198053
v 1.336923 0.7500001 -0.0001198053
v 1.336923 0.7500001 0.1098791
v 0.02692246 0.7500001 -0.0001198053
v 0.02692246 -0.7500008 -0.0001198053
v 1.336923 -0.7500008 -0.0001198053
v 1.336923 0.7500001 -0.0001198053
v 0.02692246 -0.7500008 -0.0001198053
v 0.02692246 -0.7500008 0.1098791
v 1.336923 -0.7500008 0.1098791
v 1.336923 -0.7500008 -0.0001198053
v 1.336923 -0.7500008 0.1098791
v 1.336923 0.7500001 0.1098791
v 1.336923 0.7500001 -0.0001198053
v 1.336923 -0.7500008 -0.0001198053
v 0.02692246 -0.7500008 -0.0001198053
v 0.02692246 0.7500001 -0.0001198053
v 0.02692246 0.7500001 0.1098791
v 0.02692246 -0.7500008 0.1098791
vt 0.3537758 0.582437
vt 0.3535119 0.7487554
vt 0.4936981 0.7490023
vt 0.4955282 0.5826839
vt 0.3418078 0.7487554
vt 0.3417822 0.766699
vt 0.4955282 0.7669458
vt 0.4955282 0.7490023
vt 0.3194805 0.5755507
vt 0.3194805 0.7514623
vt 0.2091123 0.7514282
vt 0.2091038 0.5770233
vt 0.3421142 0.5642381
vt 0.3420887 0.582437
vt 0.4955282 0.5826839
vt 0.4955282 0.5644934
vt 0.4955282 0.5826839
vt 0.4936981 0.7490023
vt 0.5101776 0.7490278
vt 0.510467 0.5827094
vt 0.3319507 0.5824115
vt 0.3316613 0.7487299
vt 0.3535119 0.7487554
vt 0.3537758 0.582437
vn -0.0009775162 0.0009775162 0.999999
vn -0.0009775162 0.0009775162 0.999999
vn -0.0009775162 0.0009775162 0.999999
vn -0.0009775162 0.0009775162 0.999999
vn -0.0009775162 0.9999995 0
vn -0.0009775162 0.9999995 0
vn -0.0009775162 0.9999995 0
vn -0.0009775162 0.9999995 0
vn -0.0009775162 0.0009775162 -0.999999
vn -0.0009775162 0.0009775162 -0.999999
vn -0.0009775162 0.0009775162 -0.999999
vn -0.0009775162 0.0009775162 -0.999999
vn -0.0009775162 -0.9999995 0
vn -0.0009775162 -0.9999995 0
vn -0.0009775162 -0.9999995 0
vn -0.0009775162 -0.9999995 0
vn 0.9999995 0.0009775162 0
vn 0.9999995 0.0009775162 0
vn 0.9999995 0.0009775162 0
vn 0.9999995 0.0009775162 0
vn -0.9999995 0.0009775162 0
vn -0.9999995 0.0009775162 0
vn -0.9999995 0.0009775162 0
vn -0.9999995 0.0009775162 0
g Morgan_BookFront_0
f 3/3/3 2/2/2 1/1/1
f 4/4/4 3/3/3 1/1/1
f 7/7/7 6/6/6 5/5/5
f 8/8/8 7/7/7 5/5/5
f 11/11/11 10/10/10 9/9/9
f 12/12/12 11/11/11 9/9/9
f 15/15/15 14/14/14 13/13/13
f 16/16/16 15/15/15 13/13/13
f 19/19/19 18/18/18 17/17/17
f 20/20/20 19/19/19 17/17/17
f 23/23/23 22/22/22 21/21/21
f 24/24/24 23/23/23 21/21/21
