g nina_mic_stand
v -0.2516155 6.188571 0.2521374
v -0.1328675 6.188571 0.2521374
v -0.1314615 5.990769 0.168452
v -0.2283081 5.922404 0.1395278
v 2.753735E-05 5.946915 0.1498988
v 2.753735E-05 5.810186 0.09205031
v 0.1315165 5.990769 0.168452
v 0.228363 5.922404 0.1395278
v 0.1329297 6.188571 0.2521374
v 0.2516778 6.188571 0.2521374
v -0.1328675 6.188571 0.2521374
v -0.1328675 6.280634 0.0345279
v -0.1314615 6.082832 -0.04915738
v -0.1314615 5.990769 0.168452
v -0.1314615 5.990769 0.168452
v -0.1314615 6.082832 -0.04915738
v 2.753735E-05 6.038978 -0.06771064
v 2.753735E-05 5.946915 0.1498988
v 0.1315165 6.082832 -0.04915738
v 0.1315165 5.990769 0.168452
v 0.1315165 5.990769 0.168452
v 0.1315165 6.082832 -0.04915738
v 0.1329297 6.280634 0.0345279
v 0.1329297 6.188571 0.2521374
v -0.1328675 6.280634 0.0345279
v -0.2516155 6.280634 0.0345279
v -0.2283081 6.014468 -0.07808161
v -0.1314615 6.082832 -0.04915738
v 2.753735E-05 5.902242 -0.1255591
v 2.753735E-05 6.038978 -0.06771064
v 0.228363 6.014468 -0.07808161
v 0.1315165 6.082832 -0.04915738
v 0.2516778 6.280634 0.0345279
v 0.1329297 6.280634 0.0345279
v -0.2516155 6.280634 0.0345279
v -0.2516155 6.188571 0.2521374
v -0.2283081 5.922404 0.1395278
v -0.2283081 6.014468 -0.07808161
v 2.753735E-05 5.810186 0.09205031
v 2.753735E-05 5.902242 -0.1255591
v 0.228363 5.922404 0.1395278
v 0.228363 6.014468 -0.07808161
v 0.2516778 6.188571 0.2521374
v 0.2516778 6.280634 0.0345279
v 0.2516778 6.188571 0.2521374
v 0.1329297 6.188571 0.2521374
v 0.1329297 6.280634 0.0345279
v 0.2516778 6.280634 0.0345279
v -0.2516155 6.280634 0.0345279
v -0.1328675 6.280634 0.0345279
v -0.1328675 6.188571 0.2521374
v -0.2516155 6.188571 0.2521374
v -1.430511E-06 1.430511E-06 -1.318773
v -1.430511E-06 1.430511E-06 1.430511E-06
v 0.9325099 1.430511E-06 -0.9325099
v -0.9325128 1.430511E-06 -0.9325099
v 1.318773 1.430511E-06 1.430511E-06
v -1.318776 1.430511E-06 1.430511E-06
v 0.9325099 1.430511E-06 0.9325128
v -0.9325128 1.430511E-06 0.9325128
v -1.430511E-06 1.430511E-06 1.318776
v 0.9325099 1.430511E-06 -0.9325099
v 0.8430122 0.1198875 -0.8430122
v -1.430511E-06 0.1198875 -1.192205
v -1.430511E-06 1.430511E-06 -1.318773
v 1.318773 1.430511E-06 1.430511E-06
v -0.8430152 0.1198875 -0.8430122
v 1.192205 0.1198875 1.430511E-06
v -0.9325128 1.430511E-06 -0.9325099
v 0.9325099 1.430511E-06 0.9325128
v -1.1922 0.1198875 1.430511E-06
v 0.8430122 0.1198875 0.8430152
v -1.318776 1.430511E-06 1.430511E-06
v -1.430511E-06 1.430511E-06 1.318776
v -0.8430152 0.1198875 0.8430152
v -1.430511E-06 0.1198875 1.1922
v -0.9325128 1.430511E-06 0.9325128
v 0.8430122 0.1198875 -0.8430122
v 0.07937169 0.2680236 -0.07937169
v -1.430511E-06 0.2680236 -0.112253
v -1.430511E-06 0.1198875 -1.192205
v 1.192205 0.1198875 1.430511E-06
v -0.07937467 0.2680236 -0.07937169
v 0.112253 0.2680236 1.430511E-06
v -0.8430152 0.1198875 -0.8430122
v 0.8430122 0.1198875 0.8430152
v -0.1122559 0.2680236 1.430511E-06
v 0.07937169 0.2680236 0.07937467
v -1.1922 0.1198875 1.430511E-06
v -1.430511E-06 0.1198875 1.1922
v -0.07937467 0.2680236 0.07937467
v -1.430511E-06 0.2680236 0.1122559
v -0.8430152 0.1198875 0.8430152
v 0.07937169 0.2680236 -0.07937169
v 0.06520307 5.934124 -0.06520307
v -1.430511E-06 5.934124 -0.09221399
v -1.430511E-06 0.2680236 -0.112253
v 0.112253 0.2680236 1.430511E-06
v -0.06520605 5.934124 -0.06520307
v 0.09221399 5.934124 1.430511E-06
v -0.07937467 0.2680236 -0.07937169
v 0.07937169 0.2680236 0.07937467
v -0.09221697 5.934124 1.430511E-06
v 0.06520307 5.934124 0.06520605
v -0.1122559 0.2680236 1.430511E-06
v -1.430511E-06 0.2680236 0.1122559
v -0.06520605 5.934124 0.06520605
v -1.430511E-06 5.934124 0.09221697
v -0.07937467 0.2680236 0.07937467
vt 0.2581164 0.5632726
vt 0.2566381 0.563127
vt 0.2565449 0.5736969
vt 0.2577206 0.5773171
vt 0.2548977 0.5757631
vt 0.2548454 0.5827417
vt 0.2532913 0.5733534
vt 0.2520632 0.5767118
vt 0.2533437 0.5627953
vt 0.251877 0.5626439
vt 0.2576857 0.5810072
vt 0.2577032 0.5806929
vt 0.2575402 0.6110404
vt 0.2575285 0.6107784
vt 0.2575285 0.6107784
vt 0.2575402 0.6110404
vt 0.2546766 0.6169829
vt 0.2547231 0.6165988
vt 0.251877 0.6100566
vt 0.2519817 0.6098123
vt 0.2519817 0.6098123
vt 0.251877 0.6100566
vt 0.2519759 0.5797384
vt 0.2520749 0.5800701
vt 0.2566497 0.5630164
vt 0.2581513 0.5631678
vt 0.2577497 0.5774859
vt 0.2565507 0.57379
vt 0.2548221 0.5830152
vt 0.2548745 0.5759028
vt 0.2519817 0.5768689
vt 0.2532273 0.5734407
vt 0.2517897 0.5625217
vt 0.2532913 0.5626731
vt 0.2602641 0.5811178
vt 0.2602001 0.5814263
vt 0.2595308 0.6076005
vt 0.2595831 0.6080719
vt 0.2546358 0.6228731
vt 0.2545893 0.6236531
vt 0.249898 0.6059009
vt 0.2497526 0.6063374
vt 0.2495779 0.5796511
vt 0.2494266 0.5793135
vt 0.2545194 0.5557002
vt 0.2545951 0.5557119
vt 0.2545951 0.5557002
vt 0.2545136 0.5556886
vt 0.2548454 0.555741
vt 0.2547639 0.5557294
vt 0.2547639 0.555741
vt 0.2548395 0.5557526
vt 0.254566 0.6226403
vt 0.254566 0.6265866
vt 0.2550316 0.6238451
vt 0.2541062 0.6238451
vt 0.2552179 0.6267554
vt 0.2539141 0.6267554
vt 0.2550316 0.6296597
vt 0.2541062 0.6296597
vt 0.254566 0.6308645
vt 0.2500959 0.6104699
vt 0.2545136 0.5545478
vt 0.2546766 0.5548272
vt 0.2502705 0.6107609
vt 0.2500086 0.6103593
vt 0.2548279 0.5550774
vt 0.2544438 0.5544081
vt 0.2504393 0.6110636
vt 0.2500727 0.6104874
vt 0.2548861 0.555159
vt 0.254502 0.5544896
vt 0.2505034 0.6111916
vt 0.2502415 0.61079
vt 0.2548163 0.5550193
vt 0.2546533 0.5547399
vt 0.2504219 0.6110811
vt 0.258454 0.5683072
vt 0.2582968 0.5878287
vt 0.2582503 0.5880848
vt 0.258291 0.5682955
vt 0.2584773 0.5683246
vt 0.2581863 0.588044
vt 0.2583027 0.5874213
vt 0.2580698 0.5682955
vt 0.2583376 0.5683362
vt 0.2581455 0.5877298
vt 0.2582619 0.5871128
vt 0.2579302 0.5683072
vt 0.2581222 0.5683362
vt 0.2581513 0.5873281
vt 0.2581979 0.587072
vt 0.2579534 0.5683246
vt 0.2496012 0.6212027
vt 0.2527268 0.5619979
vt 0.2528373 0.5622132
vt 0.2497351 0.6214646
vt 0.2495372 0.6211212
vt 0.2529421 0.5624461
vt 0.2526744 0.5619339
vt 0.2498631 0.6217498
vt 0.2495838 0.6212726
vt 0.2529829 0.5625683
vt 0.2527151 0.5620561
vt 0.2499097 0.6219012
vt 0.2497118 0.6215577
vt 0.2529305 0.5625043
vt 0.2528199 0.5622889
vt 0.2498457 0.6218196
vn -0.0009746552 -0.3900309 0.9208013
vn -0.0009746552 -0.3900309 0.9208013
vn -0.0009746552 -0.3900309 0.9208013
vn -0.0009746552 -0.3900309 0.9208013
vn -0.0009746552 -0.3900309 0.9208013
vn -0.0009746552 -0.3900309 0.9208013
vn -0.0009746552 -0.3900309 0.9208013
vn -0.0009746552 -0.3900309 0.9208013
vn -0.0009746552 -0.3900309 0.9208013
vn -0.0009746552 -0.3900309 0.9208013
vn 0.9999766 0.006839596 0
vn 0.9999766 0.006839596 0
vn 0.9999766 0.006839596 0
vn 0.9999766 0.006839596 0
vn 0.3411552 0.8650969 0.3677233
vn 0.3411552 0.8650969 0.3677233
vn -0.0009746552 0.9217927 0.3876818
vn -0.0009746552 0.9217927 0.3876818
vn -0.3411494 0.8650969 0.3677286
vn -0.3411494 0.8650969 0.3677286
vn -0.9999766 0.006839635 0
vn -0.9999766 0.006839635 0
vn -0.9999766 0.006839635 0
vn -0.9999766 0.006839635 0
vn -0.0009746552 0.3900251 -0.9208037
vn -0.0009746552 0.3900251 -0.9208037
vn -0.0009746552 0.3900251 -0.9208037
vn -0.0009746552 0.3900251 -0.9208037
vn -0.0009746552 0.3900251 -0.9208037
vn -0.0009746552 0.3900251 -0.9208037
vn -0.0009746552 0.3900251 -0.9208037
vn -0.0009746552 0.3900251 -0.9208037
vn -0.0009746552 0.3900251 -0.9208037
vn -0.0009746552 0.3900251 -0.9208037
vn -0.9960837 -0.0733164 -0.04941573
vn -0.9960837 -0.0733164 -0.04941573
vn -0.8533667 -0.4819172 -0.198799
vn -0.8533667 -0.4819172 -0.198799
vn -0.0009746552 -0.9217984 -0.3876683
vn -0.0009746552 -0.9217984 -0.3876683
vn 0.8533725 -0.4819172 -0.1987744
vn 0.8533725 -0.4819172 -0.1987744
vn 0.9960895 -0.0733164 -0.0492998
vn 0.9960895 -0.0733164 -0.0492998
vn -0.0009746552 0.9217927 0.3876818
vn -0.0009746552 0.9217927 0.3876818
vn -0.0009746552 0.9217927 0.3876818
vn -0.0009746552 0.9217927 0.3876818
vn -0.0009746552 0.9217927 0.3876818
vn -0.0009746552 0.9217927 0.3876818
vn -0.0009746552 0.9217927 0.3876818
vn -0.0009746552 0.9217927 0.3876818
vn -0.0009746552 -0.9999995 0
vn -0.0009746552 -0.9999995 0
vn -0.0009746552 -0.9999995 0
vn -0.0009746552 -0.9999995 0
vn -0.0009746552 -0.9999995 0
vn -0.0009746552 -0.9999995 0
vn -0.0009746552 -0.9999995 0
vn -0.0009746552 -0.9999995 0
vn -0.0009746552 -0.9999995 0
vn 0.4858273 0.7262899 -0.4862868
vn 0.4858273 0.7262899 -0.4862868
vn -0.0009746552 0.7262899 -0.6873878
vn -0.0009746552 0.7262899 -0.6873878
vn 0.6871951 0.7262899 -0.01630815
vn -0.4858215 0.7262899 -0.4862926
vn 0.6871951 0.7262899 -0.01630815
vn -0.4858215 0.7262899 -0.4862926
vn 0.4858273 0.7262899 0.4862868
vn -0.6871893 0.7262899 -0.01654762
vn 0.4858273 0.7262899 0.4862868
vn -0.6871893 0.7262899 -0.01654762
vn -0.0009746552 0.7262899 0.6873878
vn -0.4858215 0.7262899 0.4862926
vn -0.0009746552 0.7262899 0.6873878
vn -0.4858215 0.7262899 0.4862926
vn 0.09677672 0.9902186 -0.1005053
vn 0.09677672 0.9902186 -0.1005053
vn -0.0009746552 0.9902186 -0.139521
vn -0.0009746552 0.9902186 -0.139521
vn 0.1358773 0.9902186 -0.03169224
vn -0.096771 0.9902186 -0.1005109
vn 0.1358773 0.9902186 -0.03169224
vn -0.096771 0.9902186 -0.1005109
vn 0.09677672 0.9902186 0.1005053
vn -0.1358715 0.9902186 -0.03171762
vn 0.09677672 0.9902186 0.1005053
vn -0.1358715 0.9902186 -0.03171762
vn -0.0009746552 0.9902186 0.139521
vn -0.096771 0.9902186 0.1005109
vn -0.0009746552 0.9902186 0.139521
vn -0.096771 0.9902186 0.1005109
vn 0.7067454 0.002929688 -0.7074619
vn 0.7067454 0.002929688 -0.7074619
vn -0.0009746552 0.002929688 -0.9999952
vn -0.0009746552 0.002929688 -0.9999952
vn 0.9999957 0.002929676 0
vn -0.7067397 0.002929688 -0.7074676
vn 0.9999957 0.002929676 0
vn -0.7067397 0.002929688 -0.7074676
vn 0.7067454 0.002929688 0.7074619
vn -0.9999938 0.002929688 -0.001953125
vn 0.7067454 0.002929688 0.7074619
vn -0.9999938 0.002929688 -0.001953125
vn -0.0009746552 0.002929688 0.9999952
vn -0.7067397 0.002929688 0.7074676
vn -0.0009746552 0.002929688 0.9999952
vn -0.7067397 0.002929688 0.7074676
g nina_mic_stand_0
f 3/3/3 2/2/2 1/1/1
f 4/4/4 3/3/3 1/1/1
f 5/5/5 3/3/3 4/4/4
f 6/6/6 5/5/5 4/4/4
f 7/7/7 5/5/5 6/6/6
f 8/8/8 7/7/7 6/6/6
f 9/9/9 7/7/7 8/8/8
f 10/10/10 9/9/9 8/8/8
f 13/13/13 12/12/12 11/11/11
f 14/14/14 13/13/13 11/11/11
f 17/17/17 16/16/16 15/15/15
f 18/18/18 17/17/17 15/15/15
f 19/19/19 17/17/17 18/18/18
f 20/20/20 19/19/19 18/18/18
f 23/23/23 22/22/22 21/21/21
f 24/24/24 23/23/23 21/21/21
f 27/27/27 26/26/26 25/25/25
f 28/28/28 27/27/27 25/25/25
f 29/29/29 27/27/27 28/28/28
f 30/30/30 29/29/29 28/28/28
f 31/31/31 29/29/29 30/30/30
f 32/32/32 31/31/31 30/30/30
f 33/33/33 31/31/31 32/32/32
f 34/34/34 33/33/33 32/32/32
f 37/37/37 36/36/36 35/35/35
f 38/38/38 37/37/37 35/35/35
f 39/39/39 37/37/37 38/38/38
f 40/40/40 39/39/39 38/38/38
f 41/41/41 39/39/39 40/40/40
f 42/42/42 41/41/41 40/40/40
f 43/43/43 41/41/41 42/42/42
f 44/44/44 43/43/43 42/42/42
f 47/47/47 46/46/46 45/45/45
f 48/48/48 47/47/47 45/45/45
f 51/51/51 50/50/50 49/49/49
f 52/52/52 51/51/51 49/49/49
f 55/55/55 54/54/54 53/53/53
f 53/53/53 54/54/54 56/56/56
f 57/57/57 54/54/54 55/55/55
f 56/56/56 54/54/54 58/58/58
f 59/59/59 54/54/54 57/57/57
f 58/58/58 54/54/54 60/60/60
f 61/61/61 54/54/54 59/59/59
f 60/60/60 54/54/54 61/61/61
f 64/64/64 63/63/63 62/62/62
f 65/65/65 64/64/64 62/62/62
f 62/62/62 63/63/63 66/66/66
f 67/67/67 64/64/64 65/65/65
f 63/63/63 68/68/68 66/66/66
f 69/69/69 67/67/67 65/65/65
f 66/66/66 68/68/68 70/70/70
f 71/71/71 67/67/67 69/69/69
f 68/68/68 72/72/72 70/70/70
f 73/73/73 71/71/71 69/69/69
f 70/70/70 72/72/72 74/74/74
f 75/75/75 71/71/71 73/73/73
f 72/72/72 76/76/76 74/74/74
f 77/77/77 75/75/75 73/73/73
f 74/74/74 76/76/76 77/77/77
f 76/76/76 75/75/75 77/77/77
f 80/80/80 79/79/79 78/78/78
f 81/81/81 80/80/80 78/78/78
f 78/78/78 79/79/79 82/82/82
f 83/83/83 80/80/80 81/81/81
f 79/79/79 84/84/84 82/82/82
f 85/85/85 83/83/83 81/81/81
f 82/82/82 84/84/84 86/86/86
f 87/87/87 83/83/83 85/85/85
f 84/84/84 88/88/88 86/86/86
f 89/89/89 87/87/87 85/85/85
f 86/86/86 88/88/88 90/90/90
f 91/91/91 87/87/87 89/89/89
f 88/88/88 92/92/92 90/90/90
f 93/93/93 91/91/91 89/89/89
f 90/90/90 92/92/92 93/93/93
f 92/92/92 91/91/91 93/93/93
f 96/96/96 95/95/95 94/94/94
f 97/97/97 96/96/96 94/94/94
f 94/94/94 95/95/95 98/98/98
f 99/99/99 96/96/96 97/97/97
f 95/95/95 100/100/100 98/98/98
f 101/101/101 99/99/99 97/97/97
f 98/98/98 100/100/100 102/102/102
f 103/103/103 99/99/99 101/101/101
f 100/100/100 104/104/104 102/102/102
f 105/105/105 103/103/103 101/101/101
f 102/102/102 104/104/104 106/106/106
f 107/107/107 103/103/103 105/105/105
f 104/104/104 108/108/108 106/106/106
f 109/109/109 107/107/107 105/105/105
f 106/106/106 108/108/108 109/109/109
f 108/108/108 107/107/107 109/109/109
