g noel_tongue
v -0.1522226 0.07048477 -0.002804995
v -0.09818964 0.006600872 -0.002804995
v -6.258488E-07 -0.0069848 -0.002804995
v -6.258488E-07 0.09814279 -0.002804995
v -0.1852759 0.0838284 0.8751027
v -6.258488E-07 0.1263032 0.8751027
v -0.09818964 0.006600872 -0.002804995
v -0.2043895 0.08245422 1.618406
v -6.258488E-07 0.1234038 1.618406
v -0.1195103 -0.01427995 0.8751027
v -0.205467 0.07816248 2.175103
v -6.258488E-07 0.1143415 2.175103
v -6.258488E-07 -0.03514254 0.8751027
v -6.258488E-07 -0.0069848 -0.002804995
v -0.1318389 -0.01213017 1.618406
v -0.156025 0.06790037 2.453006
v -6.258488E-07 0.09268512 2.523576
v -0.1325338 -0.005412817 2.175103
v -0.1006413 0.01064795 2.428955
v -6.258488E-07 -0.001524508 2.486202
v -6.258488E-07 -0.02318351 2.175103
v -6.258488E-07 -0.03224322 1.618406
v 0.119509 -0.01427995 0.8751027
v 0.09818839 -0.0069848 -0.002804995
v 0.1522214 0.05690171 -0.002804995
v 0.1318377 -0.01213017 1.618406
v 0.1325326 -0.005412817 2.175103
v 0.1852772 0.0838284 0.8751027
v 0.1116101 0.01064795 2.355337
v -6.258488E-07 -0.001524508 2.486202
v 0.2043909 0.08245422 1.618406
v 0.1560264 0.06790037 2.453006
v -6.258488E-07 0.09268512 2.523576
v 0.2054657 0.07816248 2.175103
v -6.258488E-07 0.1143415 2.175103
v -6.258488E-07 0.1234038 1.618406
v -6.258488E-07 0.1263032 0.8751027
v -6.258488E-07 0.09814279 -0.002804995
v 0.09818839 -0.0069848 -0.002804995
v -6.258488E-07 -0.0069848 -0.002804995
vt 0.4374365 0.5756716
vt 0.4398711 0.5767523
vt 0.4408536 0.5754689
vt 0.4397728 0.5726167
vt 0.4264268 0.5660158
vt 0.4284562 0.5639741
vt 0.4365277 0.5768628
vt 0.411564 0.5544136
vt 0.4131574 0.5522951
vt 0.4251189 0.5676676
vt 0.3973398 0.5440118
vt 0.3985955 0.5411749
vt 0.4238232 0.5693961
vt 0.43545 0.5782751
vt 0.4103267 0.5561268
vt 0.3915894 0.5399622
vt 0.3886665 0.5365973
vt 0.3961271 0.5453382
vt 0.3909845 0.5407574
vt 0.3874753 0.538157
vt 0.3943034 0.5468548
vt 0.4089359 0.5580272
vt 0.4224938 0.5711001
vt 0.4343847 0.5796689
vt 0.4334759 0.5808602
vt 0.4074684 0.5598693
vt 0.3933271 0.5490131
vt 0.4212289 0.5727856
vt 0.3875398 0.5453689
vt 0.3841196 0.5425535
vt 0.4061421 0.5615088
vt 0.3869871 0.5460934
vt 0.3829314 0.544107
vt 0.3923692 0.5505329
vt 0.389953 0.552507
vt 0.4045026 0.563618
vt 0.4197829 0.5752847
vt 0.4311211 0.5839427
vt 0.435229 0.5828313
vt 0.4342343 0.5841361
vn -0.7262869 0.6813221 -0.09114574
vn -0.4975526 -0.8592135 -0.1191369
vn -0.03030896 -0.9901981 -0.136342
vn 0.02052093 0.9960761 -0.08608891
vn -0.7321519 0.6793671 -0.04913326
vn 0.01074547 0.9999423 0
vn -0.4975526 -0.8592135 -0.1191369
vn -0.7216018 0.6923084 0
vn 0.0009709597 0.9999862 0.005167483
vn -0.5073276 -0.8611684 -0.03174391
vn -0.6715471 0.7399719 0.03829118
vn 0.0009709597 0.9999862 0.005167483
vn -0.01662212 -0.9998618 0
vn -0.03030896 -0.9901981 -0.136342
vn -0.4954099 -0.8686593 0
vn -0.5073276 0.8318566 0.2250185
vn 0.02834088 0.9530662 0.3014325
vn -0.4584527 -0.8885384 0.01790901
vn -0.4134878 -0.8787634 0.238333
vn 0.03811586 -0.9080883 0.4170405
vn 0.0009709597 -0.9999731 0.007275227
vn 0.0009709597 -0.9999731 0.007275227
vn 0.4954 -0.8686649 0
vn 0.4682146 -0.8748534 -0.1241231
vn 0.7497338 0.6539521 -0.1012218
vn 0.4954 -0.8686649 0
vn 0.4584396 -0.8885384 0.01823879
vn 0.7399588 0.6715471 -0.03854214
vn 0.4291147 -0.8846284 0.182464
vn 0.03811586 -0.9080883 0.4170405
vn 0.7215955 0.6923149 0
vn 0.4408447 0.8611815 0.2530264
vn 0.02834088 0.9530662 0.3014325
vn 0.6539391 0.7556119 0.03760875
vn 0.0009709597 0.9999862 0.005167483
vn 0.0009709597 0.9999862 0.005167483
vn 0.01074547 0.9999423 0
vn 0.02052093 0.9960761 -0.08608891
vn 0.4682146 -0.8748534 -0.1241231
vn -0.03030896 -0.9901981 -0.136342
g noel_tongue_0
f 3/3/3 2/2/2 1/1/1
f 4/4/4 3/3/3 1/1/1
f 4/4/4 1/1/1 5/5/5
f 6/6/6 4/4/4 5/5/5
f 5/5/5 1/1/1 7/7/7
f 6/6/6 5/5/5 8/8/8
f 9/9/9 6/6/6 8/8/8
f 10/10/10 5/5/5 7/7/7
f 8/8/8 5/5/5 10/10/10
f 9/9/9 8/8/8 11/11/11
f 12/12/12 9/9/9 11/11/11
f 13/13/13 10/10/10 7/7/7
f 14/14/14 13/13/13 7/7/7
f 15/15/15 8/8/8 10/10/10
f 11/11/11 8/8/8 15/15/15
f 12/12/12 11/11/11 16/16/16
f 17/17/17 12/12/12 16/16/16
f 16/16/16 11/11/11 18/18/18
f 18/18/18 11/11/11 15/15/15
f 17/17/17 16/16/16 19/19/19
f 19/19/19 16/16/16 18/18/18
f 20/20/20 17/17/17 19/19/19
f 20/20/20 19/19/19 18/18/18
f 21/21/21 20/20/20 18/18/18
f 21/21/21 18/18/18 15/15/15
f 22/22/22 15/15/15 10/10/10
f 13/13/13 22/22/22 10/10/10
f 22/22/22 21/21/21 15/15/15
f 23/23/23 13/13/13 14/14/14
f 24/24/24 23/23/23 14/14/14
f 24/24/24 25/25/25 23/23/23
f 26/26/26 22/22/22 13/13/13
f 23/23/23 26/26/26 13/13/13
f 27/27/27 21/21/21 22/22/22
f 26/26/26 27/27/27 22/22/22
f 23/23/23 28/28/28 26/26/26
f 25/25/25 28/28/28 23/23/23
f 27/27/27 29/29/29 21/21/21
f 29/29/29 30/30/30 21/21/21
f 26/26/26 31/31/31 27/27/27
f 28/28/28 31/31/31 26/26/26
f 29/29/29 32/32/32 30/30/30
f 32/32/32 33/33/33 30/30/30
f 27/27/27 34/34/34 29/29/29
f 34/34/34 32/32/32 29/29/29
f 32/32/32 34/34/34 33/33/33
f 31/31/31 34/34/34 27/27/27
f 34/34/34 35/35/35 33/33/33
f 34/34/34 31/31/31 35/35/35
f 31/31/31 36/36/36 35/35/35
f 31/31/31 28/28/28 36/36/36
f 28/28/28 37/37/37 36/36/36
f 28/28/28 25/25/25 37/37/37
f 25/25/25 38/38/38 37/37/37
f 25/25/25 39/39/39 38/38/38
f 39/39/39 40/40/40 38/38/38
