g poof10_mesh
v 1.837666 -5.378176 0.2670627
v 2.337165 -5.123434 -0.03405046
v 2.485325 -5.624444 -0.03015089
v 1.733385 -6.571252 -0.02421331
v 1.351873 -6.090547 0.3000784
v 1.929045 -5.075025 -0.03394794
v 2.337165 -5.123434 -0.03405046
v 1.301544 -5.622934 -0.03428507
v 0.1871214 -5.733811 -0.0340066
v 0.03409433 -6.278847 0.2773838
v 0.1156807 -7.017226 -0.02565002
v -0.8312302 -5.630074 -0.03362513
v -1.311496 -6.084301 0.2521825
v -1.585707 -6.564112 -0.02611923
v -1.475386 -5.138109 -0.03267241
v -2.043966 -5.876811 -0.02660275
v -1.750668 -5.384744 0.1410847
v -1.86675 -5.069087 -0.03278971
v -2.125142 -5.427582 -0.02739477
v 6.381852 0.3225384 -0.03437281
v 6.406585 0.6281962 0.1951089
v 6.634674 0.3953133 -0.03237915
v 6.233253 0.4992862 -0.03462219
v 6.286089 0.7543359 -0.03487158
v 6.406585 0.6281962 0.1951089
v 6.233253 0.4992862 -0.03462219
v 6.515307 1.019047 0.2917953
v 6.634674 0.3953133 -0.03237915
v 6.79701 0.649117 -0.03006268
v 6.200442 1.039528 -0.03500319
v 6.973171 1.152311 -0.0261631
v 6.216408 1.408138 0.1673121
v 5.785739 1.332373 -0.03498888
v 5.587763 1.735523 -0.03528214
v 6.500588 1.768509 0.1872067
v 6.75577 1.761589 -0.02595806
v 6.194813 1.946532 0.1514058
v 5.666652 2.224849 -0.03384542
v 6.408535 2.209118 -0.02522469
v 0.9507165 5.428517 0.5113811
v 0.488308 4.58385 -0.01865673
v -0.1193724 5.647766 -0.01906729
v 1.455098 4.370919 -0.02440405
v 2.199444 4.969437 -0.03082514
v 2.5486 6.527033 -0.03391838
v 0.3905807 6.164141 0.1942291
v 0.4499998 7.289851 -0.01905251
v 2.356987 8.355469 -0.01981497
v 1.388774 7.396653 0.4586616
v 2.363921 7.755808 0.3421688
v 3.265326 7.70948 0.1525636
v 3.223499 6.634568 -0.03586817
v 4.181654 7.915579 -0.01908207
v 4.057553 7.308324 0.1360121
v 3.687168 6.594486 -0.03645468
v 4.488749 7.352598 -0.02082682
v 4.465644 6.693431 -0.0350914
v -6.176909 -1.122568 0.2368326
v -6.004604 -1.000387 -0.03657198
v -5.820908 -1.235454 -0.03306818
v -6.223442 -1.346786 -0.03280449
v -6.44964 -0.8968682 0.3416705
v -6.302316 -0.4547353 -0.03770113
v -6.515598 -1.339617 -0.04029608
v -7.041384 -0.8804483 -0.04255342
v -7.341236 -0.2542229 -0.03229141
v -6.310746 0.4489565 -0.03880072
v -7.390467 0.5230069 -0.03380108
v -6.901302 0.5077453 0.3008113
v -6.488446 1.227476 -0.03957748
v -7.219319 1.118724 -0.03592682
v -6.954447 0.9107785 0.2839518
v -6.789164 1.512198 -0.04240704
v -5.574184 3.729945 -0.0238905
v -5.28977 3.382299 0.4173188
v -5.906158 2.598355 -0.04041338
v -5.154058 2.680058 -0.03880072
v -3.919814 3.125842 0.3167472
v -4.446319 2.287932 -0.03818464
v -3.57535 1.987919 -0.03733444
v -2.581775 2.295996 -0.03278971
v -4.79093 4.42877 -0.02516603
v -2.435213 3.056806 -0.03079605
v -4.680433 3.648946 0.4187555
v -3.910563 3.849619 0.4283142
v -3.201036 4.131733 -0.02450657
v -3.32634 3.637877 0.2751698
v 4.160323 -2.728866 -0.03663063
v 4.072008 -2.837281 -0.03664541
v 4.003983 -2.688579 0.2226558
v 4.12549 -2.5972 -0.03674793
v 3.837249 -2.841885 -0.03778887
v 4.014627 -2.493007 -0.03733444
v 3.788297 -2.683477 -0.03748083
v 3.848874 -2.488653 -0.03761292
vt 0.8524455 0.8827038
vt 0.7072771 0.8669093
vt 0.6794991 0.8755546
vt 0.7072998 0.8673918
vt 0.8523225 0.8832705
vt 0.6871082 0.8515422
vt 0.6872539 0.8510532
vt 0.6869171 0.8521866
vt 0.6867617 0.8526981
vt 0.8522448 0.8836428
vt 0.7073937 0.8674501
vt 0.6865545 0.8533911
vt 0.8521541 0.8840573
vt 0.7075394 0.8675342
vt 0.6860332 0.8551233
vt 0.7075945 0.8675666
vt 0.78692 0.8751757
vt 0.7106608 0.8632149
vt 0.7076818 0.8676184
vt 0.6891448 0.8527305
vt 0.8675569 0.884394
vt 0.7337114 0.8697069
vt 0.6903234 0.8537796
vt 0.6891254 0.8573672
vt 0.8696454 0.8549387
vt 0.6888858 0.8572279
vt 0.8786694 0.8687226
vt 0.7076916 0.866388
vt 0.707698 0.8663589
vt 0.6892387 0.8574352
vt 0.7077045 0.8663394
vt 0.8852715 0.8663232
vt 0.6893002 0.8574708
vt 0.6898701 0.8578011
vt 0.8674338 0.8697652
vt 0.707711 0.8663232
vt 0.8704063 0.8673756
vt 0.7516203 0.8598216
vt 0.7077175 0.8663006
vt 0.8906853 0.8722227
vt 0.8353462 0.8658667
vt 0.8301461 0.8658732
vt 0.7850776 0.8692471
vt 0.7465432 0.8718407
vt 0.7126617 0.8636034
vt 0.8681948 0.8699821
vt 0.823871 0.8658829
vt 0.8113338 0.8659023
vt 0.8901575 0.8685347
vt 0.8800164 0.862496
vt 0.8788443 0.8543041
vt 0.6906375 0.8582447
vt 0.7557389 0.8659671
vt 0.8739032 0.8546506
vt 0.6904594 0.8581411
vt 0.7077984 0.8660189
vt 0.7547352 0.8598053
vt 0.8535399 0.8574837
vt 0.6853014 0.8552043
vt 0.708106 0.8639531
vt 0.7021774 0.8662423
vt 0.8535627 0.857542
vt 0.6870143 0.8551427
vt 0.7086694 0.8669028
vt 0.7086726 0.8668834
vt 0.7086759 0.8668672
vt 0.6878691 0.8551103
vt 0.7086824 0.8668478
vt 0.856221 0.8574352
vt 0.6883774 0.8550942
vt 0.7086921 0.8668219
vt 0.8573186 0.8573931
vt 0.766097 0.8579306
vt 0.7087374 0.8666664
vt 0.870675 0.8568556
vt 0.7375969 0.8585037
vt 0.7008693 0.8540062
vt 0.8830633 0.867382
vt 0.7083521 0.8532907
vt 0.7156827 0.8525913
vt 0.7378786 0.8504769
vt 0.7087569 0.8666049
vt 0.7628397 0.8464069
vt 0.8912681 0.8676217
vt 0.8916955 0.8676054
vt 0.7087892 0.8664916
vt 0.8853006 0.8670485
vt 0.7072933 0.8668834
vt 0.7072836 0.8668964
vt 0.86304 0.8838857
vt 0.7073257 0.8668283
vt 0.6873316 0.8511212
vt 0.753058 0.8718277
vt 0.6880925 0.851798
vt 0.7138436 0.8571568
vn 0.1051561 -0.01962 0.9942622
vn 0.4563043 0.1424484 0.8783478
vn 0.4563043 0.1424484 0.8783478
vn 0.3737695 -0.2507176 0.8929933
vn -0.05991358 0.1514522 0.9866471
vn -0.5866359 0.5341138 0.6087534
vn 0.4563043 0.1424484 0.8783478
vn -0.07491994 0.5416169 0.8372802
vn -0.07491994 0.5416169 0.8372802
vn 0.009115577 0.05241042 0.998584
vn -0.1184383 -0.4457999 0.8872625
vn 0.244715 0.3180225 0.9159564
vn -0.4080606 -0.2717264 0.8715798
vn -0.4080606 -0.2717264 0.8715798
vn 0.2822309 0.3210238 0.9040406
vn -0.4080606 -0.2717264 0.8715798
vn -0.3840504 -0.08414721 0.9194697
vn 0.08864915 0.5056018 0.8582005
vn -0.3840504 -0.08414721 0.9194697
vn 0.1666821 -0.6003652 0.7821628
vn -0.2024738 -0.1816884 0.9622857
vn 0.1666821 -0.6003652 0.7821628
vn -0.8297385 0.1724611 0.5308401
vn -0.8537487 0.1109351 0.5087304
vn -0.2024738 -0.1816884 0.9622857
vn -0.8297385 0.1724611 0.5308401
vn -0.2024738 -0.1816884 0.9622857
vn 0.1666821 -0.6003652 0.7821628
vn 0.4953208 -0.3242486 0.8059281
vn -0.5116042 -0.396279 0.7623806
vn 0.5988645 -0.216203 0.7711145
vn -0.3450339 -0.1141599 0.9316218
vn -0.3345295 -0.06163776 0.9403674
vn -0.3345295 -0.06163776 0.9403674
vn 0.4022815 0.4650846 0.7885848
vn 0.4022815 0.4650846 0.7885848
vn -0.2564965 0.01339394 0.9664524
vn -0.3090187 0.04640788 0.949923
vn 0.4022815 0.4650846 0.7885848
vn -0.2910112 -0.3887758 0.8741658
vn -0.2910112 -0.3887758 0.8741658
vn -0.4710871 -0.2687252 0.840157
vn 0.2717264 -0.3287505 0.9044821
vn 0.2717264 -0.3287505 0.9044821
vn 0.2071992 -0.2582207 0.9436051
vn -0.4335713 0.0569123 0.8993202
vn -0.4425751 0.4710871 0.7630231
vn 0.1426719 0.5911378 0.7938519
vn 0.07214218 0.1274421 0.9892189
vn 0.07214218 0.1274421 0.9892189
vn 0.1426719 0.5911378 0.7938519
vn 0.1366694 -0.2207049 0.9657178
vn 0.1426719 0.5911378 0.7938519
vn 0.244715 -0.03012443 0.9691269
vn 0.03462631 -0.2882334 0.9569339
vn 0.244715 -0.03012443 0.9691269
vn 0.244715 -0.03012443 0.9691269
vn 0.2297087 -0.2252068 0.9468452
vn 0.6468848 0.3900529 0.6552852
vn 0.5553461 -0.1876909 0.8101622
vn -0.1814649 -0.6813993 0.7090595
vn -0.4710871 -0.5358379 0.7006816
vn 0.6468848 0.3900529 0.6552852
vn -0.4710871 -0.5358379 0.7006816
vn -0.4710871 -0.5358379 0.7006816
vn -0.5296118 -0.2672245 0.805048
vn 0.5088265 0.1124358 0.8534951
vn -0.6376574 0.08992624 0.7650532
vn -0.05841297 0.1244408 0.9905061
vn 0.5088265 0.1124358 0.8534951
vn -0.6376574 0.08992624 0.7650532
vn -0.05841297 0.1244408 0.9905061
vn -0.04640788 0.4860935 0.8726737
vn -0.4665853 0.5236093 0.7128334
vn -0.4665853 0.5236093 0.7128334
vn -0.3810492 -0.2252068 0.896707
vn 0.05713582 -0.5358379 0.8423855
vn 0.1981954 -0.1516758 0.9683558
vn -0.1139364 -0.3257492 0.9385659
vn -0.1139364 -0.3257492 0.9385659
vn 0.08114594 -0.273227 0.9585209
vn -0.4665853 0.5236093 0.7128334
vn 0.2222055 -0.09915358 0.969945
vn -0.05241042 0.1544535 0.986609
vn 0.2627226 0.5791328 0.7717396
vn 0.2627226 0.5791328 0.7717396
vn 0.3677669 0.4125625 0.8333905
vn 0.6753968 -0.5493436 0.4919967
vn 0.6753968 -0.5493436 0.4919967
vn -0.7502049 -0.2327099 0.6189011
vn 0.5913613 0.6331556 0.4994054
vn -0.7502049 -0.2327099 0.6189011
vn 0.01962 0.7982253 0.6020395
vn -0.7502049 -0.2327099 0.6189011
vn -0.7472037 0.2324864 0.6226048
g poof10_mesh_0
f 3/3/3 2/2/2 1/1/1
f 1/1/1 4/4/4 3/3/3
f 4/4/4 1/1/1 5/5/5
f 5/5/5 1/1/1 6/6/6
f 6/6/6 1/1/1 7/7/7
f 8/8/8 5/5/5 6/6/6
f 8/8/8 9/9/9 5/5/5
f 5/5/5 10/10/10 4/4/4
f 9/9/9 10/10/10 5/5/5
f 10/10/10 11/11/11 4/4/4
f 9/9/9 12/12/12 10/10/10
f 10/10/10 13/13/13 11/11/11
f 12/12/12 13/13/13 10/10/10
f 11/11/11 13/13/13 14/14/14
f 15/15/15 13/13/13 12/12/12
f 13/13/13 16/16/16 14/14/14
f 17/17/17 13/13/13 15/15/15
f 13/13/13 17/17/17 16/16/16
f 17/17/17 15/15/15 18/18/18
f 17/17/17 19/19/19 16/16/16
f 19/19/19 17/17/17 18/18/18
f 22/22/22 21/21/21 20/20/20
f 21/21/21 23/23/23 20/20/20
f 26/26/26 25/25/25 24/24/24
f 24/24/24 25/25/25 27/27/27
f 27/27/27 25/25/25 28/28/28
f 29/29/29 27/27/27 28/28/28
f 30/30/30 24/24/24 27/27/27
f 31/31/31 27/27/27 29/29/29
f 30/30/30 27/27/27 32/32/32
f 33/33/33 30/30/30 32/32/32
f 33/33/33 32/32/32 34/34/34
f 27/27/27 31/31/31 35/35/35
f 27/27/27 35/35/35 32/32/32
f 31/31/31 36/36/36 35/35/35
f 32/32/32 37/37/37 34/34/34
f 35/35/35 37/37/37 32/32/32
f 35/35/35 36/36/36 37/37/37
f 34/34/34 37/37/37 38/38/38
f 36/36/36 39/39/39 37/37/37
f 39/39/39 38/38/38 37/37/37
f 42/42/42 41/41/41 40/40/40
f 40/40/40 41/41/41 43/43/43
f 40/40/40 43/43/43 44/44/44
f 45/45/45 40/40/40 44/44/44
f 46/46/46 42/42/42 40/40/40
f 46/46/46 47/47/47 42/42/42
f 47/47/47 46/46/46 48/48/48
f 40/40/40 49/49/49 46/46/46
f 49/49/49 40/40/40 45/45/45
f 46/46/46 49/49/49 48/48/48
f 50/50/50 49/49/49 45/45/45
f 49/49/49 50/50/50 48/48/48
f 51/51/51 50/50/50 45/45/45
f 50/50/50 51/51/51 48/48/48
f 52/52/52 51/51/51 45/45/45
f 51/51/51 53/53/53 48/48/48
f 54/54/54 51/51/51 52/52/52
f 53/53/53 51/51/51 54/54/54
f 55/55/55 54/54/54 52/52/52
f 53/53/53 54/54/54 56/56/56
f 57/57/57 54/54/54 55/55/55
f 56/56/56 54/54/54 57/57/57
f 60/60/60 59/59/59 58/58/58
f 60/60/60 58/58/58 61/61/61
f 58/58/58 59/59/59 62/62/62
f 58/58/58 62/62/62 61/61/61
f 59/59/59 63/63/63 62/62/62
f 64/64/64 61/61/61 62/62/62
f 65/65/65 64/64/64 62/62/62
f 66/66/66 65/65/65 62/62/62
f 62/62/62 63/63/63 67/67/67
f 66/66/66 62/62/62 68/68/68
f 69/69/69 62/62/62 67/67/67
f 62/62/62 69/69/69 68/68/68
f 69/69/69 67/67/67 70/70/70
f 68/68/68 69/69/69 71/71/71
f 72/72/72 69/69/69 70/70/70
f 69/69/69 72/72/72 71/71/71
f 73/73/73 72/72/72 70/70/70
f 71/71/71 72/72/72 73/73/73
f 76/76/76 75/75/75 74/74/74
f 77/77/77 75/75/75 76/76/76
f 77/77/77 78/78/78 75/75/75
f 77/77/77 79/79/79 78/78/78
f 79/79/79 80/80/80 78/78/78
f 80/80/80 81/81/81 78/78/78
f 75/75/75 82/82/82 74/74/74
f 78/78/78 81/81/81 83/83/83
f 75/75/75 84/84/84 82/82/82
f 78/78/78 84/84/84 75/75/75
f 84/84/84 85/85/85 82/82/82
f 78/78/78 85/85/85 84/84/84
f 85/85/85 86/86/86 82/82/82
f 87/87/87 78/78/78 83/83/83
f 87/87/87 83/83/83 86/86/86
f 87/87/87 86/86/86 85/85/85
f 85/85/85 78/78/78 87/87/87
f 90/90/90 89/89/89 88/88/88
f 91/91/91 90/90/90 88/88/88
f 92/92/92 89/89/89 90/90/90
f 91/91/91 93/93/93 90/90/90
f 92/92/92 90/90/90 94/94/94
f 95/95/95 90/90/90 93/93/93
f 94/94/94 90/90/90 95/95/95
