g poof16_mesh
v 0.4270381 5.655337 -0.1722209
v 0.3890507 5.482873 -0.3955311
v 0.2915067 5.574959 -0.3950262
v 0.5457807 5.495712 -0.3938119
v 0.256114 5.704157 -0.3950709
v 0.665303 5.59571 -0.3915304
v 0.2478953 5.83724 -0.3943935
v 0.6108719 5.727983 -0.3902969
v 0.3427232 6.002579 -0.3939909
v 0.5883759 5.870141 -0.3893767
v 0.4838403 6.036016 -0.3932495
v 0.5743991 5.975878 -0.3896387
vt 0.881425 0.8668165
vt 0.8353461 0.8658674
vt 0.8301466 0.8658732
vt 0.7850749 0.8692473
vt 0.82387 0.8658849
vt 0.7465419 0.8718413
vt 0.8113343 0.8659053
vt 0.7126639 0.8636025
vt 0.7557385 0.8659664
vt 0.6906376 0.8582429
vt 0.7077993 0.8660188
vt 0.754737 0.8598062
vn -0.2166769 -0.754579 0.6194043
vn -0.2227472 -0.7530614 0.6190979
vn -0.5657219 -0.6028203 0.5626423
vn 0.4707902 -0.5770213 0.6673852
vn -0.7979128 -0.05193609 0.6005313
vn 0.4707902 -0.5770213 0.6673852
vn -0.5824154 0.3320135 0.7419968
vn 0.6878052 0.2758628 0.6714341
vn -0.5824154 0.3320135 0.7419968
vn 0.7485086 0.09982264 0.6555687
vn 0.03372502 0.4974305 0.8668481
vn 0.2674335 0.4534205 0.8502289
g poof16_mesh_0
f 3/3/3 2/2/2 1/1/1
f 1/1/1 2/2/2 4/4/4
f 1/1/1 5/5/5 3/3/3
f 1/1/1 4/4/4 6/6/6
f 5/5/5 1/1/1 7/7/7
f 8/8/8 1/1/1 6/6/6
f 1/1/1 9/9/9 7/7/7
f 10/10/10 1/1/1 8/8/8
f 1/1/1 11/11/11 9/9/9
f 12/12/12 1/1/1 10/10/10
f 11/11/11 1/1/1 12/12/12
