g poof06_mesh
v -0.9503422 -2.323189 1.746507
v -0.8783946 -4.310114 -0.1704035
v -1.528824 -3.311943 -0.02701759
v -2.911642 -3.225015 -0.2868023
v -2.741809 -1.199533 1.561747
v 0.2816672 -4.791003 -0.2255206
v -4.512548 -2.354147 -0.3040175
v 0.800312 -3.163827 0.5162444
v 1.81022 -4.558028 -0.2457609
v 1.704903 -1.493124 1.361705
v 2.575355 -3.635619 -0.3744268
v 3.178235 -2.539012 -0.271677
v 4.359098 -2.382569 -0.3875461
v -3.980462 1.038559 0.4483719
v -5.202128 -0.7545714 -0.3134255
v -5.32097 1.240534 -0.3231349
v -2.619901 1.360749 0.2964196
v -4.310459 2.626689 -0.325048
v -3.133629 2.839798 -0.06137466
v -2.48794 2.122702 -0.3274074
v -2.225202 2.462637 -0.4306874
v -0.03700876 2.326393 0.4028807
v -1.918149 2.709729 -0.4671135
v -1.242801 2.705654 -0.5141845
v -0.5570574 2.509459 -0.6814599
v -0.4282665 3.494989 -0.6704822
v 0.1028528 4.607803 -0.6977496
v 1.146942 5.404571 -0.6827593
v -1.692045 0.5082707 -0.1991367
v -1.351341 -1.032248 -0.2455635
v -0.5634193 -1.588285 -0.1637297
v 0.8494 -1.127564 -0.3979831
v -0.1070437 1.254277 -0.3815579
v 3.106526 1.781457 0.8581443
v 1.505433 0.2063007 -0.3904877
v 2.622093 3.429122 0.1865077
v 2.548482 5.434354 -0.7559648
v 4.078085 3.094396 0.226759
v 4.075944 4.71522 -0.6158843
v 5.436151 3.405712 -0.6439004
v 4.055163 1.554449 0.3133335
v 5.466174 1.216801 -0.4970322
v 4.642699 -0.1454229 -0.4266539
v 3.326943 -0.6067362 0.4669485
v 4.985129 -1.454671 -0.4169445
vt 0.8535204 0.8334422
vt 0.7082258 0.843129
vt 0.6831576 0.8507961
vt 0.7086506 0.8429773
vt 0.8535609 0.8335602
vt 0.7080674 0.8430717
vt 0.7087181 0.8427413
vt 0.888997 0.8481662
vt 0.7079021 0.8430144
vt 0.8534766 0.8320632
vt 0.707801 0.8429773
vt 0.6825608 0.855921
vt 0.7076594 0.8425086
vt 0.8895432 0.8384525
vt 0.7087383 0.8426839
vt 0.7087552 0.8426232
vt 0.8810163 0.8337018
vt 0.7087889 0.8425086
vt 0.7628399 0.822427
vt 0.7787945 0.8221775
vt 0.7869775 0.8220494
vt 0.8826077 0.8493969
vt 0.7902446 0.8219988
vt 0.7923688 0.8219685
vt 0.7948604 0.8570607
vt 0.8353472 0.8418849
vt 0.8238701 0.8419017
vt 0.8113343 0.8419219
vt 0.6969611 0.830809
vt 0.6900728 0.8310517
vt 0.6842803 0.8312574
vt 0.6842601 0.8305662
vt 0.6982255 0.8386582
vt 0.903522 0.8351078
vt 0.6906359 0.8342615
vt 0.8965461 0.8395618
vt 0.7816402 0.8419557
vt 0.8910402 0.8396832
vt 0.7557392 0.8419826
vt 0.7077976 0.8420366
vt 0.8899612 0.8394471
vt 0.7077302 0.8422726
vt 0.7076897 0.8424041
vt 0.8797451 0.8423805
vt 0.7076762 0.8424513
vn -0.02715075 -0.6118186 0.7905319
vn -0.0254997 -0.6118186 0.790587
vn -0.684282 -0.5193579 0.5118842
vn -0.3771805 -0.6068653 0.6996065
vn -0.02880186 0.04861486 0.9984023
vn 0.08182079 -0.5969589 0.7980887
vn -0.3441588 -0.6167719 0.7079175
vn 0.3096703 -0.4335016 0.8462746
vn 0.3096703 -0.4335016 0.8462746
vn 0.362505 -0.4235951 0.830155
vn 0.3641561 -0.4235951 0.8294321
vn 0.4301994 -0.3509474 0.8317237
vn 0.4153396 -0.3162746 0.8529146
vn -0.6132855 -0.07851857 0.785949
vn -0.6132855 -0.07851857 0.785949
vn -0.2219786 0.3887381 0.8942081
vn -0.2269319 0.3474609 0.9098203
vn -0.2269319 0.3491121 0.9091879
vn -0.2417916 0.1476799 0.9590243
vn 0.6844663 0.387087 0.6177941
vn -0.525778 0.5918214 0.6109868
vn 0.2040009 0.9699195 0.1328148
vn -0.2599536 0.5753105 0.7755269
vn 0.1297022 0.9649662 0.2280735
vn 0.2814718 0.9595695 0
vn -0.7519764 0.2913241 0.591322
vn -0.6941885 0.3474609 0.6303754
vn -0.07173002 0.3557164 0.9318373
vn 0.580448 -0.04549694 0.8130253
vn 0.719139 0.2335362 0.6544462
vn 0.04384583 0.9253402 0.3765939
vn -0.567055 0.7040951 0.4274327
vn -0.07998544 -0.4962428 0.8644915
vn 0.5622861 0.0007334352 0.8269424
vn -0.781696 0.4002957 0.4782412
vn -0.07173002 0.3557164 0.9318373
vn 0.03889257 0.426713 0.9035504
vn 0.5044982 0.129518 0.8536432
vn 0.4202929 0.4184576 0.8051379
vn 0.4978938 0.1592374 0.8524935
vn 0.5193579 0.05521917 0.8527709
vn 0.5193579 0.05521917 0.8527709
vn 0.4450592 -0.223814 0.8670811
vn 0.4665233 -0.243627 0.8502952
vn 0.5622861 0.0007334352 0.8269424
g poof06_mesh_0
f 3/3/3 2/2/2 1/1/1
f 1/1/1 4/4/4 3/3/3
f 1/1/1 5/5/5 4/4/4
f 1/1/1 2/2/2 6/6/6
f 7/7/7 4/4/4 5/5/5
f 8/8/8 1/1/1 6/6/6
f 8/8/8 6/6/6 9/9/9
f 8/8/8 9/9/9 10/10/10
f 10/10/10 1/1/1 8/8/8
f 9/9/9 11/11/11 10/10/10
f 10/10/10 11/11/11 12/12/12
f 12/12/12 13/13/13 10/10/10
f 5/5/5 14/14/14 7/7/7
f 14/14/14 15/15/15 7/7/7
f 14/14/14 16/16/16 15/15/15
f 14/14/14 17/17/17 16/16/16
f 5/5/5 17/17/17 14/14/14
f 17/17/17 18/18/18 16/16/16
f 19/19/19 18/18/18 17/17/17
f 17/17/17 20/20/20 19/19/19
f 17/17/17 21/21/21 20/20/20
f 17/17/17 22/22/22 21/21/21
f 22/22/22 23/23/23 21/21/21
f 22/22/22 24/24/24 23/23/23
f 25/25/25 24/24/24 22/22/22
f 22/22/22 26/26/26 25/25/25
f 27/27/27 26/26/26 22/22/22
f 28/28/28 27/27/27 22/22/22
f 29/29/29 17/17/17 5/5/5
f 17/17/17 29/29/29 22/22/22
f 30/30/30 29/29/29 5/5/5
f 31/31/31 30/30/30 5/5/5
f 1/1/1 31/31/31 5/5/5
f 31/31/31 1/1/1 32/32/32
f 1/1/1 10/10/10 32/32/32
f 29/29/29 33/33/33 22/22/22
f 34/34/34 22/22/22 33/33/33
f 35/35/35 34/34/34 33/33/33
f 32/32/32 10/10/10 35/35/35
f 10/10/10 34/34/34 35/35/35
f 22/22/22 36/36/36 28/28/28
f 22/22/22 34/34/34 36/36/36
f 36/36/36 37/37/37 28/28/28
f 36/36/36 38/38/38 37/37/37
f 36/36/36 34/34/34 38/38/38
f 38/38/38 39/39/39 37/37/37
f 38/38/38 40/40/40 39/39/39
f 40/40/40 38/38/38 41/41/41
f 41/41/41 38/38/38 34/34/34
f 42/42/42 40/40/40 41/41/41
f 41/41/41 43/43/43 42/42/42
f 41/41/41 34/34/34 43/43/43
f 34/34/34 10/10/10 44/44/44
f 34/34/34 44/44/44 43/43/43
f 13/13/13 44/44/44 10/10/10
f 44/44/44 45/45/45 43/43/43
f 44/44/44 13/13/13 45/45/45
