g poof04_mesh
v -1.055694 2.104888 -0.1298962
v -1.496726 2.097739 -0.1298962
v -1.834398 2.231359 -0.1298962
v -1.605028 3.152891 0.2107682
v -0.7594385 2.498966 -0.1298962
v -2.055483 2.655169 -0.1298962
v -0.6500673 3.000885 -0.1298962
v -1.996696 3.104583 -0.1298962
v -1.096299 3.547402 -0.1298962
v -1.767067 3.58603 -0.1298962
v 2.551078 0.2610536 -0.1298285
v 3.270696 -0.3421669 0.6346326
v 1.18475 0.3890686 -0.1298285
v 5.303108 0.5518122 0.6086502
v 3.950089 0.4925771 -0.1298285
v 3.8908 -0.5559807 -0.1298285
v 4.539824 1.500314 -0.1298285
v 5.028881 -0.1205812 -0.1298285
v 5.908196 0.1770554 -0.1298285
v 4.608618 1.971566 -0.1298285
v 6.209177 0.8351102 -0.1298285
v 5.546316 1.680171 0.5827227
v 6.373193 2.023449 -0.1298285
v 4.592452 3.558897 -0.1298285
v 5.857302 3.581305 -0.1298285
v 5.125051 3.643762 0.6974144
v 4.850418 5.377522 0.919826
v 6.281424 5.654618 -0.1298285
v 5.207195 7.041716 -0.1298285
v 3.956331 4.02518 -0.1298285
v 3.186441 7.809765 -0.1298285
v 4.447824 4.400614 0.9489222
v 2.750107 2.860874 -0.1298285
v 2.772325 4.367185 0.7443013
v 3.17959 6.695189 1.042439
v 0.8465228 5.440967 0.8716664
v 1.36963 7.317865 -0.1298285
v -0.1361256 5.625536 -0.1298285
v -0.4994688 4.055861 -0.1298285
v 0.09040165 2.77326 -0.1298285
v 1.335999 2.370382 -0.1298285
v 1.455768 3.835683 0.8486223
v 1.18475 0.3890686 -0.1298285
v 3.270696 -0.3421669 0.6346326
v 2.259967 -0.2424221 -0.1298285
v 2.577317 -0.7812085 -0.1298285
v 3.461737 -2.000079 0.8786259
v 3.8908 -0.5559807 -0.1298285
v 2.345157 -1.47911 -0.1298285
v 2.872814 -3.377806 0.8002734
v 1.97786 -2.152167 -0.1298285
v 4.085253 -1.983466 -0.1298285
v 3.708127 -1.265838 -0.1298285
v 3.914535 -2.805131 -0.1298285
v 3.167661 -3.463321 -0.1298285
v 2.402226 -4.86324 -0.1298285
v 1.593613 -5.941395 -0.1298285
v 1.135778 -3.446302 0.6208224
v 1.21543 -1.993119 -0.1298285
v -0.2324586 -1.848627 -0.1298285
v 1.070694 -5.359716 0.8883471
v -0.1568136 -6.387301 -0.1298285
v -0.7974572 -3.308444 0.5378261
v -1.050075 -2.494307 -0.1298285
v -1.171293 -5.109549 0.760603
v -1.900471 -5.73997 -0.1298285
v -2.491005 -4.59971 -0.1298285
v -1.801064 -2.932956 0.4642935
v -1.30861 -2.146385 -0.1298285
v -1.896977 -4.11286 0.5149174
v -2.594851 -3.138674 -0.1298285
v -1.682026 -1.785425 0.4767904
v -0.8588853 -1.027395 -0.1298285
v -2.097496 -2.237154 -0.1298285
v -1.871496 -1.37357 -0.1298285
v -3.622005 -2.040995 1.069707
v -3.817418 -2.936152 -0.1298285
v -3.221129 -1.509289 -0.1298285
v -4.969431 -2.77724 -0.1298285
v -5.53971 -2.290417 -0.1298285
v -6.142023 -1.517156 -0.1298285
v -4.630282 -0.6819515 -0.1298285
v -5.308661 -1.121467 1.075963
v -6.484921 -0.7101946 -0.1298285
v -5.947882 0.2434931 1.082949
v -5.134002 0.4694519 -0.1298285
v -6.744864 1.229106 -0.1298285
v -4.002934 1.567997 1.04562
v -4.111656 0.5469379 -0.1298285
v -3.0076 0.9948072 -0.1298285
v -5.45911 1.660647 1.205426
v -4.482987 3.170181 1.257593
v -6.06512 2.78768 -0.1298285
v -4.370584 3.745944 -0.1298285
v -3.012948 3.12538 -0.1298285
v -3.345029 2.603937 0.7452765
v -2.44642 1.856264 -0.1298285
vt 0.1245573 0.7140962
vt 0.1341357 0.2965591
vt 0.1419857 0.293675
vt 0.1333049 0.710878
vt 0.1157332 0.5168257
vt 0.1402476 0.7083377
vt 0.1508288 0.5111435
vt 0.1506187 0.4802021
vt 0.1508002 0.5063018
vt 0.1507429 0.4988624
vt 0.1394741 0.275559
vt 0.1418425 0.68729
vt 0.1395505 0.2752725
vt 0.1410594 0.6621835
vt 0.1394168 0.2758169
vt 0.1303922 0.3181321
vt 0.1393117 0.2762179
vt 0.1304209 0.3181512
vt 0.13044 0.3181703
vt 0.1389775 0.2775167
vt 0.1304591 0.3181798
vt 0.1395982 0.6152365
vt 0.1304782 0.3181894
vt 0.1387961 0.278233
vt 0.1305259 0.3182276
vt 0.1415942 0.6796501
vt 0.1424727 0.7082613
vt 0.1307647 0.3183804
vt 0.1308124 0.4276494
vt 0.1385382 0.2792643
vt 0.1308793 0.5543755
vt 0.1261807 0.701099
vt 0.1331808 0.3294677
vt 0.1327128 0.6968111
vt 0.1331235 0.737054
vt 0.1234017 0.7379422
vt 0.1308984 0.5829486
vt 0.133219 0.5055473
vt 0.133219 0.5173986
vt 0.1275273 0.4945268
vt 0.1249393 0.4066876
vt 0.1249679 0.7053104
vt 0.1361317 0.2859206
vt 0.1246528 0.6674168
vt 0.1370198 0.2846695
vt 0.1374113 0.2841252
vt 0.1253022 0.657208
vt 0.1120948 0.3699685
vt 0.1385478 0.2825304
vt 0.1269161 0.6333334
vt 0.139455 0.2812698
vt 0.119811 0.3138824
vt 0.1198588 0.3139875
vt 0.1198015 0.3138633
vt 0.1197919 0.3138347
vt 0.1175668 0.2473871
vt 0.1189133 0.3152863
vt 0.1234495 0.6897824
vt 0.1384427 0.2798373
vt 0.1373636 0.2783093
vt 0.1221985 0.7262436
vt 0.1188369 0.3154486
vt 0.1230962 0.6913199
vt 0.135807 0.2761034
vt 0.1220075 0.7260526
vt 0.1187223 0.315716
vt 0.1186746 0.3158115
vt 0.1205463 0.4885295
vt 0.1331044 0.2722166
vt 0.1223513 0.6905941
vt 0.1185982 0.3159738
vt 0.1268874 0.620317
vt 0.1226951 0.3185236
vt 0.1207087 0.3055454
vt 0.1287114 0.2623612
vt 0.1419953 0.6495013
vt 0.1202599 0.3207392
vt 0.1290266 0.2662861
vt 0.120279 0.3207392
vt 0.1202981 0.3207487
vt 0.1203458 0.3207679
vt 0.1292653 0.2694185
vt 0.1424727 0.657972
vt 0.1204413 0.3207965
vt 0.1430171 0.6674645
vt 0.1295709 0.2733052
vt 0.1204986 0.3208156
vt 0.1186555 0.7357553
vt 0.1320252 0.297877
vt 0.1351671 0.331817
vt 0.1339352 0.7316966
vt 0.1346037 0.7336257
vt 0.1205655 0.3208347
vt 0.12068 0.3208729
vt 0.1449748 0.4407709
vt 0.1206227 0.7378467
vt 0.1393499 0.3830422
vn 0.09692472 -0.2496853 0.963464
vn -0.05044436 -0.3107895 0.9491392
vn -0.4224613 -0.2209303 0.8790427
vn -0.6453121 0.3074415 0.6993225
vn 0.325167 -0.06996697 0.9430647
vn -0.546467 -0.07535851 0.8340833
vn 0.3629079 0.2966585 0.8833412
vn -0.6453121 0.3074415 0.6993225
vn 0.3629079 0.2966585 0.8833412
vn -0.6453121 0.3074415 0.6993225
vn 0.07715571 0.8160445 0.5728161
vn 0.07715571 0.8160445 0.5728161
vn 0.07715571 0.8160445 0.5728161
vn 0.02863175 -0.03582048 0.998948
vn -0.4691882 0.2750923 0.8391583
vn 0.2910205 -0.7582883 0.5833575
vn -0.5878022 0.1277233 0.7988588
vn 0.256874 -0.7600854 0.5968969
vn 0.256874 -0.7600854 0.5968969
vn -0.5878022 0.1277233 0.7988588
vn 0.6720234 -0.09333032 0.734625
vn 0.5929474 0.1960163 0.7810193
vn 0.5929474 0.1960163 0.7810193
vn -0.7261854 -0.1113022 0.6784295
vn 0.5552065 -0.1130993 0.8239868
vn 0.7475051 0.1223317 0.6528944
vn 0.7097642 0.2211768 0.6688165
vn 0.7097642 0.2211768 0.6688165
vn 0.3359501 0.8825403 0.3290291
vn 0.3485304 -0.609122 0.7123882
vn -0.4026923 0.6650811 0.6288928
vn 0.2065529 -0.0555895 0.976855
vn 0.1921754 -0.5552065 0.8092059
vn 0.02144301 -0.08075005 0.9965037
vn -0.1870303 0.2804838 0.9414608
vn -0.575222 -0.03222609 0.8173624
vn -0.134912 0.4961459 0.8576934
vn -0.6902416 0.1600725 0.705651
vn -0.575222 -0.03222609 0.8173624
vn -0.3577628 -0.3413417 0.8691902
vn -0.3577628 -0.3413417 0.8691902
vn -0.3577628 -0.3413417 0.8691902
vn 0.07715571 0.8160445 0.5728161
vn 0.07715571 0.8160445 0.5728161
vn -0.4422304 -0.7528967 0.4874206
vn -0.6039769 0.2014077 0.7711335
vn 0.0537923 -0.158029 0.9859682
vn 0.2910205 -0.7582883 0.5833575
vn -0.5626417 0.2319599 0.7934916
vn 0.4186205 -0.3107895 0.8533269
vn -0.3110359 0.399098 0.8625413
vn 0.8391615 -0.1742036 0.5152292
vn 0.9380066 0.1277233 0.3222273
vn 0.8391615 -0.1742036 0.5152292
vn 0.7780572 -0.4761304 0.4097887
vn 0.8355671 -0.4563614 0.3058788
vn 0.6522544 -0.5246544 0.547085
vn 0.01425427 0.4350416 0.9002975
vn 0.01425427 0.4350416 0.9002975
vn 0.01425427 0.4350416 0.9002975
vn 0.2389022 -0.1742036 0.95529
vn -0.251729 -0.6792122 0.6894225
vn 0.01425427 0.4350416 0.9002975
vn 0.1921754 0.6578924 0.7281801
vn -0.6111656 -0.3161811 0.7256075
vn -0.6111656 -0.3161811 0.7256075
vn -0.6111656 -0.3161811 0.7256075
vn 0.1921754 0.6578924 0.7281801
vn 0.7277361 -0.2928177 0.620208
vn -0.1295205 0.1474922 0.980546
vn -0.7441571 0.2193796 0.6309538
vn 0.2424966 0.03966123 0.9693412
vn 0.3341529 0.3397909 0.8791382
vn 0.285629 -0.8175953 0.499954
vn -0.02168941 0.8879319 0.4594633
vn -0.1079542 -0.7888404 0.6050428
vn -0.1079542 -0.7888404 0.6050428
vn -0.02168941 0.8879319 0.4594633
vn -0.1079542 -0.7888404 0.6050428
vn -0.4422304 -0.600136 0.6665351
vn -0.4422304 -0.600136 0.6665351
vn 0.7546939 0.330805 0.5665732
vn -0.04325563 0.09896833 0.99415
vn -0.8717572 -0.1166937 0.4758381
vn -0.2103937 -0.3036008 0.9292799
vn 0.7546939 0.330805 0.5665732
vn -0.7369685 0.1978133 0.6463338
vn 0.4114318 0.001920402 0.9114385
vn 0.05738664 -0.7564911 0.6514814
vn 0.2982092 -0.7349249 0.6090621
vn -0.2103937 -0.3036008 0.9292799
vn 0.001673996 0.9005122 0.4348276
vn -0.4691882 0.8286248 0.3053578
vn 0.001673996 0.9005122 0.4348276
vn 0.4563614 0.762129 0.4592316
vn 0.4563614 0.762129 0.4592316
vn 0.7870432 0.350574 0.5076032
g poof04_mesh_0
f 3/3/3 2/2/2 1/1/1
f 4/4/4 3/3/3 1/1/1
f 4/4/4 1/1/1 5/5/5
f 6/6/6 3/3/3 4/4/4
f 4/4/4 5/5/5 7/7/7
f 8/8/8 6/6/6 4/4/4
f 4/4/4 7/7/7 9/9/9
f 8/8/8 4/4/4 10/10/10
f 4/4/4 9/9/9 10/10/10
f 13/13/13 12/12/12 11/11/11
f 12/12/12 14/14/14 11/11/11
f 14/14/14 15/15/15 11/11/11
f 14/14/14 12/12/12 16/16/16
f 15/15/15 14/14/14 17/17/17
f 18/18/18 14/14/14 16/16/16
f 19/19/19 14/14/14 18/18/18
f 17/17/17 14/14/14 20/20/20
f 19/19/19 21/21/21 14/14/14
f 14/14/14 22/22/22 20/20/20
f 21/21/21 22/22/22 14/14/14
f 21/21/21 23/23/23 22/22/22
f 20/20/20 22/22/22 24/24/24
f 23/23/23 25/25/25 22/22/22
f 22/22/22 26/26/26 24/24/24
f 26/26/26 22/22/22 25/25/25
f 27/27/27 26/26/26 25/25/25
f 25/25/25 28/28/28 27/27/27
f 27/27/27 28/28/28 29/29/29
f 24/24/24 26/26/26 30/30/30
f 27/27/27 29/29/29 31/31/31
f 26/26/26 32/32/32 30/30/30
f 26/26/26 27/27/27 32/32/32
f 30/30/30 32/32/32 33/33/33
f 32/32/32 27/27/27 34/34/34
f 32/32/32 34/34/34 33/33/33
f 35/35/35 27/27/27 31/31/31
f 27/27/27 35/35/35 34/34/34
f 36/36/36 35/35/35 31/31/31
f 35/35/35 36/36/36 34/34/34
f 31/31/31 37/37/37 36/36/36
f 37/37/37 38/38/38 36/36/36
f 38/38/38 39/39/39 36/36/36
f 36/36/36 39/39/39 40/40/40
f 36/36/36 40/40/40 41/41/41
f 33/33/33 42/42/42 41/41/41
f 34/34/34 42/42/42 33/33/33
f 42/42/42 36/36/36 41/41/41
f 36/36/36 42/42/42 34/34/34
f 45/45/45 44/44/44 43/43/43
f 45/45/45 46/46/46 44/44/44
f 46/46/46 47/47/47 44/44/44
f 48/48/48 44/44/44 47/47/47
f 49/49/49 47/47/47 46/46/46
f 50/50/50 47/47/47 49/49/49
f 51/51/51 50/50/50 49/49/49
f 48/48/48 47/47/47 52/52/52
f 53/53/53 48/48/48 52/52/52
f 47/47/47 54/54/54 52/52/52
f 47/47/47 50/50/50 54/54/54
f 50/50/50 55/55/55 54/54/54
f 56/56/56 55/55/55 50/50/50
f 50/50/50 57/57/57 56/56/56
f 58/58/58 50/50/50 51/51/51
f 59/59/59 58/58/58 51/51/51
f 59/59/59 60/60/60 58/58/58
f 57/57/57 50/50/50 61/61/61
f 58/58/58 61/61/61 50/50/50
f 61/61/61 62/62/62 57/57/57
f 60/60/60 63/63/63 58/58/58
f 58/58/58 63/63/63 61/61/61
f 64/64/64 63/63/63 60/60/60
f 61/61/61 65/65/65 62/62/62
f 63/63/63 65/65/65 61/61/61
f 62/62/62 65/65/65 66/66/66
f 65/65/65 67/67/67 66/66/66
f 68/68/68 63/63/63 64/64/64
f 68/68/68 64/64/64 69/69/69
f 65/65/65 63/63/63 70/70/70
f 67/67/67 65/65/65 70/70/70
f 68/68/68 70/70/70 63/63/63
f 67/67/67 70/70/70 68/68/68
f 71/71/71 67/67/67 68/68/68
f 72/72/72 68/68/68 69/69/69
f 71/71/71 68/68/68 72/72/72
f 69/69/69 73/73/73 72/72/72
f 74/74/74 71/71/71 72/72/72
f 73/73/73 75/75/75 72/72/72
f 72/72/72 76/76/76 74/74/74
f 72/72/72 75/75/75 76/76/76
f 77/77/77 74/74/74 76/76/76
f 75/75/75 78/78/78 76/76/76
f 79/79/79 77/77/77 76/76/76
f 80/80/80 79/79/79 76/76/76
f 80/80/80 76/76/76 81/81/81
f 78/78/78 82/82/82 76/76/76
f 76/76/76 83/83/83 81/81/81
f 83/83/83 76/76/76 82/82/82
f 81/81/81 83/83/83 84/84/84
f 85/85/85 83/83/83 82/82/82
f 83/83/83 85/85/85 84/84/84
f 85/85/85 82/82/82 86/86/86
f 85/85/85 87/87/87 84/84/84
f 86/86/86 88/88/88 85/85/85
f 86/86/86 89/89/89 88/88/88
f 89/89/89 90/90/90 88/88/88
f 85/85/85 91/91/91 87/87/87
f 88/88/88 91/91/91 85/85/85
f 91/91/91 92/92/92 87/87/87
f 88/88/88 92/92/92 91/91/91
f 92/92/92 93/93/93 87/87/87
f 92/92/92 94/94/94 93/93/93
f 95/95/95 94/94/94 92/92/92
f 88/88/88 90/90/90 96/96/96
f 88/88/88 96/96/96 92/92/92
f 96/96/96 95/95/95 92/92/92
f 90/90/90 97/97/97 96/96/96
f 96/96/96 97/97/97 95/95/95
