g poof01_mesh
v 1.74281 -0.6400785 0.8928442
v 2.500525 -1.585419 -0.1319041
v 2.284797 -2.433424 -0.04432368
v 2.501687 -0.841085 -0.06196237
v 3.251648 -0.4706275 -0.1408336
v 1.335948 -2.977364 -0.03055143
v 3.415287 0.04779696 -0.1608455
v 1.843372 1.385884 0.6641898
v 2.9449 0.9639554 -0.1771562
v 3.371514 1.513158 -0.2153502
v 3.186185 2.784887 -0.2630239
v 2.135853 3.615804 -0.2632644
v 0.8627892 3.798181 -0.2940426
v 0.01542377 1.645185 0.9160204
v -0.3873596 3.204009 -0.3145978
v -0.8161535 2.495364 -0.3334129
v -0.8462162 1.697111 -0.3004611
v -1.339703 1.754401 -0.2122819
v -1.796365 1.609681 -0.1964803
v -1.957355 1.31978 -0.1722307
v -1.965892 0.09754133 0.9705663
v -2.047907 0.9786773 -0.1025503
v -2.587141 1.201278 0.07723355
v -3.339586 0.8212166 -0.1005001
v -3.723885 -0.2645578 -0.09709501
v -3.187725 -1.511893 -0.09038067
v -2.3753 -2.375418 -0.08397603
v -0.1179109 -0.04726815 1.431892
v -2.290684 -1.312207 1.061917
v -1.148837 -2.561186 -0.07226062
v -0.1850047 -1.276421 1.223402
v -0.2438297 -2.295927 0.1045651
v 0.4253478 -2.842419 0.00696826
v 0.9431188 -1.782463 1.059743
vt 0.136684 0.6504359
vt 0.1257751 0.3183821
vt 0.1257361 0.318616
vt 0.1128287 0.2608544
vt 0.126243 0.3180604
vt 0.1256776 0.3189865
vt 0.1263015 0.3180993
vt 0.138429 0.7082658
vt 0.1263405 0.3181286
vt 0.126477 0.3182261
vt 0.126711 0.3183821
vt 0.1267695 0.4276563
vt 0.1268279 0.554381
vt 0.1205107 0.7140955
vt 0.1268474 0.5829547
vt 0.1268669 0.6091107
vt 0.1116881 0.5168286
vt 0.1467837 0.5111451
vt 0.1467447 0.5062999
vt 0.146696 0.4988616
vt 0.1362063 0.708334
vt 0.1465693 0.4802023
vt 0.1463255 0.4438393
vt 0.126243 0.320634
vt 0.126126 0.320556
vt 0.1260675 0.3205171
vt 0.126009 0.3204781
vt 0.1396769 0.7505755
vt 0.1351924 0.6506309
vt 0.1257751 0.3203221
vt 0.1353094 0.6505334
vt 0.1179565 0.2622193
vt 0.1256191 0.3193569
vt 0.1359918 0.6504846
vn 0.7564851 -0.09449792 0.6471479
vn 0.7513534 -0.1047613 0.6515313
vn 0.7410901 -0.1201563 0.6605664
vn 0.4263468 -0.7564851 0.4959422
vn 0.530691 -0.02265435 0.8472626
vn 0.238185 -0.3921356 0.8885368
vn 0.6504303 0.3451164 0.6766351
vn 0.3767405 0.2322193 0.8967389
vn 0.4913481 -0.3254237 0.8078839
vn 0.4896376 0.1039272 0.8657103
vn 0.347661 0.2630094 0.8999766
vn 0.03291768 0.3810381 0.9239732
vn 0.1817365 0.4255127 0.8865161
vn -0.03550476 0.9899979 0.1365419
vn -0.6393329 0.3690642 0.6745703
vn -0.7128869 0.2595882 0.6514646
vn 0.109893 0.9934191 -0.032282
vn -0.1312962 0.9592078 0.2503633
vn -0.4665662 0.572621 0.6741077
vn -0.8976276 0.3040628 0.3190776
vn -0.4990668 0.2698517 0.8234758
vn 0.4691108 0.6992025 0.5394913
vn -0.4066966 0.4255127 0.8084163
vn -0.5041986 0.2612988 0.823108
vn -0.5384097 0.1928764 0.8203132
vn -0.7693355 -0.1389725 0.6235459
vn -0.1159011 -0.7239844 0.68001
vn 0.04489166 0.1176117 0.9920445
vn -0.393012 -0.2809491 0.8755622
vn -0.06971598 -0.7051682 0.7056043
vn -0.1107695 -0.2877913 0.9512656
vn -0.4426184 -0.6521409 0.6154683
vn -0.3057734 -0.655562 0.6904644
vn 0.5084537 -0.2347639 0.8284689
g poof01_mesh_0
f 3/3/3 2/2/2 1/1/1
f 1/1/1 2/2/2 4/4/4
f 4/4/4 5/5/5 1/1/1
f 1/1/1 6/6/6 3/3/3
f 1/1/1 5/5/5 7/7/7
f 8/8/8 1/1/1 7/7/7
f 8/8/8 7/7/7 9/9/9
f 8/8/8 9/9/9 10/10/10
f 10/10/10 11/11/11 8/8/8
f 8/8/8 11/11/11 12/12/12
f 8/8/8 12/12/12 13/13/13
f 14/14/14 8/8/8 13/13/13
f 13/13/13 15/15/15 14/14/14
f 15/15/15 16/16/16 14/14/14
f 14/14/14 16/16/16 17/17/17
f 17/17/17 18/18/18 14/14/14
f 14/14/14 18/18/18 19/19/19
f 14/14/14 19/19/19 20/20/20
f 21/21/21 14/14/14 20/20/20
f 21/21/21 20/20/20 22/22/22
f 21/21/21 22/22/22 23/23/23
f 23/23/23 24/24/24 21/21/21
f 21/21/21 24/24/24 25/25/25
f 21/21/21 25/25/25 26/26/26
f 21/21/21 26/26/26 27/27/27
f 8/8/8 14/14/14 28/28/28
f 21/21/21 28/28/28 14/14/14
f 1/1/1 8/8/8 28/28/28
f 29/29/29 21/21/21 27/27/27
f 28/28/28 21/21/21 29/29/29
f 27/27/27 30/30/30 29/29/29
f 31/31/31 29/29/29 30/30/30
f 31/31/31 28/28/28 29/29/29
f 31/31/31 30/30/30 32/32/32
f 32/32/32 33/33/33 31/31/31
f 34/34/34 1/1/1 28/28/28
f 31/31/31 34/34/34 28/28/28
f 34/34/34 31/31/31 33/33/33
f 1/1/1 34/34/34 6/6/6
f 34/34/34 33/33/33 6/6/6
