g poofGlow11_mesh
v -6.735518 -0.6496549 0.01135921
v -6.939091 -1.879157 -0.2921114
v -7.661796 -1.477716 -0.3029299
v -6.933748 -0.5708146 0.02941608
v -6.408433 -0.6488137 0.01198578
v -8.312387 -0.6283989 -0.3063431
v -5.573346 -1.507778 -0.2813931
v -7.223252 -0.1057873 0.0348587
v -6.431568 -0.3869476 0.02044582
v -8.504417 0.1279631 -0.3127737
v -5.138695 -0.4168777 -0.2836685
v -7.371154 0.2870283 0.01012325
v -6.380647 0.0159111 0.02318287
v -8.453033 1.144146 -0.3110428
v -5.141563 -0.1233501 -0.2973061
v -7.334282 0.8506174 0.01376724
v -6.317324 0.6946192 0.02580547
v -7.996664 2.097863 -0.2983618
v -5.159819 0.729002 -0.3140106
v -7.126371 1.288585 0.01851654
v -6.422153 1.331921 0.02735519
v -6.631102 2.539193 -0.3048096
v -5.49266 1.872275 -0.3173256
v -6.681661 1.539583 0.03499031
v -1.645484 -6.454099 -0.005476952
v -3.026483 -6.393563 -0.2999945
v -1.918448 -6.075415 -0.003465652
v -2.536687 -7.334748 -0.2910728
v -2.951534 -5.154315 -0.3144398
v -1.174257 -6.806332 -0.006713867
v -1.879845 -5.718466 0.01480579
v -1.737665 -7.894132 -0.2962017
v -2.107411 -4.651476 -0.3203106
v 0.1156654 -7.212076 -0.007917404
v -1.85628 -5.75326 0.005637169
v 0.1358166 -8.325321 -0.3093939
v -1.365924 -4.679411 -0.3193045
v 1.44025 -6.720665 -0.01156235
v -1.588164 -5.768349 0.009908676
v 2.110071 -7.641847 -0.3084869
v -0.74757 -4.900578 -0.3196011
v 2.024469 -5.993211 0.003526688
v -1.006072 -5.986136 0.01233292
v 3.079833 -6.243584 -0.3054686
v -0.0114584 -4.973169 -0.3159571
v 1.943073 -5.654384 0.01299191
v 0.05247402 -6.104487 0.0132885
v 2.585569 -4.918223 -0.3061781
v 0.7784605 -4.728618 -0.3056335
v 1.643873 -5.625955 0.01190376
v 1.181352 -5.858304 0.01399803
v 1.630581 -4.440812 -0.302352
v 0.2333736 5.116103 -0.02107716
v -0.386795 4.578287 -0.3346896
v -0.8318186 5.992547 -0.3366523
v 0.09403038 5.961116 -0.02025223
v 0.9779439 4.904796 -0.009418488
v -0.3054647 7.774391 -0.3374104
v 1.075023 4.014153 -0.3354812
v 0.4251227 7.276697 -0.02026844
v 1.835936 5.38313 0.003608704
v 1.21867 8.966015 -0.327467
v 2.523681 4.905175 -0.3386803
v 1.441866 8.031954 -0.01873493
v 1.93679 6.466643 0.009908676
v 2.954754 8.821066 -0.3262138
v 2.606347 6.144571 -0.3499269
v 2.567232 7.900724 -0.0202198
v 2.272566 6.736919 0.01388264
v 3.839493 8.040874 -0.3255048
v 2.632616 6.08382 -0.3543625
v 2.970618 7.54643 -0.01665783
v 2.555474 6.846811 0.01505375
v 3.885814 6.848015 -0.3228493
v 3.004918 6.024423 -0.3383837
v 3.034452 7.17233 0.01229954
v -3.019623 3.776149 0.0003442764
v -2.309764 4.67845 -0.289259
v -1.664728 3.030556 -0.3249769
v -2.611388 2.91171 0.01191998
v -4.275723 4.080544 0.000541687
v -2.338902 1.798069 -0.3465629
v -4.488647 5.232557 -0.2853012
v -2.813361 2.388125 0.01558113
v -5.153701 3.455346 0.000954628
v -3.670215 1.379561 -0.3405108
v -6.067643 4.229089 -0.2984438
v -3.524737 2.263509 0.02392483
v -5.256254 3.210382 0.02526093
v -4.508665 1.658891 -0.3365035
v -6.083343 2.91923 -0.3045454
v -4.018606 2.521434 0.0254755
v -4.53599 2.843671 0.0270586
v -5.077416 1.872985 -0.3195353
v 6.762187 1.493773 0.005917549
v 7.682594 1.035919 -0.3351679
v 6.773533 1.276068 0.009644508
v 7.720044 1.612652 -0.3372293
v 7.117356 0.3166122 -0.3347888
v 6.707769 1.827009 -0.0003814697
v 6.64509 1.083923 0.0128603
v 7.483837 2.154771 -0.3446498
v 6.264015 0.1287374 -0.330996
v 6.522501 2.062508 -0.000711441
v 6.393975 1.057901 0.01325607
v 7.085364 2.733944 -0.3423905
v 5.699733 0.266861 -0.3176718
v 6.266208 2.21656 -0.001865387
v 6.319736 1.225344 0.01366806
v 6.388302 3.20621 -0.3237238
v 5.296544 0.5300951 -0.3256531
v 5.805221 2.097913 0.01200294
v 6.191639 1.31708 0.01386642
v 5.212114 2.638548 -0.3287864
v 5.150918 0.8325777 -0.3282914
v 5.824432 1.710489 0.014328
v 5.985889 1.420359 0.01384926
v 4.95094 1.459358 -0.341022
vt 0.2455735 0.6098037
vt 0.02470833 0.6098037
vt 0.02470833 0.6136333
vt 0.2455735 0.6136333
vt 0.2455735 0.605974
vt 0.02470833 0.617463
vt 0.02470833 0.605974
vt 0.2455735 0.617463
vt 0.2455735 0.6021352
vt 0.02470833 0.6213018
vt 0.02470833 0.6021352
vt 0.2455735 0.6213018
vt 0.2455735 0.5983055
vt 0.02470833 0.6251315
vt 0.02470833 0.5983055
vt 0.2455735 0.6251315
vt 0.2455735 0.5944759
vt 0.0248824 0.619387
vt 0.02470833 0.5944759
vt 0.2456926 0.619387
vt 0.2455735 0.590637
vt 0.0248824 0.5963907
vt 0.02470833 0.590637
vt 0.2456926 0.5963907
vt 0.2455735 0.6213018
vt 0.02470833 0.6251315
vt 0.2455735 0.6251315
vt 0.02470833 0.6213018
vt 0.0248824 0.617463
vt 0.2455735 0.617463
vt 0.2456926 0.617463
vt 0.02470833 0.617463
vt 0.0248824 0.590637
vt 0.2455735 0.6136333
vt 0.2456926 0.590637
vt 0.02470833 0.6136333
vt 0.02470833 0.5829777
vt 0.2455735 0.6098037
vt 0.2455735 0.5829777
vt 0.02470833 0.6098037
vt 0.02470833 0.5868074
vt 0.2455735 0.605974
vt 0.2455735 0.5868074
vt 0.02470833 0.605974
vt 0.02470833 0.590637
vt 0.2455735 0.6021352
vt 0.2455735 0.590637
vt 0.02470833 0.6021352
vt 0.02470833 0.5944759
vt 0.2455735 0.5983055
vt 0.2455735 0.5944759
vt 0.02470833 0.5983055
vt 0.2455735 0.590637
vt 0.02470833 0.590637
vt 0.02470833 0.5944759
vt 0.2455735 0.5944759
vt 0.2455735 0.5868074
vt 0.02470833 0.5983055
vt 0.02470833 0.5868074
vt 0.2455735 0.5983055
vt 0.2456926 0.5887222
vt 0.02470833 0.6021352
vt 0.0248824 0.5887222
vt 0.2455735 0.6021352
vt 0.2458026 0.5983055
vt 0.02470833 0.605974
vt 0.02505648 0.5983055
vt 0.2455735 0.605974
vt 0.2458026 0.6021352
vt 0.02470833 0.6098037
vt 0.02505648 0.6021352
vt 0.2455735 0.6098037
vt 0.2456926 0.6117185
vt 0.02470833 0.6136333
vt 0.0248824 0.6117185
vt 0.2455735 0.6136333
vt 0.2455735 0.6098037
vt 0.02470833 0.6098037
vt 0.02470833 0.6136333
vt 0.2455735 0.6136333
vt 0.2455735 0.605974
vt 0.02470833 0.617463
vt 0.02470833 0.605974
vt 0.2455735 0.617463
vt 0.2455735 0.6021352
vt 0.02470833 0.6213018
vt 0.02470833 0.6021352
vt 0.2455735 0.6213018
vt 0.2455735 0.5983055
vt 0.0248824 0.618425
vt 0.02470833 0.5983055
vt 0.2456926 0.618425
vt 0.2456926 0.6011823
vt 0.0248824 0.6011823
vt 0.2455735 0.605974
vt 0.02470833 0.6098037
vt 0.2455735 0.6098037
vt 0.02470833 0.605974
vt 0.02470833 0.6136333
vt 0.2455735 0.6021352
vt 0.2455735 0.6136333
vt 0.02470833 0.6021352
vt 0.02470833 0.617463
vt 0.2455735 0.5983055
vt 0.2455735 0.617463
vt 0.02470833 0.5983055
vt 0.02470833 0.6213018
vt 0.2456926 0.5983055
vt 0.2455735 0.6213018
vt 0.0248824 0.5983055
vt 0.0248824 0.6213018
vt 0.2458026 0.605974
vt 0.2456926 0.6213018
vt 0.02505648 0.605974
vt 0.02505648 0.6136333
vt 0.2458026 0.6098037
vt 0.2458026 0.6136333
vt 0.02505648 0.6098037
vn -0.03240219 -0.2495321 0.9678243
vn -0.03240219 -0.2495321 0.9678243
vn -0.1713497 -0.201062 0.9644757
vn -0.1713497 -0.201062 0.9644757
vn 0.1461293 -0.1703643 0.9744856
vn -0.2489019 -0.1089689 0.9623792
vn 0.1461293 -0.1703643 0.9744856
vn -0.2489019 -0.1089689 0.9623792
vn 0.2398381 -0.03949511 0.9700092
vn -0.2731369 -0.02091491 0.9617478
vn 0.2398381 -0.03949511 0.9700092
vn -0.2731369 -0.02091491 0.9617478
vn 0.2527635 8.881092E-05 0.9675281
vn -0.2634429 0.05986857 0.9628155
vn 0.2527635 8.881092E-05 0.9675281
vn -0.2634429 0.05986857 0.9628155
vn 0.279422 0.03644136 0.9594766
vn -0.1850829 0.2004318 0.9620662
vn 0.279422 0.03644136 0.9594766
vn -0.1850829 0.2004318 0.9620662
vn 0.2463008 0.1826594 0.9518253
vn 0.03868726 0.2949484 0.9547296
vn 0.2463008 0.1826594 0.9518253
vn 0.03868726 0.2949484 0.9547296
vn -0.1713497 -0.1533998 0.9731947
vn -0.2117415 -0.1178551 0.9701937
vn -0.2117415 -0.1178551 0.9701937
vn -0.1713497 -0.1533998 0.9731947
vn -0.204471 0.145499 0.9679988
vn -0.0954133 -0.2164109 0.9716288
vn -0.204471 0.145499 0.9679988
vn -0.0954133 -0.2164109 0.9716288
vn -0.06148425 0.2795996 0.958146
vn 0.01526007 -0.2495321 0.9682463
vn -0.06148425 0.2795996 0.958146
vn 0.01526007 -0.2495321 0.9682463
vn 0.09685135 0.2699056 0.9580035
vn 0.1566311 -0.2123717 0.9645543
vn 0.09685135 0.2699056 0.9580035
vn 0.1566311 -0.2123717 0.9645543
vn 0.06211448 0.2771761 0.9588093
vn 0.2721515 -0.03384027 0.9616592
vn 0.06211448 0.2771761 0.9588093
vn 0.2721515 -0.03384027 0.9616592
vn -0.02270818 0.2723291 0.9619362
vn 0.2172187 0.1939691 0.9566567
vn -0.02270818 0.2723291 0.9619362
vn 0.2172187 0.1939691 0.9566567
vn -0.08571929 0.2537489 0.9634644
vn 0.007181704 0.2634429 0.9646482
vn -0.08571929 0.2537489 0.9634644
vn 0.007181704 0.2634429 0.9646482
vn -0.350689 -0.09038869 0.9321197
vn -0.350689 -0.09038869 0.9321197
vn -0.3418029 0.0008966327 0.9397712
vn -0.3418029 0.0008966327 0.9397712
vn -0.1325737 -0.3642446 0.9218189
vn -0.2723291 0.1818516 0.9448634
vn -0.1325737 -0.3642446 0.9218189
vn -0.2723291 0.1818516 0.9448634
vn 0.196215 -0.3367783 0.9209126
vn 0.02980107 0.311913 0.9496432
vn 0.196215 -0.3367783 0.9209126
vn 0.02980107 0.311913 0.9496432
vn 0.2374146 -0.4078677 0.8816339
vn 0.1170472 0.2739448 0.9545963
vn 0.2374146 -0.4078677 0.8816339
vn 0.1170472 0.2739448 0.9545963
vn 0.2374146 -0.4078677 0.8816339
vn 0.2761906 0.1398442 0.9508745
vn 0.2374146 -0.4078677 0.8816339
vn 0.2761906 0.1398442 0.9508745
vn 0.2357989 -0.289116 0.9277989
vn 0.3464723 0.04290405 0.9370785
vn 0.2357989 -0.289116 0.9277989
vn 0.3464723 0.04290405 0.9370785
vn 0.2899238 0.1123778 0.950429
vn 0.2899238 0.1123778 0.950429
vn 0.2899238 0.1123778 0.950429
vn 0.2899238 0.1123778 0.950429
vn -0.0396727 0.233553 0.9715344
vn 0.3787856 -0.1986385 0.903916
vn -0.0396727 0.233553 0.9715344
vn 0.3787856 -0.1986385 0.903916
vn -0.2384 0.1253032 0.9630496
vn -0.008974969 -0.3812092 0.9244453
vn -0.2384 0.1253032 0.9630496
vn -0.008974969 -0.3812092 0.9244453
vn -0.3304932 0.03644136 0.9431046
vn -0.130958 -0.3165824 0.9394816
vn -0.3304932 0.03644136 0.9431046
vn -0.130958 -0.3165824 0.9394816
vn -0.1713497 -0.2826533 0.9437936
vn -0.1713497 -0.2826533 0.9437936
vn 0.3424331 0.0606764 0.9375809
vn 0.3254686 -0.1154315 0.9384806
vn 0.3254686 -0.1154315 0.9384806
vn 0.3424331 0.0606764 0.9375809
vn 0.07423198 -0.3634368 0.9286568
vn 0.3238529 0.1729654 0.9301625
vn 0.07423198 -0.3634368 0.9286568
vn 0.3238529 0.1729654 0.9301625
vn -0.023516 -0.3295077 0.94386
vn 0.2584183 0.2545567 0.931891
vn -0.023516 -0.3295077 0.94386
vn 0.2584183 0.2545567 0.931891
vn -0.1196483 -0.2923473 0.9487978
vn -0.1438834 0.3555361 0.9235213
vn -0.1196483 -0.2923473 0.9487978
vn -0.1438834 0.3555361 0.9235213
vn -0.164887 -0.2261049 0.9600462
vn -0.4185471 0.05906072 0.9062726
vn -0.164887 -0.2261049 0.9600462
vn -0.4185471 0.05906072 0.9062726
vn -0.2763682 -0.1533998 0.9487302
vn -0.3733084 -0.02980107 0.9272285
vn -0.2763682 -0.1533998 0.9487302
vn -0.3733084 -0.02980107 0.9272285
g poofGlow11_mesh_0
f 3/3/3 2/2/2 1/1/1
f 4/4/4 3/3/3 1/1/1
f 1/1/1 2/2/2 5/5/5
f 6/6/6 3/3/3 4/4/4
f 2/2/2 7/7/7 5/5/5
f 8/8/8 6/6/6 4/4/4
f 5/5/5 7/7/7 9/9/9
f 10/10/10 6/6/6 8/8/8
f 7/7/7 11/11/11 9/9/9
f 12/12/12 10/10/10 8/8/8
f 9/9/9 11/11/11 13/13/13
f 14/14/14 10/10/10 12/12/12
f 11/11/11 15/15/15 13/13/13
f 16/16/16 14/14/14 12/12/12
f 13/13/13 15/15/15 17/17/17
f 18/18/18 14/14/14 16/16/16
f 15/15/15 19/19/19 17/17/17
f 20/20/20 18/18/18 16/16/16
f 17/17/17 19/19/19 21/21/21
f 22/22/22 18/18/18 20/20/20
f 19/19/19 23/23/23 21/21/21
f 24/24/24 22/22/22 20/20/20
f 21/21/21 23/23/23 24/24/24
f 23/23/23 22/22/22 24/24/24
f 27/27/27 26/26/26 25/25/25
f 26/26/26 28/28/28 25/25/25
f 29/29/29 26/26/26 27/27/27
f 25/25/25 28/28/28 30/30/30
f 31/31/31 29/29/29 27/27/27
f 28/28/28 32/32/32 30/30/30
f 33/33/33 29/29/29 31/31/31
f 30/30/30 32/32/32 34/34/34
f 35/35/35 33/33/33 31/31/31
f 32/32/32 36/36/36 34/34/34
f 37/37/37 33/33/33 35/35/35
f 34/34/34 36/36/36 38/38/38
f 39/39/39 37/37/37 35/35/35
f 36/36/36 40/40/40 38/38/38
f 41/41/41 37/37/37 39/39/39
f 38/38/38 40/40/40 42/42/42
f 43/43/43 41/41/41 39/39/39
f 40/40/40 44/44/44 42/42/42
f 45/45/45 41/41/41 43/43/43
f 42/42/42 44/44/44 46/46/46
f 47/47/47 45/45/45 43/43/43
f 44/44/44 48/48/48 46/46/46
f 49/49/49 45/45/45 47/47/47
f 46/46/46 48/48/48 50/50/50
f 51/51/51 49/49/49 47/47/47
f 48/48/48 52/52/52 50/50/50
f 52/52/52 49/49/49 51/51/51
f 50/50/50 52/52/52 51/51/51
f 55/55/55 54/54/54 53/53/53
f 56/56/56 55/55/55 53/53/53
f 53/53/53 54/54/54 57/57/57
f 58/58/58 55/55/55 56/56/56
f 54/54/54 59/59/59 57/57/57
f 60/60/60 58/58/58 56/56/56
f 57/57/57 59/59/59 61/61/61
f 62/62/62 58/58/58 60/60/60
f 59/59/59 63/63/63 61/61/61
f 64/64/64 62/62/62 60/60/60
f 61/61/61 63/63/63 65/65/65
f 66/66/66 62/62/62 64/64/64
f 63/63/63 67/67/67 65/65/65
f 68/68/68 66/66/66 64/64/64
f 65/65/65 67/67/67 69/69/69
f 70/70/70 66/66/66 68/68/68
f 67/67/67 71/71/71 69/69/69
f 72/72/72 70/70/70 68/68/68
f 69/69/69 71/71/71 73/73/73
f 74/74/74 70/70/70 72/72/72
f 71/71/71 75/75/75 73/73/73
f 76/76/76 74/74/74 72/72/72
f 73/73/73 75/75/75 76/76/76
f 75/75/75 74/74/74 76/76/76
f 79/79/79 78/78/78 77/77/77
f 80/80/80 79/79/79 77/77/77
f 77/77/77 78/78/78 81/81/81
f 82/82/82 79/79/79 80/80/80
f 78/78/78 83/83/83 81/81/81
f 84/84/84 82/82/82 80/80/80
f 81/81/81 83/83/83 85/85/85
f 86/86/86 82/82/82 84/84/84
f 83/83/83 87/87/87 85/85/85
f 88/88/88 86/86/86 84/84/84
f 85/85/85 87/87/87 89/89/89
f 90/90/90 86/86/86 88/88/88
f 87/87/87 91/91/91 89/89/89
f 92/92/92 90/90/90 88/88/88
f 89/89/89 91/91/91 93/93/93
f 94/94/94 90/90/90 92/92/92
f 91/91/91 94/94/94 93/93/93
f 93/93/93 94/94/94 92/92/92
f 97/97/97 96/96/96 95/95/95
f 96/96/96 98/98/98 95/95/95
f 99/99/99 96/96/96 97/97/97
f 95/95/95 98/98/98 100/100/100
f 101/101/101 99/99/99 97/97/97
f 98/98/98 102/102/102 100/100/100
f 103/103/103 99/99/99 101/101/101
f 100/100/100 102/102/102 104/104/104
f 105/105/105 103/103/103 101/101/101
f 102/102/102 106/106/106 104/104/104
f 107/107/107 103/103/103 105/105/105
f 104/104/104 106/106/106 108/108/108
f 109/109/109 107/107/107 105/105/105
f 106/106/106 110/110/110 108/108/108
f 111/111/111 107/107/107 109/109/109
f 108/108/108 110/110/110 112/112/112
f 113/113/113 111/111/111 109/109/109
f 110/110/110 114/114/114 112/112/112
f 115/115/115 111/111/111 113/113/113
f 112/112/112 114/114/114 116/116/116
f 117/117/117 115/115/115 113/113/113
f 114/114/114 118/118/118 116/116/116
f 118/118/118 115/115/115 117/117/117
f 116/116/116 118/118/118 117/117/117
