g poofGlow04_mesh
v -1.3397 1.754405 -0.212285
v -2.331414 3.147522 -1.418783
v -0.8462148 1.697108 -0.300457
v -1.796367 1.609686 -0.1964784
v -2.067479 3.666171 -1.378891
v -0.8161507 2.495365 -0.3334141
v -1.470644 5.08111 -1.353292
v -0.3873572 3.204009 -0.3145938
v 0.8917847 6.561202 -1.314889
v 0.8627853 3.79818 -0.2940421
v 3.542234 6.285623 -1.288347
v 2.135851 3.615809 -0.2632637
v 5.830361 4.327733 -1.308692
v 3.186181 2.784886 -0.2630219
v 6.129941 1.121418 -1.322962
v 3.371506 1.513163 -0.2153473
v 5.407317 0.7476101 -1.35926
v 2.944903 0.9639549 -0.1771612
v 6.095809 0.072649 -1.334351
v 3.415283 0.04780149 -0.1608462
v 5.335182 -1.693369 -1.357008
v 3.251648 -0.4706283 -0.1408396
v 4.841371 -1.896691 -1.374195
v 2.501683 -0.841084 -0.06196308
v 4.620269 -2.442184 -1.34528
v 2.500521 -1.585421 -0.1319075
v 3.955935 -4.059731 -1.320929
v 2.284793 -2.433421 -0.04432869
v 2.116316 -5.488784 -1.309346
v 1.335948 -2.977364 -0.03055525
v 0.2986779 -5.187268 -1.323059
v 0.4253502 -2.842413 0.006977081
v -0.320838 -4.915624 -1.352361
v -0.2438374 -2.295928 0.1045656
v -1.301248 -5.006446 -1.351974
v -1.148832 -2.561183 -0.07226276
v -3.334493 -4.253492 -1.34309
v -2.375301 -2.37541 -0.08397865
v -5.153463 -2.806261 -1.317261
v -3.187729 -1.511893 -0.09038115
v -6.257967 -0.4074979 -1.308959
v -3.723891 -0.2645588 -0.09708643
v -5.15977 2.473179 -1.318714
v -3.339589 0.8212218 -0.1004996
v -3.461589 2.982605 -1.310834
v -2.587143 1.201275 0.07723618
v -2.921314 2.962912 -1.390147
v -2.047908 0.9786725 -0.1025572
v -1.957352 1.319778 -0.1722355
vt 0.2443907 0.60334
vt 0.02490305 0.6040587
vt 0.2443817 0.6042743
vt 0.2444266 0.6025943
vt 0.02498391 0.6050559
vt 0.2443907 0.6052535
vt 0.02508273 0.6060441
vt 0.2443997 0.6062417
vt 0.02518154 0.6070232
vt 0.2444087 0.6072209
vt 0.02528037 0.6080114
vt 0.2444177 0.6082001
vt 0.02537918 0.6089907
vt 0.2444266 0.6091883
vt 0.02546902 0.6099699
vt 0.2444356 0.6101675
vt 0.02533427 0.6127997
vt 0.2444626 0.6128985
vt 0.02510968 0.6136442
vt 0.2444895 0.6136442
vt 0.02510968 0.612638
vt 0.2444895 0.612638
vt 0.02510968 0.6116408
vt 0.2444895 0.6116408
vt 0.02510968 0.6106347
vt 0.2444895 0.6106347
vt 0.02510968 0.6096375
vt 0.2444895 0.6096375
vt 0.02510968 0.6086313
vt 0.2444895 0.6086313
vt 0.02510968 0.6076341
vt 0.2444895 0.6076341
vt 0.02510968 0.606628
vt 0.2444895 0.606628
vt 0.02510968 0.6056308
vt 0.2444895 0.6056308
vt 0.02510968 0.6046246
vt 0.2444895 0.6046246
vt 0.02510968 0.6036274
vt 0.2444895 0.6036274
vt 0.02510968 0.6026213
vt 0.2444895 0.6026213
vt 0.02510968 0.6016151
vt 0.2444895 0.6016151
vt 0.02510968 0.6006179
vt 0.2444895 0.6006179
vt 0.02516358 0.6014534
vt 0.2444895 0.5996118
vt 0.2444716 0.6004562
vn 0.202449 0.7194312 0.6644044
vn 0.202449 0.7194312 0.6644044
vn 0.202449 0.7194312 0.6644044
vn -0.1498619 0.5832043 0.7983822
vn -0.4798597 0.2144522 0.850732
vn -0.4798597 0.2144522 0.850732
vn -0.3495047 0.2896118 0.8910508
vn -0.3495047 0.2896118 0.8910508
vn -0.09466648 0.3530278 0.9308113
vn -0.09466648 0.3530278 0.9308113
vn 0.1225919 0.3013555 0.9455982
vn 0.1225919 0.3013555 0.9455982
vn 0.2917011 0.1522106 0.9443212
vn 0.2917011 0.1522106 0.9443212
vn 0.3609889 0.04651731 0.9314092
vn 0.3609889 0.04651731 0.9314092
vn 0.3269322 -0.4056149 0.8535759
vn 0.3269322 -0.4056149 0.8535759
vn 0.4079637 -0.1660435 0.8977723
vn 0.4079637 -0.1660435 0.8977723
vn 0.2529469 -0.4561128 0.8532168
vn 0.2529469 -0.4561128 0.8532168
vn 0.2529469 -0.4561128 0.8532168
vn 0.2529469 -0.4561128 0.8532168
vn 0.4690309 -0.1190688 0.8751186
vn 0.4690309 -0.1190688 0.8751186
vn 0.481949 -0.1331612 0.8660215
vn 0.481949 -0.1331612 0.8660215
vn -0.06883037 -0.4796002 0.8747834
vn -0.06883037 -0.4796002 0.8747834
vn -0.1592568 -0.4749027 0.8655083
vn -0.1592568 -0.4749027 0.8655083
vn -0.2508577 -0.4655078 0.8487478
vn -0.2508577 -0.4655078 0.8487478
vn -0.06530726 -0.4760771 0.8769752
vn -0.06530726 -0.4760771 0.8769752
vn -0.2332421 -0.4291023 0.8726221
vn -0.2332421 -0.4291023 0.8726221
vn -0.3753408 -0.2846549 0.8820946
vn -0.3753408 -0.2846549 0.8820946
vn -0.4352337 -0.01220113 0.9002348
vn -0.4352337 -0.01220113 0.9002348
vn -0.3412841 0.3201454 0.8837602
vn -0.3412841 0.3201454 0.8837602
vn -0.2332421 0.4645929 0.854255
vn -0.2332421 0.4645929 0.854255
vn -0.1498619 0.5832043 0.7983822
vn 0.3116654 0.6419227 0.7005711
vn -0.5080446 0.3001812 0.8073301
g poofGlow04_mesh_0
f 3/3/3 2/2/2 1/1/1
f 1/1/1 2/2/2 4/4/4
f 5/5/5 2/2/2 3/3/3
f 6/6/6 5/5/5 3/3/3
f 7/7/7 5/5/5 6/6/6
f 8/8/8 7/7/7 6/6/6
f 9/9/9 7/7/7 8/8/8
f 10/10/10 9/9/9 8/8/8
f 11/11/11 9/9/9 10/10/10
f 12/12/12 11/11/11 10/10/10
f 13/13/13 11/11/11 12/12/12
f 14/14/14 13/13/13 12/12/12
f 15/15/15 13/13/13 14/14/14
f 16/16/16 15/15/15 14/14/14
f 17/17/17 15/15/15 16/16/16
f 18/18/18 17/17/17 16/16/16
f 19/19/19 17/17/17 18/18/18
f 20/20/20 19/19/19 18/18/18
f 21/21/21 19/19/19 20/20/20
f 22/22/22 21/21/21 20/20/20
f 23/23/23 21/21/21 22/22/22
f 24/24/24 23/23/23 22/22/22
f 25/25/25 23/23/23 24/24/24
f 26/26/26 25/25/25 24/24/24
f 27/27/27 25/25/25 26/26/26
f 28/28/28 27/27/27 26/26/26
f 29/29/29 27/27/27 28/28/28
f 30/30/30 29/29/29 28/28/28
f 31/31/31 29/29/29 30/30/30
f 32/32/32 31/31/31 30/30/30
f 33/33/33 31/31/31 32/32/32
f 34/34/34 33/33/33 32/32/32
f 35/35/35 33/33/33 34/34/34
f 36/36/36 35/35/35 34/34/34
f 37/37/37 35/35/35 36/36/36
f 38/38/38 37/37/37 36/36/36
f 39/39/39 37/37/37 38/38/38
f 40/40/40 39/39/39 38/38/38
f 41/41/41 39/39/39 40/40/40
f 42/42/42 41/41/41 40/40/40
f 43/43/43 41/41/41 42/42/42
f 44/44/44 43/43/43 42/42/42
f 45/45/45 43/43/43 44/44/44
f 46/46/46 45/45/45 44/44/44
f 47/47/47 45/45/45 46/46/46
f 48/48/48 47/47/47 46/46/46
f 49/49/49 47/47/47 48/48/48
f 4/4/4 47/47/47 49/49/49
f 2/2/2 47/47/47 4/4/4
