g poof12_mesh
v 1.288918 -6.468621 0.2916689
v 1.58372 -6.335058 -0.07190418
v 1.583648 -6.585622 -0.07042456
v 1.170681 -6.971242 -0.07015181
v 0.9592414 -6.782684 0.3505716
v 1.372999 -6.306663 -0.07089853
v 1.58372 -6.335058 -0.07190418
v 1.018202 -6.516392 -0.07053947
v 0.0002465248 -6.703687 -0.06944799
v -0.08682251 -6.973081 0.3553977
v 0.1156683 -7.268774 -0.06918955
v -0.7624331 -6.582707 -0.06844282
v -0.9833231 -6.846025 0.3428731
v -0.8380985 -7.075734 -0.06812668
v -1.146919 -6.413983 -0.06793976
v -1.309337 -6.777858 -0.06811237
v -1.197104 -6.601565 0.1237354
v -1.389813 -6.35521 -0.06779623
v -1.443258 -6.557729 -0.06793976
v 0.5315375 5.933978 0.2000179
v 0.1269293 5.472679 -0.07704592
v 0.01137829 6.173454 -0.07680178
v 0.7444272 5.297435 -0.07346964
v 1.455975 5.694115 -0.0694766
v 1.471544 6.260753 -0.06753778
v 0.2166266 6.331075 -0.009122849
v 0.2859573 7.264489 -0.07680178
v 0.7297769 7.666354 -0.0763278
v 0.8810344 6.991288 0.1797657
v 1.187442 7.169218 0.1139832
v 1.356108 7.792002 -0.07678747
v 1.613652 6.794098 -0.06633139
v 1.744586 7.742564 -0.07569599
v 1.611469 7.33336 0.08196783
v 1.785018 7.036705 -0.06597233
v 1.893388 7.443841 -0.06680536
v -3.242494 3.357858 0.5721941
v -2.850826 3.403088 -0.06670475
v -2.613591 2.764203 -0.06365967
v -3.724447 3.695893 -0.06666136
v -2.982004 3.165493 0.3599796
v -3.327322 2.968072 0.415895
v -2.788979 2.404637 -0.06269741
v -3.301856 2.359509 -0.06049967
v -3.637134 2.565791 -0.06008339
v -3.960619 2.809274 -0.05966663
v -3.637378 3.348063 0.5587935
v -3.987033 3.224669 0.5450335
v -4.239479 3.012727 -0.05900621
v -4.359037 3.325168 -0.06654644
v -6.905009 0.1948042 0.2853923
v -6.738814 0.1695395 -0.05939388
v -6.862797 0.04226828 -0.05953741
v -7.032999 0.05510855 -0.05953741
v -6.965219 0.378077 0.4652038
v -6.659688 0.3973956 -0.05933619
v -7.109425 0.1325688 -0.05923605
v -7.221586 0.4554939 -0.05913544
v -7.257408 0.7260804 -0.05956602
v -6.538679 0.7169309 -0.05929327
v -7.171675 0.9765587 -0.0594945
v -6.881253 0.8698978 0.3951259
v -6.540503 1.243094 -0.05929327
v -6.92516 1.337115 -0.05940819
v -6.810443 1.189606 0.366199
v -6.651429 1.422963 -0.05926466
v 5.880079 2.011634 -0.06513929
v 6.117673 1.936012 0.2293329
v 5.959851 1.787857 -0.06542635
v 6.065966 2.178074 -0.06844282
v 6.180167 1.665713 -0.06526852
v 6.278281 2.090589 -0.0682416
v 6.351648 1.843112 -0.06683397
vt 0.8524457 0.8827039
vt 0.7072771 0.8669094
vt 0.679499 0.8755546
vt 0.707303 0.8673918
vt 0.8523226 0.8832706
vt 0.6871211 0.8515067
vt 0.6872571 0.8510534
vt 0.6869171 0.8521866
vt 0.6867617 0.8526982
vt 0.8522449 0.8836429
vt 0.7073936 0.8674501
vt 0.6865544 0.8533911
vt 0.8521543 0.8840574
vt 0.7075394 0.8675343
vt 0.6860331 0.8551234
vt 0.7075944 0.8675667
vt 0.78692 0.8751726
vt 0.7362013 0.8682693
vt 0.7076818 0.8676185
vt 0.8906854 0.8722228
vt 0.8353462 0.8658668
vt 0.8301461 0.8658733
vt 0.7850776 0.8692472
vt 0.7465432 0.8718407
vt 0.7126617 0.8636035
vt 0.8681948 0.8699822
vt 0.8238711 0.865883
vt 0.8113339 0.8659024
vt 0.8901576 0.8685348
vt 0.8794304 0.8584002
vt 0.7557389 0.8659672
vt 0.6906375 0.8582448
vt 0.7077984 0.866019
vt 0.8739033 0.8546507
vt 0.6904594 0.8581411
vt 0.7547352 0.8598087
vt 0.8916956 0.8676056
vt 0.7087892 0.8664917
vt 0.7628397 0.8464069
vt 0.7087568 0.866605
vt 0.8853008 0.8670486
vt 0.8830633 0.8673822
vt 0.7378786 0.850477
vt 0.7156827 0.8525913
vt 0.7083521 0.8532907
vt 0.7008693 0.8540063
vt 0.8912682 0.8676217
vt 0.8706751 0.8568557
vt 0.7375969 0.8585038
vt 0.7087374 0.8666666
vt 0.8535401 0.8574839
vt 0.6853014 0.8552043
vt 0.708106 0.8639532
vt 0.7021773 0.8662424
vt 0.8535595 0.8575421
vt 0.6870142 0.8551428
vt 0.7086694 0.8668997
vt 0.7086726 0.8668835
vt 0.7086759 0.8668673
vt 0.687869 0.8551105
vt 0.7086824 0.8668479
vt 0.8562211 0.8574353
vt 0.6883774 0.8550943
vt 0.7086921 0.866822
vt 0.8573187 0.8573931
vt 0.766097 0.8579307
vt 0.6898701 0.8578011
vt 0.8743178 0.8663234
vt 0.6893002 0.8574709
vt 0.7077174 0.8663007
vt 0.6891254 0.8573673
vt 0.707711 0.8663234
vt 0.707698 0.8663589
vn 0.1854045 0.01680183 0.9825186
vn 0.7763352 0.002856553 0.6303138
vn 0.5776151 -0.5619267 0.5921141
vn 0.5776151 -0.5619267 0.5921141
vn 0.3405456 -0.190634 0.9206994
vn -0.5589241 0.7663599 0.3166959
vn 0.7763352 0.002856553 0.6303138
vn -0.1527681 0.8465451 0.5099248
vn -0.1527681 0.8465451 0.5099248
vn 0.04420871 -0.01283187 0.9989399
vn -0.1789155 -0.884411 0.4310528
vn 0.256874 0.7158083 0.6493337
vn -0.5136019 -0.8129415 0.2744799
vn -0.5136019 -0.8129415 0.2744799
vn 0.256874 0.7158083 0.6493337
vn -0.5136019 -0.8129415 0.2744799
vn -0.7262672 -0.2394424 0.6443627
vn 0.1662298 0.6826882 0.7115507
vn -0.7262672 -0.2394424 0.6443627
vn -0.3410293 -0.2464151 0.9071817
vn -0.3009366 -0.2830214 0.9106789
vn -0.4979135 -0.08255821 0.8632881
vn 0.1819182 -0.3353161 0.9243749
vn 0.1819182 -0.3353161 0.9243749
vn 0.267333 -0.1069624 0.9576493
vn -0.4107556 0.1475387 0.899729
vn -0.3235977 0.1701998 0.9307613
vn -0.06038076 0.3079093 0.9494978
vn 0.1697161 0.0725829 0.9828165
vn -0.06038076 0.3079093 0.9494978
vn -0.06038076 0.3079093 0.9494978
vn 0.3213708 -0.08778769 0.9428754
vn 0.3876109 0.2190082 0.8954291
vn 0.3876109 0.2190082 0.8954291
vn 0.5026593 -0.1313666 0.8544451
vn 0.3876109 0.2190082 0.8954291
vn 0.5166046 0.7820483 0.3485973
vn 0.6211941 0.6809452 0.3878551
vn 0.8094552 0.3706629 0.4554024
vn -0.459564 0.7872778 0.4110895
vn 0.8094552 0.3706629 0.4554024
vn 0.3719224 -0.4137582 0.83095
vn 0.05815399 -0.6142215 0.786988
vn -0.3584608 -0.5845878 0.7278482
vn -0.3584608 -0.5845878 0.7278482
vn -0.5205746 -0.7135814 0.4688322
vn -0.2346966 0.227724 0.9450182
vn -0.459564 0.7872778 0.4110895
vn -0.6966336 -0.5340362 0.479069
vn -0.459564 0.7872778 0.4110895
vn 0.6578004 -0.4451351 0.6075799
vn 0.8512909 -0.2429287 0.4650692
vn 0.3213708 -0.8512909 0.4147584
vn -0.6216778 -0.6281667 0.4678926
vn -0.8726925 -0.3039393 0.3821371
vn 0.8512909 -0.2429287 0.4650692
vn -0.8726925 -0.3039393 0.3821371
vn -0.8726925 -0.3039393 0.3821371
vn -0.89884 -0.1191645 0.421766
vn 0.818171 -0.04769504 0.5729934
vn -0.7890209 0.3880945 0.4762653
vn 0.2464151 0.2399261 0.9389969
vn 0.818171 -0.04769504 0.5729934
vn -0.7890209 0.3880945 0.4762653
vn 0.1540277 0.2713029 0.9500896
vn 0.2359561 0.811682 0.5343193
vn -0.7803051 -0.2795351 0.5594498
vn -0.7803051 -0.2795351 0.5594498
vn -0.7803051 -0.2795351 0.5594498
vn 0.3143982 0.7628735 0.5649582
vn 0.5671562 -0.542752 0.6194789
vn 0.3143982 0.7628735 0.5649582
vn 0.5671562 -0.542752 0.6194789
g poof12_mesh_0
f 3/3/3 2/2/2 1/1/1
f 4/4/4 3/3/3 1/1/1
f 5/5/5 4/4/4 1/1/1
f 5/5/5 1/1/1 6/6/6
f 6/6/6 1/1/1 7/7/7
f 8/8/8 5/5/5 6/6/6
f 8/8/8 9/9/9 5/5/5
f 5/5/5 10/10/10 4/4/4
f 9/9/9 10/10/10 5/5/5
f 10/10/10 11/11/11 4/4/4
f 9/9/9 12/12/12 10/10/10
f 10/10/10 13/13/13 11/11/11
f 12/12/12 13/13/13 10/10/10
f 11/11/11 13/13/13 14/14/14
f 13/13/13 12/12/12 15/15/15
f 13/13/13 16/16/16 14/14/14
f 17/17/17 13/13/13 15/15/15
f 13/13/13 17/17/17 16/16/16
f 18/18/18 17/17/17 15/15/15
f 17/17/17 19/19/19 16/16/16
f 19/19/19 17/17/17 18/18/18
f 22/22/22 21/21/21 20/20/20
f 20/20/20 21/21/21 23/23/23
f 20/20/20 23/23/23 24/24/24
f 25/25/25 20/20/20 24/24/24
f 26/26/26 22/22/22 20/20/20
f 26/26/26 27/27/27 22/22/22
f 27/27/27 26/26/26 28/28/28
f 20/20/20 29/29/29 26/26/26
f 29/29/29 20/20/20 25/25/25
f 26/26/26 29/29/29 28/28/28
f 30/30/30 29/29/29 25/25/25
f 29/29/29 30/30/30 28/28/28
f 30/30/30 31/31/31 28/28/28
f 32/32/32 30/30/30 25/25/25
f 30/30/30 33/33/33 31/31/31
f 34/34/34 30/30/30 32/32/32
f 33/33/33 30/30/30 34/34/34
f 35/35/35 34/34/34 32/32/32
f 33/33/33 34/34/34 36/36/36
f 36/36/36 34/34/34 35/35/35
f 39/39/39 38/38/38 37/37/37
f 37/37/37 38/38/38 40/40/40
f 41/41/41 39/39/39 37/37/37
f 41/41/41 42/42/42 39/39/39
f 37/37/37 42/42/42 41/41/41
f 42/42/42 43/43/43 39/39/39
f 44/44/44 43/43/43 42/42/42
f 45/45/45 44/44/44 42/42/42
f 46/46/46 45/45/45 42/42/42
f 47/47/47 37/37/37 40/40/40
f 42/42/42 37/37/37 47/47/47
f 46/46/46 42/42/42 48/48/48
f 42/42/42 47/47/47 48/48/48
f 48/48/48 47/47/47 40/40/40
f 46/46/46 48/48/48 49/49/49
f 48/48/48 40/40/40 50/50/50
f 49/49/49 48/48/48 50/50/50
f 53/53/53 52/52/52 51/51/51
f 53/53/53 51/51/51 54/54/54
f 51/51/51 52/52/52 55/55/55
f 51/51/51 55/55/55 54/54/54
f 52/52/52 56/56/56 55/55/55
f 57/57/57 54/54/54 55/55/55
f 58/58/58 57/57/57 55/55/55
f 59/59/59 58/58/58 55/55/55
f 55/55/55 56/56/56 60/60/60
f 59/59/59 55/55/55 61/61/61
f 62/62/62 55/55/55 60/60/60
f 55/55/55 62/62/62 61/61/61
f 62/62/62 60/60/60 63/63/63
f 61/61/61 62/62/62 64/64/64
f 65/65/65 62/62/62 63/63/63
f 62/62/62 65/65/65 64/64/64
f 66/66/66 65/65/65 63/63/63
f 64/64/64 65/65/65 66/66/66
f 69/69/69 68/68/68 67/67/67
f 70/70/70 67/67/67 68/68/68
f 71/71/71 68/68/68 69/69/69
f 72/72/72 70/70/70 68/68/68
f 73/73/73 68/68/68 71/71/71
f 72/72/72 68/68/68 73/73/73
