g poof05_mesh
v 2.306875 -3.980757 0.8084931
v 2.777761 -3.440862 0.191174
v 2.929949 -4.581165 0.02393198
v 1.913398 -6.147587 -0.2387986
v 1.264719 -4.808343 0.8981009
v 2.777761 -3.440862 0.191174
v 1.318351 -4.164658 0.2180605
v -0.0385499 -4.274468 0.2018948
v -0.02638006 -5.132936 0.8334661
v 0.01049566 -6.600548 -0.1737418
v -0.9491439 -4.195413 0.188107
v -1.33159 -4.928748 0.7681284
v -1.778769 -5.994428 -0.1523705
v -2.159442 -3.482549 0.1449986
v -2.528959 -4.900961 -0.1301975
v -2.398044 -3.761079 0.4666791
v -2.646509 -3.440102 0.2323127
v -2.806307 -4.023289 -0.09419394
v -1.405131 2.854228 -0.08226299
v -1.526732 2.804478 -0.08502102
v -1.607757 2.908915 -0.08206606
v -1.528237 3.0836 0.05176115
v -1.259865 2.909942 -0.09166145
v -1.64286 2.97023 -0.08334637
v -1.212311 3.116269 -0.08938217
v -1.62381 3.115875 -0.08655453
v -1.332013 3.259382 -0.08897448
v -1.549384 3.271904 -0.08834124
v 3.588491 -0.5539651 0.2338319
v 3.7207 -0.1868687 0.6399851
v 4.360207 -0.6492705 0.07142973
v 2.838864 -0.07645273 0.255147
v 3.666519 -0.08970594 0.2770529
v 3.7207 -0.1868687 0.6399851
v 2.838864 -0.07645273 0.255147
v 4.575833 -0.05100107 0.5291328
v 4.504389 0.2153168 0.2790084
v 5.974478 0.7272568 0.3350325
v 4.360207 -0.6492705 0.07142973
v 6.001632 -0.1789899 -0.1208553
v 5.101562 0.5903344 0.2805562
v 6.762599 0.9167705 -0.2499695
v 5.628232 1.306153 0.6135488
v 4.80491 1.24581 0.2824554
v 4.859653 2.275458 0.3110867
v 6.203512 2.087718 0.2035832
v 6.760854 1.991483 -0.2851567
v 5.766829 2.416954 0.587183
v 5.374098 3.029531 0.2185807
v 6.316123 2.797261 -0.3314729
v -0.3688555 5.561951 -0.4334612
v 1.596178 4.419016 0.9962764
v -0.1103597 3.966801 -0.4380903
v 1.072799 2.94043 -0.3315573
v 2.427027 3.208113 -0.4521875
v 3.050607 4.366412 -0.4147353
v 3.598241 5.274487 -0.1336584
v 0.5629835 5.45034 0.6237912
v 0.4156499 6.921216 -0.427876
v 1.611682 7.990132 -0.4166908
v 2.971749 6.394053 0.8280215
v 4.940834 6.715072 0.6190357
v 4.325216 5.629414 -0.09750032
v 2.811795 7.396168 0.46561
v 3.805088 7.937935 -0.4083338
v 5.41556 7.442793 -0.3999624
v 6.08609 6.032627 -0.3998356
v 5.518759 5.896985 0.5345778
v 5.034647 5.020817 -0.1006236
v 5.903611 4.547174 -0.3998356
v -3.938887 3.26273 0.5422878
v -3.639464 3.818552 0.09140825
v -2.523599 2.788496 0.07750797
v -5.581227 3.429072 0.09114122
v -3.367167 2.478071 0.5332832
v -2.53757 1.804854 0.07034683
v -3.662411 1.005632 0.06065273
v -4.189588 1.742091 0.525939
v -4.589002 0.732758 0.05873966
v -5.653121 0.6940675 0.05655861
v -4.940032 3.061919 0.5421472
v -4.946434 1.885443 0.6883974
v -6.25011 0.8541341 0.05921793
v -6.261239 1.879421 0.7191811
v -6.760404 1.851578 0.09062052
v -6.423092 0.9242554 0.350523
v -6.566487 0.9697275 0.1194625
v -6.160362 0.03569412 0.05675554
v -6.482437 -0.2835388 0.6126766
v -6.823224 -0.09536171 0.06723738
v -5.983018 -0.9661536 0.6722879
v -5.489931 -0.7134128 0.059021
v -6.726961 -1.049191 0.07300568
v -5.093443 -2.208812 0.8087463
v -5.018131 -1.758242 0.06170797
v -6.656952 -1.742949 0.07721233
v -5.949153 -2.402813 0.04784966
v -5.097931 -2.84829 0.05429363
v -3.914463 -2.264568 0.0649581
v -4.132804 -2.830253 0.07573509
v -4.089612 -2.462678 0.7264972
v -3.030164 -2.409454 0.07498932
v 4.312315 -2.491915 0.2750974
v 4.078272 -3.108305 0.275393
v 3.651451 -2.384228 0.888196
v 4.242813 -1.930634 0.2777143
v 3.672358 -3.177386 0.2755899
v 3.555597 -1.530784 0.2906017
v 3.035173 -2.991853 0.3289967
v 2.996736 -1.589242 0.2988462
v 2.80203 -2.802002 0.3041787
v 2.66605 -1.741683 0.2932186
v 2.610392 -2.335661 0.2938237
vt 0.114076 0.6480889
vt 0.1298705 0.3171952
vt 0.1212255 0.2538724
vt 0.129388 0.3172435
vt 0.1135067 0.6478091
vt 0.1457229 0.2715484
vt 0.144594 0.2707765
vt 0.1439476 0.2703327
vt 0.1131208 0.6476161
vt 0.1293302 0.3174557
vt 0.143388 0.2699564
vt 0.1127252 0.6474232
vt 0.1292433 0.3177934
vt 0.1416609 0.2687696
vt 0.1292144 0.3179092
vt 0.1216018 0.4987309
vt 0.12851 0.3831134
vt 0.1291565 0.3181118
vt 0.1245542 0.3152462
vt 0.1341447 0.2965572
vt 0.1419889 0.2519041
vt 0.1333053 0.7108811
vt 0.1157355 0.285529
vt 0.1402522 0.3143778
vt 0.1508269 0.5111485
vt 0.1506146 0.4802058
vt 0.150798 0.5063049
vt 0.1507497 0.4988563
vt 0.1440441 0.2758516
vt 0.1123875 0.6825339
vt 0.1270724 0.3774498
vt 0.143002 0.2785435
vt 0.1394128 0.275813
vt 0.1418442 0.6872906
vt 0.1395479 0.2752727
vt 0.136827 0.6947682
vt 0.1393742 0.2759577
vt 0.1280566 0.7078611
vt 0.1303915 0.3181311
vt 0.1304204 0.3181504
vt 0.1393453 0.2760735
vt 0.1304397 0.3181697
vt 0.130459 0.7229127
vt 0.1393067 0.2762182
vt 0.1389786 0.2775111
vt 0.1270145 0.6822541
vt 0.130459 0.3181794
vt 0.1294073 0.6890273
vt 0.1369524 0.4182628
vt 0.1304783 0.318189
vt 0.1309029 0.5972609
vt 0.1245542 0.7446989
vt 0.1309125 0.6091092
vt 0.1275356 0.4945242
vt 0.1249401 0.4066943
vt 0.1288477 0.3700398
vt 0.1331799 0.329468
vt 0.1268409 0.7336128
vt 0.1308932 0.5829523
vt 0.1308739 0.5543832
vt 0.1342798 0.7440332
vt 0.142481 0.7434736
vt 0.1385348 0.2792575
vt 0.1329097 0.7281036
vt 0.130845 0.4910025
vt 0.130816 0.4276507
vt 0.1307581 0.318382
vt 0.142124 0.696997
vt 0.1386409 0.2788619
vt 0.1369717 0.425364
vt 0.1352736 0.7132835
vt 0.1302854 0.3206397
vt 0.1503734 0.4438408
vt 0.1301696 0.3205625
vt 0.1442949 0.7203462
vt 0.1463018 0.3869439
vt 0.1441888 0.3363571
vt 0.1420565 0.7138625
vt 0.143523 0.3205046
vt 0.1427705 0.3025778
vt 0.1352157 0.7132739
vt 0.1408022 0.7263669
vt 0.1417477 0.3815118
vt 0.1399242 0.6896448
vt 0.1301117 0.3205143
vt 0.1395575 0.5469635
vt 0.1300538 0.3204757
vt 0.1416898 0.2741148
vt 0.1393839 0.6591943
vt 0.1299573 0.3204178
vt 0.1393453 0.6565892
vt 0.1416609 0.2726869
vt 0.1299284 0.3203985
vt 0.1392391 0.6506265
vt 0.1416416 0.2709984
vt 0.1299091 0.3203792
vt 0.1298994 0.3203695
vt 0.1298801 0.3203599
vt 0.1415741 0.2671005
vt 0.1305362 0.3055592
vt 0.139297 0.6505783
vt 0.1328229 0.3190767
vt 0.1298994 0.3172241
vt 0.1298801 0.3172049
vt 0.1128988 0.672239
vt 0.1299477 0.3173013
vt 0.1298705 0.3171952
vt 0.1249498 0.4215432
vt 0.1290214 0.316433
vt 0.1396251 0.33216
vt 0.1456553 0.271722
vt 0.1442081 0.275456
vt 0.14498 0.2734588
vn 0.2586769 -0.1118273 0.9594691
vn 0.7887685 0.01532304 0.6144994
vn 0.7887685 0.01532304 0.6144994
vn 0.4646247 -0.4520887 0.7614064
vn 0.02944821 0.1693361 0.9851183
vn 0.7887685 0.01532304 0.6144994
vn -0.4379636 0.7441988 0.5043372
vn 0.04735672 0.5973492 0.8005818
vn -0.05114001 0.01890475 0.9985126
vn -0.1926172 -0.5935658 0.7813951
vn 0.04735672 0.5973492 0.8005818
vn -0.5561596 -0.3965724 0.7303539
vn -0.5561596 -0.3965724 0.7303539
vn 0.3804547 0.540042 0.7507388
vn -0.5561596 -0.3965724 0.7303539
vn -0.6152576 -0.3088207 0.7253191
vn -0.7692708 -0.1386901 0.6236887
vn -0.6152576 -0.3088207 0.7253191
vn 0.04735672 -0.4270168 0.9030027
vn -0.1174015 -0.4377619 0.8913929
vn -0.5776498 -0.3141933 0.7533945
vn -0.7280812 0.3537936 0.5871353
vn 0.4144809 -0.1064547 0.9038103
vn -0.7101727 -0.1118273 0.6950896
vn 0.3625462 0.301859 0.8817264
vn -0.7280812 0.3537936 0.5871353
vn 0.3625462 0.301859 0.8817264
vn -0.7280812 0.3537936 0.5871353
vn 0.04735672 -0.7493697 0.6604561
vn 0.02586651 0.09770215 0.9948795
vn 0.04735672 -0.7493697 0.6604561
vn 0.007957995 0.9662642 0.2574298
vn -0.181872 0.8283688 0.5298375
vn 0.02586651 0.09770215 0.9948795
vn 0.007957995 0.9662642 0.2574298
vn 0.02586651 0.09770215 0.9948795
vn -0.181872 0.8283688 0.5298375
vn 0.2174874 -0.1995789 0.955441
vn 0.04735672 -0.7493697 0.6604561
vn 0.2264417 -0.4323894 0.8727907
vn -0.1764995 -0.305239 0.9357762
vn 0.6114743 -0.341056 0.7139887
vn 0.0151214 -0.1207815 0.992564
vn -0.3340943 0.02964985 0.9420732
vn -0.3340943 0.02964985 0.9420732
vn 0.6974351 0.3573754 0.621182
vn 0.6974351 0.3573754 0.621182
vn 0.1297358 -0.004376292 0.9915389
vn -0.3215584 0.3287218 0.887999
vn 0.6974351 0.3573754 0.621182
vn -0.6546564 -0.2210691 0.7228786
vn -0.575859 -0.3571737 0.7354002
vn -0.575859 -0.3571737 0.7354002
vn 0.1995789 -0.6920626 0.6936985
vn 0.1995789 -0.6920626 0.6936985
vn 0.5774482 -0.5380495 0.6140492
vn 0.5667031 -0.3303109 0.7548128
vn -0.6546564 -0.2210691 0.7228786
vn -0.445127 0.4898982 0.7495744
vn 0.0187031 0.8409047 0.5408599
vn 0.1924155 -0.02586651 0.9809726
vn 0.7296704 0.4039375 0.5517387
vn 0.1977881 -0.5935658 0.7801023
vn -0.1764995 0.2409701 0.9543486
vn 0.0187031 0.8409047 0.5408599
vn 0.7296704 0.3466302 0.5894307
vn 0.8568208 -0.1046639 0.5048798
vn 0.8568208 -0.1046639 0.5048798
vn -0.03144068 -0.5756574 0.8170863
vn 0.8568208 -0.1046639 0.5048798
vn 0.0939188 0.2570877 0.9618135
vn 0.1476443 0.5346694 0.8320636
vn 0.4789515 -0.01333058 0.8777402
vn -0.6833099 0.5113884 0.5211232
vn 0.22286 -0.004376292 0.9748406
vn 0.2622586 -0.3428469 0.9020401
vn 0.1333175 -0.4592521 0.8782448
vn 0.1279449 -0.1727162 0.9766265
vn 0.05093837 -0.4664155 0.8830979
vn 0.05093837 -0.4664155 0.8830979
vn 0.0007945895 0.266042 0.9639611
vn 0.04914755 -0.2049515 0.9775374
vn 0.865775 0.09412044 0.4915028
vn -0.6833099 0.5113884 0.5211232
vn -0.6833099 0.5113884 0.5211232
vn 0.865775 0.09412044 0.4915028
vn -0.8516499 -0.1709253 0.4954564
vn 0.865775 0.09412044 0.4915028
vn -0.1030747 0.1979897 0.9747695
vn -0.7155453 -0.2336051 0.6583492
vn -0.1030747 0.1979897 0.9747695
vn 0.5774482 0.4988525 0.646297
vn -0.7155453 -0.2336051 0.6583492
vn -0.373493 -0.7063894 0.6012629
vn 0.3195658 0.8373231 0.4435851
vn -0.4827348 -0.5487946 0.6824893
vn -0.373493 -0.7063894 0.6012629
vn -0.373493 -0.7063894 0.6012629
vn 0.3195658 0.8373231 0.4435851
vn -0.08516616 -0.8120495 0.5773407
vn 0.1476443 -0.02944821 0.988602
vn 0.5183501 0.08695704 0.8507359
vn 0.6383371 -0.2425593 0.7305414
vn 0.6383371 -0.2425593 0.7305414
vn -0.4934798 -0.1834612 0.850188
vn 0.3428469 0.5651139 0.7504014
vn -0.1120289 -0.6096835 0.7846882
vn -0.04755831 0.5686955 0.8211721
vn -0.2588786 -0.4986508 0.827242
vn -0.04755831 0.5686955 0.8211721
vn -0.4934798 -0.1834612 0.850188
vn -0.4934798 0.04755831 0.868456
vn -0.4934798 -0.1834612 0.850188
g poof05_mesh_0
f 3/3/3 2/2/2 1/1/1
f 1/1/1 4/4/4 3/3/3
f 4/4/4 1/1/1 5/5/5
f 5/5/5 1/1/1 6/6/6
f 7/7/7 5/5/5 6/6/6
f 7/7/7 8/8/8 5/5/5
f 5/5/5 9/9/9 4/4/4
f 8/8/8 9/9/9 5/5/5
f 9/9/9 10/10/10 4/4/4
f 8/8/8 11/11/11 9/9/9
f 9/9/9 12/12/12 10/10/10
f 11/11/11 12/12/12 9/9/9
f 10/10/10 12/12/12 13/13/13
f 14/14/14 12/12/12 11/11/11
f 12/12/12 15/15/15 13/13/13
f 16/16/16 12/12/12 14/14/14
f 12/12/12 16/16/16 15/15/15
f 17/17/17 16/16/16 14/14/14
f 16/16/16 18/18/18 15/15/15
f 18/18/18 16/16/16 17/17/17
f 21/21/21 20/20/20 19/19/19
f 22/22/22 21/21/21 19/19/19
f 22/22/22 19/19/19 23/23/23
f 24/24/24 21/21/21 22/22/22
f 22/22/22 23/23/23 25/25/25
f 26/26/26 24/24/24 22/22/22
f 22/22/22 25/25/25 27/27/27
f 26/26/26 22/22/22 28/28/28
f 22/22/22 27/27/27 28/28/28
f 31/31/31 30/30/30 29/29/29
f 30/30/30 32/32/32 29/29/29
f 35/35/35 34/34/34 33/33/33
f 33/33/33 34/34/34 36/36/36
f 37/37/37 33/33/33 36/36/36
f 37/37/37 36/36/36 38/38/38
f 36/36/36 34/34/34 39/39/39
f 38/38/38 36/36/36 39/39/39
f 40/40/40 38/38/38 39/39/39
f 41/41/41 37/37/37 38/38/38
f 42/42/42 38/38/38 40/40/40
f 41/41/41 38/38/38 43/43/43
f 44/44/44 41/41/41 43/43/43
f 44/44/44 43/43/43 45/45/45
f 38/38/38 42/42/42 46/46/46
f 38/38/38 46/46/46 43/43/43
f 42/42/42 47/47/47 46/46/46
f 43/43/43 48/48/48 45/45/45
f 46/46/46 48/48/48 43/43/43
f 46/46/46 47/47/47 48/48/48
f 45/45/45 48/48/48 49/49/49
f 47/47/47 50/50/50 48/48/48
f 50/50/50 49/49/49 48/48/48
f 53/53/53 52/52/52 51/51/51
f 52/52/52 53/53/53 54/54/54
f 52/52/52 54/54/54 55/55/55
f 56/56/56 52/52/52 55/55/55
f 57/57/57 52/52/52 56/56/56
f 52/52/52 58/58/58 51/51/51
f 58/58/58 59/59/59 51/51/51
f 60/60/60 59/59/59 58/58/58
f 61/61/61 52/52/52 57/57/57
f 52/52/52 61/61/61 58/58/58
f 62/62/62 61/61/61 57/57/57
f 63/63/63 62/62/62 57/57/57
f 58/58/58 64/64/64 60/60/60
f 61/61/61 64/64/64 58/58/58
f 64/64/64 61/61/61 62/62/62
f 64/64/64 65/65/65 60/60/60
f 64/64/64 62/62/62 65/65/65
f 62/62/62 66/66/66 65/65/65
f 62/62/62 67/67/67 66/66/66
f 68/68/68 62/62/62 63/63/63
f 67/67/67 62/62/62 68/68/68
f 69/69/69 68/68/68 63/63/63
f 67/67/67 68/68/68 70/70/70
f 70/70/70 68/68/68 69/69/69
f 73/73/73 72/72/72 71/71/71
f 71/71/71 72/72/72 74/74/74
f 75/75/75 73/73/73 71/71/71
f 75/75/75 76/76/76 73/73/73
f 77/77/77 76/76/76 75/75/75
f 78/78/78 77/77/77 75/75/75
f 75/75/75 71/71/71 78/78/78
f 79/79/79 77/77/77 78/78/78
f 80/80/80 79/79/79 78/78/78
f 81/81/81 71/71/71 74/74/74
f 71/71/71 81/81/81 78/78/78
f 82/82/82 80/80/80 78/78/78
f 81/81/81 82/82/82 78/78/78
f 82/82/82 83/83/83 80/80/80
f 84/84/84 81/81/81 74/74/74
f 84/84/84 82/82/82 81/81/81
f 82/82/82 84/84/84 83/83/83
f 84/84/84 74/74/74 85/85/85
f 84/84/84 86/86/86 83/83/83
f 86/86/86 84/84/84 85/85/85
f 86/86/86 85/85/85 87/87/87
f 86/86/86 88/88/88 83/83/83
f 89/89/89 86/86/86 87/87/87
f 86/86/86 89/89/89 88/88/88
f 90/90/90 89/89/89 87/87/87
f 89/89/89 91/91/91 88/88/88
f 91/91/91 89/89/89 90/90/90
f 91/91/91 92/92/92 88/88/88
f 93/93/93 91/91/91 90/90/90
f 91/91/91 94/94/94 92/92/92
f 94/94/94 91/91/91 93/93/93
f 94/94/94 95/95/95 92/92/92
f 96/96/96 94/94/94 93/93/93
f 96/96/96 97/97/97 94/94/94
f 97/97/97 98/98/98 94/94/94
f 99/99/99 95/95/95 94/94/94
f 98/98/98 100/100/100 94/94/94
f 101/101/101 99/99/99 94/94/94
f 101/101/101 94/94/94 100/100/100
f 102/102/102 99/99/99 101/101/101
f 102/102/102 101/101/101 100/100/100
f 105/105/105 104/104/104 103/103/103
f 106/106/106 105/105/105 103/103/103
f 105/105/105 107/107/107 104/104/104
f 106/106/106 108/108/108 105/105/105
f 105/105/105 109/109/109 107/107/107
f 110/110/110 105/105/105 108/108/108
f 111/111/111 109/109/109 105/105/105
f 105/105/105 110/110/110 112/112/112
f 111/111/111 105/105/105 113/113/113
f 113/113/113 105/105/105 112/112/112
