g poof05_mesh
v -0.6067533 -1.822904 1.145634
v -0.3100119 -3.88064 -0.0989871
v -0.9860463 -3.069209 0.02812338
v -2.212508 -3.135902 -0.2021694
v 0.7611372 -4.183875 -0.1478567
v -2.851971 -1.802599 0.7630167
v -3.712182 -2.534983 -0.2174296
v -3.586277 0.6818871 0.4613938
v -4.484987 -1.198103 -0.225771
v -4.793167 0.5430942 -0.23452
v -2.190898 1.019737 0.4055867
v -3.982441 1.805248 -0.2389574
v -2.915205 2.062955 -0.007469177
v -2.312004 1.536981 -0.2416291
v -2.134775 1.881876 -0.332377
v -1.879603 -0.8570926 0.9517031
v -0.3372993 1.604561 0.459836
v -1.906701 2.147445 -0.3639665
v -1.356862 2.179261 -0.3845434
v -0.7834487 1.99916 -0.4993906
v -0.7221351 3.037742 -0.5423012
v -0.1441121 3.948578 -0.5177941
v -0.3584018 -0.1072192 -0.01449728
v -0.3584018 -0.1072192 -0.01449728
v 1.31564 -0.7573426 1.077364
v 1.189852 1.656284 0.8906703
v 1.24681 3.295449 0.2995424
v 1.500215 4.687539 -0.4910226
v 3.583011 2.888705 0.2143283
v 3.152838 4.414707 -0.4509377
v 4.497416 3.30359 -0.4506297
v 2.790255 1.14144 0.2007794
v 4.703419 1.6425 -0.3885374
v 4.154432 0.5664692 -0.338798
v 2.771308 -0.05074215 0.4412608
v 4.319027 -0.6255412 -0.3423033
v 3.863976 -1.507315 -0.3162379
v 3.078084 -1.901162 -0.1887655
v 2.660871 -2.929084 -0.2798576
v 2.082775 -3.82044 -0.1657977
v 1.036487 -3.09147 0.4880657
vt 0.8535204 0.8334408
vt 0.7082263 0.843129
vt 0.6831571 0.8507965
vt 0.7086489 0.8429763
vt 0.7080665 0.8430722
vt 0.873749 0.8368786
vt 0.7087199 0.8427419
vt 0.8934911 0.8384554
vt 0.7087377 0.8426851
vt 0.7087554 0.8426247
vt 0.8915699 0.8337001
vt 0.708791 0.8425075
vt 0.7628394 0.8224245
vt 0.7787922 0.8221794
vt 0.7869781 0.8220516
vt 0.8853905 0.8335616
vt 0.8826061 0.8493972
vt 0.7902418 0.8220019
vt 0.7923691 0.8219664
vt 0.7948622 0.8570611
vt 0.8353444 0.841886
vt 0.8238699 0.8419038
vt 0.6950862 0.8335083
vt 0.6863924 0.8320274
vt 0.8534777 0.8320629
vt 0.8961796 0.8369212
vt 0.89016 0.8415593
vt 0.8113335 0.8419216
vt 0.8831531 0.8416942
vt 0.7557366 0.8419819
vt 0.7078001 0.8420352
vt 0.8892508 0.8409165
vt 0.7077291 0.8422731
vt 0.6634398 0.8424045
vt 0.8797438 0.8423833
vt 0.7076758 0.8424507
vt 0.7076616 0.8425075
vt 0.6825604 0.8559211
vt 0.7078001 0.8429763
vt 0.7079031 0.8430154
vt 0.8889986 0.8481649
vn -0.1291707 -0.5154582 0.8471233
vn -0.1166232 -0.5154582 0.8489417
vn -0.4710906 -0.5060475 0.7224885
vn -0.187203 -0.6330912 0.7510996
vn -0.07270688 -0.5123212 0.8557106
vn -0.1699501 -0.6299543 0.757809
vn -0.265625 -0.6456386 0.7159567
vn -0.5526496 -0.15158 0.8195133
vn -0.5526496 -0.15158 0.8195133
vn -0.2891516 0.4303111 0.8551162
vn -0.2844463 0.3895318 0.8759882
vn -0.2860147 0.4036477 0.8690593
vn -0.2530774 0.198182 0.9469296
vn 0.6879866 0.6247978 0.3691913
vn -0.6938091 0.4946173 0.5234336
vn 0.2660762 0.3095413 0.9129007
vn 0.2111808 0.9071169 0.3640625
vn -0.2483721 0.5871552 0.7704285
vn 0.1060953 0.8773167 0.4680377
vn 0.3319507 0.9165276 0.2231277
vn -0.6608719 0.3032675 0.6864963
vn -0.5871552 0.3518892 0.7289875
vn 0.140601 -0.02453643 0.9897622
vn 0.140601 -0.02453643 0.9897622
vn 0.4370362 -0.2456865 0.8652384
vn -0.1950452 0.0648647 0.978647
vn -0.4601116 0.500891 0.7330794
vn -0.4601116 0.500891 0.7330794
vn 0.4213517 0.0272221 0.9064887
vn 0.08727401 0.4491325 0.8891925
vn 0.4213517 0.08368593 0.903028
vn 0.4213517 -0.0590421 0.9049733
vn 0.4213517 -0.0590421 0.9049733
vn 0.3209716 -0.1202112 0.9394288
vn 0.400962 -0.1327588 0.906424
vn 0.4480152 0.1150547 0.8865917
vn 0.4088042 -0.2174546 0.8863366
vn 0.4135095 -0.2315705 0.8805594
vn 0.4370362 -0.2456865 0.8652384
vn 0.4338993 -0.2425496 0.8676988
vn 0.4338993 -0.2425496 0.8676988
g poof05_mesh_0
f 3/3/3 2/2/2 1/1/1
f 1/1/1 4/4/4 3/3/3
f 1/1/1 2/2/2 5/5/5
f 1/1/1 6/6/6 4/4/4
f 7/7/7 4/4/4 6/6/6
f 6/6/6 8/8/8 7/7/7
f 8/8/8 9/9/9 7/7/7
f 8/8/8 10/10/10 9/9/9
f 8/8/8 11/11/11 10/10/10
f 11/11/11 12/12/12 10/10/10
f 13/13/13 12/12/12 11/11/11
f 11/11/11 14/14/14 13/13/13
f 11/11/11 15/15/15 14/14/14
f 6/6/6 16/16/16 8/8/8
f 1/1/1 16/16/16 6/6/6
f 16/16/16 11/11/11 8/8/8
f 11/11/11 17/17/17 15/15/15
f 17/17/17 18/18/18 15/15/15
f 17/17/17 19/19/19 18/18/18
f 20/20/20 19/19/19 17/17/17
f 17/17/17 21/21/21 20/20/20
f 22/22/22 21/21/21 17/17/17
f 23/23/23 11/11/11 16/16/16
f 11/11/11 23/23/23 17/17/17
f 1/1/1 24/24/24 16/16/16
f 1/1/1 25/25/25 24/24/24
f 25/25/25 26/26/26 24/24/24
f 26/26/26 17/17/17 23/23/23
f 22/22/22 17/17/17 27/27/27
f 17/17/17 26/26/26 27/27/27
f 22/22/22 27/27/27 28/28/28
f 27/27/27 29/29/29 28/28/28
f 27/27/27 26/26/26 29/29/29
f 29/29/29 30/30/30 28/28/28
f 29/29/29 31/31/31 30/30/30
f 31/31/31 29/29/29 32/32/32
f 32/32/32 29/29/29 26/26/26
f 33/33/33 31/31/31 32/32/32
f 32/32/32 34/34/34 33/33/33
f 32/32/32 26/26/26 35/35/35
f 32/32/32 35/35/35 34/34/34
f 26/26/26 25/25/25 35/35/35
f 35/35/35 36/36/36 34/34/34
f 35/35/35 37/37/37 36/36/36
f 37/37/37 35/35/35 25/25/25
f 38/38/38 37/37/37 25/25/25
f 25/25/25 39/39/39 38/38/38
f 40/40/40 39/39/39 25/25/25
f 41/41/41 40/40/40 25/25/25
f 25/25/25 1/1/1 41/41/41
f 41/41/41 5/5/5 40/40/40
f 41/41/41 1/1/1 5/5/5
