g poof07_mesh
v 1.837666 -5.378176 0.2670627
v 2.337165 -5.123434 -0.03405046
v 2.485325 -5.624444 -0.03015089
v 1.733385 -6.571252 -0.02421331
v 1.351873 -6.090547 0.3000784
v 1.929045 -5.075025 -0.03394794
v 2.337165 -5.123434 -0.03405046
v 1.301544 -5.622934 -0.03428507
v 0.1871214 -5.733811 -0.0340066
v 0.03409433 -6.278847 0.2773838
v 0.1156807 -7.017226 -0.02565002
v -0.8312302 -5.630074 -0.03362513
v -1.311496 -6.084301 0.2521825
v -1.585707 -6.564112 -0.02611923
v -1.475386 -5.138109 -0.03267241
v -2.043966 -5.876811 -0.02660275
v -1.750668 -5.384744 0.1410847
v -1.86675 -5.069087 -0.03278971
v -2.125142 -5.427582 -0.02739477
v 6.381852 0.3225384 -0.03437281
v 6.406585 0.6281962 0.1951089
v 6.634674 0.3953133 -0.03237915
v 6.233253 0.4992862 -0.03462219
v 6.286089 0.7543359 -0.03487158
v 6.406585 0.6281962 0.1951089
v 6.233253 0.4992862 -0.03462219
v 6.515307 1.019047 0.2917953
v 6.634674 0.3953133 -0.03237915
v 6.79701 0.649117 -0.03006268
v 6.200442 1.039528 -0.03500319
v 6.973171 1.152311 -0.0261631
v 6.216408 1.408138 0.1673121
v 5.785739 1.332373 -0.03498888
v 5.587763 1.735523 -0.03528214
v 6.500588 1.768509 0.1872067
v 6.75577 1.761589 -0.02595806
v 6.194813 1.946532 0.1514058
v 5.666652 2.224849 -0.03384542
v 6.408535 2.209118 -0.02522469
v 0.9507165 5.428517 0.5113811
v 0.488308 4.58385 -0.01865673
v -0.1193724 5.647766 -0.01906729
v 1.455098 4.370919 -0.02440405
v 2.199444 4.969437 -0.03082514
v 2.5486 6.527033 -0.03391838
v 0.3905807 6.164141 0.1942291
v 0.4499998 7.289851 -0.01905251
v 2.356987 8.355469 -0.01981497
v 1.388774 7.396653 0.4586616
v 2.363921 7.755808 0.3421688
v 3.265326 7.70948 0.1525636
v 3.223499 6.634568 -0.03586817
v 4.181654 7.915579 -0.01908207
v 4.057553 7.308324 0.1360121
v 3.687168 6.594486 -0.03645468
v 4.488749 7.352598 -0.02082682
v 4.465644 6.693431 -0.0350914
v -6.176909 -1.122568 0.2368326
v -6.004604 -1.000387 -0.03657198
v -5.820908 -1.235454 -0.03306818
v -6.223442 -1.346786 -0.03280449
v -6.44964 -0.8968682 0.3416705
v -6.302316 -0.4547353 -0.03770113
v -6.515598 -1.339617 -0.04029608
v -7.041384 -0.8804483 -0.04255342
v -7.341236 -0.2542229 -0.03229141
v -6.310746 0.4489565 -0.03880072
v -7.390467 0.5230069 -0.03380108
v -6.901302 0.5077453 0.3008113
v -6.488446 1.227476 -0.03957748
v -7.219319 1.118724 -0.03592682
v -6.954447 0.9107785 0.2839518
v -6.789164 1.512198 -0.04240704
v -5.574184 3.729945 -0.0238905
v -5.28977 3.382299 0.4173188
v -5.906158 2.598355 -0.04041338
v -5.154058 2.680058 -0.03880072
v -3.919814 3.125842 0.3167472
v -4.446319 2.287932 -0.03818464
v -3.57535 1.987919 -0.03733444
v -2.581775 2.295996 -0.03278971
v -4.79093 4.42877 -0.02516603
v -2.435213 3.056806 -0.03079605
v -4.680433 3.648946 0.4187555
v -3.910563 3.849619 0.4283142
v -3.201036 4.131733 -0.02450657
v -3.32634 3.637877 0.2751698
v 4.160323 -2.728866 -0.03663063
v 4.072008 -2.837281 -0.03664541
v 4.003983 -2.688579 0.2226558
v 4.12549 -2.5972 -0.03674793
v 3.837249 -2.841885 -0.03778887
v 4.014627 -2.493007 -0.03733444
v 3.788297 -2.683477 -0.03748083
v 3.848874 -2.488653 -0.03761292
vt 0.09009693 0.6480882
vt 0.1058861 0.3171883
vt 0.09724863 0.2538729
vt 0.1054008 0.3172477
vt 0.08952241 0.6478109
vt 0.1212593 0.2712173
vt 0.1217447 0.2715541
vt 0.1206155 0.2707814
vt 0.1201004 0.2704248
vt 0.08915592 0.6476226
vt 0.1053513 0.3174557
vt 0.119407 0.2699494
vt 0.08873989 0.6474245
vt 0.1052621 0.3177925
vt 0.1176736 0.2687706
vt 0.1052324 0.3179113
vt 0.09762504 0.4987345
vt 0.1095809 0.3249046
vt 0.1051829 0.3181095
vt 0.1200707 0.275853
vt 0.08840311 0.6825392
vt 0.1030928 0.3774428
vt 0.1190207 0.2785473
vt 0.1154251 0.2758134
vt 0.1178618 0.6872938
vt 0.1155637 0.2752686
vt 0.1040735 0.7078673
vt 0.1064111 0.3181292
vt 0.1064408 0.3181491
vt 0.1153656 0.2760709
vt 0.1064607 0.3181689
vt 0.1064706 0.7229136
vt 0.115326 0.2762195
vt 0.1149991 0.2775171
vt 0.1030334 0.6822519
vt 0.1064706 0.3181788
vt 0.1054206 0.6890272
vt 0.1129784 0.418263
vt 0.1065003 0.3181887
vt 0.1005768 0.7352459
vt 0.1069262 0.6091104
vt 0.1069262 0.5972537
vt 0.1035485 0.4945247
vt 0.1009533 0.4066935
vt 0.1091945 0.3294709
vt 0.1028155 0.6839854
vt 0.1069163 0.5829502
vt 0.1068965 0.554383
vt 0.1042617 0.7340473
vt 0.110304 0.7109281
vt 0.1184957 0.7082635
vt 0.1145534 0.2792605
vt 0.1068272 0.4276533
vt 0.118149 0.6969912
vt 0.1146524 0.2788543
vt 0.1067776 0.3183769
vt 0.1129883 0.4253652
vt 0.1153161 0.6505843
vt 0.1175943 0.2670966
vt 0.1088479 0.3190802
vt 0.1065597 0.3055593
vt 0.1152567 0.6506339
vt 0.1176538 0.2709993
vt 0.105896 0.320358
vt 0.1059159 0.3203679
vt 0.1059258 0.3203778
vt 0.1176835 0.2729507
vt 0.1059456 0.3203976
vt 0.1153656 0.656696
vt 0.1177033 0.2741096
vt 0.1059753 0.3204174
vt 0.1154052 0.6591921
vt 0.1148703 0.4512678
vt 0.1061338 0.3205165
vt 0.1159401 0.6896414
vt 0.1142958 0.3862982
vt 0.1187929 0.3025778
vt 0.1054206 0.7178718
vt 0.1195061 0.3196448
vt 0.1202094 0.3363552
vt 0.1223192 0.3869421
vt 0.1061932 0.3205561
vt 0.1263903 0.4438387
vt 0.105173 0.7365831
vt 0.1051928 0.7375538
vt 0.1063121 0.3206353
vt 0.1057475 0.722973
vt 0.1059159 0.3172279
vt 0.105896 0.3172081
vt 0.08890828 0.6722376
vt 0.1059654 0.3172972
vt 0.1216754 0.2717224
vt 0.1009731 0.4215417
vt 0.1210018 0.2734559
vt 0.115643 0.3321553
vn 0.1051561 -0.01962 0.9942622
vn 0.4563043 0.1424484 0.8783478
vn 0.4563043 0.1424484 0.8783478
vn 0.3737695 -0.2507176 0.8929933
vn -0.05991358 0.1514522 0.9866471
vn -0.5866359 0.5341138 0.6087534
vn 0.4563043 0.1424484 0.8783478
vn -0.07491994 0.5416169 0.8372802
vn -0.07491994 0.5416169 0.8372802
vn 0.009115577 0.05241042 0.998584
vn -0.1184383 -0.4457999 0.8872625
vn 0.244715 0.3180225 0.9159564
vn -0.4080606 -0.2717264 0.8715798
vn -0.4080606 -0.2717264 0.8715798
vn 0.2822309 0.3210238 0.9040406
vn -0.4080606 -0.2717264 0.8715798
vn -0.3840504 -0.08414721 0.9194697
vn 0.08864915 0.5056018 0.8582005
vn -0.3840504 -0.08414721 0.9194697
vn 0.1666821 -0.6003652 0.7821628
vn -0.2024738 -0.1816884 0.9622857
vn 0.1666821 -0.6003652 0.7821628
vn -0.8297385 0.1724611 0.5308401
vn -0.8537487 0.1109351 0.5087304
vn -0.2024738 -0.1816884 0.9622857
vn -0.8297385 0.1724611 0.5308401
vn -0.2024738 -0.1816884 0.9622857
vn 0.1666821 -0.6003652 0.7821628
vn 0.4953208 -0.3242486 0.8059281
vn -0.5116042 -0.396279 0.7623806
vn 0.5988645 -0.216203 0.7711145
vn -0.3450339 -0.1141599 0.9316218
vn -0.3345295 -0.06163776 0.9403674
vn -0.3345295 -0.06163776 0.9403674
vn 0.4022815 0.4650846 0.7885848
vn 0.4022815 0.4650846 0.7885848
vn -0.2564965 0.01339394 0.9664524
vn -0.3090187 0.04640788 0.949923
vn 0.4022815 0.4650846 0.7885848
vn -0.2910112 -0.3887758 0.8741658
vn -0.2910112 -0.3887758 0.8741658
vn -0.4710871 -0.2687252 0.840157
vn 0.2717264 -0.3287505 0.9044821
vn 0.2717264 -0.3287505 0.9044821
vn 0.2071992 -0.2582207 0.9436051
vn -0.4335713 0.0569123 0.8993202
vn -0.4425751 0.4710871 0.7630231
vn 0.1426719 0.5911378 0.7938519
vn 0.07214218 0.1274421 0.9892189
vn 0.07214218 0.1274421 0.9892189
vn 0.1426719 0.5911378 0.7938519
vn 0.1366694 -0.2207049 0.9657178
vn 0.1426719 0.5911378 0.7938519
vn 0.244715 -0.03012443 0.9691269
vn 0.03462631 -0.2882334 0.9569339
vn 0.244715 -0.03012443 0.9691269
vn 0.244715 -0.03012443 0.9691269
vn 0.2297087 -0.2252068 0.9468452
vn 0.6468848 0.3900529 0.6552852
vn 0.5553461 -0.1876909 0.8101622
vn -0.1814649 -0.6813993 0.7090595
vn -0.4710871 -0.5358379 0.7006816
vn 0.6468848 0.3900529 0.6552852
vn -0.4710871 -0.5358379 0.7006816
vn -0.4710871 -0.5358379 0.7006816
vn -0.5296118 -0.2672245 0.805048
vn 0.5088265 0.1124358 0.8534951
vn -0.6376574 0.08992624 0.7650532
vn -0.05841297 0.1244408 0.9905061
vn 0.5088265 0.1124358 0.8534951
vn -0.6376574 0.08992624 0.7650532
vn -0.05841297 0.1244408 0.9905061
vn -0.04640788 0.4860935 0.8726737
vn -0.4665853 0.5236093 0.7128334
vn -0.4665853 0.5236093 0.7128334
vn -0.3810492 -0.2252068 0.896707
vn 0.05713582 -0.5358379 0.8423855
vn 0.1981954 -0.1516758 0.9683558
vn -0.1139364 -0.3257492 0.9385659
vn -0.1139364 -0.3257492 0.9385659
vn 0.08114594 -0.273227 0.9585209
vn -0.4665853 0.5236093 0.7128334
vn 0.2222055 -0.09915358 0.969945
vn -0.05241042 0.1544535 0.986609
vn 0.2627226 0.5791328 0.7717396
vn 0.2627226 0.5791328 0.7717396
vn 0.3677669 0.4125625 0.8333905
vn 0.6753968 -0.5493436 0.4919967
vn 0.6753968 -0.5493436 0.4919967
vn -0.7502049 -0.2327099 0.6189011
vn 0.5913613 0.6331556 0.4994054
vn -0.7502049 -0.2327099 0.6189011
vn 0.01962 0.7982253 0.6020395
vn -0.7502049 -0.2327099 0.6189011
vn -0.7472037 0.2324864 0.6226048
g poof07_mesh_0
f 3/3/3 2/2/2 1/1/1
f 1/1/1 4/4/4 3/3/3
f 4/4/4 1/1/1 5/5/5
f 5/5/5 1/1/1 6/6/6
f 6/6/6 1/1/1 7/7/7
f 8/8/8 5/5/5 6/6/6
f 8/8/8 9/9/9 5/5/5
f 5/5/5 10/10/10 4/4/4
f 9/9/9 10/10/10 5/5/5
f 10/10/10 11/11/11 4/4/4
f 9/9/9 12/12/12 10/10/10
f 10/10/10 13/13/13 11/11/11
f 12/12/12 13/13/13 10/10/10
f 11/11/11 13/13/13 14/14/14
f 15/15/15 13/13/13 12/12/12
f 13/13/13 16/16/16 14/14/14
f 17/17/17 13/13/13 15/15/15
f 13/13/13 17/17/17 16/16/16
f 17/17/17 15/15/15 18/18/18
f 17/17/17 19/19/19 16/16/16
f 19/19/19 17/17/17 18/18/18
f 22/22/22 21/21/21 20/20/20
f 21/21/21 23/23/23 20/20/20
f 26/26/26 25/25/25 24/24/24
f 24/24/24 25/25/25 27/27/27
f 27/27/27 25/25/25 28/28/28
f 29/29/29 27/27/27 28/28/28
f 30/30/30 24/24/24 27/27/27
f 31/31/31 27/27/27 29/29/29
f 30/30/30 27/27/27 32/32/32
f 33/33/33 30/30/30 32/32/32
f 33/33/33 32/32/32 34/34/34
f 27/27/27 31/31/31 35/35/35
f 27/27/27 35/35/35 32/32/32
f 31/31/31 36/36/36 35/35/35
f 32/32/32 37/37/37 34/34/34
f 35/35/35 37/37/37 32/32/32
f 35/35/35 36/36/36 37/37/37
f 34/34/34 37/37/37 38/38/38
f 36/36/36 39/39/39 37/37/37
f 39/39/39 38/38/38 37/37/37
f 42/42/42 41/41/41 40/40/40
f 40/40/40 41/41/41 43/43/43
f 40/40/40 43/43/43 44/44/44
f 45/45/45 40/40/40 44/44/44
f 46/46/46 42/42/42 40/40/40
f 46/46/46 47/47/47 42/42/42
f 47/47/47 46/46/46 48/48/48
f 40/40/40 49/49/49 46/46/46
f 49/49/49 40/40/40 45/45/45
f 46/46/46 49/49/49 48/48/48
f 50/50/50 49/49/49 45/45/45
f 49/49/49 50/50/50 48/48/48
f 51/51/51 50/50/50 45/45/45
f 50/50/50 51/51/51 48/48/48
f 52/52/52 51/51/51 45/45/45
f 51/51/51 53/53/53 48/48/48
f 54/54/54 51/51/51 52/52/52
f 53/53/53 51/51/51 54/54/54
f 55/55/55 54/54/54 52/52/52
f 53/53/53 54/54/54 56/56/56
f 57/57/57 54/54/54 55/55/55
f 56/56/56 54/54/54 57/57/57
f 60/60/60 59/59/59 58/58/58
f 60/60/60 58/58/58 61/61/61
f 58/58/58 59/59/59 62/62/62
f 58/58/58 62/62/62 61/61/61
f 59/59/59 63/63/63 62/62/62
f 64/64/64 61/61/61 62/62/62
f 65/65/65 64/64/64 62/62/62
f 66/66/66 65/65/65 62/62/62
f 62/62/62 63/63/63 67/67/67
f 66/66/66 62/62/62 68/68/68
f 69/69/69 62/62/62 67/67/67
f 62/62/62 69/69/69 68/68/68
f 69/69/69 67/67/67 70/70/70
f 68/68/68 69/69/69 71/71/71
f 72/72/72 69/69/69 70/70/70
f 69/69/69 72/72/72 71/71/71
f 73/73/73 72/72/72 70/70/70
f 71/71/71 72/72/72 73/73/73
f 76/76/76 75/75/75 74/74/74
f 77/77/77 75/75/75 76/76/76
f 77/77/77 78/78/78 75/75/75
f 77/77/77 79/79/79 78/78/78
f 79/79/79 80/80/80 78/78/78
f 80/80/80 81/81/81 78/78/78
f 75/75/75 82/82/82 74/74/74
f 78/78/78 81/81/81 83/83/83
f 75/75/75 84/84/84 82/82/82
f 78/78/78 84/84/84 75/75/75
f 84/84/84 85/85/85 82/82/82
f 78/78/78 85/85/85 84/84/84
f 85/85/85 86/86/86 82/82/82
f 87/87/87 78/78/78 83/83/83
f 87/87/87 83/83/83 86/86/86
f 87/87/87 86/86/86 85/85/85
f 85/85/85 78/78/78 87/87/87
f 90/90/90 89/89/89 88/88/88
f 91/91/91 90/90/90 88/88/88
f 92/92/92 89/89/89 90/90/90
f 91/91/91 93/93/93 90/90/90
f 92/92/92 90/90/90 94/94/94
f 95/95/95 90/90/90 93/93/93
f 94/94/94 90/90/90 95/95/95
