g poofGlow09_mesh
v 2.936545 8.156116 -0.1203775
v 4.690168 7.709731 -0.1201215
v 4.298791 7.740263 0.3071718
v 5.311185 8.753088 -1.032083
v 2.940907 9.126251 -1.010689
v 6.252224 7.103046 -1.00735
v 1.372348 7.981646 -0.1204572
v 5.290989 6.82025 -0.1201215
v 0.8400531 8.747911 -0.9798055
v 5.927504 5.384014 -0.9888644
v 0.2900867 6.918957 -0.1205373
v 5.106964 6.229877 -0.1162071
v -0.8100533 7.525706 -0.9855094
v 4.761873 4.905865 -0.9661131
v -0.2196488 5.427855 -0.1206331
v 4.535381 6.09805 -0.1155362
v -1.381429 5.429932 -0.9741015
v 4.108376 5.040041 -0.9486661
v 0.2808042 4.314742 -0.120697
v 4.05768 6.242947 -0.1154885
v -0.5491776 3.191547 -0.9704428
v 3.772327 4.793833 -0.9517336
v 1.476136 3.994639 -0.1190672
v 3.195056 6.059385 -0.1160474
v 1.437456 2.699706 -0.9747248
v 3.181172 3.664423 -0.9655857
v 2.424765 4.45713 -0.1172457
v 5.259163 -0.04653072 -0.1159196
v 4.693859 0.4274955 -0.9924593
v 5.761725 0.4547849 -0.115808
v 5.753529 0.7417827 -0.1159997
v 4.387624 -0.4443626 -0.9968371
v 4.654507 0.6241908 -0.9763384
v 5.823253 -0.1399813 -0.1160316
v 5.28102 1.092881 -0.1159997
v 5.877671 -1.022576 -0.9901266
v 4.3623 1.836171 -0.9610162
v 6.451347 0.0377326 -0.1168785
v 5.067373 1.832193 -0.11584
v 6.826156 -0.5622258 -0.9701071
v 4.878826 3.231058 -0.9744692
v 6.573797 0.2321429 -0.1181087
v 5.270027 2.501236 -0.1163349
v 7.135234 -0.01195621 -0.948442
v 6.399406 3.367072 -0.9776802
v 6.821059 1.084541 -0.1187954
v 6.150881 2.485867 -0.1192112
v 7.4172 1.053865 -0.9482822
v 7.213091 2.253686 -0.9557915
v 6.64114 1.935949 -0.1189713
v -2.412628 -4.349247 -0.1166868
v -2.606958 -3.399308 -1.003196
v -1.733869 -3.538486 -0.9949679
v -3.224508 -4.025182 -1.002125
v -2.001535 -4.360863 -0.1167188
v -2.529581 -4.823849 -0.1182203
v -0.6117129 -4.403602 -0.9890561
v -3.391213 -4.777371 -0.9873786
v -0.9734035 -5.197539 -0.1164627
v -2.441195 -5.484904 -0.118444
v 0.1187634 -4.510121 -1.000751
v -3.147481 -5.774379 -0.9687171
v 0.18713 -5.423504 -0.1163511
v -1.774755 -6.381032 -0.118588
v 0.9104004 -4.174824 -1.007126
v -2.198869 -6.986455 -0.9676147
v 1.37302 -5.01158 -0.116271
v 0.09407902 -6.91296 -0.1187158
v 1.781044 -3.470359 -1.010593
v 0.07570505 -7.627012 -0.962007
v 2.243056 -4.318316 -0.1163669
v 1.913399 -6.460007 -0.1191311
v 3.101398 -3.656061 -1.008245
v 2.338408 -7.053447 -0.9678226
v 2.776774 -4.138045 -0.1163831
v 2.814688 -5.222831 -0.1174374
v 3.635211 -5.453382 -0.9910212
v -5.495359 -2.104374 -0.1166868
v -5.098262 -3.145831 -1.009715
v -6.007715 -3.005008 -1.002765
v -5.786255 -2.132431 -0.1145616
v -5.109143 -1.945402 -0.1166067
v -7.042812 -2.494569 -0.9989462
v -4.297087 -2.488657 -1.021027
v -6.423281 -1.704498 -0.1139226
v -5.272669 -1.674269 -0.1156163
v -7.898086 -1.423955 -0.9836078
v -4.220988 -1.389716 -1.022688
v -7.02177 -1.002158 -0.1168303
v -5.657367 -1.265813 -0.1152968
v -8.199144 -0.4441385 -0.9789104
v -4.660344 -0.7632346 -1.015866
v -7.234378 -0.3274894 -0.1163988
v -5.900284 -0.29357 -0.1149931
v -8.172813 0.6547551 -0.9916124
v -5.03135 0.1859369 -0.9992175
v -7.222907 0.3640027 -0.11584
v -6.228455 0.58289 -0.1148014
v -6.896541 2.057295 -0.9929066
v -5.419276 1.183664 -0.9878421
v -6.626878 1.154553 -0.1138105
v -3.198369 3.966535 -0.1190352
v -2.830478 4.70516 -0.9976358
v -1.745133 3.096355 -0.9722323
v -2.462204 2.893141 -0.1174054
v -4.982156 3.968293 -0.1190033
v -2.094426 1.554366 -0.9624062
v -5.29828 4.803611 -1.003755
v -2.593825 1.964053 -0.1165428
v -6.32721 2.748308 -0.1189556
v -3.420819 0.8011537 -0.9686694
v -7.078456 3.11238 -0.9909415
v -3.564742 1.561891 -0.1154084
v -6.362153 1.649605 -0.1145296
v -4.765713 0.8377261 -0.9647708
v -6.876745 1.128542 -0.9838958
v -4.635531 1.577596 -0.1151848
v -5.469268 1.883224 -0.114913
v -5.457014 0.9373279 -0.9725838
v -1.325461 3.120863 -0.1180286
v -1.264221 2.566264 -0.3737912
v -1.413671 2.991896 -0.1179967
v -0.7769809 3.278558 -0.3739352
v -1.690347 2.391922 -0.3738394
v -1.4014 3.211662 -0.1180286
v -1.49084 2.960325 -0.1180129
v -1.196429 3.780066 -0.3739352
v -2.116475 2.709818 -0.3738074
v -1.555899 3.110302 -0.1180286
v -1.567995 3.01789 -0.1180129
v -2.049706 3.22021 -0.3738871
v 4.114606 -2.399776 -0.1154723
v 5.116407 -2.741081 -1.001742
v 4.200739 -2.725375 -0.1155043
v 4.907058 -1.929009 -1.003468
v 4.667864 -3.586752 -0.9971247
v 3.84039 -2.142081 -0.1153126
v 4.117978 -2.993488 -0.1155043
v 4.246514 -1.349325 -0.9957185
v 3.957998 -3.967281 -0.9959903
v 3.336134 -2.052257 -0.1152167
v 3.876323 -3.046628 -0.1155043
v 2.985979 -1.543831 -0.9856052
v 3.169669 -3.827017 -0.990622
v 3.294306 -2.335996 -0.1152806
v 3.482198 -3.030891 -0.1148653
v 2.425643 -2.251125 -0.9829531
v 2.590304 -3.282052 -0.9848862
v 3.280662 -2.613136 -0.1152806
v 3.321324 -2.887608 -0.1151528
v 2.404761 -2.656098 -0.9844227
vt 0.2454589 0.6016117
vt 0.2454589 0.6031895
vt 0.2454589 0.602387
vt 0.02472743 0.6035862
vt 0.02472743 0.6012149
vt 0.02472743 0.6059574
vt 0.2454589 0.5988437
vt 0.2454589 0.6059574
vt 0.02472743 0.5988437
vt 0.02472743 0.6083286
vt 0.2454589 0.5964725
vt 0.2454589 0.6083286
vt 0.02472743 0.5964725
vt 0.02464628 0.6065525
vt 0.2454589 0.5941013
vt 0.24554 0.6065525
vt 0.02472743 0.5941013
vt 0.02457415 0.6000338
vt 0.2454589 0.5917301
vt 0.2456121 0.6000338
vt 0.02472743 0.5917301
vt 0.02457415 0.5976626
vt 0.2454589 0.5893588
vt 0.2456121 0.5976626
vt 0.02472743 0.5893588
vt 0.02464628 0.591135
vt 0.24554 0.591135
vt 0.2454589 0.6106998
vt 0.02469136 0.6130711
vt 0.2454589 0.6130711
vt 0.24554 0.6130711
vt 0.02472743 0.6106998
vt 0.02457415 0.6083286
vt 0.2454589 0.6083286
vt 0.2456121 0.6083286
vt 0.02472743 0.6083286
vt 0.02457415 0.6059574
vt 0.2454589 0.6059574
vt 0.2456121 0.6059574
vt 0.02472743 0.6059574
vt 0.02457415 0.6035862
vt 0.2454589 0.6035862
vt 0.2456121 0.6035862
vt 0.02472743 0.6035862
vt 0.02464628 0.5988437
vt 0.2454589 0.6012149
vt 0.24554 0.5988437
vt 0.02472743 0.6012149
vt 0.02472743 0.5988437
vt 0.2454589 0.5988437
vt 0.2455129 0.6024051
vt 0.02464628 0.5941013
vt 0.02472743 0.5893588
vt 0.02464628 0.6106998
vt 0.2454589 0.5893588
vt 0.2454589 0.6154423
vt 0.02472743 0.5917301
vt 0.02472743 0.6154423
vt 0.2454589 0.5917301
vt 0.2454589 0.6130711
vt 0.02472743 0.5941013
vt 0.02472743 0.6130711
vt 0.2454589 0.5941013
vt 0.2454589 0.6106998
vt 0.02472743 0.5964725
vt 0.02472743 0.6106998
vt 0.2454589 0.5964725
vt 0.2454589 0.6083286
vt 0.02472743 0.5988437
vt 0.02472743 0.6083286
vt 0.2454589 0.5988437
vt 0.2454589 0.6059574
vt 0.02472743 0.6012149
vt 0.02472743 0.6059574
vt 0.2454589 0.6012149
vt 0.2454589 0.6035862
vt 0.02472743 0.6035862
vt 0.2454589 0.6059574
vt 0.02472743 0.6059574
vt 0.02472743 0.6083286
vt 0.2454589 0.6083286
vt 0.2454589 0.6035862
vt 0.02472743 0.6106998
vt 0.02472743 0.6035862
vt 0.2454589 0.6106998
vt 0.2454589 0.6012149
vt 0.02472743 0.6130711
vt 0.02472743 0.6012149
vt 0.2454589 0.6130711
vt 0.2454589 0.5988437
vt 0.02472743 0.6154423
vt 0.02472743 0.5988437
vt 0.2454589 0.6154423
vt 0.2454589 0.5964725
vt 0.02464628 0.61189
vt 0.02472743 0.5964725
vt 0.24554 0.61189
vt 0.2454589 0.5941013
vt 0.02464628 0.5976626
vt 0.02472743 0.5941013
vt 0.24554 0.5976626
vt 0.2454589 0.6059574
vt 0.02472743 0.6059574
vt 0.02472743 0.6083286
vt 0.2454589 0.6083286
vt 0.2454589 0.6035862
vt 0.02472743 0.6106998
vt 0.02472743 0.6035862
vt 0.2454589 0.6106998
vt 0.2454589 0.6012149
vt 0.02472743 0.6130711
vt 0.02472743 0.6012149
vt 0.2454589 0.6130711
vt 0.2454589 0.5988437
vt 0.02464628 0.6112949
vt 0.02472743 0.5988437
vt 0.24554 0.6112949
vt 0.24554 0.6006199
vt 0.02464628 0.6006199
vt 0.2454589 0.6059574
vt 0.02472743 0.6083286
vt 0.2454589 0.6083286
vt 0.02472743 0.6059574
vt 0.02464628 0.6106998
vt 0.24554 0.6035862
vt 0.24554 0.6106998
vt 0.02464628 0.6035862
vt 0.02457415 0.6083286
vt 0.2456121 0.6059574
vt 0.2456121 0.6083286
vt 0.02457415 0.6059574
vt 0.2454589 0.5917301
vt 0.02472743 0.5941013
vt 0.2454589 0.5941013
vt 0.02472743 0.5917301
vt 0.02472743 0.5964725
vt 0.24554 0.5941013
vt 0.2454589 0.5964725
vt 0.02464628 0.5941013
vt 0.02472743 0.5988437
vt 0.24554 0.6059574
vt 0.2454589 0.5988437
vt 0.02464628 0.6059574
vt 0.02472743 0.6012149
vt 0.2454589 0.6083286
vt 0.2454589 0.6012149
vt 0.02472743 0.6083286
vt 0.02472743 0.6035862
vt 0.2454589 0.6059574
vt 0.2454589 0.6035862
vt 0.02472743 0.6059574
vn 0.2443035 0.9574183 0.1538375
vn 0.2443035 0.9574183 0.1538375
vn 0.2443035 0.9574183 0.1538375
vn 0.3570192 0.5117581 0.7814352
vn 0.01713824 0.66956 0.7425603
vn 0.6379411 0.1094501 0.7622675
vn -0.2603155 0.5984625 0.7576797
vn 0.6379411 0.1094501 0.7622675
vn -0.2603155 0.5984625 0.7576797
vn 0.6726229 -0.1419924 0.7262346
vn -0.4944172 0.3331472 0.8028478
vn 0.6726229 -0.1419924 0.7262346
vn -0.4944172 0.3331472 0.8028478
vn 0.03968138 -0.5824504 0.8118971
vn -0.5741853 -0.02407455 0.8183714
vn 0.03968138 -0.5824504 0.8118971
vn -0.5741853 -0.02407455 0.8183714
vn 0.1836105 -0.5182892 0.8352625
vn -0.5585785 -0.2217604 0.7992574
vn 0.1836105 -0.5182892 0.8352625
vn -0.5585785 -0.2217604 0.7992574
vn 0.1836105 -0.5182892 0.8352625
vn -0.1371955 -0.5373641 0.8321161
vn 0.1836105 -0.5182892 0.8352625
vn -0.1371955 -0.5373641 0.8321161
vn 0.2859216 -0.5443005 0.7886608
vn 0.2859216 -0.5443005 0.7886608
vn -0.2395066 -0.7281137 0.6422516
vn -0.6643577 0.388638 0.6384273
vn -0.6643577 0.388638 0.6384273
vn -0.6348783 -0.01713824 0.7724221
vn -0.2395066 -0.7281137 0.6422516
vn -0.6348783 -0.3552851 0.6860773
vn -0.2395066 -0.7281137 0.6422516
vn -0.6348783 -0.3552851 0.6860773
vn -0.2395066 -0.7281137 0.6422516
vn -0.7718711 0.03315026 0.6349143
vn 0.6899638 -0.4159781 0.5923784
vn -0.7718711 0.03315026 0.6349143
vn 0.6899638 -0.4159781 0.5923784
vn -0.7545302 0.267252 0.5993835
vn 0.7419863 -0.3188693 0.5897276
vn -0.7545302 0.267252 0.5993835
vn 0.7419863 -0.3188693 0.5897276
vn -0.03488433 0.7267848 0.6859788
vn 0.8044134 -0.032745 0.5931668
vn -0.03488433 0.7267848 0.6859788
vn 0.8044134 -0.032745 0.5931668
vn 0.7125069 0.3244768 0.6221324
vn 0.7125069 0.3244768 0.6221324
vn -0.4129152 0.5082899 0.7557396
vn -0.2325702 0.6452827 0.7276821
vn 0.2668467 0.6487509 0.7126817
vn -0.6227397 0.3504881 0.699538
vn 0.2668467 0.6487509 0.7126817
vn -0.7215825 -0.1367902 0.6786804
vn 0.2911239 0.6452827 0.7062982
vn -0.7215825 -0.1367902 0.6786804
vn 0.2911239 0.6452827 0.7062982
vn -0.6747622 -0.3049966 0.6720662
vn -0.06089568 0.6886349 0.7225467
vn -0.6747622 -0.3049966 0.6720662
vn -0.06089568 0.6886349 0.7225467
vn -0.4198515 -0.6223344 0.6606244
vn -0.3383495 0.5984625 0.7261972
vn -0.4198515 -0.6223344 0.6606244
vn -0.3383495 0.5984625 0.7261972
vn -0.01060718 -0.7645295 0.6445014
vn -0.227368 0.690369 0.6868001
vn -0.01060718 -0.7645295 0.6445014
vn -0.227368 0.690369 0.6868001
vn 0.4090417 -0.6275367 0.6624821
vn 0.816552 0.1649408 0.5532064
vn 0.4090417 -0.6275367 0.6624821
vn 0.816552 0.1649408 0.5532064
vn 0.7489227 -0.1645356 0.6419057
vn 0.7489227 -0.1645356 0.6419057
vn 0.1680037 -0.6327389 0.7559208
vn 0.1680037 -0.6327389 0.7559208
vn -0.1996225 -0.6500797 0.7331761
vn -0.1996225 -0.6500797 0.7331761
vn 0.5737799 -0.272049 0.7725063
vn -0.430256 -0.5200233 0.7378723
vn 0.5737799 -0.272049 0.7725063
vn -0.430256 -0.5200233 0.7378723
vn 0.6171321 0.2325702 0.7517041
vn -0.5828557 -0.3188693 0.7473966
vn 0.6171321 0.2325702 0.7517041
vn -0.5828557 -0.3188693 0.7473966
vn 0.5720459 0.3001996 0.763311
vn -0.6591555 -0.09170395 0.7463943
vn 0.5720459 0.3001996 0.763311
vn -0.6591555 -0.09170395 0.7463943
vn 0.6258025 0.2134953 0.750194
vn -0.5464399 0.4666718 0.6954286
vn 0.6258025 0.2134953 0.750194
vn -0.5464399 0.4666718 0.6954286
vn 0.5564391 0.4233197 0.7149657
vn -0.5464399 0.4666718 0.6954286
vn 0.5564391 0.4233197 0.7149657
vn -0.5464399 0.4666718 0.6954286
vn 0.636207 0.4371924 0.6356912
vn 0.636207 0.4371924 0.6356912
vn 0.636207 0.4371924 0.6356912
vn 0.636207 0.4371924 0.6356912
vn -0.2516452 0.6712941 0.697165
vn 0.795743 -0.152397 0.586147
vn -0.2516452 0.6712941 0.697165
vn 0.795743 -0.152397 0.586147
vn -0.5013536 0.5412376 0.6750603
vn 0.1697378 -0.7402523 0.6505503
vn -0.5013536 0.5412376 0.6750603
vn 0.1697378 -0.7402523 0.6505503
vn -0.8065528 -0.04141545 0.5897096
vn -0.1025137 -0.7246455 0.6814542
vn -0.8065528 -0.04141545 0.5897096
vn -0.1025137 -0.7246455 0.6814542
vn -0.09037513 -0.7315818 0.6757369
vn -0.09037513 -0.7315818 0.6757369
vn 0.474937 -0.3240715 0.8181763
vn 0.474937 -0.3240715 0.8181763
vn 0.474937 -0.3240715 0.8181763
vn 0.474937 -0.3240715 0.8181763
vn -0.2429748 -0.3258056 0.9136816
vn -0.3158064 0.4822786 0.817113
vn -0.2429748 -0.3258056 0.9136816
vn -0.3158064 0.4822786 0.817113
vn -0.449331 0.05916154 0.8914042
vn -0.449331 0.05916154 0.8914042
vn -0.449331 0.05916154 0.8914042
vn -0.449331 0.05916154 0.8914042
vn 0.594589 0.3608927 0.7184848
vn 0.7021024 -0.06916082 0.7087095
vn 0.7021024 -0.06916082 0.7087095
vn 0.594589 0.3608927 0.7184848
vn 0.5026824 -0.5096188 0.698283
vn 0.2321649 0.6955713 0.6799118
vn 0.5026824 -0.5096188 0.698283
vn 0.2321649 0.6955713 0.6799118
vn 0.1090448 -0.7003683 0.7054031
vn -0.6747622 0.4111811 0.6128834
vn 0.1090448 -0.7003683 0.7054031
vn -0.6747622 0.4111811 0.6128834
vn -0.3001996 -0.6431434 0.7044478
vn -0.7025076 0.2238997 0.6755383
vn -0.3001996 -0.6431434 0.7044478
vn -0.7025076 0.2238997 0.6755383
vn -0.6140692 -0.3691578 0.697597
vn -0.7059758 -0.0708949 0.7046788
vn -0.6140692 -0.3691578 0.697597
vn -0.7059758 -0.0708949 0.7046788
g poofGlow09_mesh_0
f 3/3/3 2/2/2 1/1/1
f 2/2/2 4/4/4 1/1/1
f 4/4/4 5/5/5 1/1/1
f 6/6/6 4/4/4 2/2/2
f 1/1/1 5/5/5 7/7/7
f 8/8/8 6/6/6 2/2/2
f 5/5/5 9/9/9 7/7/7
f 10/10/10 6/6/6 8/8/8
f 7/7/7 9/9/9 11/11/11
f 12/12/12 10/10/10 8/8/8
f 9/9/9 13/13/13 11/11/11
f 14/14/14 10/10/10 12/12/12
f 11/11/11 13/13/13 15/15/15
f 16/16/16 14/14/14 12/12/12
f 13/13/13 17/17/17 15/15/15
f 18/18/18 14/14/14 16/16/16
f 15/15/15 17/17/17 19/19/19
f 20/20/20 18/18/18 16/16/16
f 17/17/17 21/21/21 19/19/19
f 22/22/22 18/18/18 20/20/20
f 19/19/19 21/21/21 23/23/23
f 24/24/24 22/22/22 20/20/20
f 21/21/21 25/25/25 23/23/23
f 26/26/26 22/22/22 24/24/24
f 23/23/23 25/25/25 27/27/27
f 27/27/27 26/26/26 24/24/24
f 25/25/25 26/26/26 27/27/27
f 30/30/30 29/29/29 28/28/28
f 31/31/31 29/29/29 30/30/30
f 29/29/29 32/32/32 28/28/28
f 33/33/33 29/29/29 31/31/31
f 28/28/28 32/32/32 34/34/34
f 35/35/35 33/33/33 31/31/31
f 32/32/32 36/36/36 34/34/34
f 37/37/37 33/33/33 35/35/35
f 34/34/34 36/36/36 38/38/38
f 39/39/39 37/37/37 35/35/35
f 36/36/36 40/40/40 38/38/38
f 41/41/41 37/37/37 39/39/39
f 38/38/38 40/40/40 42/42/42
f 43/43/43 41/41/41 39/39/39
f 40/40/40 44/44/44 42/42/42
f 45/45/45 41/41/41 43/43/43
f 42/42/42 44/44/44 46/46/46
f 47/47/47 45/45/45 43/43/43
f 44/44/44 48/48/48 46/46/46
f 49/49/49 45/45/45 47/47/47
f 46/46/46 48/48/48 50/50/50
f 50/50/50 49/49/49 47/47/47
f 48/48/48 49/49/49 50/50/50
f 53/53/53 52/52/52 51/51/51
f 52/52/52 54/54/54 51/51/51
f 55/55/55 53/53/53 51/51/51
f 51/51/51 54/54/54 56/56/56
f 57/57/57 53/53/53 55/55/55
f 54/54/54 58/58/58 56/56/56
f 59/59/59 57/57/57 55/55/55
f 56/56/56 58/58/58 60/60/60
f 61/61/61 57/57/57 59/59/59
f 58/58/58 62/62/62 60/60/60
f 63/63/63 61/61/61 59/59/59
f 60/60/60 62/62/62 64/64/64
f 65/65/65 61/61/61 63/63/63
f 62/62/62 66/66/66 64/64/64
f 67/67/67 65/65/65 63/63/63
f 64/64/64 66/66/66 68/68/68
f 69/69/69 65/65/65 67/67/67
f 66/66/66 70/70/70 68/68/68
f 71/71/71 69/69/69 67/67/67
f 68/68/68 70/70/70 72/72/72
f 73/73/73 69/69/69 71/71/71
f 70/70/70 74/74/74 72/72/72
f 75/75/75 73/73/73 71/71/71
f 72/72/72 74/74/74 76/76/76
f 77/77/77 73/73/73 75/75/75
f 76/76/76 77/77/77 75/75/75
f 74/74/74 77/77/77 76/76/76
f 80/80/80 79/79/79 78/78/78
f 81/81/81 80/80/80 78/78/78
f 78/78/78 79/79/79 82/82/82
f 83/83/83 80/80/80 81/81/81
f 79/79/79 84/84/84 82/82/82
f 85/85/85 83/83/83 81/81/81
f 82/82/82 84/84/84 86/86/86
f 87/87/87 83/83/83 85/85/85
f 84/84/84 88/88/88 86/86/86
f 89/89/89 87/87/87 85/85/85
f 86/86/86 88/88/88 90/90/90
f 91/91/91 87/87/87 89/89/89
f 88/88/88 92/92/92 90/90/90
f 93/93/93 91/91/91 89/89/89
f 90/90/90 92/92/92 94/94/94
f 95/95/95 91/91/91 93/93/93
f 92/92/92 96/96/96 94/94/94
f 97/97/97 95/95/95 93/93/93
f 94/94/94 96/96/96 98/98/98
f 99/99/99 95/95/95 97/97/97
f 96/96/96 100/100/100 98/98/98
f 101/101/101 99/99/99 97/97/97
f 98/98/98 100/100/100 101/101/101
f 100/100/100 99/99/99 101/101/101
f 104/104/104 103/103/103 102/102/102
f 105/105/105 104/104/104 102/102/102
f 102/102/102 103/103/103 106/106/106
f 107/107/107 104/104/104 105/105/105
f 103/103/103 108/108/108 106/106/106
f 109/109/109 107/107/107 105/105/105
f 106/106/106 108/108/108 110/110/110
f 111/111/111 107/107/107 109/109/109
f 108/108/108 112/112/112 110/110/110
f 113/113/113 111/111/111 109/109/109
f 110/110/110 112/112/112 114/114/114
f 115/115/115 111/111/111 113/113/113
f 112/112/112 116/116/116 114/114/114
f 117/117/117 115/115/115 113/113/113
f 114/114/114 116/116/116 118/118/118
f 119/119/119 115/115/115 117/117/117
f 116/116/116 119/119/119 118/118/118
f 118/118/118 119/119/119 117/117/117
f 122/122/122 121/121/121 120/120/120
f 121/121/121 123/123/123 120/120/120
f 124/124/124 121/121/121 122/122/122
f 120/120/120 123/123/123 125/125/125
f 126/126/126 124/124/124 122/122/122
f 123/123/123 127/127/127 125/125/125
f 128/128/128 124/124/124 126/126/126
f 125/125/125 127/127/127 129/129/129
f 130/130/130 128/128/128 126/126/126
f 127/127/127 131/131/131 129/129/129
f 131/131/131 128/128/128 130/130/130
f 129/129/129 131/131/131 130/130/130
f 134/134/134 133/133/133 132/132/132
f 133/133/133 135/135/135 132/132/132
f 136/136/136 133/133/133 134/134/134
f 132/132/132 135/135/135 137/137/137
f 138/138/138 136/136/136 134/134/134
f 135/135/135 139/139/139 137/137/137
f 140/140/140 136/136/136 138/138/138
f 137/137/137 139/139/139 141/141/141
f 142/142/142 140/140/140 138/138/138
f 139/139/139 143/143/143 141/141/141
f 144/144/144 140/140/140 142/142/142
f 141/141/141 143/143/143 145/145/145
f 146/146/146 144/144/144 142/142/142
f 143/143/143 147/147/147 145/145/145
f 148/148/148 144/144/144 146/146/146
f 145/145/145 147/147/147 149/149/149
f 150/150/150 148/148/148 146/146/146
f 147/147/147 151/151/151 149/149/149
f 151/151/151 148/148/148 150/150/150
f 149/149/149 151/151/151 150/150/150
