g prague_Mesh
v 0.2940236 8.164667 1.378155
v 0.3196925 8.045346 1.439453
v 0.08584861 8.142306 1.75684
v 0.09091617 8.352273 1.581173
v 0.2700226 8.427528 1.498538
v 0.2715835 8.50368 1.571354
v 0.2700226 8.427528 1.498538
v 0.4307665 8.558684 1.622284
v 0.2700226 8.427528 1.498538
v 0.4392667 8.516428 1.511627
v 0.4392667 8.516428 1.511627
v 0.6492561 8.598578 1.583712
v 0.6453187 8.537279 1.467894
v 0.7955713 8.604179 1.43399
v 0.6453187 8.537279 1.467894
v 0.781536 8.520205 1.345089
v 0.9842057 8.616479 1.101797
v 0.8970532 8.436386 1.143254
v 0.9332648 8.360233 1.054547
v 0.9991197 8.315632 0.9395396
v 0.8396197 8.317705 1.309331
v 0.752922 8.349007 1.418001
v 0.9162057 8.250158 1.153817
v 1.049243 8.143559 0.9956053
v 0.6354404 8.383492 1.470803
v 0.6453187 8.537279 1.467894
v 0.8849622 8.030819 1.204304
v 0.8562655 8.173783 1.291439
v 0.742729 8.160754 1.399297
v 0.6374351 7.949476 1.364645
v 0.618913 8.154441 1.47916
v 0.4392667 8.516428 1.511627
v 0.4691811 8.367716 1.500183
v 0.361086 8.300488 1.483884
v 0.2700226 8.427528 1.498538
v 0.4750157 7.974967 1.400235
v 0.4873885 8.152866 1.475058
v 0.3881237 8.153972 1.46181
v 0.3196925 8.045346 1.439453
v 0.2940236 8.164667 1.378155
v 0.2700226 8.427528 1.498538
v 0.8562655 8.173783 1.291439
v 0.4414065 8.272816 0.9235157
v 0.9162057 8.250158 1.153817
v 0.742729 8.160754 1.399297
v 0.618913 8.154441 1.47916
v 0.4873885 8.152866 1.475058
v 0.3881237 8.153972 1.46181
v 0.2940236 8.164667 1.378155
v 0.361086 8.300488 1.483884
v 0.4414065 8.272816 0.9235157
v 0.2940236 8.164667 1.378155
v 0.4691811 8.367716 1.500183
v 0.6354404 8.383492 1.470803
v 0.752922 8.349007 1.418001
v 0.8396197 8.317705 1.309331
v 0.9162057 8.250158 1.153817
v -0.2940236 8.164667 1.378155
v -0.08584861 8.142306 1.75684
v -0.3196925 8.045346 1.439453
v -0.09091617 8.352273 1.581173
v -0.2700226 8.427528 1.498538
v -0.2715835 8.50368 1.571354
v -0.2700226 8.427528 1.498538
v -0.4307665 8.558684 1.622284
v -0.2700226 8.427528 1.498538
v -0.4392667 8.516428 1.511627
v -0.4392667 8.516428 1.511627
v -0.6492561 8.598578 1.583712
v -0.6453187 8.537279 1.467894
v -0.7955713 8.604179 1.43399
v -0.6453187 8.537279 1.467894
v -0.781536 8.520205 1.345089
v -0.9842057 8.616479 1.101797
v -0.8970532 8.436386 1.143254
v -0.9332648 8.360233 1.054547
v -0.9991197 8.315632 0.9395396
v -0.8396197 8.317705 1.309331
v -0.752922 8.349007 1.418001
v -0.9162057 8.250158 1.153817
v -1.049243 8.143559 0.9956053
v -0.6354404 8.383492 1.470803
v -0.6453187 8.537279 1.467894
v -0.8849622 8.030819 1.204304
v -0.8562655 8.173783 1.291439
v -0.742729 8.160754 1.399297
v -0.6374351 7.949476 1.364645
v -0.618913 8.154441 1.47916
v -0.4392667 8.516428 1.511627
v -0.4691811 8.367716 1.500183
v -0.361086 8.300488 1.483884
v -0.2700226 8.427528 1.498538
v -0.4750157 7.974967 1.400235
v -0.4873885 8.152866 1.475058
v -0.3881237 8.153972 1.46181
v -0.3196925 8.045346 1.439453
v -0.2940236 8.164667 1.378155
v -0.2700226 8.427528 1.498538
v -0.8562655 8.173783 1.291439
v -0.9162057 8.250158 1.153817
v -0.4414065 8.272816 0.9235157
v -0.742729 8.160754 1.399297
v -0.618913 8.154441 1.47916
v -0.4873885 8.152866 1.475058
v -0.3881237 8.153972 1.46181
v -0.2940236 8.164667 1.378155
v -0.361086 8.300488 1.483884
v -0.2940236 8.164667 1.378155
v -0.4414065 8.272816 0.9235157
v -0.4691811 8.367716 1.500183
v -0.6354404 8.383492 1.470803
v -0.752922 8.349007 1.418001
v -0.8396197 8.317705 1.309331
v -0.9162057 8.250158 1.153817
v 0.9162057 8.250158 1.153817
v 0.8630058 8.23227 1.276292
v 0.8396197 8.317705 1.277846
v 0.752922 8.349007 1.396272
v 0.7747149 8.221375 1.37905
v 0.660871 8.22566 1.480116
v -0.3581271 8.316154 1.468013
v -0.2956657 8.238597 1.362761
v -0.3627075 8.222412 1.462159
v -0.4961159 8.221484 1.472161
v -0.4342839 8.342981 1.472462
v 0.660871 8.22566 1.480116
v 0.6354404 8.400633 1.455758
v 0.752922 8.349007 1.396272
v 0.4691811 8.400973 1.485439
v 0.4789266 8.221816 1.472793
v 0.3581271 8.316154 1.468012
v 0.6189077 8.105202 1.439122
v 0.7747149 8.221375 1.37905
v 0.742729 8.114733 1.35886
v 0.8562655 8.161218 1.249091
v 0.8630058 8.23227 1.276292
v 0.9162057 8.250158 1.153817
v 0.4873832 8.111697 1.434723
v 0.3599547 8.19887 1.464001
v 0.2940236 8.182323 1.378155
v 0.3881237 8.118193 1.430325
v -0.3627075 8.222412 1.462159
v -0.2956657 8.238597 1.362761
v -0.2940236 8.182323 1.378155
v -0.3881237 8.118194 1.430325
v -0.4961159 8.221484 1.472161
v -0.4687757 8.112915 1.433899
v -0.6189077 8.105202 1.439122
v -0.6174174 8.22566 1.480116
v -0.7747149 8.221376 1.379051
v -0.7427291 8.114734 1.35886
v -0.8562655 8.161218 1.249091
v -0.8630057 8.232269 1.276292
v -0.9162057 8.250158 1.153817
v -0.8396197 8.317705 1.277846
v -0.752922 8.349007 1.396272
v -0.6147586 8.396576 1.460715
v -0.4854807 8.382416 1.478839
v -0.4961159 8.221484 1.472161
v -0.4342839 8.342981 1.472462
vt 0.5818618 0.8178629
vt 0.5884075 0.7957386
vt 0.6330875 0.8053028
vt 0.6193275 0.8532847
vt 0.5672289 0.8454829
vt 0.5727554 0.8532014
vt 0.5672289 0.8454829
vt 0.5448593 0.8928994
vt 0.5672289 0.8454829
vt 0.5408763 0.8743101
vt 0.5408763 0.8743101
vt 0.5038641 0.8966388
vt 0.5051467 0.8814599
vt 0.4707507 0.8938437
vt 0.5051467 0.8814599
vt 0.478652 0.8737164
vt 0.4350735 0.8901181
vt 0.4513028 0.8587113
vt 0.4364811 0.8364366
vt 0.3632239 0.8334767
vt 0.4738554 0.8102872
vt 0.4893863 0.8101805
vt 0.4451594 0.8133766
vt 0.4045445 0.7857894
vt 0.5085127 0.8103002
vt 0.5051467 0.8814599
vt 0.4592681 0.7729723
vt 0.4735519 0.8026379
vt 0.4900843 0.8014998
vt 0.5110161 0.7609279
vt 0.5078132 0.8006439
vt 0.5408763 0.8743101
vt 0.5336463 0.8125476
vt 0.5571426 0.8146212
vt 0.5672289 0.8454829
vt 0.5514596 0.7695008
vt 0.547307 0.8029333
vt 0.5599669 0.8062912
vt 0.5884075 0.7957386
vt 0.5818618 0.8178629
vt 0.5672289 0.8454829
vt 0.4735519 0.8026379
vt 0.510541 0.8117001
vt 0.4451594 0.8133766
vt 0.4900843 0.8014998
vt 0.5078132 0.8006439
vt 0.547307 0.8029333
vt 0.5599669 0.8062912
vt 0.5818618 0.8178629
vt 0.5571426 0.8146212
vt 0.510541 0.8117001
vt 0.5818618 0.8178629
vt 0.5336463 0.8125476
vt 0.5085127 0.8103002
vt 0.4893863 0.8101805
vt 0.4738554 0.8102872
vt 0.4451594 0.8133766
vt 0.5818618 0.8178629
vt 0.6330875 0.8053028
vt 0.5884075 0.7957386
vt 0.6193275 0.8532847
vt 0.5672289 0.8454829
vt 0.5727554 0.8532014
vt 0.5672289 0.8454829
vt 0.5448593 0.8928994
vt 0.5672289 0.8454829
vt 0.5408763 0.8743101
vt 0.5408763 0.8743101
vt 0.5038641 0.8966388
vt 0.5051467 0.8814599
vt 0.4707507 0.8938437
vt 0.5051467 0.8814599
vt 0.478652 0.8737164
vt 0.4350735 0.8901181
vt 0.4513028 0.8587113
vt 0.4364811 0.8364366
vt 0.3632239 0.8334767
vt 0.4738554 0.8102872
vt 0.4893863 0.8101805
vt 0.4451594 0.8133766
vt 0.4045445 0.7857894
vt 0.5085127 0.8103002
vt 0.5051467 0.8814599
vt 0.4592681 0.7729723
vt 0.4735519 0.8026379
vt 0.4900843 0.8014998
vt 0.5110161 0.7609279
vt 0.5078132 0.8006439
vt 0.5408763 0.8743101
vt 0.5336463 0.8125476
vt 0.5571426 0.8146212
vt 0.5672289 0.8454829
vt 0.5514596 0.7695008
vt 0.547307 0.8029333
vt 0.5599669 0.8062912
vt 0.5884075 0.7957386
vt 0.5818618 0.8178629
vt 0.5672289 0.8454829
vt 0.4735519 0.8026379
vt 0.4451594 0.8133766
vt 0.510541 0.8117001
vt 0.4900843 0.8014998
vt 0.5078132 0.8006439
vt 0.547307 0.8029333
vt 0.5599669 0.8062912
vt 0.5818618 0.8178629
vt 0.5571426 0.8146212
vt 0.5818618 0.8178629
vt 0.510541 0.8117001
vt 0.5336463 0.8125476
vt 0.5085127 0.8103002
vt 0.4893863 0.8101805
vt 0.4738554 0.8102872
vt 0.4451594 0.8133766
vt 0.6378549 0.01248234
vt 0.6377547 0.01316803
vt 0.638233 0.01317673
vt 0.6384082 0.01383983
vt 0.6376937 0.01374339
vt 0.6377177 0.01430922
vt 0.6389834 0.0128706
vt 0.6384218 0.01248234
vt 0.6384585 0.01285767
vt 0.6384534 0.01345896
vt 0.6390527 0.01314514
vt 0.8550941 0.1058617
vt 0.8528582 0.1634424
vt 0.8969303 0.1430442
vt 0.7986041 0.1669171
vt 0.7982783 0.1079777
vt 0.7635398 0.1426242
vt 0.843772 0.06574037
vt 0.8976725 0.1002736
vt 0.8918111 0.06455035
vt 0.9451875 0.07849348
vt 0.9410312 0.1018334
vt 0.9445353 0.1010849
vt 0.7977982 0.06806022
vt 0.75899 0.1054478
vt 0.7228715 0.1005444
vt 0.7649343 0.07467526
vt 0.898663 0.1102734
vt 0.9410236 0.1005444
vt 0.9287575 0.09372937
vt 0.8948968 0.07642844
vt 0.8591925 0.1068736
vt 0.8652119 0.07213087
vt 0.8211111 0.06841006
vt 0.8232384 0.1080771
vt 0.7651107 0.1029178
vt 0.7720191 0.06708106
vt 0.7187077 0.07849348
vt 0.722864 0.1018334
vt 0.7193599 0.1010849
vt 0.7232767 0.129365
vt 0.7708148 0.1445962
vt 0.8208346 0.1634249
vt 0.8635446 0.1625069
vt 0.860665 0.1075791
vt 0.8800191 0.1443734
vn 0.6985765 0.1844661 0.6913487
vn 0.4827807 0.1555156 0.8618223
vn 0.760426 0.1434197 0.6333901
vn 0.7495307 0.08413368 0.6566012
vn 0.5524617 -0.1496233 0.8199993
vn 0.3229387 -0.7651399 0.5570202
vn 0.5524617 -0.1496233 0.8199993
vn 0.2241485 -0.8602701 0.4579223
vn 0.5524617 -0.1496233 0.8199993
vn 0.1872811 -0.5488393 0.8146786
vn 0.1872811 -0.5488393 0.8146786
vn 0.2827863 -0.8525296 0.4395736
vn 0.4218798 -0.4607879 0.7808278
vn 0.6341075 -0.5818982 0.5092173
vn 0.4218798 -0.4607879 0.7808278
vn 0.7837346 -0.2225594 0.5798513
vn 0.7821894 -0.3626326 0.5066332
vn 0.865219 -0.1367853 0.4823752
vn 0.8845053 -0.02465162 0.4658786
vn 0.8565454 0.1583911 0.491164
vn 0.8727462 0.147305 0.4654194
vn 0.7406714 0.1420014 0.6566898
vn 0.878549 0.1200845 0.462311
vn 0.8141978 0.2167195 0.5386227
vn 0.3901111 0.05077704 0.9193667
vn 0.4218798 -0.4607879 0.7808278
vn 0.7451768 -0.186788 0.6401733
vn 0.8136676 -0.1746251 0.5544828
vn 0.576404 -0.3866764 0.7198886
vn 0.3373989 -0.4371449 0.8337064
vn 0.1980382 -0.4346114 0.8785749
vn 0.1872811 -0.5488393 0.8146786
vn 0.07950333 -0.06295881 0.9948444
vn -0.2093291 -0.2395039 0.9480608
vn 0.5524617 -0.1496233 0.8199993
vn 0.04344293 -0.4059906 0.9128441
vn 0.04009077 -0.3986652 0.9162199
vn -0.09947648 -0.2460944 0.9641276
vn 0.4827807 0.1555156 0.8618223
vn 0.6985765 0.1844661 0.6913487
vn 0.5524617 -0.1496233 0.8199993
vn -0.03672785 0.9538134 0.2981459
vn -0.023942 0.9664066 0.2559001
vn -0.1629258 0.891092 0.4235685
vn 0.06854834 0.9798927 0.1873803
vn 0.03002313 0.9795216 0.199088
vn -0.01810263 0.976684 0.2139174
vn -0.0387488 0.9765521 0.2117653
vn -0.07405618 0.9753214 0.2079992
vn 0.6679592 -0.732414 0.1319103
vn 0.1856564 -0.9561636 0.2264572
vn 0.8371972 -0.5270457 0.1460264
vn 0.2827257 -0.9485587 0.1424873
vn -0.009260007 -0.9794737 0.2013596
vn -0.1325547 -0.9636458 0.2319828
vn -0.1412573 -0.9560242 0.2570291
vn -0.194204 -0.931097 0.3087766
vn -0.6985763 0.1844659 0.6913491
vn -0.7604259 0.1434197 0.6333903
vn -0.4827801 0.1555153 0.8618227
vn -0.7495307 0.08413363 0.6566013
vn -0.5524617 -0.1496235 0.8199993
vn -0.3229389 -0.7651403 0.5570196
vn -0.5524617 -0.1496235 0.8199993
vn -0.2241485 -0.8602701 0.4579223
vn -0.5524617 -0.1496235 0.8199993
vn -0.1872811 -0.5488393 0.8146786
vn -0.1872811 -0.5488393 0.8146786
vn -0.2827866 -0.8525299 0.439573
vn -0.4218804 -0.4607883 0.7808272
vn -0.634108 -0.5818989 0.5092157
vn -0.4218804 -0.4607883 0.7808272
vn -0.7837349 -0.2225596 0.5798507
vn -0.7821902 -0.3626328 0.5066321
vn -0.8652192 -0.1367853 0.4823748
vn -0.8845055 -0.02465163 0.465878
vn -0.8565458 0.1583911 0.4911635
vn -0.8727459 0.1473051 0.4654199
vn -0.7406713 0.1420016 0.6566899
vn -0.8785489 0.1200846 0.4623111
vn -0.814198 0.2167195 0.5386227
vn -0.3901114 0.05077711 0.9193665
vn -0.4218804 -0.4607883 0.7808272
vn -0.7451769 -0.186788 0.640173
vn -0.8136682 -0.1746254 0.5544818
vn -0.5764044 -0.3866764 0.7198884
vn -0.3373988 -0.4371449 0.8337064
vn -0.1980381 -0.4346114 0.8785749
vn -0.1872811 -0.5488393 0.8146786
vn -0.07950331 -0.06295892 0.9948444
vn 0.2093293 -0.2395042 0.9480606
vn -0.5524617 -0.1496235 0.8199993
vn -0.04344258 -0.4059906 0.9128442
vn -0.04009042 -0.3986651 0.9162199
vn 0.09947646 -0.2460943 0.9641276
vn -0.4827801 0.1555153 0.8618227
vn -0.6985763 0.1844659 0.6913491
vn -0.5524617 -0.1496235 0.8199993
vn 0.03672797 0.953814 0.2981444
vn 0.1629259 0.8910922 0.423568
vn 0.02394211 0.9664069 0.2558995
vn -0.06854821 0.979893 0.187379
vn -0.03002302 0.9795217 0.1990879
vn 0.01810278 0.976684 0.2139173
vn 0.03874895 0.9765521 0.2117653
vn 0.07405619 0.9753214 0.2079992
vn -0.6679592 -0.732414 0.1319101
vn -0.8371973 -0.5270455 0.1460264
vn -0.1856564 -0.9561635 0.2264573
vn -0.2827257 -0.9485587 0.1424871
vn 0.009259977 -0.9794737 0.2013596
vn 0.1325546 -0.9636457 0.2319834
vn 0.1412573 -0.9560241 0.2570299
vn 0.1942041 -0.931097 0.3087766
vn 0.9151809 0.03006978 0.4019201
vn 0.818494 -0.0762733 0.5694296
vn 0.8038601 0.133582 0.5796247
vn 0.6730468 0.116438 0.7303767
vn 0.7270514 -0.1327669 0.6736239
vn 0.2266697 -0.1144722 0.9672212
vn 0.3542172 -0.06270359 0.9330586
vn 0.8236171 0.05498612 0.5644743
vn 0.365067 -0.2170675 0.905322
vn 0.02240613 -0.159863 0.9868848
vn 0.0663036 -0.0362138 0.997142
vn 0.2266697 -0.1144722 0.9672212
vn 0.1556851 0.07098202 0.9852532
vn 0.6730468 0.116438 0.7303767
vn 0.02390292 0.01306214 0.9996289
vn -0.008138034 -0.1217623 0.9925259
vn -0.1602999 -0.05834751 0.9853424
vn 0.1340838 -0.354684 0.9253219
vn 0.7270514 -0.1327669 0.6736239
vn 0.6445218 -0.317952 0.6953403
vn 0.7716009 -0.3028309 0.5593975
vn 0.818494 -0.0762733 0.5694296
vn 0.9151809 0.03006978 0.4019201
vn -0.03521292 -0.3319599 0.942636
vn -0.2890226 -0.2011707 0.9359468
vn -0.7467148 -0.2410054 0.6199462
vn -0.1510166 -0.3943814 0.9064531
vn 0.365067 -0.2170675 0.905322
vn 0.8236171 0.05498612 0.5644743
vn 0.7383825 -0.1239752 0.6628887
vn 0.1949025 -0.3335232 0.9223748
vn 0.02240613 -0.159863 0.9868848
vn 0.05929006 -0.3167572 0.9466518
vn -0.1948441 -0.3183254 0.9277417
vn -0.2545673 -0.08634564 0.9631925
vn -0.654462 -0.07735381 0.7521275
vn -0.6445169 -0.3179507 0.6953455
vn -0.7715996 -0.302832 0.5593985
vn -0.8184945 -0.0762748 0.5694285
vn -0.9151809 0.03007188 0.4019202
vn -0.8038633 0.1335826 0.5796201
vn -0.5747219 0.06406806 0.815837
vn -0.2816606 0.0447039 0.9584722
vn -0.0235287 0.03003866 0.9992718
vn 0.02240613 -0.159863 0.9868848
vn 0.0663036 -0.0362138 0.997142
g prague_Mesh_0
f 3/3/3 2/2/2 1/1/1
f 4/4/4 3/3/3 1/1/1
f 5/5/5 4/4/4 1/1/1
f 4/4/4 7/7/7 6/6/6
f 6/6/6 9/9/9 8/8/8
f 9/9/9 10/10/10 8/8/8
f 12/12/12 8/8/8 11/11/11
f 13/13/13 12/12/12 11/11/11
f 12/12/12 15/15/15 14/14/14
f 15/15/15 16/16/16 14/14/14
f 17/17/17 14/14/14 16/16/16
f 18/18/18 17/17/17 16/16/16
f 18/18/18 19/19/19 17/17/17
f 17/17/17 19/19/19 20/20/20
f 18/18/18 21/21/21 19/19/19
f 18/18/18 16/16/16 21/21/21
f 16/16/16 22/22/22 21/21/21
f 21/21/21 23/23/23 19/19/19
f 19/19/19 23/23/23 20/20/20
f 24/24/24 20/20/20 23/23/23
f 25/25/25 22/22/22 16/16/16
f 26/26/26 25/25/25 16/16/16
f 23/23/23 27/27/27 24/24/24
f 23/23/23 28/28/28 27/27/27
f 27/27/27 28/28/28 29/29/29
f 30/30/30 27/27/27 29/29/29
f 31/31/31 30/30/30 29/29/29
f 26/26/26 32/32/32 25/25/25
f 32/32/32 33/33/33 25/25/25
f 34/34/34 33/33/33 32/32/32
f 35/35/35 34/34/34 32/32/32
f 36/36/36 30/30/30 31/31/31
f 37/37/37 36/36/36 31/31/31
f 37/37/37 38/38/38 36/36/36
f 38/38/38 39/39/39 36/36/36
f 38/38/38 40/40/40 39/39/39
f 34/34/34 41/41/41 40/40/40
f 44/44/44 43/43/43 42/42/42
f 42/42/42 43/43/43 45/45/45
f 45/45/45 43/43/43 46/46/46
f 46/46/46 43/43/43 47/47/47
f 47/47/47 43/43/43 48/48/48
f 48/48/48 43/43/43 49/49/49
f 52/52/52 51/51/51 50/50/50
f 50/50/50 51/51/51 53/53/53
f 53/53/53 51/51/51 54/54/54
f 54/54/54 51/51/51 55/55/55
f 55/55/55 51/51/51 56/56/56
f 56/56/56 51/51/51 57/57/57
f 60/60/60 59/59/59 58/58/58
f 59/59/59 61/61/61 58/58/58
f 61/61/61 62/62/62 58/58/58
f 64/64/64 61/61/61 63/63/63
f 66/66/66 63/63/63 65/65/65
f 67/67/67 66/66/66 65/65/65
f 65/65/65 69/69/69 68/68/68
f 69/69/69 70/70/70 68/68/68
f 72/72/72 69/69/69 71/71/71
f 73/73/73 72/72/72 71/71/71
f 71/71/71 74/74/74 73/73/73
f 74/74/74 75/75/75 73/73/73
f 76/76/76 75/75/75 74/74/74
f 76/76/76 74/74/74 77/77/77
f 78/78/78 75/75/75 76/76/76
f 73/73/73 75/75/75 78/78/78
f 79/79/79 73/73/73 78/78/78
f 80/80/80 78/78/78 76/76/76
f 80/80/80 76/76/76 77/77/77
f 77/77/77 81/81/81 80/80/80
f 79/79/79 82/82/82 73/73/73
f 82/82/82 83/83/83 73/73/73
f 84/84/84 80/80/80 81/81/81
f 85/85/85 80/80/80 84/84/84
f 85/85/85 84/84/84 86/86/86
f 84/84/84 87/87/87 86/86/86
f 87/87/87 88/88/88 86/86/86
f 89/89/89 83/83/83 82/82/82
f 90/90/90 89/89/89 82/82/82
f 90/90/90 91/91/91 89/89/89
f 91/91/91 92/92/92 89/89/89
f 87/87/87 93/93/93 88/88/88
f 93/93/93 94/94/94 88/88/88
f 95/95/95 94/94/94 93/93/93
f 96/96/96 95/95/95 93/93/93
f 97/97/97 95/95/95 96/96/96
f 98/98/98 91/91/91 97/97/97
f 101/101/101 100/100/100 99/99/99
f 101/101/101 99/99/99 102/102/102
f 101/101/101 102/102/102 103/103/103
f 101/101/101 103/103/103 104/104/104
f 101/101/101 104/104/104 105/105/105
f 101/101/101 105/105/105 106/106/106
f 109/109/109 108/108/108 107/107/107
f 109/109/109 107/107/107 110/110/110
f 109/109/109 110/110/110 111/111/111
f 109/109/109 111/111/111 112/112/112
f 109/109/109 112/112/112 113/113/113
f 109/109/109 113/113/113 114/114/114
f 117/117/117 116/116/116 115/115/115
f 117/117/117 118/118/118 116/116/116
f 118/118/118 119/119/119 116/116/116
f 118/118/118 120/120/120 119/119/119
f 123/123/123 122/122/122 121/121/121
f 124/124/124 123/123/123 121/121/121
f 124/124/124 121/121/121 125/125/125
g prague_Mesh_1
f 128/128/128 127/127/127 126/126/126
f 127/127/127 129/129/129 126/126/126
f 129/129/129 130/130/130 126/126/126
f 129/129/129 131/131/131 130/130/130
f 126/126/126 130/130/130 132/132/132
f 133/133/133 126/126/126 132/132/132
f 133/133/133 132/132/132 134/134/134
f 133/133/133 134/134/134 135/135/135
f 136/136/136 133/133/133 135/135/135
f 136/136/136 135/135/135 137/137/137
f 130/130/130 138/138/138 132/132/132
f 131/131/131 139/139/139 130/130/130
f 130/130/130 139/139/139 138/138/138
f 140/140/140 139/139/139 131/131/131
f 139/139/139 141/141/141 138/138/138
f 140/140/140 141/141/141 139/139/139
f 144/144/144 143/143/143 142/142/142
f 145/145/145 144/144/144 142/142/142
f 145/145/145 142/142/142 146/146/146
f 147/147/147 145/145/145 146/146/146
f 147/147/147 146/146/146 148/148/148
f 146/146/146 149/149/149 148/148/148
f 149/149/149 150/150/150 148/148/148
f 148/148/148 150/150/150 151/151/151
f 151/151/151 150/150/150 152/152/152
f 150/150/150 153/153/153 152/152/152
f 152/152/152 153/153/153 154/154/154
f 153/153/153 155/155/155 154/154/154
f 156/156/156 155/155/155 153/153/153
f 150/150/150 156/156/156 153/153/153
f 157/157/157 156/156/156 150/150/150
f 149/149/149 157/157/157 150/150/150
f 158/158/158 157/157/157 149/149/149
f 159/159/159 158/158/158 149/149/149
f 159/159/159 160/160/160 158/158/158
