g prague_stick1
v -0.05702832 8.276389 0.2194968
v -0.3804494 8.073507 0.1388077
v -0.4170039 8.060554 -8.940697E-07
v -0.05702832 8.276389 -8.940697E-07
v 0.2601413 8.509258 -8.940697E-07
v 0.2235868 8.496296 0.1388077
v 0.2235868 8.496296 -0.1388095
v -0.05702832 8.276389 -0.2194986
v -0.3804494 8.073507 -0.1388095
v -0.2487865 0.08101195 -8.940697E-07
v -0.2348529 0.0744454 0.05575079
v -0.169179 0.04348642 0.08816612
v -0.169179 0.04348642 -8.940697E-07
v -0.1035051 0.01251894 0.05575079
v -0.08957994 0.005952418 -8.940697E-07
v -0.169179 0.04348642 -0.08815941
v -0.2348529 0.0744454 -0.05575258
v -0.1035051 0.01251894 -0.05575258
v -0.1700903 5.007779 -0.06656906
v -0.1866642 5.438828 -0.1014202
v -0.2028888 4.726432 -0.04200628
v -0.178769 4.726432 -0.03514165
v -0.1877117 4.726432 -0.09529659
v -0.1722535 3.568285 -8.940697E-07
v -0.05983889 0.3726649 -0.07444718
v -0.2348529 0.0744454 -0.05575258
v -0.169179 0.04348642 -0.08815941
v 0.0401496 0.3726649 -0.1177216
v -0.1035051 0.01251894 -0.05575258
v -0.01115626 0.8807837 -0.07895264
v 0.1401381 0.3726649 -0.07444718
v 0.09488776 0.8807837 -0.1248502
v 0.2009318 0.8807837 -0.07895264
v -0.187601 2.281108 -0.09137881
v -0.06487238 2.281108 -0.1444988
v 0.05786476 2.281108 -0.09137881
v 0.05978107 3.568285 -0.1414497
v 0.142114 3.568285 -0.1058064
v 0.08393502 4.726432 -0.09529659
v -0.1421122 3.568285 -0.1058064
v 8.940697E-07 3.568285 -0.1673155
v -0.1877117 4.726432 -0.09529659
v -0.04405707 4.726432 -0.150699
v -0.1040502 5.908203 -0.1346958
v 0.02475104 6.724957 -0.1720595
v 0.04521716 6.724957 -0.1778765
v 0.1962901 6.724957 -0.1124837
v 0.03878689 6.811924 -0.183157
v 0.3525498 7.146238 -0.1285466
v 0.01433486 7.143002 -0.2032654
v 0.03292727 6.891361 -0.1879861
v -0.0304215 6.724957 -0.1563713
v 0.04445916 7.728343 -0.2116546
v 0.3856465 7.843474 -0.1338441
v -0.05702832 8.276389 -0.2194986
v 0.2235868 8.496296 -0.1388095
v -0.2396138 7.589074 -0.1338441
v -0.3804494 8.073507 -0.1388095
v -0.2277157 7.071672 -0.1285466
v -0.1847649 6.724957 -0.1124837
v -0.149079 5.948693 -0.1189565
v -0.1866642 5.438828 -0.1014202
v -0.05983889 0.3726649 0.0744454
v -0.2348529 0.0744454 0.05575079
v -0.2487865 0.08101195 -8.940697E-07
v -0.08104599 0.3726649 -8.940697E-07
v -0.2348529 0.0744454 -0.05575258
v -0.01115626 0.8807837 0.07895082
v -0.05983889 0.3726649 -0.07444718
v -0.03364941 0.8807837 -8.940697E-07
v -0.187601 2.281108 0.09137702
v -0.01115626 0.8807837 -0.07895264
v -0.2136287 2.281108 -8.940697E-07
v -0.1421122 3.568285 0.1058131
v -0.187601 2.281108 -0.09137881
v -0.1722535 3.568285 -8.940697E-07
v -0.1421122 3.568285 -0.1058064
v -0.1877117 4.726432 -0.09529659
v -0.1877117 4.726432 0.09529477
v -0.2148551 4.726432 -8.940697E-07
v -0.2028888 4.726432 -0.04200628
v -0.1847649 6.724957 0.1124819
v -0.1866642 5.438828 -0.1014202
v -0.2168055 6.724957 -8.940697E-07
v -0.2277157 7.071672 0.1285448
v -0.1847649 6.724957 -0.1124837
v -0.2625157 7.063761 -8.940697E-07
v -0.2277157 7.071672 -0.1285466
v -0.2396138 7.589074 0.1338423
v -0.2753252 7.578556 -8.940697E-07
v -0.2396138 7.589074 -0.1338441
v -0.4170039 8.060554 -8.940697E-07
v -0.3804494 8.073507 0.1388077
v -0.3804494 8.073507 -0.1388095
v -0.169179 0.04348642 0.08816612
v -0.2348529 0.0744454 0.05575079
v -0.05983889 0.3726649 0.0744454
v 0.0401496 0.3726649 0.1177198
v 0.1401381 0.3726649 0.0744454
v -0.1035051 0.01251894 0.05575079
v 0.2009318 0.8807837 0.07895082
v 0.09488776 0.8807837 0.1248484
v -0.01115626 0.8807837 0.07895082
v 0.05786476 2.281108 0.09137702
v -0.06487238 2.281108 0.144497
v -0.187601 2.281108 0.09137702
v 0.142114 3.568285 0.1058131
v 8.940697E-07 3.568285 0.1673223
v 0.08393502 4.726432 0.09529477
v -0.01223791 4.726432 0.1369254
v 0.1962901 6.724957 0.1124819
v 0.08950508 6.724957 0.1587031
v 0.3525498 7.14623 0.1285448
v 0.1981893 7.144756 0.1626465
v 0.3856465 7.843474 0.1338423
v -0.1421122 3.568285 0.1058131
v -0.07365331 3.568285 0.1354435
v -0.04405707 4.726432 0.1506973
v -0.1877117 4.726432 0.09529477
v 0.04521716 6.724957 0.1778747
v -0.1847649 6.724957 0.1124819
v 0.01433486 7.143002 0.2032722
v 0.1530497 7.14433 0.1726198
v -0.2277157 7.071672 0.1285448
v 0.04445916 7.728343 0.2116528
v 0.2235868 8.496296 0.1388077
v -0.2396138 7.589074 0.1338423
v -0.05702832 8.276389 0.2194968
v -0.3804494 8.073507 0.1388077
v 0.1401381 0.3726649 -0.07444718
v -0.1035051 0.01251894 -0.05575258
v -0.08957994 0.005952418 -8.940697E-07
v 0.1613367 0.3726649 -8.940697E-07
v -0.1035051 0.01251894 0.05575079
v 0.2009318 0.8807837 -0.07895264
v 0.1401381 0.3726649 0.0744454
v 0.2234164 0.8807837 -8.940697E-07
v 0.05786476 2.281108 -0.09137881
v 0.2009318 0.8807837 0.07895082
v 0.08389243 2.281108 -8.940697E-07
v 0.142114 3.568285 -0.1058064
v 0.05786476 2.281108 0.09137702
v 0.1722554 3.568285 -8.940697E-07
v 0.08393502 4.726432 -0.09529659
v 0.142114 3.568285 0.1058131
v 0.1110784 4.726432 -8.940697E-07
v 0.1962901 6.724957 -0.1124837
v 0.08393502 4.726432 0.09529477
v 0.2283307 6.724957 -8.940697E-07
v 0.3525498 7.146238 -0.1285466
v 0.1962901 6.724957 0.1124819
v 0.3873498 7.154141 -8.940697E-07
v 0.3525498 7.14623 0.1285448
v 0.3856465 7.843474 -0.1338441
v 0.4213579 7.853993 -8.940697E-07
v 0.3856465 7.843474 0.1338423
v 0.2601413 8.509258 -8.940697E-07
v 0.2235868 8.496296 -0.1388095
v 0.2235868 8.496296 0.1388077
v -0.1700903 5.007779 -0.06656906
v -0.1877117 4.726432 -0.09529659
v -0.1040502 5.908203 -0.1346958
v -0.1060091 5.929197 -0.09674445
v -0.1866642 5.438828 -0.1014202
v -0.149079 5.948693 -0.1189565
v 0.02475104 6.724957 -0.1720595
v -0.1055406 5.935918 -0.09696588
v -0.0304215 6.724957 -0.1563713
v 0.01641297 6.724957 -0.1336482
v 0.03878689 6.811924 -0.183157
v 0.0530442 6.851936 -0.1544465
v 0.03292727 6.891361 -0.1879861
v 0.3525498 7.146238 -0.1285466
v 0.3856465 7.843474 0.1338423
v 0.1771185 7.144561 0.1208029
v 0.1530497 7.14433 0.1726198
v 0.1981893 7.144756 0.1626465
v 0.08950508 6.724957 0.1587031
v 0.06883454 6.724957 0.1211521
v 0.04521716 6.724957 0.1778747
v -0.01223791 4.726432 0.1369254
v -0.02709138 4.726432 0.09685338
v -0.04405707 4.726432 0.1506973
v 8.940697E-07 3.568285 0.1673223
v -0.04104209 3.568285 0.1030537
v -0.07365331 3.568285 0.1354435
v -0.187601 2.281108 0.09137702
v 0.08393502 4.726432 -0.09529659
v 8.940697E-07 3.568285 -0.1673155
v 0.02590933 3.568285 -0.0901098
v 0.05978107 3.568285 -0.1414497
v -0.187601 2.281108 -0.09137881
vt 0.7727811 0.465815
vt 0.7755304 0.4698951
vt 0.7758173 0.4703572
vt 0.7730123 0.4658549
vt 0.7698646 0.4617988
vt 0.7698725 0.4622131
vt 0.7701594 0.462261
vt 0.7732354 0.4658947
vt 0.7758173 0.4699429
vt 0.926053 0.5530654
vt 0.9261168 0.552906
vt 0.9266666 0.5522287
vt 0.9267623 0.5522526
vt 0.9272882 0.5515673
vt 0.9274715 0.5514318
vt 0.92685 0.5522686
vt 0.9262363 0.5529299
vt 0.9273998 0.5515912
vt 0.9395283 0.5334622
vt 0.9378708 0.5332311
vt 0.9405881 0.5336455
vt 0.9405961 0.5336295
vt 0.9406041 0.5336056
vt 0.9450268 0.5341714
vt 0.9218694 0.5503321
vt 0.9262363 0.5529299
vt 0.92685 0.5522686
vt 0.9220687 0.5492165
vt 0.9273998 0.5515912
vt 0.9140282 0.5487145
vt 0.9221802 0.5480849
vt 0.9142433 0.5475271
vt 0.9143549 0.5463238
vt 0.8916996 0.550364
vt 0.8920183 0.5488977
vt 0.8922175 0.5474315
vt 0.8723513 0.5473996
vt 0.8725665 0.5465071
vt 0.8553698 0.545001
vt 0.871658 0.550117
vt 0.8721919 0.5482044
vt 0.8541904 0.5477661
vt 0.8548598 0.5463318
vt 0.8385158 0.5410007
vt 0.8291525 0.533757
vt 0.8292879 0.5335737
vt 0.8302044 0.5320995
vt 0.8281882 0.5329203
vt 0.826196 0.5270951
vt 0.8242517 0.5303543
vt 0.8273914 0.5323465
vt 0.8290011 0.5343308
vt 0.8168725 0.5254217
vt 0.8173028 0.5214771
vt 0.7927111 0.4996027
vt 0.7916672 0.4949569
vt 0.8167211 0.5292706
vt 0.7931175 0.504384
vt 0.8235503 0.5332072
vt 0.8280289 0.5357732
vt 0.8379102 0.5413752
vt 0.8443569 0.5449213
vt 0.921718 0.5503082
vt 0.9261168 0.552906
vt 0.926053 0.5530654
vt 0.9217658 0.5505552
vt 0.9262363 0.5529299
vt 0.9138688 0.5486826
vt 0.9218694 0.5503321
vt 0.9139166 0.5489535
vt 0.8915083 0.550364
vt 0.9140282 0.5487145
vt 0.8915482 0.5506509
vt 0.8714429 0.5501249
vt 0.8916996 0.550364
vt 0.8714508 0.5504676
vt 0.871658 0.550117
vt 0.8541904 0.5477661
vt 0.854039 0.5481726
vt 0.8540071 0.5484834
vt 0.8541027 0.5483718
vt 0.8278536 0.5356377
vt 0.8443569 0.5449213
vt 0.827742 0.5360122
vt 0.8233511 0.5330478
vt 0.8280289 0.5357732
vt 0.8233273 0.533518
vt 0.8235503 0.5332072
vt 0.816506 0.5290953
vt 0.8165139 0.5296133
vt 0.8167211 0.5292706
vt 0.7929343 0.5047506
vt 0.7928944 0.5042087
vt 0.7931175 0.504384
vt 0.9266666 0.5522287
vt 0.9261168 0.552906
vt 0.921718 0.5503082
vt 0.9218296 0.5491766
vt 0.9220288 0.548061
vt 0.9272882 0.5515673
vt 0.9141955 0.5462919
vt 0.9139804 0.5474873
vt 0.9138688 0.5486826
vt 0.8920343 0.5472562
vt 0.8917314 0.5486746
vt 0.8915083 0.550364
vt 0.8723593 0.5464832
vt 0.8718573 0.5480212
vt 0.8551944 0.5449452
vt 0.8547323 0.5458935
vt 0.830021 0.5319641
vt 0.8292481 0.5329362
vt 0.825941 0.5269357
vt 0.8248334 0.5283701
vt 0.8170718 0.5213018
vt 0.8714429 0.5501249
vt 0.8716341 0.5493759
vt 0.8546367 0.5466425
vt 0.854039 0.5481726
vt 0.8291923 0.5334064
vt 0.8278536 0.5356377
vt 0.8239329 0.5300993
vt 0.8247856 0.5288084
vt 0.8233511 0.5330478
vt 0.8165299 0.5251427
vt 0.7914361 0.4947737
vt 0.816506 0.5290953
vt 0.7923446 0.4993159
vt 0.7928944 0.5042087
vt 0.9221802 0.5480849
vt 0.9273998 0.5515912
vt 0.9274715 0.5514318
vt 0.9221404 0.5478379
vt 0.9272882 0.5515673
vt 0.9143549 0.5463238
vt 0.9220288 0.548061
vt 0.9143071 0.5460529
vt 0.8922175 0.5474315
vt 0.9141955 0.5462919
vt 0.8921777 0.5470569
vt 0.8725665 0.5465071
vt 0.8920343 0.5472562
vt 0.8725585 0.5461645
vt 0.8553698 0.545001
vt 0.8723593 0.5464832
vt 0.8554016 0.5446902
vt 0.8302044 0.5320995
vt 0.8551944 0.5449452
vt 0.8303239 0.5317329
vt 0.826196 0.5270951
vt 0.830021 0.5319641
vt 0.8261721 0.526617
vt 0.825941 0.5269357
vt 0.8173028 0.5214771
vt 0.817263 0.5209671
vt 0.8170718 0.5213018
vt 0.7916274 0.4944071
vt 0.7916672 0.4949569
vt 0.7914361 0.4947737
vt 0.9395283 0.5334622
vt 0.9406041 0.5336056
vt 0.9361176 0.5327609
vt 0.936022 0.5328008
vt 0.9378708 0.5332311
vt 0.9359344 0.5328645
vt 0.9330417 0.53198
vt 0.9359981 0.5327928
vt 0.9330178 0.5321314
vt 0.9330257 0.5320437
vt 0.9327149 0.5318923
vt 0.9325635 0.5318844
vt 0.9324121 0.5318684
vt 0.9315356 0.5308484
vt 0.8979949 0.524322
vt 0.908689 0.5270234
vt 0.9086572 0.5272943
vt 0.9087289 0.5267923
vt 0.9151119 0.528904
vt 0.9150641 0.5291351
vt 0.9150163 0.5293981
vt 0.9461344 0.5343148
vt 0.9461026 0.5344822
vt 0.9460707 0.5346735
vt 0.9641758 0.5366417
vt 0.964128 0.5371119
vt 0.9640961 0.5374784
vt 0.9840341 0.5415106
vt 0.9407077 0.5328565
vt 0.9451303 0.5337012
vt 0.9721606 0.5375183
vt 0.9451463 0.5335339
vt 0.9499754 0.5348886
vn -0.5637527 0.8256713 -0.02120794
vn -0.5246603 0.8510813 0.019804
vn -0.5246603 0.8510813 -0.019804
vn -0.5652108 0.8249465 0
vn -0.6067542 0.7943975 -0.0279645
vn -0.6067542 0.7943975 -0.0279645
vn -0.6067542 0.7943975 0.0279645
vn -0.5637527 0.8256713 0.02120794
vn -0.5246603 0.8510813 -0.019804
vn -0.4269295 -0.9041643 -0.01477
vn -0.4269295 -0.9041643 -0.01477
vn -0.4269295 -0.9041643 -0.01477
vn -0.4269295 -0.9041643 -0.01477
vn -0.4269295 -0.9041643 -0.01477
vn -0.4269295 -0.9041643 -0.01477
vn -0.4269295 -0.9041643 -0.01477
vn -0.4269295 -0.9041643 -0.01477
vn -0.4269295 -0.9041643 -0.01477
vn -0.0008231401 -0.09104383 -0.9958466
vn -0.9605398 -0.001131475 -0.2781402
vn -0.9253567 -0.01090455 -0.3789406
vn -0.8843098 -0.02849615 -0.4660303
vn -0.9937683 0.00473237 0.1113646
vn -0.9996321 0.00473237 0.02670665
vn -0.3917464 0.08878088 -0.9157798
vn -0.3839279 0.1650109 -0.9084992
vn -0.02232397 -0.06758845 -0.9974635
vn 0.03435999 -0.06954306 -0.996987
vn 0.3510078 -0.2923694 -0.8895581
vn -0.3976103 -0.03631461 -0.9168355
vn 0.386191 -0.1242723 -0.9140093
vn 0.02849615 -0.01285917 -0.9995112
vn 0.3979186 0.01059616 -0.9173595
vn -0.3917464 -0.02654153 -0.9196903
vn 0.0167684 -0.01285917 -0.9997767
vn 0.3979186 0.002777696 -0.9174165
vn 0.08127075 0.01059616 -0.9966357
vn 0.3979186 -0.01872301 -0.9172297
vn 0.3979186 -0.01872301 -0.9172297
vn -0.3858826 -0.001131475 -0.9225472
vn -0.0262332 -0.03826922 -0.9989231
vn -0.3839279 -0.00308609 -0.9233579
vn 0.07540691 -0.01285917 -0.9970699
vn -0.5070688 0.02427852 -0.8615636
vn -0.4582034 0.03209698 -0.8882676
vn 0.2317762 -0.03631461 -0.9720911
vn 0.3881456 -0.0480423 -0.920345
vn 0.2415493 -0.1008169 -0.9651372
vn 0.227867 -0.03045076 -0.973216
vn -0.02818775 -0.02849615 -0.9991964
vn -0.1474193 -0.1027715 -0.9837202
vn -0.1161455 -0.07540691 -0.9903656
vn 0.04022384 -0.0167684 -0.99905
vn 0.2259124 0.01255083 -0.9740667
vn 0.07931614 0.00473237 -0.9968383
vn 0.2259124 0.03991544 -0.9733295
vn -0.2490594 -0.03240538 -0.9679459
vn -0.2177856 -0.06367922 -0.9739171
vn -0.2744694 -0.03826922 -0.960834
vn -0.2744694 -0.04999691 -0.9602952
vn 0.1125447 -0.05976999 -0.9918474
vn 0.4057371 -0.05976999 -0.9120334
vn -0.9370844 0.2216948 0.2696742
vn -0.8413082 0.4797041 0.2491674
vn -0.8686728 0.4953411 -0.006684952
vn -0.9664037 0.2529687 -0.04550464
vn -0.8413082 0.4797041 -0.2491674
vn -0.9585853 -0.07149768 0.2756853
vn -0.9370844 0.2216948 -0.2696742
vn -0.9973008 -0.07342456 0
vn -0.9605398 -0.04413307 0.2746189
vn -0.9585853 -0.07149768 -0.2756853
vn -0.9990269 -0.04410635 0
vn -0.9624945 -0.001131475 0.2712989
vn -0.9605398 -0.04413307 -0.2746189
vn -0.9996321 0.00473237 0.02670665
vn -0.9624945 0.008641601 -0.2711636
vn -0.9937683 0.00473237 0.1113646
vn -0.9624945 -0.01285917 0.2709963
vn -0.9976776 -0.01090455 0.06723539
vn -0.9253567 -0.01090455 -0.3789406
vn -0.9624945 -0.02263224 0.2703556
vn -0.9605398 -0.001131475 -0.2781402
vn -0.9996321 -0.02458692 0.01145094
vn -0.9624945 -0.0617246 0.2641863
vn -0.9624945 -0.02458692 -0.2701848
vn -0.9976776 -0.06758845 -0.008444413
vn -0.9624945 -0.0617246 -0.2641863
vn -0.9507667 -0.1535916 0.2691697
vn -0.9879044 -0.1535916 -0.02131761
vn -0.9507667 -0.1535916 -0.2691697
vn -0.9585853 -0.2825963 -0.0354066
vn -0.9234021 -0.2708685 0.2719538
vn -0.9234021 -0.2708685 -0.2719538
vn -0.02232397 -0.06758845 0.9974635
vn -0.3839279 0.1650109 0.9084992
vn -0.3917464 0.08878088 0.9157798
vn 0.03435999 -0.06954306 0.996987
vn 0.386191 -0.1242723 0.9140093
vn 0.3510078 -0.2923694 0.8895581
vn 0.3979186 0.01059616 0.9173595
vn 0.02849615 -0.01285917 0.9995112
vn -0.3976103 -0.03631461 0.9168355
vn 0.3979186 -0.00308609 0.9174155
vn 0.0480423 -0.02067763 0.9986312
vn -0.3976103 -0.03631461 0.9168355
vn 0.3979186 -0.00699532 0.917394
vn 0.09495306 0.00473237 0.9954705
vn 0.3979186 -0.00699532 0.917394
vn 0.01090455 0.00473237 0.9999293
vn 0.3725086 -0.04999691 0.926681
vn 0.03631461 -0.01481378 0.9992306
vn 0.2493678 -0.05976999 0.9665626
vn -0.01059616 -0.001131475 0.9999432
vn 0.2259124 0.02036929 0.9739347
vn -0.3780642 -0.00308609 0.9257742
vn 0.01285917 -0.01872301 0.999742
vn -0.02232397 -0.01481378 0.999641
vn -0.3233348 -0.00308609 0.9462796
vn -0.01841462 -0.03826922 0.9990978
vn -0.2998794 -0.01872301 0.9537933
vn -0.07900774 -0.02849615 0.9964666
vn 0.3666448 -0.06954306 0.9277582
vn -0.2744694 -0.04022384 0.9607542
vn 0.0167684 -0.0167684 0.9997188
vn 0.2259124 0.03991544 0.9733295
vn -0.2490594 -0.03240538 0.9679459
vn 0.07931614 0.00473237 0.9968383
vn -0.2177856 -0.06367922 0.9739171
vn 0.9100282 -0.3158247 -0.268521
vn 0.798615 -0.5503787 -0.2435104
vn 0.824025 -0.5660157 -0.02467874
vn 0.952677 -0.3039845 0
vn 0.798615 -0.5503787 0.2435104
vn 0.9608482 0.04382467 -0.2735875
vn 0.9100282 -0.3158247 0.268521
vn 0.9979859 0.04577935 -0.04391354
vn 0.9608482 0.01255083 -0.2767909
vn 0.9608482 0.04382467 0.2735875
vn 0.9999213 0.01255059 0
vn 0.9608482 -0.01090455 -0.2768606
vn 0.9608482 0.01255083 0.2767909
vn 0.9999405 -0.01090455 -0.0002482925
vn 0.9608482 -0.01872301 -0.276442
vn 0.9608482 -0.01090455 0.2768606
vn 0.9998248 -0.01872084 0
vn 0.956939 -0.1144993 -0.266754
vn 0.9608482 -0.01872301 0.276442
vn 0.9921221 -0.1242723 -0.01581856
vn 0.9530297 -0.1672739 -0.2524953
vn 0.956939 -0.1144993 0.266754
vn 0.9881362 -0.1535797 0
vn 0.9530297 -0.1672739 0.2524953
vn 0.9608482 0.08878088 -0.2624665
vn 0.9940767 0.1005086 -0.04134708
vn 0.9608482 0.08878088 0.2624665
vn 0.9706213 0.2392863 -0.02522606
vn 0.9354382 0.2295133 -0.2688478
vn 0.9354382 0.2295133 0.2688478
vn -0.9918137 0.0653255 -0.109719
vn -0.3839279 -0.00308609 -0.9233579
vn -0.5070688 0.02427852 -0.8615636
vn -0.4288841 0.02036929 -0.9031298
vn 0.4057371 -0.05976999 -0.9120334
vn 0.1125447 -0.05976999 -0.9918474
vn -0.4582034 0.03209698 -0.8882676
vn -0.3135618 0.00473237 -0.949556
vn -0.1161455 -0.07540691 -0.9903656
vn -0.327244 -0.02067763 -0.9447136
vn 0.2415493 -0.1008169 -0.9651372
vn 0.1027715 -0.02654153 -0.9943508
vn -0.1474193 -0.1027715 -0.9837202
vn 0.227867 -0.03045076 -0.973216
vn 0.2259124 0.02036929 0.9739347
vn 0.2630501 -0.08127075 0.9613531
vn 0.3666448 -0.06954306 0.9277582
vn -0.01059616 -0.001131475 0.9999432
vn 0.03631461 -0.01481378 0.9992306
vn 0.3822817 -0.04217845 0.9230827
vn -0.01841462 -0.03826922 0.9990978
vn 0.01090455 0.00473237 0.9999293
vn 0.1711831 -0.02067763 0.9850222
vn -0.02232397 -0.01481378 0.999641
vn 0.09495306 0.00473237 0.9954705
vn -0.292061 0.01450539 0.9562897
vn 0.01285917 -0.01872301 0.999742
vn -0.3976103 -0.03631461 0.9168355
vn 0.3979186 -0.01872301 -0.9172297
vn -0.0262332 -0.03826922 -0.9989231
vn 0.3666448 -0.03826922 -0.9295736
vn 0.08127075 0.01059616 -0.9966357
vn -0.3917464 -0.02654153 -0.9196903
g prague_stick1_0
f 3/3/3 2/2/2 1/1/1
f 4/4/4 3/3/3 1/1/1
f 4/4/4 1/1/1 5/5/5
f 1/1/1 6/6/6 5/5/5
f 4/4/4 5/5/5 7/7/7
f 8/8/8 4/4/4 7/7/7
f 4/4/4 8/8/8 3/3/3
f 8/8/8 9/9/9 3/3/3
f 12/12/12 11/11/11 10/10/10
f 13/13/13 12/12/12 10/10/10
f 12/12/12 13/13/13 14/14/14
f 13/13/13 15/15/15 14/14/14
f 13/13/13 10/10/10 16/16/16
f 13/13/13 16/16/16 15/15/15
f 10/10/10 17/17/17 16/16/16
f 16/16/16 18/18/18 15/15/15
f 21/21/21 20/20/20 19/19/19
f 22/22/22 21/21/21 19/19/19
f 22/22/22 19/19/19 23/23/23
f 24/24/24 21/21/21 22/22/22
f 24/24/24 22/22/22 23/23/23
f 27/27/27 26/26/26 25/25/25
f 28/28/28 27/27/27 25/25/25
f 27/27/27 28/28/28 29/29/29
f 28/28/28 25/25/25 30/30/30
f 28/28/28 31/31/31 29/29/29
f 32/32/32 28/28/28 30/30/30
f 28/28/28 32/32/32 31/31/31
f 32/32/32 33/33/33 31/31/31
f 32/32/32 30/30/30 34/34/34
f 32/32/32 35/35/35 33/33/33
f 35/35/35 32/32/32 34/34/34
f 35/35/35 36/36/36 33/33/33
f 34/34/34 37/37/37 35/35/35
f 35/35/35 37/37/37 36/36/36
f 37/37/37 38/38/38 36/36/36
f 37/37/37 39/39/39 38/38/38
f 41/41/41 34/34/34 40/40/40
f 41/41/41 40/40/40 42/42/42
f 43/43/43 41/41/41 42/42/42
f 41/41/41 43/43/43 39/39/39
f 44/44/44 43/43/43 42/42/42
f 44/44/44 45/45/45 43/43/43
f 43/43/43 46/46/46 39/39/39
f 45/45/45 46/46/46 43/43/43
f 46/46/46 47/47/47 39/39/39
f 48/48/48 46/46/46 45/45/45
f 46/46/46 48/48/48 47/47/47
f 48/48/48 49/49/49 47/47/47
f 51/51/51 50/50/50 49/49/49
f 50/50/50 51/51/51 52/52/52
f 50/50/50 53/53/53 49/49/49
f 53/53/53 54/54/54 49/49/49
f 53/53/53 55/55/55 54/54/54
f 55/55/55 56/56/56 54/54/54
f 53/53/53 57/57/57 55/55/55
f 53/53/53 50/50/50 57/57/57
f 57/57/57 58/58/58 55/55/55
f 50/50/50 59/59/59 57/57/57
f 52/52/52 59/59/59 50/50/50
f 52/52/52 60/60/60 59/59/59
f 52/52/52 61/61/61 60/60/60
f 61/61/61 62/62/62 60/60/60
f 65/65/65 64/64/64 63/63/63
f 66/66/66 65/65/65 63/63/63
f 65/65/65 66/66/66 67/67/67
f 66/66/66 63/63/63 68/68/68
f 66/66/66 69/69/69 67/67/67
f 70/70/70 66/66/66 68/68/68
f 66/66/66 70/70/70 69/69/69
f 70/70/70 68/68/68 71/71/71
f 70/70/70 72/72/72 69/69/69
f 73/73/73 70/70/70 71/71/71
f 70/70/70 73/73/73 72/72/72
f 73/73/73 71/71/71 74/74/74
f 73/73/73 75/75/75 72/72/72
f 76/76/76 73/73/73 74/74/74
f 73/73/73 76/76/76 75/75/75
f 76/76/76 77/77/77 75/75/75
f 76/76/76 78/78/78 77/77/77
f 76/76/76 74/74/74 79/79/79
f 80/80/80 76/76/76 79/79/79
f 76/76/76 80/80/80 81/81/81
f 80/80/80 79/79/79 82/82/82
f 83/83/83 81/81/81 80/80/80
f 84/84/84 80/80/80 82/82/82
f 80/80/80 84/84/84 83/83/83
f 84/84/84 82/82/82 85/85/85
f 84/84/84 86/86/86 83/83/83
f 87/87/87 84/84/84 85/85/85
f 84/84/84 87/87/87 86/86/86
f 87/87/87 88/88/88 86/86/86
f 87/87/87 85/85/85 89/89/89
f 87/87/87 90/90/90 88/88/88
f 90/90/90 87/87/87 89/89/89
f 90/90/90 91/91/91 88/88/88
f 90/90/90 89/89/89 92/92/92
f 90/90/90 92/92/92 91/91/91
f 89/89/89 93/93/93 92/92/92
f 92/92/92 94/94/94 91/91/91
f 97/97/97 96/96/96 95/95/95
f 98/98/98 97/97/97 95/95/95
f 98/98/98 95/95/95 99/99/99
f 95/95/95 100/100/100 99/99/99
f 98/98/98 99/99/99 101/101/101
f 98/98/98 102/102/102 97/97/97
f 102/102/102 98/98/98 101/101/101
f 102/102/102 103/103/103 97/97/97
f 102/102/102 101/101/101 104/104/104
f 102/102/102 105/105/105 103/103/103
f 105/105/105 102/102/102 104/104/104
f 105/105/105 106/106/106 103/103/103
f 105/105/105 104/104/104 107/107/107
f 105/105/105 108/108/108 106/106/106
f 108/108/108 105/105/105 107/107/107
f 108/108/108 107/107/107 109/109/109
f 110/110/110 108/108/108 109/109/109
f 110/110/110 109/109/109 111/111/111
f 112/112/112 110/110/110 111/111/111
f 112/112/112 111/111/111 113/113/113
f 114/114/114 112/112/112 113/113/113
f 114/114/114 113/113/113 115/115/115
f 117/117/117 116/116/116 106/106/106
f 117/117/117 118/118/118 116/116/116
f 118/118/118 119/119/119 116/116/116
f 118/118/118 120/120/120 119/119/119
f 120/120/120 121/121/121 119/119/119
f 120/120/120 122/122/122 121/121/121
f 123/123/123 122/122/122 120/120/120
f 122/122/122 123/123/123 115/115/115
f 122/122/122 124/124/124 121/121/121
f 125/125/125 122/122/122 115/115/115
f 122/122/122 125/125/125 124/124/124
f 125/125/125 115/115/115 126/126/126
f 125/125/125 127/127/127 124/124/124
f 128/128/128 125/125/125 126/126/126
f 125/125/125 128/128/128 127/127/127
f 128/128/128 129/129/129 127/127/127
f 132/132/132 131/131/131 130/130/130
f 133/133/133 132/132/132 130/130/130
f 132/132/132 133/133/133 134/134/134
f 133/133/133 130/130/130 135/135/135
f 133/133/133 136/136/136 134/134/134
f 137/137/137 133/133/133 135/135/135
f 133/133/133 137/137/137 136/136/136
f 137/137/137 135/135/135 138/138/138
f 137/137/137 139/139/139 136/136/136
f 140/140/140 137/137/137 138/138/138
f 137/137/137 140/140/140 139/139/139
f 140/140/140 138/138/138 141/141/141
f 140/140/140 142/142/142 139/139/139
f 143/143/143 140/140/140 141/141/141
f 140/140/140 143/143/143 142/142/142
f 143/143/143 141/141/141 144/144/144
f 143/143/143 145/145/145 142/142/142
f 146/146/146 143/143/143 144/144/144
f 143/143/143 146/146/146 145/145/145
f 146/146/146 144/144/144 147/147/147
f 146/146/146 148/148/148 145/145/145
f 149/149/149 146/146/146 147/147/147
f 146/146/146 149/149/149 148/148/148
f 149/149/149 147/147/147 150/150/150
f 149/149/149 151/151/151 148/148/148
f 152/152/152 149/149/149 150/150/150
f 149/149/149 152/152/152 151/151/151
f 152/152/152 153/153/153 151/151/151
f 152/152/152 150/150/150 154/154/154
f 152/152/152 155/155/155 153/153/153
f 155/155/155 152/152/152 154/154/154
f 155/155/155 156/156/156 153/153/153
f 155/155/155 154/154/154 157/157/157
f 155/155/155 157/157/157 156/156/156
f 154/154/154 158/158/158 157/157/157
f 157/157/157 159/159/159 156/156/156
f 162/162/162 161/161/161 160/160/160
f 163/163/163 162/162/162 160/160/160
f 163/163/163 160/160/160 164/164/164
f 165/165/165 163/163/163 164/164/164
f 166/166/166 162/162/162 163/163/163
f 167/167/167 163/163/163 165/165/165
f 163/163/163 167/167/167 166/166/166
f 167/167/167 165/165/165 168/168/168
f 167/167/167 169/169/169 166/166/166
f 168/168/168 169/169/169 167/167/167
f 170/170/170 166/166/166 169/169/169
f 171/171/171 169/169/169 168/168/168
f 171/171/171 170/170/170 169/169/169
f 172/172/172 171/171/171 168/168/168
f 170/170/170 171/171/171 173/173/173
f 171/171/171 172/172/172 173/173/173
f 176/176/176 175/175/175 174/174/174
f 175/175/175 177/177/177 174/174/174
f 177/177/177 175/175/175 178/178/178
f 175/175/175 176/176/176 179/179/179
f 175/175/175 179/179/179 178/178/178
f 176/176/176 180/180/180 179/179/179
f 178/178/178 179/179/179 181/181/181
f 179/179/179 180/180/180 182/182/182
f 179/179/179 182/182/182 181/181/181
f 180/180/180 183/183/183 182/182/182
f 184/184/184 181/181/181 182/182/182
f 185/185/185 182/182/182 183/183/183
f 185/185/185 184/184/184 182/182/182
f 186/186/186 185/185/185 183/183/183
f 184/184/184 185/185/185 187/187/187
f 185/185/185 186/186/186 187/187/187
f 190/190/190 189/189/189 188/188/188
f 191/191/191 190/190/190 188/188/188
f 192/192/192 189/189/189 190/190/190
f 192/192/192 190/190/190 191/191/191
