g Sam_Apple
v 0.0742445 0.4299753 -0.06506416
v 0.1115023 0.4118164 0.0159196
v -3.874302E-07 0.1835722 -2.095103E-05
v 0.1843062 0.3232662 -0.02109048
v 0.1906539 0.2592596 -0.08084559
v -3.874302E-07 0.1835722 -2.095103E-05
v 0.1843062 0.3232662 -0.02109048
v 0.2700434 0.3900383 -0.2561187
v 0.1906539 0.2592596 -0.08084559
v 0.126179 0.3191854 -0.04803041
v 0.1115023 0.4118164 0.0159196
v 0.0742445 0.4299753 -0.06506416
v 0.2700434 0.3900383 -0.2561187
v 0.126179 0.3191854 -0.04803041
v 0.2700434 0.3900383 -0.2561187
v 0.0742445 0.4299753 -0.06506416
v -3.874302E-07 0.1835722 -2.095103E-05
v 0.1906539 0.2592596 -0.08084559
v -3.874302E-07 0.1835722 -2.095103E-05
v 0.126179 0.3191854 -0.04803041
v 0.1843062 0.3232662 -0.02109048
v 0.1115023 0.4118164 0.0159196
v -3.874302E-07 -0.3547234 -0.1458035
v -3.874302E-07 -0.3821988 -2.095103E-05
v 0.1392877 -0.4299754 -0.1463596
v -0.1392877 -0.4299754 -0.1463596
v -3.874302E-07 -0.2378474 -0.3383072
v -0.1866624 -0.3545003 -2.095103E-05
v -0.3618616 -0.2376202 -2.095103E-05
v -0.2469637 -0.2342167 -0.2532958
v -0.1392877 -0.4299754 0.1463169
v -0.2791712 0.07735515 -0.2902649
v -0.4191744 0.07735515 -2.095103E-05
v -3.874302E-07 0.07735515 -0.3986708
v 0.2469637 -0.2342167 -0.2532958
v -0.1732912 0.2925358 -0.221701
v 0.3618617 -0.2376202 -2.095103E-05
v 0.1866624 -0.3545003 -2.095103E-05
v 0.1392877 -0.4299754 0.1463169
v -3.874302E-07 -0.3547234 0.1457608
v -3.874302E-07 -0.2378474 0.3382645
v -0.2469637 -0.2342167 0.2532539
v -0.2792885 0.05923718 0.2903453
v -3.874302E-07 0.05923718 0.3986708
v 0.2469637 -0.2342167 0.2532539
v 0.2791712 0.07735515 -0.2902649
v -0.1732912 0.2925358 0.2216582
v 0.2792885 0.05923718 0.2903453
v 0.4191745 0.07735515 -2.095103E-05
v 0.1732913 0.2925358 -0.221701
v 0.1732913 0.2925358 0.2216582
v -0.2815233 0.2279198 -2.095103E-05
v -3.874302E-07 0.1835722 -2.095103E-05
v -3.874302E-07 0.2209841 -0.2111502
v -3.874302E-07 0.2209841 0.2111075
v 0.2815233 0.2279198 -2.095103E-05
vt 0.6868775 0.4238464
vt 0.6792933 0.4296461
vt 0.7490894 0.430746
vt 0.6792933 0.4363457
vt 0.7000768 0.4403378
vt 0.7490894 0.430746
vt 0.6792933 0.4363457
vt 0.6826855 0.4395916
vt 0.7000768 0.4403378
vt 0.7178604 0.4358226
vt 0.6792933 0.4296461
vt 0.6868775 0.4238464
vt 0.6826855 0.4395916
vt 0.7178604 0.4358226
vt 0.6826855 0.4395916
vt 0.6868775 0.4238464
vt 0.7490894 0.430746
vt 0.7000768 0.4403378
vt 0.7490894 0.430746
vt 0.7178604 0.4358226
vt 0.6792933 0.4363457
vt 0.6792933 0.4296461
vt 0.741659 0.2605711
vt 0.7192141 0.2450028
vt 0.7144067 0.2654324
vt 0.7137837 0.2653862
vt 0.7342287 0.2863081
vt 0.688262 0.2539715
vt 0.6748706 0.2759625
vt 0.7077994 0.2897233
vt 0.7144067 0.2654324
vt 0.7052919 0.3128374
vt 0.6895235 0.3317516
vt 0.7166681 0.3317516
vt 0.7077994 0.2897233
vt 0.7061456 0.3642036
vt 0.6748706 0.2759625
vt 0.688262 0.2539715
vt 0.7144067 0.2654324
vt 0.7426974 0.2613941
vt 0.7347286 0.2861158
vt 0.7077994 0.2897233
vt 0.7052919 0.3128374
vt 0.7163066 0.3317516
vt 0.7077994 0.2897233
vt 0.7052919 0.3128374
vt 0.7063611 0.3642036
vt 0.7052919 0.3128374
vt 0.6895235 0.3317516
vt 0.7061456 0.3642036
vt 0.7063611 0.3642036
vt 0.6781703 0.3722724
vt 0.7112761 0.3958941
vt 0.7382361 0.3789874
vt 0.7388361 0.3788105
vt 0.6781703 0.3722724
vn -0.8123163 0.3646137 0.4551913
vn -0.8123163 0.3646137 0.4551913
vn -0.8123163 0.3646137 0.4551913
vn 0.501466 -0.5640271 0.6560528
vn 0.501466 -0.5640271 0.6560528
vn 0.501466 -0.5640271 0.6560528
vn 0.5855324 0.6989244 0.4106781
vn 0.8279566 0.380254 0.4121828
vn 0.9393935 -0.1788855 0.2924719
vn -0.1671554 0.9628539 0.2120646
vn 0.7790807 0.4682305 0.4168854
vn 0.2785922 0.9569888 0.08098627
vn 0.8240465 0.3431083 0.4508038
vn 0.8357767 -0.2160312 0.5047849
vn -0.6109478 -0.1612902 -0.7750666
vn -0.6969694 0.02052784 -0.716807
vn -0.6109478 -0.1612902 -0.7750666
vn 0.0811339 -0.8162264 -0.5720068
vn 0.5190613 -0.1867057 0.8340961
vn 0.3763439 -0.02248287 0.9262072
vn -0.3704787 0.5972626 0.7113528
vn 0.6461385 -0.3626587 0.6715532
vn -0.0009775162 -0.912023 -0.4101379
vn -0.0009775162 -0.9999995 0
vn 0.3294231 -0.8670573 -0.373754
vn -0.3294231 -0.8670573 -0.3737541
vn -0.0009775162 -0.2785922 -0.960409
vn -0.4232065 -0.9060333 0
vn -0.9608989 -0.2746822 -0.03497192
vn -0.6617788 -0.2746822 -0.6975661
vn -0.3294231 -0.8670573 0.3737541
vn -0.6930593 0.01857281 -0.7206413
vn -0.9998925 0.01466117 0
vn -0.0009775162 0.002932549 -0.9999952
vn 0.6617788 -0.2746822 -0.6975661
vn -0.2844573 0.8846526 -0.3694236
vn 0.9608989 -0.2746822 -0.03497192
vn 0.4232064 -0.9060333 0
vn 0.3294231 -0.8670573 0.373754
vn -0.0009775162 -0.912023 0.4101379
vn -0.0009775162 -0.2922775 0.9563331
vn -0.6637338 -0.2825023 0.6925676
vn -0.6969694 0.01466274 0.716951
vn -0.0009775162 0.004887581 0.9999875
vn 0.6637338 -0.2825023 0.6925676
vn 0.6930593 0.01857281 -0.7206413
vn -0.2981426 0.8670572 0.3991526
vn 0.6969694 0.01466274 0.716951
vn 0.9998925 0.01466117 0
vn 0.2844573 0.8846526 -0.3694236
vn 0.2981426 0.8670572 0.3991526
vn -0.3861191 0.9217982 -0.03464217
vn -0.0009775162 0.9999995 0
vn -0.0009775162 0.9648089 -0.2629501
vn -0.0009775162 0.9511237 0.3088086
vn 0.3861191 0.9217982 -0.03464303
g Sam_Apple_0
f 3/3/3 2/2/2 1/1/1
f 6/6/6 5/5/5 4/4/4
f 9/9/9 8/8/8 7/7/7
f 8/8/8 10/10/10 7/7/7
f 13/13/13 12/12/12 11/11/11
f 13/13/13 11/11/11 14/14/14
f 17/17/17 16/16/16 15/15/15
f 17/17/17 15/15/15 18/18/18
f 21/21/21 20/20/20 19/19/19
f 20/20/20 22/22/22 19/19/19
f 25/25/25 24/24/24 23/23/23
f 23/23/23 24/24/24 26/26/26
f 23/23/23 27/27/27 25/25/25
f 26/26/26 27/27/27 23/23/23
f 26/26/26 24/24/24 28/28/28
f 28/28/28 29/29/29 26/26/26
f 26/26/26 30/30/30 27/27/27
f 29/29/29 30/30/30 26/26/26
f 28/28/28 24/24/24 31/31/31
f 31/31/31 29/29/29 28/28/28
f 30/30/30 32/32/32 27/27/27
f 29/29/29 33/33/33 30/30/30
f 33/33/33 32/32/32 30/30/30
f 32/32/32 34/34/34 27/27/27
f 27/27/27 35/35/35 25/25/25
f 27/27/27 34/34/34 35/35/35
f 33/33/33 36/36/36 32/32/32
f 32/32/32 36/36/36 34/34/34
f 25/25/25 35/35/35 37/37/37
f 38/38/38 24/24/24 25/25/25
f 25/25/25 37/37/37 38/38/38
f 39/39/39 24/24/24 38/38/38
f 38/38/38 37/37/37 39/39/39
f 31/31/31 24/24/24 40/40/40
f 40/40/40 24/24/24 39/39/39
f 40/40/40 41/41/41 31/31/31
f 39/39/39 41/41/41 40/40/40
f 31/31/31 42/42/42 29/29/29
f 41/41/41 42/42/42 31/31/31
f 42/42/42 43/43/43 29/29/29
f 43/43/43 33/33/33 29/29/29
f 44/44/44 43/43/43 42/42/42
f 41/41/41 44/44/44 42/42/42
f 39/39/39 45/45/45 41/41/41
f 37/37/37 45/45/45 39/39/39
f 35/35/35 46/46/46 37/37/37
f 34/34/34 46/46/46 35/35/35
f 47/47/47 33/33/33 43/43/43
f 44/44/44 47/47/47 43/43/43
f 45/45/45 48/48/48 41/41/41
f 48/48/48 44/44/44 41/41/41
f 37/37/37 49/49/49 45/45/45
f 46/46/46 49/49/49 37/37/37
f 49/49/49 48/48/48 45/45/45
f 34/34/34 50/50/50 46/46/46
f 50/50/50 49/49/49 46/46/46
f 48/48/48 51/51/51 44/44/44
f 49/49/49 51/51/51 48/48/48
f 47/47/47 52/52/52 33/33/33
f 47/47/47 53/53/53 52/52/52
f 33/33/33 52/52/52 36/36/36
f 52/52/52 53/53/53 36/36/36
f 36/36/36 54/54/54 34/34/34
f 34/34/34 54/54/54 50/50/50
f 36/36/36 53/53/53 54/54/54
f 54/54/54 53/53/53 50/50/50
f 44/44/44 55/55/55 47/47/47
f 51/51/51 55/55/55 44/44/44
f 55/55/55 53/53/53 47/47/47
f 51/51/51 53/53/53 55/55/55
f 50/50/50 56/56/56 49/49/49
f 50/50/50 53/53/53 56/56/56
f 56/56/56 53/53/53 51/51/51
f 49/49/49 56/56/56 51/51/51
