g Sam_Apple_backhalf
v 0.07424435 0.4303437 -0.06527066
v 0.1115021 0.4121847 0.0157131
v 2.980232E-07 0.1839406 -0.0002274513
v 0.1843069 0.3236338 -0.02129701
v 0.1906538 0.259628 -0.08105293
v 2.980232E-07 0.1839406 -0.0002274513
v 0.1843069 0.3236338 -0.02129701
v 0.270044 0.3904066 -0.2563252
v 0.1906538 0.259628 -0.08105293
v 0.1261797 0.3195538 -0.04823691
v 0.1115021 0.4121847 0.0157131
v 0.07424435 0.4303437 -0.06527066
v 0.270044 0.3904066 -0.2563252
v 0.1261797 0.3195538 -0.04823691
v 0.270044 0.3904066 -0.2563252
v 0.07424435 0.4303437 -0.06527066
v 2.980232E-07 0.1839406 -0.0002274513
v 0.1906538 0.259628 -0.08105293
v 2.980232E-07 0.1839406 -0.0002274513
v 0.1261797 0.3195538 -0.04823691
v 0.1843069 0.3236338 -0.02129701
v 0.1115021 0.4121847 0.0157131
v -0.2815234 0.2282882 -0.0002274513
v -0.361861 -0.2372518 -0.0002274513
v -0.4191746 0.07772353 -0.0002274513
v -0.1866625 -0.3541319 -0.0002274513
v 2.980232E-07 0.1839406 -0.0002274513
v 2.980232E-07 -0.3818305 -0.0002274513
v 0.2815232 0.2282882 -0.0002274513
v 0.1866623 -0.3541319 -0.0002274513
v 0.4191743 0.07772353 -0.0002274513
v 0.3618615 -0.2372518 -0.0002274513
v -0.1866625 -0.3541319 -0.0002274513
v 2.980232E-07 -0.3818305 -0.0002274513
v -0.1392878 -0.429607 -0.1465661
v -0.361861 -0.2372518 -0.0002274513
v -0.2469638 -0.2338483 -0.2535032
v -0.4191746 0.07772353 -0.0002274513
v 2.980232E-07 -0.354355 -0.14601
v 2.980232E-07 -0.237479 -0.3385137
v 0.1392876 -0.429607 -0.1465661
v 0.1866623 -0.3541319 -0.0002274513
v 0.3618615 -0.2372518 -0.0002274513
v -0.2791705 0.07772353 -0.2904714
v 0.2469636 -0.2338483 -0.2535032
v -0.1732914 0.2929042 -0.2219075
v -0.2815234 0.2282882 -0.0002274513
v 2.980232E-07 0.1839406 -0.0002274513
v 2.980232E-07 0.07772353 -0.3988774
v 0.2791711 0.07772353 -0.2904714
v 0.4191743 0.07772353 -0.0002274513
v 0.1732911 0.2929042 -0.2219075
v 0.2815232 0.2282882 -0.0002274513
v 2.980232E-07 0.2213525 -0.2113567
vt 0.6868765 0.423843
vt 0.6792914 0.4296495
vt 0.7490948 0.4307511
vt 0.6792914 0.4363395
vt 0.7000844 0.4403443
vt 0.7490948 0.4307511
vt 0.6792914 0.4363395
vt 0.6826881 0.4395869
vt 0.7000844 0.4403443
vt 0.7178594 0.4358231
vt 0.6792914 0.4296495
vt 0.6868765 0.423843
vt 0.6826881 0.4395869
vt 0.7178594 0.4358231
vt 0.6826881 0.4395869
vt 0.6868765 0.423843
vt 0.7490948 0.4307511
vt 0.7000844 0.4403443
vt 0.7490948 0.4307511
vt 0.7178594 0.4358231
vt 0.6792914 0.4363395
vt 0.6792914 0.4296495
vt 0.9505411 0.742772
vt 0.9376545 0.6661639
vt 0.9279006 0.7178938
vt 0.9664801 0.647161
vt 0.9970269 0.7353935
vt 0.9970269 0.6427316
vt 0.9505411 0.742772
vt 0.9664801 0.647161
vt 0.9279006 0.7178938
vt 0.9376545 0.6661639
vt 0.688265 0.2539763
vt 0.7192135 0.2450028
vt 0.7137857 0.2653941
vt 0.6748735 0.2759627
vt 0.7077957 0.2897214
vt 0.6895158 0.3317549
vt 0.7416589 0.2605631
vt 0.7342229 0.2863133
vt 0.7144054 0.2654285
vt 0.688265 0.2539763
vt 0.6748735 0.2759627
vt 0.7052941 0.3128439
vt 0.7077957 0.2897214
vt 0.7061433 0.3642067
vt 0.6781669 0.3722737
vt 0.7112727 0.3958896
vt 0.716666 0.3317549
vt 0.7052941 0.3128439
vt 0.6895158 0.3317549
vt 0.7061433 0.3642067
vt 0.6781669 0.3722737
vt 0.7382393 0.3789867
vn -0.8119125 0.3648784 0.4556994
vn -0.8119125 0.3648784 0.4556994
vn -0.8119125 0.3648784 0.4556994
vn 0.5025578 -0.5634305 0.6557299
vn 0.5025578 -0.5634305 0.6557299
vn 0.5025578 -0.5634305 0.6557299
vn 0.5843555 0.6996784 0.4110704
vn 0.8278464 0.3800966 0.4125493
vn 0.9400805 -0.1791715 0.2900798
vn -0.1670421 0.962192 0.215136
vn 0.7783873 0.4676011 0.4188823
vn 0.2799919 0.9564851 0.08210243
vn 0.8240418 0.3420511 0.451615
vn 0.8354555 -0.2153147 0.5056221
vn -0.6121739 -0.1601487 -0.7743356
vn -0.6958738 0.02056712 -0.7178695
vn -0.6102715 -0.162051 -0.7754406
vn 0.08215559 -0.8164327 -0.5715663
vn 0.5196782 -0.1867806 0.8336952
vn 0.3751056 -0.02128291 0.9267378
vn -0.3705853 0.5969556 0.7115551
vn 0.6452283 -0.3617896 0.6728958
vn 0.0003578663 -0.0003578663 0.9999999
vn 0.0003578663 -0.0003578663 0.9999999
vn 0.0003578663 -0.0003578663 0.9999999
vn 0.0003578663 -0.0003578663 0.9999999
vn 0.0003578663 -0.0003578663 0.9999999
vn 0.0003578663 -0.0003578663 0.9999999
vn 0.0003578663 -0.0003578663 0.9999999
vn 0.0003578663 -0.0003578663 0.9999999
vn 0.0003578663 -0.0003578663 0.9999999
vn 0.0003578663 -0.0003578663 0.9999999
vn -0.4010215 -0.860185 0.315061
vn 0.0003578663 -0.9819304 0.1892419
vn -0.3287353 -0.8658918 -0.377047
vn -0.8841987 -0.2495556 -0.3948603
vn -0.661633 -0.2742851 -0.6978607
vn -0.9108306 0.007251203 -0.4127167
vn 0.0003578663 -0.9134486 -0.4069539
vn 0.0003578663 -0.2780896 -0.9605551
vn 0.329451 -0.8658918 -0.3764219
vn 0.4017373 -0.860185 0.3141478
vn 0.8849145 -0.2495556 -0.3932535
vn -0.6920692 0.0186649 -0.7215898
vn 0.6604464 -0.2742851 -0.6989837
vn -0.284983 0.8841987 -0.3701045
vn -0.3858034 0.9184397 0.0873174
vn 0.0003578663 0.9545829 0.2979453
vn 0.0003578663 0.003446639 -0.999994
vn 0.692785 0.0186649 -0.7209026
vn 0.9096441 0.007251203 -0.4153253
vn 0.2856988 0.8841987 -0.3695522
vn 0.3846169 0.9184397 0.0924036
vn 0.0003578663 0.9640942 -0.2655602
g Sam_Apple_backhalf_0
f 3/3/3 2/2/2 1/1/1
f 6/6/6 5/5/5 4/4/4
f 9/9/9 8/8/8 7/7/7
f 8/8/8 10/10/10 7/7/7
f 13/13/13 12/12/12 11/11/11
f 13/13/13 11/11/11 14/14/14
f 17/17/17 16/16/16 15/15/15
f 17/17/17 15/15/15 18/18/18
f 21/21/21 20/20/20 19/19/19
f 20/20/20 22/22/22 19/19/19
f 25/25/25 24/24/24 23/23/23
f 24/24/24 26/26/26 23/23/23
f 23/23/23 26/26/26 27/27/27
f 26/26/26 28/28/28 27/27/27
f 27/27/27 28/28/28 29/29/29
f 28/28/28 30/30/30 29/29/29
f 29/29/29 30/30/30 31/31/31
f 30/30/30 32/32/32 31/31/31
f 35/35/35 34/34/34 33/33/33
f 33/33/33 36/36/36 35/35/35
f 36/36/36 37/37/37 35/35/35
f 36/36/36 38/38/38 37/37/37
f 39/39/39 34/34/34 35/35/35
f 35/35/35 37/37/37 40/40/40
f 35/35/35 40/40/40 39/39/39
f 41/41/41 34/34/34 39/39/39
f 39/39/39 40/40/40 41/41/41
f 42/42/42 34/34/34 41/41/41
f 41/41/41 43/43/43 42/42/42
f 38/38/38 44/44/44 37/37/37
f 37/37/37 44/44/44 40/40/40
f 41/41/41 45/45/45 43/43/43
f 40/40/40 45/45/45 41/41/41
f 38/38/38 46/46/46 44/44/44
f 38/38/38 47/47/47 46/46/46
f 47/47/47 48/48/48 46/46/46
f 44/44/44 49/49/49 40/40/40
f 40/40/40 49/49/49 45/45/45
f 44/44/44 46/46/46 49/49/49
f 45/45/45 50/50/50 43/43/43
f 49/49/49 50/50/50 45/45/45
f 50/50/50 51/51/51 43/43/43
f 52/52/52 51/51/51 50/50/50
f 49/49/49 52/52/52 50/50/50
f 52/52/52 53/53/53 51/51/51
f 52/52/52 48/48/48 53/53/53
f 46/46/46 48/48/48 54/54/54
f 46/46/46 54/54/54 49/49/49
f 54/54/54 48/48/48 52/52/52
f 49/49/49 54/54/54 52/52/52
