g screenGlow
v 0.4999991 0.4999996 -6.556511E-07
v 0.964022 0.9640226 0.9999999
v -0.9640226 0.9640226 0.9999999
v -0.4999996 0.4999996 -6.556511E-07
v -0.4999996 -0.4999991 -6.556511E-07
v -0.9640226 -0.964022 0.9999999
v 0.964022 -0.964022 0.9999999
v 0.4999991 -0.4999991 -6.556511E-07
v 0.4999991 -0.4999991 -6.556511E-07
v 0.964022 -0.964022 0.9999999
v 0.964022 0.9640226 0.9999999
v 0.4999991 0.4999996 -6.556511E-07
v -0.9640226 0.9640226 0.9999999
v -0.9640226 -0.964022 0.9999999
v -0.4999996 -0.4999991 -6.556511E-07
v -0.4999996 0.4999996 -6.556511E-07
v -0.4999996 0.4999996 -6.556511E-07
v -0.4999996 -0.4999991 -6.556511E-07
v 0.4999991 -0.4999991 -6.556511E-07
v 0.4999991 0.4999996 -6.556511E-07
vt 0.5000076 0.9930419
vt 0.5000076 0.006958114
vt 0.2500038 0.006958114
vt 0.2500038 0.9930419
vt 1 0.9930419
vt 1 0.006958114
vt 0.7499962 0.006958114
vt 0.7499962 0.9930419
vt 0.7499962 0.9930419
vt 0.7499962 0.006958114
vt 0.5000076 0.006958114
vt 0.5000076 0.9930419
vt 0.2500038 0.006958114
vt 0 0.006958114
vt 0 0.9930419
vt 0.2500038 0.9930419
vt 0.2500038 0.9930419
vt 0.2500038 0.9950103
vt 0.5000076 0.9950103
vt 0.5000076 0.9930419
vn -0.000955224 0.9771961 -0.2123368
vn -0.000955224 0.9771961 -0.2123368
vn -0.000955224 0.9771961 -0.2123368
vn -0.000955224 0.9771961 -0.2123368
vn -0.000955224 -0.9771961 -0.2123368
vn -0.000955224 -0.9771961 -0.2123368
vn -0.000955224 -0.9771961 -0.2123368
vn -0.000955224 -0.9771961 -0.2123368
vn 0.9771961 0.000955224 -0.2123368
vn 0.9771961 0.000955224 -0.2123368
vn 0.9771961 0.000955224 -0.2123368
vn 0.9771961 0.000955224 -0.2123368
vn -0.9771961 0.000955224 -0.2123368
vn -0.9771961 0.000955224 -0.2123368
vn -0.9771961 0.000955224 -0.2123368
vn -0.9771961 0.000955224 -0.2123368
vn -0.000955224 0.000955224 -0.9999991
vn -0.000955224 0.000955224 -0.9999991
vn -0.000955224 0.000955224 -0.9999991
vn -0.000955224 0.000955224 -0.9999991
g screenGlow_0
f 3/3/3 2/2/2 1/1/1
f 4/4/4 3/3/3 1/1/1
f 7/7/7 6/6/6 5/5/5
f 8/8/8 7/7/7 5/5/5
f 11/11/11 10/10/10 9/9/9
f 12/12/12 11/11/11 9/9/9
f 15/15/15 14/14/14 13/13/13
f 16/16/16 15/15/15 13/13/13
f 19/19/19 18/18/18 17/17/17
f 20/20/20 19/19/19 17/17/17
