g shanghai_ball
v 0.0452936 -0.3380744 0.0945496
v -8.940697E-08 -0.35 0.1729999
v 0.07845023 -0.3380744 0.1277071
v 0.08750015 -0.3031086 0.02144513
v 0.1515547 -0.3031086 0.08549967
v 0.1237439 -0.2474871 -0.04133061
v 0.2143304 -0.2474871 0.04925591
v 0.1515547 -0.1750004 -0.08949995
v 0.2624997 -0.1750004 0.02144513
v 0.1690368 -0.09058642 -0.1197809
v 0.2927808 -0.09058642 0.003963053
v 0.1750004 8.940697E-08 -0.1301088
v 0.3031086 8.940697E-08 -0.001999736
v 0.1690368 0.0905866 -0.1197809
v 0.2927808 0.0905866 0.003963053
v 0.1515547 0.1749997 -0.08949995
v 0.2624997 0.1749997 0.02144513
v 0.1237439 0.2474872 -0.04133061
v 0.2143304 0.2474872 0.04925591
v 0.08750015 0.3031088 0.02144513
v 0.1515547 0.3031088 0.08549967
v 0.0452936 0.3380738 0.0945496
v 0.07845023 0.3380738 0.1277071
v -8.940697E-08 0.3500002 0.1729999
v -8.940697E-08 0.3380738 0.08241338
v -8.940697E-08 0.3500002 0.1729999
v -8.940697E-08 0.3031088 -0.001999736
v -8.940697E-08 0.2474872 -0.07448727
v -8.940697E-08 0.1749997 -0.1301088
v -0.04529375 0.3380738 0.0945496
v -8.940697E-08 0.3500002 0.1729999
v -0.0875003 0.3031088 0.02144513
v -8.940697E-08 0.0905866 -0.1650738
v -0.1237441 0.2474872 -0.04133061
v -0.07845041 0.3380738 0.1277071
v -8.940697E-08 0.3500002 0.1729999
v -0.1515549 0.3031088 0.08549967
v -0.1515549 0.1749997 -0.08949995
v -8.940697E-08 8.940697E-08 -0.1770002
v -0.0905866 0.3380738 0.1729999
v -8.940697E-08 0.3500002 0.1729999
v -0.2143306 0.2474872 0.04925591
v -0.1690369 0.0905866 -0.1197809
v -8.940697E-08 -0.09058642 -0.1650738
v -0.1749997 0.3031088 0.1729999
v -0.2625 0.1749997 0.02144513
v -0.1749997 8.940697E-08 -0.1301088
v -8.940697E-08 -0.1750004 -0.1301088
v -0.07845041 0.3380738 0.2182936
v -8.940697E-08 0.3500002 0.1729999
v -0.2474872 0.2474872 0.1729999
v -0.2927809 0.0905866 0.003963053
v -0.1690369 -0.09058642 -0.1197809
v -8.940697E-08 -0.2474871 -0.07448727
v -0.1515549 0.3031088 0.2605001
v -0.3031088 0.1749997 0.1729999
v -0.3031088 8.940697E-08 -0.001999736
v -0.1515549 -0.1750004 -0.08949995
v -8.940697E-08 -0.3031086 -0.001999736
v -0.04529375 0.3380738 0.2514502
v -8.940697E-08 0.3500002 0.1729999
v -0.3380738 0.0905866 0.1729999
v -0.2927809 -0.09058642 0.003963053
v -0.1237441 -0.2474871 -0.04133061
v -8.940697E-08 -0.3380744 0.08241338
v -8.940697E-08 -0.35 0.1729999
v -0.0875003 -0.3031086 0.02144513
v -0.2625 -0.1750004 0.02144513
v -0.3500002 8.940697E-08 0.1729999
v -0.04529375 -0.3380744 0.0945496
v -8.940697E-08 -0.35 0.1729999
v -0.2143306 -0.2474871 0.04925591
v -0.3380738 -0.09058642 0.1729999
v -0.1515549 -0.3031086 0.08549967
v -0.3031088 -0.1750004 0.1729999
v -0.07845041 -0.3380744 0.1277071
v -8.940697E-08 -0.35 0.1729999
v -0.2474872 -0.2474871 0.1729999
v -0.1749997 -0.3031086 0.1729999
v -0.0905866 -0.3380744 0.1729999
v -8.940697E-08 -0.35 0.1729999
v -0.3031088 8.940697E-08 0.3480004
v -0.2927809 -0.09058642 0.3420368
v -0.2625 -0.1750004 0.3245547
v -0.2143306 -0.2474871 0.2967439
v -0.1515549 -0.3031086 0.2605001
v -0.2927809 0.0905866 0.3420368
v -0.07845041 -0.3380744 0.2182936
v -8.940697E-08 -0.35 0.1729999
v -0.2625 0.1749997 0.3245547
v -0.2143306 0.2474872 0.2967439
v -0.0875003 0.3031088 0.3245547
v -0.1237441 0.2474872 0.3873304
v -0.1515549 0.1749997 0.4354998
v -8.940697E-08 0.3380738 0.2635864
v -8.940697E-08 0.3500002 0.1729999
v -8.940697E-08 0.3031088 0.3480004
v -0.1690369 0.0905866 0.4657808
v -8.940697E-08 0.2474872 0.4204871
v 0.0452936 0.3380738 0.2514502
v -8.940697E-08 0.3500002 0.1729999
v 0.08750015 0.3031088 0.3245547
v -8.940697E-08 0.1749997 0.4761086
v -0.1749997 8.940697E-08 0.4761086
v 0.07845023 0.3380738 0.2182936
v -8.940697E-08 0.3500002 0.1729999
v 0.1237439 0.2474872 0.3873304
v -8.940697E-08 0.0905866 0.5110736
v -0.1690369 -0.09058642 0.4657808
v 0.1515547 0.3031088 0.2605001
v 0.1515547 0.1749997 0.4354998
v -8.940697E-08 8.940697E-08 0.523
v -0.1515549 -0.1750004 0.4354998
v 0.09058642 0.3380738 0.1729999
v -8.940697E-08 0.3500002 0.1729999
v 0.2143304 0.2474872 0.2967439
v 0.1690368 0.0905866 0.4657808
v -8.940697E-08 -0.09058642 0.5110736
v -0.1237441 -0.2474871 0.3873304
v 0.1750004 0.3031088 0.1729999
v 0.2624997 0.1749997 0.3245547
v 0.1750004 8.940697E-08 0.4761086
v -8.940697E-08 -0.1750004 0.4761086
v -0.0875003 -0.3031086 0.3245547
v 0.07845023 0.3380738 0.1277071
v -8.940697E-08 0.3500002 0.1729999
v 0.1515547 0.3031088 0.08549967
v 0.2474871 0.2474872 0.1729999
v 0.2143304 0.2474872 0.04925591
v 0.3031086 0.1749997 0.1729999
v 0.2624997 0.1749997 0.02144513
v 0.2927808 0.0905866 0.3420368
v 0.3380744 0.0905866 0.1729999
v 0.2927808 0.0905866 0.003963053
v 0.3031086 8.940697E-08 0.3480004
v 0.35 8.940697E-08 0.1729999
v 0.3031086 8.940697E-08 -0.001999736
v 0.1690368 -0.09058642 0.4657808
v 0.2927808 -0.09058642 0.3420368
v 0.3380744 -0.09058642 0.1729999
v 0.2927808 -0.09058642 0.003963053
v 0.1515547 -0.1750004 0.4354998
v 0.2624997 -0.1750004 0.3245547
v 0.3031086 -0.1750004 0.1729999
v 0.2624997 -0.1750004 0.02144513
v -8.940697E-08 -0.2474871 0.4204871
v 0.1237439 -0.2474871 0.3873304
v 0.2143304 -0.2474871 0.2967439
v 0.2474871 -0.2474871 0.1729999
v 0.2143304 -0.2474871 0.04925591
v -8.940697E-08 -0.3031086 0.3480004
v 0.08750015 -0.3031086 0.3245547
v 0.1515547 -0.3031086 0.2605001
v 0.1750004 -0.3031086 0.1729999
v 0.1515547 -0.3031086 0.08549967
v -0.04529375 -0.3380744 0.2514502
v -8.940697E-08 -0.35 0.1729999
v -8.940697E-08 -0.3380744 0.2635864
v -8.940697E-08 -0.35 0.1729999
v 0.0452936 -0.3380744 0.2514502
v -8.940697E-08 -0.35 0.1729999
v 0.07845023 -0.3380744 0.2182936
v -8.940697E-08 -0.35 0.1729999
v 0.09058642 -0.3380744 0.1729999
v -8.940697E-08 -0.35 0.1729999
v 0.07845023 -0.3380744 0.1277071
v -8.940697E-08 -0.35 0.1729999
vt 0.9405904 0.2453274
vt 0.9384079 0.2357934
vt 0.9362254 0.2453274
vt 0.9405904 0.254023
vt 0.9362254 0.254023
vt 0.9405904 0.2624083
vt 0.9362254 0.2624083
vt 0.9405904 0.2714714
vt 0.9362254 0.2714714
vt 0.9405904 0.2810974
vt 0.9362254 0.2810974
vt 0.9405904 0.2913092
vt 0.9362254 0.2913092
vt 0.9405904 0.3021757
vt 0.9362254 0.3021757
vt 0.9405904 0.3127436
vt 0.9362254 0.3127436
vt 0.9405904 0.3224729
vt 0.9362254 0.3224729
vt 0.9405904 0.3320989
vt 0.9362254 0.3320989
vt 0.9405904 0.3417363
vt 0.9362254 0.3417363
vt 0.9384079 0.3513623
vt 0.9449554 0.3417363
vt 0.9427729 0.3513623
vt 0.9449554 0.3320989
vt 0.9449554 0.3224729
vt 0.9449554 0.3127436
vt 0.9493089 0.3417363
vt 0.9471264 0.3513623
vt 0.9493089 0.3320989
vt 0.9449554 0.3021757
vt 0.9493089 0.3224729
vt 0.9536739 0.3417363
vt 0.9514914 0.3513623
vt 0.9536739 0.3320989
vt 0.9493089 0.3127436
vt 0.9449554 0.2913092
vt 0.9580389 0.3417363
vt 0.9558564 0.3513623
vt 0.9536739 0.3224729
vt 0.9493089 0.3021757
vt 0.9449554 0.2810974
vt 0.9580389 0.3320989
vt 0.9536739 0.3127436
vt 0.9493089 0.2913092
vt 0.9449554 0.2714714
vt 0.9624039 0.3417363
vt 0.9602214 0.3513623
vt 0.9580389 0.3224729
vt 0.9536739 0.3021757
vt 0.9493089 0.2810974
vt 0.9449554 0.2624083
vt 0.9624039 0.3320989
vt 0.9580389 0.3127436
vt 0.9536739 0.2913092
vt 0.9493089 0.2714714
vt 0.9449554 0.254023
vt 0.9667689 0.3417363
vt 0.9645864 0.3513623
vt 0.9580389 0.3021757
vt 0.9536739 0.2810974
vt 0.9493089 0.2624083
vt 0.9449554 0.2453274
vt 0.9427729 0.2357934
vt 0.9493089 0.254023
vt 0.9536739 0.2714714
vt 0.9580389 0.2913092
vt 0.9493089 0.2453274
vt 0.9471264 0.2357934
vt 0.9536739 0.2624083
vt 0.9580389 0.2810974
vt 0.9536739 0.254023
vt 0.9580389 0.2714714
vt 0.9536739 0.2453274
vt 0.9514914 0.2357934
vt 0.9580389 0.2624083
vt 0.9580389 0.254023
vt 0.9580389 0.2453274
vt 0.9558564 0.2357934
vt 0.9624039 0.2913092
vt 0.9624039 0.2810974
vt 0.9624039 0.2714714
vt 0.9624039 0.2624083
vt 0.9624039 0.254023
vt 0.9624039 0.3021757
vt 0.9624039 0.2453274
vt 0.9602214 0.2357934
vt 0.9624039 0.3127436
vt 0.9624039 0.3224729
vt 0.9667689 0.3320989
vt 0.9667689 0.3224729
vt 0.9667689 0.3127436
vt 0.9711339 0.3417363
vt 0.9689514 0.3513623
vt 0.9711339 0.3320989
vt 0.9667689 0.3021757
vt 0.9711339 0.3224729
vt 0.9754874 0.3417363
vt 0.9733164 0.3513623
vt 0.9754874 0.3320989
vt 0.9711339 0.3127436
vt 0.9667689 0.2913092
vt 0.9798524 0.3417363
vt 0.9776699 0.3513623
vt 0.9754874 0.3224729
vt 0.9711339 0.3021757
vt 0.9667689 0.2810974
vt 0.9798524 0.3320989
vt 0.9754874 0.3127436
vt 0.9711339 0.2913092
vt 0.9667689 0.2714714
vt 0.9842173 0.3417363
vt 0.9820349 0.3513623
vt 0.9798524 0.3224729
vt 0.9754874 0.3021757
vt 0.9711339 0.2810974
vt 0.9667689 0.2624083
vt 0.9842173 0.3320989
vt 0.9798524 0.3127436
vt 0.9754874 0.2913092
vt 0.9711339 0.2714714
vt 0.9667689 0.254023
vt 0.9885824 0.3417363
vt 0.9863999 0.3513623
vt 0.9885824 0.3320989
vt 0.9842173 0.3224729
vt 0.9885824 0.3224729
vt 0.9842173 0.3127436
vt 0.9885824 0.3127436
vt 0.9798524 0.3021757
vt 0.9842173 0.3021757
vt 0.9885824 0.3021757
vt 0.9798524 0.2913092
vt 0.9842173 0.2913092
vt 0.9885824 0.2913092
vt 0.9754874 0.2810974
vt 0.9798524 0.2810974
vt 0.9842173 0.2810974
vt 0.9885824 0.2810974
vt 0.9754874 0.2714714
vt 0.9798524 0.2714714
vt 0.9842173 0.2714714
vt 0.9885824 0.2714714
vt 0.9711339 0.2624083
vt 0.9754874 0.2624083
vt 0.9798524 0.2624083
vt 0.9842173 0.2624083
vt 0.9885824 0.2624083
vt 0.9711339 0.254023
vt 0.9754874 0.254023
vt 0.9798524 0.254023
vt 0.9842173 0.254023
vt 0.9885824 0.254023
vt 0.9667689 0.2453274
vt 0.9645864 0.2357934
vt 0.9711339 0.2453274
vt 0.9689514 0.2357934
vt 0.9754874 0.2453274
vt 0.9733164 0.2357934
vt 0.9798524 0.2453274
vt 0.9776699 0.2357934
vt 0.9842173 0.2453274
vt 0.9820349 0.2357934
vt 0.9885824 0.2453274
vt 0.9863999 0.2357934
vn 0.1671553 -0.9433036 -0.2867707
vn -0.0009775162 -0.9999995 0
vn 0.2903224 -0.9433036 -0.1609076
vn 0.2707721 -0.8416418 -0.4672489
vn 0.4682305 -0.8416418 -0.2690711
vn 0.3646137 -0.6832842 -0.6325975
vn 0.6324533 -0.6832842 -0.3648638
vn 0.438905 -0.4819157 -0.7583665
vn 0.7595304 -0.4819157 -0.4368876
vn 0.4838707 -0.2492667 -0.8388892
vn 0.8396868 -0.2492667 -0.4824854
vn 0.499511 0.0009775162 -0.866307
vn 0.8651022 0.0009775162 -0.5015946
vn 0.4838707 0.2492667 -0.8388892
vn 0.8396868 0.2492667 -0.4824854
vn 0.438905 0.4819157 -0.7583665
vn 0.7595304 0.4819157 -0.4368876
vn 0.3646137 0.6832842 -0.6325975
vn 0.6324533 0.6832842 -0.3648638
vn 0.2707721 0.8416418 -0.4672489
vn 0.4682305 0.8416418 -0.2690712
vn 0.1671553 0.9433036 -0.2867707
vn 0.2903224 0.9433036 -0.1609076
vn -0.0009775162 0.9999995 0
vn -0.0009775162 0.9433036 -0.3319298
vn -0.0009775162 0.9999995 0
vn -0.0009775162 0.8416418 -0.5400353
vn -0.0009775162 0.6832842 -0.7301519
vn -0.0009775162 0.4819157 -0.876217
vn -0.1671554 0.9433036 -0.2867707
vn -0.0009775162 0.9999995 0
vn -0.2707721 0.8416418 -0.4672489
vn -0.0009775162 0.2492667 -0.9684344
vn -0.3646137 0.6832842 -0.6325976
vn -0.2903224 0.9433036 -0.1609076
vn -0.0009775162 0.9999995 0
vn -0.4682305 0.8416418 -0.2690712
vn -0.438905 0.4819157 -0.7583665
vn -0.0009775162 0.0009775162 -0.999999
vn -0.3352882 0.9413486 -0.03800996
vn -0.0009775162 0.9999995 0
vn -0.6324533 0.6832842 -0.3648637
vn -0.4838707 0.2492667 -0.8388892
vn -0.0009775162 -0.2492667 -0.9684344
vn -0.5404118 0.8414006 0
vn -0.7595304 0.4819157 -0.4368876
vn -0.499511 0.0009775162 -0.866307
vn -0.0009775162 -0.4819157 -0.876217
vn -0.2903224 0.9433036 0.1609076
vn -0.0009775162 0.9999995 0
vn -0.730177 0.683258 0
vn -0.8396868 0.2492667 -0.4824855
vn -0.4838707 -0.2492667 -0.8388892
vn -0.0009775162 -0.6832842 -0.7301519
vn -0.4682305 0.8416418 0.2690712
vn -0.8763603 0.4816563 0
vn -0.8651022 0.0009775162 -0.5015947
vn -0.438905 -0.4819157 -0.7583665
vn -0.0009775162 -0.8416418 -0.5400352
vn -0.1671554 0.9433036 0.2867707
vn -0.0009775162 0.9999995 0
vn -0.9684524 0.2491982 0
vn -0.8396868 -0.2492667 -0.4824855
vn -0.3646137 -0.6832842 -0.6325976
vn -0.0009775162 -0.9433036 -0.3319298
vn -0.0009775162 -0.9999995 0
vn -0.2707721 -0.8416418 -0.4672489
vn -0.7595304 -0.4819157 -0.4368876
vn -0.9999995 0.0009775162 0
vn -0.1671554 -0.9433036 -0.2867707
vn -0.0009775162 -0.9999995 0
vn -0.6324533 -0.6832842 -0.3648637
vn -0.9684524 -0.2491982 0
vn -0.4682305 -0.8416418 -0.2690711
vn -0.8763603 -0.4816563 0
vn -0.2903224 -0.9433036 -0.1609076
vn -0.0009775162 -0.9999995 0
vn -0.730177 -0.683258 0
vn -0.5404118 -0.8414007 0
vn -0.3352882 -0.9413486 -0.03800996
vn -0.0009775162 -0.9999995 0
vn -0.8651022 0.0009775162 0.5015947
vn -0.8396868 -0.2492667 0.4824855
vn -0.7595304 -0.4819157 0.4368876
vn -0.6324533 -0.6832842 0.3648637
vn -0.4682305 -0.8416418 0.2690711
vn -0.8396868 0.2492667 0.4824855
vn -0.2903224 -0.9433036 0.1609076
vn -0.0009775162 -0.9999995 0
vn -0.7595304 0.4819157 0.4368876
vn -0.6324533 0.6832842 0.3648637
vn -0.2707721 0.8416418 0.4672489
vn -0.3646137 0.6832842 0.6325976
vn -0.438905 0.4819157 0.7583665
vn -0.0009775162 0.9433036 0.3319298
vn -0.0009775162 0.9999995 0
vn -0.0009775162 0.8416418 0.5400353
vn -0.4838707 0.2492667 0.8388892
vn -0.0009775162 0.6832842 0.7301519
vn 0.1671553 0.9433036 0.2867707
vn -0.0009775162 0.9999995 0
vn 0.2707721 0.8416418 0.4672489
vn -0.0009775162 0.4819157 0.876217
vn -0.499511 0.0009775162 0.866307
vn 0.2903224 0.9433036 0.1609076
vn -0.0009775162 0.9999995 0
vn 0.3646137 0.6832842 0.6325975
vn -0.0009775162 0.2492667 0.9684344
vn -0.4838707 -0.2492667 0.8388892
vn 0.4682305 0.8416418 0.2690712
vn 0.438905 0.4819157 0.7583665
vn -0.0009775162 0.0009775162 0.999999
vn -0.438905 -0.4819157 0.7583665
vn 0.3352882 0.9413486 -0.03800996
vn -0.0009775162 0.9999995 0
vn 0.6324533 0.6832842 0.3648638
vn 0.4838707 0.2492667 0.8388892
vn -0.0009775162 -0.2492667 0.9684344
vn -0.3646137 -0.6832842 0.6325976
vn 0.5404118 0.8414006 0
vn 0.7595304 0.4819157 0.4368876
vn 0.499511 0.0009775162 0.866307
vn -0.0009775162 -0.4819157 0.876217
vn -0.2707721 -0.8416418 0.4672489
vn 0.2903224 0.9433036 -0.1609076
vn -0.0009775162 0.9999995 0
vn 0.4682305 0.8416418 -0.2690712
vn 0.730177 0.683258 0
vn 0.6324533 0.6832842 -0.3648638
vn 0.8763602 0.4816562 0
vn 0.7595304 0.4819157 -0.4368876
vn 0.8396868 0.2492667 0.4824854
vn 0.9684524 0.2491982 0
vn 0.8396868 0.2492667 -0.4824854
vn 0.8651022 0.0009775162 0.5015946
vn 0.9999995 0.0009775162 0
vn 0.8651022 0.0009775162 -0.5015946
vn 0.4838707 -0.2492667 0.8388892
vn 0.8396868 -0.2492667 0.4824854
vn 0.9684524 -0.2491982 0
vn 0.8396868 -0.2492667 -0.4824854
vn 0.438905 -0.4819157 0.7583665
vn 0.7595304 -0.4819157 0.4368876
vn 0.8763602 -0.4816562 0
vn 0.7595304 -0.4819157 -0.4368876
vn -0.0009775162 -0.6832842 0.7301519
vn 0.3646137 -0.6832842 0.6325975
vn 0.6324533 -0.6832842 0.3648638
vn 0.730177 -0.683258 0
vn 0.6324533 -0.6832842 -0.3648638
vn -0.0009775162 -0.8416418 0.5400352
vn 0.2707721 -0.8416418 0.4672489
vn 0.4682305 -0.8416418 0.2690711
vn 0.5404118 -0.8414007 0
vn 0.4682305 -0.8416418 -0.2690711
vn -0.1671554 -0.9433036 0.2867707
vn -0.0009775162 -0.9999995 0
vn -0.0009775162 -0.9433036 0.3319298
vn -0.0009775162 -0.9999995 0
vn 0.1671553 -0.9433036 0.2867707
vn -0.0009775162 -0.9999995 0
vn 0.2903224 -0.9433036 0.1609076
vn -0.0009775162 -0.9999995 0
vn 0.3352882 -0.9413486 -0.03800996
vn -0.0009775162 -0.9999995 0
vn 0.2903224 -0.9433036 -0.1609076
vn -0.0009775162 -0.9999995 0
g shanghai_ball_0
f 3/3/3 2/2/2 1/1/1
f 1/1/1 4/4/4 3/3/3
f 4/4/4 5/5/5 3/3/3
f 4/4/4 6/6/6 5/5/5
f 6/6/6 7/7/7 5/5/5
f 6/6/6 8/8/8 7/7/7
f 8/8/8 9/9/9 7/7/7
f 8/8/8 10/10/10 9/9/9
f 10/10/10 11/11/11 9/9/9
f 10/10/10 12/12/12 11/11/11
f 12/12/12 13/13/13 11/11/11
f 12/12/12 14/14/14 13/13/13
f 14/14/14 15/15/15 13/13/13
f 14/14/14 16/16/16 15/15/15
f 16/16/16 17/17/17 15/15/15
f 16/16/16 18/18/18 17/17/17
f 18/18/18 19/19/19 17/17/17
f 18/18/18 20/20/20 19/19/19
f 20/20/20 21/21/21 19/19/19
f 20/20/20 22/22/22 21/21/21
f 22/22/22 23/23/23 21/21/21
f 22/22/22 24/24/24 23/23/23
f 25/25/25 22/22/22 20/20/20
f 25/25/25 26/26/26 22/22/22
f 27/27/27 20/20/20 18/18/18
f 27/27/27 25/25/25 20/20/20
f 28/28/28 18/18/18 16/16/16
f 28/28/28 27/27/27 18/18/18
f 29/29/29 16/16/16 14/14/14
f 29/29/29 28/28/28 16/16/16
f 30/30/30 25/25/25 27/27/27
f 30/30/30 31/31/31 25/25/25
f 32/32/32 27/27/27 28/28/28
f 32/32/32 30/30/30 27/27/27
f 33/33/33 29/29/29 14/14/14
f 33/33/33 14/14/14 12/12/12
f 34/34/34 28/28/28 29/29/29
f 34/34/34 32/32/32 28/28/28
f 35/35/35 30/30/30 32/32/32
f 35/35/35 36/36/36 30/30/30
f 37/37/37 35/35/35 32/32/32
f 37/37/37 32/32/32 34/34/34
f 38/38/38 34/34/34 29/29/29
f 38/38/38 29/29/29 33/33/33
f 39/39/39 33/33/33 12/12/12
f 39/39/39 12/12/12 10/10/10
f 40/40/40 35/35/35 37/37/37
f 40/40/40 41/41/41 35/35/35
f 42/42/42 37/37/37 34/34/34
f 42/42/42 34/34/34 38/38/38
f 43/43/43 38/38/38 33/33/33
f 43/43/43 33/33/33 39/39/39
f 44/44/44 39/39/39 10/10/10
f 44/44/44 10/10/10 8/8/8
f 45/45/45 40/40/40 37/37/37
f 45/45/45 37/37/37 42/42/42
f 46/46/46 42/42/42 38/38/38
f 46/46/46 38/38/38 43/43/43
f 47/47/47 43/43/43 39/39/39
f 47/47/47 39/39/39 44/44/44
f 48/48/48 44/44/44 8/8/8
f 48/48/48 8/8/8 6/6/6
f 49/49/49 40/40/40 45/45/45
f 49/49/49 50/50/50 40/40/40
f 51/51/51 45/45/45 42/42/42
f 51/51/51 42/42/42 46/46/46
f 52/52/52 46/46/46 43/43/43
f 52/52/52 43/43/43 47/47/47
f 53/53/53 47/47/47 44/44/44
f 53/53/53 44/44/44 48/48/48
f 54/54/54 48/48/48 6/6/6
f 54/54/54 6/6/6 4/4/4
f 55/55/55 49/49/49 45/45/45
f 55/55/55 45/45/45 51/51/51
f 56/56/56 51/51/51 46/46/46
f 56/56/56 46/46/46 52/52/52
f 57/57/57 52/52/52 47/47/47
f 57/57/57 47/47/47 53/53/53
f 58/58/58 53/53/53 48/48/48
f 58/58/58 48/48/48 54/54/54
f 59/59/59 54/54/54 4/4/4
f 59/59/59 4/4/4 1/1/1
f 60/60/60 49/49/49 55/55/55
f 60/60/60 61/61/61 49/49/49
f 62/62/62 56/56/56 52/52/52
f 62/62/62 52/52/52 57/57/57
f 63/63/63 57/57/57 53/53/53
f 63/63/63 53/53/53 58/58/58
f 64/64/64 58/58/58 54/54/54
f 64/64/64 54/54/54 59/59/59
f 65/65/65 59/59/59 1/1/1
f 1/1/1 66/66/66 65/65/65
f 67/67/67 59/59/59 65/65/65
f 67/67/67 64/64/64 59/59/59
f 68/68/68 58/58/58 64/64/64
f 68/68/68 63/63/63 58/58/58
f 69/69/69 57/57/57 63/63/63
f 69/69/69 62/62/62 57/57/57
f 70/70/70 67/67/67 65/65/65
f 65/65/65 71/71/71 70/70/70
f 72/72/72 64/64/64 67/67/67
f 72/72/72 68/68/68 64/64/64
f 73/73/73 63/63/63 68/68/68
f 73/73/73 69/69/69 63/63/63
f 74/74/74 67/67/67 70/70/70
f 74/74/74 72/72/72 67/67/67
f 75/75/75 68/68/68 72/72/72
f 75/75/75 73/73/73 68/68/68
f 76/76/76 74/74/74 70/70/70
f 70/70/70 77/77/77 76/76/76
f 78/78/78 72/72/72 74/74/74
f 78/78/78 75/75/75 72/72/72
f 79/79/79 74/74/74 76/76/76
f 79/79/79 78/78/78 74/74/74
f 80/80/80 79/79/79 76/76/76
f 76/76/76 81/81/81 80/80/80
f 82/82/82 69/69/69 73/73/73
f 83/83/83 73/73/73 75/75/75
f 83/83/83 82/82/82 73/73/73
f 84/84/84 75/75/75 78/78/78
f 84/84/84 83/83/83 75/75/75
f 85/85/85 78/78/78 79/79/79
f 85/85/85 84/84/84 78/78/78
f 86/86/86 79/79/79 80/80/80
f 86/86/86 85/85/85 79/79/79
f 82/82/82 87/87/87 69/69/69
f 87/87/87 62/62/62 69/69/69
f 88/88/88 86/86/86 80/80/80
f 80/80/80 89/89/89 88/88/88
f 87/87/87 90/90/90 62/62/62
f 90/90/90 56/56/56 62/62/62
f 90/90/90 91/91/91 56/56/56
f 91/91/91 51/51/51 56/56/56
f 91/91/91 55/55/55 51/51/51
f 92/92/92 55/55/55 91/91/91
f 92/92/92 60/60/60 55/55/55
f 93/93/93 91/91/91 90/90/90
f 93/93/93 92/92/92 91/91/91
f 94/94/94 90/90/90 87/87/87
f 94/94/94 93/93/93 90/90/90
f 95/95/95 60/60/60 92/92/92
f 95/95/95 96/96/96 60/60/60
f 97/97/97 92/92/92 93/93/93
f 97/97/97 95/95/95 92/92/92
f 98/98/98 94/94/94 87/87/87
f 98/98/98 87/87/87 82/82/82
f 99/99/99 93/93/93 94/94/94
f 99/99/99 97/97/97 93/93/93
f 100/100/100 95/95/95 97/97/97
f 100/100/100 101/101/101 95/95/95
f 102/102/102 100/100/100 97/97/97
f 102/102/102 97/97/97 99/99/99
f 103/103/103 99/99/99 94/94/94
f 103/103/103 94/94/94 98/98/98
f 104/104/104 98/98/98 82/82/82
f 104/104/104 82/82/82 83/83/83
f 105/105/105 100/100/100 102/102/102
f 105/105/105 106/106/106 100/100/100
f 107/107/107 102/102/102 99/99/99
f 107/107/107 99/99/99 103/103/103
f 108/108/108 103/103/103 98/98/98
f 108/108/108 98/98/98 104/104/104
f 109/109/109 104/104/104 83/83/83
f 109/109/109 83/83/83 84/84/84
f 110/110/110 105/105/105 102/102/102
f 110/110/110 102/102/102 107/107/107
f 111/111/111 107/107/107 103/103/103
f 111/111/111 103/103/103 108/108/108
f 112/112/112 108/108/108 104/104/104
f 112/112/112 104/104/104 109/109/109
f 113/113/113 109/109/109 84/84/84
f 113/113/113 84/84/84 85/85/85
f 114/114/114 105/105/105 110/110/110
f 114/114/114 115/115/115 105/105/105
f 116/116/116 110/110/110 107/107/107
f 116/116/116 107/107/107 111/111/111
f 117/117/117 111/111/111 108/108/108
f 117/117/117 108/108/108 112/112/112
f 118/118/118 112/112/112 109/109/109
f 118/118/118 109/109/109 113/113/113
f 119/119/119 113/113/113 85/85/85
f 119/119/119 85/85/85 86/86/86
f 120/120/120 114/114/114 110/110/110
f 120/120/120 110/110/110 116/116/116
f 121/121/121 116/116/116 111/111/111
f 121/121/121 111/111/111 117/117/117
f 122/122/122 117/117/117 112/112/112
f 122/122/122 112/112/112 118/118/118
f 123/123/123 118/118/118 113/113/113
f 123/123/123 113/113/113 119/119/119
f 124/124/124 119/119/119 86/86/86
f 124/124/124 86/86/86 88/88/88
f 125/125/125 114/114/114 120/120/120
f 125/125/125 126/126/126 114/114/114
f 127/127/127 125/125/125 120/120/120
f 127/127/127 120/120/120 128/128/128
f 128/128/128 120/120/120 116/116/116
f 129/129/129 127/127/127 128/128/128
f 128/128/128 116/116/116 121/121/121
f 129/129/129 128/128/128 130/130/130
f 130/130/130 128/128/128 121/121/121
f 131/131/131 129/129/129 130/130/130
f 130/130/130 121/121/121 132/132/132
f 132/132/132 121/121/121 117/117/117
f 132/132/132 117/117/117 122/122/122
f 131/131/131 130/130/130 133/133/133
f 133/133/133 130/130/130 132/132/132
f 134/134/134 131/131/131 133/133/133
f 135/135/135 132/132/132 122/122/122
f 133/133/133 132/132/132 135/135/135
f 134/134/134 133/133/133 136/136/136
f 136/136/136 133/133/133 135/135/135
f 137/137/137 134/134/134 136/136/136
f 135/135/135 122/122/122 138/138/138
f 138/138/138 122/122/122 118/118/118
f 138/138/138 118/118/118 123/123/123
f 136/136/136 135/135/135 139/139/139
f 139/139/139 135/135/135 138/138/138
f 137/137/137 136/136/136 140/140/140
f 140/140/140 136/136/136 139/139/139
f 141/141/141 137/137/137 140/140/140
f 142/142/142 138/138/138 123/123/123
f 139/139/139 138/138/138 142/142/142
f 140/140/140 139/139/139 143/143/143
f 143/143/143 139/139/139 142/142/142
f 141/141/141 140/140/140 144/144/144
f 144/144/144 140/140/140 143/143/143
f 145/145/145 141/141/141 144/144/144
f 142/142/142 123/123/123 146/146/146
f 146/146/146 123/123/123 119/119/119
f 146/146/146 119/119/119 124/124/124
f 143/143/143 142/142/142 147/147/147
f 147/147/147 142/142/142 146/146/146
f 144/144/144 143/143/143 148/148/148
f 148/148/148 143/143/143 147/147/147
f 145/145/145 144/144/144 149/149/149
f 149/149/149 144/144/144 148/148/148
f 150/150/150 145/145/145 149/149/149
f 151/151/151 146/146/146 124/124/124
f 147/147/147 146/146/146 151/151/151
f 148/148/148 147/147/147 152/152/152
f 152/152/152 147/147/147 151/151/151
f 149/149/149 148/148/148 153/153/153
f 153/153/153 148/148/148 152/152/152
f 150/150/150 149/149/149 154/154/154
f 154/154/154 149/149/149 153/153/153
f 155/155/155 150/150/150 154/154/154
f 151/151/151 124/124/124 156/156/156
f 156/156/156 124/124/124 88/88/88
f 88/88/88 157/157/157 156/156/156
f 158/158/158 151/151/151 156/156/156
f 152/152/152 151/151/151 158/158/158
f 156/156/156 159/159/159 158/158/158
f 160/160/160 152/152/152 158/158/158
f 153/153/153 152/152/152 160/160/160
f 158/158/158 161/161/161 160/160/160
f 162/162/162 153/153/153 160/160/160
f 154/154/154 153/153/153 162/162/162
f 160/160/160 163/163/163 162/162/162
f 155/155/155 154/154/154 164/164/164
f 164/164/164 154/154/154 162/162/162
f 162/162/162 165/165/165 164/164/164
f 166/166/166 155/155/155 164/164/164
f 164/164/164 167/167/167 166/166/166
