g shield_mesh_new
v -0.7770996 0.3870475 1.962883
v 0.6052783 0.009646654 2.122694
v -0.8395286 0.009646654 2.017846
v 0.6475611 0.3870475 1.99698
v 1.656134 0.3870475 1.27073
v 1.578492 0.009646654 1.344089
v 2.052249 0.009646654 0.09647632
v 2.075673 0.3870475 0.1769159
v 1.8246 0.3870475 -1.187406
v 1.701596 0.009646654 -1.361176
v 0.9065061 0.009646654 -1.981167
v 0.8543612 0.3870475 -1.92298
v -0.4317348 0.009646654 -2.188435
v -0.442023 0.3870475 -2.117526
v -1.675428 0.3870475 -1.292548
v -1.793619 0.009646654 -1.334707
v -2.151076 0.009646654 0.04684758
v -2.030377 0.3870475 0.0439713
v -1.732005 0.009646654 1.334847
v -1.652327 0.3870475 1.30145
v -0.8395286 0.009646654 2.017846
v -0.7770996 0.3870475 1.962883
v 0.6475611 0.3870475 1.99698
v -0.7770996 0.3870475 1.962883
v -0.484484 0.3869812 1.475692
v 0.6160424 0.3869812 1.59188
v 1.656134 0.3870475 1.27073
v 1.359045 0.3869812 0.9639316
v 2.075673 0.3870475 0.1769159
v 1.641927 0.3869812 0.116014
v 1.8246 0.3870475 -1.187406
v 1.404138 0.3869812 -0.970156
v 0.8543612 0.3870475 -1.92298
v 0.6998839 0.3869812 -1.643231
v -0.442023 0.3870475 -2.117526
v -0.2752173 0.3869812 -1.741814
v -1.675428 0.3870475 -1.292548
v -1.477236 0.3869812 -1.023369
v -2.030377 0.3870475 0.0439713
v -1.691973 0.3869812 0.01056123
v -1.652327 0.3870475 1.30145
v -1.364897 0.3869812 0.9988396
v -0.7770996 0.3870475 1.962883
v 1.756414 0.4378805 0.5507245
v 1.643541 0.4378805 0.4378514
v 1.723352 0.4378805 0.4709139
v 1.643541 0.4771879 0.5507245
v 1.530668 0.4378805 0.5507245
v 1.563726 0.4378805 0.4709139
v 1.643541 0.4378805 0.6635976
v 1.723352 0.4378805 0.6305394
v 1.563726 0.4378805 0.6305394
v -0.7585592 0.4357285 -1.773572
v -0.8567116 0.4357285 -1.675424
v -0.8279614 0.4357285 -1.744826
v -0.7585592 0.4699123 -1.675424
v -0.7585592 0.4357285 -1.577276
v -0.8279614 0.4357285 -1.606022
v -0.6604109 0.4357285 -1.675424
v -0.6891568 0.4357285 -1.744826
v -0.6891568 0.4357285 -1.606022
v -1.907051 0.4351573 0.06112528
v -1.783662 0.4351573 0.1845143
v -1.870909 0.4351573 0.1483769
v -1.783662 0.4679673 0.06112528
v -1.660269 0.4351573 0.06112528
v -1.69641 0.4351573 0.1483769
v -1.783662 0.4351573 -0.06226349
v -1.870909 0.4351573 -0.02612233
v -1.69641 0.4351573 -0.02612233
v -0.3454599 0.4416838 1.83711
v -0.2065763 0.4416838 1.698227
v -0.2472537 0.4416838 1.796429
v -0.3454599 0.490046 1.698227
v -0.3454599 0.4416838 1.559343
v -0.2472537 0.4416838 1.600021
v -0.4843433 0.4416838 1.698227
v -0.443666 0.4416838 1.796429
v -0.443666 0.4416838 1.600021
v 1.313601 0.4351573 -1.193473
v 1.436989 0.4351573 -1.070084
v 1.349742 0.4351573 -1.106225
v 1.436989 0.4679673 -1.193473
v 1.560378 0.4351573 -1.193473
v 1.524241 0.4351573 -1.106225
v 1.436989 0.4351573 -1.316866
v 1.349742 0.4351573 -1.280724
v 1.524241 0.4351573 -1.280724
v -0.2327607 0.2798815 -1.608604
v -1.583603 0.2798815 -0.00417161
v -1.370744 0.2798815 -0.9828984
v 0.01114917 0.2798815 -0.07503486
v 0.4750111 0.2798815 1.465392
v -0.4665313 0.2798815 1.39188
v 1.539342 0.2798815 0.08425522
v 1.253535 0.2798815 0.9178743
v -1.583603 0.2798815 -0.00417161
v -0.4665313 0.2798815 1.39188
v -1.290657 0.2798815 0.9837425
v 0.01114917 0.2798815 -0.07503486
v 0.6003369 0.2798815 -1.495255
v -0.2327607 0.2798815 -1.608604
v 1.539342 0.2798815 0.08425522
v 1.278109 0.2798815 -0.9876949
v -2.151076 0.009646654 0.04684758
v -0.4317348 0.009646654 -2.188435
v -1.793619 0.009646654 -1.334707
v -1.732005 0.009646654 1.334847
v 0.9065061 0.009646654 -1.981167
v -0.8395286 0.009646654 2.017846
v 1.701596 0.009646654 -1.361176
v 0.6052783 0.009646654 2.122694
v 2.052249 0.009646654 0.09647632
v 1.578492 0.009646654 1.344089
v -0.484484 0.3869812 1.475692
v -0.4665313 0.2798815 1.39188
v 0.4750111 0.2798815 1.465392
v -1.290657 0.2798815 0.9837425
v 0.6160424 0.3869812 1.59188
v -1.364897 0.3869812 0.9988396
v 1.359045 0.3869812 0.9639316
v 1.253535 0.2798815 0.9178743
v -1.583603 0.2798815 -0.00417161
v -1.691973 0.3869812 0.01056123
v 1.641927 0.3869812 0.116014
v 1.539342 0.2798815 0.08425522
v -1.477236 0.3869812 -1.023369
v -1.370744 0.2798815 -0.9828984
v -0.2327607 0.2798815 -1.608604
v -0.2752173 0.3869812 -1.741814
v 0.6003369 0.2798815 -1.495255
v 0.6998839 0.3869812 -1.643231
v 1.278109 0.2798815 -0.9876949
v 1.404138 0.3869812 -0.970156
v -0.09891796 0.2474108 0.49459
v -0.08322072 0.5414088 0.3617282
v 0.261813 0.2474108 0.4232965
v -0.3080604 0.5414088 0.2066178
v 0.1760347 0.5414088 0.2799187
v -0.4150734 0.5414088 -0.103756
v -0.03147316 0.7012577 -0.05428457
v -0.4238386 0.2474108 0.3181334
v -0.577724 0.2474108 -0.1193748
v -0.274071 0.5414088 -0.3796439
v 0.5173644 0.2474108 0.04531217
v -0.3812206 0.2474108 -0.510838
v 0.0162189 0.5414088 -0.4621778
v 0.03643942 0.2474108 -0.6260037
v 0.3084123 0.5414088 -0.3182288
v 0.4501803 0.2474108 -0.4140431
v 0.3524251 0.5414088 0.008798361
vt 0.1215259 0.6124856
vt 0.1037357 0.6150976
vt 0.1196686 0.61755
vt 0.1053173 0.6079438
vt 0.09148851 0.604229
vt 0.08941346 0.6123405
vt 0.07356762 0.6091191
vt 0.07665843 0.5991647
vt 0.05065501 0.5900519
vt 0.04686768 0.6019943
vt 0.05667701 0.6054624
vt 0.0604208 0.5941149
vt 0.06841628 0.6093803
vt 0.07236323 0.5981489
vt 0.08786079 0.602952
vt 0.0839864 0.6139802
vt 0.09714773 0.6177241
vt 0.1009931 0.6074504
vt 0.1104977 0.6199007
vt 0.1142705 0.61028
vt 0.1185222 0.621758
vt 0.1221209 0.6113248
vt 0.1053173 0.6079438
vt 0.1215259 0.6124856
vt 0.1155765 0.632322
vt 0.09960006 0.6291731
vt 0.09148851 0.604229
vt 0.08594537 0.6245297
vt 0.07665843 0.5991647
vt 0.07015757 0.6211776
vt 0.05065501 0.5900519
vt 0.04464752 0.6128484
vt 0.0604208 0.5941149
vt 0.05415212 0.616926
vt 0.07236323 0.5981489
vt 0.0659059 0.6205537
vt 0.08786079 0.602952
vt 0.08125837 0.6246603
vt 0.1009931 0.6074504
vt 0.09462285 0.6279832
vt 0.1142705 0.61028
vt 0.1079003 0.6312772
vt 0.1221209 0.6113248
vt 0.6414348 0.1486032
vt 0.6478485 0.1354999
vt 0.6427117 0.1368204
vt 0.6492996 0.1495464
vt 0.6571645 0.1504896
vt 0.6538416 0.1374588
vt 0.6507652 0.1613437
vt 0.6447722 0.1572226
vt 0.6559021 0.1585576
vt 0.6439306 0.1362399
vt 0.6520277 0.1504025
vt 0.64914 0.1379377
vt 0.6451931 0.1495754
vt 0.6464555 0.1598201
vt 0.6509249 0.1573967
vt 0.6383585 0.1487483
vt 0.6394613 0.1374008
vt 0.6412461 0.1562359
vt 0.6580352 0.149706
vt 0.6510264 0.1615468
vt 0.6566421 0.1585141
vt 0.6494302 0.1486757
vt 0.6408398 0.1476454
vt 0.644482 0.1570485
vt 0.6478341 0.1345567
vt 0.654393 0.1367043
vt 0.6422328 0.1360078
vt 0.6504605 0.1652761
vt 0.638997 0.1496189
vt 0.6431035 0.1602118
vt 0.6486757 0.1507798
vt 0.6468763 0.1347888
vt 0.6405641 0.1364286
vt 0.6583544 0.1519407
vt 0.6567872 0.1618516
vt 0.6542478 0.1371976
vt 0.6562939 0.1510265
vt 0.6492851 0.1628673
vt 0.6549008 0.1598201
vt 0.6476889 0.1499817
vt 0.639084 0.1489514
vt 0.6427407 0.158369
vt 0.6460928 0.1351952
vt 0.6526371 0.1373282
vt 0.6404771 0.1366317
vt 0.6427262 0.05496473
vt 0.6409994 0.0529187
vt 0.6412752 0.05416663
vt 0.6430455 0.05300576
vt 0.6436404 0.05103229
vt 0.642436 0.05113387
vt 0.6449899 0.05280261
vt 0.6446272 0.05174332
vt 0.6531305 0.04334155
vt 0.6548283 0.04122296
vt 0.6535803 0.04184693
vt 0.6555538 0.04344312
vt 0.6564389 0.04560524
vt 0.6551765 0.04576486
vt 0.6578611 0.04321095
vt 0.6574692 0.04483616
vt 0.04010563 0.9692201
vt 0.05690918 0.9910734
vt 0.04360274 0.9827297
vt 0.04419769 0.9566392
vt 0.06998345 0.9890419
vt 0.0529187 0.9499642
vt 0.07776126 0.9829909
vt 0.06703775 0.948934
vt 0.08118581 0.9687412
vt 0.07655685 0.9565521
vt 0.1155765 0.632322
vt 0.1175355 0.6276059
vt 0.1010221 0.6245441
vt 0.1091627 0.6266047
vt 0.09960006 0.6291731
vt 0.1079003 0.6312772
vt 0.08594537 0.6245297
vt 0.08726585 0.6197846
vt 0.09588529 0.6231946
vt 0.09462285 0.6279832
vt 0.07015757 0.6211776
vt 0.07173926 0.6158957
vt 0.08125837 0.6246603
vt 0.08266592 0.6197556
vt 0.06729894 0.6154894
vt 0.0659059 0.6205537
vt 0.05548712 0.6118907
vt 0.05415212 0.616926
vt 0.04596801 0.6077842
vt 0.04464752 0.6128484
vt 0.651099 0.1640572
vt 0.6504315 0.1607632
vt 0.6449754 0.1615904
vt 0.6536529 0.1573967
vt 0.6459476 0.1582529
vt 0.6544655 0.1499962
vt 0.6483274 0.1504606
vt 0.6558875 0.1603569
vt 0.6570774 0.1499237
vt 0.6513166 0.1379667
vt 0.6396354 0.1518246
vt 0.6526662 0.1365301
vt 0.6423054 0.1353257
vt 0.6454833 0.1348034
vt 0.6419572 0.1381409
vt 0.6393452 0.1368929
vt 0.6422328 0.1512441
vn -0.2785922 0.2336265 0.9315605
vn 0.2238513 0.2003909 0.9537998
vn -0.3137828 0.2316715 0.9207978
vn 0.3040076 0.1847507 0.9345836
vn 0.8279566 -0.02834797 0.5600752
vn 0.7712606 0.01270771 0.6363926
vn 0.9917739 -0.1280023 0
vn 0.9882693 -0.1280547 0.08322087
vn 0.9159331 -0.03225803 -0.4000325
vn 0.8064512 0.06549358 -0.5876623
vn 0.3743889 0.1867057 -0.9082808
vn 0.3548386 0.1867057 -0.9160953
vn -0.2179862 0.202346 -0.9547451
vn -0.2453567 0.202346 -0.9480802
vn -0.7595304 0.264907 -0.5940857
vn -0.7829908 0.2707721 -0.560007
vn -0.9563895 0.2920944 0
vn -0.9563895 0.2920944 0
vn -0.8142713 0.2453567 0.526082
vn -0.8044962 0.2434016 0.5417947
vn -0.3137828 0.2316715 0.9207978
vn -0.2785922 0.2336265 0.9315605
vn -0.0009775162 0.9999995 0
vn 0.0009775162 0.9999995 0
vn 0.0009775162 0.9999995 0
vn -0.0009775162 0.9999995 0
vn -0.0009775162 0.9999995 0
vn -0.0009775162 0.9999995 0
vn -0.0009775162 0.9999995 0
vn -0.0009775162 0.9999995 0
vn -0.0009775162 0.9999995 0
vn -0.0009775162 0.9999995 0
vn -0.0009775162 0.9999995 0
vn -0.0009775162 0.9999995 0
vn 0.0009775162 0.9999995 0
vn 0.0009775162 0.9999995 0
vn 0.0009775162 0.9999995 0
vn 0.0009775162 0.9999995 0
vn 0.0009775162 0.9999995 0
vn 0.0009775162 0.9999995 0
vn 0.0009775162 0.9999995 0
vn 0.0009775162 0.9999995 0
vn 0.0009775162 0.9999995 0
vn 0.2802624 0.9599233 0
vn -0.0009775162 0.9608989 -0.2768978
vn -0.0009775162 0.9999995 0
vn -0.0009775162 0.9999995 0
vn -0.2802624 0.9599233 0
vn -0.0009775162 0.9999995 0
vn -0.0009775162 0.9608989 0.2768978
vn -0.0009775162 0.9999995 0
vn -0.0009775162 0.9999995 0
vn -0.0009775162 0.9608989 -0.2768978
vn -0.2802624 0.9599233 0
vn -0.0009775162 0.9999995 0
vn -0.0009775162 0.9999995 0
vn -0.0009775162 0.9608989 0.2768978
vn -0.0009775162 0.9999995 0
vn 0.2802624 0.9599233 0
vn -0.0009775162 0.9999995 0
vn -0.0009775162 0.9999995 0
vn -0.215999 0.9763936 0
vn -0.0009775162 0.9765391 0.2153378
vn -0.0009775162 0.9999995 0
vn -0.0009775162 0.9999995 0
vn 0.215999 0.9763936 0
vn -0.0009775162 0.9999995 0
vn -0.0009775162 0.9765391 -0.2153378
vn -0.0009775162 0.9999995 0
vn -0.0009775162 0.9999995 0
vn -0.0009775162 0.9608989 0.2768978
vn 0.2802624 0.9599233 0
vn -0.0009775162 0.9999995 0
vn -0.0009775162 0.9999995 0
vn -0.0009775162 0.9608989 -0.2768978
vn -0.0009775162 0.9999995 0
vn -0.2802624 0.9599233 0
vn -0.0009775162 0.9999995 0
vn -0.0009775162 0.9999995 0
vn -0.215999 0.9763936 0
vn -0.0009775162 0.9765391 0.2153378
vn -0.0009775162 0.9999995 0
vn -0.0009775162 0.9999995 0
vn 0.215999 0.9763936 0
vn -0.0009775162 0.9999995 0
vn -0.0009775162 0.9765391 -0.2153378
vn -0.0009775162 0.9999995 0
vn -0.0009775162 0.9999995 0
vn -0.0009775162 0.9999995 0
vn -0.0009775162 0.9999995 0
vn -0.0009775162 0.9999995 0
vn -0.0009775162 0.9999995 0
vn -0.0009775162 0.9999995 0
vn -0.0009775162 0.9999995 0
vn -0.0009775162 0.9999995 0
vn -0.0009775162 0.9999995 0
vn -0.0009775162 0.9999995 0
vn -0.0009775162 0.9999995 0
vn -0.0009775162 0.9999995 0
vn -0.0009775162 0.9999995 0
vn -0.0009775162 0.9999995 0
vn -0.0009775162 0.9999995 0
vn -0.0009775162 0.9999995 0
vn -0.0009775162 0.9999995 0
vn -0.0009775162 -0.9999995 0
vn -0.0009775162 -0.9999995 0
vn -0.0009775162 -0.9999995 0
vn -0.0009775162 -0.9999995 0
vn -0.0009775162 -0.9999995 0
vn -0.0009775162 -0.9999995 0
vn -0.0009775162 -0.9999995 0
vn -0.0009775162 -0.9999995 0
vn -0.0009775162 -0.9999995 0
vn -0.0009775162 -0.9999995 0
vn 0.2101661 0.620723 -0.7553365
vn 0.2199413 0.6168129 -0.7557563
vn -0.1104593 0.7536653 -0.64791
vn 0.5816224 0.6129029 -0.5348509
vn -0.2473117 0.7888559 -0.5626218
vn 0.6363633 0.6344084 -0.4388255
vn -0.5190613 0.7771257 -0.3558805
vn -0.4916909 0.7829908 -0.3810059
vn 0.7184747 0.6950144 -0.02736935
vn 0.7204298 0.6911043 -0.05792928
vn -0.6871942 0.7243398 -0.0556405
vn -0.6911043 0.7223848 0.0231316
vn 0.5366566 0.7478002 0.3908893
vn 0.4936459 0.7478002 0.4439691
vn 0.1554251 0.7771257 0.6098513
vn 0.1769305 0.7712606 0.6114349
vn -0.2258064 0.794721 0.5634093
vn -0.262952 0.7888559 0.5554842
vn -0.5425217 0.7517103 0.3749691
vn -0.6246331 0.73216 0.271616
vn -0.1300098 0.43695 0.8900406
vn -0.09286404 0.7575754 0.6461082
vn 0.5444767 0.4721406 0.6932737
vn -0.5698922 0.6871942 0.4505408
vn 0.4721406 0.7008795 0.5346506
vn -0.6637338 0.7478002 -0.01588228
vn 0.0009775162 0.9999995 0
vn -0.671554 0.4799607 0.5644936
vn -0.8729223 0.4858258 -0.04449676
vn -0.4643204 0.7262949 -0.5068553
vn 0.853372 0.4936459 0.1675407
vn -0.5757573 0.497556 -0.6488001
vn 0.04985332 0.7653955 -0.6416263
vn 0.07331377 0.4858258 -0.8709756
vn 0.5131962 0.7517103 -0.4141995
vn 0.6852392 0.5053761 -0.5244447
vn 0.6422284 0.7595304 0.1032288
g shield_mesh_new_0
f 3/3/3 2/2/2 1/1/1
f 2/2/2 4/4/4 1/1/1
f 5/5/5 4/4/4 2/2/2
f 6/6/6 5/5/5 2/2/2
f 6/6/6 7/7/7 5/5/5
f 7/7/7 8/8/8 5/5/5
f 9/9/9 8/8/8 7/7/7
f 10/10/10 9/9/9 7/7/7
f 9/9/9 10/10/10 11/11/11
f 12/12/12 9/9/9 11/11/11
f 11/11/11 13/13/13 12/12/12
f 13/13/13 14/14/14 12/12/12
f 15/15/15 14/14/14 13/13/13
f 16/16/16 15/15/15 13/13/13
f 16/16/16 17/17/17 15/15/15
f 17/17/17 18/18/18 15/15/15
f 18/18/18 17/17/17 19/19/19
f 20/20/20 18/18/18 19/19/19
f 19/19/19 21/21/21 20/20/20
f 21/21/21 22/22/22 20/20/20
f 25/25/25 24/24/24 23/23/23
f 26/26/26 25/25/25 23/23/23
f 26/26/26 23/23/23 27/27/27
f 28/28/28 26/26/26 27/27/27
f 28/28/28 27/27/27 29/29/29
f 30/30/30 28/28/28 29/29/29
f 30/30/30 29/29/29 31/31/31
f 32/32/32 30/30/30 31/31/31
f 32/32/32 31/31/31 33/33/33
f 34/34/34 32/32/32 33/33/33
f 33/33/33 35/35/35 34/34/34
f 35/35/35 36/36/36 34/34/34
f 36/36/36 35/35/35 37/37/37
f 38/38/38 36/36/36 37/37/37
f 38/38/38 37/37/37 39/39/39
f 40/40/40 38/38/38 39/39/39
f 40/40/40 39/39/39 41/41/41
f 42/42/42 40/40/40 41/41/41
f 41/41/41 43/43/43 42/42/42
f 43/43/43 25/25/25 42/42/42
f 46/46/46 45/45/45 44/44/44
f 44/44/44 45/45/45 47/47/47
f 45/45/45 48/48/48 47/47/47
f 49/49/49 48/48/48 45/45/45
f 50/50/50 44/44/44 47/47/47
f 48/48/48 50/50/50 47/47/47
f 51/51/51 44/44/44 50/50/50
f 52/52/52 50/50/50 48/48/48
f 55/55/55 54/54/54 53/53/53
f 53/53/53 54/54/54 56/56/56
f 54/54/54 57/57/57 56/56/56
f 58/58/58 57/57/57 54/54/54
f 59/59/59 53/53/53 56/56/56
f 57/57/57 59/59/59 56/56/56
f 60/60/60 53/53/53 59/59/59
f 61/61/61 59/59/59 57/57/57
f 64/64/64 63/63/63 62/62/62
f 62/62/62 63/63/63 65/65/65
f 63/63/63 66/66/66 65/65/65
f 67/67/67 66/66/66 63/63/63
f 68/68/68 62/62/62 65/65/65
f 66/66/66 68/68/68 65/65/65
f 69/69/69 62/62/62 68/68/68
f 70/70/70 68/68/68 66/66/66
f 73/73/73 72/72/72 71/71/71
f 71/71/71 72/72/72 74/74/74
f 72/72/72 75/75/75 74/74/74
f 76/76/76 75/75/75 72/72/72
f 77/77/77 71/71/71 74/74/74
f 75/75/75 77/77/77 74/74/74
f 78/78/78 71/71/71 77/77/77
f 79/79/79 77/77/77 75/75/75
f 82/82/82 81/81/81 80/80/80
f 80/80/80 81/81/81 83/83/83
f 81/81/81 84/84/84 83/83/83
f 85/85/85 84/84/84 81/81/81
f 86/86/86 80/80/80 83/83/83
f 84/84/84 86/86/86 83/83/83
f 87/87/87 80/80/80 86/86/86
f 88/88/88 86/86/86 84/84/84
f 91/91/91 90/90/90 89/89/89
f 89/89/89 90/90/90 92/92/92
f 94/94/94 93/93/93 92/92/92
f 93/93/93 95/95/95 92/92/92
f 96/96/96 95/95/95 93/93/93
f 99/99/99 98/98/98 97/97/97
f 97/97/97 98/98/98 100/100/100
f 102/102/102 100/100/100 101/101/101
f 103/103/103 101/101/101 100/100/100
f 104/104/104 101/101/101 103/103/103
f 107/107/107 106/106/106 105/105/105
f 106/106/106 108/108/108 105/105/105
f 106/106/106 109/109/109 108/108/108
f 109/109/109 110/110/110 108/108/108
f 109/109/109 111/111/111 110/110/110
f 111/111/111 112/112/112 110/110/110
f 111/111/111 113/113/113 112/112/112
f 113/113/113 114/114/114 112/112/112
f 117/117/117 116/116/116 115/115/115
f 115/115/115 116/116/116 118/118/118
f 119/119/119 117/117/117 115/115/115
f 120/120/120 115/115/115 118/118/118
f 119/119/119 121/121/121 117/117/117
f 121/121/121 122/122/122 117/117/117
f 118/118/118 123/123/123 120/120/120
f 123/123/123 124/124/124 120/120/120
f 121/121/121 125/125/125 122/122/122
f 125/125/125 126/126/126 122/122/122
f 124/124/124 123/123/123 127/127/127
f 123/123/123 128/128/128 127/127/127
f 127/127/127 128/128/128 129/129/129
f 130/130/130 127/127/127 129/129/129
f 130/130/130 129/129/129 131/131/131
f 132/132/132 130/130/130 131/131/131
f 133/133/133 126/126/126 125/125/125
f 131/131/131 133/133/133 132/132/132
f 134/134/134 133/133/133 125/125/125
f 133/133/133 134/134/134 132/132/132
f 137/137/137 136/136/136 135/135/135
f 137/137/137 136/136/136 135/135/135
f 136/136/136 138/138/138 135/135/135
f 136/136/136 138/138/138 135/135/135
f 139/139/139 136/136/136 137/137/137
f 139/139/139 136/136/136 137/137/137
f 138/138/138 136/136/136 140/140/140
f 138/138/138 136/136/136 140/140/140
f 140/140/140 136/136/136 141/141/141
f 140/140/140 136/136/136 141/141/141
f 135/135/135 138/138/138 142/142/142
f 135/135/135 138/138/138 142/142/142
f 138/138/138 140/140/140 142/142/142
f 138/138/138 140/140/140 142/142/142
f 142/142/142 140/140/140 143/143/143
f 142/142/142 140/140/140 143/143/143
f 140/140/140 144/144/144 143/143/143
f 140/140/140 144/144/144 143/143/143
f 145/145/145 139/139/139 137/137/137
f 145/145/145 139/139/139 137/137/137
f 143/143/143 144/144/144 146/146/146
f 143/143/143 144/144/144 146/146/146
f 147/147/147 140/140/140 141/141/141
f 144/144/144 140/140/140 147/147/147
f 144/144/144 140/140/140 147/147/147
f 147/147/147 140/140/140 141/141/141
f 144/144/144 147/147/147 146/146/146
f 144/144/144 147/147/147 146/146/146
f 146/146/146 147/147/147 148/148/148
f 146/146/146 147/147/147 148/148/148
f 147/147/147 149/149/149 148/148/148
f 147/147/147 149/149/149 148/148/148
f 148/148/148 149/149/149 150/150/150
f 148/148/148 149/149/149 150/150/150
f 136/136/136 151/151/151 141/141/141
f 136/136/136 151/151/151 141/141/141
f 139/139/139 151/151/151 136/136/136
f 139/139/139 151/151/151 136/136/136
f 151/151/151 139/139/139 145/145/145
f 151/151/151 139/139/139 145/145/145
f 151/151/151 147/147/147 141/141/141
f 151/151/151 147/147/147 141/141/141
f 150/150/150 151/151/151 145/145/145
f 150/150/150 151/151/151 145/145/145
f 149/149/149 147/147/147 151/151/151
f 149/149/149 147/147/147 151/151/151
f 149/149/149 151/151/151 150/150/150
f 149/149/149 151/151/151 150/150/150
