g Spacebot_outfit1_lidLow_R
v 4.172325E-07 -4.172325E-07 0.1672036
v -0.4872187 -0.3587669 0.1672024
v -0.5654527 -4.172325E-07 0.1672012
v 0.004585922 -0.3587669 0.1672036
v -0.2704018 -0.6135659 0.1672024
v 0.4787933 -0.3587669 0.1672048
v 0.5583034 -4.172325E-07 0.1672048
v 0.007834256 -0.6135659 0.1672048
v 0.009095848 -0.7126565 0.1672048
v 0.2884277 -0.6135659 0.1672048
v -0.2704018 -0.6135659 0.1672024
v 0.009095848 -0.7126565 0.1672048
v 0.009095848 -0.7126565 -0.07011038
v -0.2704018 -0.6135659 -0.07011282
v 0.009095848 -0.7126565 0.1672048
v 0.2884277 -0.6135659 0.1672048
v 0.2884277 -0.6135659 -0.07011038
v 0.009095848 -0.7126565 -0.07011038
v 0.2884277 -0.6135659 0.1672048
v 0.4787933 -0.3587669 0.1672048
v 0.4787933 -0.3587669 -0.07011038
v 0.2884277 -0.6135659 -0.07011038
v 0.4787933 -0.3587669 0.1672048
v 0.5583034 -4.172325E-07 0.1672048
v 0.5583034 -4.172325E-07 -0.07011038
v 0.4787933 -0.3587669 -0.07011038
v 0.5583034 -4.172325E-07 0.1672048
v 4.172325E-07 -4.172325E-07 -0.07011157
v 0.5583034 -4.172325E-07 -0.07011038
v 4.172325E-07 -4.172325E-07 0.1672036
v -0.5654527 -4.172325E-07 -0.07011282
v -0.5654527 -4.172325E-07 0.1672012
v -0.5654527 -4.172325E-07 0.1672012
v -0.4872187 -0.3587669 0.1672024
v -0.4872187 -0.3587669 -0.07011282
v -0.5654527 -4.172325E-07 -0.07011282
v -0.4872187 -0.3587669 0.1672024
v -0.2704018 -0.6135659 0.1672024
v -0.2704018 -0.6135659 -0.07011282
v -0.4872187 -0.3587669 -0.07011282
vt 0.5305439 0.5637717
vt 0.5224173 0.5541758
vt 0.5185781 0.5620556
vt 0.5328471 0.5555847
vt 0.528578 0.5489911
vt 0.5429046 0.5569437
vt 0.5423931 0.565335
vt 0.53448 0.5497857
vt 0.5351126 0.5475354
vt 0.5404303 0.5505877
vt 0.528578 0.5351065
vt 0.5351126 0.5336491
vt 0.5351126 0.5336491
vt 0.528578 0.5351065
vt 0.5351126 0.5336491
vt 0.5404303 0.5367015
vt 0.5404303 0.5367015
vt 0.5351126 0.5336491
vt 0.5404303 0.5367015
vt 0.5429046 0.5430574
vt 0.5429046 0.5430574
vt 0.5404303 0.5367015
vt 0.5429046 0.5430574
vt 0.5423931 0.5514503
vt 0.5423931 0.5514503
vt 0.5429046 0.5430574
vt 0.5423931 0.6177532
vt 0.5305439 0.5641213
vt 0.5423931 0.565686
vt 0.5305439 0.61619
vt 0.5185781 0.5624052
vt 0.5185781 0.6144723
vt 0.5185781 0.5481694
vt 0.5224173 0.5402896
vt 0.5224173 0.5402896
vt 0.5185781 0.5481694
vt 0.5224173 0.5402896
vt 0.528578 0.5351065
vt 0.528578 0.5351065
vt 0.5224173 0.5402896
vn 0.0006366372 -0.0006366372 0.9999996
vn 0.0006366372 -0.0006366372 0.9999996
vn 0.0006366372 -0.0006366372 0.9999996
vn 0.0006366372 -0.0006366372 0.9999996
vn 0.0006366372 -0.0006366372 0.9999996
vn 0.0006366372 -0.0006366372 0.9999996
vn 0.0006366372 -0.0006366372 0.9999996
vn 0.0006366372 -0.0006366372 0.9999996
vn 0.0006366372 -0.0006366372 0.9999996
vn 0.0006366372 -0.0006366372 0.9999996
vn -0.3333674 -0.9427969 0
vn -0.3333674 -0.9427969 0
vn -0.3333674 -0.9427969 0
vn -0.3333674 -0.9427969 0
vn 0.3348261 -0.9413894 -0.04095673
vn 0.3348261 -0.9413894 -0.04095673
vn 0.3348261 -0.9413894 -0.04095673
vn 0.3348261 -0.9413894 -0.04095673
vn 0.8003731 -0.5975414 -0.04844823
vn 0.8003731 -0.5975414 -0.04844823
vn 0.8003731 -0.5975414 -0.04844823
vn 0.8003731 -0.5975414 -0.04844823
vn 0.9761606 -0.2169905 -0.005062975
vn 0.9761606 -0.2169905 -0.005062975
vn 0.9761606 -0.2169905 -0.005062975
vn 0.9761606 -0.2169905 -0.005062975
vn 0.0006366372 0.9999998 0
vn 0.0006366372 0.9999998 0
vn 0.0006366372 0.9999998 0
vn 0.0006366372 0.9999998 0
vn 0.0006366372 0.9999998 0
vn 0.0006366372 0.9999998 0
vn -0.976819 -0.213127 -0.02003952
vn -0.976819 -0.213127 -0.02003952
vn -0.976819 -0.213127 -0.02003952
vn -0.976819 -0.213127 -0.02003952
vn -0.762073 -0.6474911 0
vn -0.762073 -0.6474911 0
vn -0.762073 -0.6474911 0
vn -0.762073 -0.6474911 0
g Spacebot_outfit1_lidLow_R_0
f 3/3/3 2/2/2 1/1/1
f 2/2/2 4/4/4 1/1/1
f 2/2/2 5/5/5 4/4/4
f 4/4/4 6/6/6 1/1/1
f 6/6/6 7/7/7 1/1/1
f 5/5/5 8/8/8 4/4/4
f 4/4/4 8/8/8 6/6/6
f 9/9/9 8/8/8 5/5/5
f 8/8/8 10/10/10 6/6/6
f 10/10/10 8/8/8 9/9/9
f 13/13/13 12/12/12 11/11/11
f 14/14/14 13/13/13 11/11/11
f 17/17/17 16/16/16 15/15/15
f 18/18/18 17/17/17 15/15/15
f 21/21/21 20/20/20 19/19/19
f 22/22/22 21/21/21 19/19/19
f 25/25/25 24/24/24 23/23/23
f 26/26/26 25/25/25 23/23/23
f 29/29/29 28/28/28 27/27/27
f 28/28/28 30/30/30 27/27/27
f 28/28/28 31/31/31 30/30/30
f 31/31/31 32/32/32 30/30/30
f 35/35/35 34/34/34 33/33/33
f 36/36/36 35/35/35 33/33/33
f 39/39/39 38/38/38 37/37/37
f 40/40/40 39/39/39 37/37/37
