g Spacebot_outfit1_lidUp_L
v 0.5583036 4.768372E-07 0.16686
v -4.768372E-07 -7.152557E-07 0.1668576
v 0.4871578 0.3583218 0.16686
v -0.003296912 0.3583218 0.1668576
v -0.496543 0.3583206 0.1668564
v -0.5654526 4.768372E-07 0.1668564
v -0.2810025 0.6267287 0.1668564
v -0.005791247 0.6267298 0.1668576
v 0.2855341 0.6267312 0.16686
v -0.006698489 0.7237996 0.1668564
v 0.5583036 4.768372E-07 0.16686
v 0.4871578 0.3583218 0.16686
v 0.4871578 0.3583218 -0.0701097
v 0.5583036 4.768372E-07 -0.0701097
v -4.768372E-07 -7.152557E-07 0.1668576
v 0.5583036 4.768372E-07 0.16686
v 0.5583036 4.768372E-07 -0.0701097
v -4.768372E-07 -7.152557E-07 -0.07011092
v -0.5654526 4.768372E-07 0.1668564
v -0.5654526 4.768372E-07 -0.07011336
v 0.4871578 0.3583218 0.16686
v 0.2855341 0.6267312 0.16686
v 0.2855341 0.6267312 -0.0701097
v 0.4871578 0.3583218 -0.0701097
v 0.2855341 0.6267312 0.16686
v -0.006698489 0.7237996 0.1668564
v -0.006698489 0.7237996 -0.07011214
v 0.2855341 0.6267312 -0.0701097
v -0.006698489 0.7237996 0.1668564
v -0.2810025 0.6267287 0.1668564
v -0.2810025 0.6267287 -0.07011214
v -0.006698489 0.7237996 -0.07011214
v -0.2810025 0.6267287 0.1668564
v -0.496543 0.3583206 0.1668564
v -0.496543 0.3583206 -0.07011336
v -0.2810025 0.6267287 -0.07011214
v -0.496543 0.3583206 0.1668564
v -0.5654526 4.768372E-07 0.1668564
v -0.5654526 4.768372E-07 -0.07011336
v -0.496543 0.3583206 -0.07011336
vt 0.5423767 0.5653965
vt 0.5305303 0.5638334
vt 0.538691 0.5733989
vt 0.52828 0.5719273
vt 0.5178176 0.5704014
vt 0.518562 0.5621159
vt 0.520738 0.5771628
vt 0.5265768 0.5780521
vt 0.5327626 0.5789709
vt 0.5259573 0.5802805
vt 0.5423767 0.544995
vt 0.538691 0.5529983
vt 0.538691 0.5529983
vt 0.5423767 0.544995
vt 0.5305303 0.5434318
vt 0.5423767 0.544995
vt 0.5423767 0.544995
vt 0.5305303 0.5434318
vt 0.518562 0.5417143
vt 0.518562 0.5417143
vt 0.538691 0.5529983
vt 0.5327626 0.5585703
vt 0.5327626 0.5585703
vt 0.538691 0.5529983
vt 0.5327626 0.5585703
vt 0.5259573 0.5598789
vt 0.5259573 0.5598789
vt 0.5327626 0.5585703
vt 0.5259573 0.5598789
vt 0.520738 0.5567613
vt 0.520738 0.5567613
vt 0.5259573 0.5598789
vt 0.520738 0.5567613
vt 0.5178176 0.5499998
vt 0.5178176 0.5499998
vt 0.520738 0.5567613
vt 0.5178176 0.5499998
vt 0.518562 0.5417143
vt 0.518562 0.5417143
vt 0.5178176 0.5499998
vn 0.0003479719 -0.0003479719 0.9999999
vn 0.0003479719 -0.0003479719 0.9999999
vn 0.0003479719 -0.0003479719 0.9999999
vn 0.0003479719 -0.0003479719 0.9999999
vn 0.0003479719 -0.0003479719 0.9999999
vn 0.0003479719 -0.0003479719 0.9999999
vn 0.0003479719 -0.0003479719 0.9999999
vn 0.0003479719 -0.0003479719 0.9999999
vn 0.0003479719 -0.0003479719 0.9999999
vn 0.0003479719 -0.0003479719 0.9999999
vn 0.9806269 0.1953204 -0.0148614
vn 0.9806269 0.1953204 -0.0148614
vn 0.9806269 0.1953204 -0.0148614
vn 0.9806269 0.1953204 -0.0148614
vn 0.0003479719 -1 0
vn 0.0003479719 -1 0
vn 0.0003479719 -1 0
vn 0.0003479719 -1 0
vn 0.0003479719 -1 0
vn 0.0003479719 -1 0
vn 0.8000598 0.5999203 0
vn 0.8000598 0.5999203 0
vn 0.8000598 0.5999203 0
vn 0.8000598 0.5999203 0
vn 0.3160642 0.9487379 0
vn 0.3160642 0.9487379 0
vn 0.3160642 0.9487379 0
vn 0.3160642 0.9487379 0
vn -0.3328225 0.9429895 0
vn -0.3328225 0.9429895 0
vn -0.3328225 0.9429895 0
vn -0.3328225 0.9429895 0
vn -0.7803355 0.6253611 0
vn -0.7803355 0.6253611 0
vn -0.7803355 0.6253611 0
vn -0.7803355 0.6253611 0
vn -0.9818683 0.1895084 -0.004608457
vn -0.9818683 0.1895084 -0.004608457
vn -0.9818683 0.1895084 -0.004608457
vn -0.9818683 0.1895084 -0.004608457
g Spacebot_outfit1_lidUp_L_0
f 3/3/3 2/2/2 1/1/1
f 3/3/3 4/4/4 2/2/2
f 4/4/4 5/5/5 2/2/2
f 6/6/6 2/2/2 5/5/5
f 7/7/7 5/5/5 4/4/4
f 8/8/8 4/4/4 3/3/3
f 8/8/8 7/7/7 4/4/4
f 9/9/9 8/8/8 3/3/3
f 7/7/7 8/8/8 10/10/10
f 10/10/10 8/8/8 9/9/9
f 13/13/13 12/12/12 11/11/11
f 14/14/14 13/13/13 11/11/11
f 17/17/17 16/16/16 15/15/15
f 18/18/18 17/17/17 15/15/15
f 18/18/18 15/15/15 19/19/19
f 20/20/20 18/18/18 19/19/19
f 23/23/23 22/22/22 21/21/21
f 24/24/24 23/23/23 21/21/21
f 27/27/27 26/26/26 25/25/25
f 28/28/28 27/27/27 25/25/25
f 31/31/31 30/30/30 29/29/29
f 32/32/32 31/31/31 29/29/29
f 35/35/35 34/34/34 33/33/33
f 36/36/36 35/35/35 33/33/33
f 39/39/39 38/38/38 37/37/37
f 40/40/40 39/39/39 37/37/37
