g spiderString
v -0.01499965 -1.7602E-07 0.01499965
v -0.01499965 1 0.01499965
v 0.015 1 0.01499965
v 0.015 -1.7602E-07 0.01499965
v -0.01499965 1 0.01499965
v -0.01499965 1 -0.015
v 0.015 1 -0.015
v 0.015 1 0.01499965
v -0.01499965 1 -0.015
v -0.01499965 -1.7602E-07 -0.015
v 0.015 -1.7602E-07 -0.015
v 0.015 1 -0.015
v -0.01499965 -1.7602E-07 -0.015
v -0.01499965 -1.7602E-07 0.01499965
v 0.015 -1.7602E-07 0.01499965
v 0.015 -1.7602E-07 -0.015
v 0.015 -1.7602E-07 0.01499965
v 0.015 1 0.01499965
v 0.015 1 -0.015
v 0.015 -1.7602E-07 -0.015
v -0.01499965 -1.7602E-07 -0.015
v -0.01499965 1 -0.015
v -0.01499965 1 0.01499965
v -0.01499965 -1.7602E-07 0.01499965
vt 0.9421303 0.7570473
vt 0.9232003 0.779778
vt 0.9234609 0.779778
vt 0.9423909 0.7570473
vt 0.9232003 0.779778
vt 0.9232003 0.7800386
vt 0.9234609 0.7800386
vt 0.9234609 0.779778
vt 0.9232003 0.7800386
vt 0.9421303 0.757829
vt 0.9423909 0.757829
vt 0.9234609 0.7800386
vt 0.9421303 0.757829
vt 0.9421303 0.7580895
vt 0.9423909 0.7580895
vt 0.9423909 0.757829
vt 0.9423909 0.7570473
vt 0.9234609 0.779778
vt 0.9237214 0.779778
vt 0.9426515 0.7570473
vt 0.9418698 0.7570473
vt 0.9229398 0.779778
vt 0.9232003 0.779778
vt 0.9421303 0.7570473
vn -0.0009775162 0.0009775162 0.999999
vn -0.0009775162 0.0009775162 0.999999
vn -0.0009775162 0.0009775162 0.999999
vn -0.0009775162 0.0009775162 0.999999
vn -0.0009775162 0.9999995 0
vn -0.0009775162 0.9999995 0
vn -0.0009775162 0.9999995 0
vn -0.0009775162 0.9999995 0
vn -0.0009775162 0.0009775162 -0.999999
vn -0.0009775162 0.0009775162 -0.999999
vn -0.0009775162 0.0009775162 -0.999999
vn -0.0009775162 0.0009775162 -0.999999
vn -0.0009775162 -0.9999995 0
vn -0.0009775162 -0.9999995 0
vn -0.0009775162 -0.9999995 0
vn -0.0009775162 -0.9999995 0
vn 0.9999995 0.0009775162 0
vn 0.9999995 0.0009775162 0
vn 0.9999995 0.0009775162 0
vn 0.9999995 0.0009775162 0
vn -0.9999995 0.0009775162 0
vn -0.9999995 0.0009775162 0
vn -0.9999995 0.0009775162 0
vn -0.9999995 0.0009775162 0
g spiderString_0
f 3/3/3 2/2/2 1/1/1
f 4/4/4 3/3/3 1/1/1
f 7/7/7 6/6/6 5/5/5
f 8/8/8 7/7/7 5/5/5
f 11/11/11 10/10/10 9/9/9
f 12/12/12 11/11/11 9/9/9
f 15/15/15 14/14/14 13/13/13
f 16/16/16 15/15/15 13/13/13
f 19/19/19 18/18/18 17/17/17
f 20/20/20 19/19/19 17/17/17
f 23/23/23 22/22/22 21/21/21
f 24/24/24 23/23/23 21/21/21
