g spike_outfit1
v -2.475909 6.688164 0.1094729
v -2.421768 6.715106 0.0471761
v -2.406112 7.065305 0.2727327
v -2.408061 6.664506 0.1582053
v -2.475909 6.688164 0.1094729
v -2.406112 7.065305 0.2727327
v -2.353921 6.691447 0.09590851
v -2.408061 6.664506 0.1582053
v -2.406112 7.065305 0.2727327
v -2.421768 6.715106 0.0471761
v -2.353921 6.691447 0.09590851
v -2.406112 7.065305 0.2727327
v -3.320658 6.665431 0.2034045
v -3.266518 6.692373 0.1411077
v -3.250861 7.042572 0.3666644
v -3.25281 6.641773 0.2521369
v -3.320658 6.665431 0.2034045
v -3.250861 7.042572 0.3666644
v -3.19867 6.668714 0.1898402
v -3.25281 6.641773 0.2521369
v -3.250861 7.042572 0.3666644
v -3.266518 6.692373 0.1411077
v -3.19867 6.668714 0.1898402
v -3.250861 7.042572 0.3666644
v -3.0229 6.673444 0.1702954
v -2.96876 6.700386 0.1079987
v -2.953104 7.050585 0.3335553
v -2.955053 6.649786 0.2190279
v -3.0229 6.673444 0.1702954
v -2.953104 7.050585 0.3335553
v -2.900913 6.676727 0.1567311
v -2.955053 6.649786 0.2190279
v -2.953104 7.050585 0.3335553
v -2.96876 6.700386 0.1079987
v -2.900913 6.676727 0.1567311
v -2.953104 7.050585 0.3335553
v -2.746468 6.680883 0.1395576
v -2.692328 6.707825 0.07726084
v -2.676671 7.058024 0.3028174
v -2.67862 6.657225 0.18829
v -2.746468 6.680883 0.1395576
v -2.676671 7.058024 0.3028174
v -2.62448 6.684166 0.1259933
v -2.67862 6.657225 0.18829
v -2.676671 7.058024 0.3028174
v -2.692328 6.707825 0.07726084
v -2.62448 6.684166 0.1259933
v -2.676671 7.058024 0.3028174
v -2.457232 6.357729 0.1906279
v -2.392022 6.408195 0.2178101
v -2.354441 6.12264 0.5191502
v -2.400593 6.307334 0.1483161
v -2.457232 6.357729 0.1906279
v -2.354441 6.12264 0.5191502
v -2.335384 6.3578 0.1754984
v -2.400593 6.307334 0.1483161
v -2.354441 6.12264 0.5191502
v -2.392022 6.408195 0.2178101
v -2.335384 6.3578 0.1754984
v -2.354441 6.12264 0.5191502
v -3.301012 6.357242 0.2953978
v -3.235802 6.407708 0.32258
v -3.198221 6.122152 0.6239201
v -3.244373 6.306847 0.2530861
v -3.301012 6.357242 0.2953978
v -3.198221 6.122152 0.6239201
v -3.179164 6.357313 0.2802683
v -3.244373 6.306847 0.2530861
v -3.198221 6.122152 0.6239201
v -3.235802 6.407708 0.32258
v -3.179164 6.357313 0.2802683
v -3.198221 6.122152 0.6239201
v -3.003596 6.357414 0.2584684
v -2.938386 6.407879 0.2856507
v -2.900805 6.122324 0.5869908
v -2.946957 6.307019 0.2161567
v -3.003596 6.357414 0.2584684
v -2.900805 6.122324 0.5869908
v -2.881748 6.357484 0.2433389
v -2.946957 6.307019 0.2161567
v -2.900805 6.122324 0.5869908
v -2.938386 6.407879 0.2856507
v -2.881748 6.357484 0.2433389
v -2.900805 6.122324 0.5869908
v -2.72748 6.357573 0.2241839
v -2.662271 6.408039 0.2513662
v -2.62469 6.122483 0.5527062
v -2.670842 6.307178 0.1818722
v -2.72748 6.357573 0.2241839
v -2.62469 6.122483 0.5527062
v -2.605633 6.357644 0.2090544
v -2.670842 6.307178 0.1818722
v -2.62469 6.122483 0.5527062
v -2.662271 6.408039 0.2513662
v -2.605633 6.357644 0.2090544
v -2.62469 6.122483 0.5527062
v -2.527372 6.264769 -0.09983864
v -2.459394 6.242369 -0.05069495
v -2.484796 5.881021 -0.2569529
v -2.473503 6.287239 -0.1641119
v -2.527372 6.264769 -0.09983864
v -2.484796 5.881021 -0.2569529
v -2.405524 6.264839 -0.1149682
v -2.473503 6.287239 -0.1641119
v -2.484796 5.881021 -0.2569529
v -2.459394 6.242369 -0.05069495
v -2.405524 6.264839 -0.1149682
v -2.484796 5.881021 -0.2569529
v -3.371152 6.264282 0.004931312
v -3.303174 6.241882 0.05407501
v -3.328576 5.880534 -0.1521829
v -3.317283 6.286752 -0.05934189
v -3.371152 6.264282 0.004931312
v -3.328576 5.880534 -0.1521829
v -3.249305 6.264352 -0.01019819
v -3.317283 6.286752 -0.05934189
v -3.328576 5.880534 -0.1521829
v -3.303174 6.241882 0.05407501
v -3.249305 6.264352 -0.01019819
v -3.328576 5.880534 -0.1521829
v -3.073736 6.264453 -0.03199806
v -3.005758 6.242054 0.01714564
v -3.03116 5.880705 -0.1891122
v -3.019867 6.286923 -0.09627126
v -3.073736 6.264453 -0.03199806
v -3.03116 5.880705 -0.1891122
v -2.951889 6.264524 -0.04712756
v -3.019867 6.286923 -0.09627126
v -3.03116 5.880705 -0.1891122
v -3.005758 6.242054 0.01714564
v -2.951889 6.264524 -0.04712756
v -3.03116 5.880705 -0.1891122
v -2.797621 6.264613 -0.06628257
v -2.729643 6.242213 -0.01713887
v -2.755045 5.880865 -0.2233968
v -2.743751 6.287083 -0.1305558
v -2.797621 6.264613 -0.06628257
v -2.755045 5.880865 -0.2233968
v -2.675773 6.264683 -0.08141207
v -2.743751 6.287083 -0.1305558
v -2.755045 5.880865 -0.2233968
v -2.729643 6.242213 -0.01713887
v -2.675773 6.264683 -0.08141207
v -2.755045 5.880865 -0.2233968
v -2.541319 6.541979 -0.2437852
v -2.484385 6.489582 -0.2831663
v -2.532416 6.750792 -0.6044484
v -2.47669 6.595549 -0.2216244
v -2.541319 6.541979 -0.2437852
v -2.532416 6.750792 -0.6044484
v -2.419755 6.543152 -0.2610054
v -2.47669 6.595549 -0.2216244
v -2.532416 6.750792 -0.6044484
v -2.484385 6.489582 -0.2831663
v -2.419755 6.543152 -0.2610054
v -2.532416 6.750792 -0.6044484
v -3.383136 6.533859 -0.1245376
v -3.326202 6.481462 -0.1639186
v -3.374233 6.742672 -0.4852008
v -3.318506 6.587429 -0.1023767
v -3.383136 6.533859 -0.1245376
v -3.374233 6.742672 -0.4852008
v -3.261572 6.535032 -0.1417578
v -3.318506 6.587429 -0.1023767
v -3.374233 6.742672 -0.4852008
v -3.326202 6.481462 -0.1639186
v -3.261572 6.535032 -0.1417578
v -3.374233 6.742672 -0.4852008
v -3.086412 6.536721 -0.16657
v -3.029478 6.484324 -0.2059511
v -3.077509 6.745534 -0.5272332
v -3.021782 6.590291 -0.1444092
v -3.086412 6.536721 -0.16657
v -3.077509 6.745534 -0.5272332
v -2.964848 6.537894 -0.1837902
v -3.021782 6.590291 -0.1444092
v -3.077509 6.745534 -0.5272332
v -3.029478 6.484324 -0.2059511
v -2.964848 6.537894 -0.1837902
v -3.077509 6.745534 -0.5272332
v -2.810939 6.539379 -0.2055922
v -2.754005 6.486981 -0.2449732
v -2.802036 6.748191 -0.5662553
v -2.74631 6.592948 -0.1834313
v -2.810939 6.539379 -0.2055922
v -2.802036 6.748191 -0.5662553
v -2.689375 6.540551 -0.2228124
v -2.74631 6.592948 -0.1834313
v -2.802036 6.748191 -0.5662553
v -2.754005 6.486981 -0.2449732
v -2.689375 6.540551 -0.2228124
v -2.802036 6.748191 -0.5662553
v -2.352855 6.455263 -0.350501
v -2.315422 6.455263 -0.05184794
v -2.341891 6.668095 -0.2630275
v -2.341891 6.242431 -0.2630275
v -2.315422 6.756253 -0.05184794
v -2.315422 6.154273 -0.05184794
v -2.288952 6.668095 0.1593317
v -2.288952 6.242431 0.1593317
v -2.277988 6.455263 0.2468052
v -3.430122 6.641058 -0.0765688
v -3.404761 6.467683 0.1063423
v -3.440627 6.467683 -0.1523331
v -3.404761 6.712872 0.1063423
v -3.430122 6.294308 -0.0765688
v -3.3794 6.641058 0.2892534
v -3.404761 6.222494 0.1063423
v -3.368895 6.467683 0.3650177
v -3.3794 6.294308 0.2892534
v -2.341891 6.668095 -0.2630275
v -3.430122 6.641058 -0.0765688
v -3.440627 6.467683 -0.1523331
v -2.352855 6.455263 -0.350501
v -2.315422 6.756253 -0.05184794
v -3.430122 6.294308 -0.0765688
v -3.404761 6.712872 0.1063423
v -2.341891 6.242431 -0.2630275
v -2.288952 6.668095 0.1593317
v -3.404761 6.222494 0.1063423
v -3.3794 6.641058 0.2892534
v -2.315422 6.154273 -0.05184794
v -2.277988 6.455263 0.2468052
v -3.3794 6.294308 0.2892534
v -3.368895 6.467683 0.3650177
v -2.288952 6.242431 0.1593317
vt 0.5692757 0.4565193
vt 0.5749322 0.4565193
vt 0.5739818 0.5044267
vt 0.5749322 0.4565193
vt 0.5692757 0.4565193
vt 0.5739818 0.5044267
vt 0.5805887 0.4565193
vt 0.5749322 0.4565193
vt 0.5739818 0.5044267
vt 0.5749322 0.4565193
vt 0.5805887 0.4565193
vt 0.5739818 0.5044267
vt 0.5692757 0.4565193
vt 0.5749322 0.4565193
vt 0.5739818 0.5044267
vt 0.5749322 0.4565193
vt 0.5692757 0.4565193
vt 0.5739818 0.5044267
vt 0.5805887 0.4565193
vt 0.5749322 0.4565193
vt 0.5739818 0.5044267
vt 0.5749322 0.4565193
vt 0.5805887 0.4565193
vt 0.5739818 0.5044267
vt 0.5692757 0.4565193
vt 0.5749322 0.4565193
vt 0.5739818 0.5044267
vt 0.5749322 0.4565193
vt 0.5692757 0.4565193
vt 0.5739818 0.5044267
vt 0.5805887 0.4565193
vt 0.5749322 0.4565193
vt 0.5739818 0.5044267
vt 0.5749322 0.4565193
vt 0.5805887 0.4565193
vt 0.5739818 0.5044267
vt 0.5692757 0.4565193
vt 0.5749322 0.4565193
vt 0.5739818 0.5044267
vt 0.5749322 0.4565193
vt 0.5692757 0.4565193
vt 0.5739818 0.5044267
vt 0.5805887 0.4565193
vt 0.5749322 0.4565193
vt 0.5739818 0.5044267
vt 0.5749322 0.4565193
vt 0.5805887 0.4565193
vt 0.5739818 0.5044267
vt 0.5692757 0.4565193
vt 0.5749322 0.4565193
vt 0.5739818 0.5044267
vt 0.5749322 0.4565193
vt 0.5692757 0.4565193
vt 0.5739818 0.5044267
vt 0.5805887 0.4565193
vt 0.5749322 0.4565193
vt 0.5739818 0.5044267
vt 0.5749322 0.4565193
vt 0.5805887 0.4565193
vt 0.5739818 0.5044267
vt 0.5692757 0.4565193
vt 0.5749322 0.4565193
vt 0.5739818 0.5044267
vt 0.5749322 0.4565193
vt 0.5692757 0.4565193
vt 0.5739818 0.5044267
vt 0.5805887 0.4565193
vt 0.5749322 0.4565193
vt 0.5739818 0.5044267
vt 0.5749322 0.4565193
vt 0.5805887 0.4565193
vt 0.5739818 0.5044267
vt 0.5692757 0.4565193
vt 0.5749322 0.4565193
vt 0.5739818 0.5044267
vt 0.5749322 0.4565193
vt 0.5692757 0.4565193
vt 0.5739818 0.5044267
vt 0.5805887 0.4565193
vt 0.5749322 0.4565193
vt 0.5739818 0.5044267
vt 0.5749322 0.4565193
vt 0.5805887 0.4565193
vt 0.5739818 0.5044267
vt 0.5692757 0.4565193
vt 0.5749322 0.4565193
vt 0.5739818 0.5044267
vt 0.5749322 0.4565193
vt 0.5692757 0.4565193
vt 0.5739818 0.5044267
vt 0.5805887 0.4565193
vt 0.5749322 0.4565193
vt 0.5739818 0.5044267
vt 0.5749322 0.4565193
vt 0.5805887 0.4565193
vt 0.5739818 0.5044267
vt 0.5692757 0.4565193
vt 0.5749322 0.4565193
vt 0.5739818 0.5044267
vt 0.5749322 0.4565193
vt 0.5692757 0.4565193
vt 0.5739818 0.5044267
vt 0.5805887 0.4565193
vt 0.5749322 0.4565193
vt 0.5739818 0.5044267
vt 0.5749322 0.4565193
vt 0.5805887 0.4565193
vt 0.5739818 0.5044267
vt 0.5692757 0.4565193
vt 0.5749322 0.4565193
vt 0.5739818 0.5044267
vt 0.5749322 0.4565193
vt 0.5692757 0.4565193
vt 0.5739818 0.5044267
vt 0.5805887 0.4565193
vt 0.5749322 0.4565193
vt 0.5739818 0.5044267
vt 0.5749322 0.4565193
vt 0.5805887 0.4565193
vt 0.5739818 0.5044267
vt 0.5692757 0.4565193
vt 0.5749322 0.4565193
vt 0.5739818 0.5044267
vt 0.5749322 0.4565193
vt 0.5692757 0.4565193
vt 0.5739818 0.5044267
vt 0.5805887 0.4565193
vt 0.5749322 0.4565193
vt 0.5739818 0.5044267
vt 0.5749322 0.4565193
vt 0.5805887 0.4565193
vt 0.5739818 0.5044267
vt 0.5692757 0.4565193
vt 0.5749322 0.4565193
vt 0.5739818 0.5044267
vt 0.5749322 0.4565193
vt 0.5692757 0.4565193
vt 0.5739818 0.5044267
vt 0.5805887 0.4565193
vt 0.5749322 0.4565193
vt 0.5739818 0.5044267
vt 0.5749322 0.4565193
vt 0.5805887 0.4565193
vt 0.5739818 0.5044267
vt 0.5692757 0.4565193
vt 0.5749322 0.4565193
vt 0.5739818 0.5044267
vt 0.5749322 0.4565193
vt 0.5692757 0.4565193
vt 0.5739818 0.5044267
vt 0.5805887 0.4565193
vt 0.5749322 0.4565193
vt 0.5739818 0.5044267
vt 0.5749322 0.4565193
vt 0.5805887 0.4565193
vt 0.5739818 0.5044267
vt 0.5692757 0.4565193
vt 0.5749322 0.4565193
vt 0.5739818 0.5044267
vt 0.5749322 0.4565193
vt 0.5692757 0.4565193
vt 0.5739818 0.5044267
vt 0.5805887 0.4565193
vt 0.5749322 0.4565193
vt 0.5739818 0.5044267
vt 0.5749322 0.4565193
vt 0.5805887 0.4565193
vt 0.5739818 0.5044267
vt 0.5692757 0.4565193
vt 0.5749322 0.4565193
vt 0.5739818 0.5044267
vt 0.5749322 0.4565193
vt 0.5692757 0.4565193
vt 0.5739818 0.5044267
vt 0.5805887 0.4565193
vt 0.5749322 0.4565193
vt 0.5739818 0.5044267
vt 0.5749322 0.4565193
vt 0.5805887 0.4565193
vt 0.5739818 0.5044267
vt 0.5692757 0.4565193
vt 0.5749322 0.4565193
vt 0.5739818 0.5044267
vt 0.5749322 0.4565193
vt 0.5692757 0.4565193
vt 0.5739818 0.5044267
vt 0.5805887 0.4565193
vt 0.5749322 0.4565193
vt 0.5739818 0.5044267
vt 0.5749322 0.4565193
vt 0.5805887 0.4565193
vt 0.5739818 0.5044267
vt 0.4944019 0.3582427
vt 0.5123107 0.2661471
vt 0.5279952 0.3582426
vt 0.5279953 0.3582426
vt 0.4944019 0.3582426
vt 0.4944021 0.3582426
vt 0.5279952 0.3582427
vt 0.5279953 0.3582427
vt 0.4944019 0.3582427
vt 0.5279952 0.3582426
vt 0.5123107 0.2661864
vt 0.4944019 0.3582426
vt 0.4944019 0.3582426
vt 0.5279953 0.3582426
vt 0.5279952 0.3582427
vt 0.4944021 0.3582426
vt 0.4944019 0.3582427
vt 0.5279953 0.3582427
vt 0.5369682 0.2623851
vt 0.5372644 0.3494926
vt 0.5265379 0.3494897
vt 0.5262416 0.2623821
vt 0.5363775 0.2623886
vt 0.5217628 0.3494868
vt 0.5366738 0.3494962
vt 0.5214666 0.2623792
vt 0.5313275 0.2623922
vt 0.5122262 0.349497
vt 0.5316238 0.3494997
vt 0.51193 0.2623895
vt 0.5262835 0.2623957
vt 0.5215412 0.3495068
vt 0.5265798 0.3495032
vt 0.5212449 0.2623993
vn -0.7749346 0.3663651 -0.5150273
vn -0.7749346 0.3663651 -0.5150273
vn -0.7749346 0.3663651 -0.5150273
vn -0.6179175 -0.2132419 0.7567732
vn -0.6179175 -0.2132419 0.7567732
vn -0.6179175 -0.2132419 0.7567732
vn 0.779406 -0.1756392 0.601396
vn 0.779406 -0.1756392 0.601396
vn 0.779406 -0.1756392 0.601396
vn 0.6223909 0.4039696 -0.6704014
vn 0.6223909 0.4039696 -0.6704014
vn 0.6223909 0.4039696 -0.6704014
vn -0.7749344 0.3663652 -0.5150274
vn -0.7749344 0.3663652 -0.5150274
vn -0.7749344 0.3663652 -0.5150274
vn -0.6179177 -0.2132411 0.7567734
vn -0.6179177 -0.2132411 0.7567734
vn -0.6179177 -0.2132411 0.7567734
vn 0.7794062 -0.1756399 0.6013955
vn 0.7794062 -0.1756399 0.6013955
vn 0.7794062 -0.1756399 0.6013955
vn 0.622391 0.4039693 -0.6704016
vn 0.622391 0.4039693 -0.6704016
vn 0.622391 0.4039693 -0.6704016
vn -0.7749345 0.3663646 -0.5150277
vn -0.7749345 0.3663646 -0.5150277
vn -0.7749345 0.3663646 -0.5150277
vn -0.6179174 -0.2132419 0.7567734
vn -0.6179174 -0.2132419 0.7567734
vn -0.6179174 -0.2132419 0.7567734
vn 0.7794062 -0.1756392 0.6013958
vn 0.7794062 -0.1756392 0.6013958
vn 0.7794062 -0.1756392 0.6013958
vn 0.6223906 0.4039701 -0.6704015
vn 0.6223906 0.4039701 -0.6704015
vn 0.6223906 0.4039701 -0.6704015
vn -0.7749346 0.3663644 -0.5150275
vn -0.7749346 0.3663644 -0.5150275
vn -0.7749346 0.3663644 -0.5150275
vn -0.6179179 -0.2132415 0.7567731
vn -0.6179179 -0.2132415 0.7567731
vn -0.6179179 -0.2132415 0.7567731
vn 0.7794054 -0.175639 0.6013969
vn 0.7794054 -0.175639 0.6013969
vn 0.7794054 -0.175639 0.6013969
vn 0.6223909 0.4039687 -0.670402
vn 0.6223909 0.4039687 -0.670402
vn 0.6223909 0.4039687 -0.670402
vn -0.638141 0.5175445 0.5700209
vn -0.638141 0.5175445 0.5700209
vn -0.638141 0.5175445 0.5700209
vn -0.7363131 -0.6377802 -0.226008
vn -0.7363131 -0.6377802 -0.226008
vn -0.7363131 -0.6377802 -0.226008
vn 0.6594071 -0.63697 -0.3993136
vn 0.6594071 -0.63697 -0.3993136
vn 0.6594071 -0.63697 -0.3993136
vn 0.7575788 0.518353 0.3967173
vn 0.7575788 0.518353 0.3967173
vn 0.7575788 0.518353 0.3967173
vn -0.6381429 0.5175441 0.5700189
vn -0.6381429 0.5175441 0.5700189
vn -0.6381429 0.5175441 0.5700189
vn -0.7363141 -0.6377801 -0.226005
vn -0.7363141 -0.6377801 -0.226005
vn -0.7363141 -0.6377801 -0.226005
vn 0.6594076 -0.6369702 -0.3993123
vn 0.6594076 -0.6369702 -0.3993123
vn 0.6594076 -0.6369702 -0.3993123
vn 0.757579 0.5183527 0.3967171
vn 0.757579 0.5183527 0.3967171
vn 0.757579 0.5183527 0.3967171
vn -0.6381419 0.5175439 0.5700203
vn -0.6381419 0.5175439 0.5700203
vn -0.6381419 0.5175439 0.5700203
vn -0.7363162 -0.6377768 -0.2260072
vn -0.7363162 -0.6377768 -0.2260072
vn -0.7363162 -0.6377768 -0.2260072
vn 0.6594049 -0.6369743 -0.3993105
vn 0.6594049 -0.6369743 -0.3993105
vn 0.6594049 -0.6369743 -0.3993105
vn 0.7575787 0.518353 0.3967173
vn 0.7575787 0.518353 0.3967173
vn 0.7575787 0.518353 0.3967173
vn -0.638141 0.5175482 0.5700175
vn -0.638141 0.5175482 0.5700175
vn -0.638141 0.5175482 0.5700175
vn -0.7363126 -0.6377818 -0.2260047
vn -0.7363126 -0.6377818 -0.2260047
vn -0.7363126 -0.6377818 -0.2260047
vn 0.6594086 -0.6369689 -0.3993131
vn 0.6594086 -0.6369689 -0.3993131
vn 0.6594086 -0.6369689 -0.3993131
vn 0.7575804 0.5183487 0.3967198
vn 0.7575804 0.5183487 0.3967198
vn 0.7575804 0.5183487 0.3967198
vn -0.6217169 -0.3548543 0.6982453
vn -0.6217169 -0.3548543 0.6982453
vn -0.6217169 -0.3548543 0.6982453
vn -0.7833258 0.1591135 -0.6009024
vn -0.7833258 0.1591135 -0.6009024
vn -0.7833258 0.1591135 -0.6009024
vn 0.6123967 0.1599192 -0.7742067
vn 0.6123967 0.1599192 -0.7742067
vn 0.6123967 0.1599192 -0.7742067
vn 0.7740049 -0.3540475 0.5249446
vn 0.7740049 -0.3540475 0.5249446
vn 0.7740049 -0.3540475 0.5249446
vn -0.6217172 -0.3548566 0.698244
vn -0.6217172 -0.3548566 0.698244
vn -0.6217172 -0.3548566 0.698244
vn -0.7833251 0.1591118 -0.6009036
vn -0.7833251 0.1591118 -0.6009036
vn -0.7833251 0.1591118 -0.6009036
vn 0.6123968 0.1599189 -0.7742069
vn 0.6123968 0.1599189 -0.7742069
vn 0.6123968 0.1599189 -0.7742069
vn 0.7740062 -0.3540455 0.5249438
vn 0.7740062 -0.3540455 0.5249438
vn 0.7740062 -0.3540455 0.5249438
vn -0.6217165 -0.3548554 0.698245
vn -0.6217165 -0.3548554 0.698245
vn -0.6217165 -0.3548554 0.698245
vn -0.7833251 0.1591133 -0.6009033
vn -0.7833251 0.1591133 -0.6009033
vn -0.7833251 0.1591133 -0.6009033
vn 0.6123975 0.1599206 -0.7742059
vn 0.6123975 0.1599206 -0.7742059
vn 0.6123975 0.1599206 -0.7742059
vn 0.7740042 -0.3540496 0.5249441
vn 0.7740042 -0.3540496 0.5249441
vn 0.7740042 -0.3540496 0.5249441
vn -0.621717 -0.354854 0.6982455
vn -0.621717 -0.354854 0.6982455
vn -0.621717 -0.354854 0.6982455
vn -0.7833237 0.1591157 -0.6009045
vn -0.7833237 0.1591157 -0.6009045
vn -0.7833237 0.1591157 -0.6009045
vn 0.612395 0.1599177 -0.7742084
vn 0.612395 0.1599177 -0.7742084
vn 0.612395 0.1599177 -0.7742084
vn 0.7740031 -0.3540508 0.524945
vn 0.7740031 -0.3540508 0.524945
vn 0.7740031 -0.3540508 0.524945
vn -0.7534881 -0.5607427 -0.3432541
vn -0.7534881 -0.5607427 -0.3432541
vn -0.7534881 -0.5607427 -0.3432541
vn -0.665338 0.6530745 0.361689
vn -0.665338 0.6530745 0.361689
vn -0.665338 0.6530745 0.361689
vn 0.7271343 0.6665106 0.1644364
vn 0.7271343 0.6665106 0.1644364
vn 0.7271343 0.6665106 0.1644364
vn 0.6389894 -0.5473092 -0.5405046
vn 0.6389894 -0.5473092 -0.5405046
vn 0.6389894 -0.5473092 -0.5405046
vn -0.7534876 -0.5607433 -0.343254
vn -0.7534876 -0.5607433 -0.343254
vn -0.7534876 -0.5607433 -0.343254
vn -0.6653367 0.6530772 0.3616866
vn -0.6653367 0.6530772 0.3616866
vn -0.6653367 0.6530772 0.3616866
vn 0.727134 0.6665109 0.1644363
vn 0.727134 0.6665109 0.1644363
vn 0.727134 0.6665109 0.1644363
vn 0.6389865 -0.5473114 -0.5405058
vn 0.6389865 -0.5473114 -0.5405058
vn 0.6389865 -0.5473114 -0.5405058
vn -0.7534872 -0.5607442 -0.3432535
vn -0.7534872 -0.5607442 -0.3432535
vn -0.7534872 -0.5607442 -0.3432535
vn -0.6653334 0.6530805 0.3616866
vn -0.6653334 0.6530805 0.3616866
vn -0.6653334 0.6530805 0.3616866
vn 0.7271365 0.6665081 0.1644369
vn 0.7271365 0.6665081 0.1644369
vn 0.7271365 0.6665081 0.1644369
vn 0.6389871 -0.5473106 -0.5405059
vn 0.6389871 -0.5473106 -0.5405059
vn 0.6389871 -0.5473106 -0.5405059
vn -0.7534873 -0.5607449 -0.343252
vn -0.7534873 -0.5607449 -0.343252
vn -0.7534873 -0.5607449 -0.343252
vn -0.6653364 0.6530766 0.3616883
vn -0.6653364 0.6530766 0.3616883
vn -0.6653364 0.6530766 0.3616883
vn 0.7271346 0.6665102 0.1644364
vn 0.7271346 0.6665102 0.1644364
vn 0.7271346 0.6665102 0.1644364
vn 0.6389891 -0.5473095 -0.5405047
vn 0.6389891 -0.5473095 -0.5405047
vn 0.6389891 -0.5473095 -0.5405047
vn 0.992236 0 -0.1243692
vn 0.992236 0 -0.124369
vn 0.992236 0 -0.1243692
vn 0.9922361 0 -0.1243688
vn 0.9922361 0 -0.1243689
vn 0.9922361 0 -0.1243685
vn 0.992236 0 -0.1243691
vn 0.9922361 0 -0.1243689
vn 0.992236 0 -0.1243694
vn -0.9905242 0 0.1373377
vn -0.9905242 0 0.1373378
vn -0.9905242 0 0.1373379
vn -0.9905242 0 0.1373378
vn -0.9905244 0 0.1373373
vn -0.9905242 0 0.1373384
vn -0.9905242 0 0.1373378
vn -0.9905242 0 0.1373379
vn -0.9905242 0 0.1373379
vn -0.1354905 0.7135734 -0.6873538
vn -0.1354905 0.7135734 -0.6873538
vn -0.1815404 8.824958E-05 -0.9833835
vn -0.1815404 8.824958E-05 -0.9833835
vn -0.03678049 0.9993113 0.004905704
vn -0.1513136 -0.7128801 -0.6847672
vn -0.03678049 0.9993113 0.004905704
vn -0.1513136 -0.7128801 -0.6847672
vn 0.06539128 0.713985 0.6971007
vn -0.05907078 -0.9982226 0.007878624
vn 0.06539128 0.713985 0.6971007
vn -0.05907078 -0.9982226 0.007878624
vn 0.1054103 4.287639E-05 0.9944289
vn 0.04937746 -0.7135015 0.6989117
vn 0.1054103 4.287639E-05 0.9944289
vn 0.04937746 -0.7135015 0.6989117
g spike_outfit1_0
f 3/3/3 2/2/2 1/1/1
f 6/6/6 5/5/5 4/4/4
f 9/9/9 8/8/8 7/7/7
f 12/12/12 11/11/11 10/10/10
f 15/15/15 14/14/14 13/13/13
f 18/18/18 17/17/17 16/16/16
f 21/21/21 20/20/20 19/19/19
f 24/24/24 23/23/23 22/22/22
f 27/27/27 26/26/26 25/25/25
f 30/30/30 29/29/29 28/28/28
f 33/33/33 32/32/32 31/31/31
f 36/36/36 35/35/35 34/34/34
f 39/39/39 38/38/38 37/37/37
f 42/42/42 41/41/41 40/40/40
f 45/45/45 44/44/44 43/43/43
f 48/48/48 47/47/47 46/46/46
f 51/51/51 50/50/50 49/49/49
f 54/54/54 53/53/53 52/52/52
f 57/57/57 56/56/56 55/55/55
f 60/60/60 59/59/59 58/58/58
f 63/63/63 62/62/62 61/61/61
f 66/66/66 65/65/65 64/64/64
f 69/69/69 68/68/68 67/67/67
f 72/72/72 71/71/71 70/70/70
f 75/75/75 74/74/74 73/73/73
f 78/78/78 77/77/77 76/76/76
f 81/81/81 80/80/80 79/79/79
f 84/84/84 83/83/83 82/82/82
f 87/87/87 86/86/86 85/85/85
f 90/90/90 89/89/89 88/88/88
f 93/93/93 92/92/92 91/91/91
f 96/96/96 95/95/95 94/94/94
f 99/99/99 98/98/98 97/97/97
f 102/102/102 101/101/101 100/100/100
f 105/105/105 104/104/104 103/103/103
f 108/108/108 107/107/107 106/106/106
f 111/111/111 110/110/110 109/109/109
f 114/114/114 113/113/113 112/112/112
f 117/117/117 116/116/116 115/115/115
f 120/120/120 119/119/119 118/118/118
f 123/123/123 122/122/122 121/121/121
f 126/126/126 125/125/125 124/124/124
f 129/129/129 128/128/128 127/127/127
f 132/132/132 131/131/131 130/130/130
f 135/135/135 134/134/134 133/133/133
f 138/138/138 137/137/137 136/136/136
f 141/141/141 140/140/140 139/139/139
f 144/144/144 143/143/143 142/142/142
f 147/147/147 146/146/146 145/145/145
f 150/150/150 149/149/149 148/148/148
f 153/153/153 152/152/152 151/151/151
f 156/156/156 155/155/155 154/154/154
f 159/159/159 158/158/158 157/157/157
f 162/162/162 161/161/161 160/160/160
f 165/165/165 164/164/164 163/163/163
f 168/168/168 167/167/167 166/166/166
f 171/171/171 170/170/170 169/169/169
f 174/174/174 173/173/173 172/172/172
f 177/177/177 176/176/176 175/175/175
f 180/180/180 179/179/179 178/178/178
f 183/183/183 182/182/182 181/181/181
f 186/186/186 185/185/185 184/184/184
f 189/189/189 188/188/188 187/187/187
f 192/192/192 191/191/191 190/190/190
f 195/195/195 194/194/194 193/193/193
f 193/193/193 194/194/194 196/196/196
f 197/197/197 194/194/194 195/195/195
f 196/196/196 194/194/194 198/198/198
f 199/199/199 194/194/194 197/197/197
f 198/198/198 194/194/194 200/200/200
f 201/201/201 194/194/194 199/199/199
f 200/200/200 194/194/194 201/201/201
f 204/204/204 203/203/203 202/202/202
f 202/202/202 203/203/203 205/205/205
f 206/206/206 203/203/203 204/204/204
f 205/205/205 203/203/203 207/207/207
f 208/208/208 203/203/203 206/206/206
f 207/207/207 203/203/203 209/209/209
f 210/210/210 203/203/203 208/208/208
f 209/209/209 203/203/203 210/210/210
f 213/213/213 212/212/212 211/211/211
f 214/214/214 213/213/213 211/211/211
f 211/211/211 212/212/212 215/215/215
f 216/216/216 213/213/213 214/214/214
f 212/212/212 217/217/217 215/215/215
f 218/218/218 216/216/216 214/214/214
f 215/215/215 217/217/217 219/219/219
f 220/220/220 216/216/216 218/218/218
f 217/217/217 221/221/221 219/219/219
f 222/222/222 220/220/220 218/218/218
f 219/219/219 221/221/221 223/223/223
f 224/224/224 220/220/220 222/222/222
f 221/221/221 225/225/225 223/223/223
f 226/226/226 224/224/224 222/222/222
f 223/223/223 225/225/225 226/226/226
f 225/225/225 224/224/224 226/226/226
