g StarterPack_SoundWaves_04
v -2.955875 -0.7877738 -3.700194
v -2.947075 -0.75493 -3.45065
v -3.048619 -1.133899 -3.053154
v -2.852911 -0.403517 -4.058044
v -2.845785 -0.3769281 -3.639968
v -2.744788 3.814697E-06 -4.156322
v -2.744788 3.814697E-06 -3.714519
v -2.636672 0.4035168 -4.058044
v -2.64379 0.3769279 -3.639968
v -2.533708 0.7877736 -3.700194
v -2.542508 0.7549295 -3.45065
v -2.440964 1.133899 -3.053154
v -2.955875 -0.7877738 3.700193
v -3.048619 -1.133899 3.053154
v -2.947075 -0.75493 3.45065
v -2.852911 -0.403517 4.058044
v -2.845785 -0.3769281 3.639968
v -2.744788 3.814697E-06 4.156322
v -2.744788 3.814697E-06 3.714519
v -2.636672 0.4035168 4.058044
v -2.64379 0.3769279 3.639968
v -2.533708 0.7877736 3.700193
v -2.542508 0.7549295 3.45065
v -2.440964 1.133899 3.053154
v 1.059158 -0.9386513 -2.222052
v 1.093152 -0.8740654 -1.981015
v 0.7008164 -0.7711895 -1.597059
v 1.456963 -1.031269 -2.567702
v 1.484496 -0.9230657 -2.16388
v 1.874722 -1.056709 -2.662634
v 1.874722 -0.9423614 -2.235894
v 2.292473 -1.031269 -2.567702
v 2.26494 -0.9230657 -2.16388
v 2.690286 -0.9386513 -2.222052
v 2.656284 -0.8740654 -1.981015
v 3.04862 -0.7711895 -1.597059
v 1.059158 -0.9386513 2.222052
v 0.7008164 -0.7711895 1.597059
v 1.093152 -0.8740654 1.981014
v 1.456963 -1.031269 2.567709
v 1.484496 -0.9230657 2.163879
v 1.874722 -1.056709 2.662634
v 1.874722 -0.9423614 2.235894
v 2.292473 -1.031269 2.567709
v 2.26494 -0.9230657 2.163879
v 2.690286 -0.9386513 2.222052
v 2.656284 -0.8740654 1.981014
v 3.04862 -0.7711895 1.597059
v -2.955875 -0.7877738 -3.700194
v -3.048619 -1.133899 -3.053154
v -2.947075 -0.75493 -3.45065
v -2.852911 -0.403517 -4.058044
v -2.845785 -0.3769281 -3.639968
v -2.744788 3.814697E-06 -4.156322
v -2.744788 3.814697E-06 -3.714519
v -2.636672 0.4035168 -4.058044
v -2.64379 0.3769279 -3.639968
v -2.533708 0.7877736 -3.700194
v -2.542508 0.7549295 -3.45065
v -2.440964 1.133899 -3.053154
v -2.955875 -0.7877738 3.700193
v -2.947075 -0.75493 3.45065
v -3.048619 -1.133899 3.053154
v -2.852911 -0.403517 4.058044
v -2.845785 -0.3769281 3.639968
v -2.744788 3.814697E-06 4.156322
v -2.744788 3.814697E-06 3.714519
v -2.636672 0.4035168 4.058044
v -2.64379 0.3769279 3.639968
v -2.533708 0.7877736 3.700193
v -2.542508 0.7549295 3.45065
v -2.440964 1.133899 3.053154
v 1.059158 -0.9386513 -2.222052
v 0.7008164 -0.7711895 -1.597059
v 1.093152 -0.8740654 -1.981015
v 1.456963 -1.031269 -2.567702
v 1.484496 -0.9230657 -2.16388
v 1.874722 -1.056709 -2.662634
v 1.874722 -0.9423614 -2.235894
v 2.292473 -1.031269 -2.567702
v 2.26494 -0.9230657 -2.16388
v 2.690286 -0.9386513 -2.222052
v 2.656284 -0.8740654 -1.981015
v 3.04862 -0.7711895 -1.597059
v 1.059158 -0.9386513 2.222052
v 1.093152 -0.8740654 1.981014
v 0.7008164 -0.7711895 1.597059
v 1.456963 -1.031269 2.567709
v 1.484496 -0.9230657 2.163879
v 1.874722 -1.056709 2.662634
v 1.874722 -0.9423614 2.235894
v 2.292473 -1.031269 2.567709
v 2.26494 -0.9230657 2.163879
v 2.690286 -0.9386513 2.222052
v 2.656284 -0.8740654 1.981014
v 3.04862 -0.7711895 1.597059
vt 0.6212322 0.09751792
vt 0.6212159 0.1013875
vt 0.6230775 0.1074844
vt 0.6196307 0.09188431
vt 0.6196064 0.09845278
vt 0.6181105 0.09032348
vt 0.6180943 0.09729029
vt 0.616574 0.09188431
vt 0.616574 0.09845278
vt 0.6149564 0.09751792
vt 0.6149645 0.1013875
vt 0.6130785 0.1074844
vt 0.6212322 0.09751792
vt 0.6230775 0.1074844
vt 0.6212159 0.1013875
vt 0.6196307 0.09188431
vt 0.6196064 0.09845278
vt 0.6181105 0.09032348
vt 0.6180943 0.09729029
vt 0.616574 0.09188431
vt 0.616574 0.09845278
vt 0.6149564 0.09751792
vt 0.6149645 0.1013875
vt 0.6130785 0.1074844
vt 0.6212322 0.09751792
vt 0.6212159 0.1013875
vt 0.6230775 0.1074844
vt 0.6196307 0.09188431
vt 0.6196064 0.09845278
vt 0.6181105 0.09032348
vt 0.6180943 0.09729029
vt 0.616574 0.09188431
vt 0.616574 0.09845278
vt 0.6149564 0.09751792
vt 0.6149645 0.1013875
vt 0.6130785 0.1074844
vt 0.6212322 0.09751792
vt 0.6230775 0.1074844
vt 0.6212159 0.1013875
vt 0.6196307 0.09188431
vt 0.6196064 0.09845278
vt 0.6181105 0.09032348
vt 0.6180943 0.09729029
vt 0.616574 0.09188431
vt 0.616574 0.09845278
vt 0.6149564 0.09751792
vt 0.6149645 0.1013875
vt 0.6130785 0.1074844
vt 0.6212322 0.09751792
vt 0.6230775 0.1074844
vt 0.6212159 0.1013875
vt 0.6196307 0.09188431
vt 0.6196064 0.09845278
vt 0.6181105 0.09032348
vt 0.6180943 0.09729029
vt 0.616574 0.09188431
vt 0.616574 0.09845278
vt 0.6149564 0.09751792
vt 0.6149645 0.1013875
vt 0.6130785 0.1074844
vt 0.6212322 0.09751792
vt 0.6212159 0.1013875
vt 0.6230775 0.1074844
vt 0.6196307 0.09188431
vt 0.6196064 0.09845278
vt 0.6181105 0.09032348
vt 0.6180943 0.09729029
vt 0.616574 0.09188431
vt 0.616574 0.09845278
vt 0.6149564 0.09751792
vt 0.6149645 0.1013875
vt 0.6130785 0.1074844
vt 0.6212322 0.09751792
vt 0.6230775 0.1074844
vt 0.6212159 0.1013875
vt 0.6196307 0.09188431
vt 0.6196064 0.09845278
vt 0.6181105 0.09032348
vt 0.6180943 0.09729029
vt 0.616574 0.09188431
vt 0.616574 0.09845278
vt 0.6149564 0.09751792
vt 0.6149645 0.1013875
vt 0.6130785 0.1074844
vt 0.6212322 0.09751792
vt 0.6212159 0.1013875
vt 0.6230775 0.1074844
vt 0.6196307 0.09188431
vt 0.6196064 0.09845278
vt 0.6181105 0.09032348
vt 0.6180943 0.09729029
vt 0.616574 0.09188431
vt 0.616574 0.09845278
vt 0.6149564 0.09751792
vt 0.6149645 0.1013875
vt 0.6130785 0.1074844
vn -0.9657159 0.259601 0
vn -0.9657159 0.259601 0
vn -0.9657159 0.259601 0
vn -0.9657159 0.259601 0
vn -0.9657159 0.259601 0
vn -0.9657159 0.259601 0
vn -0.9657159 0.259601 0
vn -0.9657159 0.259601 0
vn -0.9657159 0.259601 0
vn -0.9657159 0.259601 0
vn -0.9657159 0.259601 0
vn -0.9657159 0.259601 0
vn -0.9657159 0.259601 0
vn -0.9657159 0.259601 0
vn -0.9657159 0.259601 0
vn -0.9657159 0.259601 0
vn -0.9657159 0.259601 0
vn -0.9657159 0.259601 0
vn -0.9657159 0.259601 0
vn -0.9657159 0.259601 0
vn -0.9657159 0.259601 0
vn -0.9657159 0.259601 0
vn -0.9657159 0.259601 0
vn -0.9657159 0.259601 0
vn -0.0009441972 0.9659261 -0.2588165
vn -0.0009441972 0.9659261 -0.2588165
vn -0.0009441972 0.9659261 -0.2588165
vn -0.0009441972 0.9659261 -0.2588165
vn -0.0009441972 0.9659261 -0.2588165
vn -0.0009441972 0.9659261 -0.2588165
vn -0.0009441972 0.9659261 -0.2588165
vn -0.0009441972 0.9659261 -0.2588165
vn -0.0009441972 0.9659261 -0.2588165
vn -0.0009441972 0.9659261 -0.2588165
vn -0.0009441972 0.9659261 -0.2588165
vn -0.0009441972 0.9659261 -0.2588165
vn -0.0009441972 0.9659261 0.2588165
vn -0.0009441972 0.9659261 0.2588165
vn -0.0009441972 0.9659261 0.2588165
vn -0.0009441972 0.9659261 0.2588165
vn -0.0009441972 0.9659261 0.2588165
vn -0.0009441972 0.9659261 0.2588165
vn -0.0009441972 0.9659261 0.2588165
vn -0.0009441972 0.9659261 0.2588165
vn -0.0009441972 0.9659261 0.2588165
vn -0.0009441972 0.9659261 0.2588165
vn -0.0009441972 0.9659261 0.2588165
vn -0.0009441972 0.9659261 0.2588165
vn 0.9657159 -0.2596011 0
vn 0.9657159 -0.2596011 0
vn 0.9657159 -0.2596011 0
vn 0.9657159 -0.2596011 0
vn 0.9657159 -0.2596011 0
vn 0.9657159 -0.2596011 0
vn 0.9657159 -0.2596011 0
vn 0.9657159 -0.2596011 0
vn 0.9657159 -0.2596011 0
vn 0.9657159 -0.2596011 0
vn 0.9657159 -0.2596011 0
vn 0.9657159 -0.2596011 0
vn 0.9657159 -0.2596011 0
vn 0.9657159 -0.2596011 0
vn 0.9657159 -0.2596011 0
vn 0.9657159 -0.2596011 0
vn 0.9657159 -0.2596011 0
vn 0.9657159 -0.2596011 0
vn 0.9657159 -0.2596011 0
vn 0.9657159 -0.2596011 0
vn 0.9657159 -0.2596011 0
vn 0.9657159 -0.2596011 0
vn 0.9657159 -0.2596011 0
vn 0.9657159 -0.2596011 0
vn -0.0009441972 -0.9659261 0.2588165
vn -0.0009441972 -0.9659261 0.2588165
vn -0.0009441972 -0.9659261 0.2588165
vn -0.0009441972 -0.9659261 0.2588165
vn -0.0009441972 -0.9659261 0.2588165
vn -0.0009441972 -0.9659261 0.2588165
vn -0.0009441972 -0.9659261 0.2588165
vn -0.0009441972 -0.9659261 0.2588165
vn -0.0009441972 -0.9659261 0.2588165
vn -0.0009441972 -0.9659261 0.2588165
vn -0.0009441972 -0.9659261 0.2588165
vn -0.0009441972 -0.9659261 0.2588165
vn -0.0009441972 -0.9659261 -0.2588165
vn -0.0009441972 -0.9659261 -0.2588165
vn -0.0009441972 -0.9659261 -0.2588165
vn -0.0009441972 -0.9659261 -0.2588165
vn -0.0009441972 -0.9659261 -0.2588165
vn -0.0009441972 -0.9659261 -0.2588165
vn -0.0009441972 -0.9659261 -0.2588165
vn -0.0009441972 -0.9659261 -0.2588165
vn -0.0009441972 -0.9659261 -0.2588165
vn -0.0009441972 -0.9659261 -0.2588165
vn -0.0009441972 -0.9659261 -0.2588165
vn -0.0009441972 -0.9659261 -0.2588165
g StarterPack_SoundWaves_04_0
f 3/3/3 2/2/2 1/1/1
f 1/1/1 2/2/2 4/4/4
f 2/2/2 5/5/5 4/4/4
f 4/4/4 5/5/5 6/6/6
f 5/5/5 7/7/7 6/6/6
f 6/6/6 7/7/7 8/8/8
f 7/7/7 9/9/9 8/8/8
f 8/8/8 9/9/9 10/10/10
f 9/9/9 11/11/11 10/10/10
f 10/10/10 11/11/11 12/12/12
f 15/15/15 14/14/14 13/13/13
f 15/15/15 13/13/13 16/16/16
f 17/17/17 15/15/15 16/16/16
f 17/17/17 16/16/16 18/18/18
f 19/19/19 17/17/17 18/18/18
f 19/19/19 18/18/18 20/20/20
f 21/21/21 19/19/19 20/20/20
f 21/21/21 20/20/20 22/22/22
f 23/23/23 21/21/21 22/22/22
f 23/23/23 22/22/22 24/24/24
f 27/27/27 26/26/26 25/25/25
f 25/25/25 26/26/26 28/28/28
f 26/26/26 29/29/29 28/28/28
f 28/28/28 29/29/29 30/30/30
f 29/29/29 31/31/31 30/30/30
f 30/30/30 31/31/31 32/32/32
f 31/31/31 33/33/33 32/32/32
f 32/32/32 33/33/33 34/34/34
f 33/33/33 35/35/35 34/34/34
f 34/34/34 35/35/35 36/36/36
f 39/39/39 38/38/38 37/37/37
f 39/39/39 37/37/37 40/40/40
f 41/41/41 39/39/39 40/40/40
f 41/41/41 40/40/40 42/42/42
f 43/43/43 41/41/41 42/42/42
f 43/43/43 42/42/42 44/44/44
f 45/45/45 43/43/43 44/44/44
f 45/45/45 44/44/44 46/46/46
f 47/47/47 45/45/45 46/46/46
f 47/47/47 46/46/46 48/48/48
f 51/51/51 50/50/50 49/49/49
f 51/51/51 49/49/49 52/52/52
f 53/53/53 51/51/51 52/52/52
f 53/53/53 52/52/52 54/54/54
f 55/55/55 53/53/53 54/54/54
f 55/55/55 54/54/54 56/56/56
f 57/57/57 55/55/55 56/56/56
f 57/57/57 56/56/56 58/58/58
f 59/59/59 57/57/57 58/58/58
f 59/59/59 58/58/58 60/60/60
f 63/63/63 62/62/62 61/61/61
f 61/61/61 62/62/62 64/64/64
f 62/62/62 65/65/65 64/64/64
f 64/64/64 65/65/65 66/66/66
f 65/65/65 67/67/67 66/66/66
f 66/66/66 67/67/67 68/68/68
f 67/67/67 69/69/69 68/68/68
f 68/68/68 69/69/69 70/70/70
f 69/69/69 71/71/71 70/70/70
f 70/70/70 71/71/71 72/72/72
f 75/75/75 74/74/74 73/73/73
f 75/75/75 73/73/73 76/76/76
f 77/77/77 75/75/75 76/76/76
f 77/77/77 76/76/76 78/78/78
f 79/79/79 77/77/77 78/78/78
f 79/79/79 78/78/78 80/80/80
f 81/81/81 79/79/79 80/80/80
f 81/81/81 80/80/80 82/82/82
f 83/83/83 81/81/81 82/82/82
f 83/83/83 82/82/82 84/84/84
f 87/87/87 86/86/86 85/85/85
f 85/85/85 86/86/86 88/88/88
f 86/86/86 89/89/89 88/88/88
f 88/88/88 89/89/89 90/90/90
f 89/89/89 91/91/91 90/90/90
f 90/90/90 91/91/91 92/92/92
f 91/91/91 93/93/93 92/92/92
f 92/92/92 93/93/93 94/94/94
f 93/93/93 95/95/95 94/94/94
f 94/94/94 95/95/95 96/96/96
