g StarterPack_SoundWaves_07
v -3.175047 -1.060627 -4.444428
v -3.162435 -1.013537 -4.145612
v -3.29669 -1.514611 -3.669611
v -3.036957 -0.5452747 -4.87294
v -3.026743 -0.5071421 -4.372313
v -2.890852 4.768372E-06 -4.990632
v -2.890852 4.768372E-06 -4.461591
v -2.744746 0.5452752 -4.87294
v -2.75497 0.5071425 -4.372313
v -2.606656 1.060627 -4.444428
v -2.619278 1.013537 -4.145612
v -2.485014 1.514612 -3.669611
v -3.175047 -1.060627 4.444429
v -3.29669 -1.514611 3.669611
v -3.162435 -1.013537 4.145612
v -3.036957 -0.5452747 4.872941
v -3.026743 -0.5071421 4.372314
v -2.890852 4.768372E-06 4.990632
v -2.890852 4.768372E-06 4.461591
v -2.744746 0.5452752 4.872941
v -2.75497 0.5071425 4.372314
v -2.606656 1.060627 4.444429
v -2.619278 1.013537 4.145612
v -2.485014 1.514612 3.669611
v 0.6306114 -1.131276 -2.94093
v 0.6793675 -1.053936 -2.652289
v 0.1606169 -0.9307423 -2.192518
v 1.164145 -1.242181 -3.35484
v 1.20362 -1.11261 -2.871271
v 1.728653 -1.272641 -3.468514
v 1.728653 -1.135712 -2.957503
v 2.29317 -1.242181 -3.35484
v 2.253686 -1.11261 -2.871271
v 2.826704 -1.131276 -2.94093
v 2.777948 -1.053936 -2.652289
v 3.296689 -0.9307423 -2.192518
v 0.6306114 -1.131276 2.940931
v 0.1606169 -0.9307423 2.192518
v 0.6793675 -1.053936 2.652289
v 1.164145 -1.242181 3.35484
v 1.20362 -1.11261 2.871272
v 1.728653 -1.272641 3.468515
v 1.728653 -1.135712 2.957503
v 2.29317 -1.242181 3.35484
v 2.253686 -1.11261 2.871272
v 2.826704 -1.131276 2.940931
v 2.777948 -1.053936 2.652289
v 3.296689 -0.9307423 2.192518
v -3.175047 -1.060627 -4.444428
v -3.29669 -1.514611 -3.669611
v -3.162435 -1.013537 -4.145612
v -3.036957 -0.5452747 -4.87294
v -3.026743 -0.5071421 -4.372313
v -2.890852 4.768372E-06 -4.990632
v -2.890852 4.768372E-06 -4.461591
v -2.744746 0.5452752 -4.87294
v -2.75497 0.5071425 -4.372313
v -2.606656 1.060627 -4.444428
v -2.619278 1.013537 -4.145612
v -2.485014 1.514612 -3.669611
v -3.175047 -1.060627 4.444429
v -3.162435 -1.013537 4.145612
v -3.29669 -1.514611 3.669611
v -3.036957 -0.5452747 4.872941
v -3.026743 -0.5071421 4.372314
v -2.890852 4.768372E-06 4.990632
v -2.890852 4.768372E-06 4.461591
v -2.744746 0.5452752 4.872941
v -2.75497 0.5071425 4.372314
v -2.606656 1.060627 4.444429
v -2.619278 1.013537 4.145612
v -2.485014 1.514612 3.669611
v 0.6306114 -1.131276 -2.94093
v 0.1606169 -0.9307423 -2.192518
v 0.6793675 -1.053936 -2.652289
v 1.164145 -1.242181 -3.35484
v 1.20362 -1.11261 -2.871271
v 1.728653 -1.272641 -3.468514
v 1.728653 -1.135712 -2.957503
v 2.29317 -1.242181 -3.35484
v 2.253686 -1.11261 -2.871271
v 2.826704 -1.131276 -2.94093
v 2.777948 -1.053936 -2.652289
v 3.296689 -0.9307423 -2.192518
v 0.6306114 -1.131276 2.940931
v 0.6793675 -1.053936 2.652289
v 0.1606169 -0.9307423 2.192518
v 1.164145 -1.242181 3.35484
v 1.20362 -1.11261 2.871272
v 1.728653 -1.272641 3.468515
v 1.728653 -1.135712 2.957503
v 2.29317 -1.242181 3.35484
v 2.253686 -1.11261 2.871272
v 2.826704 -1.131276 2.940931
v 2.777948 -1.053936 2.652289
v 3.296689 -0.9307423 2.192518
vt 0.6212485 0.09755856
vt 0.6212159 0.1014444
vt 0.6230775 0.1075332
vt 0.6196388 0.09190056
vt 0.6196145 0.09850156
vt 0.6181105 0.09032348
vt 0.6180943 0.09733907
vt 0.6165659 0.09190056
vt 0.616574 0.09850156
vt 0.6149483 0.09755856
vt 0.6149564 0.1014444
vt 0.6130785 0.1075332
vt 0.6212485 0.09755856
vt 0.6230775 0.1075332
vt 0.6212159 0.1014444
vt 0.6196388 0.09190056
vt 0.6196145 0.09850156
vt 0.6181105 0.09032348
vt 0.6180943 0.09733907
vt 0.6165659 0.09190056
vt 0.616574 0.09850156
vt 0.6149483 0.09755856
vt 0.6149564 0.1014444
vt 0.6130785 0.1075332
vt 0.6212485 0.09755856
vt 0.6212159 0.1014444
vt 0.6230775 0.1075332
vt 0.6196388 0.09190056
vt 0.6196145 0.09850156
vt 0.6181105 0.09032348
vt 0.6180943 0.09733907
vt 0.6165659 0.09190056
vt 0.616574 0.09850156
vt 0.6149483 0.09755856
vt 0.6149564 0.1014444
vt 0.6130785 0.1075332
vt 0.6212485 0.09755856
vt 0.6230775 0.1075332
vt 0.6212159 0.1014444
vt 0.6196388 0.09190056
vt 0.6196145 0.09850156
vt 0.6181105 0.09032348
vt 0.6180943 0.09733907
vt 0.6165659 0.09190056
vt 0.616574 0.09850156
vt 0.6149483 0.09755856
vt 0.6149564 0.1014444
vt 0.6130785 0.1075332
vt 0.6212485 0.09755856
vt 0.6230775 0.1075332
vt 0.6212159 0.1014444
vt 0.6196388 0.09190056
vt 0.6196145 0.09850156
vt 0.6181105 0.09032348
vt 0.6180943 0.09733907
vt 0.6165659 0.09190056
vt 0.616574 0.09850156
vt 0.6149483 0.09755856
vt 0.6149564 0.1014444
vt 0.6130785 0.1075332
vt 0.6212485 0.09755856
vt 0.6212159 0.1014444
vt 0.6230775 0.1075332
vt 0.6196388 0.09190056
vt 0.6196145 0.09850156
vt 0.6181105 0.09032348
vt 0.6180943 0.09733907
vt 0.6165659 0.09190056
vt 0.616574 0.09850156
vt 0.6149483 0.09755856
vt 0.6149564 0.1014444
vt 0.6130785 0.1075332
vt 0.6212485 0.09755856
vt 0.6230775 0.1075332
vt 0.6212159 0.1014444
vt 0.6196388 0.09190056
vt 0.6196145 0.09850156
vt 0.6181105 0.09032348
vt 0.6180943 0.09733907
vt 0.6165659 0.09190056
vt 0.616574 0.09850156
vt 0.6149483 0.09755856
vt 0.6149564 0.1014444
vt 0.6130785 0.1075332
vt 0.6212485 0.09755856
vt 0.6212159 0.1014444
vt 0.6230775 0.1075332
vt 0.6196388 0.09190056
vt 0.6196145 0.09850156
vt 0.6181105 0.09032348
vt 0.6180943 0.09733907
vt 0.6165659 0.09190056
vt 0.616574 0.09850156
vt 0.6149483 0.09755856
vt 0.6149564 0.1014444
vt 0.6130785 0.1075332
vn -0.9657159 0.259601 0
vn -0.9657159 0.259601 0
vn -0.9657159 0.259601 0
vn -0.9657159 0.259601 0
vn -0.9657159 0.259601 0
vn -0.9657159 0.259601 0
vn -0.9657159 0.259601 0
vn -0.9657159 0.259601 0
vn -0.9657159 0.259601 0
vn -0.9657159 0.259601 0
vn -0.9657159 0.259601 0
vn -0.9657159 0.259601 0
vn -0.9657159 0.259601 0
vn -0.9657159 0.259601 0
vn -0.9657159 0.259601 0
vn -0.9657159 0.259601 0
vn -0.9657159 0.259601 0
vn -0.9657159 0.259601 0
vn -0.9657159 0.259601 0
vn -0.9657159 0.259601 0
vn -0.9657159 0.259601 0
vn -0.9657159 0.259601 0
vn -0.9657159 0.259601 0
vn -0.9657159 0.259601 0
vn -0.0009441972 0.9659261 -0.2588165
vn -0.0009441972 0.9659261 -0.2588165
vn -0.0009441972 0.9659261 -0.2588165
vn -0.0009441972 0.9659261 -0.2588165
vn -0.0009441972 0.9659261 -0.2588165
vn -0.0009441972 0.9659261 -0.2588165
vn -0.0009441972 0.9659261 -0.2588165
vn -0.0009441972 0.9659261 -0.2588165
vn -0.0009441972 0.9659261 -0.2588165
vn -0.0009441972 0.9659261 -0.2588165
vn -0.0009441972 0.9659261 -0.2588165
vn -0.0009441972 0.9659261 -0.2588165
vn -0.0009441972 0.9659261 0.2588165
vn -0.0009441972 0.9659261 0.2588165
vn -0.0009441972 0.9659261 0.2588165
vn -0.0009441972 0.9659261 0.2588165
vn -0.0009441972 0.9659261 0.2588165
vn -0.0009441972 0.9659261 0.2588165
vn -0.0009441972 0.9659261 0.2588165
vn -0.0009441972 0.9659261 0.2588165
vn -0.0009441972 0.9659261 0.2588165
vn -0.0009441972 0.9659261 0.2588165
vn -0.0009441972 0.9659261 0.2588165
vn -0.0009441972 0.9659261 0.2588165
vn 0.9657159 -0.2596011 0
vn 0.9657159 -0.2596011 0
vn 0.9657159 -0.2596011 0
vn 0.9657159 -0.2596011 0
vn 0.9657159 -0.2596011 0
vn 0.9657159 -0.2596011 0
vn 0.9657159 -0.2596011 0
vn 0.9657159 -0.2596011 0
vn 0.9657159 -0.2596011 0
vn 0.9657159 -0.2596011 0
vn 0.9657159 -0.2596011 0
vn 0.9657159 -0.2596011 0
vn 0.9657159 -0.2596011 0
vn 0.9657159 -0.2596011 0
vn 0.9657159 -0.2596011 0
vn 0.9657159 -0.2596011 0
vn 0.9657159 -0.2596011 0
vn 0.9657159 -0.2596011 0
vn 0.9657159 -0.2596011 0
vn 0.9657159 -0.2596011 0
vn 0.9657159 -0.2596011 0
vn 0.9657159 -0.2596011 0
vn 0.9657159 -0.2596011 0
vn 0.9657159 -0.2596011 0
vn -0.0009441972 -0.9659261 0.2588165
vn -0.0009441972 -0.9659261 0.2588165
vn -0.0009441972 -0.9659261 0.2588165
vn -0.0009441972 -0.9659261 0.2588165
vn -0.0009441972 -0.9659261 0.2588165
vn -0.0009441972 -0.9659261 0.2588165
vn -0.0009441972 -0.9659261 0.2588165
vn -0.0009441972 -0.9659261 0.2588165
vn -0.0009441972 -0.9659261 0.2588165
vn -0.0009441972 -0.9659261 0.2588165
vn -0.0009441972 -0.9659261 0.2588165
vn -0.0009441972 -0.9659261 0.2588165
vn -0.0009441972 -0.9659261 -0.2588165
vn -0.0009441972 -0.9659261 -0.2588165
vn -0.0009441972 -0.9659261 -0.2588165
vn -0.0009441972 -0.9659261 -0.2588165
vn -0.0009441972 -0.9659261 -0.2588165
vn -0.0009441972 -0.9659261 -0.2588165
vn -0.0009441972 -0.9659261 -0.2588165
vn -0.0009441972 -0.9659261 -0.2588165
vn -0.0009441972 -0.9659261 -0.2588165
vn -0.0009441972 -0.9659261 -0.2588165
vn -0.0009441972 -0.9659261 -0.2588165
vn -0.0009441972 -0.9659261 -0.2588165
g StarterPack_SoundWaves_07_0
f 3/3/3 2/2/2 1/1/1
f 1/1/1 2/2/2 4/4/4
f 2/2/2 5/5/5 4/4/4
f 4/4/4 5/5/5 6/6/6
f 5/5/5 7/7/7 6/6/6
f 6/6/6 7/7/7 8/8/8
f 7/7/7 9/9/9 8/8/8
f 8/8/8 9/9/9 10/10/10
f 9/9/9 11/11/11 10/10/10
f 10/10/10 11/11/11 12/12/12
f 15/15/15 14/14/14 13/13/13
f 15/15/15 13/13/13 16/16/16
f 17/17/17 15/15/15 16/16/16
f 17/17/17 16/16/16 18/18/18
f 19/19/19 17/17/17 18/18/18
f 19/19/19 18/18/18 20/20/20
f 21/21/21 19/19/19 20/20/20
f 21/21/21 20/20/20 22/22/22
f 23/23/23 21/21/21 22/22/22
f 23/23/23 22/22/22 24/24/24
f 27/27/27 26/26/26 25/25/25
f 25/25/25 26/26/26 28/28/28
f 26/26/26 29/29/29 28/28/28
f 28/28/28 29/29/29 30/30/30
f 29/29/29 31/31/31 30/30/30
f 30/30/30 31/31/31 32/32/32
f 31/31/31 33/33/33 32/32/32
f 32/32/32 33/33/33 34/34/34
f 33/33/33 35/35/35 34/34/34
f 34/34/34 35/35/35 36/36/36
f 39/39/39 38/38/38 37/37/37
f 39/39/39 37/37/37 40/40/40
f 41/41/41 39/39/39 40/40/40
f 41/41/41 40/40/40 42/42/42
f 43/43/43 41/41/41 42/42/42
f 43/43/43 42/42/42 44/44/44
f 45/45/45 43/43/43 44/44/44
f 45/45/45 44/44/44 46/46/46
f 47/47/47 45/45/45 46/46/46
f 47/47/47 46/46/46 48/48/48
f 51/51/51 50/50/50 49/49/49
f 51/51/51 49/49/49 52/52/52
f 53/53/53 51/51/51 52/52/52
f 53/53/53 52/52/52 54/54/54
f 55/55/55 53/53/53 54/54/54
f 55/55/55 54/54/54 56/56/56
f 57/57/57 55/55/55 56/56/56
f 57/57/57 56/56/56 58/58/58
f 59/59/59 57/57/57 58/58/58
f 59/59/59 58/58/58 60/60/60
f 63/63/63 62/62/62 61/61/61
f 61/61/61 62/62/62 64/64/64
f 62/62/62 65/65/65 64/64/64
f 64/64/64 65/65/65 66/66/66
f 65/65/65 67/67/67 66/66/66
f 66/66/66 67/67/67 68/68/68
f 67/67/67 69/69/69 68/68/68
f 68/68/68 69/69/69 70/70/70
f 69/69/69 71/71/71 70/70/70
f 70/70/70 71/71/71 72/72/72
f 75/75/75 74/74/74 73/73/73
f 75/75/75 73/73/73 76/76/76
f 77/77/77 75/75/75 76/76/76
f 77/77/77 76/76/76 78/78/78
f 79/79/79 77/77/77 78/78/78
f 79/79/79 78/78/78 80/80/80
f 81/81/81 79/79/79 80/80/80
f 81/81/81 80/80/80 82/82/82
f 83/83/83 81/81/81 82/82/82
f 83/83/83 82/82/82 84/84/84
f 87/87/87 86/86/86 85/85/85
f 85/85/85 86/86/86 88/88/88
f 86/86/86 89/89/89 88/88/88
f 88/88/88 89/89/89 90/90/90
f 89/89/89 91/91/91 90/90/90
f 90/90/90 91/91/91 92/92/92
f 91/91/91 93/93/93 92/92/92
f 92/92/92 93/93/93 94/94/94
f 93/93/93 95/95/95 94/94/94
f 94/94/94 95/95/95 96/96/96
