g TagBotMeshesEXP_tagBot_propHat_Outfit0
v 0.9377705 -0.0868876 0.435123
v 0.7599537 -0.2249947 1.215884
v 0.7696537 -0.0841496 1.279825
v -0.8143177 -0.7702498 0.1685832
v -0.9148426 -0.7471136 1.023442
v -0.7999945 -0.833418 0.9785755
v 0.6537388 0.02453232 0.6601191
v 0.6083677 0.7365808 0.2119066
v 0.9377705 -0.0868876 0.435123
v 0.3566787 0.8334181 0.3427435
v -0.01130152 0.7965548 0.474576
v 0.2335025 0.02359116 0.8145885
v -0.1708306 -0.04428589 0.8453085
v -0.3952963 0.6610973 0.5123549
v -0.744889 0.5104353 0.3629792
v -0.4916657 -0.2592427 0.7042696
v -0.7452028 -0.5270544 0.447173
v -0.9934549 0.3068271 0.1373498
v -1.07193 0.0812149 -0.04371548
v -0.8143177 -0.7702498 0.1685832
v 0.5057151 -0.005357623 0.4625801
v 0.9377705 -0.0868876 0.435123
v 1.040486 -0.02764678 0.1033158
v 0.4145677 -0.1699749 1.359273
v 0.7599537 -0.2249947 1.215884
v 0.1297547 -0.169587 1.429903
v -0.05010712 -0.2042713 0.4619212
v -0.1810184 -0.2485558 1.436003
v -0.4429435 -0.376806 1.363882
v -0.5723457 -0.4258307 0.298576
v -0.6415691 -0.5485079 1.217402
v -0.8143177 -0.7702498 0.1685832
v -0.822118 -0.7848896 -0.1709247
v -0.7999945 -0.833418 0.9785755
v 0.7696537 -0.0841496 1.279825
v 0.6537388 0.02453232 0.6601191
v 0.9377705 -0.0868876 0.435123
v 0.4329352 -0.03721547 1.401764
v 0.2335025 0.02359116 0.8145885
v 0.1201203 -0.03554988 1.491668
v -0.1708306 -0.04428589 0.8453085
v -0.240416 -0.1194015 1.495318
v -0.5319886 -0.2719601 1.397751
v -0.4916657 -0.2592427 0.7042696
v -0.7477269 -0.4607546 1.236183
v -0.7452028 -0.5270544 0.447173
v -0.9148426 -0.7471136 1.023442
v -0.8143177 -0.7702498 0.1685832
v 0.7696537 -0.0841496 1.279825
v 0.7599537 -0.2249947 1.215884
v 0.4145677 -0.1699749 1.359273
v 0.4329352 -0.03721547 1.401764
v 0.1201203 -0.03554988 1.491668
v 0.1297547 -0.169587 1.429903
v -0.1810184 -0.2485558 1.436003
v -0.240416 -0.1194015 1.495318
v -0.5319886 -0.2719601 1.397751
v -0.4429435 -0.376806 1.363882
v -0.7477269 -0.4607546 1.236183
v -0.6415691 -0.5485079 1.217402
v -0.9148426 -0.7471136 1.023442
v -0.7999945 -0.833418 0.9785755
v 0.6083677 0.7365808 0.2119066
v 1.040486 -0.02764678 0.1033158
v 0.9377705 -0.0868876 0.435123
v 0.7141006 0.7143974 -0.2926008
v 1.07193 -0.0282228 -0.5958242
v 0.6360245 0.5998714 -0.9235471
v 1.007248 -0.05594802 -1.033632
v 0.4324361 0.4580253 -1.230204
v 0.7096 -0.149725 -1.32978
v 0.0298543 0.3294472 -1.392614
v 0.2918022 -0.3021096 -1.495318
v -0.3871535 0.1564504 -1.362724
v -0.1486784 -0.4655347 -1.468554
v -0.7086818 0.07078481 -1.129252
v -0.4921107 -0.5807452 -1.252593
v -0.7638612 -0.6941102 -0.8470482
v -0.999356 0.04179323 -0.5533565
v -0.822118 -0.7848896 -0.1709247
v -1.07193 0.0812149 -0.04371548
v -0.8143177 -0.7702498 0.1685832
v 0.3566787 0.8334181 0.3427435
v 0.7141006 0.7143974 -0.2926008
v 0.6083677 0.7365808 0.2119066
v 0.4595253 0.8236954 -0.3893838
v 0.6360245 0.5998714 -0.9235471
v -0.01130152 0.7965548 0.474576
v 0.2711358 0.6994038 -0.9522306
v 0.4324361 0.4580253 -1.230204
v 0.124869 0.8247249 -0.4360868
v -0.1369249 0.6063199 -1.043546
v 0.0298543 0.3294472 -1.392614
v -0.2520697 0.7320433 -0.4903194
v -0.3952963 0.6610973 0.5123549
v -0.744889 0.5104353 0.3629792
v -0.5323737 0.421681 -1.074466
v -0.3871535 0.1564504 -1.362724
v -0.7086818 0.07078481 -1.129252
v -0.6503792 0.5214303 -0.5544174
v -0.8628061 0.3414259 -0.5904622
v -0.999356 0.04179323 -0.5533565
v -0.9934549 0.3068271 0.1373498
v -1.07193 0.0812149 -0.04371548
v 1.040486 -0.02764678 0.1033158
v -0.08729279 0.1558087 -0.5352428
v 0.5057151 -0.005357623 0.4625801
v 1.07193 -0.0282228 -0.5958242
v -0.05010712 -0.2042713 0.4619212
v 1.007248 -0.05594802 -1.033632
v -0.5723457 -0.4258307 0.298576
v 0.7096 -0.149725 -1.32978
v -0.822118 -0.7848896 -0.1709247
v 0.2918022 -0.3021096 -1.495318
v -0.7638612 -0.6941102 -0.8470482
v -0.1486784 -0.4655347 -1.468554
v -0.4921107 -0.5807452 -1.252593
vt 0.1302976 0.007612561
vt 0.02435743 0.007612561
vt 0.02435743 0.0224466
vt 0.1302976 0.007612561
vt 0.02435743 0.0224466
vt 0.02435743 0.007612561
vt 0.6242562 0.03707951
vt 0.6600289 0.2777933
vt 0.6591539 0.03189011
vt 0.6403977 0.2928687
vt 0.5553659 0.2995968
vt 0.5522181 0.05117939
vt 0.4658789 0.05957697
vt 0.4658789 0.2943471
vt 0.3763818 0.2995968
vt 0.3795397 0.05117939
vt 0.3075016 0.03707951
vt 0.2913602 0.2928687
vt 0.2717289 0.2777933
vt 0.2726039 0.03189011
vt 0.06848745 0.1697311
vt 0.06848745 0.1952054
vt 0.08413611 0.1952054
vt 0.01236951 0.1697311
vt 0.01236951 0.1952054
vt 0.01236951 0.1599154
vt 0.06077375 0.1479677
vt 0.01236951 0.1479677
vt 0.01236951 0.1588494
vt 0.06848745 0.1697311
vt 0.01236951 0.1697311
vt 0.06848745 0.1952054
vt 0.08413611 0.1952054
vt 0.01236951 0.1952054
vt 0.02435743 0.0224466
vt 0.1302976 0.0224466
vt 0.1302976 0.007612561
vt 0.02435743 0.07858466
vt 0.1302976 0.07858466
vt 0.02435743 0.1077398
vt 0.1302976 0.136895
vt 0.02435743 0.136895
vt 0.02435743 0.1077398
vt 0.1302976 0.07858466
vt 0.02435743 0.07858466
vt 0.1302976 0.0224466
vt 0.02435743 0.0224466
vt 0.1302976 0.007612561
vt 0.02435743 0.0224466
vt 0.009261905 0.0224466
vt 0.009261905 0.07858466
vt 0.02435743 0.07858466
vt 0.02435743 0.1077398
vt 0.009261905 0.1048937
vt 0.009261905 0.136895
vt 0.02435743 0.136895
vt 0.02435743 0.1077398
vt 0.009261905 0.1077398
vt 0.02435743 0.07858466
vt 0.009261905 0.07858466
vt 0.02435743 0.0224466
vt 0.009261905 0.0224466
vt 0.008417119 0.307753
vt 0.02145096 0.2089331
vt 0.01932894 0.2089331
vt 0.02100846 0.307753
vt 0.04152469 0.2090538
vt 0.03319751 0.3075619
vt 0.03319751 0.2090538
vt 0.075115 0.3075619
vt 0.075115 0.2090538
vt 0.1331639 0.3075619
vt 0.1331438 0.2090538
vt 0.075115 0.3075619
vt 0.075115 0.2090538
vt 0.03319751 0.3075619
vt 0.03319751 0.2090538
vt 0.04152469 0.2090538
vt 0.02100846 0.307753
vt 0.02145096 0.2089331
vt 0.008417119 0.307753
vt 0.01932894 0.2089331
vt 0.03812543 0.3514506
vt 0.02645934 0.3869115
vt 0.03422333 0.3758689
vt 0.03500777 0.3514506
vt 0.009623956 0.3699051
vt 0.03812543 0.339513
vt 0.01916803 0.3508472
vt 0.006747661 0.3508472
vt 0.03500777 0.339513
vt 0.01890655 0.3193688
vt 0.006747661 0.3193688
vt 0.03500777 0.3193688
vt 0.03812543 0.3193688
vt 0.03812543 0.339513
vt 0.02003293 0.3504147
vt 0.006747661 0.3508472
vt 0.009623956 0.3699051
vt 0.03500777 0.339513
vt 0.03500777 0.3514506
vt 0.02645934 0.3869115
vt 0.03812543 0.3514506
vt 0.03422333 0.3758689
vt 0.002684642 0.3524462
vt 0.0009447843 0.3524462
vt 0.002684642 0.3524462
vt 0.002684642 0.3524462
vt 0.002684642 0.3524462
vt 0.002684642 0.3524462
vt 0.002684642 0.3524462
vt 0.002684642 0.3524462
vt 0.002684642 0.3524462
vt 0.002684642 0.3524462
vt 0.002684642 0.3524462
vt 0.002684642 0.3524462
vt 0.002684642 0.3524462
vn 0.9697357 -0.15547 0.1882599
vn 0.9697357 -0.15547 0.1882599
vn 0.9697357 -0.15547 0.1882599
vn -0.6122664 -0.789434 -0.04386318
vn -0.6122664 -0.789434 -0.04386318
vn -0.6122664 -0.789434 -0.04386318
vn 0.504441 0.4591069 0.731273
vn 0.7060686 0.5851242 0.3988694
vn 0.7603531 0.4358421 0.481565
vn 0.4191369 0.4668618 0.778694
vn 0.1322052 0.4339034 0.8912068
vn 0.1322052 0.4339034 0.8912068
vn -0.2652341 0.3272733 0.9069416
vn -0.2652341 0.3272733 0.9069416
vn -0.6122664 0.1430941 0.777595
vn -0.6122664 0.1430941 0.777595
vn -0.8468525 -0.07016587 0.5271789
vn -0.8042004 -0.01200408 0.594237
vn -0.9864408 -0.08373702 0.1411473
vn -0.949605 -0.2349578 0.2074732
vn 0.019759 -0.9833068 -0.1808795
vn -0.2109496 -0.9542258 -0.2120219
vn -0.1527879 -0.9813681 -0.1165014
vn -0.1624815 -0.9658582 -0.2017862
vn -0.2419693 -0.9445322 -0.2220579
vn 0.1806734 -0.9813681 -0.06537455
vn 0.36873 -0.9232062 -0.108298
vn 0.3435265 -0.9387161 0.028314
vn 0.5060328 -0.8625143 0
vn 0.6808652 -0.7312721 -0.04078902
vn 0.8030051 -0.5936224 -0.05286983
vn 0.8448743 -0.5349649 0
vn 0.7990239 -0.6012993 0
vn 0.8902478 -0.4520953 -0.05539504
vn 0.304752 0.9457275 0.1128083
vn 0.2155705 0.970931 0.1040305
vn 0.4191369 0.9050142 0.07261901
vn 0.08373702 0.9903182 0.1107153
vn -0.03258663 0.9961345 0.0815733
vn -0.1178907 0.9903182 0.073291
vn -0.358293 0.9321565 0.05206152
vn -0.3544155 0.9321565 0.07398589
vn -0.5617514 0.827306 0
vn -0.6335923 0.7731808 -0.02742754
vn -0.7363449 0.6743056 -0.05575073
vn -0.8294038 0.5541045 -0.0711162
vn -0.8817496 0.4629843 -0.09035067
vn -0.9108304 0.3931901 -0.1256562
vn 0.2873034 -0.3726075 0.8823947
vn 0.2873034 -0.3726075 0.8823947
vn 0.2640387 -0.3667913 0.8920469
vn 0.2640387 -0.3667913 0.8920469
vn 0.1748572 -0.3764849 0.9097714
vn 0.1748572 -0.3764849 0.9097714
vn 0.01782024 -0.4016884 0.915603
vn 0.01782024 -0.4016884 0.915603
vn -0.150849 -0.4385242 0.885969
vn -0.150849 -0.4385242 0.885969
vn -0.2090109 -0.504441 0.8377671
vn -0.2090109 -0.504441 0.8377671
vn -0.1896237 -0.5393381 0.8204616
vn -0.1896237 -0.5393381 0.8204616
vn 0.7060686 0.5851242 0.3988694
vn 0.8786154 0.4416583 0.1815843
vn 0.7603531 0.4358421 0.481565
vn 0.7368652 0.6760396 0
vn 0.8844317 0.4610456 -0.07223324
vn 0.5238283 0.749916 -0.4040172
vn 0.7584143 0.4784941 -0.4425507
vn 0.3028132 0.6025727 -0.7383835
vn 0.454034 0.3563543 -0.8166178
vn -0.03646415 0.4881877 -0.8719766
vn 0.08373702 0.1993173 -0.9763507
vn -0.4164549 0.3040085 -0.8568221
vn -0.3408445 0.03840286 -0.939335
vn -0.7634872 0.2167658 -0.6083584
vn -0.7208351 -0.08761448 -0.6875467
vn -0.9263403 -0.198122 -0.3203769
vn -0.9612374 0.02095431 -0.2749248
vn -0.9612374 -0.2679161 -0.06514359
vn -0.9864408 -0.08373702 0.1411473
vn -0.949605 -0.2349578 0.2074732
vn 0.169041 0.9845021 0.04669728
vn 0.7368652 0.6760396 0
vn 0.7060686 0.5851242 0.3988694
vn 0.2252641 0.9631761 -0.1467921
vn 0.5238283 0.749916 -0.4040172
vn -0.2069993 0.9783412 0
vn 0.07985955 0.9108304 -0.4049819
vn 0.3028132 0.6025727 -0.7383835
vn -0.108197 0.9864408 -0.1234012
vn -0.2264594 0.842975 -0.4879644
vn -0.03646415 0.4881877 -0.8719766
vn -0.3389058 0.9360339 -0.09478097
vn -0.3641092 0.9302177 0.04603847
vn -0.4959427 0.8681784 -0.01752549
vn -0.5579819 0.6626733 -0.4995201
vn -0.4164549 0.3040085 -0.8568221
vn -0.7634872 0.2167658 -0.6083584
vn -0.5250236 0.83522 -0.1635779
vn -0.7731808 0.5696144 -0.2788027
vn -0.9612374 0.02095431 -0.2749248
vn -0.7809357 0.6142051 -0.1135409
vn -0.9864408 -0.08373702 0.1411473
vn -0.1527879 -0.9813681 -0.1165014
vn 0.3377104 -0.9328998 0.1250984
vn 0.019759 -0.9833068 -0.1808795
vn -0.1547266 -0.9871842 0.03907623
vn 0.36873 -0.9232062 -0.108298
vn -0.09268719 -0.9736131 0.2085343
vn 0.6808652 -0.7312721 -0.04078902
vn 0.05077863 -0.9135126 0.4036289
vn 0.7990239 -0.6012993 0
vn 0.2310803 -0.8398409 0.4911916
vn 0.7506594 -0.6479068 0.1293336
vn 0.4288306 -0.7642305 0.481722
vn 0.6149485 -0.696375 0.3700003
g TagBotMeshesEXP_tagBot_propHat_Outfit0_0
f 3/3/3 2/2/2 1/1/1
f 6/6/6 5/5/5 4/4/4
f 9/9/9 8/8/8 7/7/7
f 8/8/8 10/10/10 7/7/7
f 7/7/7 10/10/10 11/11/11
f 12/12/12 7/7/7 11/11/11
f 12/12/12 11/11/11 13/13/13
f 11/11/11 14/14/14 13/13/13
f 14/14/14 15/15/15 13/13/13
f 15/15/15 16/16/16 13/13/13
f 17/17/17 16/16/16 15/15/15
f 18/18/18 17/17/17 15/15/15
f 18/18/18 19/19/19 17/17/17
f 19/19/19 20/20/20 17/17/17
f 23/23/23 22/22/22 21/21/21
f 24/24/24 21/21/21 22/22/22
f 24/24/24 22/22/22 25/25/25
f 24/24/24 26/26/26 21/21/21
f 26/26/26 27/27/27 21/21/21
f 26/26/26 28/28/28 27/27/27
f 27/27/27 28/28/28 29/29/29
f 27/27/27 29/29/29 30/30/30
f 29/29/29 31/31/31 30/30/30
f 30/30/30 31/31/31 32/32/32
f 30/30/30 32/32/32 33/33/33
f 32/32/32 31/31/31 34/34/34
f 37/37/37 36/36/36 35/35/35
f 38/38/38 35/35/35 36/36/36
f 39/39/39 38/38/38 36/36/36
f 40/40/40 38/38/38 39/39/39
f 41/41/41 40/40/40 39/39/39
f 41/41/41 42/42/42 40/40/40
f 43/43/43 42/42/42 41/41/41
f 43/43/43 41/41/41 44/44/44
f 45/45/45 43/43/43 44/44/44
f 46/46/46 45/45/45 44/44/44
f 47/47/47 45/45/45 46/46/46
f 46/46/46 48/48/48 47/47/47
f 51/51/51 50/50/50 49/49/49
f 52/52/52 51/51/51 49/49/49
f 51/51/51 52/52/52 53/53/53
f 54/54/54 51/51/51 53/53/53
f 54/54/54 53/53/53 55/55/55
f 53/53/53 56/56/56 55/55/55
f 56/56/56 57/57/57 55/55/55
f 57/57/57 58/58/58 55/55/55
f 57/57/57 59/59/59 58/58/58
f 59/59/59 60/60/60 58/58/58
f 60/60/60 59/59/59 61/61/61
f 62/62/62 60/60/60 61/61/61
f 65/65/65 64/64/64 63/63/63
f 64/64/64 66/66/66 63/63/63
f 66/66/66 64/64/64 67/67/67
f 68/68/68 66/66/66 67/67/67
f 69/69/69 68/68/68 67/67/67
f 70/70/70 68/68/68 69/69/69
f 71/71/71 70/70/70 69/69/69
f 70/70/70 71/71/71 72/72/72
f 71/71/71 73/73/73 72/72/72
f 72/72/72 73/73/73 74/74/74
f 73/73/73 75/75/75 74/74/74
f 76/76/76 74/74/74 75/75/75
f 77/77/77 76/76/76 75/75/75
f 76/76/76 77/77/77 78/78/78
f 79/79/79 76/76/76 78/78/78
f 78/78/78 80/80/80 79/79/79
f 79/79/79 80/80/80 81/81/81
f 80/80/80 82/82/82 81/81/81
f 85/85/85 84/84/84 83/83/83
f 84/84/84 86/86/86 83/83/83
f 87/87/87 86/86/86 84/84/84
f 88/88/88 83/83/83 86/86/86
f 86/86/86 87/87/87 89/89/89
f 89/89/89 87/87/87 90/90/90
f 91/91/91 88/88/88 86/86/86
f 91/91/91 86/86/86 89/89/89
f 89/89/89 90/90/90 92/92/92
f 91/91/91 89/89/89 92/92/92
f 90/90/90 93/93/93 92/92/92
f 88/88/88 91/91/91 94/94/94
f 94/94/94 91/91/91 92/92/92
f 88/88/88 94/94/94 95/95/95
f 94/94/94 96/96/96 95/95/95
f 92/92/92 93/93/93 97/97/97
f 93/93/93 98/98/98 97/97/97
f 99/99/99 97/97/97 98/98/98
f 100/100/100 94/94/94 92/92/92
f 96/96/96 94/94/94 100/100/100
f 97/97/97 100/100/100 92/92/92
f 101/101/101 97/97/97 99/99/99
f 101/101/101 100/100/100 97/97/97
f 96/96/96 100/100/100 101/101/101
f 102/102/102 101/101/101 99/99/99
f 103/103/103 96/96/96 101/101/101
f 102/102/102 104/104/104 101/101/101
f 104/104/104 103/103/103 101/101/101
f 107/107/107 106/106/106 105/105/105
f 105/105/105 106/106/106 108/108/108
f 109/109/109 106/106/106 107/107/107
f 108/108/108 106/106/106 110/110/110
f 111/111/111 106/106/106 109/109/109
f 110/110/110 106/106/106 112/112/112
f 113/113/113 106/106/106 111/111/111
f 112/112/112 106/106/106 114/114/114
f 115/115/115 106/106/106 113/113/113
f 114/114/114 106/106/106 116/116/116
f 117/117/117 106/106/106 115/115/115
f 116/116/116 106/106/106 117/117/117
