g TagBotMeshesEXP_tagBot_head_prop_Outfit0
v 0.746556 0.006108522 1.414529
v 0.8282342 0.2574899 1.368306
v 0.9603957 0.1614691 1.368306
v -0.7523868 0.002781034 1.427851
v -0.6694133 0.2581421 1.374282
v -0.5351622 0.1606025 1.378355
v 1.02088 0.2054152 1.368306
v 0.8513396 0.3285967 1.368306
v 0.8513396 0.3285967 1.030388
v 1.02088 0.2054182 0.8457081
v 1.085639 0.006108522 1.368303
v 1.085639 0.006108522 0.6829588
v 1.02088 -0.1932012 1.368306
v 1.02088 -0.1932012 0.6990893
v 0.8513396 -0.3163797 1.368306
v 0.8513396 -0.3163797 0.8169653
v 0.6417726 -0.3163797 0.9988434
v 0.6417726 -0.3163797 1.368306
v 0.4722323 -0.1932012 1.368306
v 0.4722323 -0.1932012 1.122846
v 0.4074726 0.006108522 1.368306
v 0.4074726 0.006108522 1.193575
v 0.4722323 0.2054152 1.368306
v 0.4722323 0.2054182 1.193575
v 0.6417726 0.3285967 1.368306
v 0.6417726 0.3285967 1.118691
v 0.8513396 0.3285967 1.030388
v 0.8513396 0.3285967 1.368306
v 0.8282342 0.2574899 1.368306
v 0.746556 0.006108522 1.414529
v 0.664878 0.2574899 1.368306
v 0.5327164 0.1614721 1.368306
v 0.482236 0.006108522 1.368306
v 0.5327164 -0.149255 1.368306
v 0.664878 -0.2452729 1.368306
v 0.8282342 -0.2452729 1.368306
v 0.9603957 -0.149255 1.368306
v 1.010873 0.006108522 1.368303
v 0.9603957 0.1614691 1.368306
v -0.6459455 0.3303752 1.374282
v -0.6459455 0.3303752 0.994616
v -0.473718 0.2052461 0.994616
v -0.473718 0.2052461 1.374282
v -0.4079347 0.002781034 1.374282
v -0.4079347 0.002781034 0.994616
v -0.473718 -0.1996841 1.374282
v -0.473718 -0.1996841 0.994616
v -0.6459455 -0.3248131 1.374282
v -0.6459455 -0.3248131 0.994616
v -0.8588281 -0.3248131 1.374282
v -0.8588281 -0.3248131 0.8096883
v -1.031056 -0.1996841 1.374282
v -1.031056 -0.1996841 0.5993695
v -1.096839 0.002781034 1.374282
v -1.096839 0.002781034 0.5993695
v -1.031056 0.2052461 1.374282
v -1.031056 0.2052461 0.5993695
v -0.8588281 0.3303752 1.374282
v -0.8588281 0.3303752 0.8096883
v -0.6459455 0.3303752 0.994616
v -0.6459455 0.3303752 1.374282
v -0.6694133 0.2581421 1.374282
v -0.7523868 0.002781034 1.427851
v -0.8353603 0.2581451 1.374282
v -0.9696114 0.1606054 1.374282
v -1.020889 0.002781034 1.374282
v -0.9696114 -0.1550404 1.374282
v -0.8353603 -0.2525802 1.374282
v -0.6694133 -0.2525802 1.374282
v -0.5351622 -0.1550404 1.374282
v -0.4838817 0.002781034 1.374282
v -0.5351622 0.1606025 1.378355
v 0.8282342 0.2574899 1.368306
v 1.02088 0.2054152 1.368306
v 0.9603957 0.1614691 1.368306
v 1.010873 0.006108522 1.368303
v 0.8513396 0.3285967 1.368306
v 1.085639 0.006108522 1.368303
v 0.9603957 -0.149255 1.368306
v 1.02088 -0.1932012 1.368306
v 0.8282342 -0.2452729 1.368306
v 0.8513396 -0.3163797 1.368306
v 0.664878 -0.2452729 1.368306
v 0.6417726 -0.3163797 1.368306
v 0.5327164 -0.149255 1.368306
v 0.4722323 -0.1932012 1.368306
v 0.482236 0.006108522 1.368306
v 0.4074726 0.006108522 1.368306
v 0.5327164 0.1614721 1.368306
v 0.4722323 0.2054152 1.368306
v 0.664878 0.2574899 1.368306
v 0.6417726 0.3285967 1.368306
v -0.6459455 0.3303752 1.374282
v -0.5351622 0.1606025 1.378355
v -0.6694133 0.2581421 1.374282
v -0.8353603 0.2581451 1.374282
v -0.473718 0.2052461 1.374282
v -0.8588281 0.3303752 1.374282
v -0.4838817 0.002781034 1.374282
v -1.031056 0.2052461 1.374282
v -0.4079347 0.002781034 1.374282
v -0.9696114 0.1606054 1.374282
v -0.5351622 -0.1550404 1.374282
v -1.096839 0.002781034 1.374282
v -0.473718 -0.1996841 1.374282
v -1.020889 0.002781034 1.374282
v -0.6694133 -0.2525802 1.374282
v -1.031056 -0.1996841 1.374282
v -0.6459455 -0.3248131 1.374282
v -0.9696114 -0.1550404 1.374282
v -0.8353603 -0.2525802 1.374282
v -0.8588281 -0.3248131 1.374282
v -0.3336574 -1.170935 -0.4592423
v 0 -1.170938 -0.5676523
v 0 -0.849392 -1.048889
v 0 -1.283853 0
v 0.3336604 -1.170938 -0.4592423
v -0.5398698 -1.170938 -0.1754131
v -0.6165204 -0.849389 -0.8485677
v 0.6165203 -0.849389 -0.8485677
v 0.5398697 -1.170938 -0.1754162
v 0 -0.3681554 -1.370438
v -0.997551 -0.849389 -0.3241247
v -0.5398698 -1.170938 0.1754162
v -0.8055215 -0.3681554 -1.108706
v 0.997551 -0.849389 -0.3241247
v 0.8055213 -0.3681554 -1.108706
v 0.5398697 -1.170938 0.1754162
v 0 0.199497 -1.48335
v -0.997551 -0.849389 0.3241248
v -1.303362 -0.3681554 -0.4234881
v -0.3336574 -1.170938 0.4592423
v -0.8718905 0.199497 -1.200055
v 0.997551 -0.849389 0.3241248
v 1.303362 -0.3681554 -0.4234881
v 0.3336604 -1.170938 0.4592423
v 0 -1.170938 0.5676525
v -0.6165204 -0.849392 0.8485677
v 0.8718905 0.1995 -1.200055
v -1.303362 -0.3681554 0.4234883
v 0.6165203 -0.849389 0.8485677
v 1.303362 -0.3681554 0.4234883
v 0 -0.849389 1.048886
v 0 0.7671523 -1.370435
v -1.410749 0.199497 -0.4583818
v 1.410749 0.199497 -0.4583818
v -0.8055243 -0.3681554 1.108706
v 0.8055213 -0.3681554 1.108706
v -0.8055215 0.7671492 -1.108706
v -1.410749 0.199497 0.4583788
v 0.8055213 0.7671554 -1.108706
v 1.410749 0.199497 0.4583788
v 0 -0.3681554 1.370438
v 0.8718905 0.199497 1.200055
v 1.303362 0.7671523 -0.4234881
v 0 0.199497 1.48335
v 1.303362 0.7671523 0.4234883
v -0.8718905 0.1995 1.200055
v 0.8055213 0.7671523 1.108706
v 0 1.248386 -1.048886
v 0.6165203 1.248386 -0.8485677
v 0.997551 1.248386 -0.3241247
v -0.6165204 1.248386 -0.8485677
v 0 1.569935 -0.5676523
v 0.997551 1.248386 0.3241248
v 0.3336574 1.569935 -0.4592423
v 0 1.682847 0
v 0.5398697 1.569938 -0.1754131
v -0.3336604 1.569935 -0.4592423
v -0.997551 1.248386 -0.3241247
v 0.5398697 1.569935 0.1754133
v 0.6165203 1.248386 0.8485677
v 0 1.248386 1.048886
v 0.3336574 1.569938 0.4592423
v -1.303362 0.7671523 -0.4234881
v -0.5398698 1.569935 -0.1754131
v -1.303362 0.7671523 0.4234883
v -0.997551 1.248386 0.3241248
v -0.8055215 0.7671523 1.108706
v -0.5398698 1.569938 0.1754133
v -0.6165204 1.248383 0.8485677
v 0 0.7671523 1.370438
v -0.3336574 1.569938 0.4592423
v 0 1.569935 0.5676525
vt 0.1793082 0.1962857
vt 0.1751163 0.2077686
vt 0.168499 0.2016903
vt 0.1793082 0.1962857
vt 0.1732299 0.1946688
vt 0.168499 0.2016903
vt 0.5469131 0.9860508
vt 0.5285134 0.9860508
vt 0.5285134 0.8616844
vt 0.5469131 0.8616844
vt 0.5651182 0.9860508
vt 0.5651182 0.8616844
vt 0.5843862 0.9860508
vt 0.5843862 0.8616844
vt 0.5844461 0.9860508
vt 0.5844461 0.8616844
vt 0.5844761 0.8616844
vt 0.5844761 0.9860508
vt 0.5845509 0.9860508
vt 0.5845509 0.8616844
vt 0.5661063 0.9860508
vt 0.5661063 0.8616844
vt 0.5471976 0.9860508
vt 0.5471976 0.8616844
vt 0.5285134 0.9860508
vt 0.5285134 0.8616844
vt 0.5098442 0.8616844
vt 0.5098442 0.9860508
vt 0.8673884 0.244613
vt 0.8387783 0.1469703
vt 0.8054672 0.2431158
vt 0.7538911 0.2051636
vt 0.7354016 0.1456079
vt 0.7548942 0.08507898
vt 0.8073536 0.04542004
vt 0.8691999 0.04655786
vt 0.9216743 0.08521371
vt 0.9430233 0.1444401
vt 0.9260759 0.2056427
vt 0.5285134 0.9860508
vt 0.5285134 0.8616844
vt 0.5469131 0.8616844
vt 0.5469131 0.9860508
vt 0.565208 0.9860508
vt 0.565208 0.8616844
vt 0.5843862 0.9860508
vt 0.5843862 0.8616844
vt 0.5844461 0.9860508
vt 0.5844461 0.8616844
vt 0.5844761 0.9860508
vt 0.5844761 0.8616844
vt 0.5845509 0.9860508
vt 0.5845509 0.8616844
vt 0.5654775 0.9860508
vt 0.5654775 0.8616844
vt 0.5471976 0.9860508
vt 0.5471976 0.8616844
vt 0.5285134 0.9860508
vt 0.5285134 0.8616844
vt 0.5098442 0.8616844
vt 0.5098442 0.9860508
vt 0.867119 0.2446728
vt 0.8388382 0.1469703
vt 0.8054971 0.243056
vt 0.7539959 0.2051038
vt 0.7356112 0.1455929
vt 0.7552236 0.08528857
vt 0.8073835 0.0454949
vt 0.869155 0.04673751
vt 0.9213898 0.08542331
vt 0.9430084 0.1443802
vt 0.9260759 0.2056427
vt 0.1612529 0.1481979
vt 0.1449342 0.1165187
vt 0.1612529 0.1165187
vt 0.1612529 0.08099181
vt 0.1449342 0.1481979
vt 0.1449342 0.08099181
vt 0.1612529 0.04339892
vt 0.1449342 0.04339892
vt 0.1612529 0.04339892
vt 0.1449342 0.04339892
vt 0.1612529 0.01600147
vt 0.1449342 0.01600147
vt 0.1612529 0.04339892
vt 0.1449342 0.04339892
vt 0.1612529 0.07950965
vt 0.1449342 0.07950965
vt 0.1612529 0.1165187
vt 0.1449342 0.1165187
vt 0.1612529 0.1481979
vt 0.1449342 0.1481979
vt 0.1449342 0.1481979
vt 0.1612529 0.1165187
vt 0.1612529 0.1481979
vt 0.1612529 0.1481979
vt 0.1449342 0.1165187
vt 0.1449342 0.1481979
vt 0.1612529 0.08081216
vt 0.1449342 0.1165187
vt 0.1449342 0.08081216
vt 0.1612529 0.1165187
vt 0.1612529 0.04339892
vt 0.1449342 0.08072233
vt 0.1449342 0.04339892
vt 0.1612529 0.08072233
vt 0.1612529 0.04339892
vt 0.1449342 0.04339892
vt 0.1449342 0.04339892
vt 0.1612529 0.04339892
vt 0.1612529 0.04339892
vt 0.1449342 0.04339892
vt 0.3555053 0.4840188
vt 0.3846843 0.4840188
vt 0.465634 0.5461346
vt 0.2687317 0.4582832
vt 0.3555053 0.4840188
vt 0.296204 0.4840188
vt 0.4105248 0.5461346
vt 0.4105248 0.5461346
vt 0.296204 0.4840188
vt 0.5124342 0.6302732
vt 0.312403 0.5461346
vt 0.2405108 0.4840188
vt 0.4331164 0.6302732
vt 0.312403 0.5461346
vt 0.4331164 0.6302732
vt 0.2405108 0.4840188
vt 0.5285583 0.7270476
vt 0.2238777 0.5461346
vt 0.3274641 0.6302732
vt 0.1812844 0.4840188
vt 0.4378623 0.7270476
vt 0.2238777 0.5461346
vt 0.3274641 0.6302732
vt 0.1812844 0.4840188
vt 0.1517611 0.4840188
vt 0.1255613 0.5461346
vt 0.4378623 0.7270476
vt 0.2087717 0.6302732
vt 0.1255613 0.5461346
vt 0.2087717 0.6302732
vt 0.06989809 0.5461346
vt 0.5124342 0.823822
vt 0.3330483 0.7270476
vt 0.3330483 0.7270476
vt 0.1026702 0.6302732
vt 0.1026702 0.6302732
vt 0.4331164 0.823807
vt 0.203412 0.7270476
vt 0.4331164 0.823807
vt 0.203412 0.7270476
vt 0.02184027 0.6302732
vt 0.09793931 0.7270476
vt 0.3274641 0.823822
vt 0.004907747 0.7270476
vt 0.2087717 0.823822
vt 0.09793931 0.7270476
vt 0.1026702 0.823822
vt 0.465634 0.9110597
vt 0.4105248 0.9110597
vt 0.3140947 0.9110597
vt 0.4105248 0.9110597
vt 0.3846843 0.9233062
vt 0.222201 0.9110597
vt 0.3555053 0.9233062
vt 0.2687317 0.9242344
vt 0.2932397 0.9233062
vt 0.3555053 0.9233062
vt 0.3140947 0.9110597
vt 0.2434752 0.9233062
vt 0.1255613 0.9110597
vt 0.06989809 0.9110597
vt 0.1812844 0.9233062
vt 0.3274641 0.823822
vt 0.2932397 0.9233062
vt 0.2087717 0.823822
vt 0.222201 0.9110597
vt 0.1026702 0.823822
vt 0.2434752 0.9233062
vt 0.1255613 0.9110597
vt 0.02184027 0.823822
vt 0.1812844 0.9233062
vt 0.1517611 0.9233062
vn -0.0009775162 0.0009775162 0.999999
vn 0.02834797 0.08504391 0.9959739
vn 0.07135874 0.05180836 0.9961043
vn -0.002932549 -0.0009775162 0.9999952
vn 0.02639294 0.1045942 0.9941647
vn 0.08504397 0.06158352 0.9944722
vn 0.8357767 0.5405667 0.09625444
vn 0.3626587 0.9198432 0.1495564
vn 0.452286 0.8918729 0
vn 0.9022478 0.4291298 -0.04238425
vn 0.9960895 -0.01857281 0.08637601
vn 0.9954998 -0.094763 0
vn 0.8162264 -0.5718472 0.0822513
vn 0.8571478 -0.5150706 0
vn 0.3509285 -0.9315734 0.09497479
vn 0.4643204 -0.8846526 -0.04238425
vn -0.141695 -0.9899104 0
vn -0.2453567 -0.9589438 0.1422209
vn -0.7556204 -0.6226781 0.2032483
vn -0.7204298 -0.6930593 -0.02548903
vn -0.9628539 -0.02834797 0.2685307
vn -0.9980445 -0.05962849 -0.01875226
vn -0.7614855 0.5913975 0.265309
vn -0.7703778 0.6375878 0
vn -0.2531768 0.9452586 0.2058827
vn -0.1904775 0.9816915 0
vn 0.452286 0.8918729 0
vn 0.3626587 0.9198432 0.1495564
vn 0.02834797 0.08504391 0.9959739
vn -0.0009775162 0.0009775162 0.999999
vn -0.02834797 0.08504391 0.9959739
vn -0.07135868 0.05180836 0.9961043
vn -0.08895397 0.0009775162 0.9960353
vn -0.07135868 -0.05180836 0.9961043
vn -0.02834797 -0.08504397 0.9959739
vn 0.02834797 -0.08504397 0.9959739
vn 0.07135874 -0.05180836 0.9961043
vn 0.08895403 0.0009775162 0.9960353
vn 0.07135874 0.05180836 0.9961043
vn 0.2727271 0.9530787 0.1313803
vn 0.2197213 0.9755628 0
vn 0.8084062 0.5874875 -0.03657671
vn 0.8005861 0.5816224 0.1441434
vn 0.9902244 -0.0009775162 0.1394804
vn 0.9999995 0.0009775162 0
vn 0.8005861 -0.5816224 0.1441434
vn 0.8084062 -0.5874875 -0.03657671
vn 0.2727271 -0.9530787 0.1313803
vn 0.2197213 -0.9755628 0
vn -0.3607036 -0.9276633 0.09661154
vn -0.4838707 -0.8748774 -0.0214149
vn -0.8201364 -0.5659821 0.08390769
vn -0.8768324 -0.4799607 -0.02833267
vn -0.9980445 0.0009775162 0.06249999
vn -0.9999995 0.0009775162 0
vn -0.8201364 0.5659821 0.08390769
vn -0.8768324 0.4799607 -0.02833267
vn -0.3607036 0.9276633 0.09661123
vn -0.4838707 0.8748773 -0.02141769
vn 0.2197213 0.9755628 0
vn 0.2727271 0.9530787 0.1313803
vn 0.02639294 0.1045942 0.9941647
vn -0.002932549 -0.0009775162 0.9999952
vn -0.030303 0.0967741 0.994845
vn -0.08113384 0.05962849 0.994918
vn -0.1006842 0.0009775162 0.9949179
vn -0.08113384 -0.05962849 0.994918
vn -0.030303 -0.09677416 0.994845
vn 0.030303 -0.09677416 0.994845
vn 0.0811339 -0.05962849 0.9949179
vn 0.1085044 -0.006842613 0.9940724
vn 0.08504397 0.06158352 0.9944722
vn 0.02834797 0.08504391 0.9959739
vn 0.8357767 0.5405667 0.09625444
vn 0.07135874 0.05180836 0.9961043
vn 0.08895403 0.0009775162 0.9960353
vn 0.3626587 0.9198432 0.1495564
vn 0.9960895 -0.01857281 0.08637601
vn 0.07135874 -0.05180836 0.9961043
vn 0.8162264 -0.5718472 0.0822513
vn 0.02834797 -0.08504397 0.9959739
vn 0.3509285 -0.9315734 0.09497479
vn -0.02834797 -0.08504397 0.9959739
vn -0.2453567 -0.9589438 0.1422209
vn -0.07135868 -0.05180836 0.9961043
vn -0.7556204 -0.6226781 0.2032483
vn -0.08895397 0.0009775162 0.9960353
vn -0.9628539 -0.02834797 0.2685307
vn -0.07135868 0.05180836 0.9961043
vn -0.7614855 0.5913975 0.265309
vn -0.02834797 0.08504391 0.9959739
vn -0.2531768 0.9452586 0.2058827
vn 0.2727271 0.9530787 0.1313803
vn 0.08504397 0.06158352 0.9944722
vn 0.02639294 0.1045942 0.9941647
vn -0.030303 0.0967741 0.994845
vn 0.8005861 0.5816224 0.1441434
vn -0.3607036 0.9276633 0.09661123
vn 0.1085044 -0.006842613 0.9940724
vn -0.8201364 0.5659821 0.08390769
vn 0.9902244 -0.0009775162 0.1394804
vn -0.08113384 0.05962849 0.994918
vn 0.0811339 -0.05962849 0.9949179
vn -0.9980445 0.0009775162 0.06249999
vn 0.8005861 -0.5816224 0.1441434
vn -0.1006842 0.0009775162 0.9949179
vn 0.030303 -0.09677416 0.994845
vn -0.8201364 -0.5659821 0.08390769
vn 0.2727271 -0.9530787 0.1313803
vn -0.08113384 -0.05962849 0.994918
vn -0.030303 -0.09677416 0.994845
vn -0.3607036 -0.9276633 0.09661154
vn -0.2883674 -0.8709673 -0.3978193
vn -0.0009775162 -0.8709673 -0.49134
vn -0.0009775162 -0.6598238 -0.7514197
vn -0.0009775162 -0.9999995 0
vn 0.2883674 -0.8709673 -0.3978193
vn -0.4662755 -0.8709673 -0.1549293
vn -0.4428151 -0.6598238 -0.6070811
vn 0.4428151 -0.6598238 -0.6070811
vn 0.4662755 -0.8709673 -0.1549293
vn -0.0009775162 -0.3528835 -0.9356667
vn -0.7145647 -0.6598238 -0.2324433
vn -0.4662755 -0.8709673 0.1549293
vn -0.5503418 -0.3528835 -0.7567015
vn 0.7145647 -0.6598238 -0.2324433
vn 0.5503418 -0.3528835 -0.7567015
vn 0.4662755 -0.8709673 0.1549293
vn -0.0009775162 0.0009775162 -0.999999
vn -0.7145647 -0.6598238 0.2324433
vn -0.8905177 -0.3528835 -0.2871436
vn -0.2883674 -0.8709673 0.3978193
vn -0.5874875 0.0009775162 -0.8092327
vn 0.7145647 -0.6598238 0.2324433
vn 0.8905177 -0.3528835 -0.2871438
vn 0.2883674 -0.8709673 0.3978193
vn -0.0009775162 -0.8709673 0.49134
vn -0.4428151 -0.6598238 0.6070811
vn 0.5874875 0.0009775162 -0.8092327
vn -0.8905177 -0.3528835 0.2871436
vn 0.4428151 -0.6598238 0.6070811
vn 0.8905177 -0.3528835 0.2871438
vn -0.0009775162 -0.6598238 0.7514197
vn -0.0009775162 0.3528835 -0.9356668
vn -0.9511237 0.0009775162 -0.3088086
vn 0.9511237 0.0009775162 -0.3088086
vn -0.5503418 -0.3528835 0.7567015
vn 0.5503418 -0.3528835 0.7567015
vn -0.5503418 0.3528835 -0.7567015
vn -0.9511237 0.0009775162 0.3088086
vn 0.5503418 0.3528835 -0.7567015
vn 0.9511237 0.0009775162 0.3088086
vn -0.0009775162 -0.3528835 0.9356667
vn 0.5874875 0.0009775162 0.8092327
vn 0.8905177 0.3528835 -0.2871439
vn -0.0009775162 0.0009775162 0.999999
vn 0.8905177 0.3528835 0.2871439
vn -0.5874875 0.0009775162 0.8092327
vn 0.5503418 0.3528835 0.7567015
vn -0.0009775162 0.6598238 -0.7514197
vn 0.4428151 0.6598238 -0.6070811
vn 0.7145647 0.6598238 -0.2324433
vn -0.4428151 0.6598238 -0.6070811
vn -0.0009775162 0.8709673 -0.4913401
vn 0.7145647 0.6598238 0.2324433
vn 0.2883674 0.8709673 -0.3978194
vn -0.0009775162 0.9999995 0
vn 0.4662755 0.8709673 -0.1549297
vn -0.2883674 0.8709673 -0.3978194
vn -0.7145647 0.6598238 -0.2324433
vn 0.4662755 0.8709673 0.1549297
vn 0.4428151 0.6598238 0.6070811
vn -0.0009775162 0.6598238 0.7514197
vn 0.2883674 0.8709673 0.3978194
vn -0.8905177 0.3528835 -0.2871436
vn -0.4662755 0.8709673 -0.1549297
vn -0.8905177 0.3528835 0.2871436
vn -0.7145647 0.6598238 0.2324433
vn -0.5503418 0.3528835 0.7567015
vn -0.4662755 0.8709673 0.1549297
vn -0.4428151 0.6598238 0.6070811
vn -0.0009775162 0.3528835 0.9356668
vn -0.2883674 0.8709673 0.3978194
vn -0.0009775162 0.8709673 0.4913401
g TagBotMeshesEXP_tagBot_head_prop_Outfit0_0
f 3/3/3 2/2/2 1/1/1
f 6/6/6 5/5/5 4/4/4
f 9/9/9 8/8/8 7/7/7
f 10/10/10 9/9/9 7/7/7
f 10/10/10 7/7/7 11/11/11
f 12/12/12 10/10/10 11/11/11
f 12/12/12 11/11/11 13/13/13
f 14/14/14 12/12/12 13/13/13
f 14/14/14 13/13/13 15/15/15
f 16/16/16 14/14/14 15/15/15
f 17/17/17 16/16/16 15/15/15
f 18/18/18 17/17/17 15/15/15
f 17/17/17 18/18/18 19/19/19
f 20/20/20 17/17/17 19/19/19
f 20/20/20 19/19/19 21/21/21
f 22/22/22 20/20/20 21/21/21
f 22/22/22 21/21/21 23/23/23
f 24/24/24 22/22/22 23/23/23
f 24/24/24 23/23/23 25/25/25
f 26/26/26 24/24/24 25/25/25
f 26/26/26 25/25/25 27/27/27
f 25/25/25 28/28/28 27/27/27
f 31/31/31 30/30/30 29/29/29
f 31/31/31 32/32/32 30/30/30
f 32/32/32 33/33/33 30/30/30
f 33/33/33 34/34/34 30/30/30
f 34/34/34 35/35/35 30/30/30
f 35/35/35 36/36/36 30/30/30
f 36/36/36 37/37/37 30/30/30
f 37/37/37 38/38/38 30/30/30
f 38/38/38 39/39/39 30/30/30
f 42/42/42 41/41/41 40/40/40
f 43/43/43 42/42/42 40/40/40
f 42/42/42 43/43/43 44/44/44
f 45/45/45 42/42/42 44/44/44
f 45/45/45 44/44/44 46/46/46
f 47/47/47 45/45/45 46/46/46
f 47/47/47 46/46/46 48/48/48
f 49/49/49 47/47/47 48/48/48
f 49/49/49 48/48/48 50/50/50
f 51/51/51 49/49/49 50/50/50
f 51/51/51 50/50/50 52/52/52
f 53/53/53 51/51/51 52/52/52
f 53/53/53 52/52/52 54/54/54
f 55/55/55 53/53/53 54/54/54
f 55/55/55 54/54/54 56/56/56
f 57/57/57 55/55/55 56/56/56
f 57/57/57 56/56/56 58/58/58
f 59/59/59 57/57/57 58/58/58
f 59/59/59 58/58/58 60/60/60
f 58/58/58 61/61/61 60/60/60
f 64/64/64 63/63/63 62/62/62
f 64/64/64 65/65/65 63/63/63
f 65/65/65 66/66/66 63/63/63
f 66/66/66 67/67/67 63/63/63
f 67/67/67 68/68/68 63/63/63
f 68/68/68 69/69/69 63/63/63
f 69/69/69 70/70/70 63/63/63
f 70/70/70 71/71/71 63/63/63
f 71/71/71 72/72/72 63/63/63
f 75/75/75 74/74/74 73/73/73
f 74/74/74 75/75/75 76/76/76
f 74/74/74 77/77/77 73/73/73
f 78/78/78 74/74/74 76/76/76
f 78/78/78 76/76/76 79/79/79
f 80/80/80 78/78/78 79/79/79
f 80/80/80 79/79/79 81/81/81
f 82/82/82 80/80/80 81/81/81
f 81/81/81 83/83/83 82/82/82
f 83/83/83 84/84/84 82/82/82
f 84/84/84 83/83/83 85/85/85
f 86/86/86 84/84/84 85/85/85
f 86/86/86 85/85/85 87/87/87
f 88/88/88 86/86/86 87/87/87
f 88/88/88 87/87/87 89/89/89
f 90/90/90 88/88/88 89/89/89
f 90/90/90 89/89/89 91/91/91
f 92/92/92 90/90/90 91/91/91
f 92/92/92 91/91/91 77/77/77
f 91/91/91 73/73/73 77/77/77
f 95/95/95 94/94/94 93/93/93
f 96/96/96 95/95/95 93/93/93
f 94/94/94 97/97/97 93/93/93
f 98/98/98 96/96/96 93/93/93
f 97/97/97 94/94/94 99/99/99
f 98/98/98 100/100/100 96/96/96
f 101/101/101 97/97/97 99/99/99
f 100/100/100 102/102/102 96/96/96
f 101/101/101 99/99/99 103/103/103
f 100/100/100 104/104/104 102/102/102
f 105/105/105 101/101/101 103/103/103
f 104/104/104 106/106/106 102/102/102
f 105/105/105 103/103/103 107/107/107
f 104/104/104 108/108/108 106/106/106
f 109/109/109 105/105/105 107/107/107
f 108/108/108 110/110/110 106/106/106
f 109/109/109 107/107/107 111/111/111
f 108/108/108 112/112/112 110/110/110
f 112/112/112 111/111/111 110/110/110
f 112/112/112 109/109/109 111/111/111
f 115/115/115 114/114/114 113/113/113
f 116/116/116 113/113/113 114/114/114
f 117/117/117 116/116/116 114/114/114
f 114/114/114 115/115/115 117/117/117
f 116/116/116 118/118/118 113/113/113
f 119/119/119 115/115/115 113/113/113
f 119/119/119 113/113/113 118/118/118
f 115/115/115 120/120/120 117/117/117
f 121/121/121 116/116/116 117/117/117
f 117/117/117 120/120/120 121/121/121
f 122/122/122 115/115/115 119/119/119
f 115/115/115 122/122/122 120/120/120
f 123/123/123 119/119/119 118/118/118
f 116/116/116 124/124/124 118/118/118
f 123/123/123 118/118/118 124/124/124
f 125/125/125 122/122/122 119/119/119
f 125/125/125 119/119/119 123/123/123
f 120/120/120 126/126/126 121/121/121
f 122/122/122 127/127/127 120/120/120
f 120/120/120 127/127/127 126/126/126
f 128/128/128 116/116/116 121/121/121
f 121/121/121 126/126/126 128/128/128
f 129/129/129 122/122/122 125/125/125
f 122/122/122 129/129/129 127/127/127
f 130/130/130 123/123/123 124/124/124
f 131/131/131 125/125/125 123/123/123
f 131/131/131 123/123/123 130/130/130
f 116/116/116 132/132/132 124/124/124
f 130/130/130 124/124/124 132/132/132
f 133/133/133 129/129/129 125/125/125
f 133/133/133 125/125/125 131/131/131
f 126/126/126 134/134/134 128/128/128
f 127/127/127 135/135/135 126/126/126
f 126/126/126 135/135/135 134/134/134
f 136/136/136 116/116/116 128/128/128
f 128/128/128 134/134/134 136/136/136
f 116/116/116 137/137/137 132/132/132
f 137/137/137 116/116/116 136/136/136
f 138/138/138 130/130/130 132/132/132
f 138/138/138 132/132/132 137/137/137
f 129/129/129 139/139/139 127/127/127
f 127/127/127 139/139/139 135/135/135
f 140/140/140 131/131/131 130/130/130
f 140/140/140 130/130/130 138/138/138
f 134/134/134 141/141/141 136/136/136
f 136/136/136 141/141/141 137/137/137
f 135/135/135 142/142/142 134/134/134
f 134/134/134 142/142/142 141/141/141
f 143/143/143 138/138/138 137/137/137
f 141/141/141 143/143/143 137/137/137
f 129/129/129 144/144/144 139/139/139
f 144/144/144 129/129/129 133/133/133
f 145/145/145 133/133/133 131/131/131
f 145/145/145 131/131/131 140/140/140
f 139/139/139 146/146/146 135/135/135
f 135/135/135 146/146/146 142/142/142
f 147/147/147 140/140/140 138/138/138
f 138/138/138 143/143/143 147/147/147
f 141/141/141 148/148/148 143/143/143
f 142/142/142 148/148/148 141/141/141
f 149/149/149 144/144/144 133/133/133
f 149/149/149 133/133/133 145/145/145
f 150/150/150 145/145/145 140/140/140
f 150/150/150 140/140/140 147/147/147
f 139/139/139 151/151/151 146/146/146
f 144/144/144 151/151/151 139/139/139
f 146/146/146 152/152/152 142/142/142
f 142/142/142 152/152/152 148/148/148
f 148/148/148 153/153/153 143/143/143
f 143/143/143 153/153/153 147/147/147
f 148/148/148 154/154/154 153/153/153
f 152/152/152 154/154/154 148/148/148
f 146/146/146 155/155/155 152/152/152
f 151/151/151 155/155/155 146/146/146
f 153/153/153 156/156/156 147/147/147
f 154/154/154 156/156/156 153/153/153
f 152/152/152 157/157/157 154/154/154
f 155/155/155 157/157/157 152/152/152
f 158/158/158 150/150/150 147/147/147
f 156/156/156 158/158/158 147/147/147
f 154/154/154 159/159/159 156/156/156
f 157/157/157 159/159/159 154/154/154
f 144/144/144 160/160/160 151/151/151
f 151/151/151 161/161/161 155/155/155
f 160/160/160 161/161/161 151/151/151
f 155/155/155 162/162/162 157/157/157
f 161/161/161 162/162/162 155/155/155
f 163/163/163 160/160/160 144/144/144
f 149/149/149 163/163/163 144/144/144
f 160/160/160 164/164/164 161/161/161
f 164/164/164 160/160/160 163/163/163
f 157/157/157 165/165/165 159/159/159
f 162/162/162 165/165/165 157/157/157
f 161/161/161 166/166/166 162/162/162
f 164/164/164 166/166/166 161/161/161
f 164/164/164 167/167/167 166/166/166
f 166/166/166 167/167/167 168/168/168
f 166/166/166 168/168/168 162/162/162
f 162/162/162 168/168/168 165/165/165
f 167/167/167 164/164/164 169/169/169
f 169/169/169 164/164/164 163/163/163
f 170/170/170 163/163/163 149/149/149
f 169/169/169 163/163/163 170/170/170
f 168/168/168 171/171/171 165/165/165
f 168/168/168 167/167/167 171/171/171
f 165/165/165 171/171/171 172/172/172
f 165/165/165 172/172/172 159/159/159
f 159/159/159 172/172/172 173/173/173
f 171/171/171 174/174/174 172/172/172
f 171/171/171 167/167/167 174/174/174
f 172/172/172 174/174/174 173/173/173
f 175/175/175 170/170/170 149/149/149
f 175/175/175 149/149/149 145/145/145
f 175/175/175 145/145/145 150/150/150
f 176/176/176 169/169/169 170/170/170
f 167/167/167 169/169/169 176/176/176
f 177/177/177 175/175/175 150/150/150
f 177/177/177 150/150/150 158/158/158
f 178/178/178 170/170/170 175/175/175
f 176/176/176 170/170/170 178/178/178
f 177/177/177 178/178/178 175/175/175
f 179/179/179 177/177/177 158/158/158
f 179/179/179 158/158/158 156/156/156
f 180/180/180 176/176/176 178/178/178
f 167/167/167 176/176/176 180/180/180
f 181/181/181 178/178/178 177/177/177
f 180/180/180 178/178/178 181/181/181
f 179/179/179 181/181/181 177/177/177
f 182/182/182 179/179/179 156/156/156
f 159/159/159 182/182/182 156/156/156
f 182/182/182 159/159/159 173/173/173
f 182/182/182 173/173/173 179/179/179
f 173/173/173 181/181/181 179/179/179
f 183/183/183 180/180/180 181/181/181
f 167/167/167 180/180/180 183/183/183
f 183/183/183 181/181/181 173/173/173
f 167/167/167 183/183/183 184/184/184
f 184/184/184 183/183/183 173/173/173
f 174/174/174 167/167/167 184/184/184
f 174/174/174 184/184/184 173/173/173
