g Taha_drawingBoard
v 1.371427 0.01599407 2.084526
v -1.371428 0.02167892 -2.082527
v 1.371427 0.02167892 -2.082527
v -1.371428 0.01599407 2.084526
v -1.371428 0.02167892 -2.082527
v 1.371427 0.01599407 2.084526
v -1.371428 0.02167892 -2.082527
v -1.371428 -0.07063007 2.084526
v -1.371428 -0.06714249 -2.084524
v -1.371428 0.01599407 2.084526
v 1.371427 -0.07063007 2.084526
v 1.371427 0.01599407 2.084526
v 1.371427 -0.06714249 -2.084524
v 1.371427 0.02167892 -2.082527
v -1.371428 -0.06714249 -2.084524
v -1.371428 0.02167892 -2.082527
v 1.371427 -0.07063007 2.084526
v 1.371427 -0.06714249 -2.084524
v -1.371428 -0.06714249 -2.084524
v -1.371428 -0.07063007 2.084526
v 1.371427 0.02167892 -2.082527
v 1.371427 0.08936095 -2.195249
v 1.371427 0.0784719 -2.192346
v 1.347731 -0.05614901 -2.295193
v 1.347731 -0.05720973 -2.283974
v 1.333755 -0.1696179 -2.161203
v 1.333755 -0.1608925 -2.156283
v 1.324036 -0.1303594 -1.522663
v 1.324036 -0.1190903 -1.522855
v 1.371427 -0.09921241 0.09369659
v -1.371428 0.02167892 -2.082527
v -1.371428 0.08913136 -2.196005
v 1.371427 0.08936095 -2.195249
v 1.371427 0.02167892 -2.082527
v -1.395124 -0.05710125 -2.295243
v 1.333755 -0.1696179 -2.161203
v 1.347731 -0.05614901 -2.295193
v -1.4091 -0.1699646 -2.160928
v 1.324036 -0.1303594 -1.522663
v -1.418819 -0.1303554 -1.522521
v 1.371427 -0.09921241 0.09369659
v -1.371428 -0.09921241 0.09369659
v -1.371428 0.08913136 -2.196005
v -1.395124 -0.05710125 -2.295243
v 1.347731 -0.05614901 -2.295193
v 1.371427 0.08936095 -2.195249
v -1.371428 -0.09921241 0.09369659
v -1.418819 -0.1303554 -1.522521
v -1.418819 -0.1190903 -1.522855
v -1.4091 -0.1699646 -2.160928
v -1.4091 -0.1608925 -2.156283
v -1.395124 -0.05710125 -2.295243
v -1.395124 -0.05720973 -2.283974
v -1.371428 0.08913136 -2.196005
v -1.371428 0.0784719 -2.192346
v -1.371428 0.02167892 -2.082527
v 1.371427 0.02167892 -2.082527
v -1.371428 0.0784719 -2.192346
v -1.371428 0.02167892 -2.082527
v 1.371427 0.0784719 -2.192346
v 1.347731 -0.05720973 -2.283974
v -1.395124 -0.05720973 -2.283974
v -1.4091 -0.1608925 -2.156283
v 1.333755 -0.1608925 -2.156283
v 1.324036 -0.1190903 -1.522855
v -1.418819 -0.1190903 -1.522855
v 1.371427 -0.09921241 0.09369659
v -1.371428 -0.09921241 0.09369659
vt 0.5561764 0.3500047
vt 0.4522066 0.4995361
vt 0.5531619 0.5015076
vt 0.3158145 0.5197984
vt 0.4657021 0.5222915
vt 0.3169465 0.4200896
vt 0.7581252 0.4014173
vt 0.7842131 0.3952101
vt 0.7680592 0.3852761
vt 0.7742664 0.411364
vt 0.8003542 0.4051569
vt 0.7904202 0.421298
vt 0.8164954 0.4150908
vt 0.8065614 0.431232
vt 0.8326365 0.4250248
vt 0.8227025 0.441166
vt 0.7884487 0.3971689
vt 0.7884487 0.4352005
vt 0.8264675 0.4352005
vt 0.8264675 0.3971689
vt 0 0
vt 0 0
vt 0 0
vt 0 0
vt 0 0
vt 0 0
vt 0 0
vt 0 0
vt 0 0
vt 0 0
vt 0.812565 0.2915583
vt 0.8291259 0.2917745
vt 0.8298764 0.2677345
vt 0.8135318 0.2679125
vt 0.8293803 0.2676454
vt 0.8235802 0.2919526
vt 0.8291514 0.2912275
vt 0.8245342 0.2675819
vt 0.8199933 0.2915201
vt 0.8209091 0.2678617
vt 0.8089908 0.2911258
vt 0.8099194 0.2674673
vt 0.8335778 0.2685867
vt 0.8321532 0.2683323
vt 0.8312247 0.2920034
vt 0.8326492 0.2922578
vt 0 0
vt 0 0
vt 0 0
vt 0 0
vt 0 0
vt 0 0
vt 0 0
vt 0 0
vt 0 0
vt 0 0
vt 0.803814 0.2802378
vt 0.8044627 0.2723771
vt 0.8036613 0.2723898
vt 0.8046153 0.2802251
vt 0.8053657 0.2801615
vt 0.8052258 0.2723008
vt 0.8061417 0.2722626
vt 0.8062816 0.2801106
vt 0.8069175 0.2800725
vt 0.8067777 0.2722245
vt 0.8178818 0.2801361
vt 0.8177292 0.2722881
vn 0.5767098 0.5760791 0.579257
vn -0.5778284 0.5830764 -0.5710834
vn 0.5784591 0.5830764 -0.5704445
vn -0.5778284 0.5760791 0.5781412
vn -0.5778284 0.5830764 -0.5710834
vn 0.5767098 0.5760791 0.579257
vn -0.5778284 0.5830764 -0.5710834
vn -0.5778284 -0.5784591 0.5757598
vn -0.5760791 -0.5714619 -0.5844349
vn -0.5778284 0.5760791 0.5781412
vn 0.5767098 -0.5784591 0.5768802
vn 0.5767098 0.5760791 0.579257
vn 0.5767098 -0.5714619 -0.5838125
vn 0.5784591 0.5830764 -0.5704445
vn -0.5760791 -0.5714619 -0.5844349
vn -0.5778284 0.5830764 -0.5710834
vn 0.5767098 -0.5784591 0.5768802
vn 0.5767098 -0.5714619 -0.5838125
vn -0.5760791 -0.5714619 -0.5844349
vn -0.5778284 -0.5784591 0.5757598
vn 0.5504703 -0.4070277 0.7289107
vn 0.6099465 0.7737501 -0.1711027
vn 0.8810881 -0.4700025 0.05273946
vn 0.5609661 -0.1148945 -0.819827
vn 0.8950825 -0.04492247 0.443632
vn 0.6116958 -0.7551385 -0.2357842
vn 0.8023695 0.5550876 0.2192736
vn 0.706158 -0.7079073 0.01442291
vn 0.6974115 0.7160232 -0.03046186
vn 0.5522196 0.01280445 0.8336003
vn -0.5236001 -0.4140249 0.7445982
vn -0.5498396 0.8157333 -0.1795984
vn 0.6099465 0.7737501 -0.1711027
vn 0.5504703 -0.4070277 0.7289107
vn -0.6005694 -0.1026494 -0.7929562
vn 0.6116958 -0.7551385 -0.2357842
vn 0.5609661 -0.1148945 -0.819827
vn -0.6495497 -0.7149045 -0.2588372
vn 0.706158 -0.7079073 0.01442291
vn -0.7177725 -0.6956623 0.0292694
vn 0.5522196 0.01280445 0.8336003
vn -0.5218508 0.01280445 0.8529407
vn -0.5498396 0.8157333 -0.1795984
vn -0.6005694 -0.1026494 -0.7929562
vn 0.5609661 -0.1148945 -0.819827
vn 0.6099465 0.7737501 -0.1711027
vn -0.5218508 0.01280445 0.8529407
vn -0.7177725 -0.6956623 0.0292694
vn -0.7053557 0.7088534 0
vn -0.6495497 -0.7149045 -0.2588372
vn -0.7947417 0.5900736 0.1421221
vn -0.6005694 -0.1026494 -0.7929562
vn -0.8804574 0.1754894 0.4404523
vn -0.5498396 0.8157333 -0.1795984
vn -0.8944519 -0.4122756 0.173161
vn -0.5236001 -0.4140249 0.7445982
vn 0.5504703 -0.4070277 0.7289107
vn -0.8944519 -0.4122756 0.173161
vn -0.5236001 -0.4140249 0.7445982
vn 0.8810881 -0.4700025 0.05273946
vn 0.8950825 -0.04492247 0.443632
vn -0.8804574 0.1754894 0.4404523
vn -0.7947417 0.5900736 0.1421221
vn 0.8023695 0.5550876 0.2192736
vn 0.6974115 0.7160232 -0.03046186
vn -0.7053557 0.7088534 0
vn 0.5522196 0.01280445 0.8336003
vn -0.5218508 0.01280445 0.8529407
g Taha_drawingBoard_0
f 3/3/3 2/2/2 1/1/1
f 6/6/6 5/5/5 4/4/4
f 9/9/9 8/8/8 7/7/7
f 8/8/8 10/10/10 7/7/7
f 8/8/8 11/11/11 10/10/10
f 11/11/11 12/12/12 10/10/10
f 11/11/11 13/13/13 12/12/12
f 13/13/13 14/14/14 12/12/12
f 13/13/13 15/15/15 14/14/14
f 15/15/15 16/16/16 14/14/14
f 19/19/19 18/18/18 17/17/17
f 20/20/20 19/19/19 17/17/17
f 23/23/23 22/22/22 21/21/21
f 24/24/24 22/22/22 23/23/23
f 25/25/25 24/24/24 23/23/23
f 26/26/26 24/24/24 25/25/25
f 27/27/27 26/26/26 25/25/25
f 28/28/28 26/26/26 27/27/27
f 29/29/29 28/28/28 27/27/27
f 30/30/30 28/28/28 29/29/29
f 33/33/33 32/32/32 31/31/31
f 34/34/34 33/33/33 31/31/31
f 37/37/37 36/36/36 35/35/35
f 36/36/36 38/38/38 35/35/35
f 36/36/36 39/39/39 38/38/38
f 39/39/39 40/40/40 38/38/38
f 39/39/39 41/41/41 40/40/40
f 41/41/41 42/42/42 40/40/40
f 45/45/45 44/44/44 43/43/43
f 46/46/46 45/45/45 43/43/43
f 49/49/49 48/48/48 47/47/47
f 50/50/50 48/48/48 49/49/49
f 51/51/51 50/50/50 49/49/49
f 52/52/52 50/50/50 51/51/51
f 53/53/53 52/52/52 51/51/51
f 54/54/54 52/52/52 53/53/53
f 55/55/55 54/54/54 53/53/53
f 56/56/56 54/54/54 55/55/55
f 59/59/59 58/58/58 57/57/57
f 58/58/58 60/60/60 57/57/57
f 60/60/60 58/58/58 61/61/61
f 58/58/58 62/62/62 61/61/61
f 61/61/61 62/62/62 63/63/63
f 64/64/64 61/61/61 63/63/63
f 64/64/64 63/63/63 65/65/65
f 63/63/63 66/66/66 65/65/65
f 65/65/65 66/66/66 67/67/67
f 66/66/66 68/68/68 67/67/67
