g Taha_heart_R
v 1.192093E-07 0.4774029 0.02306604
v 0.2072261 0.05175859 -0.06046176
v 0.429346 0.2854412 -0.06605053
v 1.192093E-07 -0.1227042 -0.04963857
v 0.5666934 0.4730938 -0.06531233
v -0.2072259 0.05175859 -0.06046176
v 0.5616273 0.6791398 -0.06282037
v -0.4293471 0.2854412 -0.06605053
v 0.44544 0.8199154 -0.06242031
v -0.5666931 0.4730938 -0.06531233
v 0.2661239 0.8457429 -0.06313425
v -0.5616271 0.6791398 -0.06282037
v 0.09007031 0.7868194 -0.06434655
v -0.4454398 0.8199154 -0.06242031
v 1.192093E-07 0.7045673 -0.06150573
v -0.2661237 0.8457429 -0.06313425
v -0.09007013 0.7868194 -0.06434655
v 1.192093E-07 0.4774029 0.02306604
v 0.5616273 0.6791398 -0.06282037
v 0.5666934 0.4730938 -0.06531233
v 0.44544 0.8199154 -0.06242031
v 0.429346 0.2854412 -0.06605053
v 0.2661239 0.8457429 -0.06313425
v 0.2072261 0.05175859 -0.06046176
v 0.09007031 0.7868194 -0.06434655
v 1.192093E-07 -0.1227042 -0.04963857
v 1.192093E-07 0.7045673 -0.06150573
v -0.2072259 0.05175859 -0.06046176
v -0.09007013 0.7868194 -0.06434655
v -0.4293471 0.2854412 -0.06605053
v -0.2661237 0.8457429 -0.06313425
v -0.5666931 0.4730938 -0.06531233
v -0.4454398 0.8199154 -0.06242031
v -0.5616271 0.6791398 -0.06282037
vt 0.712602 0.2503347
vt 0.7310373 0.2630152
vt 0.7189268 0.2642632
vt 0.7409135 0.2620676
vt 0.7128331 0.2624297
vt 0.7310373 0.2630152
vt 0.6991588 0.2539478
vt 0.7189268 0.2642632
vt 0.6986812 0.2415369
vt 0.7128331 0.2624297
vt 0.7084342 0.2360441
vt 0.6991588 0.2539478
vt 0.7163615 0.2395031
vt 0.6986812 0.2415369
vt 0.7128254 0.2505119
vt 0.7084342 0.2360441
vt 0.7163615 0.2395031
vt 0.712602 0.2503347
vt 0.6991588 0.2539478
vt 0.7128331 0.2624297
vt 0.6986812 0.2415369
vt 0.7189268 0.2642632
vt 0.7084342 0.2360441
vt 0.7310373 0.2630152
vt 0.7163615 0.2395031
vt 0.7409135 0.2620676
vt 0.7128254 0.2505119
vt 0.7310373 0.2630152
vt 0.7163615 0.2395031
vt 0.7189268 0.2642632
vt 0.7084342 0.2360441
vt 0.7128331 0.2624297
vt 0.6986812 0.2415369
vt 0.6991588 0.2539478
vn -0.0003410578 -0.03376424 -0.9994298
vn -0.1510864 0.1190274 -0.9813284
vn -0.1517685 0.1169811 -0.9814692
vn -0.0003410578 0.1203916 -0.9927264
vn -0.1538148 0.04945266 -0.9868614
vn 0.1510864 0.1190274 -0.9813284
vn -0.1360801 -0.04263163 -0.9897801
vn 0.1517685 0.1169811 -0.9814692
vn -0.08696848 -0.1333517 -0.9872456
vn 0.1538148 0.04945266 -0.9868614
vn 0.005797893 -0.2315749 -0.9727998
vn 0.1360801 -0.04263163 -0.9897801
vn 0.1435833 -0.3072886 -0.9407218
vn 0.08696848 -0.1333517 -0.9872456
vn -0.0003410578 -0.3488971 -0.937161
vn -0.005797893 -0.2315749 -0.9727998
vn -0.1435832 -0.3072886 -0.9407218
vn -0.0003410578 0.03376421 0.9994298
vn 0.1360801 0.0426316 0.9897801
vn 0.1538148 -0.04945266 0.9868614
vn 0.08696848 0.1333517 0.9872456
vn 0.1517685 -0.1169811 0.9814692
vn -0.005797893 0.2315749 0.9727998
vn 0.1510864 -0.1190275 0.9813284
vn -0.1435832 0.3072886 0.9407218
vn -0.0003410578 -0.1203917 0.9927264
vn -0.0003410578 0.3488971 0.937161
vn -0.1510864 -0.1190275 0.9813284
vn 0.1435833 0.3072886 0.9407218
vn -0.1517685 -0.1169811 0.9814692
vn 0.005797893 0.2315749 0.9727998
vn -0.1538148 -0.04945266 0.9868614
vn -0.08696848 0.1333517 0.9872456
vn -0.1360801 0.0426316 0.9897801
g Taha_heart_R_0
f 3/3/3 2/2/2 1/1/1
f 2/2/2 4/4/4 1/1/1
f 5/5/5 3/3/3 1/1/1
f 4/4/4 6/6/6 1/1/1
f 7/7/7 5/5/5 1/1/1
f 6/6/6 8/8/8 1/1/1
f 9/9/9 7/7/7 1/1/1
f 8/8/8 10/10/10 1/1/1
f 11/11/11 9/9/9 1/1/1
f 10/10/10 12/12/12 1/1/1
f 13/13/13 11/11/11 1/1/1
f 12/12/12 14/14/14 1/1/1
f 15/15/15 13/13/13 1/1/1
f 14/14/14 16/16/16 1/1/1
f 17/17/17 15/15/15 1/1/1
f 16/16/16 17/17/17 1/1/1
f 20/20/20 19/19/19 18/18/18
f 19/19/19 21/21/21 18/18/18
f 22/22/22 20/20/20 18/18/18
f 21/21/21 23/23/23 18/18/18
f 24/24/24 22/22/22 18/18/18
f 23/23/23 25/25/25 18/18/18
f 26/26/26 24/24/24 18/18/18
f 25/25/25 27/27/27 18/18/18
f 28/28/28 26/26/26 18/18/18
f 27/27/27 29/29/29 18/18/18
f 30/30/30 28/28/28 18/18/18
f 29/29/29 31/31/31 18/18/18
f 32/32/32 30/30/30 18/18/18
f 31/31/31 33/33/33 18/18/18
f 34/34/34 32/32/32 18/18/18
f 33/33/33 34/34/34 18/18/18
