g Taha_pencil
v 0.84388 0.03658819 0.04843199
v 0.8340973 0.08022475 0.01171958
v 0.8429029 0.04702133 -0.03462183
v 0.8545558 0.0002753735 0.001703918
v 0.8340973 -0.009766221 0.08164835
v 0.8340973 0.01031697 -0.07824379
v 0.8429029 -0.04647052 0.03802806
v 0.84388 -0.03603739 -0.04502583
v 0.8340973 -0.07967395 -0.008313417
v -0.6248003 -0.003833771 0.05557293
v -0.6276606 0.03187072 0.03458542
v -0.468265 0.04682553 0.05972254
v -0.4980517 -0.01024991 0.08169854
v -0.4140143 -0.0593254 0.04381645
v -0.6250252 -0.03921795 0.03036135
v -0.5051344 -0.07410872 -0.006954491
v -0.6296715 -0.05012506 -0.01266038
v -0.611659 -0.03024733 -0.04775989
v -0.4099956 -0.04642522 -0.06387138
v -0.6254377 0.00800842 -0.0536955
v -0.507663 0.01130706 -0.08016735
v -0.4381096 0.06225115 -0.046498
v -0.6194778 0.04187191 -0.03160954
v -0.4972816 0.07993835 0.0101617
v -0.6388913 0.04940104 0.004790664
v -0.6276606 0.03187072 0.03458542
v -0.468265 0.04682553 0.05972254
v 0.6492864 -0.04308283 -0.05409348
v 0.51099 0.01094306 -0.08100533
v 0.520996 -0.04435444 -0.05572909
v 0.6508006 0.01111621 -0.08363587
v 0.6471558 0.05658239 -0.04205233
v 0.5138341 0.05878425 -0.04376233
v 0.6508006 0.08564752 0.01227611
v 0.51099 0.08305585 0.01179403
v 0.520996 0.04490525 0.05913526
v 0.6492864 0.04363364 0.05749971
v 0.51099 -0.01039225 0.08441156
v 0.6508023 -0.0105654 0.08704042
v 0.6471558 -0.05603158 0.0454585
v 0.5138357 -0.05823344 0.04716849
v 0.6508006 -0.08509672 -0.008869946
v 0.51099 -0.08250505 -0.008387864
v 0.520996 -0.04435444 -0.05572909
v 0.6492864 -0.04308283 -0.05409348
v -0.4980517 -0.01024991 0.08169854
v -0.468265 0.04682553 0.05972254
v 0.520996 0.04490525 0.05913526
v 0.51099 -0.01039225 0.08441156
v 0.5138357 -0.05823344 0.04716849
v -0.4140143 -0.0593254 0.04381645
v 0.51099 -0.08250505 -0.008387864
v -0.5051344 -0.07410872 -0.006954491
v -0.4099956 -0.04642522 -0.06387138
v 0.520996 -0.04435444 -0.05572909
v -0.507663 0.01130706 -0.08016735
v 0.51099 0.01094306 -0.08100533
v 0.5138341 0.05878425 -0.04376233
v -0.4381096 0.06225115 -0.046498
v 0.51099 0.08305585 0.01179403
v -0.4972816 0.07993835 0.0101617
v -0.468265 0.04682553 0.05972254
v 0.520996 0.04490525 0.05913526
v 0.8340973 -0.07967395 -0.008313417
v 0.84388 -0.03603739 -0.04502583
v 0.6492864 -0.04308283 -0.05409348
v 0.6508006 -0.08509672 -0.008869946
v 0.6471558 -0.05603158 0.0454585
v 0.8429029 -0.04647052 0.03802806
v 0.6508023 -0.0105654 0.08704042
v 0.8340973 -0.009766221 0.08164835
v 0.84388 0.03658819 0.04843199
v 0.6492864 0.04363364 0.05749971
v 0.8340973 0.08022475 0.01171958
v 0.6508006 0.08564752 0.01227611
v 0.6471558 0.05658239 -0.04205233
v 0.8429029 0.04702133 -0.03462183
v 0.6508006 0.01111621 -0.08363587
v 0.8340973 0.01031697 -0.07824379
v 0.84388 -0.03603739 -0.04502583
v 0.6492864 -0.04308283 -0.05409348
v -0.8418133 0.000382185 0.0009791255
v -0.6248003 -0.003833771 0.05557293
v -0.6250252 -0.03921795 0.03036135
v -0.6276606 0.03187072 0.03458542
v -0.6296715 -0.05012506 -0.01266038
v -0.6388913 0.04940104 0.004790664
v -0.611659 -0.03024733 -0.04775989
v -0.6194778 0.04187191 -0.03160954
v -0.6254377 0.00800842 -0.0536955
vt 0.6943486 0.2189845
vt 0.6943486 0.2223005
vt 0.6976528 0.2225601
vt 0.6977944 0.2191143
vt 0.6946083 0.2156803
vt 0.7009688 0.2225601
vt 0.6979243 0.2156803
vt 0.7012284 0.2192559
vt 0.7012284 0.2159399
vt 0.7949253 0.527193
vt 0.8068557 0.5474074
vt 0.8216301 0.5406693
vt 0.7991499 0.516242
vt 0.7664386 0.5170798
vt 0.7705924 0.527724
vt 0.7418107 0.5386159
vt 0.7523369 0.5438082
vt 0.7526201 0.5682709
vt 0.7415747 0.5717403
vt 0.7691528 0.5837415
vt 0.7614115 0.5985985
vt 0.7940757 0.6016902
vt 0.7898156 0.5856886
vt 0.8208866 0.5827975
vt 0.8067967 0.5737464
vt 0.8087202 0.5530953
vt 0.8246157 0.5498147
vt 0.2960307 0.1009194
vt 0.3004206 0.1143839
vt 0.3055774 0.1085898
vt 0.2909682 0.1066073
vt 0.2852803 0.1130032
vt 0.2946618 0.1208624
vt 0.2797931 0.1191749
vt 0.2891037 0.1271049
vt 0.283286 0.1336543
vt 0.274058 0.125618
vt 0.2774566 0.1402036
vt 0.2683111 0.132073
vt 0.2628356 0.1382447
vt 0.2718984 0.1464461
vt 0.2571477 0.1446406
vt 0.2661397 0.1529247
vt 0.2609829 0.1587188
vt 0.2520852 0.1503285
vt 0.05323307 0.4195477
vt 0.05126237 0.4223563
vt 0.08603878 0.4494741
vt 0.08859952 0.4458159
vt 0.09153786 0.4416149
vt 0.0556286 0.4161256
vt 0.09459423 0.4372487
vt 0.05811853 0.4125618
vt 0.06354681 0.4106147
vt 0.09778039 0.4327054
vt 0.0633816 0.4050566
vt 0.1009548 0.4281622
vt 0.1040229 0.423796
vt 0.06814905 0.4028263
vt 0.1069613 0.4195949
vt 0.06826705 0.3980706
vt 0.07023776 0.3952503
vt 0.109522 0.4159368
vt 0.7095007 0.2269263
vt 0.7096776 0.2271387
vt 0.7167698 0.2211086
vt 0.716463 0.2207664
vt 0.7154245 0.2195627
vt 0.7083442 0.2256047
vt 0.7141619 0.2181112
vt 0.7071405 0.224224
vt 0.7055475 0.2223949
vt 0.7125924 0.2163176
vt 0.7039543 0.2205658
vt 0.7110347 0.2145121
vt 0.7097602 0.2130606
vt 0.7027507 0.2191851
vt 0.7087218 0.2118569
vt 0.7015942 0.2178516
vt 0.7014172 0.2176392
vt 0.708415 0.2115147
vt 0.6730368 0.3397874
vt 0.6383311 0.3355038
vt 0.6413049 0.36248
vt 0.6574363 0.3150415
vt 0.6569525 0.3796027
vt 0.6891918 0.3116193
vt 0.6833387 0.3749886
vt 0.6995055 0.3311375
vt 0.6986323 0.3545264
vn 0.6891567 0.4447353 0.5720783
vn 0.4819282 0.8689673 0.1124325
vn 0.6813368 0.5776743 -0.4495249
vn 0.9999995 0.0009534359 -0.0002112683
vn 0.4819282 -0.1104808 0.8692176
vn 0.4819282 0.1104326 -0.8692237
vn 0.6813368 -0.5777225 0.4494629
vn 0.6891567 -0.4447834 -0.5720409
vn 0.4819282 -0.8690155 -0.1120597
vn -0.2140468 -0.08897597 0.9727626
vn -0.1925421 0.6500088 0.73513
vn -0.06351292 0.626549 0.7767898
vn -0.1299825 -0.1437156 0.9810456
vn -0.02832317 -0.8084109 0.5879368
vn -0.1788571 -0.8025459 0.5691487
vn -0.1221626 -0.9882696 -0.09164838
vn -0.200362 -0.9687197 -0.1464144
vn -0.1710372 -0.5914074 -0.7880251
vn -0.0224582 -0.6265972 -0.7790197
vn -0.2140468 0.1729922 -0.9613832
vn -0.1319375 0.1475774 -0.9802109
vn -0.03614318 0.7966328 -0.6033821
vn -0.1866771 0.7888128 -0.5855989
vn -0.1299825 0.9823564 0.1344634
vn -0.2179569 0.9667165 0.1339923
vn -0.1925421 0.6500088 0.73513
vn -0.06351292 0.626549 0.7767898
vn 0.02055144 -0.6129123 -0.7898836
vn 0.002956569 0.1299825 -0.9915119
vn 0.001001596 -0.6207322 -0.784022
vn 0.02641642 0.1202075 -0.9923972
vn 0.02250642 0.7888128 -0.6142214
vn 0.001001596 0.7927228 -0.6095815
vn 0.02641642 0.9921314 0.1223827
vn 0.001001596 0.9901764 0.1398199
vn -0.0009534359 0.6167741 0.7871397
vn 0.02055144 0.612864 0.7899211
vn -0.0009534359 -0.1261207 0.9920145
vn 0.02641642 -0.1202558 0.9923914
vn 0.02250642 -0.788861 0.6141593
vn -0.0009534359 -0.7966809 0.6043994
vn 0.02641642 -0.9921796 -0.1219912
vn -0.0009534359 -0.9941345 -0.1081463
vn 0.001001596 -0.6207322 -0.784022
vn 0.02055144 -0.6129123 -0.7898836
vn -0.1299825 -0.1437156 0.9810456
vn -0.06351292 0.626549 0.7767898
vn -0.0009534359 0.6167741 0.7871397
vn -0.0009534359 -0.1261207 0.9920145
vn -0.0009534359 -0.7966809 0.6043994
vn -0.02832317 -0.8084109 0.5879368
vn -0.0009534359 -0.9941345 -0.1081463
vn -0.1221626 -0.9882696 -0.09164838
vn -0.0224582 -0.6265972 -0.7790197
vn 0.001001596 -0.6207322 -0.784022
vn -0.1319375 0.1475774 -0.9802109
vn 0.002956569 0.1299825 -0.9915119
vn 0.001001596 0.7927228 -0.6095815
vn -0.03614318 0.7966328 -0.6033821
vn 0.001001596 0.9901764 0.1398199
vn -0.1299825 0.9823564 0.1344634
vn -0.06351292 0.626549 0.7767898
vn -0.0009534359 0.6167741 0.7871397
vn 0.4819282 -0.8690155 -0.1120597
vn 0.6891567 -0.4447834 -0.5720409
vn 0.02055144 -0.6129123 -0.7898836
vn 0.02641642 -0.9921796 -0.1219912
vn 0.02250642 -0.788861 0.6141593
vn 0.6813368 -0.5777225 0.4494629
vn 0.02641642 -0.1202558 0.9923914
vn 0.4819282 -0.1104808 0.8692176
vn 0.6891567 0.4447353 0.5720783
vn 0.02055144 0.612864 0.7899211
vn 0.4819282 0.8689673 0.1124325
vn 0.02641642 0.9921314 0.1223827
vn 0.02250642 0.7888128 -0.6142214
vn 0.6813368 0.5776743 -0.4495249
vn 0.02641642 0.1202075 -0.9923972
vn 0.4819282 0.1104326 -0.8692237
vn 0.6891567 -0.4447834 -0.5720409
vn 0.02055144 -0.6129123 -0.7898836
vn -0.9999514 0.002908349 0.009424239
vn -0.2140468 -0.08897597 0.9727626
vn -0.1788571 -0.8025459 0.5691487
vn -0.1925421 0.6500088 0.73513
vn -0.200362 -0.9687197 -0.1464144
vn -0.2179569 0.9667165 0.1339923
vn -0.1710372 -0.5914074 -0.7880251
vn -0.1866771 0.7888128 -0.5855989
vn -0.2140468 0.1729922 -0.9613832
g Taha_pencil_0
f 3/3/3 2/2/2 1/1/1
f 4/4/4 3/3/3 1/1/1
f 4/4/4 1/1/1 5/5/5
f 6/6/6 3/3/3 4/4/4
f 7/7/7 4/4/4 5/5/5
f 8/8/8 6/6/6 4/4/4
f 8/8/8 4/4/4 7/7/7
f 9/9/9 8/8/8 7/7/7
f 12/12/12 11/11/11 10/10/10
f 13/13/13 12/12/12 10/10/10
f 14/14/14 13/13/13 10/10/10
f 15/15/15 14/14/14 10/10/10
f 16/16/16 14/14/14 15/15/15
f 17/17/17 16/16/16 15/15/15
f 17/17/17 18/18/18 16/16/16
f 18/18/18 19/19/19 16/16/16
f 18/18/18 20/20/20 19/19/19
f 20/20/20 21/21/21 19/19/19
f 21/21/21 20/20/20 22/22/22
f 20/20/20 23/23/23 22/22/22
f 22/22/22 23/23/23 24/24/24
f 23/23/23 25/25/25 24/24/24
f 24/24/24 25/25/25 26/26/26
f 27/27/27 24/24/24 26/26/26
f 30/30/30 29/29/29 28/28/28
f 29/29/29 31/31/31 28/28/28
f 31/31/31 29/29/29 32/32/32
f 29/29/29 33/33/33 32/32/32
f 32/32/32 33/33/33 34/34/34
f 33/33/33 35/35/35 34/34/34
f 34/34/34 35/35/35 36/36/36
f 37/37/37 34/34/34 36/36/36
f 37/37/37 36/36/36 38/38/38
f 39/39/39 37/37/37 38/38/38
f 40/40/40 39/39/39 38/38/38
f 41/41/41 40/40/40 38/38/38
f 42/42/42 40/40/40 41/41/41
f 43/43/43 42/42/42 41/41/41
f 43/43/43 44/44/44 42/42/42
f 44/44/44 45/45/45 42/42/42
f 48/48/48 47/47/47 46/46/46
f 49/49/49 48/48/48 46/46/46
f 50/50/50 49/49/49 46/46/46
f 51/51/51 50/50/50 46/46/46
f 52/52/52 50/50/50 51/51/51
f 53/53/53 52/52/52 51/51/51
f 53/53/53 54/54/54 52/52/52
f 54/54/54 55/55/55 52/52/52
f 54/54/54 56/56/56 55/55/55
f 56/56/56 57/57/57 55/55/55
f 57/57/57 56/56/56 58/58/58
f 56/56/56 59/59/59 58/58/58
f 58/58/58 59/59/59 60/60/60
f 59/59/59 61/61/61 60/60/60
f 60/60/60 61/61/61 62/62/62
f 63/63/63 60/60/60 62/62/62
f 66/66/66 65/65/65 64/64/64
f 67/67/67 66/66/66 64/64/64
f 67/67/67 64/64/64 68/68/68
f 64/64/64 69/69/69 68/68/68
f 68/68/68 69/69/69 70/70/70
f 69/69/69 71/71/71 70/70/70
f 71/71/71 72/72/72 70/70/70
f 72/72/72 73/73/73 70/70/70
f 72/72/72 74/74/74 73/73/73
f 74/74/74 75/75/75 73/73/73
f 76/76/76 75/75/75 74/74/74
f 77/77/77 76/76/76 74/74/74
f 78/78/78 76/76/76 77/77/77
f 79/79/79 78/78/78 77/77/77
f 78/78/78 79/79/79 80/80/80
f 81/81/81 78/78/78 80/80/80
f 84/84/84 83/83/83 82/82/82
f 83/83/83 85/85/85 82/82/82
f 86/86/86 84/84/84 82/82/82
f 82/82/82 85/85/85 87/87/87
f 88/88/88 86/86/86 82/82/82
f 87/87/87 89/89/89 82/82/82
f 90/90/90 88/88/88 82/82/82
f 89/89/89 90/90/90 82/82/82
